<svg xmlns="http://www.w3.org/2000/svg" xmlns:xlink="http://www.w3.org/1999/xlink" contentStyleType="text/css" height="1008px" preserveAspectRatio="none" style="width:1139px;height:1008px;background:#FFFFFF;" version="1.1" viewBox="0 0 1139 1008" width="1139px" zoomAndPan="magnify"><defs/><g><!--class TrainCompositionController--><g id="elem_TrainCompositionController"><rect codeLine="9" fill="#F1F1F1" height="58.9766" id="TrainCompositionController" rx="2.5" ry="2.5" style="stroke:#181818;stroke-width:0.5;" width="395.0107" x="388.42" y="7"/><text fill="#000000" font-family="sans-serif" font-size="14" lengthAdjust="spacing" textLength="189.7314" x="491.0596" y="25.5352">TrainCompositionController</text><line style="stroke:#181818;stroke-width:0.5;" x1="389.42" x2="782.4307" y1="33.4883" y2="33.4883"/><line style="stroke:#181818;stroke-width:0.5;" x1="389.42" x2="782.4307" y1="41.4883" y2="41.4883"/><ellipse cx="399.42" cy="55.2324" fill="#84BE84" rx="3" ry="3" style="stroke:#038048;stroke-width:1.0;"/><text fill="#000000" font-family="sans-serif" font-size="14" lengthAdjust="spacing" textLength="369.0107" x="408.42" y="59.0234">createAndAssignTrain(locoId, wagonIds, routeId, date)</text></g><!--class TrainCompositionService--><g id="elem_TrainCompositionService"><rect codeLine="13" fill="#F1F1F1" height="91.9531" id="TrainCompositionService" rx="2.5" ry="2.5" style="stroke:#181818;stroke-width:0.5;" width="450.1768" x="360.84" y="142.97"/><text fill="#000000" font-family="sans-serif" font-size="14" lengthAdjust="spacing" textLength="168.9023" x="501.4772" y="161.5052">TrainCompositionService</text><line style="stroke:#181818;stroke-width:0.5;" x1="361.84" x2="810.0168" y1="169.4583" y2="169.4583"/><line style="stroke:#181818;stroke-width:0.5;" x1="361.84" x2="810.0168" y1="177.4583" y2="177.4583"/><ellipse cx="371.84" cy="191.2024" fill="#84BE84" rx="3" ry="3" style="stroke:#038048;stroke-width:1.0;"/><text fill="#000000" font-family="sans-serif" font-size="14" lengthAdjust="spacing" textLength="424.1768" x="380.84" y="194.9934">assembleTrain(locoId, wagonIds, routeId, date): ScheduledTrip</text><rect fill="#F24D5C" height="6" style="stroke:#C82930;stroke-width:1.0;" width="6" x="368.84" y="204.6907"/><text fill="#000000" font-family="sans-serif" font-size="14" lengthAdjust="spacing" textLength="249.4639" x="380.84" y="211.4817">validatePhysics(train: Train): boolean</text><rect fill="#F24D5C" height="6" style="stroke:#C82930;stroke-width:1.0;" width="6" x="368.84" y="221.179"/><text fill="#000000" font-family="sans-serif" font-size="14" lengthAdjust="spacing" textLength="385.9229" x="380.84" y="227.97">validateInfrastructure(train: Train, route: Route): boolean</text></g><!--class Train--><g id="elem_Train"><rect codeLine="21" fill="#F1F1F1" height="157.9063" id="Train" rx="2.5" ry="2.5" style="stroke:#181818;stroke-width:0.5;" width="352.9424" x="59.45" y="649.83"/><text fill="#000000" font-family="sans-serif" font-size="14" lengthAdjust="spacing" textLength="35.0479" x="218.3973" y="668.3652">Train</text><line style="stroke:#181818;stroke-width:0.5;" x1="60.45" x2="411.3924" y1="676.3183" y2="676.3183"/><rect fill="none" height="6" style="stroke:#C82930;stroke-width:1.0;" width="6" x="67.45" y="687.0624"/><text fill="#000000" font-family="sans-serif" font-size="14" lengthAdjust="spacing" textLength="87.0557" x="79.45" y="693.8534">trainId: UUID</text><rect fill="none" height="6" style="stroke:#C82930;stroke-width:1.0;" width="6" x="67.45" y="703.5507"/><text fill="#000000" font-family="sans-serif" font-size="14" lengthAdjust="spacing" textLength="138.4004" x="79.45" y="710.3417">totalMassKg: double</text><rect fill="none" height="6" style="stroke:#C82930;stroke-width:1.0;" width="6" x="67.45" y="720.039"/><text fill="#000000" font-family="sans-serif" font-size="14" lengthAdjust="spacing" textLength="145.1338" x="79.45" y="726.83">totalLengthM: double</text><line style="stroke:#181818;stroke-width:0.5;" x1="60.45" x2="411.3924" y1="733.7831" y2="733.7831"/><ellipse cx="70.45" cy="747.5273" fill="#84BE84" rx="3" ry="3" style="stroke:#038048;stroke-width:1.0;"/><text fill="#000000" font-family="sans-serif" font-size="14" lengthAdjust="spacing" textLength="326.9424" x="79.45" y="751.3183">create(loco: Locomotive, wagons: List&lt;Wagon&gt;)</text><ellipse cx="70.45" cy="764.0155" fill="#84BE84" rx="3" ry="3" style="stroke:#038048;stroke-width:1.0;"/><text fill="#000000" font-family="sans-serif" font-size="14" lengthAdjust="spacing" textLength="137.2588" x="79.45" y="767.8066">calculateTotalMass()</text><ellipse cx="70.45" cy="780.5038" fill="#84BE84" rx="3" ry="3" style="stroke:#038048;stroke-width:1.0;"/><text fill="#000000" font-family="sans-serif" font-size="14" lengthAdjust="spacing" textLength="149.8027" x="79.45" y="784.2948">calculateTotalLength()</text><ellipse cx="70.45" cy="796.9921" fill="#84BE84" rx="3" ry="3" style="stroke:#038048;stroke-width:1.0;"/><text fill="#000000" font-family="sans-serif" font-size="14" lengthAdjust="spacing" textLength="216.1523" x="79.45" y="800.7831">validateTractiveEffort(): boolean</text></g><!--class Locomotive--><g id="elem_Locomotive"><rect codeLine="31" fill="#F1F1F1" height="116.9297" id="Locomotive" rx="2.5" ry="2.5" style="stroke:#181818;stroke-width:0.5;" width="227.8516" x="7" y="884.74"/><text fill="#000000" font-family="sans-serif" font-size="14" lengthAdjust="spacing" textLength="77.834" x="82.0088" y="903.2752">Locomotive</text><line style="stroke:#181818;stroke-width:0.5;" x1="8" x2="233.8516" y1="911.2283" y2="911.2283"/><rect fill="none" height="6" style="stroke:#C82930;stroke-width:1.0;" width="6" x="15" y="921.9724"/><text fill="#000000" font-family="sans-serif" font-size="14" lengthAdjust="spacing" textLength="136.0898" x="27" y="928.7634">locomotiveId: String</text><rect fill="none" height="6" style="stroke:#C82930;stroke-width:1.0;" width="6" x="15" y="938.4607"/><text fill="#000000" font-family="sans-serif" font-size="14" lengthAdjust="spacing" textLength="201.8516" x="27" y="945.2517">tractiveEffortNewtons: double</text><rect fill="none" height="6" style="stroke:#C82930;stroke-width:1.0;" width="6" x="15" y="954.949"/><text fill="#000000" font-family="sans-serif" font-size="14" lengthAdjust="spacing" textLength="117.2705" x="27" y="961.74">powerKw: double</text><rect fill="none" height="6" style="stroke:#C82930;stroke-width:1.0;" width="6" x="15" y="971.4373"/><text fill="#000000" font-family="sans-serif" font-size="14" lengthAdjust="spacing" textLength="146.46" x="27" y="978.2283">tareWeightKg: double</text><rect fill="none" height="6" style="stroke:#C82930;stroke-width:1.0;" width="6" x="15" y="987.9255"/><text fill="#000000" font-family="sans-serif" font-size="14" lengthAdjust="spacing" textLength="110.8652" x="27" y="994.7166">lengthM: double</text></g><!--class Wagon--><g id="elem_Wagon"><rect codeLine="39" fill="#F1F1F1" height="116.9297" id="Wagon" rx="2.5" ry="2.5" style="stroke:#181818;stroke-width:0.5;" width="210.2627" x="269.79" y="884.74"/><text fill="#000000" font-family="sans-serif" font-size="14" lengthAdjust="spacing" textLength="45.7256" x="352.0586" y="903.2752">Wagon</text><line style="stroke:#181818;stroke-width:0.5;" x1="270.79" x2="479.0527" y1="911.2283" y2="911.2283"/><rect fill="none" height="6" style="stroke:#C82930;stroke-width:1.0;" width="6" x="277.79" y="921.9724"/><text fill="#000000" font-family="sans-serif" font-size="14" lengthAdjust="spacing" textLength="106.21" x="289.79" y="928.7634">wagonId: String</text><rect fill="none" height="6" style="stroke:#C82930;stroke-width:1.0;" width="6" x="277.79" y="938.4607"/><text fill="#000000" font-family="sans-serif" font-size="14" lengthAdjust="spacing" textLength="146.46" x="289.79" y="945.2517">tareWeightKg: double</text><rect fill="none" height="6" style="stroke:#C82930;stroke-width:1.0;" width="6" x="277.79" y="954.949"/><text fill="#000000" font-family="sans-serif" font-size="14" lengthAdjust="spacing" textLength="184.2627" x="289.79" y="961.74">payloadCapacityKg: double</text><rect fill="none" height="6" style="stroke:#C82930;stroke-width:1.0;" width="6" x="277.79" y="971.4373"/><text fill="#000000" font-family="sans-serif" font-size="14" lengthAdjust="spacing" textLength="157.2949" x="289.79" y="978.2283">grossWeightKg: double</text><rect fill="none" height="6" style="stroke:#C82930;stroke-width:1.0;" width="6" x="277.79" y="987.9255"/><text fill="#000000" font-family="sans-serif" font-size="14" lengthAdjust="spacing" textLength="110.8652" x="289.79" y="994.7166">lengthM: double</text></g><!--class Route--><g id="elem_Route"><rect codeLine="47" fill="#F1F1F1" height="91.9531" id="Route" rx="2.5" ry="2.5" style="stroke:#181818;stroke-width:0.5;" width="342.2783" x="300.79" y="480.88"/><text fill="#000000" font-family="sans-serif" font-size="14" lengthAdjust="spacing" textLength="39.1768" x="452.3408" y="499.4152">Route</text><line style="stroke:#181818;stroke-width:0.5;" x1="301.79" x2="642.0683" y1="507.3683" y2="507.3683"/><rect fill="none" height="6" style="stroke:#C82930;stroke-width:1.0;" width="6" x="308.79" y="518.1124"/><text fill="#000000" font-family="sans-serif" font-size="14" lengthAdjust="spacing" textLength="97.7266" x="320.79" y="524.9034">routeId: String</text><rect fill="none" height="6" style="stroke:#C82930;stroke-width:1.0;" width="6" x="308.79" y="534.6007"/><text fill="#000000" font-family="sans-serif" font-size="14" lengthAdjust="spacing" textLength="185.5342" x="320.79" y="541.3917">maxSidingLengthM: double</text><line style="stroke:#181818;stroke-width:0.5;" x1="301.79" x2="642.0683" y1="548.3448" y2="548.3448"/><ellipse cx="311.79" cy="562.089" fill="#84BE84" rx="3" ry="3" style="stroke:#038048;stroke-width:1.0;"/><text fill="#000000" font-family="sans-serif" font-size="14" lengthAdjust="spacing" textLength="316.2783" x="320.79" y="565.88">validateCapacity(trainLength: double): boolean</text></g><!--class ScheduledTrip--><g id="elem_ScheduledTrip"><rect codeLine="53" fill="#F1F1F1" height="83.9531" id="ScheduledTrip" rx="2.5" ry="2.5" style="stroke:#181818;stroke-width:0.5;" width="232.4863" x="198.68" y="315.93"/><text fill="#000000" font-family="sans-serif" font-size="14" lengthAdjust="spacing" textLength="96.7969" x="266.5247" y="334.4652">ScheduledTrip</text><line style="stroke:#181818;stroke-width:0.5;" x1="199.68" x2="430.1663" y1="342.4183" y2="342.4183"/><rect fill="none" height="6" style="stroke:#C82930;stroke-width:1.0;" width="6" x="206.68" y="353.1624"/><text fill="#000000" font-family="sans-serif" font-size="14" lengthAdjust="spacing" textLength="79.4473" x="218.68" y="359.9534">tripId: UUID</text><rect fill="none" height="6" style="stroke:#C82930;stroke-width:1.0;" width="6" x="206.68" y="369.6507"/><text fill="#000000" font-family="sans-serif" font-size="14" lengthAdjust="spacing" textLength="206.4863" x="218.68" y="376.4417">departureDate: LocalDateTime</text><rect fill="none" height="6" style="stroke:#C82930;stroke-width:1.0;" width="6" x="206.68" y="386.139"/><text fill="#000000" font-family="sans-serif" font-size="14" lengthAdjust="spacing" textLength="89.9951" x="218.68" y="392.93">status: String</text></g><!--class RollingStockRepository--><g id="elem_RollingStockRepository"><rect codeLine="61" fill="#F1F1F1" height="91.9531" id="RollingStockRepository" rx="2.5" ry="2.5" style="stroke:#181818;stroke-width:0.5;" width="239.1855" x="466.33" y="311.93"/><text fill="#000000" font-family="sans-serif" font-size="14" lengthAdjust="spacing" textLength="155.8662" x="507.9897" y="330.4652">RollingStockRepository</text><line style="stroke:#181818;stroke-width:0.5;" x1="467.33" x2="704.5155" y1="338.4183" y2="338.4183"/><line style="stroke:#181818;stroke-width:0.5;" x1="467.33" x2="704.5155" y1="346.4183" y2="346.4183"/><ellipse cx="477.33" cy="360.1624" fill="#84BE84" rx="3" ry="3" style="stroke:#038048;stroke-width:1.0;"/><text fill="#000000" font-family="sans-serif" font-size="14" lengthAdjust="spacing" textLength="213.1855" x="486.33" y="363.9534">findLocomotive(id): Locomotive</text><ellipse cx="477.33" cy="376.6507" fill="#84BE84" rx="3" ry="3" style="stroke:#038048;stroke-width:1.0;"/><text fill="#000000" font-family="sans-serif" font-size="14" lengthAdjust="spacing" textLength="209.3848" x="486.33" y="380.4417">findWagons(ids): List&lt;Wagon&gt;</text><ellipse cx="477.33" cy="393.139" fill="#84BE84" rx="3" ry="3" style="stroke:#038048;stroke-width:1.0;"/><text fill="#000000" font-family="sans-serif" font-size="14" lengthAdjust="spacing" textLength="160.6377" x="486.33" y="396.93">updateStatus(id, status)</text></g><!--class RouteRepository--><g id="elem_RouteRepository"><rect codeLine="67" fill="#F1F1F1" height="58.9766" id="RouteRepository" rx="2.5" ry="2.5" style="stroke:#181818;stroke-width:0.5;" width="161.8711" x="740.99" y="328.42"/><text fill="#000000" font-family="sans-serif" font-size="14" lengthAdjust="spacing" textLength="111.3027" x="766.2742" y="346.9552">RouteRepository</text><line style="stroke:#181818;stroke-width:0.5;" x1="741.99" x2="901.8611" y1="354.9083" y2="354.9083"/><line style="stroke:#181818;stroke-width:0.5;" x1="741.99" x2="901.8611" y1="362.9083" y2="362.9083"/><ellipse cx="751.99" cy="376.6524" fill="#84BE84" rx="3" ry="3" style="stroke:#038048;stroke-width:1.0;"/><text fill="#000000" font-family="sans-serif" font-size="14" lengthAdjust="spacing" textLength="135.8711" x="760.99" y="380.4434">findRoute(id): Route</text></g><!--class TripRepository--><g id="elem_TripRepository"><rect codeLine="71" fill="#F1F1F1" height="58.9766" id="TripRepository" rx="2.5" ry="2.5" style="stroke:#181818;stroke-width:0.5;" width="194.499" x="937.68" y="328.42"/><text fill="#000000" font-family="sans-serif" font-size="14" lengthAdjust="spacing" textLength="99.5654" x="985.1468" y="346.9552">TripRepository</text><line style="stroke:#181818;stroke-width:0.5;" x1="938.68" x2="1131.179" y1="354.9083" y2="354.9083"/><line style="stroke:#181818;stroke-width:0.5;" x1="938.68" x2="1131.179" y1="362.9083" y2="362.9083"/><ellipse cx="948.68" cy="376.6524" fill="#84BE84" rx="3" ry="3" style="stroke:#038048;stroke-width:1.0;"/><text fill="#000000" font-family="sans-serif" font-size="14" lengthAdjust="spacing" textLength="168.499" x="957.68" y="380.4434">save(trip: ScheduledTrip)</text></g><!--link TrainCompositionController to TrainCompositionService--><g id="link_TrainCompositionController_TrainCompositionService"><path codeLine="77" d="M585.93,66.14 C585.93,87.71 585.93,111.71 585.93,136.54 " fill="none" id="TrainCompositionController-to-TrainCompositionService" style="stroke:#181818;stroke-width:1.0;"/><polygon fill="#181818" points="585.93,142.54,589.93,133.54,585.93,137.54,581.93,133.54,585.93,142.54" style="stroke:#181818;stroke-width:1.0;"/><text fill="#000000" font-family="sans-serif" font-size="13" lengthAdjust="spacing" textLength="60.4424" x="586.93" y="109.5384">delegates</text></g><!--link TrainCompositionService to RollingStockRepository--><g id="link_TrainCompositionService_RollingStockRepository"><path codeLine="78" d="M585.93,235.13 C585.93,258.89 585.93,281.93 585.93,305.69 " fill="none" id="TrainCompositionService-to-RollingStockRepository" style="stroke:#181818;stroke-width:1.0;"/><polygon fill="#181818" points="585.93,311.69,589.93,302.69,585.93,306.69,581.93,302.69,585.93,311.69" style="stroke:#181818;stroke-width:1.0;"/><text fill="#000000" font-family="sans-serif" font-size="13" lengthAdjust="spacing" textLength="88.7593" x="586.93" y="278.4984">fetches assets</text></g><!--link TrainCompositionService to RouteRepository--><g id="link_TrainCompositionService_RouteRepository"><path codeLine="79" d="M650.1,235.35 C691.87,264.9 740.1918,299.0848 776.2518,324.5948 " fill="none" id="TrainCompositionService-to-RouteRepository" style="stroke:#181818;stroke-width:1.0;"/><polygon fill="#181818" points="781.15,328.06,776.1128,319.5968,777.0681,325.1724,771.4925,326.1277,781.15,328.06" style="stroke:#181818;stroke-width:1.0;"/><text fill="#000000" font-family="sans-serif" font-size="13" lengthAdjust="spacing" textLength="83.0718" x="712" y="278.4984">fetches route</text></g><!--link TrainCompositionService to TripRepository--><g id="link_TrainCompositionService_TripRepository"><path codeLine="80" d="M718.08,235.4 C763.86,251.15 803.93,264.93 803.93,264.93 C803.93,264.93 888.8656,298.7505 956.5756,325.7105 " fill="none" id="TrainCompositionService-to-TripRepository" style="stroke:#181818;stroke-width:1.0;"/><polygon fill="#181818" points="962.15,327.93,955.2681,320.8844,957.5047,326.0804,952.3087,328.3169,962.15,327.93" style="stroke:#181818;stroke-width:1.0;"/><text fill="#000000" font-family="sans-serif" font-size="13" lengthAdjust="spacing" textLength="126.0327" x="843.65" y="278.4984">persists assignment</text></g><!--link TrainCompositionService to Train--><g id="link_TrainCompositionService_Train"><path codeLine="82" d="M435.12,235.37 C319.97,270.05 180.93,311.93 180.93,311.93 C180.93,311.93 180.93,403.88 180.93,403.88 C180.93,403.88 205.3254,547.6047 221.6054,643.4647 " fill="none" id="TrainCompositionService-to-Train" style="stroke:#181818;stroke-width:1.0;stroke-dasharray:7.0,7.0;"/><polygon fill="#181818" points="222.61,649.38,225.0466,639.8373,221.7728,644.4506,217.1596,641.1768,222.61,649.38" style="stroke:#181818;stroke-width:1.0;"/><text fill="#000000" font-family="sans-serif" font-size="13" lengthAdjust="spacing" textLength="65.6221" x="189.82" y="447.4484">assembles</text></g><!--link TrainCompositionService to ScheduledTrip--><g id="link_TrainCompositionService_ScheduledTrip"><path codeLine="83" d="M512.23,235.35 C471.64,260.36 426.7279,288.022 387.2179,312.372 " fill="none" id="TrainCompositionService-to-ScheduledTrip" style="stroke:#181818;stroke-width:1.0;stroke-dasharray:7.0,7.0;"/><polygon fill="#181818" points="382.11,315.52,391.8704,314.2033,386.3666,312.8967,387.6731,307.3928,382.11,315.52" style="stroke:#181818;stroke-width:1.0;"/><text fill="#000000" font-family="sans-serif" font-size="13" lengthAdjust="spacing" textLength="45.1318" x="459.55" y="278.4984">creates</text></g><!--reverse link Train to Locomotive--><g id="link_Train_Locomotive"><path codeLine="86" d="M141.6264,816.0602 C123.1764,832.9402 117.93,837.74 117.93,837.74 C117.93,837.74 117.93,854.74 117.93,854.74 C117.93,854.74 118.38,868.09 118.94,884.35 " fill="none" id="Train-backto-Locomotive" style="stroke:#181818;stroke-width:1.0;"/><polygon fill="#181818" points="150.48,807.96,143.3531,809.0589,141.6264,816.0602,148.7533,814.9613,150.48,807.96" style="stroke:#181818;stroke-width:1.0;"/><text fill="#000000" font-family="sans-serif" font-size="13" lengthAdjust="spacing" textLength="73.2583" x="118.93" y="851.3084">powered by</text><text fill="#000000" font-family="sans-serif" font-size="13" lengthAdjust="spacing" textLength="8.2202" x="134.524" y="828.2618">1</text><text fill="#000000" font-family="sans-serif" font-size="13" lengthAdjust="spacing" textLength="8.2202" x="110.2239" y="873.8503">1</text></g><!--link Train to Locomotive--><g id="link_Train_Locomotive"><path codeLine="94" d="M211.45,808.21 C203.61,833.32 196.93,854.74 196.93,854.74 C196.93,854.74 189.2656,863.5611 175.1356,879.8211 " fill="none" id="Train-to-Locomotive" style="stroke:#181818;stroke-width:1.0;stroke-dasharray:7.0,7.0;"/><polygon fill="#181818" points="171.2,884.35,180.1227,880.1804,174.4797,880.5759,174.0842,874.9329,171.2,884.35" style="stroke:#181818;stroke-width:1.0;"/><text fill="#000000" font-family="sans-serif" font-size="13" lengthAdjust="spacing" textLength="85.7124" x="202.76" y="851.3084">checks power</text></g><!--reverse link Train to Wagon--><g id="link_Train_Wagon"><path codeLine="87" d="M293.6629,818.0198 C310.2329,843.3298 321.72,860.9 337.13,884.45 " fill="none" id="Train-backto-Wagon" style="stroke:#181818;stroke-width:1.0;"/><polygon fill="#181818" points="287.09,807.98,287.0298,815.1909,293.6629,818.0198,293.723,810.8089,287.09,807.98" style="stroke:#181818;stroke-width:1.0;"/><text fill="#000000" font-family="sans-serif" font-size="13" lengthAdjust="spacing" textLength="81.8784" x="314.75" y="851.3084">composed of</text><text fill="#000000" font-family="sans-serif" font-size="13" lengthAdjust="spacing" textLength="8.2202" x="283.3008" y="828.2836">1</text><text fill="#000000" font-family="sans-serif" font-size="13" lengthAdjust="spacing" textLength="22.7119" x="309.2269" y="873.9625">1..*</text></g><!--link ScheduledTrip to Train--><g id="link_ScheduledTrip_Train"><path codeLine="90" d="M293.94,400.2 C275.95,435.59 252.93,480.88 252.93,480.88 C252.93,480.88 246.703,571.3442 241.713,643.6742 " fill="none" id="ScheduledTrip-to-Train" style="stroke:#181818;stroke-width:1.0;"/><polygon fill="#181818" points="241.3,649.66,245.9099,640.9566,241.6441,644.6719,237.9289,640.406,241.3,649.66" style="stroke:#181818;stroke-width:1.0;"/><text fill="#000000" font-family="sans-serif" font-size="13" lengthAdjust="spacing" textLength="28.5645" x="253.93" y="531.9284">uses</text><text fill="#000000" font-family="sans-serif" font-size="13" lengthAdjust="spacing" textLength="8.2202" x="282.1313" y="420.4168">1</text><text fill="#000000" font-family="sans-serif" font-size="13" lengthAdjust="spacing" textLength="8.2202" x="233.4419" y="638.9869">1</text></g><!--link ScheduledTrip to Route--><g id="link_ScheduledTrip_Route"><path codeLine="91" d="M353.73,400.17 C376.71,424.6 401.73,451.2087 425.32,476.2987 " fill="none" id="ScheduledTrip-to-Route" style="stroke:#181818;stroke-width:1.0;"/><polygon fill="#181818" points="429.43,480.67,426.1793,471.3731,426.005,477.0273,420.3509,476.853,429.43,480.67" style="stroke:#181818;stroke-width:1.0;"/><text fill="#000000" font-family="sans-serif" font-size="13" lengthAdjust="spacing" textLength="44.9097" x="399.13" y="447.4484">follows</text><text fill="#000000" font-family="sans-serif" font-size="13" lengthAdjust="spacing" textLength="8.2202" x="351.0767" y="420.3822">1</text><text fill="#000000" font-family="sans-serif" font-size="13" lengthAdjust="spacing" textLength="8.2202" x="414.3267" y="470.0414">1</text></g><!--link Route to Train--><g id="link_Route_Train"><path codeLine="95" d="M418.37,573.22 C391.72,595.81 363.308,619.8716 332.748,645.7616 " fill="none" id="Route-to-Train" style="stroke:#181818;stroke-width:1.0;stroke-dasharray:7.0,7.0;"/><polygon fill="#181818" points="328.17,649.64,337.6226,646.8744,331.985,646.408,332.4514,640.7704,328.17,649.64" style="stroke:#181818;stroke-width:1.0;"/><text fill="#000000" font-family="sans-serif" font-size="13" lengthAdjust="spacing" textLength="87.0708" x="383" y="616.3984">checks length</text></g><!--SRC=[bLLTRzem57tFhx3wCkWAqbwZQL96KHSLIaNegZswyILOE75aEx1ewd_VjPr0me1jByJs_Jht-FYYjxmegQ8vAMcwfHaafXP05AI65fc0G1ySz8OokUT5HjPKwAv5y09CNG8ffQZj9jXm1YJbAXND6lBIr2G7iv5C1y47CXgDo6Ind98eIQRphxCVP3ApoyHQWY0LL6koKfGN4vcNKdF39IuBewGGeCYlW92FgG9g82fOf3NF2kS-43ALCRiZUvh98cRwZYXP6R173Bs7mVkbz0ce7K_1vqO7oDy4_5lIa2Jf1bWbWAqKBp71Q4S5jxRdJQrvgWV69WfzKVH_ar80BRgUSR5ML1jLfQPIq0jeweLaQJ-TyFUMpFl5F8gVIFJmi9m-HAipHBg-HYvhp4BoyXBVkmDfg9YZrsCM4YOhxFbmF8CYCvjvvxpXt14IaXd-vjBm7JJKQ3pZsdn-jPilGnT0HLe9Z5crXGPdpdqbRsdvGDIfpJrThwKoWtxNlh4Z0D-TEEnjYubHgDUcwqwg9zWRX_NORYdte1xtFGQeWbVWsSRqcH4df1p0kAOzZaOdFGWNqfMq5fAo2SKNo4tTDsPAQlrV89n0F8X6ebqGEVsPS8QRCpVRqjuYyGBqZgtVkJleARyL6I-x6cE0ayAA-fvQ4UEjKM6NAvwxRhIXfj87e0THBwVFYoHUBPPnNyzB70Bec1YPRfVWtgzKjN-uQrwmeom6d0sxEcqzt5rfjEfXJxBMNfMMXiHXGeyxuk4DJqW-LzWPV4stx0uRNfv6QBgppvoN9-DZs6LW5gtYnLFoBNvkABWo5KUZBnUd6buX2CYmCnrSyh7n5xWDoHeCWjJ4JaRpjnnzVex1JfDNOq-82aa9IkC5kS8uvNCeJ70nmtZSC821xGZNLxtxyWs97t3kJohACkKOiyBqKzcd8ZUVRiWjNe_zTcOGWhLp11Xvg__m78zlRvePWLKS67IKQrVfq9eE-e1ilAN5Vjl6AWtNtFm8GCxn9kNUTVBTlsrilI73jTv3ZkdIhVOD13v5byp6xETEy1i0]--></g></svg>