<svg xmlns="http://www.w3.org/2000/svg" xmlns:xlink="http://www.w3.org/1999/xlink" contentStyleType="text/css" height="1314px" preserveAspectRatio="none" style="width:2239px;height:1314px;background:#FFFFFF;" version="1.1" viewBox="0 0 2239 1314" width="2239px" zoomAndPan="magnify"><defs/><g><rect fill="#FFFFFF" height="29.3105" style="stroke:#181818;stroke-width:1.0;" width="10" x="56.3613" y="156.1094"/><rect fill="#FFFFFF" height="1124.4688" style="stroke:#181818;stroke-width:1.0;" width="10" x="351.6211" y="91.4883"/><rect fill="#FFFFFF" height="971.916" style="stroke:#181818;stroke-width:1.0;" width="10" x="735.8496" y="214.7305"/><rect fill="#FFFFFF" height="980.916" style="stroke:#181818;stroke-width:1.0;" width="10" x="1073.1943" y="244.041"/><rect fill="#FFFFFF" height="113.9316" style="stroke:#181818;stroke-width:1.0;" width="10" x="1593.9692" y="431.9043"/><rect fill="#FFFFFF" height="71.6211" style="stroke:#181818;stroke-width:1.0;" width="10" x="1593.9692" y="610.457"/><rect fill="#FFFFFF" height="71.6211" style="stroke:#181818;stroke-width:1.0;" width="10" x="1848.4434" y="815.2754"/><rect fill="none" height="461.2578" style="stroke:#000000;stroke-width:1.5;" width="1605.9971" x="616.769" y="697.0781"/><rect fill="none" height="249.4395" style="stroke:#000000;stroke-width:1.5;" width="1585.9971" x="626.769" y="901.8965"/><line style="stroke:#181818;stroke-width:0.5;stroke-dasharray:5.0,5.0;" x1="61" x2="61" y1="81.4883" y2="1233.957"/><line style="stroke:#181818;stroke-width:0.5;stroke-dasharray:5.0,5.0;" x1="355.7544" x2="355.7544" y1="81.4883" y2="1233.957"/><line style="stroke:#181818;stroke-width:0.5;stroke-dasharray:5.0,5.0;" x1="740.769" x2="740.769" y1="81.4883" y2="1233.957"/><line style="stroke:#181818;stroke-width:0.5;stroke-dasharray:5.0,5.0;" x1="1077.5283" x2="1077.5283" y1="81.4883" y2="1233.957"/><line style="stroke:#181818;stroke-width:0.5;stroke-dasharray:5.0,5.0;" x1="1358.562" x2="1358.562" y1="81.4883" y2="1233.957"/><line style="stroke:#181818;stroke-width:0.5;stroke-dasharray:5.0,5.0;" x1="1478.3657" x2="1478.3657" y1="81.4883" y2="1233.957"/><line style="stroke:#181818;stroke-width:0.5;stroke-dasharray:5.0,5.0;" x1="1598.606" x2="1598.606" y1="81.4883" y2="1233.957"/><line style="stroke:#181818;stroke-width:0.5;stroke-dasharray:5.0,5.0;" x1="1852.855" x2="1852.855" y1="81.4883" y2="1233.957"/><line style="stroke:#181818;stroke-width:0.5;stroke-dasharray:5.0,5.0;" x1="2164.2632" x2="2164.2632" y1="81.4883" y2="1233.957"/><text fill="#000000" font-family="sans-serif" font-size="14" lengthAdjust="spacing" textLength="106.7227" x="5" y="78.5352">Traffic Manager</text><ellipse cx="61.3613" cy="13.5" fill="#E2E2F0" rx="8" ry="8" style="stroke:#181818;stroke-width:0.5;"/><path d="M61.3613,21.5 L61.3613,48.5 M48.3613,29.5 L74.3613,29.5 M61.3613,48.5 L48.3613,63.5 M61.3613,48.5 L74.3613,63.5 " fill="none" style="stroke:#181818;stroke-width:0.5;"/><text fill="#000000" font-family="sans-serif" font-size="14" lengthAdjust="spacing" textLength="106.7227" x="5" y="1246.4922">Traffic Manager</text><ellipse cx="61.3613" cy="1257.9453" fill="#E2E2F0" rx="8" ry="8" style="stroke:#181818;stroke-width:0.5;"/><path d="M61.3613,1265.9453 L61.3613,1292.9453 M48.3613,1273.9453 L74.3613,1273.9453 M61.3613,1292.9453 L48.3613,1307.9453 M61.3613,1292.9453 L74.3613,1307.9453 " fill="none" style="stroke:#181818;stroke-width:0.5;"/><rect fill="#E2E2F0" height="30.4883" rx="2.5" ry="2.5" style="stroke:#181818;stroke-width:0.5;" width="153.7334" x="279.7544" y="50"/><text fill="#000000" font-family="sans-serif" font-size="14" lengthAdjust="spacing" textLength="139.7334" x="286.7544" y="70.5352">:TrainCompositionUI</text><rect fill="#E2E2F0" height="30.4883" rx="2.5" ry="2.5" style="stroke:#181818;stroke-width:0.5;" width="153.7334" x="279.7544" y="1232.957"/><text fill="#000000" font-family="sans-serif" font-size="14" lengthAdjust="spacing" textLength="139.7334" x="286.7544" y="1253.4922">:TrainCompositionUI</text><rect fill="#E2E2F0" height="30.4883" rx="2.5" ry="2.5" style="stroke:#181818;stroke-width:0.5;" width="208.1611" x="636.769" y="50"/><text fill="#000000" font-family="sans-serif" font-size="14" lengthAdjust="spacing" textLength="194.1611" x="643.769" y="70.5352">:TrainCompositionController</text><rect fill="#E2E2F0" height="30.4883" rx="2.5" ry="2.5" style="stroke:#181818;stroke-width:0.5;" width="208.1611" x="636.769" y="1232.957"/><text fill="#000000" font-family="sans-serif" font-size="14" lengthAdjust="spacing" textLength="194.1611" x="643.769" y="1253.4922">:TrainCompositionController</text><rect fill="#E2E2F0" height="30.4883" rx="2.5" ry="2.5" style="stroke:#181818;stroke-width:0.5;" width="187.332" x="984.5283" y="50"/><text fill="#000000" font-family="sans-serif" font-size="14" lengthAdjust="spacing" textLength="173.332" x="991.5283" y="70.5352">:TrainCompositionService</text><rect fill="#E2E2F0" height="30.4883" rx="2.5" ry="2.5" style="stroke:#181818;stroke-width:0.5;" width="187.332" x="984.5283" y="1232.957"/><text fill="#000000" font-family="sans-serif" font-size="14" lengthAdjust="spacing" textLength="173.332" x="991.5283" y="1253.4922">:TrainCompositionService</text><rect fill="#E2E2F0" height="30.4883" rx="2.5" ry="2.5" style="stroke:#181818;stroke-width:0.5;" width="131.8037" x="1293.562" y="50"/><text fill="#000000" font-family="sans-serif" font-size="14" lengthAdjust="spacing" textLength="117.8037" x="1300.562" y="70.5352">RollingStockRepo</text><rect fill="#E2E2F0" height="30.4883" rx="2.5" ry="2.5" style="stroke:#181818;stroke-width:0.5;" width="131.8037" x="1293.562" y="1232.957"/><text fill="#000000" font-family="sans-serif" font-size="14" lengthAdjust="spacing" textLength="117.8037" x="1300.562" y="1253.4922">RollingStockRepo</text><rect fill="#E2E2F0" height="30.4883" rx="2.5" ry="2.5" style="stroke:#181818;stroke-width:0.5;" width="87.2402" x="1435.3657" y="50"/><text fill="#000000" font-family="sans-serif" font-size="14" lengthAdjust="spacing" textLength="73.2402" x="1442.3657" y="70.5352">RouteRepo</text><rect fill="#E2E2F0" height="30.4883" rx="2.5" ry="2.5" style="stroke:#181818;stroke-width:0.5;" width="87.2402" x="1435.3657" y="1232.957"/><text fill="#000000" font-family="sans-serif" font-size="14" lengthAdjust="spacing" textLength="73.2402" x="1442.3657" y="1253.4922">RouteRepo</text><rect fill="#E2E2F0" height="30.4883" rx="2.5" ry="2.5" style="stroke:#181818;stroke-width:0.5;" width="132.7266" x="1532.606" y="50"/><text fill="#000000" font-family="sans-serif" font-size="14" lengthAdjust="spacing" textLength="118.7266" x="1539.606" y="70.5352">Train (Aggregate)</text><rect fill="#E2E2F0" height="30.4883" rx="2.5" ry="2.5" style="stroke:#181818;stroke-width:0.5;" width="132.7266" x="1532.606" y="1232.957"/><text fill="#000000" font-family="sans-serif" font-size="14" lengthAdjust="spacing" textLength="118.7266" x="1539.606" y="1253.4922">Train (Aggregate)</text><rect fill="#E2E2F0" height="30.4883" rx="2.5" ry="2.5" style="stroke:#181818;stroke-width:0.5;" width="53.1768" x="1826.855" y="50"/><text fill="#000000" font-family="sans-serif" font-size="14" lengthAdjust="spacing" textLength="39.1768" x="1833.855" y="70.5352">Route</text><rect fill="#E2E2F0" height="30.4883" rx="2.5" ry="2.5" style="stroke:#181818;stroke-width:0.5;" width="53.1768" x="1826.855" y="1232.957"/><text fill="#000000" font-family="sans-serif" font-size="14" lengthAdjust="spacing" textLength="39.1768" x="1833.855" y="1253.4922">Route</text><rect fill="#E2E2F0" height="30.4883" rx="2.5" ry="2.5" style="stroke:#181818;stroke-width:0.5;" width="75.5029" x="2127.2632" y="50"/><text fill="#000000" font-family="sans-serif" font-size="14" lengthAdjust="spacing" textLength="61.5029" x="2134.2632" y="70.5352">TripRepo</text><rect fill="#E2E2F0" height="30.4883" rx="2.5" ry="2.5" style="stroke:#181818;stroke-width:0.5;" width="75.5029" x="2127.2632" y="1232.957"/><text fill="#000000" font-family="sans-serif" font-size="14" lengthAdjust="spacing" textLength="61.5029" x="2134.2632" y="1253.4922">TripRepo</text><rect fill="#FFFFFF" height="29.3105" style="stroke:#181818;stroke-width:1.0;" width="10" x="56.3613" y="156.1094"/><rect fill="#FFFFFF" height="1124.4688" style="stroke:#181818;stroke-width:1.0;" width="10" x="351.6211" y="91.4883"/><rect fill="#FFFFFF" height="971.916" style="stroke:#181818;stroke-width:1.0;" width="10" x="735.8496" y="214.7305"/><rect fill="#FFFFFF" height="980.916" style="stroke:#181818;stroke-width:1.0;" width="10" x="1073.1943" y="244.041"/><rect fill="#FFFFFF" height="113.9316" style="stroke:#181818;stroke-width:1.0;" width="10" x="1593.9692" y="431.9043"/><rect fill="#FFFFFF" height="71.6211" style="stroke:#181818;stroke-width:1.0;" width="10" x="1593.9692" y="610.457"/><rect fill="#FFFFFF" height="71.6211" style="stroke:#181818;stroke-width:1.0;" width="10" x="1848.4434" y="815.2754"/><rect fill="#EEEEEE" height="3" style="stroke:#EEEEEE;stroke-width:1.0;" width="2232.7661" x="0" y="112.1436"/><line style="stroke:#000000;stroke-width:1.0;" x1="0" x2="2232.7661" y1="112.1436" y2="112.1436"/><line style="stroke:#000000;stroke-width:1.0;" x1="0" x2="2232.7661" y1="115.1436" y2="115.1436"/><rect fill="#EEEEEE" height="23.3105" style="stroke:#000000;stroke-width:2.0;" width="216.8965" x="1007.9348" y="101.4883"/><text fill="#000000" font-family="sans-serif" font-size="13" font-weight="bold" lengthAdjust="spacing" textLength="198.6118" x="1013.9348" y="118.0566">Start Assembly &amp; Assignment</text><polygon fill="#181818" points="77.3613,152.1094,67.3613,156.1094,77.3613,160.1094,73.3613,156.1094" style="stroke:#181818;stroke-width:1.0;"/><line style="stroke:#181818;stroke-width:1.0;" x1="71.3613" x2="350.6211" y1="156.1094" y2="156.1094"/><text fill="#000000" font-family="sans-serif" font-size="13" font-weight="bold" lengthAdjust="spacing" textLength="8.5757" x="83.3613" y="151.3672">1</text><text fill="#000000" font-family="sans-serif" font-size="13" lengthAdjust="spacing" textLength="253.6841" x="95.937" y="151.3672">requestData(Loco, Wagons, Route, Date)</text><polygon fill="#181818" points="339.6211,181.4199,349.6211,185.4199,339.6211,189.4199,343.6211,185.4199" style="stroke:#181818;stroke-width:1.0;"/><line style="stroke:#181818;stroke-width:1.0;" x1="61.3613" x2="345.6211" y1="185.4199" y2="185.4199"/><text fill="#000000" font-family="sans-serif" font-size="13" font-weight="bold" lengthAdjust="spacing" textLength="8.5757" x="68.3613" y="180.6777">2</text><text fill="#000000" font-family="sans-serif" font-size="13" lengthAdjust="spacing" textLength="247.8633" x="80.937" y="180.6777">submit(locoId, wagonIds, routeId, date)</text><polygon fill="#181818" points="723.8496,210.7305,733.8496,214.7305,723.8496,218.7305,727.8496,214.7305" style="stroke:#181818;stroke-width:1.0;"/><line style="stroke:#181818;stroke-width:1.0;" x1="361.6211" x2="729.8496" y1="214.7305" y2="214.7305"/><text fill="#000000" font-family="sans-serif" font-size="13" font-weight="bold" lengthAdjust="spacing" textLength="8.5757" x="368.6211" y="209.9883">3</text><text fill="#000000" font-family="sans-serif" font-size="13" lengthAdjust="spacing" textLength="342.6528" x="381.1968" y="209.9883">createAndAssignTrain(locoId, wagonIds, routeId, date)</text><polygon fill="#181818" points="1061.1943,240.041,1071.1943,244.041,1061.1943,248.041,1065.1943,244.041" style="stroke:#181818;stroke-width:1.0;"/><line style="stroke:#181818;stroke-width:1.0;" x1="745.8496" x2="1067.1943" y1="244.041" y2="244.041"/><text fill="#000000" font-family="sans-serif" font-size="13" font-weight="bold" lengthAdjust="spacing" textLength="8.5757" x="752.8496" y="239.2988">4</text><text fill="#000000" font-family="sans-serif" font-size="13" lengthAdjust="spacing" textLength="295.769" x="765.4253" y="239.2988">assembleTrain(locoId, wagonIds, routeId, date)</text><path d="M990,257.041 L990,282.041 L1164,282.041 L1164,267.041 L1154,257.041 L990,257.041 " fill="#FEFFDD" style="stroke:#181818;stroke-width:0.5;"/><path d="M1154,257.041 L1154,267.041 L1164,267.041 L1154,257.041 " fill="#FEFFDD" style="stroke:#181818;stroke-width:0.5;"/><text fill="#000000" font-family="sans-serif" font-size="13" lengthAdjust="spacing" textLength="153.5625" x="996" y="274.6094">1. Fetch Domain Entities</text><polygon fill="#181818" points="1347.4639,304.6621,1357.4639,308.6621,1347.4639,312.6621,1351.4639,308.6621" style="stroke:#181818;stroke-width:1.0;"/><line style="stroke:#181818;stroke-width:1.0;" x1="1083.1943" x2="1353.4639" y1="308.6621" y2="308.6621"/><text fill="#000000" font-family="sans-serif" font-size="13" font-weight="bold" lengthAdjust="spacing" textLength="8.5757" x="1090.1943" y="303.9199">5</text><text fill="#000000" font-family="sans-serif" font-size="13" lengthAdjust="spacing" textLength="143.8315" x="1102.77" y="303.9199">findLocomotive(locoId)</text><polygon fill="#181818" points="1347.4639,333.9727,1357.4639,337.9727,1347.4639,341.9727,1351.4639,337.9727" style="stroke:#181818;stroke-width:1.0;"/><line style="stroke:#181818;stroke-width:1.0;" x1="1083.1943" x2="1353.4639" y1="337.9727" y2="337.9727"/><text fill="#000000" font-family="sans-serif" font-size="13" font-weight="bold" lengthAdjust="spacing" textLength="8.5757" x="1090.1943" y="333.2305">6</text><text fill="#000000" font-family="sans-serif" font-size="13" lengthAdjust="spacing" textLength="142.2383" x="1102.77" y="333.2305">findWagons(wagonIds)</text><polygon fill="#181818" points="1466.9858,363.2832,1476.9858,367.2832,1466.9858,371.2832,1470.9858,367.2832" style="stroke:#181818;stroke-width:1.0;"/><line style="stroke:#181818;stroke-width:1.0;" x1="1083.1943" x2="1472.9858" y1="367.2832" y2="367.2832"/><text fill="#000000" font-family="sans-serif" font-size="13" font-weight="bold" lengthAdjust="spacing" textLength="8.5757" x="1090.1943" y="362.541">7</text><text fill="#000000" font-family="sans-serif" font-size="13" lengthAdjust="spacing" textLength="115.0259" x="1102.77" y="362.541">findRoute(routeId)</text><path d="M933,380.2832 L933,405.2832 L1223,405.2832 L1223,390.2832 L1213,380.2832 L933,380.2832 " fill="#FEFFDD" style="stroke:#181818;stroke-width:0.5;"/><path d="M1213,380.2832 L1213,390.2832 L1223,390.2832 L1213,380.2832 " fill="#FEFFDD" style="stroke:#181818;stroke-width:0.5;"/><text fill="#000000" font-family="sans-serif" font-size="13" lengthAdjust="spacing" textLength="269.3628" x="939" y="397.8516">2. Create Aggregate &amp; Calculate Properties</text><polygon fill="#181818" points="1581.9692,427.9043,1591.9692,431.9043,1581.9692,435.9043,1585.9692,431.9043" style="stroke:#181818;stroke-width:1.0;"/><line style="stroke:#181818;stroke-width:1.0;" x1="1083.1943" x2="1587.9692" y1="431.9043" y2="431.9043"/><text fill="#000000" font-family="sans-serif" font-size="13" font-weight="bold" lengthAdjust="spacing" textLength="8.5757" x="1090.1943" y="427.1621">8</text><text fill="#000000" font-family="sans-serif" font-size="13" lengthAdjust="spacing" textLength="129.5557" x="1102.77" y="427.1621">create(loco, wagons)</text><line style="stroke:#181818;stroke-width:1.0;" x1="1603.9692" x2="1645.9692" y1="461.2148" y2="461.2148"/><line style="stroke:#181818;stroke-width:1.0;" x1="1645.9692" x2="1645.9692" y1="461.2148" y2="474.2148"/><line style="stroke:#181818;stroke-width:1.0;" x1="1604.9692" x2="1645.9692" y1="474.2148" y2="474.2148"/><polygon fill="#181818" points="1614.9692,470.2148,1604.9692,474.2148,1614.9692,478.2148,1610.9692,474.2148" style="stroke:#181818;stroke-width:1.0;"/><text fill="#000000" font-family="sans-serif" font-size="13" font-weight="bold" lengthAdjust="spacing" textLength="8.5757" x="1610.9692" y="456.4727">9</text><text fill="#000000" font-family="sans-serif" font-size="13" lengthAdjust="spacing" textLength="127.4546" x="1623.5449" y="456.4727">calculateTotalMass()</text><line style="stroke:#181818;stroke-width:1.0;" x1="1603.9692" x2="1645.9692" y1="503.5254" y2="503.5254"/><line style="stroke:#181818;stroke-width:1.0;" x1="1645.9692" x2="1645.9692" y1="503.5254" y2="516.5254"/><line style="stroke:#181818;stroke-width:1.0;" x1="1604.9692" x2="1645.9692" y1="516.5254" y2="516.5254"/><polygon fill="#181818" points="1614.9692,512.5254,1604.9692,516.5254,1614.9692,520.5254,1610.9692,516.5254" style="stroke:#181818;stroke-width:1.0;"/><text fill="#000000" font-family="sans-serif" font-size="13" font-weight="bold" lengthAdjust="spacing" textLength="17.1514" x="1610.9692" y="498.7832">10</text><text fill="#000000" font-family="sans-serif" font-size="13" lengthAdjust="spacing" textLength="139.1025" x="1632.1206" y="498.7832">calculateTotalLength()</text><polygon fill="#181818" points="1094.1943,541.8359,1084.1943,545.8359,1094.1943,549.8359,1090.1943,545.8359" style="stroke:#181818;stroke-width:1.0;"/><line style="stroke:#181818;stroke-width:1.0;stroke-dasharray:2.0,2.0;" x1="1088.1943" x2="1597.9692" y1="545.8359" y2="545.8359"/><text fill="#000000" font-family="sans-serif" font-size="13" font-weight="bold" lengthAdjust="spacing" textLength="17.1514" x="1100.1943" y="541.0938">11</text><text fill="#000000" font-family="sans-serif" font-size="13" lengthAdjust="spacing" textLength="81.6372" x="1121.3457" y="541.0938">trainInstance</text><path d="M961,558.8359 L961,583.8359 L1194,583.8359 L1194,568.8359 L1184,558.8359 L961,558.8359 " fill="#FEFFDD" style="stroke:#181818;stroke-width:0.5;"/><path d="M1184,558.8359 L1184,568.8359 L1194,568.8359 L1184,558.8359 " fill="#FEFFDD" style="stroke:#181818;stroke-width:0.5;"/><text fill="#000000" font-family="sans-serif" font-size="13" lengthAdjust="spacing" textLength="212.2783" x="967" y="576.4043">3. Validate Physics (Loco vs Mass)</text><polygon fill="#181818" points="1581.9692,606.457,1591.9692,610.457,1581.9692,614.457,1585.9692,610.457" style="stroke:#181818;stroke-width:1.0;"/><line style="stroke:#181818;stroke-width:1.0;" x1="1083.1943" x2="1587.9692" y1="610.457" y2="610.457"/><text fill="#000000" font-family="sans-serif" font-size="13" font-weight="bold" lengthAdjust="spacing" textLength="17.1514" x="1090.1943" y="605.7148">12</text><text fill="#000000" font-family="sans-serif" font-size="13" lengthAdjust="spacing" textLength="142.0859" x="1111.3457" y="605.7148">validateTractiveEffort()</text><line style="stroke:#181818;stroke-width:1.0;" x1="1603.9692" x2="1645.9692" y1="639.7676" y2="639.7676"/><line style="stroke:#181818;stroke-width:1.0;" x1="1645.9692" x2="1645.9692" y1="639.7676" y2="652.7676"/><line style="stroke:#181818;stroke-width:1.0;" x1="1604.9692" x2="1645.9692" y1="652.7676" y2="652.7676"/><polygon fill="#181818" points="1614.9692,648.7676,1604.9692,652.7676,1614.9692,656.7676,1610.9692,652.7676" style="stroke:#181818;stroke-width:1.0;"/><text fill="#000000" font-family="sans-serif" font-size="13" font-weight="bold" lengthAdjust="spacing" textLength="17.1514" x="1610.9692" y="635.0254">13</text><text fill="#000000" font-family="sans-serif" font-size="13" lengthAdjust="spacing" textLength="199.3228" x="1632.1206" y="635.0254">check(loco.effort &gt;= totalMass)</text><polygon fill="#181818" points="1094.1943,678.0781,1084.1943,682.0781,1094.1943,686.0781,1090.1943,682.0781" style="stroke:#181818;stroke-width:1.0;"/><line style="stroke:#181818;stroke-width:1.0;stroke-dasharray:2.0,2.0;" x1="1088.1943" x2="1597.9692" y1="682.0781" y2="682.0781"/><text fill="#000000" font-family="sans-serif" font-size="13" font-weight="bold" lengthAdjust="spacing" textLength="17.1514" x="1100.1943" y="677.3359">14</text><text fill="#000000" font-family="sans-serif" font-size="13" lengthAdjust="spacing" textLength="87.4771" x="1121.3457" y="677.3359">isPhysicsValid</text><path d="M616.769,697.0781 L678.9077,697.0781 L678.9077,704.3887 L668.9077,714.3887 L616.769,714.3887 L616.769,697.0781 " fill="#EEEEEE" style="stroke:#000000;stroke-width:1.5;"/><rect fill="none" height="461.2578" style="stroke:#000000;stroke-width:1.5;" width="1605.9971" x="616.769" y="697.0781"/><text fill="#000000" font-family="sans-serif" font-size="13" font-weight="bold" lengthAdjust="spacing" textLength="17.1387" x="631.769" y="710.6465">alt</text><text fill="#000000" font-family="sans-serif" font-size="11" font-weight="bold" lengthAdjust="spacing" textLength="92.3398" x="693.9077" y="709.7129">[Physics Invalid]</text><polygon fill="#181818" points="756.8496,731.6992,746.8496,735.6992,756.8496,739.6992,752.8496,735.6992" style="stroke:#181818;stroke-width:1.0;"/><line style="stroke:#181818;stroke-width:1.0;stroke-dasharray:2.0,2.0;" x1="750.8496" x2="1072.1943" y1="735.6992" y2="735.6992"/><text fill="#000000" font-family="sans-serif" font-size="13" font-weight="bold" lengthAdjust="spacing" textLength="17.1514" x="762.8496" y="730.957">15</text><text fill="#000000" font-family="sans-serif" font-size="13" lengthAdjust="spacing" textLength="239.0273" x="784.001" y="730.957">error("Locomotive insufficient power")</text><line style="stroke:#000000;stroke-width:1.0;stroke-dasharray:2.0,2.0;" x1="616.769" x2="2222.7661" y1="744.6992" y2="744.6992"/><text fill="#000000" font-family="sans-serif" font-size="11" font-weight="bold" lengthAdjust="spacing" textLength="82.6289" x="621.769" y="755.334">[Physics Valid]</text><path d="M937,763.6543 L937,788.6543 L1218,788.6543 L1218,773.6543 L1208,763.6543 L937,763.6543 " fill="#FEFFDD" style="stroke:#181818;stroke-width:0.5;"/><path d="M1208,763.6543 L1208,773.6543 L1218,773.6543 L1208,763.6543 " fill="#FEFFDD" style="stroke:#181818;stroke-width:0.5;"/><text fill="#000000" font-family="sans-serif" font-size="13" lengthAdjust="spacing" textLength="260.4126" x="943" y="781.2227">4. Validate Infrastructure (Train vs Route)</text><polygon fill="#181818" points="1836.4434,811.2754,1846.4434,815.2754,1836.4434,819.2754,1840.4434,815.2754" style="stroke:#181818;stroke-width:1.0;"/><line style="stroke:#181818;stroke-width:1.0;" x1="1083.1943" x2="1842.4434" y1="815.2754" y2="815.2754"/><text fill="#000000" font-family="sans-serif" font-size="13" font-weight="bold" lengthAdjust="spacing" textLength="17.1514" x="1090.1943" y="810.5332">16</text><text fill="#000000" font-family="sans-serif" font-size="13" lengthAdjust="spacing" textLength="236.8057" x="1111.3457" y="810.5332">validateCapacity(trainInstance.length)</text><line style="stroke:#181818;stroke-width:1.0;" x1="1858.4434" x2="1900.4434" y1="844.5859" y2="844.5859"/><line style="stroke:#181818;stroke-width:1.0;" x1="1900.4434" x2="1900.4434" y1="844.5859" y2="857.5859"/><line style="stroke:#181818;stroke-width:1.0;" x1="1859.4434" x2="1900.4434" y1="857.5859" y2="857.5859"/><polygon fill="#181818" points="1869.4434,853.5859,1859.4434,857.5859,1869.4434,861.5859,1865.4434,857.5859" style="stroke:#181818;stroke-width:1.0;"/><text fill="#000000" font-family="sans-serif" font-size="13" font-weight="bold" lengthAdjust="spacing" textLength="17.1514" x="1865.4434" y="839.8438">17</text><text fill="#000000" font-family="sans-serif" font-size="13" lengthAdjust="spacing" textLength="256.4199" x="1886.5947" y="839.8438">check(maxSidingLength &gt;= train.length)</text><polygon fill="#181818" points="1094.1943,882.8965,1084.1943,886.8965,1094.1943,890.8965,1090.1943,886.8965" style="stroke:#181818;stroke-width:1.0;"/><line style="stroke:#181818;stroke-width:1.0;stroke-dasharray:2.0,2.0;" x1="1088.1943" x2="1852.4434" y1="886.8965" y2="886.8965"/><text fill="#000000" font-family="sans-serif" font-size="13" font-weight="bold" lengthAdjust="spacing" textLength="17.1514" x="1100.1943" y="882.1543">18</text><text fill="#000000" font-family="sans-serif" font-size="13" lengthAdjust="spacing" textLength="85.0396" x="1121.3457" y="882.1543">isLengthValid</text><path d="M626.769,901.8965 L688.9077,901.8965 L688.9077,909.207 L678.9077,919.207 L626.769,919.207 L626.769,901.8965 " fill="#EEEEEE" style="stroke:#000000;stroke-width:1.5;"/><rect fill="none" height="249.4395" style="stroke:#000000;stroke-width:1.5;" width="1585.9971" x="626.769" y="901.8965"/><text fill="#000000" font-family="sans-serif" font-size="13" font-weight="bold" lengthAdjust="spacing" textLength="17.1387" x="641.769" y="915.4648">alt</text><text fill="#000000" font-family="sans-serif" font-size="11" font-weight="bold" lengthAdjust="spacing" textLength="89.0903" x="703.9077" y="914.5313">[Length Invalid]</text><polygon fill="#181818" points="756.8496,936.5176,746.8496,940.5176,756.8496,944.5176,752.8496,940.5176" style="stroke:#181818;stroke-width:1.0;"/><line style="stroke:#181818;stroke-width:1.0;stroke-dasharray:2.0,2.0;" x1="750.8496" x2="1072.1943" y1="940.5176" y2="940.5176"/><text fill="#000000" font-family="sans-serif" font-size="13" font-weight="bold" lengthAdjust="spacing" textLength="17.1514" x="762.8496" y="935.7754">19</text><text fill="#000000" font-family="sans-serif" font-size="13" lengthAdjust="spacing" textLength="247.9014" x="784.001" y="935.7754">error("Train too long for route sidings")</text><line style="stroke:#000000;stroke-width:1.0;stroke-dasharray:2.0,2.0;" x1="626.769" x2="2212.7661" y1="949.5176" y2="949.5176"/><text fill="#000000" font-family="sans-serif" font-size="11" font-weight="bold" lengthAdjust="spacing" textLength="55.6284" x="631.769" y="960.1523">[All Valid]</text><path d="M970,968.4727 L970,993.4727 L1185,993.4727 L1185,978.4727 L1175,968.4727 L970,968.4727 " fill="#FEFFDD" style="stroke:#181818;stroke-width:0.5;"/><path d="M1175,968.4727 L1175,978.4727 L1185,978.4727 L1175,968.4727 " fill="#FEFFDD" style="stroke:#181818;stroke-width:0.5;"/><text fill="#000000" font-family="sans-serif" font-size="13" lengthAdjust="spacing" textLength="194.7778" x="976" y="986.041">5. Create Assignment &amp; Persist</text><polygon fill="#181818" points="2153.0146,1016.0938,2163.0146,1020.0938,2153.0146,1024.0938,2157.0146,1020.0938" style="stroke:#181818;stroke-width:1.0;"/><line style="stroke:#181818;stroke-width:1.0;" x1="1083.1943" x2="2159.0146" y1="1020.0938" y2="1020.0938"/><text fill="#000000" font-family="sans-serif" font-size="13" font-weight="bold" lengthAdjust="spacing" textLength="17.1514" x="1090.1943" y="1015.3516">20</text><text fill="#000000" font-family="sans-serif" font-size="13" lengthAdjust="spacing" textLength="270.5942" x="1111.3457" y="1015.3516">save(new ScheduledTrip(train, route, date))</text><path d="M996,1033.0938 L996,1058.0938 L1159,1058.0938 L1159,1043.0938 L1149,1033.0938 L996,1033.0938 " fill="#FEFFDD" style="stroke:#181818;stroke-width:0.5;"/><path d="M1149,1033.0938 L1149,1043.0938 L1159,1043.0938 L1149,1033.0938 " fill="#FEFFDD" style="stroke:#181818;stroke-width:0.5;"/><text fill="#000000" font-family="sans-serif" font-size="13" lengthAdjust="spacing" textLength="142.2573" x="1002" y="1050.6621">6. Update Asset Status</text><polygon fill="#181818" points="1347.4639,1080.7148,1357.4639,1084.7148,1347.4639,1088.7148,1351.4639,1084.7148" style="stroke:#181818;stroke-width:1.0;"/><line style="stroke:#181818;stroke-width:1.0;" x1="1083.1943" x2="1353.4639" y1="1084.7148" y2="1084.7148"/><text fill="#000000" font-family="sans-serif" font-size="13" font-weight="bold" lengthAdjust="spacing" textLength="17.1514" x="1090.1943" y="1079.9727">21</text><text fill="#000000" font-family="sans-serif" font-size="13" lengthAdjust="spacing" textLength="209.5234" x="1111.3457" y="1079.9727">updateStatus(locoId, "ASSIGNED")</text><polygon fill="#181818" points="1347.4639,1110.0254,1357.4639,1114.0254,1347.4639,1118.0254,1351.4639,1114.0254" style="stroke:#181818;stroke-width:1.0;"/><line style="stroke:#181818;stroke-width:1.0;" x1="1083.1943" x2="1353.4639" y1="1114.0254" y2="1114.0254"/><text fill="#000000" font-family="sans-serif" font-size="13" font-weight="bold" lengthAdjust="spacing" textLength="17.1514" x="1090.1943" y="1109.2832">22</text><text fill="#000000" font-family="sans-serif" font-size="13" lengthAdjust="spacing" textLength="231.1182" x="1111.3457" y="1109.2832">updateStatus(wagonIds, "ASSIGNED")</text><polygon fill="#181818" points="756.8496,1139.3359,746.8496,1143.3359,756.8496,1147.3359,752.8496,1143.3359" style="stroke:#181818;stroke-width:1.0;"/><line style="stroke:#181818;stroke-width:1.0;stroke-dasharray:2.0,2.0;" x1="750.8496" x2="1072.1943" y1="1143.3359" y2="1143.3359"/><text fill="#000000" font-family="sans-serif" font-size="13" font-weight="bold" lengthAdjust="spacing" textLength="17.1514" x="762.8496" y="1138.5938">23</text><text fill="#000000" font-family="sans-serif" font-size="13" lengthAdjust="spacing" textLength="122.2495" x="784.001" y="1138.5938">success(tripDetails)</text><polygon fill="#181818" points="372.6211,1182.6465,362.6211,1186.6465,372.6211,1190.6465,368.6211,1186.6465" style="stroke:#181818;stroke-width:1.0;"/><line style="stroke:#181818;stroke-width:1.0;stroke-dasharray:2.0,2.0;" x1="366.6211" x2="739.8496" y1="1186.6465" y2="1186.6465"/><text fill="#000000" font-family="sans-serif" font-size="13" font-weight="bold" lengthAdjust="spacing" textLength="17.1514" x="378.6211" y="1181.9043">24</text><text fill="#000000" font-family="sans-serif" font-size="13" lengthAdjust="spacing" textLength="35.877" x="399.7725" y="1181.9043">result</text><polygon fill="#181818" points="72.3613,1211.957,62.3613,1215.957,72.3613,1219.957,68.3613,1215.957" style="stroke:#181818;stroke-width:1.0;"/><line style="stroke:#181818;stroke-width:1.0;stroke-dasharray:2.0,2.0;" x1="66.3613" x2="355.6211" y1="1215.957" y2="1215.957"/><text fill="#000000" font-family="sans-serif" font-size="13" font-weight="bold" lengthAdjust="spacing" textLength="17.1514" x="78.3613" y="1211.2148">25</text><text fill="#000000" font-family="sans-serif" font-size="13" lengthAdjust="spacing" textLength="209.0918" x="99.5127" y="1211.2148">display success or error message</text><!--SRC=[fLPBR-Cs4BxxLmnyMCX0Qg3RRWy17C2mquM0tM8HRRPdHXhBH2XI9KVE-jztI4gov4VYj3nHrCmtZsyuG_SiTIsigA0M-RCeCQEzGh2Oaz2bmedh1TnM5EP5wX8sGZcSJ4H3HZVL4rhUvsGiJBzRiTd87BuApLXs2i9r-mcZaCnbBJJ1z9ObfLwPgZPEaZJwCGt2Z-aRSYkZoHgbMl33vnjw6TgTp34ejVknnWEZS70PcVpv0MiJ9Ftc8JiMR0Z74lvaB1JCGx8iIukb89m5uN1w1YqYdKEHzSYIFvXC5Wl8YELWwHnMJseF7_nMbhf2Lbii0XzontPzGe7NOmg_t7LKm2qJ_4-3ZjQ2HFB5vEO6_XQbqUuckd43Q-zqKEsXEYBzOOV4e0nz2wvvgYGbYg7IuWPUF5XQC9prSFwew04BF84S-7XWb65pYoosr4KCB-JlEYEzYK65GBi69jXWMmriJSHquZlCZ4nrTTN_yKiR_cDsREjWwDSv_8cKRs5jAbydzvguID6D53jnTZ6M8Ijkf2uyNPLXazYwEBjABVARTD6yhkG3RVN2Fcb3dxqTsySvh09hq1S_b-TAgBnHVl_DcXhjQz76kzEH7u9iMJZokazyl5Tmj2BE4B1puhiXeRuotSdilLfVK9UqlQmtAYZoPwbst4kvB8RIWpiGdNyphx_DuOTGiWWvtEwTp1s4gmixtsFTPKQxG7QjEdzxstY_sHXBoV_CwHRpvy3H70CUt2s0klnUboRfse12WE_8ar3KvoBLknFjKIAEUmjQQsmoFLmdaDerVdn9tqLhyy8pPXm0yjph3KPdJ-oTu-xt0NUftbZXo3OvDHOXYGdPjVr_Tjd_E-YkPKVaIl3GbhHFHdKsLw54Jv7wJCP90sTMj30m5UcjnCzC5ZmTO_K7Yht9YwO6M4TCHuGVPwaQa1rTF0s12MzzkCJtDPp7d9Cne8n_p_3J9JGuS25ADpsDA52_LEeIxPUe_tHeXuS9_G6-eNNIqUlUt_KptqzOmGrVumjap4dHA2pyZqXzEvhQmNIUZgiz_cCEZtNHUepadnhKk6iy3REc2RfHgP-XqsMMfP__kbzFP_yDw324Xr3l8zyrUOxSyudpjaOIKftfJwZ79UM_ppuSkfUFHTSeEdxO35uT_Tjcz00hfAkLs7TE0PTWA4we-8jb9WCmViFz2m00]--></g></svg>