<?xml version="1.0" encoding="us-ascii" standalone="no"?><svg xmlns="http://www.w3.org/2000/svg" xmlns:xlink="http://www.w3.org/1999/xlink" contentStyleType="text/css" height="662px" preserveAspectRatio="none" style="width:1662px;height:662px;background:#FFFFFF;" version="1.1" viewBox="0 0 1662 662" width="1662px" zoomAndPan="magnify"><defs/><g><!--class DispatcherService--><g id="elem_DispatcherService"><rect codeLine="9" fill="#F1F1F1" height="36.6211" id="DispatcherService" rx="2.5" ry="2.5" style="stroke:#181818;stroke-width:0.5;" width="121" x="805.5" y="123"/><text fill="#000000" font-family="sans-serif" font-size="14" lengthAdjust="spacing" textLength="115" x="808.5" y="143.1074">DispatcherService</text><line style="stroke:#181818;stroke-width:0.5;" x1="806.5" x2="925.5" y1="151.6211" y2="151.6211"/></g><!--class SchedulerService--><g id="elem_SchedulerService"><rect codeLine="13" fill="#F1F1F1" height="36.6211" id="SchedulerService" rx="2.5" ry="2.5" style="stroke:#181818;stroke-width:0.5;" width="117" x="807.5" y="239"/><text fill="#000000" font-family="sans-serif" font-size="14" lengthAdjust="spacing" textLength="111" x="810.5" y="259.1074">SchedulerService</text><line style="stroke:#181818;stroke-width:0.5;" x1="808.5" x2="923.5" y1="267.6211" y2="267.6211"/></g><!--class AutoPathCalculator--><g id="elem_AutoPathCalculator"><rect codeLine="21" fill="#F1F1F1" height="36.6211" id="AutoPathCalculator" rx="2.5" ry="2.5" style="stroke:#181818;stroke-width:0.5;" width="128" x="251" y="382.5"/><text fill="#000000" font-family="sans-serif" font-size="14" lengthAdjust="spacing" textLength="122" x="254" y="402.6074">AutoPathCalculator</text><line style="stroke:#181818;stroke-width:0.5;" x1="252" x2="378" y1="411.1211" y2="411.1211"/></g><!--class TrainTrip--><g id="elem_TrainTrip"><rect codeLine="25" fill="#F1F1F1" height="92.4844" id="TrainTrip" rx="2.5" ry="2.5" style="stroke:#181818;stroke-width:0.5;" width="275" x="728.5" y="355"/><text fill="#000000" font-family="sans-serif" font-size="14" lengthAdjust="spacing" textLength="58" x="837" y="375.1074">TrainTrip</text><line style="stroke:#181818;stroke-width:0.5;" x1="729.5" x2="1002.5" y1="383.6211" y2="383.6211"/><rect fill="none" height="6" style="stroke:#C82930;stroke-width:1.0;" width="6" x="736.5" y="395.4316"/><text fill="#000000" font-family="sans-serif" font-size="14" lengthAdjust="spacing" textLength="76" x="748.5" y="402.7285">tripId: String</text><rect fill="none" height="6" style="stroke:#C82930;stroke-width:1.0;" width="6" x="736.5" y="414.0527"/><text fill="#000000" font-family="sans-serif" font-size="14" lengthAdjust="spacing" textLength="249" x="748.5" y="421.3496">plannedDepartureTime: LocalDateTime</text><rect fill="none" height="6" style="stroke:#C82930;stroke-width:1.0;" width="6" x="736.5" y="432.6738"/><text fill="#000000" font-family="sans-serif" font-size="14" lengthAdjust="spacing" textLength="236" x="748.5" y="439.9707">actualDepartureTime: LocalDateTime</text></g><!--class LineSegment--><g id="elem_LineSegment"><rect codeLine="38" fill="#F1F1F1" height="111.1055" id="LineSegment" rx="2.5" ry="2.5" style="stroke:#181818;stroke-width:0.5;" width="370" x="7" y="535.5"/><text fill="#000000" font-family="sans-serif" font-size="14" lengthAdjust="spacing" textLength="83" x="150.5" y="555.6074">LineSegment</text><line style="stroke:#181818;stroke-width:0.5;" x1="8" x2="376" y1="564.1211" y2="564.1211"/><rect fill="none" height="6" style="stroke:#C82930;stroke-width:1.0;" width="6" x="15" y="575.9316"/><text fill="#000000" font-family="sans-serif" font-size="14" lengthAdjust="spacing" textLength="110" x="27" y="583.2285">segmentId: String</text><rect fill="none" height="6" style="stroke:#C82930;stroke-width:1.0;" width="6" x="15" y="594.5527"/><text fill="#000000" font-family="sans-serif" font-size="14" lengthAdjust="spacing" textLength="116" x="27" y="601.8496">length_km: double</text><rect fill="none" height="6" style="stroke:#C82930;stroke-width:1.0;" width="6" x="15" y="613.1738"/><text fill="#000000" font-family="sans-serif" font-size="14" lengthAdjust="spacing" textLength="193" x="27" y="620.4707">maxSpeedAllowedKmh: double</text><rect fill="none" height="6" style="stroke:#C82930;stroke-width:1.0;" width="6" x="15" y="631.7949"/><text fill="#000000" font-family="sans-serif" font-size="14" lengthAdjust="spacing" textLength="344" x="27" y="639.0918">numberTracks: int // 1 = single track, &gt;1 = double track</text></g><!--class Locomotive--><g id="elem_Locomotive"><rect codeLine="45" fill="#F1F1F1" height="92.4844" id="Locomotive" rx="2.5" ry="2.5" style="stroke:#181818;stroke-width:0.5;" width="169" x="556.5" y="545"/><text fill="#000000" font-family="sans-serif" font-size="14" lengthAdjust="spacing" textLength="72" x="605" y="565.1074">Locomotive</text><line style="stroke:#181818;stroke-width:0.5;" x1="557.5" x2="724.5" y1="573.6211" y2="573.6211"/><rect fill="none" height="6" style="stroke:#C82930;stroke-width:1.0;" width="6" x="564.5" y="585.4316"/><text fill="#000000" font-family="sans-serif" font-size="14" lengthAdjust="spacing" textLength="123" x="576.5" y="592.7285">locomotiveId: String</text><rect fill="none" height="6" style="stroke:#C82930;stroke-width:1.0;" width="6" x="564.5" y="604.0527"/><text fill="#000000" font-family="sans-serif" font-size="14" lengthAdjust="spacing" textLength="113" x="576.5" y="611.3496">power_kw: double</text><rect fill="none" height="6" style="stroke:#C82930;stroke-width:1.0;" width="6" x="564.5" y="622.6738"/><text fill="#000000" font-family="sans-serif" font-size="14" lengthAdjust="spacing" textLength="143" x="576.5" y="629.9707">tareWeight_kg: double</text></g><!--class Wagon--><g id="elem_Wagon"><rect codeLine="51" fill="#F1F1F1" height="92.4844" id="Wagon" rx="2.5" ry="2.5" style="stroke:#181818;stroke-width:0.5;" width="171" x="1006.5" y="545"/><text fill="#000000" font-family="sans-serif" font-size="14" lengthAdjust="spacing" textLength="45" x="1069.5" y="565.1074">Wagon</text><line style="stroke:#181818;stroke-width:0.5;" x1="1007.5" x2="1176.5" y1="573.6211" y2="573.6211"/><rect fill="none" height="6" style="stroke:#C82930;stroke-width:1.0;" width="6" x="1014.5" y="585.4316"/><text fill="#000000" font-family="sans-serif" font-size="14" lengthAdjust="spacing" textLength="97" x="1026.5" y="592.7285">wagonId: String</text><rect fill="none" height="6" style="stroke:#C82930;stroke-width:1.0;" width="6" x="1014.5" y="604.0527"/><text fill="#000000" font-family="sans-serif" font-size="14" lengthAdjust="spacing" textLength="143" x="1026.5" y="611.3496">tareWeight_kg: double</text><rect fill="none" height="6" style="stroke:#C82930;stroke-width:1.0;" width="6" x="1014.5" y="622.6738"/><text fill="#000000" font-family="sans-serif" font-size="14" lengthAdjust="spacing" textLength="145" x="1026.5" y="629.9707">loadWeight_kg: double</text></g><!--class SimulationSegmentEntry--><g id="elem_SimulationSegmentEntry"><rect codeLine="59" fill="#F1F1F1" height="111.1055" id="SimulationSegmentEntry" rx="2.5" ry="2.5" style="stroke:#181818;stroke-width:0.5;" width="210" x="761" y="535.5"/><text fill="#000000" font-family="sans-serif" font-size="14" lengthAdjust="spacing" textLength="154" x="789" y="555.6074">SimulationSegmentEntry</text><line style="stroke:#181818;stroke-width:0.5;" x1="762" x2="970" y1="564.1211" y2="564.1211"/><rect fill="none" height="6" style="stroke:#C82930;stroke-width:1.0;" width="6" x="769" y="575.9316"/><text fill="#000000" font-family="sans-serif" font-size="14" lengthAdjust="spacing" textLength="166" x="781" y="583.2285">entryTime: LocalDateTime</text><rect fill="none" height="6" style="stroke:#C82930;stroke-width:1.0;" width="6" x="769" y="594.5527"/><text fill="#000000" font-family="sans-serif" font-size="14" lengthAdjust="spacing" textLength="155" x="781" y="601.8496">exitTime: LocalDateTime</text><rect fill="none" height="6" style="stroke:#C82930;stroke-width:1.0;" width="6" x="769" y="613.1738"/><text fill="#000000" font-family="sans-serif" font-size="14" lengthAdjust="spacing" textLength="184" x="781" y="620.4707">calculatedSpeedKmh: double</text><rect fill="none" height="6" style="stroke:#C82930;stroke-width:1.0;" width="6" x="769" y="631.7949"/><text fill="#000000" font-family="sans-serif" font-size="14" lengthAdjust="spacing" textLength="110" x="781" y="639.0918">segmentId: String</text></g><!--class CrossingOperation--><g id="elem_CrossingOperation"><rect codeLine="66" fill="#F1F1F1" height="129.7266" id="CrossingOperation" rx="2.5" ry="2.5" style="stroke:#181818;stroke-width:0.5;" width="256" x="1213" y="526"/><text fill="#000000" font-family="sans-serif" font-size="14" lengthAdjust="spacing" textLength="119" x="1281.5" y="546.1074">CrossingOperation</text><line style="stroke:#181818;stroke-width:0.5;" x1="1214" x2="1468" y1="554.6211" y2="554.6211"/><rect fill="none" height="6" style="stroke:#C82930;stroke-width:1.0;" width="6" x="1221" y="566.4316"/><text fill="#000000" font-family="sans-serif" font-size="14" lengthAdjust="spacing" textLength="76" x="1233" y="573.7285">tripId: String</text><rect fill="none" height="6" style="stroke:#C82930;stroke-width:1.0;" width="6" x="1221" y="585.0527"/><text fill="#000000" font-family="sans-serif" font-size="14" lengthAdjust="spacing" textLength="156" x="1233" y="592.3496">conflictSegmentId: String</text><rect fill="none" height="6" style="stroke:#C82930;stroke-width:1.0;" width="6" x="1221" y="603.6738"/><text fill="#000000" font-family="sans-serif" font-size="14" lengthAdjust="spacing" textLength="133" x="1233" y="610.9707">safeWaitFacilityId: int</text><rect fill="none" height="6" style="stroke:#C82930;stroke-width:1.0;" width="6" x="1221" y="622.2949"/><text fill="#000000" font-family="sans-serif" font-size="14" lengthAdjust="spacing" textLength="118" x="1233" y="629.5918">delayMinutes: long</text><rect fill="none" height="6" style="stroke:#C82930;stroke-width:1.0;" width="6" x="1221" y="640.916"/><text fill="#000000" font-family="sans-serif" font-size="14" lengthAdjust="spacing" textLength="230" x="1233" y="648.2129">scheduledMeetTime: LocalDateTime</text></g><!--class SchedulerResult--><g id="elem_SchedulerResult"><rect codeLine="74" fill="#F1F1F1" height="73.8633" id="SchedulerResult" rx="2.5" ry="2.5" style="stroke:#181818;stroke-width:0.5;" width="314" x="1184" y="364"/><text fill="#000000" font-family="sans-serif" font-size="14" lengthAdjust="spacing" textLength="104" x="1289" y="384.1074">SchedulerResult</text><line style="stroke:#181818;stroke-width:0.5;" x1="1185" x2="1497" y1="392.6211" y2="392.6211"/><ellipse cx="1195" cy="407.4316" fill="none" rx="3" ry="3" style="stroke:#038048;stroke-width:1.0;"/><text fill="#000000" font-family="sans-serif" font-size="14" lengthAdjust="spacing" textLength="201" x="1204" y="411.7285">scheduledTrips: List&lt;TrainTrip&gt;</text><ellipse cx="1195" cy="426.0527" fill="none" rx="3" ry="3" style="stroke:#038048;stroke-width:1.0;"/><text fill="#000000" font-family="sans-serif" font-size="14" lengthAdjust="spacing" textLength="288" x="1204" y="430.3496">crossingOperations: List&lt;CrossingOperation&gt;</text></g><!--class PL_SQL_Gateway--><g id="elem_PL_SQL_Gateway"><rect codeLine="81" fill="#F1F1F1" height="36.6211" id="PL_SQL_Gateway" rx="2.5" ry="2.5" style="stroke:#181818;stroke-width:0.5;" width="122" x="1533" y="382.5"/><text fill="#000000" font-family="sans-serif" font-size="14" lengthAdjust="spacing" textLength="116" x="1536" y="402.6074">PL_SQL_Gateway</text><line style="stroke:#181818;stroke-width:0.5;" x1="1534" x2="1654" y1="411.1211" y2="411.1211"/></g><!--class TrainSimulationUI--><g id="elem_TrainSimulationUI"><rect codeLine="91" fill="#F1F1F1" height="36.6211" id="TrainSimulationUI" rx="2.5" ry="2.5" style="stroke:#181818;stroke-width:0.5;" width="116" x="808" y="7"/><text fill="#000000" font-family="sans-serif" font-size="14" lengthAdjust="spacing" textLength="110" x="811" y="27.1074">TrainSimulationUI</text><line style="stroke:#181818;stroke-width:0.5;" x1="809" x2="923" y1="35.6211" y2="35.6211"/></g><!--link TrainSimulationUI to DispatcherService--><g id="link_TrainSimulationUI_DispatcherService"><path codeLine="97" d="M866,44.31 C866,65.73 866,95.45 866,116.81 " fill="none" id="TrainSimulationUI-to-DispatcherService" style="stroke:#181818;stroke-width:1.0;"/><polygon fill="#181818" points="866,122.81,870,113.81,866,117.81,862,113.81,866,122.81" style="stroke:#181818;stroke-width:1.0;"/><text fill="#000000" font-family="sans-serif" font-size="13" lengthAdjust="spacing" textLength="28" x="867" y="89.0283">uses</text></g><!--link DispatcherService to SchedulerService--><g id="link_DispatcherService_SchedulerService"><path codeLine="98" d="M866,160.31 C866,181.73 866,211.45 866,232.81 " fill="none" id="DispatcherService-to-SchedulerService" style="stroke:#181818;stroke-width:1.0;"/><polygon fill="#181818" points="866,238.81,870,229.81,866,233.81,862,229.81,866,238.81" style="stroke:#181818;stroke-width:1.0;"/><text fill="#000000" font-family="sans-serif" font-size="13" lengthAdjust="spacing" textLength="67" x="867" y="205.0283">coordinates</text></g><!--link SchedulerService to AutoPathCalculator--><g id="link_SchedulerService_AutoPathCalculator"><path codeLine="100" d="M807.05,264.42 C680.25,277.15 393,306 393,306 C393,306 356.1019,350.473 333.5019,377.703 " fill="none" id="SchedulerService-to-AutoPathCalculator" style="stroke:#181818;stroke-width:1.0;"/><polygon fill="#181818" points="329.67,382.32,338.4959,377.9492,332.8633,378.4725,332.3399,372.8399,329.67,382.32" style="stroke:#181818;stroke-width:1.0;"/><text fill="#000000" font-family="sans-serif" font-size="13" lengthAdjust="spacing" textLength="28" x="394" y="321.0283">uses</text></g><!--link SchedulerService to PL_SQL_Gateway--><g id="link_SchedulerService_PL_SQL_Gateway"><path codeLine="101" d="M924.56,266.83 C1020.35,280.45 1200,306 1200,306 C1200,306 1516,355 1516,355 C1516,355 1536.5224,366.8425 1558.4224,379.4725 " fill="none" id="SchedulerService-to-PL_SQL_Gateway" style="stroke:#181818;stroke-width:1.0;"/><polygon fill="#181818" points="1563.62,382.47,1557.822,374.5087,1559.2887,379.9721,1553.8253,381.4388,1563.62,382.47" style="stroke:#181818;stroke-width:1.0;"/><text fill="#000000" font-family="sans-serif" font-size="13" lengthAdjust="spacing" textLength="100" x="1321" y="321.0283">queries / persists</text></g><!--link SchedulerService to TrainTrip--><g id="link_SchedulerService_TrainTrip"><path codeLine="102" d="M866,276.13 C866,295.69 866,322.01 866,348.74 " fill="none" id="SchedulerService-to-TrainTrip" style="stroke:#181818;stroke-width:1.0;"/><polygon fill="#181818" points="866,354.74,870,345.74,866,349.74,862,345.74,866,354.74" style="stroke:#181818;stroke-width:1.0;"/><text fill="#000000" font-family="sans-serif" font-size="13" lengthAdjust="spacing" textLength="56" x="867" y="321.0283">simulates</text></g><!--link SchedulerService to LineSegment--><g id="link_SchedulerService_LineSegment"><path codeLine="103" d="M807.3,275.31 C710.75,302.96 529,355 529,355 C529,355 374.6313,462.6377 275.0813,532.0677 " fill="none" id="SchedulerService-to-LineSegment" style="stroke:#181818;stroke-width:1.0;"/><polygon fill="#181818" points="270.16,535.5,279.8302,533.6324,274.2611,532.6397,275.2538,527.0707,270.16,535.5" style="stroke:#181818;stroke-width:1.0;"/><text fill="#000000" font-family="sans-serif" font-size="13" lengthAdjust="spacing" textLength="100" x="530" y="406.5283">reads constraints</text></g><!--link SchedulerService to Locomotive--><g id="link_SchedulerService_Locomotive"><path codeLine="104" d="M824.63,276.09 C759.15,303.92 639,355 639,355 C639,355 639,447 639,447 C639,447 639.6955,496.8606 640.2855,538.7506 " fill="none" id="SchedulerService-to-Locomotive" style="stroke:#181818;stroke-width:1.0;"/><polygon fill="#181818" points="640.37,544.75,644.2429,535.6946,640.2996,539.7505,636.2436,535.8072,640.37,544.75" style="stroke:#181818;stroke-width:1.0;"/><text fill="#000000" font-family="sans-serif" font-size="13" lengthAdjust="spacing" textLength="70" x="640" y="406.5283">reads power</text></g><!--link SchedulerService to Wagon--><g id="link_SchedulerService_Wagon"><path codeLine="105" d="M894.43,276.2 C939.18,304.06 1021,355 1021,355 C1021,355 1056.0453,470.9862 1076.6553,539.2262 " fill="none" id="SchedulerService-to-Wagon" style="stroke:#181818;stroke-width:1.0;"/><polygon fill="#181818" points="1078.39,544.97,1079.6171,535.1979,1076.9444,540.1835,1071.9587,537.5109,1078.39,544.97" style="stroke:#181818;stroke-width:1.0;"/><text fill="#000000" font-family="sans-serif" font-size="13" lengthAdjust="spacing" textLength="73" x="1050" y="406.5283">reads weight</text></g><!--link SchedulerService to SchedulerResult--><g id="link_SchedulerService_SchedulerResult"><path codeLine="106" d="M924.75,270.42 C994.06,284.5 1100,306 1100,306 C1100,306 1174.9602,335.2395 1242.9202,361.7495 " fill="none" id="SchedulerService-to-SchedulerResult" style="stroke:#181818;stroke-width:1.0;"/><polygon fill="#181818" points="1248.51,363.93,1241.579,356.9328,1243.8519,362.1129,1238.6717,364.3858,1248.51,363.93" style="stroke:#181818;stroke-width:1.0;"/><text fill="#000000" font-family="sans-serif" font-size="13" lengthAdjust="spacing" textLength="43" x="1148" y="321.0283">outputs</text></g><!--reverse link SchedulerResult to CrossingOperation--><g id="link_SchedulerResult_CrossingOperation"><path codeLine="108" d="M1341,450.25 C1341,475 1341,496.48 1341,525.7 " fill="none" id="SchedulerResult-backto-CrossingOperation" style="stroke:#181818;stroke-width:1.0;"/><polygon fill="#181818" points="1341,438.25,1337,444.25,1341,450.25,1345,444.25,1341,438.25" style="stroke:#181818;stroke-width:1.0;"/><text fill="#000000" font-family="sans-serif" font-size="13" lengthAdjust="spacing" textLength="38" x="1342" y="492.0283">details</text><text fill="#000000" font-family="sans-serif" font-size="13" lengthAdjust="spacing" textLength="7" x="1333.4203" y="459.8911">1</text><text fill="#000000" font-family="sans-serif" font-size="13" lengthAdjust="spacing" textLength="20" x="1319.9063" y="514.6873">0..*</text></g><!--reverse link TrainTrip to LineSegment--><g id="link_TrainTrip_LineSegment"><path codeLine="110" d="M716.8315,443.6049 C615.4715,471.8849 488.1,507.41 377.03,538.39 " fill="none" id="TrainTrip-backto-LineSegment" style="stroke:#181818;stroke-width:1.0;"/><polygon fill="#181818" points="728.39,440.38,721.5358,438.1396,716.8315,443.6049,723.6857,445.8453,728.39,440.38" style="stroke:#181818;stroke-width:1.0;"/><text fill="#000000" font-family="sans-serif" font-size="13" lengthAdjust="spacing" textLength="29" x="591" y="492.0283">route</text><text fill="#000000" font-family="sans-serif" font-size="13" lengthAdjust="spacing" textLength="7" x="713.673" y="439.0918">1</text><text fill="#000000" font-family="sans-serif" font-size="13" lengthAdjust="spacing" textLength="20" x="385.2578" y="532.8442">1..*</text></g><!--reverse link TrainTrip to Locomotive--><g id="link_TrainTrip_Locomotive"><path codeLine="111" d="M802.901,454.7237 C767.531,484.2737 730.66,515.08 695.23,544.69 " fill="none" id="TrainTrip-backto-Locomotive" style="stroke:#181818;stroke-width:1.0;"/><polygon fill="#181818" points="812.11,447.03,804.9409,447.8072,802.901,454.7237,810.0701,453.9465,812.11,447.03" style="stroke:#181818;stroke-width:1.0;"/><text fill="#000000" font-family="sans-serif" font-size="13" lengthAdjust="spacing" textLength="66" x="775" y="492.0283">is pulled by</text><text fill="#000000" font-family="sans-serif" font-size="13" lengthAdjust="spacing" textLength="7" x="796.3222" y="469.3934">1</text><text fill="#000000" font-family="sans-serif" font-size="13" lengthAdjust="spacing" textLength="20" x="681.7263" y="533.6539">1..*</text></g><!--reverse link TrainTrip to Wagon--><g id="link_TrainTrip_Wagon"><path codeLine="112" d="M938.9639,454.1161 C961.2039,470.0061 971,477 971,477 C971,477 1009.82,513.25 1043.48,544.69 " fill="none" id="TrainTrip-backto-Wagon" style="stroke:#181818;stroke-width:1.0;"/><polygon fill="#181818" points="929.2,447.14,931.7566,453.8827,938.9639,454.1161,936.4073,447.3734,929.2,447.14" style="stroke:#181818;stroke-width:1.0;"/><text fill="#000000" font-family="sans-serif" font-size="13" lengthAdjust="spacing" textLength="39" x="993" y="492.0283">carries</text><text fill="#000000" font-family="sans-serif" font-size="13" lengthAdjust="spacing" textLength="7" x="931.3416" y="469.5203">1</text><text fill="#000000" font-family="sans-serif" font-size="13" lengthAdjust="spacing" textLength="20" x="1014.8849" y="533.6539">0..*</text></g><!--reverse link TrainTrip to SimulationSegmentEntry--><g id="link_TrainTrip_SimulationSegmentEntry"><path codeLine="113" d="M863.704,459.3502 C863.064,475.1402 863,477 863,477 C863,477 863,496 863,496 C863,496 863.59,514.64 864.25,535.32 " fill="none" id="TrainTrip-backto-SimulationSegmentEntry" style="stroke:#181818;stroke-width:1.0;"/><polygon fill="#181818" points="864.19,447.36,859.9503,453.1931,863.704,459.3502,867.9437,453.5171,864.19,447.36" style="stroke:#181818;stroke-width:1.0;"/><text fill="#000000" font-family="sans-serif" font-size="13" lengthAdjust="spacing" textLength="102" x="864" y="492.0283">simulation results</text><text fill="#000000" font-family="sans-serif" font-size="13" lengthAdjust="spacing" textLength="7" x="856.4101" y="469.4317">1</text><text fill="#000000" font-family="sans-serif" font-size="13" lengthAdjust="spacing" textLength="20" x="842.7445" y="524.1371">0..*</text></g><!--link LineSegment to LineSegment--><g id="link_LineSegment_LineSegment"><path codeLine="115" d="M377.38,574.48 C398.38,577.57 412,583.08 412,591 C412,598.92 404.3161,603.5565 383.3161,606.6465 " fill="none" id="LineSegment-to-LineSegment" style="stroke:#181818;stroke-width:1.0;"/><polygon fill="#181818" points="377.38,607.52,386.8664,610.1672,382.3267,606.7921,385.7018,602.2524,377.38,607.52" style="stroke:#181818;stroke-width:1.0;"/><text fill="#000000" font-family="sans-serif" font-size="13" lengthAdjust="spacing" textLength="114" x="418" y="596.5283">inverse_segment_id</text><text fill="#000000" font-family="sans-serif" font-size="13" lengthAdjust="spacing" textLength="7" x="384.7581" y="570.5346">1</text><text fill="#000000" font-family="sans-serif" font-size="13" lengthAdjust="spacing" textLength="7" x="384.7581" y="604.8652">1</text></g><!--SRC=[bLPRZ-8s57xdLrZpqCxiBZkTrsWN2GLs1mq3b0ID-eGyyI6nSEBKTc1HrV_UO-T2867Rlip4Fj-v7ty7lUTPJXLDIKwZFOqXC2S1H45aQ1OB6EW6e1FAv95dCTbHeTiImJCmfnn8BiN97WO9Pq0YhY9HVQTW4idqOF0h6Gw7n5-kfsGo2rRZq7-UBRwJNqZWFqydcxaz-FDn44m3YnmC8a6r9XEkSsgY15G0wi0Z87yD2Fd8gkjGKPxfDswIPMwupFIzKJpN7fbpRRuuQOWNeqyabGmyig8cUSMlXy7VjOS0ZRD2t70mPWUQHS3-grtlR6yDkX366ekeY0f13JZ55QYTLAarwwnwfB7tS84ESW2sKdB7nRyWyVe08kGfk5huIcgD3TEzMWgq50SO2-7BR2TuP6vLhLMbSM6aJTAlN4fLrga9mTO_fS9YEbuhmtESa03Y538pEbjkOCxWqEhE69OHFxBOtkI2PXcm2U3GcKA1JHCjIdGziRdZqS9eP0gy-JdgOmncBGi3zxr18K3N06N_ze0UAZDeMgRIy0Feix7cRbIXtcXifx86k6Cj2wMXuWrud9YNs4AOBDv57QOlqtTqorRo2Ehbs95NyKmpB5GhX82djX_u5bg0KwlUhLpAYkloS5bq0Lbiakq-RNaTflI7cqaS7GoAlQH9MveLwJieR6Uqnr7YQFxnaJoHhyIE8dABiP9FP6IlIgtogXLQKxuoCj6ShoR2bcIxFxQz6wgWhELs7pU2nhGhV6drQ3yl3VOhkmWewxLQqbamUztCn-5ikK0YMsx2rIOaat2fsmpMtv0o5B2VD-OPVd1pGzGyEkRQSTM7RZ-RAjJ4iCn1kP1klRceOeQWRpOqtS4RvUORZRZWvcIbs6uhOY3ewPLd-7Hm1eIi52fAPAy0lJbroRWapv9Z6lMmbwKS3LqdLiCw6O_EtPijlgt7GRZU-E46rz8ZcOp3CHdx_ZIus46h-JRuVRxzZj4UQTav-m0NO8vIxJ49Ulzm-IXzYbkL6_ikSOiaNSfmZnfv4dEOiLhiKYgdxKAaaTphmkXxvIhJsJCFvxmsCynbkWZNVv3LShO8sxau7-UHHAXBHnLPlUdEml-pIqlFwsdv6eBdsQegOTVXS3ZgMUiUAJJeGLTWuPqTxP58IiLuXZt17nSTkLNgMLcLarxuLPSzycS1bbcnbZWx6cjmG_6ym3oaEfVeBHzjxlNmnnPb6XF9jElsBVijLgnr707seqkYgu57DqtzoEktvX7SU7bXslMiH7TFT-G3zlVkjy-VFzprq0Zo3nZAXQuQxihHQ3qvhQlaxNhz2RYTDCUC2u44GDvFVIfbL7Nc4LMsRxU1DnYvwPvDg7nbc4uxQcl7Lix-lyo6PmUS4TXMtBlbRF0F]--></g></svg>