<?xml version="1.0" encoding="us-ascii" standalone="no"?><svg xmlns="http://www.w3.org/2000/svg" xmlns:xlink="http://www.w3.org/1999/xlink" contentStyleType="text/css" height="1550px" preserveAspectRatio="none" style="width:1663px;height:1550px;background:#FFFFFF;" version="1.1" viewBox="0 0 1663 1550" width="1663px" zoomAndPan="magnify"><defs/><g><rect fill="#FFFFFF" height="31.291" style="stroke:#181818;stroke-width:1.0;" width="10" x="53" y="162.2031"/><rect fill="#FFFFFF" height="1355.2715" style="stroke:#181818;stroke-width:1.0;" width="10" x="277" y="93.6211"/><rect fill="#FFFFFF" height="1192.8164" style="stroke:#181818;stroke-width:1.0;" width="10" x="546" y="224.7852"/><rect fill="#FFFFFF" height="1130.2344" style="stroke:#181818;stroke-width:1.0;" width="10" x="764" y="256.0762"/><rect fill="#FFFFFF" height="93.873" style="stroke:#181818;stroke-width:1.0;" width="10" x="957" y="388.2402"/><rect fill="none" height="279.959" style="stroke:#000000;stroke-width:1.5;" width="580" x="669" y="308.3672"/><rect fill="none" height="187.7461" style="stroke:#000000;stroke-width:1.5;" width="679" x="628" y="602.3262"/><rect fill="none" height="383.4922" style="stroke:#000000;stroke-width:1.5;" width="1024" x="622" y="841.3633"/><rect fill="none" height="287.6191" style="stroke:#000000;stroke-width:1.5;" width="1004" x="632" y="930.2363"/><line style="stroke:#181818;stroke-width:0.5;stroke-dasharray:5.0,5.0;" x1="58" x2="58" y1="83.6211" y2="1466.8926"/><line style="stroke:#181818;stroke-width:0.5;stroke-dasharray:5.0,5.0;" x1="282" x2="282" y1="83.6211" y2="1466.8926"/><line style="stroke:#181818;stroke-width:0.5;stroke-dasharray:5.0,5.0;" x1="550.5" x2="550.5" y1="83.6211" y2="1466.8926"/><line style="stroke:#181818;stroke-width:0.5;stroke-dasharray:5.0,5.0;" x1="768.5" x2="768.5" y1="83.6211" y2="1466.8926"/><line style="stroke:#181818;stroke-width:0.5;stroke-dasharray:5.0,5.0;" x1="962" x2="962" y1="83.6211" y2="1466.8926"/><line style="stroke:#181818;stroke-width:0.5;stroke-dasharray:5.0,5.0;" x1="1172" x2="1172" y1="83.6211" y2="1466.8926"/><line style="stroke:#181818;stroke-width:0.5;stroke-dasharray:5.0,5.0;" x1="1273" x2="1273" y1="83.6211" y2="1466.8926"/><line style="stroke:#181818;stroke-width:0.5;stroke-dasharray:5.0,5.0;" x1="1331" x2="1331" y1="83.6211" y2="1466.8926"/><line style="stroke:#181818;stroke-width:0.5;stroke-dasharray:5.0,5.0;" x1="1431" x2="1431" y1="83.6211" y2="1466.8926"/><line style="stroke:#181818;stroke-width:0.5;stroke-dasharray:5.0,5.0;" x1="1567" x2="1567" y1="83.6211" y2="1466.8926"/><text fill="#000000" font-family="sans-serif" font-size="14" lengthAdjust="spacing" textLength="100" x="5" y="80.1074">Traffic Manager</text><ellipse cx="58" cy="13.5" fill="#E2E2F0" rx="8" ry="8" style="stroke:#181818;stroke-width:0.5;"/><path d="M58,21.5 L58,48.5 M45,29.5 L71,29.5 M58,48.5 L45,63.5 M58,48.5 L71,63.5 " fill="none" style="stroke:#181818;stroke-width:0.5;"/><text fill="#000000" font-family="sans-serif" font-size="14" lengthAdjust="spacing" textLength="100" x="5" y="1481">Traffic Manager</text><ellipse cx="58" cy="1493.0137" fill="#E2E2F0" rx="8" ry="8" style="stroke:#181818;stroke-width:0.5;"/><path d="M58,1501.0137 L58,1528.0137 M45,1509.0137 L71,1509.0137 M58,1528.0137 L45,1543.0137 M58,1528.0137 L71,1543.0137 " fill="none" style="stroke:#181818;stroke-width:0.5;"/><rect fill="#E2E2F0" height="32.6211" rx="2.5" ry="2.5" style="stroke:#181818;stroke-width:0.5;" width="128" x="218" y="50"/><text fill="#000000" font-family="sans-serif" font-size="14" lengthAdjust="spacing" textLength="114" x="225" y="72.1074">:TrainSimulationUI</text><rect fill="#E2E2F0" height="32.6211" rx="2.5" ry="2.5" style="stroke:#181818;stroke-width:0.5;" width="128" x="218" y="1465.8926"/><text fill="#000000" font-family="sans-serif" font-size="14" lengthAdjust="spacing" textLength="114" x="225" y="1488">:TrainSimulationUI</text><rect fill="#E2E2F0" height="32.6211" rx="2.5" ry="2.5" style="stroke:#181818;stroke-width:0.5;" width="133" x="484.5" y="50"/><text fill="#000000" font-family="sans-serif" font-size="14" lengthAdjust="spacing" textLength="119" x="491.5" y="72.1074">:DispatcherService</text><rect fill="#E2E2F0" height="32.6211" rx="2.5" ry="2.5" style="stroke:#181818;stroke-width:0.5;" width="133" x="484.5" y="1465.8926"/><text fill="#000000" font-family="sans-serif" font-size="14" lengthAdjust="spacing" textLength="119" x="491.5" y="1488">:DispatcherService</text><rect fill="#E2E2F0" height="32.6211" rx="2.5" ry="2.5" style="stroke:#181818;stroke-width:0.5;" width="129" x="704.5" y="50"/><text fill="#000000" font-family="sans-serif" font-size="14" lengthAdjust="spacing" textLength="115" x="711.5" y="72.1074">:SchedulerService</text><rect fill="#E2E2F0" height="32.6211" rx="2.5" ry="2.5" style="stroke:#181818;stroke-width:0.5;" width="129" x="704.5" y="1465.8926"/><text fill="#000000" font-family="sans-serif" font-size="14" lengthAdjust="spacing" textLength="115" x="711.5" y="1488">:SchedulerService</text><rect fill="#E2E2F0" height="32.6211" rx="2.5" ry="2.5" style="stroke:#181818;stroke-width:0.5;" width="140" x="892" y="50"/><text fill="#000000" font-family="sans-serif" font-size="14" lengthAdjust="spacing" textLength="126" x="899" y="72.1074">:AutoPathCalculator</text><rect fill="#E2E2F0" height="32.6211" rx="2.5" ry="2.5" style="stroke:#181818;stroke-width:0.5;" width="140" x="892" y="1465.8926"/><text fill="#000000" font-family="sans-serif" font-size="14" lengthAdjust="spacing" textLength="126" x="899" y="1488">:AutoPathCalculator</text><rect fill="#E2E2F0" height="32.6211" rx="2.5" ry="2.5" style="stroke:#181818;stroke-width:0.5;" width="134" x="1105" y="50"/><text fill="#000000" font-family="sans-serif" font-size="14" lengthAdjust="spacing" textLength="120" x="1112" y="72.1074">:PL_SQL_Gateway</text><rect fill="#E2E2F0" height="32.6211" rx="2.5" ry="2.5" style="stroke:#181818;stroke-width:0.5;" width="134" x="1105" y="1465.8926"/><text fill="#000000" font-family="sans-serif" font-size="14" lengthAdjust="spacing" textLength="120" x="1112" y="1488">:PL_SQL_Gateway</text><rect fill="#E2E2F0" height="32.6211" rx="2.5" ry="2.5" style="stroke:#181818;stroke-width:0.5;" width="48" x="1249" y="50"/><text fill="#000000" font-family="sans-serif" font-size="14" lengthAdjust="spacing" textLength="34" x="1256" y="72.1074">TripA</text><rect fill="#E2E2F0" height="32.6211" rx="2.5" ry="2.5" style="stroke:#181818;stroke-width:0.5;" width="48" x="1249" y="1465.8926"/><text fill="#000000" font-family="sans-serif" font-size="14" lengthAdjust="spacing" textLength="34" x="1256" y="1488">TripA</text><rect fill="#E2E2F0" height="32.6211" rx="2.5" ry="2.5" style="stroke:#181818;stroke-width:0.5;" width="48" x="1307" y="50"/><text fill="#000000" font-family="sans-serif" font-size="14" lengthAdjust="spacing" textLength="34" x="1314" y="72.1074">TripB</text><rect fill="#E2E2F0" height="32.6211" rx="2.5" ry="2.5" style="stroke:#181818;stroke-width:0.5;" width="48" x="1307" y="1465.8926"/><text fill="#000000" font-family="sans-serif" font-size="14" lengthAdjust="spacing" textLength="34" x="1314" y="1488">TripB</text><rect fill="#E2E2F0" height="32.6211" rx="2.5" ry="2.5" style="stroke:#181818;stroke-width:0.5;" width="133" x="1365" y="50"/><text fill="#000000" font-family="sans-serif" font-size="14" lengthAdjust="spacing" textLength="119" x="1372" y="72.1074">CrossingOperation</text><rect fill="#E2E2F0" height="32.6211" rx="2.5" ry="2.5" style="stroke:#181818;stroke-width:0.5;" width="133" x="1365" y="1465.8926"/><text fill="#000000" font-family="sans-serif" font-size="14" lengthAdjust="spacing" textLength="119" x="1372" y="1488">CrossingOperation</text><rect fill="#E2E2F0" height="32.6211" rx="2.5" ry="2.5" style="stroke:#181818;stroke-width:0.5;" width="118" x="1508" y="50"/><text fill="#000000" font-family="sans-serif" font-size="14" lengthAdjust="spacing" textLength="104" x="1515" y="72.1074">SchedulerResult</text><rect fill="#E2E2F0" height="32.6211" rx="2.5" ry="2.5" style="stroke:#181818;stroke-width:0.5;" width="118" x="1508" y="1465.8926"/><text fill="#000000" font-family="sans-serif" font-size="14" lengthAdjust="spacing" textLength="104" x="1515" y="1488">SchedulerResult</text><rect fill="#FFFFFF" height="31.291" style="stroke:#181818;stroke-width:1.0;" width="10" x="53" y="162.2031"/><rect fill="#FFFFFF" height="1355.2715" style="stroke:#181818;stroke-width:1.0;" width="10" x="277" y="93.6211"/><rect fill="#FFFFFF" height="1192.8164" style="stroke:#181818;stroke-width:1.0;" width="10" x="546" y="224.7852"/><rect fill="#FFFFFF" height="1130.2344" style="stroke:#181818;stroke-width:1.0;" width="10" x="764" y="256.0762"/><rect fill="#FFFFFF" height="93.873" style="stroke:#181818;stroke-width:1.0;" width="10" x="957" y="388.2402"/><rect fill="#EEEEEE" height="3" style="stroke:#EEEEEE;stroke-width:1.0;" width="1656" x="0" y="115.2666"/><line style="stroke:#000000;stroke-width:1.0;" x1="0" x2="1656" y1="115.2666" y2="115.2666"/><line style="stroke:#000000;stroke-width:1.0;" x1="0" x2="1656" y1="118.2666" y2="118.2666"/><rect fill="#EEEEEE" height="25.291" style="stroke:#000000;stroke-width:2.0;" width="193" x="731.5" y="103.6211"/><text fill="#000000" font-family="sans-serif" font-size="13" font-weight="bold" lengthAdjust="spacing" textLength="175" x="737.5" y="121.6494">Start Advanced Dispatching</text><polygon fill="#181818" points="74,158.2031,64,162.2031,74,166.2031,70,162.2031" style="stroke:#181818;stroke-width:1.0;"/><line style="stroke:#181818;stroke-width:1.0;" x1="68" x2="276" y1="162.2031" y2="162.2031"/><text fill="#000000" font-family="sans-serif" font-size="13" font-weight="bold" lengthAdjust="spacing" textLength="7" x="80" y="156.9404">1</text><text fill="#000000" font-family="sans-serif" font-size="13" lengthAdjust="spacing" textLength="81" x="91" y="156.9404">loadTrainList()</text><polygon fill="#181818" points="265,189.4941,275,193.4941,265,197.4941,269,193.4941" style="stroke:#181818;stroke-width:1.0;"/><line style="stroke:#181818;stroke-width:1.0;" x1="58" x2="271" y1="193.4941" y2="193.4941"/><text fill="#000000" font-family="sans-serif" font-size="13" font-weight="bold" lengthAdjust="spacing" textLength="7" x="65" y="188.2314">2</text><text fill="#000000" font-family="sans-serif" font-size="13" lengthAdjust="spacing" textLength="123" x="76" y="188.2314">return List&lt;TrainTrip&gt;</text><polygon fill="#181818" points="534,220.7852,544,224.7852,534,228.7852,538,224.7852" style="stroke:#181818;stroke-width:1.0;"/><line style="stroke:#181818;stroke-width:1.0;" x1="287" x2="540" y1="224.7852" y2="224.7852"/><text fill="#000000" font-family="sans-serif" font-size="13" font-weight="bold" lengthAdjust="spacing" textLength="7" x="294" y="219.5225">3</text><text fill="#000000" font-family="sans-serif" font-size="13" lengthAdjust="spacing" textLength="229" x="305" y="219.5225">dispatchTrainsWithOptions(trips, mode)</text><polygon fill="#181818" points="752,252.0762,762,256.0762,752,260.0762,756,256.0762" style="stroke:#181818;stroke-width:1.0;"/><line style="stroke:#181818;stroke-width:1.0;" x1="556" x2="758" y1="256.0762" y2="256.0762"/><text fill="#000000" font-family="sans-serif" font-size="13" font-weight="bold" lengthAdjust="spacing" textLength="7" x="563" y="250.8135">4</text><text fill="#000000" font-family="sans-serif" font-size="13" lengthAdjust="spacing" textLength="178" x="574" y="250.8135">dispatchAdvanced(trips, mode)</text><path d="M646,269.0762 L646,296.0762 L891,296.0762 L891,279.0762 L881,269.0762 L646,269.0762 " fill="#FEFFDD" style="stroke:#181818;stroke-width:0.5;"/><path d="M881,269.0762 L881,279.0762 L891,279.0762 L881,269.0762 " fill="#FEFFDD" style="stroke:#181818;stroke-width:0.5;"/><text fill="#000000" font-family="sans-serif" font-size="13" lengthAdjust="spacing" textLength="224" x="652" y="288.1045">1. Sort Trips by PlannedDepartureTime</text><path d="M669,308.3672 L730,308.3672 L730,317.6582 L720,327.6582 L669,327.6582 L669,308.3672 " fill="#EEEEEE" style="stroke:#000000;stroke-width:1.5;"/><rect fill="none" height="279.959" style="stroke:#000000;stroke-width:1.5;" width="580" x="669" y="308.3672"/><text fill="#000000" font-family="sans-serif" font-size="13" font-weight="bold" lengthAdjust="spacing" textLength="16" x="684" y="323.3955">alt</text><text fill="#000000" font-family="sans-serif" font-size="11" font-weight="bold" lengthAdjust="spacing" textLength="118" x="745" y="322.2373">[mode = AUTOMATIC]</text><path d="M679,332.6582 L679,359.6582 L858,359.6582 L858,342.6582 L848,332.6582 L679,332.6582 " fill="#FEFFDD" style="stroke:#181818;stroke-width:0.5;"/><path d="M848,332.6582 L848,342.6582 L858,342.6582 L848,332.6582 " fill="#FEFFDD" style="stroke:#181818;stroke-width:0.5;"/><text fill="#000000" font-family="sans-serif" font-size="13" lengthAdjust="spacing" textLength="158" x="685" y="351.6865">Automatic Path Calculation</text><polygon fill="#181818" points="945,384.2402,955,388.2402,945,392.2402,949,388.2402" style="stroke:#181818;stroke-width:1.0;"/><line style="stroke:#181818;stroke-width:1.0;" x1="774" x2="951" y1="388.2402" y2="388.2402"/><text fill="#000000" font-family="sans-serif" font-size="13" font-weight="bold" lengthAdjust="spacing" textLength="7" x="781" y="382.9775">5</text><text fill="#000000" font-family="sans-serif" font-size="13" lengthAdjust="spacing" textLength="153" x="792" y="382.9775">calculateOptimalPath(Trip)</text><polygon fill="#181818" points="1160,415.5313,1170,419.5313,1160,423.5313,1164,419.5313" style="stroke:#181818;stroke-width:1.0;"/><line style="stroke:#181818;stroke-width:1.0;" x1="967" x2="1166" y1="419.5313" y2="419.5313"/><text fill="#000000" font-family="sans-serif" font-size="13" font-weight="bold" lengthAdjust="spacing" textLength="7" x="974" y="414.2686">6</text><text fill="#000000" font-family="sans-serif" font-size="13" lengthAdjust="spacing" textLength="100" x="985" y="414.2686">getNetworkData()</text><polygon fill="#181818" points="978,446.8223,968,450.8223,978,454.8223,974,450.8223" style="stroke:#181818;stroke-width:1.0;"/><line style="stroke:#181818;stroke-width:1.0;stroke-dasharray:2.0,2.0;" x1="972" x2="1171" y1="450.8223" y2="450.8223"/><text fill="#000000" font-family="sans-serif" font-size="13" font-weight="bold" lengthAdjust="spacing" textLength="7" x="984" y="445.5596">7</text><text fill="#000000" font-family="sans-serif" font-size="13" lengthAdjust="spacing" textLength="170" x="995" y="445.5596">return segments &amp; capacities</text><polygon fill="#181818" points="785,478.1133,775,482.1133,785,486.1133,781,482.1133" style="stroke:#181818;stroke-width:1.0;"/><line style="stroke:#181818;stroke-width:1.0;stroke-dasharray:2.0,2.0;" x1="779" x2="961" y1="482.1133" y2="482.1133"/><text fill="#000000" font-family="sans-serif" font-size="13" font-weight="bold" lengthAdjust="spacing" textLength="7" x="791" y="476.8506">8</text><text fill="#000000" font-family="sans-serif" font-size="13" lengthAdjust="spacing" textLength="125" x="802" y="476.8506">return calculated path</text><line style="stroke:#000000;stroke-width:1.0;stroke-dasharray:2.0,2.0;" x1="669" x2="1249" y1="491.1133" y2="491.1133"/><text fill="#000000" font-family="sans-serif" font-size="11" font-weight="bold" lengthAdjust="spacing" textLength="99" x="674" y="502.9834">[mode = MANUAL]</text><path d="M680,511.7441 L680,538.7441 L857,538.7441 L857,521.7441 L847,511.7441 L680,511.7441 " fill="#FEFFDD" style="stroke:#181818;stroke-width:0.5;"/><path d="M847,511.7441 L847,521.7441 L857,521.7441 L847,511.7441 " fill="#FEFFDD" style="stroke:#181818;stroke-width:0.5;"/><text fill="#000000" font-family="sans-serif" font-size="13" lengthAdjust="spacing" textLength="156" x="686" y="530.7725">Manual Path from Manager</text><line style="stroke:#181818;stroke-width:1.0;" x1="774" x2="816" y1="567.3262" y2="567.3262"/><line style="stroke:#181818;stroke-width:1.0;" x1="816" x2="816" y1="567.3262" y2="580.3262"/><line style="stroke:#181818;stroke-width:1.0;" x1="775" x2="816" y1="580.3262" y2="580.3262"/><polygon fill="#181818" points="785,576.3262,775,580.3262,785,584.3262,781,580.3262" style="stroke:#181818;stroke-width:1.0;"/><text fill="#000000" font-family="sans-serif" font-size="13" font-weight="bold" lengthAdjust="spacing" textLength="7" x="781" y="562.0635">9</text><text fill="#000000" font-family="sans-serif" font-size="13" lengthAdjust="spacing" textLength="138" x="792" y="562.0635">usePredefinedPath(Trip)</text><path d="M628,602.3262 L701,602.3262 L701,611.6172 L691,621.6172 L628,621.6172 L628,602.3262 " fill="#EEEEEE" style="stroke:#000000;stroke-width:1.5;"/><rect fill="none" height="187.7461" style="stroke:#000000;stroke-width:1.5;" width="679" x="628" y="602.3262"/><text fill="#000000" font-family="sans-serif" font-size="13" font-weight="bold" lengthAdjust="spacing" textLength="28" x="643" y="617.3545">loop</text><text fill="#000000" font-family="sans-serif" font-size="11" font-weight="bold" lengthAdjust="spacing" textLength="108" x="716" y="616.1963">[For each TrainTrip]</text><path d="M638,626.6172 L638,653.6172 L899,653.6172 L899,636.6172 L889,626.6172 L638,626.6172 " fill="#FEFFDD" style="stroke:#181818;stroke-width:0.5;"/><path d="M889,626.6172 L889,636.6172 L899,636.6172 L889,626.6172 " fill="#FEFFDD" style="stroke:#181818;stroke-width:0.5;"/><text fill="#000000" font-family="sans-serif" font-size="13" lengthAdjust="spacing" textLength="240" x="644" y="645.6455">2. Calculate Performance &amp; Speed Profile</text><polygon fill="#181818" points="1261,678.1992,1271,682.1992,1261,686.1992,1265,682.1992" style="stroke:#181818;stroke-width:1.0;"/><line style="stroke:#181818;stroke-width:1.0;" x1="774" x2="1267" y1="682.1992" y2="682.1992"/><text fill="#000000" font-family="sans-serif" font-size="13" font-weight="bold" lengthAdjust="spacing" textLength="14" x="781" y="676.9365">10</text><text fill="#000000" font-family="sans-serif" font-size="13" lengthAdjust="spacing" textLength="161" x="799" y="676.9365">calculateTrainPerformance()</text><polygon fill="#181818" points="1261,709.4902,1271,713.4902,1261,717.4902,1265,713.4902" style="stroke:#181818;stroke-width:1.0;"/><line style="stroke:#181818;stroke-width:1.0;" x1="774" x2="1267" y1="713.4902" y2="713.4902"/><text fill="#000000" font-family="sans-serif" font-size="13" font-weight="bold" lengthAdjust="spacing" textLength="14" x="781" y="708.2275">11</text><text fill="#000000" font-family="sans-serif" font-size="13" lengthAdjust="spacing" textLength="133" x="799" y="708.2275">calculateSpeedProfile()</text><path d="M638,726.4902 L638,753.4902 L899,753.4902 L899,736.4902 L889,726.4902 L638,726.4902 " fill="#FEFFDD" style="stroke:#181818;stroke-width:0.5;"/><path d="M889,726.4902 L889,736.4902 L899,736.4902 L889,726.4902 " fill="#FEFFDD" style="stroke:#181818;stroke-width:0.5;"/><text fill="#000000" font-family="sans-serif" font-size="13" lengthAdjust="spacing" textLength="240" x="644" y="745.5186">3. Calculate Travel Times (with crossings)</text><polygon fill="#181818" points="1261,778.0723,1271,782.0723,1261,786.0723,1265,782.0723" style="stroke:#181818;stroke-width:1.0;"/><line style="stroke:#181818;stroke-width:1.0;" x1="774" x2="1267" y1="782.0723" y2="782.0723"/><text fill="#000000" font-family="sans-serif" font-size="13" font-weight="bold" lengthAdjust="spacing" textLength="14" x="781" y="776.8096">12</text><text fill="#000000" font-family="sans-serif" font-size="13" lengthAdjust="spacing" textLength="213" x="799" y="776.8096">calculateTravelTimesWithCrossings()</text><path d="M632,802.0723 L632,829.0723 L906,829.0723 L906,812.0723 L896,802.0723 L632,802.0723 " fill="#FEFFDD" style="stroke:#181818;stroke-width:0.5;"/><path d="M896,802.0723 L896,812.0723 L906,812.0723 L896,802.0723 " fill="#FEFFDD" style="stroke:#181818;stroke-width:0.5;"/><text fill="#000000" font-family="sans-serif" font-size="13" lengthAdjust="spacing" textLength="253" x="638" y="821.1006">4. Detect &amp; Resolve Conflicts (Single Track)</text><path d="M622,841.3633 L695,841.3633 L695,850.6543 L685,860.6543 L622,860.6543 L622,841.3633 " fill="#EEEEEE" style="stroke:#000000;stroke-width:1.5;"/><rect fill="none" height="383.4922" style="stroke:#000000;stroke-width:1.5;" width="1024" x="622" y="841.3633"/><text fill="#000000" font-family="sans-serif" font-size="13" font-weight="bold" lengthAdjust="spacing" textLength="28" x="637" y="856.3916">loop</text><text fill="#000000" font-family="sans-serif" font-size="11" font-weight="bold" lengthAdjust="spacing" textLength="155" x="710" y="855.2334">[For each pair (TripA, TripB)]</text><polygon fill="#181818" points="1261,879.9453,1271,883.9453,1261,887.9453,1265,883.9453" style="stroke:#181818;stroke-width:1.0;"/><line style="stroke:#181818;stroke-width:1.0;" x1="774" x2="1267" y1="883.9453" y2="883.9453"/><text fill="#000000" font-family="sans-serif" font-size="13" font-weight="bold" lengthAdjust="spacing" textLength="14" x="781" y="878.6826">13</text><text fill="#000000" font-family="sans-serif" font-size="13" lengthAdjust="spacing" textLength="119" x="799" y="878.6826">getSegmentEntries()</text><polygon fill="#181818" points="1319,911.2363,1329,915.2363,1319,919.2363,1323,915.2363" style="stroke:#181818;stroke-width:1.0;"/><line style="stroke:#181818;stroke-width:1.0;" x1="774" x2="1325" y1="915.2363" y2="915.2363"/><text fill="#000000" font-family="sans-serif" font-size="13" font-weight="bold" lengthAdjust="spacing" textLength="14" x="781" y="909.9736">14</text><text fill="#000000" font-family="sans-serif" font-size="13" lengthAdjust="spacing" textLength="119" x="799" y="909.9736">getSegmentEntries()</text><path d="M632,930.2363 L693,930.2363 L693,939.5273 L683,949.5273 L632,949.5273 L632,930.2363 " fill="#EEEEEE" style="stroke:#000000;stroke-width:1.5;"/><rect fill="none" height="287.6191" style="stroke:#000000;stroke-width:1.5;" width="1004" x="632" y="930.2363"/><text fill="#000000" font-family="sans-serif" font-size="13" font-weight="bold" lengthAdjust="spacing" textLength="16" x="647" y="945.2646">alt</text><text fill="#000000" font-family="sans-serif" font-size="11" font-weight="bold" lengthAdjust="spacing" textLength="328" x="708" y="944.1064">[Conflict detected (ExitTimeA &gt; EntryTimeB on single track)]</text><path d="M677,954.5273 L677,981.5273 L861,981.5273 L861,964.5273 L851,954.5273 L677,954.5273 " fill="#FEFFDD" style="stroke:#181818;stroke-width:0.5;"/><path d="M851,954.5273 L851,964.5273 L861,964.5273 L851,954.5273 " fill="#FEFFDD" style="stroke:#181818;stroke-width:0.5;"/><text fill="#000000" font-family="sans-serif" font-size="13" lengthAdjust="spacing" textLength="163" x="683" y="973.5557">5. Determine Crossing Point</text><polygon fill="#181818" points="1319,1006.1094,1329,1010.1094,1319,1014.1094,1323,1010.1094" style="stroke:#181818;stroke-width:1.0;"/><line style="stroke:#181818;stroke-width:1.0;" x1="774" x2="1325" y1="1010.1094" y2="1010.1094"/><text fill="#000000" font-family="sans-serif" font-size="13" font-weight="bold" lengthAdjust="spacing" textLength="14" x="781" y="1004.8467">15</text><text fill="#000000" font-family="sans-serif" font-size="13" lengthAdjust="spacing" textLength="257" x="799" y="1004.8467">findNearestSidingOrStation(conflictSegment)</text><path d="M674,1023.1094 L674,1050.1094 L863,1050.1094 L863,1033.1094 L853,1023.1094 L674,1023.1094 " fill="#FEFFDD" style="stroke:#181818;stroke-width:0.5;"/><path d="M853,1023.1094 L853,1033.1094 L863,1033.1094 L853,1023.1094 " fill="#FEFFDD" style="stroke:#181818;stroke-width:0.5;"/><text fill="#000000" font-family="sans-serif" font-size="13" lengthAdjust="spacing" textLength="168" x="680" y="1042.1377">6. Create Crossing Operation</text><polygon fill="#181818" points="1419.5,1074.6914,1429.5,1078.6914,1419.5,1082.6914,1423.5,1078.6914" style="stroke:#181818;stroke-width:1.0;"/><line style="stroke:#181818;stroke-width:1.0;" x1="774" x2="1425.5" y1="1078.6914" y2="1078.6914"/><text fill="#000000" font-family="sans-serif" font-size="13" font-weight="bold" lengthAdjust="spacing" textLength="14" x="781" y="1073.4287">16</text><text fill="#000000" font-family="sans-serif" font-size="13" lengthAdjust="spacing" textLength="219" x="799" y="1073.4287">new(delayMinutes, safeWaitFacilityId)</text><polygon fill="#181818" points="1555,1105.9824,1565,1109.9824,1555,1113.9824,1559,1109.9824" style="stroke:#181818;stroke-width:1.0;"/><line style="stroke:#181818;stroke-width:1.0;" x1="774" x2="1561" y1="1109.9824" y2="1109.9824"/><text fill="#000000" font-family="sans-serif" font-size="13" font-weight="bold" lengthAdjust="spacing" textLength="14" x="781" y="1104.7197">17</text><text fill="#000000" font-family="sans-serif" font-size="13" lengthAdjust="spacing" textLength="170" x="799" y="1104.7197">addCrossingOperation(Cross)</text><path d="M642,1122.9824 L642,1149.9824 L895,1149.9824 L895,1132.9824 L885,1122.9824 L642,1122.9824 " fill="#FEFFDD" style="stroke:#181818;stroke-width:0.5;"/><path d="M885,1122.9824 L885,1132.9824 L895,1132.9824 L885,1122.9824 " fill="#FEFFDD" style="stroke:#181818;stroke-width:0.5;"/><text fill="#000000" font-family="sans-serif" font-size="13" lengthAdjust="spacing" textLength="232" x="648" y="1142.0107">7. Recalculate Delayed Trip (Cascading)</text><polygon fill="#181818" points="1319,1174.5645,1329,1178.5645,1319,1182.5645,1323,1178.5645" style="stroke:#181818;stroke-width:1.0;"/><line style="stroke:#181818;stroke-width:1.0;" x1="774" x2="1325" y1="1178.5645" y2="1178.5645"/><text fill="#000000" font-family="sans-serif" font-size="13" font-weight="bold" lengthAdjust="spacing" textLength="14" x="781" y="1173.3018">18</text><text fill="#000000" font-family="sans-serif" font-size="13" lengthAdjust="spacing" textLength="217" x="799" y="1173.3018">setDepartureTime(newDepartureTime)</text><polygon fill="#181818" points="1319,1205.8555,1329,1209.8555,1319,1213.8555,1323,1209.8555" style="stroke:#181818;stroke-width:1.0;"/><line style="stroke:#181818;stroke-width:1.0;" x1="774" x2="1325" y1="1209.8555" y2="1209.8555"/><text fill="#000000" font-family="sans-serif" font-size="13" font-weight="bold" lengthAdjust="spacing" textLength="14" x="781" y="1204.5928">19</text><text fill="#000000" font-family="sans-serif" font-size="13" lengthAdjust="spacing" textLength="213" x="799" y="1204.5928">calculateTravelTimesWithCrossings()</text><path d="M650,1236.8555 L650,1263.8555 L888,1263.8555 L888,1246.8555 L878,1236.8555 L650,1236.8555 " fill="#FEFFDD" style="stroke:#181818;stroke-width:0.5;"/><path d="M878,1236.8555 L878,1246.8555 L888,1246.8555 L878,1236.8555 " fill="#FEFFDD" style="stroke:#181818;stroke-width:0.5;"/><text fill="#000000" font-family="sans-serif" font-size="13" lengthAdjust="spacing" textLength="217" x="656" y="1255.8838">8. Compile &amp; Persist Final Schedules</text><polygon fill="#181818" points="1555,1288.4375,1565,1292.4375,1555,1296.4375,1559,1292.4375" style="stroke:#181818;stroke-width:1.0;"/><line style="stroke:#181818;stroke-width:1.0;" x1="774" x2="1561" y1="1292.4375" y2="1292.4375"/><text fill="#000000" font-family="sans-serif" font-size="13" font-weight="bold" lengthAdjust="spacing" textLength="14" x="781" y="1287.1748">20</text><text fill="#000000" font-family="sans-serif" font-size="13" lengthAdjust="spacing" textLength="142" x="799" y="1287.1748">compileFinalSchedules()</text><polygon fill="#181818" points="1160,1319.7285,1170,1323.7285,1160,1327.7285,1164,1323.7285" style="stroke:#181818;stroke-width:1.0;"/><line style="stroke:#181818;stroke-width:1.0;" x1="774" x2="1166" y1="1323.7285" y2="1323.7285"/><text fill="#000000" font-family="sans-serif" font-size="13" font-weight="bold" lengthAdjust="spacing" textLength="14" x="781" y="1318.4658">21</text><text fill="#000000" font-family="sans-serif" font-size="13" lengthAdjust="spacing" textLength="118" x="799" y="1318.4658">saveSchedules(Res)</text><polygon fill="#181818" points="785,1351.0195,775,1355.0195,785,1359.0195,781,1355.0195" style="stroke:#181818;stroke-width:1.0;"/><line style="stroke:#181818;stroke-width:1.0;stroke-dasharray:2.0,2.0;" x1="779" x2="1171" y1="1355.0195" y2="1355.0195"/><text fill="#000000" font-family="sans-serif" font-size="13" font-weight="bold" lengthAdjust="spacing" textLength="14" x="791" y="1349.7568">22</text><text fill="#000000" font-family="sans-serif" font-size="13" lengthAdjust="spacing" textLength="70" x="809" y="1349.7568">confirmation</text><polygon fill="#181818" points="567,1382.3105,557,1386.3105,567,1390.3105,563,1386.3105" style="stroke:#181818;stroke-width:1.0;"/><line style="stroke:#181818;stroke-width:1.0;stroke-dasharray:2.0,2.0;" x1="561" x2="768" y1="1386.3105" y2="1386.3105"/><text fill="#000000" font-family="sans-serif" font-size="13" font-weight="bold" lengthAdjust="spacing" textLength="14" x="573" y="1381.0479">23</text><text fill="#000000" font-family="sans-serif" font-size="13" lengthAdjust="spacing" textLength="132" x="591" y="1381.0479">return SchedulerResult</text><polygon fill="#181818" points="298,1413.6016,288,1417.6016,298,1421.6016,294,1417.6016" style="stroke:#181818;stroke-width:1.0;"/><line style="stroke:#181818;stroke-width:1.0;stroke-dasharray:2.0,2.0;" x1="292" x2="550" y1="1417.6016" y2="1417.6016"/><text fill="#000000" font-family="sans-serif" font-size="13" font-weight="bold" lengthAdjust="spacing" textLength="14" x="304" y="1412.3389">24</text><text fill="#000000" font-family="sans-serif" font-size="13" lengthAdjust="spacing" textLength="132" x="322" y="1412.3389">return SchedulerResult</text><polygon fill="#181818" points="69,1444.8926,59,1448.8926,69,1452.8926,65,1448.8926" style="stroke:#181818;stroke-width:1.0;"/><line style="stroke:#181818;stroke-width:1.0;stroke-dasharray:2.0,2.0;" x1="63" x2="281" y1="1448.8926" y2="1448.8926"/><text fill="#000000" font-family="sans-serif" font-size="13" font-weight="bold" lengthAdjust="spacing" textLength="14" x="75" y="1443.6299">25</text><text fill="#000000" font-family="sans-serif" font-size="13" lengthAdjust="spacing" textLength="177" x="93" y="1443.6299">display schedules &amp; crossings</text><!--SRC=[dLRRRkCs47ttLmpoKCZ0Re3UYw0EO3kRma0kRcLZ7nTSQMmJaKY1f9twxtj8Ix8aoubJFKdKpE5SpbpiYrI5C2AdGYGlOisnssTCXXCdr3hZWQq5x4Qa-bMgDQr4Pdam45kdrJR_pWRlYTE6hXP6h5OoeKUXW6MkIDZgVG0K9nDP2ENewWQIKiKotsR2IQsMio2xd7N4xgGjX4isR68sEvbm43kUTiHZdANRh2rT7tQ4nx1_BjncAhB4cw4FzbP77UdvmxVuxuTlVmd7hs9_C6FIbbaOMOp3d_1s-dDI_-neJess5g5zBjY4U0J1SDeMh7tvX-qsSq4ChuF1Q4InWoIDqvrG2QTra7p6HgEG8hc3zJx8X6Svey-tLNReXZ8jqf2L1sbTD0mojKwLH7zOgK0R63SWYziQHLxjpm3W7RmDeYcV83JkFgOHA6dv4H3iL-aspuMFX8qSuEmdodNA7QiQFA3oQM3YXZfSZGkg09tYjh2FhAd_-KTf_DCx83QnVxocM2FutdDBt_SqpuHIdDwnpzxMy4Bct0OIcGjNquZ6oyNputWncxO4pj_cYPk39adWAbNyHR1E08vgY4R5R40afGxx8ESYyxyYR_tm1AAEI5qONOaQr-Tq0lGrkoTshzgyt0adebDCI7rk6rIIoF8wP-Ki_G0JqPAaas3t-GixEIvHQkzIj3MtET5lqBBNAKP_gvBpE7vQZXykp0n8lXNP8Iqhe_DMtPpDInDXQtbkEEML17tEP8LLskPIfdL1zsZ0y6j3TGrUQFHFrpM540ysAsroNo78GLmmOZWtUYKn2zvq8hIy9hE26Gsu7Xgy3H0kB- -6yeNU_Dpq1ZRiE2DVVPQYLpGLIifMQuSVzmTO0Sftfwfbs-YTvFIR-SirtR73c4MKqS1rjcEQQhNAP0BsHx7qqzVRdxmCtqfs8QIXm97nfyDakT0lr6XyABOl2fsGxINvcPnHF6qQw6wLEoWtxoY857tvLpeVmJ7TajVU-uy9QHJ-mM5tS9Xwdluu_dg8eybHBrJbXEPQAjUBqkiIYYrzOc7OkbYcVWuR35FVKAEaTA9qkSVLyxRz1YeQzZoi3Qi7_Fl61HsWA7wDKix4_b6ghMDCB2jM_5L8Tu_-c4ctdwN3z-50Ce29D3tPDQ9myY7FVhy6NbqPo03CGtvzF2cQ2fi87yNXvHcmx5gpCeBNhOCFO7sqOgkg_HzL_0SohFC23GfbZ5vdiGFHlLIO0PLOUthrf2Gv00IjMgbZOaijZ5WBruxIG6ehb0EsQQjdiZJvWNtdqBjRMJbGEslde6UGzknBpLsiiops0JR06ejTlI-sbbM_p85pPAiG-8MXok-WWOHbzpy0]--></g></svg>