<svg xmlns="http://www.w3.org/2000/svg" xmlns:xlink="http://www.w3.org/1999/xlink" contentStyleType="text/css" data-diagram-type="SEQUENCE" height="831px" preserveAspectRatio="none" style="width:1006px;height:831px;background:#FFFFFF;" version="1.1" viewBox="0 0 1006 831" width="1006px" zoomAndPan="magnify"><title>USEI11 - Directed Line Upgrade Plan</title><defs/><g><text fill="#000000" font-family="sans-serif" font-size="14" font-weight="bold" lengthAdjust="spacing" textLength="264.2158" x="372.2378" y="28.5352">USEI11 - Directed Line Upgrade Plan</text><g><title>Planner</title><rect fill="#FFFFFF" height="611.8555" style="stroke:#181818;stroke-width:1;" width="10" x="43.2109" y="128.9766"/></g><g><title>UI . UpgradePlanningUI</title><rect fill="#FFFFFF" height="590.5449" style="stroke:#181818;stroke-width:1;" width="10" x="263.3633" y="150.2871"/></g><g><title>ctrl . UpgradeController</title><rect fill="#FFFFFF" height="389.7266" style="stroke:#181818;stroke-width:1;" width="10" x="446.0493" y="179.5977"/></g><g><title>graph . RailwayGraph</title><rect fill="#FFFFFF" height="339.1055" style="stroke:#181818;stroke-width:1;" width="10" x="622.8052" y="208.9082"/></g><g><title>result . AnalysisResult</title><rect fill="#FFFFFF" height="31.4883" style="stroke:#181818;stroke-width:1;" width="10" x="902.9678" y="314.8398"/></g><g><title>result . AnalysisResult</title><rect fill="#FFFFFF" height="31.4883" style="stroke:#181818;stroke-width:1;" width="10" x="902.9678" y="472.2148"/></g><g><title>result . AnalysisResult</title><rect fill="#FFFFFF" height="29.3105" style="stroke:#181818;stroke-width:1;" width="10" x="902.9678" y="598.6348"/></g><rect fill="none" height="317.1055" style="stroke:#000000;stroke-width:1.5;" width="646.1147" x="353.5767" y="223.9082"/><rect fill="none" height="90.8867" style="stroke:#000000;stroke-width:1.5;" width="353.5767" x="10" y="642.9453"/><g><title>Planner</title><rect fill="#000000" fill-opacity="0.00000" height="631.8555" width="8" x="44.2109" y="118.9766"/><line style="stroke:#181818;stroke-width:0.5;stroke-dasharray:5,5;" x1="48" x2="48" y1="118.9766" y2="750.832"/></g><g><title>UI . UpgradePlanningUI</title><rect fill="#000000" fill-opacity="0.00000" height="631.8555" width="8" x="264.3633" y="118.9766"/><line style="stroke:#181818;stroke-width:0.5;stroke-dasharray:5,5;" x1="268.1499" x2="268.1499" y1="118.9766" y2="750.832"/></g><g><title>ctrl . UpgradeController</title><rect fill="#000000" fill-opacity="0.00000" height="631.8555" width="8" x="447.0493" y="118.9766"/><line style="stroke:#181818;stroke-width:0.5;stroke-dasharray:5,5;" x1="450.5767" x2="450.5767" y1="118.9766" y2="750.832"/></g><g><title>graph . RailwayGraph</title><rect fill="#000000" fill-opacity="0.00000" height="631.8555" width="8" x="623.8052" y="118.9766"/><line style="stroke:#181818;stroke-width:0.5;stroke-dasharray:5,5;" x1="627.522" x2="627.522" y1="118.9766" y2="750.832"/></g><g><title>result . AnalysisResult</title><rect fill="#000000" fill-opacity="0.00000" height="279.1836" width="8" x="903.9678" y="471.6484"/><line style="stroke:#181818;stroke-width:0.5;stroke-dasharray:5,5;" x1="907.2441" x2="907.2441" y1="471.6484" y2="750.832"/></g><g class="participant participant-head" data-participant="PL"><text fill="#000000" font-family="sans-serif" font-size="14" lengthAdjust="spacing" textLength="50.4219" x="20" y="116.0234">Planner</text><ellipse cx="48.2109" cy="50.9883" fill="#E2E2F0" rx="8" ry="8" style="stroke:#181818;stroke-width:0.5;"/><path d="M48.2109,58.9883 L48.2109,85.9883 M35.2109,66.9883 L61.2109,66.9883 M48.2109,85.9883 L35.2109,100.9883 M48.2109,85.9883 L61.2109,100.9883" fill="none" style="stroke:#181818;stroke-width:0.5;"/></g><g class="participant participant-tail" data-participant="PL"><text fill="#000000" font-family="sans-serif" font-size="14" lengthAdjust="spacing" textLength="50.4219" x="20" y="763.3672">Planner</text><ellipse cx="48.2109" cy="774.8203" fill="#E2E2F0" rx="8" ry="8" style="stroke:#181818;stroke-width:0.5;"/><path d="M48.2109,782.8203 L48.2109,809.8203 M35.2109,790.8203 L61.2109,790.8203 M48.2109,809.8203 L35.2109,824.8203 M48.2109,809.8203 L61.2109,824.8203" fill="none" style="stroke:#181818;stroke-width:0.5;"/></g><g class="participant participant-head" data-participant="UI"><rect fill="#E2E2F0" height="30.4883" rx="2.5" ry="2.5" style="stroke:#181818;stroke-width:0.5;" width="170.4268" x="183.1499" y="87.4883"/><text fill="#000000" font-family="sans-serif" font-size="14" lengthAdjust="spacing" textLength="156.4268" x="190.1499" y="108.0234">UI : UpgradePlanningUI</text></g><g class="participant participant-tail" data-participant="UI"><rect fill="#E2E2F0" height="30.4883" rx="2.5" ry="2.5" style="stroke:#181818;stroke-width:0.5;" width="170.4268" x="183.1499" y="749.832"/><text fill="#000000" font-family="sans-serif" font-size="14" lengthAdjust="spacing" textLength="156.4268" x="190.1499" y="770.3672">UI : UpgradePlanningUI</text></g><g class="participant participant-head" data-participant="CTRL"><rect fill="#E2E2F0" height="30.4883" rx="2.5" ry="2.5" style="stroke:#181818;stroke-width:0.5;" width="174.9453" x="363.5767" y="87.4883"/><text fill="#000000" font-family="sans-serif" font-size="14" lengthAdjust="spacing" textLength="160.9453" x="370.5767" y="108.0234">ctrl : UpgradeController</text></g><g class="participant participant-tail" data-participant="CTRL"><rect fill="#E2E2F0" height="30.4883" rx="2.5" ry="2.5" style="stroke:#181818;stroke-width:0.5;" width="174.9453" x="363.5767" y="749.832"/><text fill="#000000" font-family="sans-serif" font-size="14" lengthAdjust="spacing" textLength="160.9453" x="370.5767" y="770.3672">ctrl : UpgradeController</text></g><g class="participant participant-head" data-participant="GRAPH"><rect fill="#E2E2F0" height="30.4883" rx="2.5" ry="2.5" style="stroke:#181818;stroke-width:0.5;" width="158.5664" x="548.522" y="87.4883"/><text fill="#000000" font-family="sans-serif" font-size="14" lengthAdjust="spacing" textLength="144.5664" x="555.522" y="108.0234">graph : RailwayGraph</text></g><g class="participant participant-tail" data-participant="GRAPH"><rect fill="#E2E2F0" height="30.4883" rx="2.5" ry="2.5" style="stroke:#181818;stroke-width:0.5;" width="158.5664" x="548.522" y="749.832"/><text fill="#000000" font-family="sans-serif" font-size="14" lengthAdjust="spacing" textLength="144.5664" x="555.522" y="770.3672">graph : RailwayGraph</text></g><g class="participant participant-tail" data-participant="RESULT"><rect fill="#E2E2F0" height="30.4883" rx="2.5" ry="2.5" style="stroke:#181818;stroke-width:0.5;" width="163.4473" x="826.2441" y="749.832"/><text fill="#000000" font-family="sans-serif" font-size="14" lengthAdjust="spacing" textLength="149.4473" x="833.2441" y="770.3672">result : AnalysisResult</text></g><g><title>Planner</title><rect fill="#FFFFFF" height="611.8555" style="stroke:#181818;stroke-width:1;" width="10" x="43.2109" y="128.9766"/></g><g><title>UI . UpgradePlanningUI</title><rect fill="#FFFFFF" height="590.5449" style="stroke:#181818;stroke-width:1;" width="10" x="263.3633" y="150.2871"/></g><g><title>ctrl . UpgradeController</title><rect fill="#FFFFFF" height="389.7266" style="stroke:#181818;stroke-width:1;" width="10" x="446.0493" y="179.5977"/></g><g><title>graph . RailwayGraph</title><rect fill="#FFFFFF" height="339.1055" style="stroke:#181818;stroke-width:1;" width="10" x="622.8052" y="208.9082"/></g><g><title>result . AnalysisResult</title><rect fill="#FFFFFF" height="31.4883" style="stroke:#181818;stroke-width:1;" width="10" x="902.9678" y="314.8398"/></g><g><title>result . AnalysisResult</title><rect fill="#FFFFFF" height="31.4883" style="stroke:#181818;stroke-width:1;" width="10" x="902.9678" y="472.2148"/></g><g><title>result . AnalysisResult</title><rect fill="#FFFFFF" height="29.3105" style="stroke:#181818;stroke-width:1;" width="10" x="902.9678" y="598.6348"/></g><g class="message" data-participant-1="PL" data-participant-2="UI"><polygon fill="#181818" points="251.3633,146.2871,261.3633,150.2871,251.3633,154.2871,255.3633,150.2871" style="stroke:#181818;stroke-width:1;"/><line style="stroke:#181818;stroke-width:1;" x1="53.2109" x2="257.3633" y1="150.2871" y2="150.2871"/><text fill="#000000" font-family="sans-serif" font-size="13" font-weight="bold" lengthAdjust="spacing" textLength="8.5757" x="60.2109" y="145.5449">1</text><text fill="#000000" font-family="sans-serif" font-size="13" lengthAdjust="spacing" textLength="119.647" x="72.7866" y="145.5449">clicksRunAnalysis()</text></g><g class="message" data-participant-1="UI" data-participant-2="CTRL"><polygon fill="#181818" points="434.0493,175.5977,444.0493,179.5977,434.0493,183.5977,438.0493,179.5977" style="stroke:#181818;stroke-width:1;"/><line style="stroke:#181818;stroke-width:1;" x1="273.3633" x2="440.0493" y1="179.5977" y2="179.5977"/><text fill="#000000" font-family="sans-serif" font-size="13" font-weight="bold" lengthAdjust="spacing" textLength="8.5757" x="280.3633" y="174.8555">2</text><text fill="#000000" font-family="sans-serif" font-size="13" lengthAdjust="spacing" textLength="118.0474" x="292.939" y="174.8555">getUpgradeOrder()</text></g><g class="message" data-participant-1="CTRL" data-participant-2="GRAPH"><polygon fill="#181818" points="610.8052,204.9082,620.8052,208.9082,610.8052,212.9082,614.8052,208.9082" style="stroke:#181818;stroke-width:1;"/><line style="stroke:#181818;stroke-width:1;" x1="456.0493" x2="616.8052" y1="208.9082" y2="208.9082"/><text fill="#000000" font-family="sans-serif" font-size="13" font-weight="bold" lengthAdjust="spacing" textLength="8.5757" x="463.0493" y="204.166">3</text><text fill="#000000" font-family="sans-serif" font-size="13" lengthAdjust="spacing" textLength="103.8413" x="475.625" y="204.166">topologicalSort()</text></g><path d="M353.5767,223.9082 L415.7153,223.9082 L415.7153,231.2188 L405.7153,241.2188 L353.5767,241.2188 L353.5767,223.9082" fill="#EEEEEE" style="stroke:#000000;stroke-width:1.5;"/><rect fill="none" height="317.1055" style="stroke:#000000;stroke-width:1.5;" width="646.1147" x="353.5767" y="223.9082"/><text fill="#000000" font-family="sans-serif" font-size="13" font-weight="bold" lengthAdjust="spacing" textLength="17.1387" x="368.5767" y="237.4766">alt</text><text fill="#000000" font-family="sans-serif" font-size="11" font-weight="bold" lengthAdjust="spacing" textLength="117.3477" x="430.7153" y="236.543">[No Cycles Detected]</text><g class="message" data-participant-1="GRAPH" data-participant-2="GRAPH"><line style="stroke:#181818;stroke-width:1;" x1="632.8052" x2="674.8052" y1="262.5293" y2="262.5293"/><line style="stroke:#181818;stroke-width:1;" x1="674.8052" x2="674.8052" y1="262.5293" y2="275.5293"/><line style="stroke:#181818;stroke-width:1;" x1="633.8052" x2="674.8052" y1="275.5293" y2="275.5293"/><polygon fill="#181818" points="643.8052,271.5293,633.8052,275.5293,643.8052,279.5293,639.8052,275.5293" style="stroke:#181818;stroke-width:1;"/><text fill="#000000" font-family="sans-serif" font-size="13" font-weight="bold" lengthAdjust="spacing" textLength="8.5757" x="639.8052" y="257.7871">4</text><text fill="#000000" font-family="sans-serif" font-size="13" lengthAdjust="spacing" textLength="151.8613" x="652.3809" y="257.7871">processKahnAlgorithm()</text></g><g class="message" data-participant-1="GRAPH" data-participant-2="RESULT"><polygon fill="#181818" points="814.2441,300.8398,824.2441,304.8398,814.2441,308.8398,818.2441,304.8398" style="stroke:#181818;stroke-width:1;"/><line style="stroke:#181818;stroke-width:1;" x1="632.8052" x2="820.2441" y1="304.8398" y2="304.8398"/><text fill="#000000" font-family="sans-serif" font-size="13" font-weight="bold" lengthAdjust="spacing" textLength="8.5757" x="639.8052" y="300.0977">5</text><text fill="#000000" font-family="sans-serif" font-size="13" lengthAdjust="spacing" textLength="156.8633" x="652.3809" y="300.0977">create(scheduleList, null)</text></g><rect fill="#E2E2F0" height="30.4883" rx="2.5" ry="2.5" style="stroke:#181818;stroke-width:0.5;" width="163.4473" x="826.2441" y="283.5293"/><text fill="#000000" font-family="sans-serif" font-size="14" lengthAdjust="spacing" textLength="149.4473" x="833.2441" y="304.0645">result : AnalysisResult</text><g class="message" data-participant-1="RESULT" data-participant-2="GRAPH"><polygon fill="#181818" points="643.8052,342.3281,633.8052,346.3281,643.8052,350.3281,639.8052,346.3281" style="stroke:#181818;stroke-width:1;"/><line style="stroke:#181818;stroke-width:1;stroke-dasharray:2,2;" x1="637.8052" x2="906.9678" y1="346.3281" y2="346.3281"/><text fill="#000000" font-family="sans-serif" font-size="13" font-weight="bold" lengthAdjust="spacing" textLength="8.5757" x="649.8052" y="341.5859">6</text><text fill="#000000" font-family="sans-serif" font-size="13" lengthAdjust="spacing" textLength="76.8765" x="662.3809" y="341.5859">resultObject</text></g><g class="message" data-participant-1="GRAPH" data-participant-2="CTRL"><polygon fill="#181818" points="467.0493,371.6387,457.0493,375.6387,467.0493,379.6387,463.0493,375.6387" style="stroke:#181818;stroke-width:1;"/><line style="stroke:#181818;stroke-width:1;stroke-dasharray:2,2;" x1="461.0493" x2="621.8052" y1="375.6387" y2="375.6387"/><text fill="#000000" font-family="sans-serif" font-size="13" font-weight="bold" lengthAdjust="spacing" textLength="8.5757" x="473.0493" y="370.8965">7</text><text fill="#000000" font-family="sans-serif" font-size="13" lengthAdjust="spacing" textLength="76.8765" x="485.625" y="370.8965">resultObject</text></g><line style="stroke:#000000;stroke-width:1;stroke-dasharray:2,2;" x1="353.5767" x2="999.6914" y1="384.6387" y2="384.6387"/><text fill="#000000" font-family="sans-serif" font-size="11" font-weight="bold" lengthAdjust="spacing" textLength="98.2427" x="358.5767" y="395.2734">[Cycles Detected]</text><g class="message" data-participant-1="GRAPH" data-participant-2="GRAPH"><line style="stroke:#181818;stroke-width:1;" x1="632.8052" x2="674.8052" y1="419.9043" y2="419.9043"/><line style="stroke:#181818;stroke-width:1;" x1="674.8052" x2="674.8052" y1="419.9043" y2="432.9043"/><line style="stroke:#181818;stroke-width:1;" x1="633.8052" x2="674.8052" y1="432.9043" y2="432.9043"/><polygon fill="#181818" points="643.8052,428.9043,633.8052,432.9043,643.8052,436.9043,639.8052,432.9043" style="stroke:#181818;stroke-width:1;"/><text fill="#000000" font-family="sans-serif" font-size="13" font-weight="bold" lengthAdjust="spacing" textLength="8.5757" x="639.8052" y="415.1621">8</text><text fill="#000000" font-family="sans-serif" font-size="13" lengthAdjust="spacing" textLength="161.1035" x="652.3809" y="415.1621">detectCycleComponents()</text></g><g class="message" data-participant-1="GRAPH" data-participant-2="RESULT"><polygon fill="#181818" points="814.2441,458.2148,824.2441,462.2148,814.2441,466.2148,818.2441,462.2148" style="stroke:#181818;stroke-width:1;"/><line style="stroke:#181818;stroke-width:1;" x1="632.8052" x2="820.2441" y1="462.2148" y2="462.2148"/><text fill="#000000" font-family="sans-serif" font-size="13" font-weight="bold" lengthAdjust="spacing" textLength="8.5757" x="639.8052" y="457.4727">9</text><text fill="#000000" font-family="sans-serif" font-size="13" lengthAdjust="spacing" textLength="153.1118" x="652.3809" y="457.4727">create(null, cycleDetails)</text></g><rect fill="#E2E2F0" height="30.4883" rx="2.5" ry="2.5" style="stroke:#181818;stroke-width:0.5;" width="163.4473" x="826.2441" y="440.9043"/><text fill="#000000" font-family="sans-serif" font-size="14" lengthAdjust="spacing" textLength="149.4473" x="833.2441" y="461.4395">result : AnalysisResult</text><g class="message" data-participant-1="RESULT" data-participant-2="GRAPH"><polygon fill="#181818" points="643.8052,499.7031,633.8052,503.7031,643.8052,507.7031,639.8052,503.7031" style="stroke:#181818;stroke-width:1;"/><line style="stroke:#181818;stroke-width:1;stroke-dasharray:2,2;" x1="637.8052" x2="906.9678" y1="503.7031" y2="503.7031"/><text fill="#000000" font-family="sans-serif" font-size="13" font-weight="bold" lengthAdjust="spacing" textLength="17.1514" x="649.8052" y="498.9609">10</text><text fill="#000000" font-family="sans-serif" font-size="13" lengthAdjust="spacing" textLength="76.8765" x="670.9565" y="498.9609">resultObject</text></g><g class="message" data-participant-1="GRAPH" data-participant-2="CTRL"><polygon fill="#181818" points="467.0493,529.0137,457.0493,533.0137,467.0493,537.0137,463.0493,533.0137" style="stroke:#181818;stroke-width:1;"/><line style="stroke:#181818;stroke-width:1;stroke-dasharray:2,2;" x1="461.0493" x2="621.8052" y1="533.0137" y2="533.0137"/><text fill="#000000" font-family="sans-serif" font-size="13" font-weight="bold" lengthAdjust="spacing" textLength="17.1514" x="473.0493" y="528.2715">11</text><text fill="#000000" font-family="sans-serif" font-size="13" lengthAdjust="spacing" textLength="76.8765" x="494.2007" y="528.2715">resultObject</text></g><g class="message" data-participant-1="CTRL" data-participant-2="UI"><polygon fill="#181818" points="284.3633,565.3242,274.3633,569.3242,284.3633,573.3242,280.3633,569.3242" style="stroke:#181818;stroke-width:1;"/><line style="stroke:#181818;stroke-width:1;stroke-dasharray:2,2;" x1="278.3633" x2="450.0493" y1="569.3242" y2="569.3242"/><text fill="#000000" font-family="sans-serif" font-size="13" font-weight="bold" lengthAdjust="spacing" textLength="17.1514" x="290.3633" y="564.582">12</text><text fill="#000000" font-family="sans-serif" font-size="13" lengthAdjust="spacing" textLength="76.8765" x="311.5146" y="564.582">resultObject</text></g><g class="message" data-participant-1="UI" data-participant-2="RESULT"><polygon fill="#181818" points="890.9678,594.6348,900.9678,598.6348,890.9678,602.6348,894.9678,598.6348" style="stroke:#181818;stroke-width:1;"/><line style="stroke:#181818;stroke-width:1;" x1="273.3633" x2="896.9678" y1="598.6348" y2="598.6348"/><text fill="#000000" font-family="sans-serif" font-size="13" font-weight="bold" lengthAdjust="spacing" textLength="17.1514" x="280.3633" y="593.8926">13</text><text fill="#000000" font-family="sans-serif" font-size="13" lengthAdjust="spacing" textLength="70.4019" x="301.5146" y="593.8926">hasCycles()</text></g><g class="message" data-participant-1="RESULT" data-participant-2="UI"><polygon fill="#181818" points="284.3633,623.9453,274.3633,627.9453,284.3633,631.9453,280.3633,627.9453" style="stroke:#181818;stroke-width:1;"/><line style="stroke:#181818;stroke-width:1;stroke-dasharray:2,2;" x1="278.3633" x2="906.9678" y1="627.9453" y2="627.9453"/><text fill="#000000" font-family="sans-serif" font-size="13" font-weight="bold" lengthAdjust="spacing" textLength="17.1514" x="290.3633" y="623.2031">14</text><text fill="#000000" font-family="sans-serif" font-size="13" lengthAdjust="spacing" textLength="38.2256" x="311.5146" y="623.2031">status</text></g><path d="M10,642.9453 L72.1387,642.9453 L72.1387,650.2559 L62.1387,660.2559 L10,660.2559 L10,642.9453" fill="#EEEEEE" style="stroke:#000000;stroke-width:1.5;"/><rect fill="none" height="90.8867" style="stroke:#000000;stroke-width:1.5;" width="353.5767" x="10" y="642.9453"/><text fill="#000000" font-family="sans-serif" font-size="13" font-weight="bold" lengthAdjust="spacing" textLength="17.1387" x="25" y="656.5137">alt</text><text fill="#000000" font-family="sans-serif" font-size="11" font-weight="bold" lengthAdjust="spacing" textLength="95.2188" x="87.1387" y="655.5801">[status == false]</text><g class="message" data-participant-1="UI" data-participant-2="PL"><polygon fill="#181818" points="64.2109,677.5664,54.2109,681.5664,64.2109,685.5664,60.2109,681.5664" style="stroke:#181818;stroke-width:1;"/><line style="stroke:#181818;stroke-width:1;" x1="58.2109" x2="262.3633" y1="681.5664" y2="681.5664"/><text fill="#000000" font-family="sans-serif" font-size="13" font-weight="bold" lengthAdjust="spacing" textLength="17.1514" x="70.2109" y="676.8242">15</text><text fill="#000000" font-family="sans-serif" font-size="13" lengthAdjust="spacing" textLength="165.001" x="91.3623" y="676.8242">displaySchedule(schedule)</text></g><line style="stroke:#000000;stroke-width:1;stroke-dasharray:2,2;" x1="10" x2="363.5767" y1="690.5664" y2="690.5664"/><text fill="#000000" font-family="sans-serif" font-size="11" font-weight="bold" lengthAdjust="spacing" textLength="91.0776" x="15" y="701.2012">[status == true]</text><g class="message" data-participant-1="UI" data-participant-2="PL"><polygon fill="#181818" points="64.2109,721.832,54.2109,725.832,64.2109,729.832,60.2109,725.832" style="stroke:#181818;stroke-width:1;"/><line style="stroke:#181818;stroke-width:1;" x1="58.2109" x2="262.3633" y1="725.832" y2="725.832"/><text fill="#000000" font-family="sans-serif" font-size="13" font-weight="bold" lengthAdjust="spacing" textLength="17.1514" x="70.2109" y="721.0898">16</text><text fill="#000000" font-family="sans-serif" font-size="13" lengthAdjust="spacing" textLength="158.9771" x="91.3623" y="721.0898">displayCycleError(details)</text></g><!--SRC=[nPFDZjCm58NtVeghRgQLfaApHHgagbCD4H4JfTC7yDYNnk3QaNq3wlEmOCLJzCNmJzew8v0G6xfgdEyStsEVa2ADiDjkghixMCA3SYW89TJAXEL-xxX4Q3GtZ34-a3N3uGKTOpUmCQHaUElVFBryHhAUSK7MmIpI1jqCk8UcPZrtf8JgkI6OxIfuUxPDd3BxNPNGNJL51JbzXTVMaBDQZxxhv_QLSw3wBl0jL_eRFpx6nuG-jglc_PHrw0TD0LuPhezU-JOj9BpTR7VrSqmhI7tbX3733LJcz5Ce2vA7luIEdtwSlblMrB1y1ocLq4fyyUrWpgRpnTKZX6E12coSFD1xf37PavFeIZPbOuaBV1e_2CZsLjkz4bnlhQDIa1Co7Y9zjB0-2eqU7f3IJJ88lsnIkFNE2lJ-0-_CIk-jKzGTWcM2XSFeEXx4H9xNOjZ4pBteK0uQQ-Nf5ioWzI89BgCL9gDsMKoHxo7MHr1Y9BvMbljVJsyYHEtnxrBBz3QXQtlehK53_XzYnw2t8A9Fs30Kpl-Fs4QoGZYM8DVctCc9e81pnN8XB-4wxlCfbjqQvobI96DFd0RFVZDuR65-2_Vty8c7oqbXycPDZ26LxpK_RiVoN5gqo5TvLPCR_YHEaswSisukprSGJwGSANnqnLFuZ7y1]--></g></svg>