<svg xmlns="http://www.w3.org/2000/svg" xmlns:xlink="http://www.w3.org/1999/xlink" contentStyleType="text/css" data-diagram-type="CLASS" height="1054px" preserveAspectRatio="none" style="width:1135px;height:1054px;background:#FFFFFF;" version="1.1" viewBox="0 0 1135 1054" width="1135px" zoomAndPan="magnify"><defs/><g><!--class PickingPlanService--><g class="entity" data-entity="PickingPlanService" data-source-line="8" data-uid="ent0002" id="entity_PickingPlanService"><rect fill="#F1F1F1" height="56.4883" rx="2.5" ry="2.5" style="stroke:#181818;stroke-width:0.5;" width="224.6797" x="327" y="7"/><ellipse cx="373.0195" cy="23" fill="#ADD1B2" rx="11" ry="11" style="stroke:#181818;stroke-width:1;"/><path d="M375.9927,28.6431 Q375.4116,28.9419 374.7725,29.0913 Q374.1333,29.2407 373.4277,29.2407 Q370.9209,29.2407 369.6011,27.5889 Q368.2813,25.937 368.2813,22.8159 Q368.2813,19.6865 369.6011,18.0347 Q370.9209,16.3828 373.4277,16.3828 Q374.1333,16.3828 374.7808,16.5322 Q375.4282,16.6816 375.9927,16.9805 L375.9927,19.7031 Q375.3618,19.1221 374.7683,18.8523 Q374.1748,18.5825 373.5439,18.5825 Q372.1992,18.5825 371.5144,19.6492 Q370.8296,20.7158 370.8296,22.8159 Q370.8296,24.9077 371.5144,25.9744 Q372.1992,27.041 373.5439,27.041 Q374.1748,27.041 374.7683,26.7712 Q375.3618,26.5015 375.9927,25.9204 Z " fill="#000000"/><text fill="#000000" font-family="sans-serif" font-size="14" lengthAdjust="spacing" textLength="124.1406" x="393.5195" y="28.291">PickingPlanService</text><line style="stroke:#181818;stroke-width:0.5;" x1="328" x2="550.6797" y1="39" y2="39"/><text fill="#000000" font-family="sans-serif" font-size="14" lengthAdjust="spacing" textLength="212.6797" x="333" y="56.5352">-itemsMap: Map&lt;String, Item&gt;</text></g><!--class PickingPlan--><g class="entity" data-entity="PickingPlan" data-source-line="18" data-uid="ent0003" id="entity_PickingPlan"><rect fill="#F1F1F1" height="122.4414" rx="2.5" ry="2.5" style="stroke:#181818;stroke-width:0.5;" width="210.5293" x="76" y="140"/><ellipse cx="138.6104" cy="156" fill="#ADD1B2" rx="11" ry="11" style="stroke:#181818;stroke-width:1;"/><path d="M141.5835,161.6431 Q141.0024,161.9419 140.3633,162.0913 Q139.7241,162.2407 139.0186,162.2407 Q136.5117,162.2407 135.1919,160.5889 Q133.8721,158.937 133.8721,155.8159 Q133.8721,152.6865 135.1919,151.0347 Q136.5117,149.3828 139.0186,149.3828 Q139.7241,149.3828 140.3716,149.5322 Q141.019,149.6816 141.5835,149.9805 L141.5835,152.7031 Q140.9526,152.1221 140.3591,151.8523 Q139.7656,151.5825 139.1348,151.5825 Q137.79,151.5825 137.1052,152.6492 Q136.4204,153.7158 136.4204,155.8159 Q136.4204,157.9077 137.1052,158.9744 Q137.79,160.041 139.1348,160.041 Q139.7656,160.041 140.3591,159.7712 Q140.9526,159.5015 141.5835,158.9204 Z " fill="#000000"/><text fill="#000000" font-family="sans-serif" font-size="14" lengthAdjust="spacing" textLength="76.8086" x="159.1104" y="161.291">PickingPlan</text><line style="stroke:#181818;stroke-width:0.5;" x1="77" x2="285.5293" y1="172" y2="172"/><text fill="#000000" font-family="sans-serif" font-size="14" lengthAdjust="spacing" textLength="69.7881" x="82" y="189.5352">-id: String</text><text fill="#000000" font-family="sans-serif" font-size="14" lengthAdjust="spacing" textLength="198.5293" x="82" y="206.0234">-createdDate: LocalDateTime</text><text fill="#000000" font-family="sans-serif" font-size="14" lengthAdjust="spacing" textLength="159.4004" x="82" y="222.5117">-trolleys: List&lt;Trolley&gt;</text><text fill="#000000" font-family="sans-serif" font-size="14" lengthAdjust="spacing" textLength="168.4238" x="82" y="239">-heuristic: HeuristicType</text><text fill="#000000" font-family="sans-serif" font-size="14" lengthAdjust="spacing" textLength="164.2197" x="82" y="255.4883">-trolleyCapacity: double</text></g><!--class Trolley--><g class="entity" data-entity="Trolley" data-source-line="36" data-uid="ent0004" id="entity_Trolley"><rect fill="#F1F1F1" height="105.9531" rx="2.5" ry="2.5" style="stroke:#181818;stroke-width:0.5;" width="289.2998" x="7" y="477"/><ellipse cx="124.2056" cy="493" fill="#ADD1B2" rx="11" ry="11" style="stroke:#181818;stroke-width:1;"/><path d="M127.1787,498.6431 Q126.5977,498.9419 125.9585,499.0913 Q125.3193,499.2407 124.6138,499.2407 Q122.1069,499.2407 120.7871,497.5889 Q119.4673,495.937 119.4673,492.8159 Q119.4673,489.6865 120.7871,488.0347 Q122.1069,486.3828 124.6138,486.3828 Q125.3193,486.3828 125.9668,486.5322 Q126.6143,486.6816 127.1787,486.9805 L127.1787,489.7031 Q126.5479,489.1221 125.9543,488.8523 Q125.3608,488.5825 124.73,488.5825 Q123.3853,488.5825 122.7004,489.6492 Q122.0156,490.7158 122.0156,492.8159 Q122.0156,494.9077 122.7004,495.9744 Q123.3853,497.041 124.73,497.041 Q125.3608,497.041 125.9543,496.7712 Q126.5479,496.5015 127.1787,495.9204 Z " fill="#000000"/><text fill="#000000" font-family="sans-serif" font-size="14" lengthAdjust="spacing" textLength="46.3887" x="144.7056" y="498.291">Trolley</text><line style="stroke:#181818;stroke-width:0.5;" x1="8" x2="295.2998" y1="509" y2="509"/><text fill="#000000" font-family="sans-serif" font-size="14" lengthAdjust="spacing" textLength="69.7881" x="13" y="526.5352">-id: String</text><text fill="#000000" font-family="sans-serif" font-size="14" lengthAdjust="spacing" textLength="150.835" x="13" y="543.0234">-maxCapacity: double</text><text fill="#000000" font-family="sans-serif" font-size="14" lengthAdjust="spacing" textLength="159.2363" x="13" y="559.5117">-currentWeight: double</text><text fill="#000000" font-family="sans-serif" font-size="14" lengthAdjust="spacing" textLength="277.2998" x="13" y="576">-assignments: List&lt;PickingAssignment&gt;</text></g><!--class PickingAssignment--><g class="entity" data-entity="PickingAssignment" data-source-line="51" data-uid="ent0005" id="entity_PickingAssignment"><rect fill="#F1F1F1" height="188.3945" rx="2.5" ry="2.5" style="stroke:#181818;stroke-width:0.5;" width="160.7959" x="85" y="660"/><ellipse cx="100" cy="676" fill="#ADD1B2" rx="11" ry="11" style="stroke:#181818;stroke-width:1;"/><path d="M102.9731,681.6431 Q102.3921,681.9419 101.7529,682.0913 Q101.1138,682.2407 100.4082,682.2407 Q97.9014,682.2407 96.5815,680.5889 Q95.2617,678.937 95.2617,675.8159 Q95.2617,672.6865 96.5815,671.0347 Q97.9014,669.3828 100.4082,669.3828 Q101.1138,669.3828 101.7612,669.5322 Q102.4087,669.6816 102.9731,669.9805 L102.9731,672.7031 Q102.3423,672.1221 101.7488,671.8523 Q101.1553,671.5825 100.5244,671.5825 Q99.1797,671.5825 98.4949,672.6492 Q97.8101,673.7158 97.8101,675.8159 Q97.8101,677.9077 98.4949,678.9744 Q99.1797,680.041 100.5244,680.041 Q101.1553,680.041 101.7488,679.7712 Q102.3423,679.5015 102.9731,678.9204 Z " fill="#000000"/><text fill="#000000" font-family="sans-serif" font-size="14" lengthAdjust="spacing" textLength="128.7959" x="114" y="681.291">PickingAssignment</text><line style="stroke:#181818;stroke-width:0.5;" x1="86" x2="244.7959" y1="692" y2="692"/><text fill="#000000" font-family="sans-serif" font-size="14" lengthAdjust="spacing" textLength="106.4424" x="91" y="709.5352">-orderId: String</text><text fill="#000000" font-family="sans-serif" font-size="14" lengthAdjust="spacing" textLength="78.4561" x="91" y="726.0234">-lineNo: int</text><text fill="#000000" font-family="sans-serif" font-size="14" lengthAdjust="spacing" textLength="77.2529" x="91" y="742.5117">-item: Item</text><text fill="#000000" font-family="sans-serif" font-size="14" lengthAdjust="spacing" textLength="90.6855" x="91" y="759">-quantity: int</text><text fill="#000000" font-family="sans-serif" font-size="14" lengthAdjust="spacing" textLength="95.7715" x="91" y="775.4883">-boxId: String</text><text fill="#000000" font-family="sans-serif" font-size="14" lengthAdjust="spacing" textLength="87.6914" x="91" y="791.9766">-aisle: String</text><text fill="#000000" font-family="sans-serif" font-size="14" lengthAdjust="spacing" textLength="80.7871" x="91" y="808.4648">-bay: String</text><text fill="#000000" font-family="sans-serif" font-size="14" lengthAdjust="spacing" textLength="141.0459" x="91" y="824.9531">-totalWeight: double</text><text fill="#000000" font-family="sans-serif" font-size="14" lengthAdjust="spacing" textLength="148.2988" x="91" y="841.4414">-status: PickingStatus</text></g><!--class Allocation--><g class="entity" data-entity="Allocation" data-source-line="76" data-uid="ent0006" id="entity_Allocation"><rect fill="#F1F1F1" height="155.418" rx="2.5" ry="2.5" style="stroke:#181818;stroke-width:0.5;" width="121.4707" x="290" y="292"/><ellipse cx="314.74" cy="308" fill="#ADD1B2" rx="11" ry="11" style="stroke:#181818;stroke-width:1;"/><path d="M317.7132,313.6431 Q317.1321,313.9419 316.493,314.0913 Q315.8538,314.2407 315.1482,314.2407 Q312.6414,314.2407 311.3216,312.5889 Q310.0018,310.937 310.0018,307.8159 Q310.0018,304.6865 311.3216,303.0347 Q312.6414,301.3828 315.1482,301.3828 Q315.8538,301.3828 316.5013,301.5322 Q317.1487,301.6816 317.7132,301.9805 L317.7132,304.7031 Q317.0823,304.1221 316.4888,303.8523 Q315.8953,303.5825 315.2645,303.5825 Q313.9197,303.5825 313.2349,304.6492 Q312.5501,305.7158 312.5501,307.8159 Q312.5501,309.9077 313.2349,310.9744 Q313.9197,312.041 315.2645,312.041 Q315.8953,312.041 316.4888,311.7712 Q317.0823,311.5015 317.7132,310.9204 Z " fill="#000000"/><text fill="#000000" font-family="sans-serif" font-size="14" lengthAdjust="spacing" textLength="67.8262" x="330.9045" y="313.291">Allocation</text><line style="stroke:#181818;stroke-width:0.5;" x1="291" x2="410.4707" y1="324" y2="324"/><text fill="#000000" font-family="sans-serif" font-size="14" lengthAdjust="spacing" textLength="109.4707" x="296" y="341.5352">+orderId: String</text><text fill="#000000" font-family="sans-serif" font-size="14" lengthAdjust="spacing" textLength="81.4844" x="296" y="358.0234">+lineNo: int</text><text fill="#000000" font-family="sans-serif" font-size="14" lengthAdjust="spacing" textLength="83.9658" x="296" y="374.5117">+sku: String</text><text fill="#000000" font-family="sans-serif" font-size="14" lengthAdjust="spacing" textLength="59.3223" x="296" y="391">+qty: int</text><text fill="#000000" font-family="sans-serif" font-size="14" lengthAdjust="spacing" textLength="98.7998" x="296" y="407.4883">+boxId: String</text><text fill="#000000" font-family="sans-serif" font-size="14" lengthAdjust="spacing" textLength="90.7197" x="296" y="423.9766">+aisle: String</text><text fill="#000000" font-family="sans-serif" font-size="14" lengthAdjust="spacing" textLength="83.8154" x="296" y="440.4648">+bay: String</text></g><!--class Item--><g class="entity" data-entity="Item" data-source-line="86" data-uid="ent0007" id="entity_Item"><rect fill="#F1F1F1" height="122.4414" rx="2.5" ry="2.5" style="stroke:#181818;stroke-width:0.5;" width="148.8555" x="275" y="925"/><ellipse cx="330.1079" cy="941" fill="#ADD1B2" rx="11" ry="11" style="stroke:#181818;stroke-width:1;"/><path d="M333.0811,946.6431 Q332.5,946.9419 331.8608,947.0913 Q331.2217,947.2407 330.5161,947.2407 Q328.0093,947.2407 326.6895,945.5889 Q325.3696,943.937 325.3696,940.8159 Q325.3696,937.6865 326.6895,936.0347 Q328.0093,934.3828 330.5161,934.3828 Q331.2217,934.3828 331.8691,934.5322 Q332.5166,934.6816 333.0811,934.9805 L333.0811,937.7031 Q332.4502,937.1221 331.8567,936.8523 Q331.2632,936.5825 330.6323,936.5825 Q329.2876,936.5825 328.6028,937.6492 Q327.918,938.7158 327.918,940.8159 Q327.918,942.9077 328.6028,943.9744 Q329.2876,945.041 330.6323,945.041 Q331.2632,945.041 331.8567,944.7712 Q332.4502,944.5015 333.0811,943.9204 Z " fill="#000000"/><text fill="#000000" font-family="sans-serif" font-size="14" lengthAdjust="spacing" textLength="30.1396" x="350.6079" y="946.291">Item</text><line style="stroke:#181818;stroke-width:0.5;" x1="276" x2="422.8555" y1="957" y2="957"/><text fill="#000000" font-family="sans-serif" font-size="14" lengthAdjust="spacing" textLength="80.9375" x="281" y="974.5352">-sku: String</text><text fill="#000000" font-family="sans-serif" font-size="14" lengthAdjust="spacing" textLength="94.2197" x="281" y="991.0234">-name: String</text><text fill="#000000" font-family="sans-serif" font-size="14" lengthAdjust="spacing" textLength="115.2402" x="281" y="1007.5117">-category: String</text><text fill="#000000" font-family="sans-serif" font-size="14" lengthAdjust="spacing" textLength="83.5898" x="281" y="1024">-unit: String</text><text fill="#000000" font-family="sans-serif" font-size="14" lengthAdjust="spacing" textLength="136.8555" x="281" y="1040.4883">-unitWeight: double</text></g><!--class PackingHeuristic--><g class="entity" data-entity="PackingHeuristic" data-source-line="100" data-uid="ent0008" id="entity_PackingHeuristic"><rect fill="#F1F1F1" height="40" rx="2.5" ry="2.5" style="stroke:#181818;stroke-width:0.5;" width="144.4307" x="620.5" y="510"/><ellipse cx="635.5" cy="526" fill="#B4A7E5" rx="11" ry="11" style="stroke:#181818;stroke-width:1;"/><path d="M631.4277,521.7651 L631.4277,519.6069 L638.8071,519.6069 L638.8071,521.7651 L636.3418,521.7651 L636.3418,529.8418 L638.8071,529.8418 L638.8071,532 L631.4277,532 L631.4277,529.8418 L633.8931,529.8418 L633.8931,521.7651 Z " fill="#000000"/><text fill="#000000" font-family="sans-serif" font-size="14" font-style="italic" lengthAdjust="spacing" textLength="112.4307" x="649.5" y="531.291">PackingHeuristic</text><line style="stroke:#181818;stroke-width:0.5;" x1="621.5" x2="763.9307" y1="542" y2="542"/></g><!--class FirstFitHeuristic--><g class="entity" data-entity="FirstFitHeuristic" data-source-line="104" data-uid="ent0009" id="entity_FirstFitHeuristic"><rect fill="#F1F1F1" height="40" rx="2.5" ry="2.5" style="stroke:#181818;stroke-width:0.5;" width="138.5859" x="493" y="734"/><ellipse cx="508" cy="750" fill="#ADD1B2" rx="11" ry="11" style="stroke:#181818;stroke-width:1;"/><path d="M510.9731,755.6431 Q510.3921,755.9419 509.7529,756.0913 Q509.1138,756.2407 508.4082,756.2407 Q505.9014,756.2407 504.5815,754.5889 Q503.2617,752.937 503.2617,749.8159 Q503.2617,746.6865 504.5815,745.0347 Q505.9014,743.3828 508.4082,743.3828 Q509.1138,743.3828 509.7612,743.5322 Q510.4087,743.6816 510.9731,743.9805 L510.9731,746.7031 Q510.3423,746.1221 509.7488,745.8523 Q509.1553,745.5825 508.5244,745.5825 Q507.1797,745.5825 506.4949,746.6492 Q505.8101,747.7158 505.8101,749.8159 Q505.8101,751.9077 506.4949,752.9744 Q507.1797,754.041 508.5244,754.041 Q509.1553,754.041 509.7488,753.7712 Q510.3423,753.5015 510.9731,752.9204 Z " fill="#000000"/><text fill="#000000" font-family="sans-serif" font-size="14" lengthAdjust="spacing" textLength="106.5859" x="522" y="755.291">FirstFitHeuristic</text><line style="stroke:#181818;stroke-width:0.5;" x1="494" x2="630.5859" y1="766" y2="766"/></g><!--class FirstFitDecreasingHeuristic--><g class="entity" data-entity="FirstFitDecreasingHeuristic" data-source-line="108" data-uid="ent0010" id="entity_FirstFitDecreasingHeuristic"><rect fill="#F1F1F1" height="40" rx="2.5" ry="2.5" style="stroke:#181818;stroke-width:0.5;" width="213.9043" x="667.5" y="734"/><ellipse cx="682.5" cy="750" fill="#ADD1B2" rx="11" ry="11" style="stroke:#181818;stroke-width:1;"/><path d="M685.4731,755.6431 Q684.8921,755.9419 684.2529,756.0913 Q683.6138,756.2407 682.9082,756.2407 Q680.4014,756.2407 679.0815,754.5889 Q677.7617,752.937 677.7617,749.8159 Q677.7617,746.6865 679.0815,745.0347 Q680.4014,743.3828 682.9082,743.3828 Q683.6138,743.3828 684.2612,743.5322 Q684.9087,743.6816 685.4731,743.9805 L685.4731,746.7031 Q684.8423,746.1221 684.2488,745.8523 Q683.6553,745.5825 683.0244,745.5825 Q681.6797,745.5825 680.9949,746.6492 Q680.3101,747.7158 680.3101,749.8159 Q680.3101,751.9077 680.9949,752.9744 Q681.6797,754.041 683.0244,754.041 Q683.6553,754.041 684.2488,753.7712 Q684.8423,753.5015 685.4731,752.9204 Z " fill="#000000"/><text fill="#000000" font-family="sans-serif" font-size="14" lengthAdjust="spacing" textLength="181.9043" x="696.5" y="755.291">FirstFitDecreasingHeuristic</text><line style="stroke:#181818;stroke-width:0.5;" x1="668.5" x2="880.4043" y1="766" y2="766"/></g><!--class BestFitDecreasingHeuristic--><g class="entity" data-entity="BestFitDecreasingHeuristic" data-source-line="112" data-uid="ent0011" id="entity_BestFitDecreasingHeuristic"><rect fill="#F1F1F1" height="40" rx="2.5" ry="2.5" style="stroke:#181818;stroke-width:0.5;" width="212.4756" x="916.5" y="734"/><ellipse cx="931.5" cy="750" fill="#ADD1B2" rx="11" ry="11" style="stroke:#181818;stroke-width:1;"/><path d="M934.4731,755.6431 Q933.8921,755.9419 933.2529,756.0913 Q932.6138,756.2407 931.9082,756.2407 Q929.4014,756.2407 928.0815,754.5889 Q926.7617,752.937 926.7617,749.8159 Q926.7617,746.6865 928.0815,745.0347 Q929.4014,743.3828 931.9082,743.3828 Q932.6138,743.3828 933.2612,743.5322 Q933.9087,743.6816 934.4731,743.9805 L934.4731,746.7031 Q933.8423,746.1221 933.2488,745.8523 Q932.6553,745.5825 932.0244,745.5825 Q930.6797,745.5825 929.9949,746.6492 Q929.3101,747.7158 929.3101,749.8159 Q929.3101,751.9077 929.9949,752.9744 Q930.6797,754.041 932.0244,754.041 Q932.6553,754.041 933.2488,753.7712 Q933.8423,753.5015 934.4731,752.9204 Z " fill="#000000"/><text fill="#000000" font-family="sans-serif" font-size="14" lengthAdjust="spacing" textLength="180.4756" x="945.5" y="755.291">BestFitDecreasingHeuristic</text><line style="stroke:#181818;stroke-width:0.5;" x1="917.5" x2="1127.9756" y1="766" y2="766"/></g><!--class HeuristicType--><g class="entity" data-entity="HeuristicType" data-source-line="116" data-uid="ent0012" id="entity_HeuristicType"><rect fill="#F1F1F1" height="89.4648" rx="2.5" ry="2.5" style="stroke:#181818;stroke-width:0.5;" width="169.0693" x="608" y="156.5"/><ellipse cx="642.8668" cy="172.5" fill="#EB937F" rx="11" ry="11" style="stroke:#181818;stroke-width:1;"/><path d="M646.9811,178.5 L639.2613,178.5 L639.2613,166.1069 L646.9811,166.1069 L646.9811,168.2651 L641.7101,168.2651 L641.7101,170.938 L646.483,170.938 L646.483,173.0962 L641.7101,173.0962 L641.7101,176.3418 L646.9811,176.3418 Z " fill="#000000"/><text fill="#000000" font-family="sans-serif" font-size="14" lengthAdjust="spacing" textLength="92.9209" x="661.2816" y="177.791">HeuristicType</text><line style="stroke:#181818;stroke-width:0.5;" x1="609" x2="776.0693" y1="188.5" y2="188.5"/><text fill="#000000" font-family="sans-serif" font-size="14" lengthAdjust="spacing" textLength="64.1758" x="614" y="206.0352">FIRST_FIT</text><text fill="#000000" font-family="sans-serif" font-size="14" lengthAdjust="spacing" textLength="157.0693" x="614" y="222.5234">FIRST_FIT_DECREASING</text><text fill="#000000" font-family="sans-serif" font-size="14" lengthAdjust="spacing" textLength="152.3184" x="614" y="239.0117">BEST_FIT_DECREASING</text></g><!--class PickingStatus--><g class="entity" data-entity="PickingStatus" data-source-line="122" data-uid="ent0013" id="entity_PickingStatus"><rect fill="#F1F1F1" height="122.4414" rx="2.5" ry="2.5" style="stroke:#181818;stroke-width:0.5;" width="140.1191" x="95.5" y="925"/><ellipse cx="118.5758" cy="941" fill="#EB937F" rx="11" ry="11" style="stroke:#181818;stroke-width:1;"/><path d="M122.6901,947 L114.9704,947 L114.9704,934.6069 L122.6901,934.6069 L122.6901,936.7651 L117.4191,936.7651 L117.4191,939.438 L122.192,939.438 L122.192,941.5962 L117.4191,941.5962 L117.4191,944.8418 L122.6901,944.8418 Z " fill="#000000"/><text fill="#000000" font-family="sans-serif" font-size="14" lengthAdjust="spacing" textLength="90.1729" x="134.3705" y="946.291">PickingStatus</text><line style="stroke:#181818;stroke-width:0.5;" x1="96.5" x2="234.6191" y1="957" y2="957"/><text fill="#000000" font-family="sans-serif" font-size="14" lengthAdjust="spacing" textLength="60.6484" x="101.5" y="974.5352">PENDING</text><text fill="#000000" font-family="sans-serif" font-size="14" lengthAdjust="spacing" textLength="67.3066" x="101.5" y="991.0234">ASSIGNED</text><text fill="#000000" font-family="sans-serif" font-size="14" lengthAdjust="spacing" textLength="48.6719" x="101.5" y="1007.5117">PICKED</text><text fill="#000000" font-family="sans-serif" font-size="14" lengthAdjust="spacing" textLength="128.1191" x="101.5" y="1024">PARTIALLY_PICKED</text><text fill="#000000" font-family="sans-serif" font-size="14" lengthAdjust="spacing" textLength="68.9473" x="101.5" y="1040.4883">DEFERRED</text></g><!--link PickingPlanService to PackingHeuristic--><g class="link" data-entity-1="PickingPlanService" data-entity-2="PackingHeuristic" data-source-line="131" data-uid="lnk14" id="link_PickingPlanService_PackingHeuristic"><path codeLine="131" d="M452.29,63.26 C480.48,123.37 545.5,262 545.5,262 C545.5,262 645.3259,443.3241 679.0359,504.5441" fill="none" id="PickingPlanService-to-PackingHeuristic" style="stroke:#181818;stroke-width:1;"/><polygon fill="#181818" points="681.93,509.8,681.0928,499.9868,679.5183,505.4201,674.085,503.8456,681.93,509.8" style="stroke:#181818;stroke-width:1;"/><text fill="#000000" font-family="sans-serif" font-size="13" lengthAdjust="spacing" textLength="43.0181" x="546.5" y="206.0684">selects</text></g><!--link PickingPlanService to PickingPlan--><g class="link" data-entity-1="PickingPlanService" data-entity-2="PickingPlan" data-source-line="132" data-uid="lnk15" id="link_PickingPlanService_PickingPlan"><path codeLine="132" d="M353.63,63.5 C308.11,78.07 261.5,93 261.5,93 C261.5,93 248.3833,110.545 230.2333,134.815" fill="none" id="PickingPlanService-to-PickingPlan" style="stroke:#181818;stroke-width:1;"/><polygon fill="#181818" points="226.64,139.62,235.2333,134.8081,229.6345,135.6158,228.8267,130.017,226.64,139.62" style="stroke:#181818;stroke-width:1;"/><text fill="#000000" font-family="sans-serif" font-size="13" lengthAdjust="spacing" textLength="45.1318" x="262.5" y="106.5684">creates</text></g><!--link PickingPlanService to Allocation--><g class="link" data-entity-1="PickingPlanService" data-entity-2="Allocation" data-source-line="133" data-uid="lnk16" id="link_PickingPlanService_Allocation"><path codeLine="133" d="M396.08,63.5 C373.07,78.07 349.5,93 349.5,93 C349.5,93 349.5,110 349.5,110 C349.5,110 349.8872,209.44 350.1772,285.64" fill="none" id="PickingPlanService-to-Allocation" style="stroke:#181818;stroke-width:1;"/><polygon fill="#181818" points="350.2,291.64,354.1657,282.6248,350.181,286.64,346.1658,282.6553,350.2,291.64" style="stroke:#181818;stroke-width:1;"/><text fill="#000000" font-family="sans-serif" font-size="13" lengthAdjust="spacing" textLength="62.5117" x="350.5" y="106.5684">processes</text></g><!--link PickingPlanService to Item--><g class="link" data-entity-1="PickingPlanService" data-entity-2="Item" data-source-line="134" data-uid="lnk17" id="link_PickingPlanService_Item"><path codeLine="134" d="M439.5,63.45 C439.5,110.14 439.5,200 439.5,200 C439.5,200 439.5,200 439.5,755 C439.5,755 401.9961,850.8424 375.3361,918.9824" fill="none" id="PickingPlanService-to-Item" style="stroke:#181818;stroke-width:1;"/><polygon fill="#181818" points="373.15,924.57,380.1543,917.6461,374.9718,919.9137,372.7042,914.7312,373.15,924.57" style="stroke:#181818;stroke-width:1;"/><text fill="#000000" font-family="sans-serif" font-size="13" lengthAdjust="spacing" textLength="65.7427" x="440.5" y="535.0684">references</text></g><!--link PickingPlan to Trolley--><g class="link" data-entity-1="PickingPlan" data-entity-2="Trolley" data-source-line="136" data-uid="lnk18" id="link_PickingPlan_Trolley"><path codeLine="136" d="M175.96,262.36 C170.32,323.81 162.2181,412.1451 156.8581,470.5751" fill="none" id="PickingPlan-to-Trolley" style="stroke:#181818;stroke-width:1;"/><polygon fill="#181818" points="156.31,476.55,161.1154,467.953,156.7668,471.5709,153.1489,467.2222,156.31,476.55" style="stroke:#181818;stroke-width:1;"/><text fill="#000000" font-family="sans-serif" font-size="13" lengthAdjust="spacing" textLength="96.7954" x="174.5" y="374.5684">aggregates 1..*</text></g><!--link Trolley to PickingAssignment--><g class="link" data-entity-1="Trolley" data-entity-2="PickingAssignment" data-source-line="137" data-uid="lnk19" id="link_Trolley_PickingAssignment"><path codeLine="137" d="M154.8,583.33 C156.24,606.15 157.5916,627.6219 159.2416,653.7319" fill="none" id="Trolley-to-PickingAssignment" style="stroke:#181818;stroke-width:1;"/><polygon fill="#181818" points="159.62,659.72,163.0444,650.4856,159.3047,654.73,155.0603,650.9902,159.62,659.72" style="stroke:#181818;stroke-width:1;"/><text fill="#000000" font-family="sans-serif" font-size="13" lengthAdjust="spacing" textLength="80.0313" x="159.5" y="626.5684">contains 1..*</text></g><!--link PickingAssignment to Item--><g class="link" data-entity-1="PickingAssignment" data-entity-2="Item" data-source-line="138" data-uid="lnk20" id="link_PickingAssignment_Item"><path codeLine="138" d="M240.07,848.22 C260.7,873.99 278.7816,896.605 297.4716,919.965" fill="none" id="PickingAssignment-to-Item" style="stroke:#181818;stroke-width:1;"/><polygon fill="#181818" points="301.22,924.65,298.7207,915.1235,298.0963,920.7458,292.474,920.1214,301.22,924.65" style="stroke:#181818;stroke-width:1;"/><text fill="#000000" font-family="sans-serif" font-size="13" lengthAdjust="spacing" textLength="21.874" x="275.5" y="891.5684">has</text></g><!--link PickingAssignment to PickingStatus--><g class="link" data-entity-1="PickingAssignment" data-entity-2="PickingStatus" data-source-line="139" data-uid="lnk21" id="link_PickingAssignment_PickingStatus"><path codeLine="139" d="M165.5,848.22 C165.5,873.99 165.5,895.29 165.5,918.65" fill="none" id="PickingAssignment-to-PickingStatus" style="stroke:#181818;stroke-width:1;"/><polygon fill="#181818" points="165.5,924.65,169.5,915.65,165.5,919.65,161.5,915.65,165.5,924.65" style="stroke:#181818;stroke-width:1;"/><text fill="#000000" font-family="sans-serif" font-size="13" lengthAdjust="spacing" textLength="21.874" x="166.5" y="891.5684">has</text></g><!--reverse link PackingHeuristic to FirstFitHeuristic--><g class="link" data-entity-1="PackingHeuristic" data-entity-2="FirstFitHeuristic" data-source-line="141" data-uid="lnk22" id="link_PackingHeuristic_FirstFitHeuristic"><path codeLine="141" d="M670.1708,565.5483 C654.5008,589.7983 639.5,613 639.5,613 C639.5,613 594.36,695.07 573.21,733.53" fill="none" id="PackingHeuristic-backto-FirstFitHeuristic" style="stroke:#181818;stroke-width:1;stroke-dasharray:7,7;"/><polygon fill="none" points="679.94,550.43,665.1314,562.2919,675.2102,568.8047,679.94,550.43" style="stroke:#181818;stroke-width:1;"/><text fill="#000000" font-family="sans-serif" font-size="13" lengthAdjust="spacing" textLength="74.0137" x="640.5" y="626.5684">implements</text></g><!--reverse link PackingHeuristic to FirstFitDecreasingHeuristic--><g class="link" data-entity-1="PackingHeuristic" data-entity-2="FirstFitDecreasingHeuristic" data-source-line="142" data-uid="lnk23" id="link_PackingHeuristic_FirstFitDecreasingHeuristic"><path codeLine="142" d="M705.8669,567.195 C721.3769,609.185 751.78,691.49 767.32,733.57" fill="none" id="PackingHeuristic-backto-FirstFitDecreasingHeuristic" style="stroke:#181818;stroke-width:1;stroke-dasharray:7,7;"/><polygon fill="none" points="699.63,550.31,700.2385,569.2739,711.4952,565.116,699.63,550.31" style="stroke:#181818;stroke-width:1;"/><text fill="#000000" font-family="sans-serif" font-size="13" lengthAdjust="spacing" textLength="74.0137" x="729.5" y="626.5684">implements</text></g><!--reverse link PackingHeuristic to BestFitDecreasingHeuristic--><g class="link" data-entity-1="PackingHeuristic" data-entity-2="BestFitDecreasingHeuristic" data-source-line="143" data-uid="lnk24" id="link_PackingHeuristic_BestFitDecreasingHeuristic"><path codeLine="143" d="M738.7663,559.8302 C796.5163,595.8202 899.5,660 899.5,660 C899.5,660 960.65,706.23 996.72,733.5" fill="none" id="PackingHeuristic-backto-BestFitDecreasingHeuristic" style="stroke:#181818;stroke-width:1;stroke-dasharray:7,7;"/><polygon fill="none" points="723.49,550.31,735.5929,564.9223,741.9397,554.7381,723.49,550.31" style="stroke:#181818;stroke-width:1;"/><text fill="#000000" font-family="sans-serif" font-size="13" lengthAdjust="spacing" textLength="74.0137" x="849.5" y="626.5684">implements</text></g><!--link Allocation to Item--><g class="link" data-entity-1="Allocation" data-entity-2="Item" data-source-line="145" data-uid="lnk25" id="link_Allocation_Item"><path codeLine="145" d="M349.23,447.23 C348.06,518.27 346.5,613 346.5,613 C346.5,613 346.5,630 346.5,630 C346.5,630 348.0896,817.5002 348.9396,918.7802" fill="none" id="Allocation-to-Item" style="stroke:#181818;stroke-width:1;"/><polygon fill="#181818" points="348.99,924.78,352.9143,915.7467,348.948,919.7802,344.9146,915.8139,348.99,924.78" style="stroke:#181818;stroke-width:1;"/><text fill="#000000" font-family="sans-serif" font-size="13" lengthAdjust="spacing" textLength="65.7427" x="347.5" y="626.5684">references</text></g><!--link HeuristicType to PackingHeuristic--><g class="link" data-entity-1="HeuristicType" data-entity-2="PackingHeuristic" data-source-line="147" data-uid="lnk26" id="link_HeuristicType_PackingHeuristic"><path codeLine="147" d="M692.5,245.76 C692.5,317.81 692.5,452.53 692.5,503.76" fill="none" id="HeuristicType-to-PackingHeuristic" style="stroke:#181818;stroke-width:1;stroke-dasharray:7,7;"/><polygon fill="#181818" points="692.5,509.76,696.5,500.76,692.5,504.76,688.5,500.76,692.5,509.76" style="stroke:#181818;stroke-width:1;"/><text fill="#000000" font-family="sans-serif" font-size="13" lengthAdjust="spacing" textLength="66.6123" x="693.5" y="374.5684">configures</text></g><!--link PickingPlanService to HeuristicType--><g class="link" data-entity-1="PickingPlanService" data-entity-2="HeuristicType" data-source-line="148" data-uid="lnk27" id="link_PickingPlanService_HeuristicType"><path codeLine="148" d="M494.5,63.5 C523.65,78.07 553.5,93 553.5,93 C553.5,93 592.4259,122.9596 630.8059,152.5096" fill="none" id="PickingPlanService-to-HeuristicType" style="stroke:#181818;stroke-width:1;stroke-dasharray:7,7;"/><polygon fill="#181818" points="635.56,156.17,630.869,147.51,631.5982,153.1197,625.9886,153.8489,635.56,156.17" style="stroke:#181818;stroke-width:1;"/><text fill="#000000" font-family="sans-serif" font-size="13" lengthAdjust="spacing" textLength="28.5645" x="575.5" y="106.5684">uses</text></g><!--SRC=[hLPDawCs4BtpAtGBZh4hkL9JK-NnnuQArvaORr8vJSdGngeH7ul4PBn9_djQGe0msCbXBYxS_TJzzBhLqfd5G5AGvpns7F7AieAMD2K5ZLvf0g6yS20bH99c2GSB8CuqplzaMK9Eb0lRmra6yb80AN9-KNyiNyIf40ifItQi90HHdeNi6v0V74Txo3EB49iySvg5KBwn2CXV3Y4pmYIauZCjV88_3o46o1AF16XzHF-K9911IILO0LpAUHvHoV9CU2IYk2KcBnuvGrKo8LaqyUryEWoy5taf3_ao_Cqjq8YGEjUrTyCuQ8H7JlYPqHGG-vQpM2C5oC0mTXlgdNz6SEDle48jX619ba8cXSqNiLla-63uTQX7lRpTBH88OhTZ-S-8a8s2iRKNP5021eXN-8EvC2zNdmUMWdRBCkSSBiBmEDH_w-ojW3xvgVayOC7jXKiZjq_Yl3foqAhGE3Q1N0EpDKi0zP2K6uXGssAPxFb-1vQSfV9OOT6vG3MnNRz8njatBU4G4rPfIikBswyfEdeA6jkoaqSvhmMg6Lb4hrNIW5OTXRYMoWxHg6MHRYjf8EDLJEdxYD9OtQeiiLjgkNeUsZNSlHwRDdbT5djscabJoGxlTZ6H_p7FEPZZX3kyMv8zf9Hbc7n4W3l5-TpH6IvOsbiVwHJhmDqvPTS7gVEPGkHb36NGhuOQThkywTfwQFbwIEc_NokQILsf1d3Ctwz2K2Ouz2n7Ukdzbzqvw1LMI2ehqOwqKF_LknvimJNaFSFOqqozbg1N4_DgDfwYC6dqsveHDQnA-5eDZR_KcOQEhSvyTSQLLCfa9DEsNmsfA-YJOZWCkr2CX-OdEdBkxqwKMZztCYQeQDsrwCqKQvjcqKvotItJaMwPNdKBHdsjUlwlNQTC1vqo7NJAjDSfBHKbfMdPVe8PKPTM_qx00PVaPR_Vgep9WM7GVrEToCKKdexhjS4ylS2pbatkTimELu_COnDjwFc2SSUjWzAYAAWdb2UAxufdgilQZcLJAVNmqLUtDTMivyDWrBT2RrWfv8R93m-u0dLNYu_a-WGV7ncoAkrVSZhM9jY7XvTDSB2_NrRhvNwz28FT9pG_hOVM9c3lyEc0p-lTgbwt2CFWqswzKiPW-NFziTWVWiLs-yTBQrgjD-lz7ZynvdTa3xn-OfrP8PoHz-PizZZi3H_FFCTNyEqLrdlBDu-hcs1hFFYaAFC8XBYDrYVOnqVu2V1YGwnZ8pMaUIFuX2P92ObAJdwSpxzt6e_5qRhAVFKGbNW56_GGOH4uKt43q2zIZNG66ZxyFP-Fd1ASSMd1GNVOVomQwzV_iVnEj_TMErPTRWZVx-_vVBHLKDCJIwfolAHgKJ-CJofL_dy1]--></g></svg>