<svg xmlns="http://www.w3.org/2000/svg" xmlns:xlink="http://www.w3.org/1999/xlink" contentStyleType="text/css" data-diagram-type="CLASS" height="846px" preserveAspectRatio="none" style="width:557px;height:846px;background:#FFFFFF;" version="1.1" viewBox="0 0 557 846" width="557px" zoomAndPan="magnify"><title>USEI11 - Class Diagram</title><defs/><g><g class="title" data-source-line="2"><text fill="#000000" font-family="sans-serif" font-size="14" font-weight="bold" lengthAdjust="spacing" textLength="172.4912" x="185.5915" y="23.5352">USEI11 - Class Diagram</text></g><!--class UpgradePlanningUI--><g class="entity" data-entity="UpgradePlanningUI" data-source-line="6" data-uid="ent0002" id="entity_UpgradePlanningUI"><rect fill="#F1F1F1" height="80.9766" rx="2.5" ry="2.5" style="stroke:#181818;stroke-width:0.5;" width="262.9199" x="197.56" y="44.4883"/><ellipse cx="260.0678" cy="60.4883" fill="#ADD1B2" rx="11" ry="11" style="stroke:#181818;stroke-width:1;"/><path d="M263.041,66.1313 Q262.4599,66.4302 261.8207,66.5796 Q261.1816,66.729 260.476,66.729 Q257.9692,66.729 256.6494,65.0771 Q255.3295,63.4253 255.3295,60.3042 Q255.3295,57.1748 256.6494,55.5229 Q257.9692,53.8711 260.476,53.8711 Q261.1816,53.8711 261.829,54.0205 Q262.4765,54.1699 263.041,54.4688 L263.041,57.1914 Q262.4101,56.6104 261.8166,56.3406 Q261.2231,56.0708 260.5922,56.0708 Q259.2475,56.0708 258.5627,57.1375 Q257.8779,58.2041 257.8779,60.3042 Q257.8779,62.396 258.5627,63.4626 Q259.2475,64.5293 260.5922,64.5293 Q261.2231,64.5293 261.8166,64.2595 Q262.4101,63.9897 263.041,63.4087 Z " fill="#000000"/><text fill="#000000" font-family="sans-serif" font-size="14" lengthAdjust="spacing" textLength="129.4043" x="280.5678" y="65.7793">UpgradePlanningUI</text><line style="stroke:#181818;stroke-width:0.5;" x1="198.56" x2="459.4799" y1="76.4883" y2="76.4883"/><line style="stroke:#181818;stroke-width:0.5;" x1="198.56" x2="459.4799" y1="84.4883" y2="84.4883"/><text fill="#000000" font-family="sans-serif" font-size="14" lengthAdjust="spacing" textLength="87.9717" x="203.56" y="102.0234">runAnalysis()</text><text fill="#000000" font-family="sans-serif" font-size="14" lengthAdjust="spacing" textLength="250.9199" x="203.56" y="118.5117">displayResults(result: AnalysisResult)</text></g><!--class UpgradeController--><g class="entity" data-entity="UpgradeController" data-source-line="11" data-uid="ent0003" id="entity_UpgradeController"><rect fill="#F1F1F1" height="64.4883" rx="2.5" ry="2.5" style="stroke:#181818;stroke-width:0.5;" width="346.8721" x="155.56" y="186.4883"/><ellipse cx="262.0092" cy="202.4883" fill="#ADD1B2" rx="11" ry="11" style="stroke:#181818;stroke-width:1;"/><path d="M264.9824,208.1313 Q264.4013,208.4302 263.7621,208.5796 Q263.123,208.729 262.4174,208.729 Q259.9106,208.729 258.5908,207.0771 Q257.2709,205.4253 257.2709,202.3042 Q257.2709,199.1748 258.5908,197.5229 Q259.9106,195.8711 262.4174,195.8711 Q263.123,195.8711 263.7704,196.0205 Q264.4179,196.1699 264.9824,196.4688 L264.9824,199.1914 Q264.3515,198.6104 263.758,198.3406 Q263.1645,198.0708 262.5336,198.0708 Q261.1889,198.0708 260.5041,199.1375 Q259.8193,200.2041 259.8193,202.3042 Q259.8193,204.396 260.5041,205.4626 Q261.1889,206.5293 262.5336,206.5293 Q263.1645,206.5293 263.758,206.2595 Q264.3515,205.9897 264.9824,205.4087 Z " fill="#000000"/><text fill="#000000" font-family="sans-serif" font-size="14" lengthAdjust="spacing" textLength="125.4736" x="282.5092" y="207.7793">UpgradeController</text><line style="stroke:#181818;stroke-width:0.5;" x1="156.56" x2="501.4321" y1="218.4883" y2="218.4883"/><line style="stroke:#181818;stroke-width:0.5;" x1="156.56" x2="501.4321" y1="226.4883" y2="226.4883"/><text fill="#000000" font-family="sans-serif" font-size="14" lengthAdjust="spacing" textLength="334.8721" x="161.56" y="244.0234">getUpgradeOrder(graphId: String): AnalysisResult</text></g><!--class Station--><g class="entity" data-entity="Station" data-source-line="15" data-uid="ent0004" id="entity_Station"><rect fill="#F1F1F1" height="113.9531" rx="2.5" ry="2.5" style="stroke:#181818;stroke-width:0.5;" width="104.5449" x="42.56" y="725.4883"/><ellipse cx="69.0196" cy="741.4883" fill="#ADD1B2" rx="11" ry="11" style="stroke:#181818;stroke-width:1;"/><path d="M71.9928,747.1313 Q71.4117,747.4302 70.7725,747.5796 Q70.1334,747.729 69.4278,747.729 Q66.921,747.729 65.6012,746.0771 Q64.2813,744.4253 64.2813,741.3042 Q64.2813,738.1748 65.6012,736.5229 Q66.921,734.8711 69.4278,734.8711 Q70.1334,734.8711 70.7808,735.0205 Q71.4283,735.1699 71.9928,735.4688 L71.9928,738.1914 Q71.3619,737.6104 70.7684,737.3406 Q70.1749,737.0708 69.544,737.0708 Q68.1993,737.0708 67.5145,738.1375 Q66.8297,739.2041 66.8297,741.3042 Q66.8297,743.396 67.5145,744.4626 Q68.1993,745.5293 69.544,745.5293 Q70.1749,745.5293 70.7684,745.2595 Q71.3619,744.9897 71.9928,744.4087 Z " fill="#000000"/><text fill="#000000" font-family="sans-serif" font-size="14" lengthAdjust="spacing" textLength="47.0791" x="85.5662" y="746.7793">Station</text><line style="stroke:#181818;stroke-width:0.5;" x1="43.56" x2="146.1049" y1="757.4883" y2="757.4883"/><text fill="#000000" font-family="sans-serif" font-size="14" lengthAdjust="spacing" textLength="57.2578" x="48.56" y="775.0234">String id</text><text fill="#000000" font-family="sans-serif" font-size="14" lengthAdjust="spacing" textLength="81.6895" x="48.56" y="791.5117">String name</text><text fill="#000000" font-family="sans-serif" font-size="14" lengthAdjust="spacing" textLength="83.4805" x="48.56" y="808">int inDegree</text><line style="stroke:#181818;stroke-width:0.5;" x1="43.56" x2="146.1049" y1="814.9531" y2="814.9531"/><text fill="#000000" font-family="sans-serif" font-size="14" lengthAdjust="spacing" textLength="92.5449" x="48.56" y="832.4883">getId(): String</text></g><!--class TrackDependency--><g class="entity" data-entity="TrackDependency" data-source-line="22" data-uid="ent0005" id="entity_TrackDependency"><rect fill="#F1F1F1" height="130.4414" rx="2.5" ry="2.5" style="stroke:#181818;stroke-width:0.5;" width="153.0371" x="124.56" y="518.4883"/><ellipse cx="139.56" cy="534.4883" fill="#ADD1B2" rx="11" ry="11" style="stroke:#181818;stroke-width:1;"/><path d="M142.5331,540.1313 Q141.9521,540.4302 141.3129,540.5796 Q140.6738,540.729 139.9682,540.729 Q137.4614,540.729 136.1415,539.0771 Q134.8217,537.4253 134.8217,534.3042 Q134.8217,531.1748 136.1415,529.5229 Q137.4614,527.8711 139.9682,527.8711 Q140.6738,527.8711 141.3212,528.0205 Q141.9687,528.1699 142.5331,528.4688 L142.5331,531.1914 Q141.9023,530.6104 141.3088,530.3406 Q140.7153,530.0708 140.0844,530.0708 Q138.7397,530.0708 138.0549,531.1375 Q137.3701,532.2041 137.3701,534.3042 Q137.3701,536.396 138.0549,537.4626 Q138.7397,538.5293 140.0844,538.5293 Q140.7153,538.5293 141.3088,538.2595 Q141.9023,537.9897 142.5331,537.4087 Z " fill="#000000"/><text fill="#000000" font-family="sans-serif" font-size="14" lengthAdjust="spacing" textLength="121.0371" x="153.56" y="539.7793">TrackDependency</text><line style="stroke:#181818;stroke-width:0.5;" x1="125.56" x2="276.5971" y1="550.4883" y2="550.4883"/><text fill="#000000" font-family="sans-serif" font-size="14" lengthAdjust="spacing" textLength="102.3682" x="130.56" y="568.0234">String sourceId</text><text fill="#000000" font-family="sans-serif" font-size="14" lengthAdjust="spacing" textLength="97.7061" x="130.56" y="584.5117">String targetId</text><text fill="#000000" font-family="sans-serif" font-size="14" lengthAdjust="spacing" textLength="96.4756" x="130.56" y="601">double weight</text><line style="stroke:#181818;stroke-width:0.5;" x1="125.56" x2="276.5971" y1="607.9531" y2="607.9531"/><text fill="#000000" font-family="sans-serif" font-size="14" lengthAdjust="spacing" textLength="132.3369" x="130.56" y="625.4883">getSource(): Station</text><text fill="#000000" font-family="sans-serif" font-size="14" lengthAdjust="spacing" textLength="130.8877" x="130.56" y="641.9766">getTarget(): Station</text></g><!--class RailwayGraph--><g class="entity" data-entity="RailwayGraph" data-source-line="30" data-uid="ent0006" id="entity_RailwayGraph"><rect fill="#F1F1F1" height="130.4414" rx="2.5" ry="2.5" style="stroke:#181818;stroke-width:0.5;" width="225.9102" x="113.06" y="311.4883"/><ellipse cx="175.9711" cy="327.4883" fill="#ADD1B2" rx="11" ry="11" style="stroke:#181818;stroke-width:1;"/><path d="M178.9443,333.1313 Q178.3632,333.4302 177.7241,333.5796 Q177.0849,333.729 176.3793,333.729 Q173.8725,333.729 172.5527,332.0771 Q171.2329,330.4253 171.2329,327.3042 Q171.2329,324.1748 172.5527,322.5229 Q173.8725,320.8711 176.3793,320.8711 Q177.0849,320.8711 177.7324,321.0205 Q178.3798,321.1699 178.9443,321.4688 L178.9443,324.1914 Q178.3134,323.6104 177.7199,323.3406 Q177.1264,323.0708 176.4955,323.0708 Q175.1508,323.0708 174.466,324.1375 Q173.7812,325.2041 173.7812,327.3042 Q173.7812,329.396 174.466,330.4626 Q175.1508,331.5293 176.4955,331.5293 Q177.1264,331.5293 177.7199,331.2595 Q178.3134,330.9897 178.9443,330.4087 Z " fill="#000000"/><text fill="#000000" font-family="sans-serif" font-size="14" lengthAdjust="spacing" textLength="91.5879" x="196.4711" y="332.7793">RailwayGraph</text><line style="stroke:#181818;stroke-width:0.5;" x1="114.06" x2="337.9702" y1="343.4883" y2="343.4883"/><text fill="#000000" font-family="sans-serif" font-size="14" lengthAdjust="spacing" textLength="203.3623" x="119.06" y="361.0234">Map&lt;String, Station&gt; vertices</text><text fill="#000000" font-family="sans-serif" font-size="14" lengthAdjust="spacing" textLength="211.8867" x="119.06" y="377.5117">List&lt;TrackDependency&gt; edges</text><line style="stroke:#181818;stroke-width:0.5;" x1="114.06" x2="337.9702" y1="384.4648" y2="384.4648"/><text fill="#000000" font-family="sans-serif" font-size="14" lengthAdjust="spacing" textLength="213.9102" x="119.06" y="402">topologicalSort(): List&lt;Station&gt;</text><text fill="#000000" font-family="sans-serif" font-size="14" lengthAdjust="spacing" textLength="169.9756" x="119.06" y="418.4883">findCycles(): List&lt;Cycle&gt;</text><text fill="#000000" font-family="sans-serif" font-size="14" lengthAdjust="spacing" textLength="113.6885" x="119.06" y="434.9766">isDAG(): boolean</text></g><!--class AnalysisResult--><g class="entity" data-entity="AnalysisResult" data-source-line="38" data-uid="ent0007" id="entity_AnalysisResult"><rect fill="#F1F1F1" height="113.9531" rx="2.5" ry="2.5" style="stroke:#181818;stroke-width:0.5;" width="200.4121" x="313.06" y="526.4883"/><ellipse cx="360.2553" cy="542.4883" fill="#ADD1B2" rx="11" ry="11" style="stroke:#181818;stroke-width:1;"/><path d="M363.2285,548.1313 Q362.6474,548.4302 362.0082,548.5796 Q361.3691,548.729 360.6635,548.729 Q358.1567,548.729 356.8369,547.0771 Q355.517,545.4253 355.517,542.3042 Q355.517,539.1748 356.8369,537.5229 Q358.1567,535.8711 360.6635,535.8711 Q361.3691,535.8711 362.0165,536.0205 Q362.664,536.1699 363.2285,536.4688 L363.2285,539.1914 Q362.5976,538.6104 362.0041,538.3406 Q361.4106,538.0708 360.7797,538.0708 Q359.435,538.0708 358.7502,539.1375 Q358.0654,540.2041 358.0654,542.3042 Q358.0654,544.396 358.7502,545.4626 Q359.435,546.5293 360.7797,546.5293 Q361.4106,546.5293 362.0041,546.2595 Q362.5976,545.9897 363.2285,545.4087 Z " fill="#000000"/><text fill="#000000" font-family="sans-serif" font-size="14" lengthAdjust="spacing" textLength="97.5215" x="380.7553" y="547.7793">AnalysisResult</text><line style="stroke:#181818;stroke-width:0.5;" x1="314.06" x2="512.4721" y1="558.4883" y2="558.4883"/><text fill="#000000" font-family="sans-serif" font-size="14" lengthAdjust="spacing" textLength="157.7939" x="319.06" y="576.0234">List&lt;Station&gt; schedule</text><text fill="#000000" font-family="sans-serif" font-size="14" lengthAdjust="spacing" textLength="188.4121" x="319.06" y="592.5117">List&lt;Cycle&gt; detectedCycles</text><text fill="#000000" font-family="sans-serif" font-size="14" lengthAdjust="spacing" textLength="164.1104" x="319.06" y="609">String complexityReport</text><line style="stroke:#181818;stroke-width:0.5;" x1="314.06" x2="512.4721" y1="615.9531" y2="615.9531"/><text fill="#000000" font-family="sans-serif" font-size="14" lengthAdjust="spacing" textLength="138.9541" x="319.06" y="633.4883">hasCycles(): boolean</text></g><!--class Cycle--><g class="entity" data-entity="Cycle" data-source-line="45" data-uid="ent0008" id="entity_Cycle"><rect fill="#F1F1F1" height="80.9766" rx="2.5" ry="2.5" style="stroke:#181818;stroke-width:0.5;" width="275.6143" x="275.06" y="741.9883"/><ellipse cx="390.6079" cy="757.9883" fill="#ADD1B2" rx="11" ry="11" style="stroke:#181818;stroke-width:1;"/><path d="M393.581,763.6313 Q392.9999,763.9302 392.3608,764.0796 Q391.7216,764.229 391.0161,764.229 Q388.5092,764.229 387.1894,762.5771 Q385.8696,760.9253 385.8696,757.8042 Q385.8696,754.6748 387.1894,753.0229 Q388.5092,751.3711 391.0161,751.3711 Q391.7216,751.3711 392.3691,751.5205 Q393.0165,751.6699 393.581,751.9688 L393.581,754.6914 Q392.9501,754.1104 392.3566,753.8406 Q391.7631,753.5708 391.1323,753.5708 Q389.7875,753.5708 389.1027,754.6375 Q388.4179,755.7041 388.4179,757.8042 Q388.4179,759.896 389.1027,760.9626 Q389.7875,762.0293 391.1323,762.0293 Q391.7631,762.0293 392.3566,761.7595 Q392.9501,761.4897 393.581,760.9087 Z " fill="#000000"/><text fill="#000000" font-family="sans-serif" font-size="14" lengthAdjust="spacing" textLength="36.0186" x="411.1079" y="763.2793">Cycle</text><line style="stroke:#181818;stroke-width:0.5;" x1="276.06" x2="549.6743" y1="773.9883" y2="773.9883"/><text fill="#000000" font-family="sans-serif" font-size="14" lengthAdjust="spacing" textLength="208.3525" x="281.06" y="791.5234">List&lt;Station&gt; involvedStations</text><text fill="#000000" font-family="sans-serif" font-size="14" lengthAdjust="spacing" textLength="263.6143" x="281.06" y="808.0117">List&lt;TrackDependency&gt; involvedLinks</text><line style="stroke:#181818;stroke-width:0.5;" x1="276.06" x2="549.6743" y1="814.9648" y2="814.9648"/></g><!--link UpgradePlanningUI to UpgradeController--><g class="link" data-entity-1="UpgradePlanningUI" data-entity-2="UpgradeController" data-source-line="51" data-uid="lnk9" id="link_UpgradePlanningUI_UpgradeController"><path codeLine="51" d="M329.06,125.7983 C329.06,145.1483 329.06,162.0783 329.06,180.1583" fill="none" id="UpgradePlanningUI-to-UpgradeController" style="stroke:#181818;stroke-width:1;stroke-dasharray:7,7;"/><polygon fill="#181818" points="329.06,186.1583,333.06,177.1583,329.06,181.1583,325.06,177.1583,329.06,186.1583" style="stroke:#181818;stroke-width:1;"/></g><!--link UpgradeController to RailwayGraph--><g class="link" data-entity-1="UpgradeController" data-entity-2="RailwayGraph" data-source-line="52" data-uid="lnk10" id="link_UpgradeController_RailwayGraph"><path codeLine="52" d="M308.46,250.6783 C297.01,268.0183 285.6366,285.2516 271.8466,306.1316" fill="none" id="UpgradeController-to-RailwayGraph" style="stroke:#181818;stroke-width:1;stroke-dasharray:7,7;"/><polygon fill="#181818" points="268.54,311.1383,276.8376,305.8327,271.2955,306.9661,270.1621,301.4239,268.54,311.1383" style="stroke:#181818;stroke-width:1;"/></g><!--link UpgradeController to AnalysisResult--><g class="link" data-entity-1="UpgradeController" data-entity-2="AnalysisResult" data-source-line="53" data-uid="lnk11" id="link_UpgradeController_AnalysisResult"><path codeLine="53" d="M338.9,250.8383 C344.3,268.5483 350.92,291.1483 356.06,311.4883 C374.66,385.1383 390.8791,465.2158 401.4391,520.2358" fill="none" id="UpgradeController-to-AnalysisResult" style="stroke:#181818;stroke-width:1;stroke-dasharray:7,7;"/><polygon fill="#181818" points="402.57,526.1283,404.8019,516.5356,401.6276,521.2179,396.9453,518.0436,402.57,526.1283" style="stroke:#181818;stroke-width:1;"/></g><!--reverse link RailwayGraph to Station--><g class="link" data-entity-1="RailwayGraph" data-entity-2="Station" data-source-line="55" data-uid="lnk12" id="link_RailwayGraph_Station"><path codeLine="55" d="M103.0443,444.2189 C73.6443,465.6589 55.38,485.7383 39.06,518.4883 C6,584.8183 35.48,670.0183 62.64,725.1783" fill="none" id="RailwayGraph-backto-Station" style="stroke:#181818;stroke-width:1;"/><polygon fill="#181818" points="112.74,437.1483,105.5353,437.4517,103.0443,444.2189,110.249,443.9155,112.74,437.1483" style="stroke:#181818;stroke-width:1;"/><polygon fill="#000000" points="43.3483,588.5926,47.5448,580.058,41.7268,579.2213,43.3483,588.5926" style="stroke:#000000;stroke-width:1;"/><text fill="#000000" font-family="sans-serif" font-size="13" lengthAdjust="spacing" textLength="53.2061" x="53.06" y="588.5566">contains</text><text fill="#000000" font-family="sans-serif" font-size="13" lengthAdjust="spacing" textLength="8.2202" x="96.868" y="438.2839">1</text><text fill="#000000" font-family="sans-serif" font-size="13" lengthAdjust="spacing" textLength="34.1758" x="22.6554" y="714.8697">many</text></g><!--reverse link RailwayGraph to TrackDependency--><g class="link" data-entity-1="RailwayGraph" data-entity-2="TrackDependency" data-source-line="56" data-uid="lnk13" id="link_RailwayGraph_TrackDependency"><path codeLine="56" d="M204.8242,453.5252 C202.6042,463.3852 203.32,461.7983 202.06,471.4883 C200.11,486.4883 199.26,502.7283 199.02,518.0383" fill="none" id="RailwayGraph-backto-TrackDependency" style="stroke:#181818;stroke-width:1;"/><polygon fill="#181818" points="207.46,441.8183,202.2398,446.7931,204.8242,453.5252,210.0444,448.5504,207.46,441.8183" style="stroke:#181818;stroke-width:1;"/><polygon fill="#000000" points="206.612,485.1234,210.3496,476.3781,204.4954,475.8514,206.612,485.1234" style="stroke:#000000;stroke-width:1;"/><text fill="#000000" font-family="sans-serif" font-size="13" lengthAdjust="spacing" textLength="68.0913" x="216.06" y="485.0566">consists of</text><text fill="#000000" font-family="sans-serif" font-size="13" lengthAdjust="spacing" textLength="8.2202" x="197.0051" y="462.3453">1</text><text fill="#000000" font-family="sans-serif" font-size="13" lengthAdjust="spacing" textLength="34.1758" x="162.9451" y="507.6206">many</text></g><!--link TrackDependency to Station--><g class="link" data-entity-1="TrackDependency" data-entity-2="Station" data-source-line="57" data-uid="lnk14" id="link_TrackDependency_Station"><path codeLine="57" d="M124.14,635.5383 C111.12,647.9483 99.45,662.3583 92.06,678.4883 C85.5,692.7983 83.5806,703.4527 84.1806,719.1327" fill="none" id="TrackDependency-to-Station" style="stroke:#181818;stroke-width:1;"/><polygon fill="#181818" points="84.41,725.1283,88.0629,715.9819,84.2188,720.1319,80.0688,716.2878,84.41,725.1283" style="stroke:#181818;stroke-width:1;"/><polygon fill="#000000" points="94.9036,691.6547,101.4561,684.7615,96.153,682.2265,94.9036,691.6547" style="stroke:#000000;stroke-width:1;"/><text fill="#000000" font-family="sans-serif" font-size="13" lengthAdjust="spacing" textLength="51.6318" x="106.06" y="692.0566">starts at</text><text fill="#000000" font-family="sans-serif" font-size="13" lengthAdjust="spacing" textLength="34.1758" x="82.368" y="636.7905">many</text><text fill="#000000" font-family="sans-serif" font-size="13" lengthAdjust="spacing" textLength="8.2202" x="74.6657" y="714.8136">1</text></g><!--link TrackDependency to Station--><g class="link" data-entity-1="TrackDependency" data-entity-2="Station" data-source-line="58" data-uid="lnk15" id="link_TrackDependency_Station"><path codeLine="58" d="M182.42,648.8283 C176.8,664.5283 169.99,680.9683 162.06,695.4883 C156.52,705.6183 153.3421,710.9509 146.3521,720.5909" fill="none" id="TrackDependency-to-Station-1" style="stroke:#181818;stroke-width:1;"/><polygon fill="#181818" points="142.83,725.4483,151.3515,720.5102,145.7651,721.4004,144.8749,715.8141,142.83,725.4483" style="stroke:#181818;stroke-width:1;"/><polygon fill="#000000" points="172.8146,691.611,179.5024,684.8491,174.2506,682.2095,172.8146,691.611" style="stroke:#000000;stroke-width:1;"/><text fill="#000000" font-family="sans-serif" font-size="13" lengthAdjust="spacing" textLength="46.2744" x="184.06" y="692.0566">ends at</text><text fill="#000000" font-family="sans-serif" font-size="13" lengthAdjust="spacing" textLength="34.1758" x="144.5295" y="669.3564">many</text><text fill="#000000" font-family="sans-serif" font-size="13" lengthAdjust="spacing" textLength="8.2202" x="140.4813" y="714.7704">1</text></g><!--link RailwayGraph to AnalysisResult--><g class="link" data-entity-1="RailwayGraph" data-entity-2="AnalysisResult" data-source-line="60" data-uid="lnk16" id="link_RailwayGraph_AnalysisResult"><path codeLine="60" d="M283.82,441.8883 C297.62,457.1983 312.33,473.4483 326.06,488.4883 C337.3,500.8083 345.3586,509.5611 356.8786,522.0311" fill="none" id="RailwayGraph-to-AnalysisResult" style="stroke:#181818;stroke-width:1;stroke-dasharray:7,7;"/><polygon fill="#181818" points="360.95,526.4383,357.781,517.1132,357.5571,522.7656,351.9047,522.5418,360.95,526.4383" style="stroke:#181818;stroke-width:1;"/><polygon fill="#000000" points="334.4284,483.8386,330.5068,475.1743,326.163,479.1341,334.4284,483.8386" style="stroke:#000000;stroke-width:1;"/><text fill="#000000" font-family="sans-serif" font-size="13" lengthAdjust="spacing" textLength="45.1318" x="340.06" y="485.0566">creates</text></g><!--reverse link AnalysisResult to Cycle--><g class="link" data-entity-1="AnalysisResult" data-entity-2="Cycle" data-source-line="61" data-uid="lnk17" id="link_AnalysisResult_Cycle"><path codeLine="61" d="M413.06,652.9383 C413.06,685.1183 413.06,712.6583 413.06,741.5983" fill="none" id="AnalysisResult-backto-Cycle" style="stroke:#181818;stroke-width:1;"/><polygon fill="#181818" points="413.06,640.9383,409.06,646.9383,413.06,652.9383,417.06,646.9383,413.06,640.9383" style="stroke:#181818;stroke-width:1;"/><polygon fill="#000000" points="418.06,692.1436,420.9989,683.0985,415.1211,683.0985,418.06,692.1436" style="stroke:#000000;stroke-width:1;"/><text fill="#000000" font-family="sans-serif" font-size="13" lengthAdjust="spacing" textLength="58.2778" x="427.06" y="692.0566">identifies</text><text fill="#000000" font-family="sans-serif" font-size="13" lengthAdjust="spacing" textLength="8.2202" x="404.5864" y="661.0371">1</text><text fill="#000000" font-family="sans-serif" font-size="13" lengthAdjust="spacing" textLength="22.7119" x="389.329" y="731.1797">0..*</text></g><!--SRC=[bLHVQo8n47_VJn5ygPOgvwiKeMWfGiiLhHzWcephq9WioMXlEUwxNpQRrTsrLpX1DFlxDvbCbearYktcSJMTYh5OQF1UB0bo1uSiosx4es5IeD2BLqT6KW7aCnbfsoAm5BvgC8PClbs9tva87tSq3mPqwSaFH_698bzeADVeZvhzqCNVcMXOzVDHzYVhEY-iOMUrHfUSS-G4_NGAtJ3yBVOhDHCR3iNbexxbnN73m6HDygdfWbHxPU20SKs6mtU9kKDiObTgE6fYBgvl3kJ74Wiq2eqik-xU7ft4LIU3mKMpkYls-1wQ_ucKxxa9saHL7HPBRe2tA6q3vpBMGFeJogUg6wc65oZkwyoxXZyN9tHC4draF9Fd-zu6vW9Ldd2sXTKs9mbwOrqCZfB6BP9sPDIYb1hz6O_B6YM_V7YgW7ThDKAhukunfPexziBBFQgZnWjKEmk5Z98nvRQxA-sXqFYBE4nQ4MgEs1xyfSAhGYBqPJwPazKdLEd1TqrhgCzaFdpbVIFMg446MPWfmzPdrtTbCfbVptbsFVaLhtt0_w3q1Z_hpCHWEX2tux4O7C2KW_Dbc8ME6GOoNio_5VJdF0f367jXTq7RnvDiF9v7fqkU3nSWY83_HnG8IT8jydhRLM4EWR7QK0ywR-d7P78xI0S_2- -0S42qeoZv2m00]--></g></svg>