<svg xmlns="http://www.w3.org/2000/svg" xmlns:xlink="http://www.w3.org/1999/xlink" contentStyleType="text/css" data-diagram-type="CLASS" height="988px" preserveAspectRatio="none" style="width:756px;height:988px;background:#FFFFFF;" version="1.1" viewBox="0 0 756 988" width="756px" zoomAndPan="magnify"><title>Class Diagram (CD) - USLP08</title><defs/><g><g class="title" data-source-line="5"><text fill="#000000" font-family="sans-serif" font-size="14" font-weight="bold" lengthAdjust="spacing" textLength="212.2354" x="265.3794" y="23.5352">Class Diagram (CD) - USLP08</text></g><!--class RoutePlanningUI--><g class="entity" data-entity="RoutePlanningUI" data-source-line="9" data-uid="ent0002" id="entity_RoutePlanningUI"><rect fill="#F1F1F1" height="97.4648" rx="2.5" ry="2.5" style="stroke:#181818;stroke-width:0.5;" width="189.5088" x="38" y="44.4883"/><ellipse cx="73.8081" cy="60.4883" fill="#ADD1B2" rx="11" ry="11" style="stroke:#181818;stroke-width:1;"/><path d="M76.7813,66.1313 Q76.2002,66.4302 75.561,66.5796 Q74.9219,66.729 74.2163,66.729 Q71.7095,66.729 70.3896,65.0771 Q69.0698,63.4253 69.0698,60.3042 Q69.0698,57.1748 70.3896,55.5229 Q71.7095,53.8711 74.2163,53.8711 Q74.9219,53.8711 75.5693,54.0205 Q76.2168,54.1699 76.7813,54.4688 L76.7813,57.1914 Q76.1504,56.6104 75.5569,56.3406 Q74.9634,56.0708 74.3325,56.0708 Q72.9878,56.0708 72.303,57.1375 Q71.6182,58.2041 71.6182,60.3042 Q71.6182,62.396 72.303,63.4626 Q72.9878,64.5293 74.3325,64.5293 Q74.9634,64.5293 75.5569,64.2595 Q76.1504,63.9897 76.7813,63.4087 Z " fill="#000000"/><text fill="#000000" font-family="sans-serif" font-size="14" lengthAdjust="spacing" textLength="111.2686" x="92.4321" y="65.7793">RoutePlanningUI</text><line style="stroke:#181818;stroke-width:0.5;" x1="39" x2="226.5088" y1="76.4883" y2="76.4883"/><line style="stroke:#181818;stroke-width:0.5;" x1="39" x2="226.5088" y1="84.4883" y2="84.4883"/><text fill="#000000" font-family="sans-serif" font-size="14" lengthAdjust="spacing" textLength="43.3398" x="44" y="102.0234">+run()</text><text fill="#000000" font-family="sans-serif" font-size="14" lengthAdjust="spacing" textLength="177.5088" x="44" y="118.5117">+displayPendingFreights()</text><text fill="#000000" font-family="sans-serif" font-size="14" lengthAdjust="spacing" textLength="141.3672" x="44" y="135">+inputRouteDetails()</text></g><!--class RoutePlanningController--><g class="entity" data-entity="RoutePlanningController" data-source-line="15" data-uid="ent0003" id="entity_RoutePlanningController"><rect fill="#F1F1F1" height="80.9766" rx="2.5" ry="2.5" style="stroke:#181818;stroke-width:0.5;" width="248.3662" x="9" y="202.4883"/><ellipse cx="46.8015" cy="218.4883" fill="#ADD1B2" rx="11" ry="11" style="stroke:#181818;stroke-width:1;"/><path d="M49.7746,224.1313 Q49.1936,224.4302 48.5544,224.5796 Q47.9152,224.729 47.2097,224.729 Q44.7028,224.729 43.383,223.0771 Q42.0632,221.4253 42.0632,218.3042 Q42.0632,215.1748 43.383,213.5229 Q44.7028,211.8711 47.2097,211.8711 Q47.9152,211.8711 48.5627,212.0205 Q49.2102,212.1699 49.7746,212.4688 L49.7746,215.1914 Q49.1438,214.6104 48.5502,214.3406 Q47.9567,214.0708 47.3259,214.0708 Q45.9812,214.0708 45.2963,215.1375 Q44.6115,216.2041 44.6115,218.3042 Q44.6115,220.396 45.2963,221.4626 Q45.9812,222.5293 47.3259,222.5293 Q47.9567,222.5293 48.5502,222.2595 Q49.1438,221.9897 49.7746,221.4087 Z " fill="#000000"/><text fill="#000000" font-family="sans-serif" font-size="14" lengthAdjust="spacing" textLength="165.6963" x="65.8685" y="223.7793">RoutePlanningController</text><line style="stroke:#181818;stroke-width:0.5;" x1="10" x2="256.3662" y1="234.4883" y2="234.4883"/><line style="stroke:#181818;stroke-width:0.5;" x1="10" x2="256.3662" y1="242.4883" y2="242.4883"/><text fill="#000000" font-family="sans-serif" font-size="14" lengthAdjust="spacing" textLength="151.375" x="15" y="260.0234">+getPendingFreights()</text><text fill="#000000" font-family="sans-serif" font-size="14" lengthAdjust="spacing" textLength="236.3662" x="15" y="276.5117">+createRoutePlan(freightList, type)</text></g><!--class RoutePlanningService--><g class="entity" data-entity="RoutePlanningService" data-source-line="20" data-uid="ent0004" id="entity_RoutePlanningService"><rect fill="#F1F1F1" height="80.9766" rx="2.5" ry="2.5" style="stroke:#181818;stroke-width:0.5;" width="211.6777" x="7" y="344.4883"/><ellipse cx="37.6647" cy="360.4883" fill="#ADD1B2" rx="11" ry="11" style="stroke:#181818;stroke-width:1;"/><path d="M40.6379,366.1313 Q40.0568,366.4302 39.4177,366.5796 Q38.7785,366.729 38.0729,366.729 Q35.5661,366.729 34.2463,365.0771 Q32.9265,363.4253 32.9265,360.3042 Q32.9265,357.1748 34.2463,355.5229 Q35.5661,353.8711 38.0729,353.8711 Q38.7785,353.8711 39.426,354.0205 Q40.0734,354.1699 40.6379,354.4688 L40.6379,357.1914 Q40.007,356.6104 39.4135,356.3406 Q38.82,356.0708 38.1892,356.0708 Q36.8444,356.0708 36.1596,357.1375 Q35.4748,358.2041 35.4748,360.3042 Q35.4748,362.396 36.1596,363.4626 Q36.8444,364.5293 38.1892,364.5293 Q38.82,364.5293 39.4135,364.2595 Q40.007,363.9897 40.6379,363.4087 Z " fill="#000000"/><text fill="#000000" font-family="sans-serif" font-size="14" lengthAdjust="spacing" textLength="144.8672" x="55.1458" y="365.7793">RoutePlanningService</text><line style="stroke:#181818;stroke-width:0.5;" x1="8" x2="217.6777" y1="376.4883" y2="376.4883"/><line style="stroke:#181818;stroke-width:0.5;" x1="8" x2="217.6777" y1="384.4883" y2="384.4883"/><text fill="#000000" font-family="sans-serif" font-size="14" lengthAdjust="spacing" textLength="199.6777" x="13" y="402.0234">+generatePath(freights, type)</text><text fill="#000000" font-family="sans-serif" font-size="14" lengthAdjust="spacing" textLength="193.6416" x="13" y="418.5117">-calculateSequence(freights)</text></g><!--class Route--><g class="entity" data-entity="Route" data-source-line="25" data-uid="ent0005" id="entity_Route"><rect fill="#F1F1F1" height="130.4414" rx="2.5" ry="2.5" style="stroke:#181818;stroke-width:0.5;" width="169.1309" x="245.5" y="502.4883"/><ellipse cx="306.2271" cy="518.4883" fill="#ADD1B2" rx="11" ry="11" style="stroke:#181818;stroke-width:1;"/><path d="M309.2002,524.1313 Q308.6191,524.4302 307.98,524.5796 Q307.3408,524.729 306.6353,524.729 Q304.1284,524.729 302.8086,523.0771 Q301.4888,521.4253 301.4888,518.3042 Q301.4888,515.1748 302.8086,513.5229 Q304.1284,511.8711 306.6353,511.8711 Q307.3408,511.8711 307.9883,512.0205 Q308.6357,512.1699 309.2002,512.4688 L309.2002,515.1914 Q308.5693,514.6104 307.9758,514.3406 Q307.3823,514.0708 306.7515,514.0708 Q305.4067,514.0708 304.7219,515.1375 Q304.0371,516.2041 304.0371,518.3042 Q304.0371,520.396 304.7219,521.4626 Q305.4067,522.5293 306.7515,522.5293 Q307.3823,522.5293 307.9758,522.2595 Q308.5693,521.9897 309.2002,521.4087 Z " fill="#000000"/><text fill="#000000" font-family="sans-serif" font-size="14" lengthAdjust="spacing" textLength="39.1768" x="326.7271" y="523.7793">Route</text><line style="stroke:#181818;stroke-width:0.5;" x1="246.5" x2="413.6309" y1="534.4883" y2="534.4883"/><text fill="#000000" font-family="sans-serif" font-size="14" lengthAdjust="spacing" textLength="20.959" x="251.5" y="552.0234">-id</text><text fill="#000000" font-family="sans-serif" font-size="14" lengthAdjust="spacing" textLength="70.4238" x="251.5" y="568.5117">-startDate</text><text fill="#000000" font-family="sans-serif" font-size="14" lengthAdjust="spacing" textLength="72.9395" x="251.5" y="585">-startTime</text><line style="stroke:#181818;stroke-width:0.5;" x1="246.5" x2="413.6309" y1="591.9531" y2="591.9531"/><text fill="#000000" font-family="sans-serif" font-size="14" lengthAdjust="spacing" textLength="153.3779" x="251.5" y="609.4883">+getStationSequence()</text><text fill="#000000" font-family="sans-serif" font-size="14" lengthAdjust="spacing" textLength="157.1309" x="251.5" y="625.9766">+getCargoOperations()</text></g><!--class SimpleRoute--><g class="entity" data-entity="SimpleRoute" data-source-line="33" data-uid="ent0006" id="entity_SimpleRoute"><rect fill="#F1F1F1" height="64.4883" rx="2.5" ry="2.5" style="stroke:#181818;stroke-width:0.5;" width="116.4922" x="93" y="709.9883"/><ellipse cx="108" cy="725.9883" fill="#ADD1B2" rx="11" ry="11" style="stroke:#181818;stroke-width:1;"/><path d="M110.9731,731.6313 Q110.3921,731.9302 109.7529,732.0796 Q109.1138,732.229 108.4082,732.229 Q105.9014,732.229 104.5815,730.5771 Q103.2617,728.9253 103.2617,725.8042 Q103.2617,722.6748 104.5815,721.0229 Q105.9014,719.3711 108.4082,719.3711 Q109.1138,719.3711 109.7612,719.5205 Q110.4087,719.6699 110.9731,719.9688 L110.9731,722.6914 Q110.3423,722.1104 109.7488,721.8406 Q109.1553,721.5708 108.5244,721.5708 Q107.1797,721.5708 106.4949,722.6375 Q105.8101,723.7041 105.8101,725.8042 Q105.8101,727.896 106.4949,728.9626 Q107.1797,730.0293 108.5244,730.0293 Q109.1553,730.0293 109.7488,729.7595 Q110.3423,729.4897 110.9731,728.9087 Z " fill="#000000"/><text fill="#000000" font-family="sans-serif" font-size="14" lengthAdjust="spacing" textLength="84.4922" x="122" y="731.2793">SimpleRoute</text><line style="stroke:#181818;stroke-width:0.5;" x1="94" x2="208.4922" y1="741.9883" y2="741.9883"/><text fill="#000000" font-family="sans-serif" font-size="14" lengthAdjust="spacing" textLength="96.2979" x="99" y="759.5234">-targetFreight</text><line style="stroke:#181818;stroke-width:0.5;" x1="94" x2="208.4922" y1="766.4766" y2="766.4766"/></g><!--class ComplexRoute--><g class="entity" data-entity="ComplexRoute" data-source-line="37" data-uid="ent0007" id="entity_ComplexRoute"><rect fill="#F1F1F1" height="64.4883" rx="2.5" ry="2.5" style="stroke:#181818;stroke-width:0.5;" width="131.7773" x="244" y="709.9883"/><ellipse cx="259" cy="725.9883" fill="#ADD1B2" rx="11" ry="11" style="stroke:#181818;stroke-width:1;"/><path d="M261.9731,731.6313 Q261.3921,731.9302 260.7529,732.0796 Q260.1138,732.229 259.4082,732.229 Q256.9014,732.229 255.5815,730.5771 Q254.2617,728.9253 254.2617,725.8042 Q254.2617,722.6748 255.5815,721.0229 Q256.9014,719.3711 259.4082,719.3711 Q260.1138,719.3711 260.7612,719.5205 Q261.4087,719.6699 261.9731,719.9688 L261.9731,722.6914 Q261.3423,722.1104 260.7488,721.8406 Q260.1553,721.5708 259.5244,721.5708 Q258.1797,721.5708 257.4949,722.6375 Q256.8101,723.7041 256.8101,725.8042 Q256.8101,727.896 257.4949,728.9626 Q258.1797,730.0293 259.5244,730.0293 Q260.1553,730.0293 260.7488,729.7595 Q261.3423,729.4897 261.9731,728.9087 Z " fill="#000000"/><text fill="#000000" font-family="sans-serif" font-size="14" lengthAdjust="spacing" textLength="99.7773" x="273" y="731.2793">ComplexRoute</text><line style="stroke:#181818;stroke-width:0.5;" x1="245" x2="374.7773" y1="741.9883" y2="741.9883"/><text fill="#000000" font-family="sans-serif" font-size="14" lengthAdjust="spacing" textLength="77.3623" x="250" y="759.5234">-freightList</text><line style="stroke:#181818;stroke-width:0.5;" x1="245" x2="374.7773" y1="766.4766" y2="766.4766"/></g><!--class Path--><g class="entity" data-entity="Path" data-source-line="41" data-uid="ent0008" id="entity_Path"><rect fill="#F1F1F1" height="80.9766" rx="2.5" ry="2.5" style="stroke:#181818;stroke-width:0.5;" width="163.7715" x="411" y="701.4883"/><ellipse cx="473.9385" cy="717.4883" fill="#ADD1B2" rx="11" ry="11" style="stroke:#181818;stroke-width:1;"/><path d="M476.9116,723.1313 Q476.3306,723.4302 475.6914,723.5796 Q475.0522,723.729 474.3467,723.729 Q471.8398,723.729 470.52,722.0771 Q469.2002,720.4253 469.2002,717.3042 Q469.2002,714.1748 470.52,712.5229 Q471.8398,710.8711 474.3467,710.8711 Q475.0522,710.8711 475.6997,711.0205 Q476.3472,711.1699 476.9116,711.4688 L476.9116,714.1914 Q476.2808,713.6104 475.6873,713.3406 Q475.0938,713.0708 474.4629,713.0708 Q473.1182,713.0708 472.4333,714.1375 Q471.7485,715.2041 471.7485,717.3042 Q471.7485,719.396 472.4333,720.4626 Q473.1182,721.5293 474.4629,721.5293 Q475.0938,721.5293 475.6873,721.2595 Q476.2808,720.9897 476.9116,720.4087 Z " fill="#000000"/><text fill="#000000" font-family="sans-serif" font-size="14" lengthAdjust="spacing" textLength="29.3945" x="494.4385" y="722.7793">Path</text><line style="stroke:#181818;stroke-width:0.5;" x1="412" x2="573.7715" y1="733.4883" y2="733.4883"/><text fill="#000000" font-family="sans-serif" font-size="14" lengthAdjust="spacing" textLength="78.6611" x="417" y="751.0234">-stationList</text><line style="stroke:#181818;stroke-width:0.5;" x1="412" x2="573.7715" y1="757.9766" y2="757.9766"/><text fill="#000000" font-family="sans-serif" font-size="14" lengthAdjust="spacing" textLength="151.7715" x="417" y="775.5117">+getOrderedStations()</text></g><!--class PendingFreight--><g class="entity" data-entity="PendingFreight" data-source-line="46" data-uid="ent0009" id="entity_PendingFreight"><rect fill="#F1F1F1" height="130.4414" rx="2.5" ry="2.5" style="stroke:#181818;stroke-width:0.5;" width="134.2383" x="613" y="851.4883"/><ellipse cx="628" cy="867.4883" fill="#ADD1B2" rx="11" ry="11" style="stroke:#181818;stroke-width:1;"/><path d="M630.9731,873.1313 Q630.3921,873.4302 629.7529,873.5796 Q629.1138,873.729 628.4082,873.729 Q625.9014,873.729 624.5815,872.0771 Q623.2617,870.4253 623.2617,867.3042 Q623.2617,864.1748 624.5815,862.5229 Q625.9014,860.8711 628.4082,860.8711 Q629.1138,860.8711 629.7612,861.0205 Q630.4087,861.1699 630.9731,861.4688 L630.9731,864.1914 Q630.3423,863.6104 629.7488,863.3406 Q629.1553,863.0708 628.5244,863.0708 Q627.1797,863.0708 626.4949,864.1375 Q625.8101,865.2041 625.8101,867.3042 Q625.8101,869.396 626.4949,870.4626 Q627.1797,871.5293 628.5244,871.5293 Q629.1553,871.5293 629.7488,871.2595 Q630.3423,870.9897 630.9731,870.4087 Z " fill="#000000"/><text fill="#000000" font-family="sans-serif" font-size="14" lengthAdjust="spacing" textLength="102.2383" x="642" y="872.7793">PendingFreight</text><line style="stroke:#181818;stroke-width:0.5;" x1="614" x2="746.2383" y1="883.4883" y2="883.4883"/><text fill="#000000" font-family="sans-serif" font-size="14" lengthAdjust="spacing" textLength="20.959" x="619" y="901.0234">-id</text><text fill="#000000" font-family="sans-serif" font-size="14" lengthAdjust="spacing" textLength="47.9404" x="619" y="917.5117">-origin</text><text fill="#000000" font-family="sans-serif" font-size="14" lengthAdjust="spacing" textLength="84.123" x="619" y="934">-destination</text><text fill="#000000" font-family="sans-serif" font-size="14" lengthAdjust="spacing" textLength="78.8389" x="619" y="950.4883">-cargoType</text><text fill="#000000" font-family="sans-serif" font-size="14" lengthAdjust="spacing" textLength="49.2666" x="619" y="966.9766">-status</text><line style="stroke:#181818;stroke-width:0.5;" x1="614" x2="746.2383" y1="973.9297" y2="973.9297"/></g><!--class CargoOperation--><g class="entity" data-entity="CargoOperation" data-source-line="54" data-uid="ent0010" id="entity_CargoOperation"><rect fill="#F1F1F1" height="97.4648" rx="2.5" ry="2.5" style="stroke:#181818;stroke-width:0.5;" width="139.9941" x="610" y="693.4883"/><ellipse cx="625" cy="709.4883" fill="#ADD1B2" rx="11" ry="11" style="stroke:#181818;stroke-width:1;"/><path d="M627.9731,715.1313 Q627.3921,715.4302 626.7529,715.5796 Q626.1138,715.729 625.4082,715.729 Q622.9014,715.729 621.5815,714.0771 Q620.2617,712.4253 620.2617,709.3042 Q620.2617,706.1748 621.5815,704.5229 Q622.9014,702.8711 625.4082,702.8711 Q626.1138,702.8711 626.7612,703.0205 Q627.4087,703.1699 627.9731,703.4688 L627.9731,706.1914 Q627.3423,705.6104 626.7488,705.3406 Q626.1553,705.0708 625.5244,705.0708 Q624.1797,705.0708 623.4949,706.1375 Q622.8101,707.2041 622.8101,709.3042 Q622.8101,711.396 623.4949,712.4626 Q624.1797,713.5293 625.5244,713.5293 Q626.1553,713.5293 626.7488,713.2595 Q627.3423,712.9897 627.9731,712.4087 Z " fill="#000000"/><text fill="#000000" font-family="sans-serif" font-size="14" lengthAdjust="spacing" textLength="107.9941" x="639" y="714.7793">CargoOperation</text><line style="stroke:#181818;stroke-width:0.5;" x1="611" x2="748.9941" y1="725.4883" y2="725.4883"/><text fill="#000000" font-family="sans-serif" font-size="14" lengthAdjust="spacing" textLength="37.2627" x="616" y="743.0234">-type</text><text fill="#000000" font-family="sans-serif" font-size="14" lengthAdjust="spacing" textLength="63.8545" x="616" y="759.5117">-quantity</text><line style="stroke:#181818;stroke-width:0.5;" x1="611" x2="748.9941" y1="766.4648" y2="766.4648"/><text fill="#000000" font-family="sans-serif" font-size="14" lengthAdjust="spacing" textLength="88.4844" x="616" y="784">+getDetails()</text></g><!--class FreightRepository--><g class="entity" data-entity="FreightRepository" data-source-line="60" data-uid="ent0011" id="entity_FreightRepository"><rect fill="#F1F1F1" height="80.9766" rx="2.5" ry="2.5" style="stroke:#181818;stroke-width:0.5;" width="151.8613" x="254" y="344.4883"/><ellipse cx="269" cy="360.4883" fill="#ADD1B2" rx="11" ry="11" style="stroke:#181818;stroke-width:1;"/><path d="M271.9731,366.1313 Q271.3921,366.4302 270.7529,366.5796 Q270.1138,366.729 269.4082,366.729 Q266.9014,366.729 265.5815,365.0771 Q264.2617,363.4253 264.2617,360.3042 Q264.2617,357.1748 265.5815,355.5229 Q266.9014,353.8711 269.4082,353.8711 Q270.1138,353.8711 270.7612,354.0205 Q271.4087,354.1699 271.9731,354.4688 L271.9731,357.1914 Q271.3423,356.6104 270.7488,356.3406 Q270.1553,356.0708 269.5244,356.0708 Q268.1797,356.0708 267.4949,357.1375 Q266.8101,358.2041 266.8101,360.3042 Q266.8101,362.396 267.4949,363.4626 Q268.1797,364.5293 269.5244,364.5293 Q270.1553,364.5293 270.7488,364.2595 Q271.3423,363.9897 271.9731,363.4087 Z " fill="#000000"/><text fill="#000000" font-family="sans-serif" font-size="14" lengthAdjust="spacing" textLength="119.8613" x="283" y="365.7793">FreightRepository</text><line style="stroke:#181818;stroke-width:0.5;" x1="255" x2="404.8613" y1="376.4883" y2="376.4883"/><line style="stroke:#181818;stroke-width:0.5;" x1="255" x2="404.8613" y1="384.4883" y2="384.4883"/><text fill="#000000" font-family="sans-serif" font-size="14" lengthAdjust="spacing" textLength="125.3984" x="260" y="402.0234">+findUnassigned()</text><text fill="#000000" font-family="sans-serif" font-size="14" lengthAdjust="spacing" textLength="125.3779" x="260" y="418.5117">+saveRoute(route)</text></g><!--class Station--><g class="entity" data-entity="Station" data-source-line="74" data-uid="ent0018" id="entity_Station"><rect fill="#F1F1F1" height="48" rx="2.5" ry="2.5" style="stroke:#181818;stroke-width:0.5;" width="79.0791" x="453.5" y="892.4883"/><ellipse cx="468.5" cy="908.4883" fill="#ADD1B2" rx="11" ry="11" style="stroke:#181818;stroke-width:1;"/><path d="M471.4731,914.1313 Q470.8921,914.4302 470.2529,914.5796 Q469.6138,914.729 468.9082,914.729 Q466.4014,914.729 465.0815,913.0771 Q463.7617,911.4253 463.7617,908.3042 Q463.7617,905.1748 465.0815,903.5229 Q466.4014,901.8711 468.9082,901.8711 Q469.6138,901.8711 470.2612,902.0205 Q470.9087,902.1699 471.4731,902.4688 L471.4731,905.1914 Q470.8423,904.6104 470.2488,904.3406 Q469.6553,904.0708 469.0244,904.0708 Q467.6797,904.0708 466.9949,905.1375 Q466.3101,906.2041 466.3101,908.3042 Q466.3101,910.396 466.9949,911.4626 Q467.6797,912.5293 469.0244,912.5293 Q469.6553,912.5293 470.2488,912.2595 Q470.8423,911.9897 471.4731,911.4087 Z " fill="#000000"/><text fill="#000000" font-family="sans-serif" font-size="14" lengthAdjust="spacing" textLength="47.0791" x="482.5" y="913.7793">Station</text><line style="stroke:#181818;stroke-width:0.5;" x1="454.5" x2="531.5791" y1="924.4883" y2="924.4883"/><line style="stroke:#181818;stroke-width:0.5;" x1="454.5" x2="531.5791" y1="932.4883" y2="932.4883"/></g><!--link RoutePlanningUI to RoutePlanningController--><g class="link" data-entity-1="RoutePlanningUI" data-entity-2="RoutePlanningController" data-source-line="66" data-uid="lnk12" id="link_RoutePlanningUI_RoutePlanningController"><path codeLine="66" d="M133,141.6283 C133,161.2383 133,177.6783 133,196.3683" fill="none" id="RoutePlanningUI-to-RoutePlanningController" style="stroke:#181818;stroke-width:1;stroke-dasharray:7,7;"/><polygon fill="#181818" points="133,202.3683,137,193.3683,133,197.3683,129,193.3683,133,202.3683" style="stroke:#181818;stroke-width:1;"/></g><!--link RoutePlanningController to RoutePlanningService--><g class="link" data-entity-1="RoutePlanningController" data-entity-2="RoutePlanningService" data-source-line="67" data-uid="lnk13" id="link_RoutePlanningController_RoutePlanningService"><path codeLine="67" d="M127.32,283.7283 C124.62,302.6483 122.2503,319.2788 119.5403,338.2088" fill="none" id="RoutePlanningController-to-RoutePlanningService" style="stroke:#181818;stroke-width:1;stroke-dasharray:7,7;"/><polygon fill="#181818" points="118.69,344.1483,123.9251,335.806,119.3986,339.1987,116.0058,334.6723,118.69,344.1483" style="stroke:#181818;stroke-width:1;"/></g><!--link RoutePlanningController to FreightRepository--><g class="link" data-entity-1="RoutePlanningController" data-entity-2="FreightRepository" data-source-line="68" data-uid="lnk14" id="link_RoutePlanningController_FreightRepository"><path codeLine="68" d="M189.19,283.9183 C215.69,302.7483 242.3393,321.6926 268.8493,340.5326" fill="none" id="RoutePlanningController-to-FreightRepository" style="stroke:#181818;stroke-width:1;stroke-dasharray:7,7;"/><polygon fill="#181818" points="273.74,344.0083,268.721,335.5342,269.6644,341.1118,264.0867,342.0552,273.74,344.0083" style="stroke:#181818;stroke-width:1;"/></g><!--reverse link Route to SimpleRoute--><g class="link" data-entity-1="Route" data-entity-2="SimpleRoute" data-source-line="70" data-uid="lnk15" id="link_Route_SimpleRoute"><path codeLine="70" d="M250.1285,645.4582 C222.9185,671.6782 205.69,688.2783 183.51,709.6583" fill="none" id="Route-backto-SimpleRoute" style="stroke:#181818;stroke-width:1;"/><polygon fill="none" points="263.09,632.9683,245.9652,641.1377,254.2918,649.7787,263.09,632.9683" style="stroke:#181818;stroke-width:1;"/></g><!--reverse link Route to ComplexRoute--><g class="link" data-entity-1="Route" data-entity-2="ComplexRoute" data-source-line="71" data-uid="lnk16" id="link_Route_ComplexRoute"><path codeLine="71" d="M320.4793,650.5988 C317.4393,676.8488 316.13,688.1283 313.64,709.5683" fill="none" id="Route-backto-ComplexRoute" style="stroke:#181818;stroke-width:1;"/><polygon fill="none" points="322.55,632.7183,314.5191,649.9085,326.4394,651.289,322.55,632.7183" style="stroke:#181818;stroke-width:1;"/></g><!--reverse link Route to Path--><g class="link" data-entity-1="Route" data-entity-2="Path" data-source-line="73" data-uid="lnk17" id="link_Route_Path"><path codeLine="73" d="M398.9399,641.442 C420.5699,664.342 436.06,680.7283 455.21,700.9983" fill="none" id="Route-backto-Path" style="stroke:#181818;stroke-width:1;"/><polygon fill="#181818" points="390.7,632.7183,391.9121,639.8268,398.9399,641.442,397.7279,634.3335,390.7,632.7183" style="stroke:#181818;stroke-width:1;"/><text fill="#000000" font-family="sans-serif" font-size="13" lengthAdjust="spacing" textLength="8.2202" x="389.2611" y="653.6885">1</text><text fill="#000000" font-family="sans-serif" font-size="13" lengthAdjust="spacing" textLength="8.2202" x="440.5855" y="690.8652">1</text></g><!--reverse link Path to Station--><g class="link" data-entity-1="Path" data-entity-2="Station" data-source-line="74" data-uid="lnk19" id="link_Path_Station"><path codeLine="74" d="M493,794.5583 C493,828.3783 493,863.8983 493,892.0183" fill="none" id="Path-backto-Station" style="stroke:#181818;stroke-width:1;"/><polygon fill="#181818" points="493,782.5583,489,788.5583,493,794.5583,497,788.5583,493,782.5583" style="stroke:#181818;stroke-width:1;"/><text fill="#000000" font-family="sans-serif" font-size="13" lengthAdjust="spacing" textLength="8.2202" x="484.3747" y="803.1159">1</text><text fill="#000000" font-family="sans-serif" font-size="13" lengthAdjust="spacing" textLength="34.1758" x="454.868" y="881.8318">many</text></g><!--reverse link Route to CargoOperation--><g class="link" data-entity-1="Route" data-entity-2="CargoOperation" data-source-line="76" data-uid="lnk20" id="link_Route_CargoOperation"><path codeLine="76" d="M425.5306,614.0653 C502.0806,650.5853 592,693.4883 592,693.4883 C592,693.4883 599.35,697.4583 609.81,703.0983" fill="none" id="Route-backto-CargoOperation" style="stroke:#181818;stroke-width:1;"/><polygon fill="#181818" points="414.7,608.8983,418.393,615.092,425.5306,614.0653,421.8376,607.8716,414.7,608.8983" style="stroke:#181818;stroke-width:1;"/><text fill="#000000" font-family="sans-serif" font-size="13" lengthAdjust="spacing" textLength="8.2202" x="422.6038" y="609.4809">1</text><text fill="#000000" font-family="sans-serif" font-size="13" lengthAdjust="spacing" textLength="34.1758" x="567.5793" y="687.9392">many</text></g><!--link CargoOperation to PendingFreight--><g class="link" data-entity-1="CargoOperation" data-entity-2="PendingFreight" data-source-line="77" data-uid="lnk21" id="link_CargoOperation_PendingFreight"><path codeLine="77" d="M680,790.5783 C680,809.3283 680,825.1483 680,845.2583" fill="none" id="CargoOperation-to-PendingFreight" style="stroke:#181818;stroke-width:1;"/><polygon fill="#181818" points="680,851.2583,684,842.2583,680,846.2583,676,842.2583,680,851.2583" style="stroke:#181818;stroke-width:1;"/><text fill="#000000" font-family="sans-serif" font-size="13" lengthAdjust="spacing" textLength="34.1758" x="643.5165" y="811.3735">many</text><text fill="#000000" font-family="sans-serif" font-size="13" lengthAdjust="spacing" textLength="8.2202" x="671.5615" y="840.8646">1</text></g><!--link FreightRepository to Route--><g class="link" data-entity-1="FreightRepository" data-entity-2="Route" data-source-line="79" data-uid="lnk22" id="link_FreightRepository_Route"><path codeLine="79" d="M330,425.5983 C330,448.0183 330,470.5883 330,496.1483" fill="none" id="FreightRepository-to-Route" style="stroke:#181818;stroke-width:1;stroke-dasharray:7,7;"/><polygon fill="#181818" points="330,502.1483,334,493.1483,330,497.1483,326,493.1483,330,502.1483" style="stroke:#181818;stroke-width:1;"/><text fill="#000000" font-family="sans-serif" font-size="13" lengthAdjust="spacing" textLength="49.2451" x="331" y="469.0566">persists</text></g><!--SRC=[VLFRRjim37tNLmXvMRBLHVSs34M1mi600WKQnCq7S3RZ49KbLwAxUPT_dsHRZfqqyuCluk4XUNZiNaZNOA6IDUGlK6B6hK9fCMVGfKBXHe0xG65-a2xb7fIRHXHfvBP6MHlLXWyXcDZJf0gSask2Ci2MwNeb4xdB7ZStNyGaFm-mUsPBtnl6XzpeZ7wXl16YYyYjySSR1Lhxwhi7-Lj8VtsoZLwk-jU2NAsWtQ0kFEIRHIeFx6BKrscu8raZ0waG-FikUMeqMwCKsbYaHBx0cbi4nZ5zkU_ZZ-JuIWOvBXN9qBvHZiSA6grdsW0V8ecB306HvA3oHdb8XgyDwXn7s6c9WJEXedyw1ijhdpdvVAOAnzao1YQlToHUZP4KR6cUwj2Q1ymaowYg5SuAUcAVCqXqHAOc87_Ee1ETZi0mV0IulgSE4BjviWLQB8PsPztCrtEgWB5KakxV2tHCkcE8mlePdxtGnyADctG_as0STSI_Dg2zqTknotViDRIrnTeuOcFRkFOzwMAdFOHAZKKKti5RB-pIXdj7z45kKK7kMu0ADHidJd-8w-kxIpuMb_nzbZFOyhy9PzE87Yvl_oJ9r1VJuwa98dxnUI4_-bXuXjsBpW3ZQGMwNSXXssSvVNI-7N6oh06K97TzZPb9X3XVowY7_2ezY_FkS_y0]--></g></svg>