<svg xmlns="http://www.w3.org/2000/svg" xmlns:xlink="http://www.w3.org/1999/xlink" contentStyleType="text/css" data-diagram-type="CLASS" height="774px" preserveAspectRatio="none" style="width:531px;height:774px;background:#FFFFFF;" version="1.1" viewBox="0 0 531 774" width="531px" zoomAndPan="magnify"><title>Domain Model - USLP08 (Route Planning)</title><defs/><g><g class="title" data-source-line="1"><text fill="#000000" font-family="sans-serif" font-size="14" font-weight="bold" lengthAdjust="spacing" textLength="299.585" x="108.7532" y="23.5352">Domain Model - USLP08 (Route Planning)</text></g><!--class FreightManager--><g class="entity" data-entity="FreightManager" data-source-line="7" data-uid="ent0002" id="entity_FreightManager"><rect fill="#F1F1F1" height="34.4883" rx="2.5" ry="2.5" style="stroke:#181818;stroke-width:0.5;" width="112.2031" x="236" y="44.4883"/><text fill="#000000" font-family="sans-serif" font-size="14" lengthAdjust="spacing" textLength="106.2031" x="239" y="63.0234">FreightManager</text><line style="stroke:#181818;stroke-width:0.5;" x1="237" x2="347.2031" y1="70.9766" y2="70.9766"/></g><!--class PendingFreight--><g class="entity" data-entity="PendingFreight" data-source-line="8" data-uid="ent0003" id="entity_PendingFreight"><rect fill="#F1F1F1" height="83.9531" rx="2.5" ry="2.5" style="stroke:#181818;stroke-width:0.5;" width="108.2383" x="118" y="444.4883"/><text fill="#000000" font-family="sans-serif" font-size="14" lengthAdjust="spacing" textLength="102.2383" x="121" y="463.0234">PendingFreight</text><line style="stroke:#181818;stroke-width:0.5;" x1="119" x2="225.2383" y1="470.9766" y2="470.9766"/><text fill="#000000" font-family="sans-serif" font-size="14" lengthAdjust="spacing" textLength="39.8398" x="124" y="488.5117">origin</text><text fill="#000000" font-family="sans-serif" font-size="14" lengthAdjust="spacing" textLength="76.0225" x="124" y="505">destination</text><text fill="#000000" font-family="sans-serif" font-size="14" lengthAdjust="spacing" textLength="84.4443" x="124" y="521.4883">cargoDetails</text></g><!--class Route--><g class="entity" data-entity="Route" data-source-line="14" data-uid="ent0004" id="entity_Route"><rect fill="#F1F1F1" height="67.4648" rx="2.5" ry="2.5" style="stroke:#181818;stroke-width:0.5;" width="76.8389" x="253.5" y="155.4883"/><text fill="#000000" font-family="sans-serif" font-size="14" lengthAdjust="spacing" textLength="39.1768" x="272.3311" y="174.0234">Route</text><line style="stroke:#181818;stroke-width:0.5;" x1="254.5" x2="329.3389" y1="181.9766" y2="181.9766"/><text fill="#000000" font-family="sans-serif" font-size="14" lengthAdjust="spacing" textLength="62.3232" x="259.5" y="199.5117">startDate</text><text fill="#000000" font-family="sans-serif" font-size="14" lengthAdjust="spacing" textLength="64.8389" x="259.5" y="216">startTime</text></g><!--class SimpleRoute--><g class="entity" data-entity="SimpleRoute" data-source-line="19" data-uid="ent0005" id="entity_SimpleRoute"><rect fill="#F1F1F1" height="34.4883" rx="2.5" ry="2.5" style="stroke:#181818;stroke-width:0.5;" width="90.4922" x="7" y="299.4883"/><text fill="#000000" font-family="sans-serif" font-size="14" lengthAdjust="spacing" textLength="84.4922" x="10" y="318.0234">SimpleRoute</text><line style="stroke:#181818;stroke-width:0.5;" x1="8" x2="96.4922" y1="325.9766" y2="325.9766"/></g><!--class ComplexRoute--><g class="entity" data-entity="ComplexRoute" data-source-line="20" data-uid="ent0006" id="entity_ComplexRoute"><rect fill="#F1F1F1" height="34.4883" rx="2.5" ry="2.5" style="stroke:#181818;stroke-width:0.5;" width="105.7773" x="135" y="299.4883"/><text fill="#000000" font-family="sans-serif" font-size="14" lengthAdjust="spacing" textLength="99.7773" x="138" y="318.0234">ComplexRoute</text><line style="stroke:#181818;stroke-width:0.5;" x1="136" x2="239.7773" y1="325.9766" y2="325.9766"/></g><!--class Path--><g class="entity" data-entity="Path" data-source-line="22" data-uid="ent0007" id="entity_Path"><rect fill="#F1F1F1" height="50.9766" rx="2.5" ry="2.5" style="stroke:#181818;stroke-width:0.5;" width="122.9746" x="381.5" y="363.4883"/><text fill="#000000" font-family="sans-serif" font-size="14" lengthAdjust="spacing" textLength="29.3945" x="428.29" y="382.0234">Path</text><line style="stroke:#181818;stroke-width:0.5;" x1="382.5" x2="503.4746" y1="389.9766" y2="389.9766"/><text fill="#000000" font-family="sans-serif" font-size="14" lengthAdjust="spacing" textLength="110.9746" x="387.5" y="407.5117">stationSequence</text></g><!--class Station--><g class="entity" data-entity="Station" data-source-line="26" data-uid="ent0008" id="entity_Station"><rect fill="#F1F1F1" height="34.4883" rx="2.5" ry="2.5" style="stroke:#181818;stroke-width:0.5;" width="53.0791" x="350.5" y="733.4883"/><text fill="#000000" font-family="sans-serif" font-size="14" lengthAdjust="spacing" textLength="47.0791" x="353.5" y="752.0234">Station</text><line style="stroke:#181818;stroke-width:0.5;" x1="351.5" x2="402.5791" y1="759.9766" y2="759.9766"/></g><!--class CargoOperation--><g class="entity" data-entity="CargoOperation" data-source-line="27" data-uid="ent0009" id="entity_CargoOperation"><rect fill="#F1F1F1" height="50.9766" rx="2.5" ry="2.5" style="stroke:#181818;stroke-width:0.5;" width="113.9941" x="254" y="605.4883"/><text fill="#000000" font-family="sans-serif" font-size="14" lengthAdjust="spacing" textLength="107.9941" x="257" y="624.0234">CargoOperation</text><line style="stroke:#181818;stroke-width:0.5;" x1="255" x2="366.9941" y1="631.9766" y2="631.9766"/><text fill="#000000" font-family="sans-serif" font-size="14" lengthAdjust="spacing" textLength="55.7539" x="260" y="649.5117">quantity</text></g><!--link FreightManager to Route--><g class="link" data-entity-1="FreightManager" data-entity-2="Route" data-source-line="33" data-uid="lnk10" id="link_FreightManager_Route"><path codeLine="33" d="M292,78.8983 C292,98.1683 292,130.5983 292,155.1083" fill="none" id="FreightManager-Route" style="stroke:#181818;stroke-width:1;"/><polygon fill="#000000" points="297,122.1436,299.9389,113.0985,294.0611,113.0985,297,122.1436" style="stroke:#000000;stroke-width:1;"/><text fill="#000000" font-family="sans-serif" font-size="13" lengthAdjust="spacing" textLength="99.709" x="306" y="122.0566">defines/assigns</text><text fill="#000000" font-family="sans-serif" font-size="13" lengthAdjust="spacing" textLength="8.2202" x="282.6778" y="99.6886">1</text><text fill="#000000" font-family="sans-serif" font-size="13" lengthAdjust="spacing" textLength="22.7119" x="267.9863" y="144.7739">0..*</text></g><!--reverse link Route to Path--><g class="link" data-entity-1="Route" data-entity-2="Path" data-source-line="34" data-uid="lnk11" id="link_Route_Path"><path codeLine="34" d="M324.2083,232.229 C354.2883,271.659 396.89,327.5183 424.01,363.0883" fill="none" id="Route-backto-Path" style="stroke:#181818;stroke-width:1;"/><polygon fill="#181818" points="316.93,222.6883,317.3889,229.8848,324.2083,232.229,323.7494,225.0325,316.93,222.6883" style="stroke:#181818;stroke-width:1;"/><polygon fill="#000000" points="359.0321,265.1193,355.8838,256.1449,351.2101,259.7094,359.0321,265.1193" style="stroke:#000000;stroke-width:1;"/><text fill="#000000" font-family="sans-serif" font-size="13" lengthAdjust="spacing" textLength="44.9097" x="365" y="266.0566">follows</text><text fill="#000000" font-family="sans-serif" font-size="13" lengthAdjust="spacing" textLength="8.2202" x="313.2861" y="243.7382">1</text><text fill="#000000" font-family="sans-serif" font-size="13" lengthAdjust="spacing" textLength="8.2202" x="410.4361" y="352.5561">1</text></g><!--reverse link Path to Station--><g class="link" data-entity-1="Path" data-entity-2="Station" data-source-line="35" data-uid="lnk12" id="link_Path_Station"><path codeLine="35" d="M445.1727,426.9546 C447.7727,481.3746 448.63,601.9583 410,703.4883 C405.88,714.3283 398.54,724.9483 391.83,733.2483" fill="none" id="Path-backto-Station" style="stroke:#181818;stroke-width:1;"/><polygon fill="#181818" points="444.6,414.9683,440.8909,421.1523,445.1727,426.9546,448.8818,420.7706,444.6,414.9683" style="stroke:#181818;stroke-width:1;"/><polygon fill="#000000" points="445.1421,572.0694,449.5894,563.6627,443.7987,562.6542,445.1421,572.0694" style="stroke:#000000;stroke-width:1;"/><text fill="#000000" font-family="sans-serif" font-size="13" lengthAdjust="spacing" textLength="68.0913" x="455" y="572.0566">consists of</text><text fill="#000000" font-family="sans-serif" font-size="13" lengthAdjust="spacing" textLength="8.2202" x="436.1019" y="434.8969">1</text><text fill="#000000" font-family="sans-serif" font-size="13" lengthAdjust="spacing" textLength="22.7119" x="371.2035" y="722.5921">2..*</text></g><!--reverse link Route to SimpleRoute--><g class="link" data-entity-1="Route" data-entity-2="SimpleRoute" data-source-line="37" data-uid="lnk13" id="link_Route_SimpleRoute"><path codeLine="37" d="M237.2195,218.6299 C189.9895,243.3299 127.13,276.1983 83.49,299.0183" fill="none" id="Route-backto-SimpleRoute" style="stroke:#181818;stroke-width:1;"/><polygon fill="none" points="253.17,210.2883,234.439,213.3131,240.0001,223.9467,253.17,210.2883" style="stroke:#181818;stroke-width:1;"/></g><!--reverse link Route to ComplexRoute--><g class="link" data-entity-1="Route" data-entity-2="ComplexRoute" data-source-line="38" data-uid="lnk14" id="link_Route_ComplexRoute"><path codeLine="38" d="M253.1928,236.8163 C232.8428,261.3663 217.43,279.9683 201.5,299.1983" fill="none" id="Route-backto-ComplexRoute" style="stroke:#181818;stroke-width:1;"/><polygon fill="none" points="264.68,222.9583,248.5735,232.9872,257.8121,240.6454,264.68,222.9583" style="stroke:#181818;stroke-width:1;"/></g><!--link SimpleRoute to PendingFreight--><g class="link" data-entity-1="SimpleRoute" data-entity-2="PendingFreight" data-source-line="40" data-uid="lnk15" id="link_SimpleRoute_PendingFreight"><path codeLine="40" d="M48.71,333.9183 C45.54,354.3483 43.13,389.5683 58,414.4883 C71.5,437.1183 95.29,453.5983 117.66,464.9583" fill="none" id="SimpleRoute-PendingFreight" style="stroke:#181818;stroke-width:1;"/><polygon fill="#000000" points="65.3282,393.5684,63.7173,384.1953,58.5156,386.9323,65.3282,393.5684" style="stroke:#000000;stroke-width:1;"/><text fill="#000000" font-family="sans-serif" font-size="13" lengthAdjust="spacing" textLength="84.8809" x="72" y="394.0566">accomplishes</text><text fill="#000000" font-family="sans-serif" font-size="13" lengthAdjust="spacing" textLength="8.2202" x="38.343" y="354.4048">1</text><text fill="#000000" font-family="sans-serif" font-size="13" lengthAdjust="spacing" textLength="8.2202" x="101.8193" y="458.6497">1</text></g><!--link ComplexRoute to PendingFreight--><g class="link" data-entity-1="ComplexRoute" data-entity-2="PendingFreight" data-source-line="41" data-uid="lnk16" id="link_ComplexRoute_PendingFreight"><path codeLine="41" d="M179.52,333.6083 C175.46,342.2183 171.05,353.1483 169,363.4883 C163.74,389.9883 164.47,420.3483 166.52,444.1583" fill="none" id="ComplexRoute-PendingFreight" style="stroke:#181818;stroke-width:1;"/><polygon fill="#000000" points="173.4161,394.1093,177.3912,385.4694,171.5536,384.7829,173.4161,394.1093" style="stroke:#000000;stroke-width:1;"/><text fill="#000000" font-family="sans-serif" font-size="13" lengthAdjust="spacing" textLength="84.8809" x="183" y="394.0566">accomplishes</text><text fill="#000000" font-family="sans-serif" font-size="13" lengthAdjust="spacing" textLength="8.2202" x="167.3061" y="354.6092">1</text><text fill="#000000" font-family="sans-serif" font-size="13" lengthAdjust="spacing" textLength="22.7119" x="141.9312" y="433.8135">1..*</text></g><!--reverse link Route to CargoOperation--><g class="link" data-entity-1="Route" data-entity-2="CargoOperation" data-source-line="43" data-uid="lnk17" id="link_Route_CargoOperation"><path codeLine="43" d="M293.0691,234.7146 C294.1591,278.4346 296.04,346.3083 299,414.4883 C302,483.5583 306.91,565.0083 309.42,605.1083" fill="none" id="Route-backto-CargoOperation" style="stroke:#181818;stroke-width:1;"/><polygon fill="#181818" points="292.77,222.7183,288.9208,228.8161,293.0691,234.7146,296.9183,228.6167,292.77,222.7183" style="stroke:#181818;stroke-width:1;"/><polygon fill="#000000" points="304.2205,394.1387,306.7577,384.9728,300.8855,385.232,304.2205,394.1387" style="stroke:#000000;stroke-width:1;"/><text fill="#000000" font-family="sans-serif" font-size="13" lengthAdjust="spacing" textLength="50.8955" x="313" y="394.0566">involves</text><text fill="#000000" font-family="sans-serif" font-size="13" lengthAdjust="spacing" textLength="8.2202" x="284.1431" y="243.7744">1</text><text fill="#000000" font-family="sans-serif" font-size="13" lengthAdjust="spacing" textLength="22.7119" x="284.4411" y="594.581">1..*</text></g><!--link CargoOperation to Station--><g class="link" data-entity-1="CargoOperation" data-entity-2="Station" data-source-line="44" data-uid="lnk18" id="link_CargoOperation_Station"><path codeLine="44" d="M316.16,656.9483 C319.79,671.2283 325.54,689.0983 334,703.4883 C340.43,714.4183 349.86,724.8883 358.25,733.0683" fill="none" id="CargoOperation-Station" style="stroke:#181818;stroke-width:1;"/><polygon fill="#000000" points="341.4195,699.5192,339.6145,690.1815,334.4707,693.0257,341.4195,699.5192" style="stroke:#000000;stroke-width:1;"/><text fill="#000000" font-family="sans-serif" font-size="13" lengthAdjust="spacing" textLength="57.4717" x="348" y="700.0566">occurs at</text><text fill="#000000" font-family="sans-serif" font-size="13" lengthAdjust="spacing" textLength="8.2202" x="308.4385" y="676.8725">1</text><text fill="#000000" font-family="sans-serif" font-size="13" lengthAdjust="spacing" textLength="8.2202" x="343.0209" y="722.6651">1</text></g><!--link PendingFreight to CargoOperation--><g class="link" data-entity-1="PendingFreight" data-entity-2="CargoOperation" data-source-line="45" data-uid="lnk19" id="link_PendingFreight_CargoOperation"><path codeLine="45" d="M191.65,528.7983 C200.43,544.5583 211.79,561.9683 225,575.4883 C236,586.7383 249.74,596.7483 262.99,605.0283" fill="none" id="PendingFreight-CargoOperation" style="stroke:#181818;stroke-width:1;"/><polygon fill="#000000" points="233.4165,570.7942,229.3818,562.1819,225.0902,566.1983,233.4165,570.7942" style="stroke:#000000;stroke-width:1;"/><text fill="#000000" font-family="sans-serif" font-size="13" lengthAdjust="spacing" textLength="45.8999" x="239" y="572.0566">defines</text><text fill="#000000" font-family="sans-serif" font-size="13" lengthAdjust="spacing" textLength="8.2202" x="186.045" y="549.0212">1</text><text fill="#000000" font-family="sans-serif" font-size="13" lengthAdjust="spacing" textLength="8.2202" x="242.9888" y="594.8976">2</text></g><!--SRC=[XL7BJiCm4BpxArQzK93wW1Eg41SgJgseMlY0bRDDLdBiDjuMAk3ViPsK9814BevdPsPdry9Y2EQkHBQmT1aP6C7BPh6Qti9mxGv2i39eBTlyKgc2CmBDbJPK_vSaXSkyKaeRz1uUA-Aya2LQpAbgm1NPBEYR6hmh29-hE6URVZFomXQ5NNtNMELkJe9ilFeyMzTXQh4Nh6IEGktjcKjgoHikTuQIf44UN4JUQkWS3ALe7MF_3UqFP7NNgIwSNMAqfnrL2MoqSjeH31SEiycBDU6uJF3-W5POJj7h0jPaK0SDbcJ5UTNV50ok1p0QmM0w7byDcbbdOJDRjkGdeJNdriEzgYkHVHNfuKn3p63hZ76laPA0RyPDCcoc23pjh6Sl7jmsS1k_kuz0xUwi0_SNro5zPuuX-ayy0zGwwjWN53DrJLfTYlQVzDV8IVNZ8MR0zkZCiMxMhtLYjcjmMXyg3oXnOVq4P_xD7rsQ1mcYBm00]--></g></svg>