<svg xmlns="http://www.w3.org/2000/svg" xmlns:xlink="http://www.w3.org/1999/xlink" contentStyleType="text/css" height="858px" preserveAspectRatio="none" style="width:745px;height:858px;background:#FFFFFF;" version="1.1" viewBox="0 0 745 858" width="745px" zoomAndPan="magnify"><defs/><g><!--class CreateMapUI--><g id="elem_CreateMapUI"><rect codeLine="11" fill="#F1F1F1" height="64.4883" id="CreateMapUI" rx="2.5" ry="2.5" style="stroke:#181818;stroke-width:0.5;" width="118.3174" x="212" y="7"/><ellipse cx="227" cy="23" fill="#ADD1B2" rx="11" ry="11" style="stroke:#181818;stroke-width:1.0;"/><path d="M229.9731,28.6431 Q229.3921,28.9419 228.7529,29.0913 Q228.1138,29.2407 227.4082,29.2407 Q224.9014,29.2407 223.5815,27.5889 Q222.2617,25.937 222.2617,22.8159 Q222.2617,19.6865 223.5815,18.0347 Q224.9014,16.3828 227.4082,16.3828 Q228.1138,16.3828 228.7612,16.5322 Q229.4087,16.6816 229.9731,16.9805 L229.9731,19.7031 Q229.3423,19.1221 228.7488,18.8523 Q228.1553,18.5825 227.5244,18.5825 Q226.1797,18.5825 225.4949,19.6492 Q224.8101,20.7158 224.8101,22.8159 Q224.8101,24.9077 225.4949,25.9744 Q226.1797,27.041 227.5244,27.041 Q228.1553,27.041 228.7488,26.7712 Q229.3423,26.5015 229.9731,25.9204 Z " fill="#000000"/><text fill="#000000" font-family="sans-serif" font-size="14" lengthAdjust="spacing" textLength="86.3174" x="241" y="28.291">CreateMapUI</text><line style="stroke:#181818;stroke-width:0.5;" x1="213" x2="329.3174" y1="39" y2="39"/><line style="stroke:#181818;stroke-width:0.5;" x1="213" x2="329.3174" y1="47" y2="47"/><text fill="#000000" font-family="sans-serif" font-size="14" lengthAdjust="spacing" textLength="90.3027" x="218" y="64.5352">+createMap()</text></g><!--class MapForm--><g id="elem_MapForm"><rect codeLine="15" fill="#F1F1F1" height="146.9297" id="MapForm" rx="2.5" ry="2.5" style="stroke:#181818;stroke-width:0.5;" width="106.2197" x="7" y="306"/><ellipse cx="26.8212" cy="322" fill="#ADD1B2" rx="11" ry="11" style="stroke:#181818;stroke-width:1.0;"/><path d="M29.7944,327.6431 Q29.2133,327.9419 28.5742,328.0913 Q27.935,328.2407 27.2294,328.2407 Q24.7226,328.2407 23.4028,326.5889 Q22.083,324.937 22.083,321.8159 Q22.083,318.6865 23.4028,317.0347 Q24.7226,315.3828 27.2294,315.3828 Q27.935,315.3828 28.5825,315.5322 Q29.2299,315.6816 29.7944,315.9805 L29.7944,318.7031 Q29.1635,318.1221 28.57,317.8523 Q27.9765,317.5825 27.3457,317.5825 Q26.0009,317.5825 25.3161,318.6492 Q24.6313,319.7158 24.6313,321.8159 Q24.6313,323.9077 25.3161,324.9744 Q26.0009,326.041 27.3457,326.041 Q27.9765,326.041 28.57,325.7712 Q29.1635,325.5015 29.7944,324.9204 Z " fill="#000000"/><text fill="#000000" font-family="sans-serif" font-size="14" lengthAdjust="spacing" textLength="63.5059" x="41.8926" y="327.291">MapForm</text><line style="stroke:#181818;stroke-width:0.5;" x1="8" x2="112.2197" y1="338" y2="338"/><text fill="#000000" font-family="sans-serif" font-size="14" lengthAdjust="spacing" textLength="94.2197" x="13" y="355.5352">-name: String</text><text fill="#000000" font-family="sans-serif" font-size="14" lengthAdjust="spacing" textLength="72.502" x="13" y="372.0234">-width: int</text><text fill="#000000" font-family="sans-serif" font-size="14" lengthAdjust="spacing" textLength="78.1211" x="13" y="388.5117">-height: int</text><line style="stroke:#181818;stroke-width:0.5;" x1="8" x2="112.2197" y1="395.4648" y2="395.4648"/><text fill="#000000" font-family="sans-serif" font-size="14" lengthAdjust="spacing" textLength="80.9443" x="13" y="413">+getName()</text><text fill="#000000" font-family="sans-serif" font-size="14" lengthAdjust="spacing" textLength="80.7598" x="13" y="429.4883">+getWidth()</text><text fill="#000000" font-family="sans-serif" font-size="14" lengthAdjust="spacing" textLength="86.7891" x="13" y="445.9766">+getHeight()</text></g><!--class Map--><g id="elem_Map"><rect codeLine="24" fill="#F1F1F1" height="163.418" id="Map" rx="2.5" ry="2.5" style="stroke:#181818;stroke-width:0.5;" width="133.7002" x="204" y="688"/><ellipse cx="252.2993" cy="704" fill="#ADD1B2" rx="11" ry="11" style="stroke:#181818;stroke-width:1.0;"/><path d="M255.2725,709.6431 Q254.6914,709.9419 254.0522,710.0913 Q253.4131,710.2407 252.7075,710.2407 Q250.2007,710.2407 248.8809,708.5889 Q247.561,706.937 247.561,703.8159 Q247.561,700.6865 248.8809,699.0347 Q250.2007,697.3828 252.7075,697.3828 Q253.4131,697.3828 254.0605,697.5322 Q254.708,697.6816 255.2725,697.9805 L255.2725,700.7031 Q254.6416,700.1221 254.0481,699.8523 Q253.4546,699.5825 252.8237,699.5825 Q251.479,699.5825 250.7942,700.6492 Q250.1094,701.7158 250.1094,703.8159 Q250.1094,705.9077 250.7942,706.9744 Q251.479,708.041 252.8237,708.041 Q253.4546,708.041 254.0481,707.7712 Q254.6416,707.5015 255.2725,706.9204 Z " fill="#000000"/><text fill="#000000" font-family="sans-serif" font-size="14" lengthAdjust="spacing" textLength="28.6016" x="272.7993" y="709.291">Map</text><line style="stroke:#181818;stroke-width:0.5;" x1="205" x2="336.7002" y1="720" y2="720"/><text fill="#000000" font-family="sans-serif" font-size="14" lengthAdjust="spacing" textLength="47.79" x="210" y="737.5352">-id: int</text><text fill="#000000" font-family="sans-serif" font-size="14" lengthAdjust="spacing" textLength="94.2197" x="210" y="754.0234">-name: String</text><text fill="#000000" font-family="sans-serif" font-size="14" lengthAdjust="spacing" textLength="72.502" x="210" y="770.5117">-width: int</text><text fill="#000000" font-family="sans-serif" font-size="14" lengthAdjust="spacing" textLength="78.1211" x="210" y="787">-height: int</text><line style="stroke:#181818;stroke-width:0.5;" x1="205" x2="336.7002" y1="793.9531" y2="793.9531"/><text fill="#000000" font-family="sans-serif" font-size="14" lengthAdjust="spacing" textLength="54.8447" x="210" y="811.4883">+getId()</text><text fill="#000000" font-family="sans-serif" font-size="14" lengthAdjust="spacing" textLength="80.9443" x="210" y="827.9766">+getName()</text><text fill="#000000" font-family="sans-serif" font-size="14" lengthAdjust="spacing" textLength="121.7002" x="210" y="844.4648">+getDimensions()</text></g><!--class MapController--><g id="elem_MapController"><rect codeLine="34" fill="#F1F1F1" height="80.9766" id="MapController" rx="2.5" ry="2.5" style="stroke:#181818;stroke-width:0.5;" width="256.6035" x="142.5" y="148"/><ellipse cx="218.1704" cy="164" fill="#ADD1B2" rx="11" ry="11" style="stroke:#181818;stroke-width:1.0;"/><path d="M221.1436,169.6431 Q220.5625,169.9419 219.9233,170.0913 Q219.2842,170.2407 218.5786,170.2407 Q216.0718,170.2407 214.752,168.5889 Q213.4321,166.937 213.4321,163.8159 Q213.4321,160.6865 214.752,159.0347 Q216.0718,157.3828 218.5786,157.3828 Q219.2842,157.3828 219.9316,157.5322 Q220.5791,157.6816 221.1436,157.9805 L221.1436,160.7031 Q220.5127,160.1221 219.9192,159.8523 Q219.3257,159.5825 218.6948,159.5825 Q217.3501,159.5825 216.6653,160.6492 Q215.9805,161.7158 215.9805,163.8159 Q215.9805,165.9077 216.6653,166.9744 Q217.3501,168.041 218.6948,168.041 Q219.3257,168.041 219.9192,167.7712 Q220.5127,167.5015 221.1436,166.9204 Z " fill="#000000"/><text fill="#000000" font-family="sans-serif" font-size="14" lengthAdjust="spacing" textLength="96.7627" x="238.6704" y="169.291">MapController</text><line style="stroke:#181818;stroke-width:0.5;" x1="143.5" x2="398.1035" y1="180" y2="180"/><line style="stroke:#181818;stroke-width:0.5;" x1="143.5" x2="398.1035" y1="188" y2="188"/><text fill="#000000" font-family="sans-serif" font-size="14" lengthAdjust="spacing" textLength="162.7158" x="148.5" y="205.5352">+showForm(): MapForm</text><text fill="#000000" font-family="sans-serif" font-size="14" lengthAdjust="spacing" textLength="244.6035" x="148.5" y="222.0234">+submitForm(form: MapForm): void</text></g><!--class Repositories--><g id="elem_Repositories"><rect codeLine="39" fill="#F1F1F1" height="64.4883" id="Repositories" rx="2.5" ry="2.5" style="stroke:#181818;stroke-width:0.5;" width="244.6748" x="148.5" y="347.5"/><ellipse cx="224.6899" cy="363.5" fill="#ADD1B2" rx="11" ry="11" style="stroke:#181818;stroke-width:1.0;"/><path d="M227.6631,369.1431 Q227.082,369.4419 226.4429,369.5913 Q225.8037,369.7407 225.0981,369.7407 Q222.5913,369.7407 221.2715,368.0889 Q219.9517,366.437 219.9517,363.3159 Q219.9517,360.1865 221.2715,358.5347 Q222.5913,356.8828 225.0981,356.8828 Q225.8037,356.8828 226.4512,357.0322 Q227.0986,357.1816 227.6631,357.4805 L227.6631,360.2031 Q227.0322,359.6221 226.4387,359.3523 Q225.8452,359.0825 225.2144,359.0825 Q223.8696,359.0825 223.1848,360.1492 Q222.5,361.2158 222.5,363.3159 Q222.5,365.4077 223.1848,366.4744 Q223.8696,367.541 225.2144,367.541 Q225.8452,367.541 226.4387,367.2712 Q227.0322,367.0015 227.6631,366.4204 Z " fill="#000000"/><text fill="#000000" font-family="sans-serif" font-size="14" lengthAdjust="spacing" textLength="83.7949" x="245.1899" y="368.791">Repositories</text><line style="stroke:#181818;stroke-width:0.5;" x1="149.5" x2="392.1748" y1="379.5" y2="379.5"/><line style="stroke:#181818;stroke-width:0.5;" x1="149.5" x2="392.1748" y1="387.5" y2="387.5"/><text fill="#000000" font-family="sans-serif" font-size="14" lengthAdjust="spacing" textLength="232.6748" x="154.5" y="405.0352">+createMap(form: MapForm): Map</text></g><!--class Validator--><g id="elem_Validator"><rect codeLine="43" fill="#F1F1F1" height="80.9766" id="Validator" rx="2.5" ry="2.5" style="stroke:#181818;stroke-width:0.5;" width="309.7188" x="429" y="339"/><ellipse cx="549.0664" cy="355" fill="#ADD1B2" rx="11" ry="11" style="stroke:#181818;stroke-width:1.0;"/><path d="M552.0396,360.6431 Q551.4585,360.9419 550.8193,361.0913 Q550.1802,361.2407 549.4746,361.2407 Q546.9678,361.2407 545.6479,359.5889 Q544.3281,357.937 544.3281,354.8159 Q544.3281,351.6865 545.6479,350.0347 Q546.9678,348.3828 549.4746,348.3828 Q550.1802,348.3828 550.8276,348.5322 Q551.4751,348.6816 552.0396,348.9805 L552.0396,351.7031 Q551.4087,351.1221 550.8152,350.8523 Q550.2217,350.5825 549.5908,350.5825 Q548.2461,350.5825 547.5613,351.6492 Q546.8765,352.7158 546.8765,354.8159 Q546.8765,356.9077 547.5613,357.9744 Q548.2461,359.041 549.5908,359.041 Q550.2217,359.041 550.8152,358.7712 Q551.4087,358.5015 552.0396,357.9204 Z " fill="#000000"/><text fill="#000000" font-family="sans-serif" font-size="14" lengthAdjust="spacing" textLength="61.0859" x="569.5664" y="360.291">Validator</text><line style="stroke:#181818;stroke-width:0.5;" x1="430" x2="737.7188" y1="371" y2="371"/><line style="stroke:#181818;stroke-width:0.5;" x1="430" x2="737.7188" y1="379" y2="379"/><text fill="#000000" font-family="sans-serif" font-size="14" lengthAdjust="spacing" textLength="261.085" x="435" y="396.5352">+validateName(name: String): boolean</text><text fill="#000000" font-family="sans-serif" font-size="14" lengthAdjust="spacing" textLength="297.7188" x="435" y="413.0234">+validateDimensions(w: int, h: int): boolean</text></g><!--class MapRepository--><g id="elem_MapRepository"><rect codeLine="48" fill="#F1F1F1" height="80.9766" id="MapRepository" rx="2.5" ry="2.5" style="stroke:#181818;stroke-width:0.5;" width="166.6836" x="187.5" y="530"/><ellipse cx="217.7802" cy="546" fill="#ADD1B2" rx="11" ry="11" style="stroke:#181818;stroke-width:1.0;"/><path d="M220.7534,551.6431 Q220.1723,551.9419 219.5332,552.0913 Q218.894,552.2407 218.1884,552.2407 Q215.6816,552.2407 214.3618,550.5889 Q213.0419,548.937 213.0419,545.8159 Q213.0419,542.6865 214.3618,541.0347 Q215.6816,539.3828 218.1884,539.3828 Q218.894,539.3828 219.5415,539.5322 Q220.1889,539.6816 220.7534,539.9805 L220.7534,542.7031 Q220.1225,542.1221 219.529,541.8523 Q218.9355,541.5825 218.3046,541.5825 Q216.9599,541.5825 216.2751,542.6492 Q215.5903,543.7158 215.5903,545.8159 Q215.5903,547.9077 216.2751,548.9744 Q216.9599,550.041 218.3046,550.041 Q218.9355,550.041 219.529,549.7712 Q220.1225,549.5015 220.7534,548.9204 Z " fill="#000000"/><text fill="#000000" font-family="sans-serif" font-size="14" lengthAdjust="spacing" textLength="100.7275" x="235.1758" y="551.291">MapRepository</text><line style="stroke:#181818;stroke-width:0.5;" x1="188.5" x2="353.1836" y1="562" y2="562"/><line style="stroke:#181818;stroke-width:0.5;" x1="188.5" x2="353.1836" y1="570" y2="570"/><text fill="#000000" font-family="sans-serif" font-size="14" lengthAdjust="spacing" textLength="154.6836" x="193.5" y="587.5352">+save(map: Map): Map</text><text fill="#000000" font-family="sans-serif" font-size="14" lengthAdjust="spacing" textLength="152.291" x="193.5" y="604.0234">+findById(id: int): Map</text></g><!--link CreateMapUI to MapController--><g id="link_CreateMapUI_MapController"><path codeLine="53" d="M271,71.28 C271,93.52 271,117.58 271,141.55 " fill="none" id="CreateMapUI-to-MapController" style="stroke:#181818;stroke-width:1.0;"/><polygon fill="#181818" points="271,147.55,275,138.55,271,142.55,267,138.55,271,147.55" style="stroke:#181818;stroke-width:1.0;"/><text fill="#000000" font-family="sans-serif" font-size="13" lengthAdjust="spacing" textLength="28.5645" x="272" y="114.5684">uses</text></g><!--link MapController to MapForm--><g id="link_MapController_MapForm"><path codeLine="54" d="M223.21,229.27 C182.65,263.02 131,306 131,306 C131,306 127.7387,309.3339 117.6487,319.6339 " fill="none" id="MapController-to-MapForm" style="stroke:#181818;stroke-width:1.0;"/><polygon fill="#181818" points="113.45,323.92,122.6055,320.29,116.9489,320.3482,116.8907,314.6917,113.45,323.92" style="stroke:#181818;stroke-width:1.0;"/><text fill="#000000" font-family="sans-serif" font-size="13" lengthAdjust="spacing" textLength="45.1318" x="186" y="272.5684">creates</text></g><!--link MapController to Validator--><g id="link_MapController_Validator"><path codeLine="55" d="M337,229.35 C390.18,261.46 459.4639,303.2983 512.6839,335.4383 " fill="none" id="MapController-to-Validator" style="stroke:#181818;stroke-width:1.0;"/><polygon fill="#181818" points="517.82,338.54,512.1837,330.4634,513.5399,335.9552,508.0481,337.3115,517.82,338.54" style="stroke:#181818;stroke-width:1.0;"/><text fill="#000000" font-family="sans-serif" font-size="13" lengthAdjust="spacing" textLength="55.5166" x="410" y="272.5684">validates</text></g><!--link MapController to Repositories--><g id="link_MapController_Repositories"><path codeLine="56" d="M271,229.12 C271,264.19 271,308.7 271,341.06 " fill="none" id="MapController-to-Repositories" style="stroke:#181818;stroke-width:1.0;"/><polygon fill="#181818" points="271,347.06,275,338.06,271,342.06,267,338.06,271,347.06" style="stroke:#181818;stroke-width:1.0;"/></g><!--link Repositories to MapRepository--><g id="link_Repositories_MapRepository"><path codeLine="57" d="M271,411.71 C271,444 271,488.54 271,523.69 " fill="none" id="Repositories-to-MapRepository" style="stroke:#181818;stroke-width:1.0;"/><polygon fill="#181818" points="271,529.69,275,520.69,271,524.69,267,520.69,271,529.69" style="stroke:#181818;stroke-width:1.0;"/><text fill="#000000" font-family="sans-serif" font-size="13" lengthAdjust="spacing" textLength="94.4722" x="272" y="496.5684">mapRepository</text></g><!--link MapRepository to Map--><g id="link_MapRepository_Map"><path codeLine="58" d="M271,611.37 C271,633.29 271,655.31 271,681.6 " fill="none" id="MapRepository-to-Map" style="stroke:#181818;stroke-width:1.0;"/><polygon fill="#181818" points="271,687.6,275,678.6,271,682.6,267,678.6,271,687.6" style="stroke:#181818;stroke-width:1.0;"/><text fill="#000000" font-family="sans-serif" font-size="13" lengthAdjust="spacing" textLength="34.125" x="272" y="654.5684">maps</text></g><!--SRC=[bL8zJyCm4DtzAposAfMOCo114Q8335J0V8sloQcE7Tbkeu3uxpXsFfo8XINAktjtxzvBx9bK3GOgNaD-XW8FhfN83UOEL26HsP5WIn2w8LNm4qYRTYGfT6sDlDQoxG1ZIJUNOEszSuQE5uVxNAi3VI6_zIGMUdnd41o-GFs-vz-Cyqq-55PhzZEmF7pIfWgChO8ACtxmIrNHuOQ4ApDEodMeH2fADy1DWUxLy_so23uxyeYU0tcX55L8Z2l_AxWNey1C-v4gL9QqiWl5dLREQ2dHn0nigPlExsgT3TP3-NAio8N6oJ_6dcTTDObfvHlMsfBJXj0kKrrE-hTfy0Ca2V23SUeQ8GONQGf-xgYrH50fBV7NX3nkU8mfeQUsnpFRtZPSSLL17OxgJ_Fb4odnqFfG-qyo7Pt-FDljtIBAZ5yiMZOlzhJmDsKynl8NPqh2Xzlx-ukNHirckVTAYScCLobcysxFZopBVW40]--></g></svg>