<?xml version="1.0" encoding="us-ascii" standalone="no"?><svg xmlns="http://www.w3.org/2000/svg" xmlns:xlink="http://www.w3.org/1999/xlink" contentStyleType="text/css" height="734px" preserveAspectRatio="none" style="width:769px;height:734px;background:#FFFFFF;" version="1.1" viewBox="0 0 769 734" width="769px" zoomAndPan="magnify"><defs/><g><text fill="#000000" font-family="sans-serif" font-size="14" font-weight="bold" lengthAdjust="spacing" textLength="389" x="191" y="30.1074">USEI05 - Full Sequence Diagram (Returns &amp; Quarantine)</text><rect fill="none" height="400.7539" style="stroke:#000000;stroke-width:1.5;" width="752" x="10" y="202.8242"/><rect fill="none" height="319.541" style="stroke:#000000;stroke-width:1.5;" width="402" x="350" y="229.1152"/><rect fill="none" height="192.377" style="stroke:#000000;stroke-width:1.5;" width="363" x="360" y="349.2793"/><line style="stroke:#181818;stroke-width:0.5;stroke-dasharray:5.0,5.0;" x1="75" x2="75" y1="123.2422" y2="651.8691"/><line style="stroke:#181818;stroke-width:0.5;stroke-dasharray:5.0,5.0;" x1="393" x2="393" y1="123.2422" y2="651.8691"/><line style="stroke:#181818;stroke-width:0.5;stroke-dasharray:5.0,5.0;" x1="508" x2="508" y1="123.2422" y2="651.8691"/><line style="stroke:#181818;stroke-width:0.5;stroke-dasharray:5.0,5.0;" x1="597" x2="597" y1="123.2422" y2="651.8691"/><line style="stroke:#181818;stroke-width:0.5;stroke-dasharray:5.0,5.0;" x1="678" x2="678" y1="123.2422" y2="651.8691"/><line style="stroke:#181818;stroke-width:0.5;stroke-dasharray:5.0,5.0;" x1="732" x2="732" y1="123.2422" y2="651.8691"/><text fill="#000000" font-family="sans-serif" font-size="14" lengthAdjust="spacing" textLength="105" x="20" y="119.7285">Quality Operator</text><ellipse cx="75.5" cy="53.1211" fill="#E2E2F0" rx="8" ry="8" style="stroke:#181818;stroke-width:0.5;"/><path d="M75.5,61.1211 L75.5,88.1211 M62.5,69.1211 L88.5,69.1211 M75.5,88.1211 L62.5,103.1211 M75.5,88.1211 L88.5,103.1211 " fill="none" style="stroke:#181818;stroke-width:0.5;"/><text fill="#000000" font-family="sans-serif" font-size="14" lengthAdjust="spacing" textLength="105" x="20" y="665.9766">Quality Operator</text><ellipse cx="75.5" cy="677.9902" fill="#E2E2F0" rx="8" ry="8" style="stroke:#181818;stroke-width:0.5;"/><path d="M75.5,685.9902 L75.5,712.9902 M62.5,693.9902 L88.5,693.9902 M75.5,712.9902 L62.5,727.9902 M75.5,712.9902 L88.5,727.9902 " fill="none" style="stroke:#181818;stroke-width:0.5;"/><rect fill="#E2E2F0" height="32.6211" rx="2.5" ry="2.5" style="stroke:#181818;stroke-width:0.5;" width="47" x="370" y="89.6211"/><text fill="#000000" font-family="sans-serif" font-size="14" lengthAdjust="spacing" textLength="33" x="377" y="111.7285">WMS</text><rect fill="#E2E2F0" height="32.6211" rx="2.5" ry="2.5" style="stroke:#181818;stroke-width:0.5;" width="47" x="370" y="650.8691"/><text fill="#000000" font-family="sans-serif" font-size="14" lengthAdjust="spacing" textLength="33" x="377" y="672.9766">WMS</text><rect fill="#E2E2F0" height="32.6211" rx="2.5" ry="2.5" style="stroke:#181818;stroke-width:0.5;" width="85" x="466" y="89.6211"/><text fill="#000000" font-family="sans-serif" font-size="14" lengthAdjust="spacing" textLength="71" x="473" y="111.7285">Quarantine</text><rect fill="#E2E2F0" height="32.6211" rx="2.5" ry="2.5" style="stroke:#181818;stroke-width:0.5;" width="85" x="466" y="650.8691"/><text fill="#000000" font-family="sans-serif" font-size="14" lengthAdjust="spacing" textLength="71" x="473" y="672.9766">Quarantine</text><rect fill="#E2E2F0" height="32.6211" rx="2.5" ry="2.5" style="stroke:#181818;stroke-width:0.5;" width="72" x="561" y="89.6211"/><text fill="#000000" font-family="sans-serif" font-size="14" lengthAdjust="spacing" textLength="58" x="568" y="111.7285">Inventory</text><rect fill="#E2E2F0" height="32.6211" rx="2.5" ry="2.5" style="stroke:#181818;stroke-width:0.5;" width="72" x="561" y="650.8691"/><text fill="#000000" font-family="sans-serif" font-size="14" lengthAdjust="spacing" textLength="58" x="568" y="672.9766">Inventory</text><rect fill="#E2E2F0" height="32.6211" rx="2.5" ry="2.5" style="stroke:#181818;stroke-width:0.5;" width="70" x="643" y="89.6211"/><text fill="#000000" font-family="sans-serif" font-size="14" lengthAdjust="spacing" textLength="56" x="650" y="111.7285">AuditLog</text><rect fill="#E2E2F0" height="32.6211" rx="2.5" ry="2.5" style="stroke:#181818;stroke-width:0.5;" width="70" x="643" y="650.8691"/><text fill="#000000" font-family="sans-serif" font-size="14" lengthAdjust="spacing" textLength="56" x="650" y="672.9766">AuditLog</text><rect fill="#E2E2F0" height="32.6211" rx="2.5" ry="2.5" style="stroke:#181818;stroke-width:0.5;" width="19" x="723" y="89.6211"/><text fill="#000000" font-family="sans-serif" font-size="14" lengthAdjust="spacing" textLength="5" x="730" y="111.7285">r</text><rect fill="#E2E2F0" height="32.6211" rx="2.5" ry="2.5" style="stroke:#181818;stroke-width:0.5;" width="19" x="723" y="650.8691"/><text fill="#000000" font-family="sans-serif" font-size="14" lengthAdjust="spacing" textLength="5" x="730" y="672.9766">r</text><polygon fill="#181818" points="381.5,152.5332,391.5,156.5332,381.5,160.5332,385.5,156.5332" style="stroke:#181818;stroke-width:1.0;"/><line style="stroke:#181818;stroke-width:1.0;" x1="75.5" x2="387.5" y1="156.5332" y2="156.5332"/><text fill="#000000" font-family="sans-serif" font-size="13" lengthAdjust="spacing" textLength="99" x="82.5" y="151.2705">processReturns()</text><polygon fill="#181818" points="496.5,183.8242,506.5,187.8242,496.5,191.8242,500.5,187.8242" style="stroke:#181818;stroke-width:1.0;"/><line style="stroke:#181818;stroke-width:1.0;" x1="393.5" x2="502.5" y1="187.8242" y2="187.8242"/><text fill="#000000" font-family="sans-serif" font-size="13" lengthAdjust="spacing" textLength="56" x="400.5" y="182.5615">isEmpty()</text><path d="M10,202.8242 L71,202.8242 L71,212.1152 L61,222.1152 L10,222.1152 L10,202.8242 " fill="#EEEEEE" style="stroke:#000000;stroke-width:1.5;"/><rect fill="none" height="400.7539" style="stroke:#000000;stroke-width:1.5;" width="752" x="10" y="202.8242"/><text fill="#000000" font-family="sans-serif" font-size="13" font-weight="bold" lengthAdjust="spacing" textLength="16" x="25" y="217.8525">alt</text><text fill="#000000" font-family="sans-serif" font-size="11" font-weight="bold" lengthAdjust="spacing" textLength="64" x="86" y="216.6943">[not empty]</text><path d="M350,229.1152 L423,229.1152 L423,238.4063 L413,248.4063 L350,248.4063 L350,229.1152 " fill="#EEEEEE" style="stroke:#000000;stroke-width:1.5;"/><rect fill="none" height="319.541" style="stroke:#000000;stroke-width:1.5;" width="402" x="350" y="229.1152"/><text fill="#000000" font-family="sans-serif" font-size="13" font-weight="bold" lengthAdjust="spacing" textLength="28" x="365" y="244.1436">loop</text><text fill="#000000" font-family="sans-serif" font-size="11" font-weight="bold" lengthAdjust="spacing" textLength="162" x="438" y="242.9854">[for each Return (LIFO order)]</text><polygon fill="#181818" points="496.5,267.6973,506.5,271.6973,496.5,275.6973,500.5,271.6973" style="stroke:#181818;stroke-width:1.0;"/><line style="stroke:#181818;stroke-width:1.0;" x1="393.5" x2="502.5" y1="271.6973" y2="271.6973"/><text fill="#000000" font-family="sans-serif" font-size="13" lengthAdjust="spacing" textLength="91" x="400.5" y="266.4346">getNextReturn()</text><polygon fill="#181818" points="404.5,298.9883,394.5,302.9883,404.5,306.9883,400.5,302.9883" style="stroke:#181818;stroke-width:1.0;"/><line style="stroke:#181818;stroke-width:1.0;stroke-dasharray:2.0,2.0;" x1="398.5" x2="507.5" y1="302.9883" y2="302.9883"/><text fill="#000000" font-family="sans-serif" font-size="13" lengthAdjust="spacing" textLength="46" x="410.5" y="297.7256">Return r</text><polygon fill="#181818" points="720.5,330.2793,730.5,334.2793,720.5,338.2793,724.5,334.2793" style="stroke:#181818;stroke-width:1.0;"/><line style="stroke:#181818;stroke-width:1.0;" x1="393.5" x2="726.5" y1="334.2793" y2="334.2793"/><text fill="#000000" font-family="sans-serif" font-size="13" lengthAdjust="spacing" textLength="90" x="400.5" y="329.0166">isRestockable()</text><path d="M360,349.2793 L421,349.2793 L421,358.5703 L411,368.5703 L360,368.5703 L360,349.2793 " fill="#EEEEEE" style="stroke:#000000;stroke-width:1.5;"/><rect fill="none" height="192.377" style="stroke:#000000;stroke-width:1.5;" width="363" x="360" y="349.2793"/><text fill="#000000" font-family="sans-serif" font-size="13" font-weight="bold" lengthAdjust="spacing" textLength="16" x="375" y="364.3076">alt</text><text fill="#000000" font-family="sans-serif" font-size="11" font-weight="bold" lengthAdjust="spacing" textLength="74" x="436" y="363.1494">[restockable]</text><polygon fill="#181818" points="585,387.8613,595,391.8613,585,395.8613,589,391.8613" style="stroke:#181818;stroke-width:1.0;"/><line style="stroke:#181818;stroke-width:1.0;" x1="393.5" x2="591" y1="391.8613" y2="391.8613"/><text fill="#000000" font-family="sans-serif" font-size="13" lengthAdjust="spacing" textLength="139" x="400.5" y="386.5986">createBoxFromReturn(r)</text><polygon fill="#181818" points="404.5,419.1523,394.5,423.1523,404.5,427.1523,400.5,423.1523" style="stroke:#181818;stroke-width:1.0;"/><line style="stroke:#181818;stroke-width:1.0;stroke-dasharray:2.0,2.0;" x1="398.5" x2="596" y1="423.1523" y2="423.1523"/><text fill="#000000" font-family="sans-serif" font-size="13" lengthAdjust="spacing" textLength="34" x="410.5" y="417.8896">Box b</text><polygon fill="#181818" points="585,450.4434,595,454.4434,585,458.4434,589,454.4434" style="stroke:#181818;stroke-width:1.0;"/><line style="stroke:#181818;stroke-width:1.0;" x1="393.5" x2="591" y1="454.4434" y2="454.4434"/><text fill="#000000" font-family="sans-serif" font-size="13" lengthAdjust="spacing" textLength="105" x="400.5" y="449.1807">insertBoxFEFO(b)</text><polygon fill="#181818" points="666,481.7344,676,485.7344,666,489.7344,670,485.7344" style="stroke:#181818;stroke-width:1.0;"/><line style="stroke:#181818;stroke-width:1.0;" x1="393.5" x2="672" y1="485.7344" y2="485.7344"/><text fill="#000000" font-family="sans-serif" font-size="13" lengthAdjust="spacing" textLength="174" x="400.5" y="480.4717">writeLog(r, "Restocked", r.qty)</text><line style="stroke:#000000;stroke-width:1.0;stroke-dasharray:2.0,2.0;" x1="360" x2="723" y1="494.7344" y2="494.7344"/><text fill="#000000" font-family="sans-serif" font-size="11" font-weight="bold" lengthAdjust="spacing" textLength="95" x="365" y="506.6045">[not restockable]</text><polygon fill="#181818" points="666,529.6563,676,533.6563,666,537.6563,670,533.6563" style="stroke:#181818;stroke-width:1.0;"/><line style="stroke:#181818;stroke-width:1.0;" x1="393.5" x2="672" y1="533.6563" y2="533.6563"/><text fill="#000000" font-family="sans-serif" font-size="13" lengthAdjust="spacing" textLength="170" x="400.5" y="528.3936">writeLog(r, "Discarded", r.qty)</text><line style="stroke:#000000;stroke-width:1.0;stroke-dasharray:2.0,2.0;" x1="10" x2="762" y1="556.6563" y2="556.6563"/><text fill="#000000" font-family="sans-serif" font-size="11" font-weight="bold" lengthAdjust="spacing" textLength="105" x="15" y="568.5264">[quarantine empty]</text><polygon fill="#181818" points="86.5,591.5781,76.5,595.5781,86.5,599.5781,82.5,595.5781" style="stroke:#181818;stroke-width:1.0;"/><line style="stroke:#181818;stroke-width:1.0;" x1="80.5" x2="392.5" y1="595.5781" y2="595.5781"/><text fill="#000000" font-family="sans-serif" font-size="13" lengthAdjust="spacing" textLength="135" x="92.5" y="590.3154">"No returns to process"</text><polygon fill="#181818" points="86.5,629.8691,76.5,633.8691,86.5,637.8691,82.5,633.8691" style="stroke:#181818;stroke-width:1.0;"/><line style="stroke:#181818;stroke-width:1.0;" x1="80.5" x2="392.5" y1="633.8691" y2="633.8691"/><text fill="#000000" font-family="sans-serif" font-size="13" lengthAdjust="spacing" textLength="294" x="92.5" y="628.6064">Summary report (processed, restocked, discarded)</text><!--SRC=[TP9FRzim3CNl-XGFFXGsa1IxxEB3W1PDW01TWYOOUbPiBXLgImv5hysth_n7STCk5qia7tzweYL6AiAVtMBruoVcMBPLXHqTMx85uS7e0-iQwPQaPUjnWwTMixPYB6LAwK8S8mcvoiW9cuPOXqm2xS-1QZIBAKmJkf0y_zxrrR1U5YPkNv_2IzdA_YCRgATUTOukHNTjQUJH7NfD39IAZZ3_rPsVes5NaFVZvT9CXMnNd0xFOVoYRkGKYheIM2UWBbP0vLo3lm57kdZ1047wk5fkuBWape86-0_oGBAcTnawqa4srJ6FzaOaV-PmvsXBNbpnglSLZUsTDvwoVUxSSvvIZe992zsxzoMxUZGm6iMacom49VPNQSPwOkbeY-KctMUNmZZu76ziXC8kvHcIqJoLoGnyUvJJq4QLftwyLwznXVTWVA73lB_oRAc6Rqy-JlED_s_4nbUH8rcxSFhmqCN5rv6e3l9Dl6lhMeTHCJME1Ucefd8MRz1josWkKny0]--></g></svg>