<svg xmlns="http://www.w3.org/2000/svg" xmlns:xlink="http://www.w3.org/1999/xlink" contentStyleType="text/css" height="1250px" preserveAspectRatio="none" style="width:2342px;height:1250px;background:#FFFFFF;" version="1.1" viewBox="0 0 2342 1250" width="2342px" zoomAndPan="magnify"><defs/><g><rect fill="#FFFFFF" height="1067.8477" style="stroke:#181818;stroke-width:1.0;" width="10" x="56.3613" y="91.4883"/><rect fill="#FFFFFF" height="1003.2266" style="stroke:#181818;stroke-width:1.0;" width="10" x="323.2344" y="156.1094"/><rect fill="#FFFFFF" height="973.916" style="stroke:#181818;stroke-width:1.0;" width="10" x="707.4629" y="185.4199"/><rect fill="#FFFFFF" height="944.6055" style="stroke:#181818;stroke-width:1.0;" width="10" x="1044.8076" y="214.7305"/><rect fill="#FFFFFF" height="113.9316" style="stroke:#181818;stroke-width:1.0;" width="10" x="1675.8618" y="402.5938"/><rect fill="#FFFFFF" height="71.6211" style="stroke:#181818;stroke-width:1.0;" width="10" x="1675.8618" y="581.1465"/><rect fill="#FFFFFF" height="71.6211" style="stroke:#181818;stroke-width:1.0;" width="10" x="1930.3359" y="815.2754"/><rect fill="none" height="484.5684" style="stroke:#000000;stroke-width:1.5;" width="2094.5371" x="231.3677" y="667.7676"/><rect fill="none" height="243.4395" style="stroke:#000000;stroke-width:1.5;" width="2074.5371" x="241.3677" y="901.8965"/><line style="stroke:#181818;stroke-width:0.5;stroke-dasharray:5.0,5.0;" x1="61" x2="61" y1="81.4883" y2="1169.3359"/><line style="stroke:#181818;stroke-width:0.5;stroke-dasharray:5.0,5.0;" x1="327.3677" x2="327.3677" y1="81.4883" y2="1169.3359"/><line style="stroke:#181818;stroke-width:0.5;stroke-dasharray:5.0,5.0;" x1="712.3823" x2="712.3823" y1="81.4883" y2="1169.3359"/><line style="stroke:#181818;stroke-width:0.5;stroke-dasharray:5.0,5.0;" x1="1049.1416" x2="1049.1416" y1="81.4883" y2="1169.3359"/><line style="stroke:#181818;stroke-width:0.5;stroke-dasharray:5.0,5.0;" x1="1377.4702" x2="1377.4702" y1="81.4883" y2="1169.3359"/><line style="stroke:#181818;stroke-width:0.5;stroke-dasharray:5.0,5.0;" x1="1538.7661" x2="1538.7661" y1="81.4883" y2="1169.3359"/><line style="stroke:#181818;stroke-width:0.5;stroke-dasharray:5.0,5.0;" x1="1680.4985" x2="1680.4985" y1="81.4883" y2="1169.3359"/><line style="stroke:#181818;stroke-width:0.5;stroke-dasharray:5.0,5.0;" x1="1934.7476" x2="1934.7476" y1="81.4883" y2="1169.3359"/><line style="stroke:#181818;stroke-width:0.5;stroke-dasharray:5.0,5.0;" x1="2245.9097" x2="2245.9097" y1="81.4883" y2="1169.3359"/><text fill="#000000" font-family="sans-serif" font-size="14" lengthAdjust="spacing" textLength="106.7227" x="5" y="78.5352">Traffic Manager</text><ellipse cx="61.3613" cy="13.5" fill="#E2E2F0" rx="8" ry="8" style="stroke:#181818;stroke-width:0.5;"/><path d="M61.3613,21.5 L61.3613,48.5 M48.3613,29.5 L74.3613,29.5 M61.3613,48.5 L48.3613,63.5 M61.3613,48.5 L74.3613,63.5 " fill="none" style="stroke:#181818;stroke-width:0.5;"/><text fill="#000000" font-family="sans-serif" font-size="14" lengthAdjust="spacing" textLength="106.7227" x="5" y="1181.8711">Traffic Manager</text><ellipse cx="61.3613" cy="1193.3242" fill="#E2E2F0" rx="8" ry="8" style="stroke:#181818;stroke-width:0.5;"/><path d="M61.3613,1201.3242 L61.3613,1228.3242 M48.3613,1209.3242 L74.3613,1209.3242 M61.3613,1228.3242 L48.3613,1243.3242 M61.3613,1228.3242 L74.3613,1243.3242 " fill="none" style="stroke:#181818;stroke-width:0.5;"/><rect fill="#E2E2F0" height="30.4883" rx="2.5" ry="2.5" style="stroke:#181818;stroke-width:0.5;" width="153.7334" x="251.3677" y="50"/><text fill="#000000" font-family="sans-serif" font-size="14" lengthAdjust="spacing" textLength="139.7334" x="258.3677" y="70.5352">TrainComposition UI</text><rect fill="#E2E2F0" height="30.4883" rx="2.5" ry="2.5" style="stroke:#181818;stroke-width:0.5;" width="153.7334" x="251.3677" y="1168.3359"/><text fill="#000000" font-family="sans-serif" font-size="14" lengthAdjust="spacing" textLength="139.7334" x="258.3677" y="1188.8711">TrainComposition UI</text><rect fill="#E2E2F0" height="30.4883" rx="2.5" ry="2.5" style="stroke:#181818;stroke-width:0.5;" width="208.1611" x="608.3823" y="50"/><text fill="#000000" font-family="sans-serif" font-size="14" lengthAdjust="spacing" textLength="194.1611" x="615.3823" y="70.5352">TrainComposition Controller</text><rect fill="#E2E2F0" height="30.4883" rx="2.5" ry="2.5" style="stroke:#181818;stroke-width:0.5;" width="208.1611" x="608.3823" y="1168.3359"/><text fill="#000000" font-family="sans-serif" font-size="14" lengthAdjust="spacing" textLength="194.1611" x="615.3823" y="1188.8711">TrainComposition Controller</text><rect fill="#E2E2F0" height="30.4883" rx="2.5" ry="2.5" style="stroke:#181818;stroke-width:0.5;" width="187.332" x="956.1416" y="50"/><text fill="#000000" font-family="sans-serif" font-size="14" lengthAdjust="spacing" textLength="173.332" x="963.1416" y="70.5352">TrainComposition Service</text><rect fill="#E2E2F0" height="30.4883" rx="2.5" ry="2.5" style="stroke:#181818;stroke-width:0.5;" width="187.332" x="956.1416" y="1168.3359"/><text fill="#000000" font-family="sans-serif" font-size="14" lengthAdjust="spacing" textLength="173.332" x="963.1416" y="1188.8711">TrainComposition Service</text><rect fill="#E2E2F0" height="30.4883" rx="2.5" ry="2.5" style="stroke:#181818;stroke-width:0.5;" width="174.2959" x="1290.4702" y="50"/><text fill="#000000" font-family="sans-serif" font-size="14" lengthAdjust="spacing" textLength="160.2959" x="1297.4702" y="70.5352">RollingStock Repository</text><rect fill="#E2E2F0" height="30.4883" rx="2.5" ry="2.5" style="stroke:#181818;stroke-width:0.5;" width="174.2959" x="1290.4702" y="1168.3359"/><text fill="#000000" font-family="sans-serif" font-size="14" lengthAdjust="spacing" textLength="160.2959" x="1297.4702" y="1188.8711">RollingStock Repository</text><rect fill="#E2E2F0" height="30.4883" rx="2.5" ry="2.5" style="stroke:#181818;stroke-width:0.5;" width="129.7324" x="1474.7661" y="50"/><text fill="#000000" font-family="sans-serif" font-size="14" lengthAdjust="spacing" textLength="115.7324" x="1481.7661" y="70.5352">Route Repository</text><rect fill="#E2E2F0" height="30.4883" rx="2.5" ry="2.5" style="stroke:#181818;stroke-width:0.5;" width="129.7324" x="1474.7661" y="1168.3359"/><text fill="#000000" font-family="sans-serif" font-size="14" lengthAdjust="spacing" textLength="115.7324" x="1481.7661" y="1188.8711">Route Repository</text><rect fill="#E2E2F0" height="30.4883" rx="2.5" ry="2.5" style="stroke:#181818;stroke-width:0.5;" width="132.7266" x="1614.4985" y="50"/><text fill="#000000" font-family="sans-serif" font-size="14" lengthAdjust="spacing" textLength="118.7266" x="1621.4985" y="70.5352">Train (Aggregate)</text><rect fill="#E2E2F0" height="30.4883" rx="2.5" ry="2.5" style="stroke:#181818;stroke-width:0.5;" width="132.7266" x="1614.4985" y="1168.3359"/><text fill="#000000" font-family="sans-serif" font-size="14" lengthAdjust="spacing" textLength="118.7266" x="1621.4985" y="1188.8711">Train (Aggregate)</text><rect fill="#E2E2F0" height="30.4883" rx="2.5" ry="2.5" style="stroke:#181818;stroke-width:0.5;" width="53.1768" x="1908.7476" y="50"/><text fill="#000000" font-family="sans-serif" font-size="14" lengthAdjust="spacing" textLength="39.1768" x="1915.7476" y="70.5352">Route</text><rect fill="#E2E2F0" height="30.4883" rx="2.5" ry="2.5" style="stroke:#181818;stroke-width:0.5;" width="53.1768" x="1908.7476" y="1168.3359"/><text fill="#000000" font-family="sans-serif" font-size="14" lengthAdjust="spacing" textLength="39.1768" x="1915.7476" y="1188.8711">Route</text><rect fill="#E2E2F0" height="30.4883" rx="2.5" ry="2.5" style="stroke:#181818;stroke-width:0.5;" width="117.9951" x="2187.9097" y="50"/><text fill="#000000" font-family="sans-serif" font-size="14" lengthAdjust="spacing" textLength="103.9951" x="2194.9097" y="70.5352">Trip Repository</text><rect fill="#E2E2F0" height="30.4883" rx="2.5" ry="2.5" style="stroke:#181818;stroke-width:0.5;" width="117.9951" x="2187.9097" y="1168.3359"/><text fill="#000000" font-family="sans-serif" font-size="14" lengthAdjust="spacing" textLength="103.9951" x="2194.9097" y="1188.8711">Trip Repository</text><rect fill="#FFFFFF" height="1067.8477" style="stroke:#181818;stroke-width:1.0;" width="10" x="56.3613" y="91.4883"/><rect fill="#FFFFFF" height="1003.2266" style="stroke:#181818;stroke-width:1.0;" width="10" x="323.2344" y="156.1094"/><rect fill="#FFFFFF" height="973.916" style="stroke:#181818;stroke-width:1.0;" width="10" x="707.4629" y="185.4199"/><rect fill="#FFFFFF" height="944.6055" style="stroke:#181818;stroke-width:1.0;" width="10" x="1044.8076" y="214.7305"/><rect fill="#FFFFFF" height="113.9316" style="stroke:#181818;stroke-width:1.0;" width="10" x="1675.8618" y="402.5938"/><rect fill="#FFFFFF" height="71.6211" style="stroke:#181818;stroke-width:1.0;" width="10" x="1675.8618" y="581.1465"/><rect fill="#FFFFFF" height="71.6211" style="stroke:#181818;stroke-width:1.0;" width="10" x="1930.3359" y="815.2754"/><rect fill="#EEEEEE" height="3" style="stroke:#EEEEEE;stroke-width:1.0;" width="2335.9048" x="0" y="112.1436"/><line style="stroke:#000000;stroke-width:1.0;" x1="0" x2="2335.9048" y1="112.1436" y2="112.1436"/><line style="stroke:#000000;stroke-width:1.0;" x1="0" x2="2335.9048" y1="115.1436" y2="115.1436"/><rect fill="#EEEEEE" height="23.3105" style="stroke:#000000;stroke-width:2.0;" width="280.5" x="1027.7024" y="101.4883"/><text fill="#000000" font-family="sans-serif" font-size="13" font-weight="bold" lengthAdjust="spacing" textLength="262.2153" x="1033.7024" y="118.0566">Start Assembly &amp; Assignment (USLP09)</text><polygon fill="#181818" points="311.2344,152.1094,321.2344,156.1094,311.2344,160.1094,315.2344,156.1094" style="stroke:#181818;stroke-width:1.0;"/><line style="stroke:#181818;stroke-width:1.0;" x1="66.3613" x2="317.2344" y1="156.1094" y2="156.1094"/><text fill="#000000" font-family="sans-serif" font-size="13" font-weight="bold" lengthAdjust="spacing" textLength="8.5757" x="73.3613" y="151.3672">1</text><text fill="#000000" font-family="sans-serif" font-size="13" lengthAdjust="spacing" textLength="225.2974" x="85.937" y="151.3672">Selects Loco, Wagons, Route &amp; Date</text><polygon fill="#181818" points="695.4629,181.4199,705.4629,185.4199,695.4629,189.4199,699.4629,185.4199" style="stroke:#181818;stroke-width:1.0;"/><line style="stroke:#181818;stroke-width:1.0;" x1="333.2344" x2="701.4629" y1="185.4199" y2="185.4199"/><text fill="#000000" font-family="sans-serif" font-size="13" font-weight="bold" lengthAdjust="spacing" textLength="8.5757" x="340.2344" y="180.6777">2</text><text fill="#000000" font-family="sans-serif" font-size="13" lengthAdjust="spacing" textLength="342.6528" x="352.8101" y="180.6777">createAndAssignTrain(locoId, wagonIds, routeId, date)</text><polygon fill="#181818" points="1032.8076,210.7305,1042.8076,214.7305,1032.8076,218.7305,1036.8076,214.7305" style="stroke:#181818;stroke-width:1.0;"/><line style="stroke:#181818;stroke-width:1.0;" x1="717.4629" x2="1038.8076" y1="214.7305" y2="214.7305"/><text fill="#000000" font-family="sans-serif" font-size="13" font-weight="bold" lengthAdjust="spacing" textLength="8.5757" x="724.4629" y="209.9883">3</text><text fill="#000000" font-family="sans-serif" font-size="13" lengthAdjust="spacing" textLength="295.769" x="737.0386" y="209.9883">assembleTrain(locoId, wagonIds, routeId, date)</text><path d="M943,227.7305 L943,252.7305 L1156,252.7305 L1156,237.7305 L1146,227.7305 L943,227.7305 " fill="#FEFFDD" style="stroke:#181818;stroke-width:0.5;"/><path d="M1146,227.7305 L1146,237.7305 L1156,237.7305 L1146,227.7305 " fill="#FEFFDD" style="stroke:#181818;stroke-width:0.5;"/><text fill="#000000" font-family="sans-serif" font-size="13" lengthAdjust="spacing" textLength="192.3149" x="949" y="245.2988">1. Fetch Domain Entities (AC1)</text><polygon fill="#181818" points="1365.6182,275.3516,1375.6182,279.3516,1365.6182,283.3516,1369.6182,279.3516" style="stroke:#181818;stroke-width:1.0;"/><line style="stroke:#181818;stroke-width:1.0;" x1="1054.8076" x2="1371.6182" y1="279.3516" y2="279.3516"/><text fill="#000000" font-family="sans-serif" font-size="13" font-weight="bold" lengthAdjust="spacing" textLength="8.5757" x="1061.8076" y="274.6094">4</text><text fill="#000000" font-family="sans-serif" font-size="13" lengthAdjust="spacing" textLength="143.8315" x="1074.3833" y="274.6094">findLocomotive(locoId)</text><polygon fill="#181818" points="1365.6182,304.6621,1375.6182,308.6621,1365.6182,312.6621,1369.6182,308.6621" style="stroke:#181818;stroke-width:1.0;"/><line style="stroke:#181818;stroke-width:1.0;" x1="1054.8076" x2="1371.6182" y1="308.6621" y2="308.6621"/><text fill="#000000" font-family="sans-serif" font-size="13" font-weight="bold" lengthAdjust="spacing" textLength="8.5757" x="1061.8076" y="303.9199">5</text><text fill="#000000" font-family="sans-serif" font-size="13" lengthAdjust="spacing" textLength="142.2383" x="1074.3833" y="303.9199">findWagons(wagonIds)</text><polygon fill="#181818" points="1527.6323,333.9727,1537.6323,337.9727,1527.6323,341.9727,1531.6323,337.9727" style="stroke:#181818;stroke-width:1.0;"/><line style="stroke:#181818;stroke-width:1.0;" x1="1054.8076" x2="1533.6323" y1="337.9727" y2="337.9727"/><text fill="#000000" font-family="sans-serif" font-size="13" font-weight="bold" lengthAdjust="spacing" textLength="8.5757" x="1061.8076" y="333.2305">6</text><text fill="#000000" font-family="sans-serif" font-size="13" lengthAdjust="spacing" textLength="115.0259" x="1074.3833" y="333.2305">findRoute(routeId)</text><path d="M957,350.9727 L957,375.9727 L1141,375.9727 L1141,360.9727 L1131,350.9727 L957,350.9727 " fill="#FEFFDD" style="stroke:#181818;stroke-width:0.5;"/><path d="M1131,350.9727 L1131,360.9727 L1141,360.9727 L1131,350.9727 " fill="#FEFFDD" style="stroke:#181818;stroke-width:0.5;"/><text fill="#000000" font-family="sans-serif" font-size="13" lengthAdjust="spacing" textLength="163.1919" x="963" y="368.541">2. Create Train Aggregate</text><polygon fill="#181818" points="1663.8618,398.5938,1673.8618,402.5938,1663.8618,406.5938,1667.8618,402.5938" style="stroke:#181818;stroke-width:1.0;"/><line style="stroke:#181818;stroke-width:1.0;" x1="1054.8076" x2="1669.8618" y1="402.5938" y2="402.5938"/><text fill="#000000" font-family="sans-serif" font-size="13" font-weight="bold" lengthAdjust="spacing" textLength="8.5757" x="1061.8076" y="397.8516">7</text><text fill="#000000" font-family="sans-serif" font-size="13" lengthAdjust="spacing" textLength="194.4478" x="1074.3833" y="397.8516">create(locomotive, wagonsList)</text><line style="stroke:#181818;stroke-width:1.0;" x1="1685.8618" x2="1727.8618" y1="431.9043" y2="431.9043"/><line style="stroke:#181818;stroke-width:1.0;" x1="1727.8618" x2="1727.8618" y1="431.9043" y2="444.9043"/><line style="stroke:#181818;stroke-width:1.0;" x1="1686.8618" x2="1727.8618" y1="444.9043" y2="444.9043"/><polygon fill="#181818" points="1696.8618,440.9043,1686.8618,444.9043,1696.8618,448.9043,1692.8618,444.9043" style="stroke:#181818;stroke-width:1.0;"/><text fill="#000000" font-family="sans-serif" font-size="13" font-weight="bold" lengthAdjust="spacing" textLength="8.5757" x="1692.8618" y="427.1621">8</text><text fill="#000000" font-family="sans-serif" font-size="13" lengthAdjust="spacing" textLength="127.4546" x="1705.4375" y="427.1621">calculateTotalMass()</text><line style="stroke:#181818;stroke-width:1.0;" x1="1685.8618" x2="1727.8618" y1="474.2148" y2="474.2148"/><line style="stroke:#181818;stroke-width:1.0;" x1="1727.8618" x2="1727.8618" y1="474.2148" y2="487.2148"/><line style="stroke:#181818;stroke-width:1.0;" x1="1686.8618" x2="1727.8618" y1="487.2148" y2="487.2148"/><polygon fill="#181818" points="1696.8618,483.2148,1686.8618,487.2148,1696.8618,491.2148,1692.8618,487.2148" style="stroke:#181818;stroke-width:1.0;"/><text fill="#000000" font-family="sans-serif" font-size="13" font-weight="bold" lengthAdjust="spacing" textLength="8.5757" x="1692.8618" y="469.4727">9</text><text fill="#000000" font-family="sans-serif" font-size="13" lengthAdjust="spacing" textLength="139.1025" x="1705.4375" y="469.4727">calculateTotalLength()</text><polygon fill="#181818" points="1065.8076,512.5254,1055.8076,516.5254,1065.8076,520.5254,1061.8076,516.5254" style="stroke:#181818;stroke-width:1.0;"/><line style="stroke:#181818;stroke-width:1.0;stroke-dasharray:2.0,2.0;" x1="1059.8076" x2="1679.8618" y1="516.5254" y2="516.5254"/><text fill="#000000" font-family="sans-serif" font-size="13" font-weight="bold" lengthAdjust="spacing" textLength="17.1514" x="1071.8076" y="511.7832">10</text><text fill="#000000" font-family="sans-serif" font-size="13" lengthAdjust="spacing" textLength="81.6372" x="1092.959" y="511.7832">trainInstance</text><path d="M961,529.5254 L961,554.5254 L1137,554.5254 L1137,539.5254 L1127,529.5254 L961,529.5254 " fill="#FEFFDD" style="stroke:#181818;stroke-width:0.5;"/><path d="M1127,529.5254 L1127,539.5254 L1137,539.5254 L1127,529.5254 " fill="#FEFFDD" style="stroke:#181818;stroke-width:0.5;"/><text fill="#000000" font-family="sans-serif" font-size="13" lengthAdjust="spacing" textLength="155.689" x="967" y="547.0938">3. Validate Physics (AC2)</text><polygon fill="#181818" points="1663.8618,577.1465,1673.8618,581.1465,1663.8618,585.1465,1667.8618,581.1465" style="stroke:#181818;stroke-width:1.0;"/><line style="stroke:#181818;stroke-width:1.0;" x1="1054.8076" x2="1669.8618" y1="581.1465" y2="581.1465"/><text fill="#000000" font-family="sans-serif" font-size="13" font-weight="bold" lengthAdjust="spacing" textLength="17.1514" x="1061.8076" y="576.4043">11</text><text fill="#000000" font-family="sans-serif" font-size="13" lengthAdjust="spacing" textLength="142.0859" x="1082.959" y="576.4043">validateTractiveEffort()</text><line style="stroke:#181818;stroke-width:1.0;" x1="1685.8618" x2="1727.8618" y1="610.457" y2="610.457"/><line style="stroke:#181818;stroke-width:1.0;" x1="1727.8618" x2="1727.8618" y1="610.457" y2="623.457"/><line style="stroke:#181818;stroke-width:1.0;" x1="1686.8618" x2="1727.8618" y1="623.457" y2="623.457"/><polygon fill="#181818" points="1696.8618,619.457,1686.8618,623.457,1696.8618,627.457,1692.8618,623.457" style="stroke:#181818;stroke-width:1.0;"/><text fill="#000000" font-family="sans-serif" font-size="13" font-weight="bold" lengthAdjust="spacing" textLength="17.1514" x="1692.8618" y="605.7148">12</text><text fill="#000000" font-family="sans-serif" font-size="13" lengthAdjust="spacing" textLength="199.3228" x="1714.0132" y="605.7148">check(loco.effort &gt;= totalMass)</text><polygon fill="#181818" points="1065.8076,648.7676,1055.8076,652.7676,1065.8076,656.7676,1061.8076,652.7676" style="stroke:#181818;stroke-width:1.0;"/><line style="stroke:#181818;stroke-width:1.0;stroke-dasharray:2.0,2.0;" x1="1059.8076" x2="1679.8618" y1="652.7676" y2="652.7676"/><text fill="#000000" font-family="sans-serif" font-size="13" font-weight="bold" lengthAdjust="spacing" textLength="17.1514" x="1071.8076" y="648.0254">13</text><text fill="#000000" font-family="sans-serif" font-size="13" lengthAdjust="spacing" textLength="87.4771" x="1092.959" y="648.0254">isPhysicsValid</text><path d="M231.3677,667.7676 L293.5063,667.7676 L293.5063,675.0781 L283.5063,685.0781 L231.3677,685.0781 L231.3677,667.7676 " fill="#EEEEEE" style="stroke:#000000;stroke-width:1.5;"/><rect fill="none" height="484.5684" style="stroke:#000000;stroke-width:1.5;" width="2094.5371" x="231.3677" y="667.7676"/><text fill="#000000" font-family="sans-serif" font-size="13" font-weight="bold" lengthAdjust="spacing" textLength="17.1387" x="246.3677" y="681.3359">alt</text><text fill="#000000" font-family="sans-serif" font-size="11" font-weight="bold" lengthAdjust="spacing" textLength="92.3398" x="308.5063" y="680.4023">[Physics Invalid]</text><polygon fill="#181818" points="728.4629,702.3887,718.4629,706.3887,728.4629,710.3887,724.4629,706.3887" style="stroke:#181818;stroke-width:1.0;"/><line style="stroke:#181818;stroke-width:1.0;stroke-dasharray:2.0,2.0;" x1="722.4629" x2="1043.8076" y1="706.3887" y2="706.3887"/><text fill="#000000" font-family="sans-serif" font-size="13" font-weight="bold" lengthAdjust="spacing" textLength="17.1514" x="734.4629" y="701.6465">14</text><text fill="#000000" font-family="sans-serif" font-size="13" lengthAdjust="spacing" textLength="239.0273" x="755.6143" y="701.6465">error("Locomotive insufficient power")</text><polygon fill="#181818" points="344.2344,731.6992,334.2344,735.6992,344.2344,739.6992,340.2344,735.6992" style="stroke:#181818;stroke-width:1.0;"/><line style="stroke:#181818;stroke-width:1.0;stroke-dasharray:2.0,2.0;" x1="338.2344" x2="706.4629" y1="735.6992" y2="735.6992"/><text fill="#000000" font-family="sans-serif" font-size="13" font-weight="bold" lengthAdjust="spacing" textLength="17.1514" x="350.2344" y="730.957">15</text><text fill="#000000" font-family="sans-serif" font-size="13" lengthAdjust="spacing" textLength="130.9648" x="371.3857" y="730.957">Display Physics Error</text><line style="stroke:#000000;stroke-width:1.0;stroke-dasharray:2.0,2.0;" x1="231.3677" x2="2325.9048" y1="744.6992" y2="744.6992"/><text fill="#000000" font-family="sans-serif" font-size="11" font-weight="bold" lengthAdjust="spacing" textLength="82.6289" x="236.3677" y="755.334">[Physics Valid]</text><path d="M941,763.6543 L941,788.6543 L1158,788.6543 L1158,773.6543 L1148,763.6543 L941,763.6543 " fill="#FEFFDD" style="stroke:#181818;stroke-width:0.5;"/><path d="M1148,763.6543 L1148,773.6543 L1158,773.6543 L1148,763.6543 " fill="#FEFFDD" style="stroke:#181818;stroke-width:0.5;"/><text fill="#000000" font-family="sans-serif" font-size="13" lengthAdjust="spacing" textLength="196.0918" x="947" y="781.2227">4. Validate Infrastructure (AC3)</text><polygon fill="#181818" points="1918.3359,811.2754,1928.3359,815.2754,1918.3359,819.2754,1922.3359,815.2754" style="stroke:#181818;stroke-width:1.0;"/><line style="stroke:#181818;stroke-width:1.0;" x1="1054.8076" x2="1924.3359" y1="815.2754" y2="815.2754"/><text fill="#000000" font-family="sans-serif" font-size="13" font-weight="bold" lengthAdjust="spacing" textLength="17.1514" x="1061.8076" y="810.5332">16</text><text fill="#000000" font-family="sans-serif" font-size="13" lengthAdjust="spacing" textLength="184.355" x="1082.959" y="810.5332">validateCapacity(train.length)</text><line style="stroke:#181818;stroke-width:1.0;" x1="1940.3359" x2="1982.3359" y1="844.5859" y2="844.5859"/><line style="stroke:#181818;stroke-width:1.0;" x1="1982.3359" x2="1982.3359" y1="844.5859" y2="857.5859"/><line style="stroke:#181818;stroke-width:1.0;" x1="1941.3359" x2="1982.3359" y1="857.5859" y2="857.5859"/><polygon fill="#181818" points="1951.3359,853.5859,1941.3359,857.5859,1951.3359,861.5859,1947.3359,857.5859" style="stroke:#181818;stroke-width:1.0;"/><text fill="#000000" font-family="sans-serif" font-size="13" font-weight="bold" lengthAdjust="spacing" textLength="17.1514" x="1947.3359" y="839.8438">17</text><text fill="#000000" font-family="sans-serif" font-size="13" lengthAdjust="spacing" textLength="256.4199" x="1968.4873" y="839.8438">check(maxSidingLength &gt;= train.length)</text><polygon fill="#181818" points="1065.8076,882.8965,1055.8076,886.8965,1065.8076,890.8965,1061.8076,886.8965" style="stroke:#181818;stroke-width:1.0;"/><line style="stroke:#181818;stroke-width:1.0;stroke-dasharray:2.0,2.0;" x1="1059.8076" x2="1934.3359" y1="886.8965" y2="886.8965"/><text fill="#000000" font-family="sans-serif" font-size="13" font-weight="bold" lengthAdjust="spacing" textLength="17.1514" x="1071.8076" y="882.1543">18</text><text fill="#000000" font-family="sans-serif" font-size="13" lengthAdjust="spacing" textLength="85.0396" x="1092.959" y="882.1543">isLengthValid</text><path d="M241.3677,901.8965 L303.5063,901.8965 L303.5063,909.207 L293.5063,919.207 L241.3677,919.207 L241.3677,901.8965 " fill="#EEEEEE" style="stroke:#000000;stroke-width:1.5;"/><rect fill="none" height="243.4395" style="stroke:#000000;stroke-width:1.5;" width="2074.5371" x="241.3677" y="901.8965"/><text fill="#000000" font-family="sans-serif" font-size="13" font-weight="bold" lengthAdjust="spacing" textLength="17.1387" x="256.3677" y="915.4648">alt</text><text fill="#000000" font-family="sans-serif" font-size="11" font-weight="bold" lengthAdjust="spacing" textLength="89.0903" x="318.5063" y="914.5313">[Length Invalid]</text><polygon fill="#181818" points="728.4629,936.5176,718.4629,940.5176,728.4629,944.5176,724.4629,940.5176" style="stroke:#181818;stroke-width:1.0;"/><line style="stroke:#181818;stroke-width:1.0;stroke-dasharray:2.0,2.0;" x1="722.4629" x2="1043.8076" y1="940.5176" y2="940.5176"/><text fill="#000000" font-family="sans-serif" font-size="13" font-weight="bold" lengthAdjust="spacing" textLength="17.1514" x="734.4629" y="935.7754">19</text><text fill="#000000" font-family="sans-serif" font-size="13" lengthAdjust="spacing" textLength="198.6626" x="755.6143" y="935.7754">error("Train too long for route")</text><polygon fill="#181818" points="344.2344,965.8281,334.2344,969.8281,344.2344,973.8281,340.2344,969.8281" style="stroke:#181818;stroke-width:1.0;"/><line style="stroke:#181818;stroke-width:1.0;stroke-dasharray:2.0,2.0;" x1="338.2344" x2="706.4629" y1="969.8281" y2="969.8281"/><text fill="#000000" font-family="sans-serif" font-size="13" font-weight="bold" lengthAdjust="spacing" textLength="17.1514" x="350.2344" y="965.0859">20</text><text fill="#000000" font-family="sans-serif" font-size="13" lengthAdjust="spacing" textLength="179.3467" x="371.3857" y="965.0859">Display Route Capacity Error</text><line style="stroke:#000000;stroke-width:1.0;stroke-dasharray:2.0,2.0;" x1="241.3677" x2="2315.9048" y1="978.8281" y2="978.8281"/><text fill="#000000" font-family="sans-serif" font-size="11" font-weight="bold" lengthAdjust="spacing" textLength="55.6284" x="246.3677" y="989.4629">[All Valid]</text><path d="M943,997.7832 L943,1022.7832 L1154,1022.7832 L1154,1007.7832 L1144,997.7832 L943,997.7832 " fill="#FEFFDD" style="stroke:#181818;stroke-width:0.5;"/><path d="M1144,997.7832 L1144,1007.7832 L1154,1007.7832 L1144,997.7832 " fill="#FEFFDD" style="stroke:#181818;stroke-width:0.5;"/><text fill="#000000" font-family="sans-serif" font-size="13" lengthAdjust="spacing" textLength="190.6772" x="949" y="1015.3516">5. Assign &amp; Persist (AC4, AC5)</text><polygon fill="#181818" points="2234.9072,1045.4043,2244.9072,1049.4043,2234.9072,1053.4043,2238.9072,1049.4043" style="stroke:#181818;stroke-width:1.0;"/><line style="stroke:#181818;stroke-width:1.0;" x1="1054.8076" x2="2240.9072" y1="1049.4043" y2="1049.4043"/><text fill="#000000" font-family="sans-serif" font-size="13" font-weight="bold" lengthAdjust="spacing" textLength="17.1514" x="1061.8076" y="1044.6621">21</text><text fill="#000000" font-family="sans-serif" font-size="13" lengthAdjust="spacing" textLength="270.5942" x="1082.959" y="1044.6621">save(new ScheduledTrip(train, route, date))</text><polygon fill="#181818" points="1365.6182,1074.7148,1375.6182,1078.7148,1365.6182,1082.7148,1369.6182,1078.7148" style="stroke:#181818;stroke-width:1.0;"/><line style="stroke:#181818;stroke-width:1.0;" x1="1054.8076" x2="1371.6182" y1="1078.7148" y2="1078.7148"/><text fill="#000000" font-family="sans-serif" font-size="13" font-weight="bold" lengthAdjust="spacing" textLength="17.1514" x="1061.8076" y="1073.9727">22</text><text fill="#000000" font-family="sans-serif" font-size="13" lengthAdjust="spacing" textLength="277.6592" x="1082.959" y="1073.9727">updateStatus(locoId, wagonIds, "ASSIGNED")</text><polygon fill="#181818" points="728.4629,1104.0254,718.4629,1108.0254,728.4629,1112.0254,724.4629,1108.0254" style="stroke:#181818;stroke-width:1.0;"/><line style="stroke:#181818;stroke-width:1.0;stroke-dasharray:2.0,2.0;" x1="722.4629" x2="1043.8076" y1="1108.0254" y2="1108.0254"/><text fill="#000000" font-family="sans-serif" font-size="13" font-weight="bold" lengthAdjust="spacing" textLength="17.1514" x="734.4629" y="1103.2832">23</text><text fill="#000000" font-family="sans-serif" font-size="13" lengthAdjust="spacing" textLength="129.3145" x="755.6143" y="1103.2832">success(trainDetails)</text><polygon fill="#181818" points="344.2344,1133.3359,334.2344,1137.3359,344.2344,1141.3359,340.2344,1137.3359" style="stroke:#181818;stroke-width:1.0;"/><line style="stroke:#181818;stroke-width:1.0;stroke-dasharray:2.0,2.0;" x1="338.2344" x2="706.4629" y1="1137.3359" y2="1137.3359"/><text fill="#000000" font-family="sans-serif" font-size="13" font-weight="bold" lengthAdjust="spacing" textLength="17.1514" x="350.2344" y="1132.5938">24</text><text fill="#000000" font-family="sans-serif" font-size="13" lengthAdjust="spacing" textLength="157.3647" x="371.3857" y="1132.5938">Display Success Message</text><!--SRC=[bLLTRzem57tFhxZYOKga3grV3vi44W8sHQ9JrRJTi-kOODNOaUtGyUzt_P4Gsj1sI43it7jyVCxrDMciaitsYUaa8TGg3QDxJTPhJk66I58nFG9YskUa9jfoociYhG_aSgwsjJBSSYNX8VV13_a7SNCbhLP2HF2vrUA3Z8Bf7QVCXyVduumxXEEoAgoYpt37VABIUv_WXdV5w_Z6ii50zsA03QIpgjAi8fPbFjZF3e06f24KNWyjwEQJP3A1mc8up8nXsoUnXo_kaLToop0xVIXMjz- -Pp2PU9_u3dbqhiH_-3f5xU47AYGOjGPMYgep-4Cg9SrPu8Im2qmzOA1P2IPXghC1awbcE3-JPLZURpCLY9INP_3YiF8IqRH3SrEbK-I0vyrCF1PYHgyGbeHziV_5QzrEfCAHsk4s3w3dO_Z9BDt0GcsTHqjfiLwOGRFcvrdI1YAHK0EOikQoTBfi5Ix08f7JeK6yjENvDj2B6cBzSnetaWqplXZ3t0iSwWUweke3XrUj5PvZe1i5CojkR4-ZK8g0dv3PXo22DWA3xfKbuWPTIBFFHAwOhEpcEFR8J-lcScaiaUXEoLwH6TpyvHWUYU3EORZTx0sdtgcBR6ZpknY9OmVDbkkrqZRzvBOtZ3vxuSRCvy5q0hQLuFIkk8cyFC-1RH5XE-gvz1mzMBU1mq5YMYkTZWx51boQnhLMxevqhLwm_mKguRYqntV1JIt8lbjdwO0I9in1jK3Fvmu9VTKJEfThJOpL3RMDPaxlo-oOyXJQAcurdvEQK6xtgNTvB7mnXAnEaD3Y87u2GWygEB0bVmjUOcCEzUHTU0FPotzbHiXwx5Jk-H6M3vJGauZVj-HzMuBxLYaGIbQ0DH9QqEZ0QTYLmBHLA9hZmhr1Co7wvfmow7eSkplsurkc3PvdvypL6SpcrzbR-jFkgi1aGx1nIVO21OfSDeALxaNmAZRIs4PF8ld-rjGk2AyTsvY1ZZoQ5KN-w_ToWPAy9wXfA6NOL_pw2sO95-OZ4OkG0pVuWrTNm6UoJDotV-pQzj-RyZTCRumtM6_Kted_0000]--></g></svg>