<?xml version="1.0" encoding="us-ascii" standalone="no"?><svg xmlns="http://www.w3.org/2000/svg" xmlns:xlink="http://www.w3.org/1999/xlink" contentStyleType="text/css" height="568px" preserveAspectRatio="none" style="width:520px;height:568px;background:#FFFFFF;" version="1.1" viewBox="0 0 520 568" width="520px" zoomAndPan="magnify"><defs/><g><text fill="#000000" font-family="sans-serif" font-size="14" font-weight="bold" lengthAdjust="spacing" textLength="243" x="131.75" y="25.1074">USEI10 - Radius Search &amp; Summary</text><!--class StationSpatialQueryService--><g id="elem_StationSpatialQueryService"><rect codeLine="11" fill="#F1F1F1" height="36.6211" id="StationSpatialQueryService" rx="2.5" ry="2.5" style="stroke:#181818;stroke-width:0.5;" width="179" x="182" y="46.6211"/><text fill="#000000" font-family="sans-serif" font-size="14" lengthAdjust="spacing" textLength="173" x="185" y="66.7285">StationSpatialQueryService</text><line style="stroke:#181818;stroke-width:0.5;" x1="183" x2="360" y1="75.2422" y2="75.2422"/></g><!--class StationIndexManager--><g id="elem_StationIndexManager"><rect codeLine="16" fill="#F1F1F1" height="36.6211" id="StationIndexManager" rx="2.5" ry="2.5" style="stroke:#181818;stroke-width:0.5;" width="139" x="7" y="181.1211"/><text fill="#000000" font-family="sans-serif" font-size="14" lengthAdjust="spacing" textLength="133" x="10" y="201.2285">StationIndexManager</text><line style="stroke:#181818;stroke-width:0.5;" x1="8" x2="145" y1="209.7422" y2="209.7422"/></g><!--class TwoDTree--><g id="elem_TwoDTree"><rect codeLine="20" fill="#F1F1F1" height="36.6211" id="TwoDTree" rx="2.5" ry="2.5" style="stroke:#181818;stroke-width:0.5;" width="72" x="40.5" y="315.6211"/><text fill="#000000" font-family="sans-serif" font-size="14" lengthAdjust="spacing" textLength="66" x="43.5" y="335.7285">TwoDTree</text><line style="stroke:#181818;stroke-width:0.5;" x1="41.5" x2="111.5" y1="344.2422" y2="344.2422"/></g><!--class EuropeanStation--><g id="elem_EuropeanStation"><rect codeLine="25" fill="#F1F1F1" height="129.7266" id="EuropeanStation" rx="2.5" ry="2.5" style="stroke:#181818;stroke-width:0.5;" width="112" x="91.5" y="431.6211"/><text fill="#000000" font-family="sans-serif" font-size="14" lengthAdjust="spacing" textLength="106" x="94.5" y="451.7285">EuropeanStation</text><line style="stroke:#181818;stroke-width:0.5;" x1="92.5" x2="202.5" y1="460.2422" y2="460.2422"/><text fill="#000000" font-family="sans-serif" font-size="14" lengthAdjust="spacing" textLength="78" x="97.5" y="479.3496">stationName</text><text fill="#000000" font-family="sans-serif" font-size="14" lengthAdjust="spacing" textLength="46" x="97.5" y="497.9707">latitude</text><text fill="#000000" font-family="sans-serif" font-size="14" lengthAdjust="spacing" textLength="58" x="97.5" y="516.5918">longitude</text><text fill="#000000" font-family="sans-serif" font-size="14" lengthAdjust="spacing" textLength="47" x="97.5" y="535.2129">country</text><text fill="#000000" font-family="sans-serif" font-size="14" lengthAdjust="spacing" textLength="34" x="97.5" y="553.834">isCity</text></g><!--class StationDistanceResult--><g id="elem_StationDistanceResult"><rect codeLine="34" fill="#F1F1F1" height="36.6211" id="StationDistanceResult" rx="2.5" ry="2.5" style="stroke:#181818;stroke-width:0.5;" width="145" x="148" y="315.6211"/><text fill="#000000" font-family="sans-serif" font-size="14" lengthAdjust="spacing" textLength="139" x="151" y="335.7285">StationDistanceResult</text><line style="stroke:#181818;stroke-width:0.5;" x1="149" x2="292" y1="344.2422" y2="344.2422"/></g><!--class AVLTree--><g id="elem_AVLTree"><rect codeLine="40" fill="#F1F1F1" height="36.6211" id="AVLTree" rx="2.5" ry="2.5" style="stroke:#181818;stroke-width:0.5;" width="62" x="296.5" y="181.1211"/><text fill="#000000" font-family="sans-serif" font-size="14" lengthAdjust="spacing" textLength="56" x="299.5" y="201.2285">AVLTree</text><line style="stroke:#181818;stroke-width:0.5;" x1="297.5" x2="357.5" y1="209.7422" y2="209.7422"/></g><!--class DensitySummary--><g id="elem_DensitySummary"><rect codeLine="45" fill="#F1F1F1" height="73.8633" id="DensitySummary" rx="2.5" ry="2.5" style="stroke:#181818;stroke-width:0.5;" width="120" x="393.5" y="162.6211"/><text fill="#000000" font-family="sans-serif" font-size="14" lengthAdjust="spacing" textLength="106" x="400.5" y="182.7285">DensitySummary</text><line style="stroke:#181818;stroke-width:0.5;" x1="394.5" x2="512.5" y1="191.2422" y2="191.2422"/><text fill="#000000" font-family="sans-serif" font-size="14" lengthAdjust="spacing" textLength="108" x="399.5" y="210.3496">countsByCountry</text><text fill="#000000" font-family="sans-serif" font-size="14" lengthAdjust="spacing" textLength="92" x="399.5" y="228.9707">countsByIsCity</text></g><!--link StationSpatialQueryService to StationIndexManager--><g id="link_StationSpatialQueryService_StationIndexManager"><path codeLine="51" d="M230.48,83.6711 C198.86,97.2011 160.5,113.6211 160.5,113.6211 C160.5,113.6211 122.7277,151.8437 98.1177,176.7437 " fill="none" id="StationSpatialQueryService-to-StationIndexManager" style="stroke:#181818;stroke-width:1.0;"/><polygon fill="#181818" points="93.9,181.0111,103.0715,177.4218,97.4148,177.4549,97.3816,171.7982,93.9,181.0111" style="stroke:#181818;stroke-width:1.0;"/><text fill="#000000" font-family="sans-serif" font-size="13" lengthAdjust="spacing" textLength="28" x="161.5" y="128.6494">uses</text></g><!--reverse link StationIndexManager to TwoDTree--><g id="link_StationIndexManager_TwoDTree"><path codeLine="52" d="M76.5,230.2111 C76.5,255.5611 76.5,290.0711 76.5,315.4511 " fill="none" id="StationIndexManager-backto-TwoDTree" style="stroke:#181818;stroke-width:1.0;"/><polygon fill="#181818" points="76.5,218.2111,72.5,224.2111,76.5,230.2111,80.5,224.2111,76.5,218.2111" style="stroke:#181818;stroke-width:1.0;"/><text fill="#000000" font-family="sans-serif" font-size="13" lengthAdjust="spacing" textLength="66" x="77.5" y="281.6494">holds index</text><text fill="#000000" font-family="sans-serif" font-size="13" lengthAdjust="spacing" textLength="7" x="68.5594" y="239.6099">1</text><text fill="#000000" font-family="sans-serif" font-size="13" lengthAdjust="spacing" textLength="7" x="68.4281" y="304.2612">1</text></g><!--reverse link TwoDTree to EuropeanStation--><g id="link_TwoDTree_EuropeanStation"><path codeLine="54" d="M89.2228,363.8861 C97.6328,382.9061 106.61,403.1911 119.19,431.6211 " fill="none" id="TwoDTree-backto-EuropeanStation" style="stroke:#181818;stroke-width:1.0;"/><polygon fill="none" points="84.37,352.9111,83.1381,360.0162,89.2228,363.8861,90.4547,356.781,84.37,352.9111" style="stroke:#181818;stroke-width:1.0;"/><text fill="#000000" font-family="sans-serif" font-size="13" lengthAdjust="spacing" textLength="45" x="107.5" y="397.6494">indexes</text><text fill="#000000" font-family="sans-serif" font-size="13" lengthAdjust="spacing" textLength="20" x="94.7604" y="420.1836">1..*</text></g><!--link StationSpatialQueryService to AVLTree--><g id="link_StationSpatialQueryService_AVLTree"><path codeLine="57" d="M278.94,83.7111 C289.65,109.0611 306.9754,150.0439 317.6954,175.4239 " fill="none" id="StationSpatialQueryService-to-AVLTree" style="stroke:#181818;stroke-width:1.0;stroke-dasharray:7.0,7.0;"/><polygon fill="#181818" points="320.03,180.9511,320.2129,171.1039,318.0845,176.3451,312.8434,174.2167,320.03,180.9511" style="stroke:#181818;stroke-width:1.0;"/><text fill="#000000" font-family="sans-serif" font-size="13" lengthAdjust="spacing" textLength="40" x="300.5" y="128.6494">returns</text></g><!--link StationSpatialQueryService to DensitySummary--><g id="link_StationSpatialQueryService_DensitySummary"><path codeLine="58" d="M300.54,83.8111 C322.72,97.3111 349.5,113.6211 349.5,113.6211 C349.5,113.6211 376.4041,135.6143 404.7441,158.7743 " fill="none" id="StationSpatialQueryService-to-DensitySummary" style="stroke:#181818;stroke-width:1.0;stroke-dasharray:7.0,7.0;"/><polygon fill="#181818" points="409.39,162.5711,404.9523,153.7787,405.5184,159.4071,399.8899,159.9733,409.39,162.5711" style="stroke:#181818;stroke-width:1.0;"/><text fill="#000000" font-family="sans-serif" font-size="13" lengthAdjust="spacing" textLength="40" x="372.5" y="128.6494">returns</text></g><!--link StationSpatialQueryService to StationDistanceResult--><g id="link_StationSpatialQueryService_StationDistanceResult"><path codeLine="61" d="M264.53,83.8211 C253.56,111.6811 233.5,162.6211 233.5,162.6211 C233.5,162.6211 225.6159,265.9684 222.2959,309.5384 " fill="none" id="StationSpatialQueryService-to-StationDistanceResult" style="stroke:#181818;stroke-width:1.0;stroke-dasharray:7.0,7.0;"/><polygon fill="#181818" points="221.84,315.5211,226.5122,306.851,222.2199,310.5355,218.5354,306.2432,221.84,315.5211" style="stroke:#181818;stroke-width:1.0;"/><text fill="#000000" font-family="sans-serif" font-size="13" lengthAdjust="spacing" textLength="43" x="234.5" y="205.1494">creates</text></g><!--link StationDistanceResult to EuropeanStation--><g id="link_StationDistanceResult_EuropeanStation"><path codeLine="62" d="M212.41,352.9111 C203.76,371.9311 189.54,403.1911 176.61,431.6211 " fill="none" id="StationDistanceResult-EuropeanStation" style="stroke:#181818;stroke-width:1.0;"/><text fill="#000000" font-family="sans-serif" font-size="13" lengthAdjust="spacing" textLength="47" x="198.5" y="397.6494">refers to</text><text fill="#000000" font-family="sans-serif" font-size="13" lengthAdjust="spacing" textLength="7" x="202.2952" y="374.3636">1</text><text fill="#000000" font-family="sans-serif" font-size="13" lengthAdjust="spacing" textLength="7" x="172.5712" y="420.1836">1</text></g><!--reverse link AVLTree to StationDistanceResult--><g id="link_AVLTree_StationDistanceResult"><path codeLine="65" d="M305.7533,227.5491 C285.2933,252.8991 255.27,290.0711 234.77,315.4511 " fill="none" id="AVLTree-backto-StationDistanceResult" style="stroke:#181818;stroke-width:1.0;"/><polygon fill="none" points="313.29,218.2111,306.409,220.3679,305.7533,227.5491,312.6343,225.3923,313.29,218.2111" style="stroke:#181818;stroke-width:1.0;"/><text fill="#000000" font-family="sans-serif" font-size="13" lengthAdjust="spacing" textLength="49" x="275.5" y="281.6494">contains</text><text fill="#000000" font-family="sans-serif" font-size="13" lengthAdjust="spacing" textLength="20" x="216.0777" y="304.2612">0..*</text></g><!--SRC=[XLJVRzCm47xtNt7Q0sicjUe62AaIaygwXqhy44k1PpUvDgQ97Ump8o3-TyvEqgPRsPvit_cx7zzzDYag4RwajylBAOpXJkRAEqXHsgo05v3wgfAs4Q9GEKAcR5PYkw-G2fCxuNPArzBA2cgPxUGMKseueiMCfDxoxSC5LyZSt2kzXOqitT1JAetKr0YrAPjm6FYoKZet9x9gxGcNcT6f-eqm5I9w82L9YeqrBxByxD4sATgVAaFu8m3EuHEtWewi97JWscimih7J17umGA4JVuKuXrMXN9iG2bFc3gZ0FKJf77yT9rq6qmUfkMtBsReO0OAPsYZCZy4msbXJHRQdRv8krEhUB5OM-sf7LmiOxTvU9H2CoI5cPYp2mbHIQRZLfAZf0jnwQsgKkgifnd7j_gEia4yb7yZdSMlqjjzdnclYuG8eTnFYnLpVhAnhRcTZB4_H-PAO1WEoBCqzE6Cf373TGAuuYMQMH_ERLyanBulETnVniI8O07PL4Ys3AfaQpaSAnskBSfUSuj9ugZr1BaaorFgCl8tfN_Rfvr_V3wbCkLh6jLq07VYSTqEEEKEELkOXrki-rWArOrAw5z3r42bpxvgRFNK7st90uXsMiJLNgDg99oGw7b-V5DCClCCzyiXrTda65-DnNFVYcNM2RKKgzdOJBquc5sUFT39hBtEMdkck9ejCh7OWuxYPmC0SI9q7I_SXFD7IP7Az7yIi3_OSu07R1zo3sZ9MHtZ7tKpD-Zj_D0voRuCimop3WtwsljCwdVNXnMb_OBmZ_Z6P5ZTemrFfInx83iAtOghQk23ZJQppk0FHCnO7Deq3-s-HHXF_0axy0m00]--></g></svg>