<?xml version="1.0" encoding="us-ascii" standalone="no"?><svg xmlns="http://www.w3.org/2000/svg" xmlns:xlink="http://www.w3.org/1999/xlink" contentStyleType="text/css" height="652px" preserveAspectRatio="none" style="width:901px;height:652px;background:#FFFFFF;" version="1.1" viewBox="0 0 901 652" width="901px" zoomAndPan="magnify"><defs/><g><text fill="#000000" font-family="sans-serif" font-size="14" font-weight="bold" lengthAdjust="spacing" textLength="379" x="254" y="25.1074">USEI05 - Design Class Diagram (Returns &amp; Quarantine)</text><!--class Return--><g id="elem_Return"><rect codeLine="4" fill="#F1F1F1" height="178.3477" id="Return" rx="2.5" ry="2.5" style="stroke:#181818;stroke-width:0.5;" width="187" x="7" y="467.6211"/><ellipse cx="74.75" cy="483.6211" fill="#ADD1B2" rx="11" ry="11" style="stroke:#181818;stroke-width:1.0;"/><path d="M77.5156,479.4961 Q77.6719,479.2773 77.8594,479.168 Q78.0469,479.0586 78.2656,479.0586 Q78.6406,479.0586 78.875,479.3242 Q79.1094,479.5742 79.1094,480.1836 L79.1094,481.6367 Q79.1094,482.2461 78.875,482.5117 Q78.6406,482.7773 78.2656,482.7773 Q77.9219,482.7773 77.7188,482.5742 Q77.5156,482.3867 77.4063,481.8711 Q77.3594,481.5117 77.1719,481.3242 Q76.8438,480.9492 76.2344,480.7305 Q75.625,480.5117 75,480.5117 Q74.2344,480.5117 73.5938,480.8398 Q72.9688,481.168 72.4688,481.918 Q71.9844,482.668 71.9844,483.6992 L71.9844,484.793 Q71.9844,486.0273 72.875,486.8555 Q73.7656,487.668 75.3594,487.668 Q76.2969,487.668 76.9531,487.418 Q77.3438,487.2617 77.7656,486.8242 Q78.0313,486.5586 78.1719,486.4805 Q78.3281,486.4023 78.5313,486.4023 Q78.8594,486.4023 79.1094,486.668 Q79.375,486.918 79.375,487.2617 Q79.375,487.6055 79.0313,488.0117 Q78.5313,488.5898 77.7344,488.918 Q76.6563,489.3711 75.3594,489.3711 Q73.8438,489.3711 72.6406,488.7461 Q71.6563,488.2461 70.9688,487.1836 Q70.2813,486.1055 70.2813,484.8242 L70.2813,483.668 Q70.2813,482.3398 70.8906,481.1992 Q71.5156,480.043 72.6094,479.4336 Q73.7031,478.8086 74.9375,478.8086 Q75.6719,478.8086 76.3125,478.9805 Q76.9688,479.1367 77.5156,479.4961 Z " fill="#000000"/><text fill="#000000" font-family="sans-serif" font-size="14" lengthAdjust="spacing" textLength="43" x="95.25" y="489.418">Return</text><line style="stroke:#181818;stroke-width:0.5;" x1="8" x2="193" y1="499.6211" y2="499.6211"/><rect fill="none" height="6" style="stroke:#C82930;stroke-width:1.0;" width="6" x="15" y="511.4316"/><text fill="#000000" font-family="sans-serif" font-size="14" lengthAdjust="spacing" textLength="98" x="27" y="518.7285">returnId : String</text><rect fill="none" height="6" style="stroke:#C82930;stroke-width:1.0;" width="6" x="15" y="530.0527"/><text fill="#000000" font-family="sans-serif" font-size="14" lengthAdjust="spacing" textLength="71" x="27" y="537.3496">sku : String</text><rect fill="none" height="6" style="stroke:#C82930;stroke-width:1.0;" width="6" x="15" y="548.6738"/><text fill="#000000" font-family="sans-serif" font-size="14" lengthAdjust="spacing" textLength="46" x="27" y="555.9707">qty : int</text><rect fill="none" height="6" style="stroke:#C82930;stroke-width:1.0;" width="6" x="15" y="567.2949"/><text fill="#000000" font-family="sans-serif" font-size="14" lengthAdjust="spacing" textLength="93" x="27" y="574.5918">reason : String</text><rect fill="none" height="6" style="stroke:#C82930;stroke-width:1.0;" width="6" x="15" y="585.916"/><text fill="#000000" font-family="sans-serif" font-size="14" lengthAdjust="spacing" textLength="137" x="27" y="593.2129">timestamp : DateTime</text><rect fill="none" height="6" style="stroke:#C82930;stroke-width:1.0;" width="6" x="15" y="604.5371"/><text fill="#000000" font-family="sans-serif" font-size="14" lengthAdjust="spacing" textLength="117" x="27" y="611.834">expiryDate : Date?</text><line style="stroke:#181818;stroke-width:0.5;" x1="8" x2="193" y1="619.3477" y2="619.3477"/><ellipse cx="18" cy="634.1582" fill="#84BE84" rx="3" ry="3" style="stroke:#038048;stroke-width:1.0;"/><text fill="#000000" font-family="sans-serif" font-size="14" lengthAdjust="spacing" textLength="161" x="27" y="638.4551">isRestockable() : boolean</text></g><!--class Quarantine--><g id="elem_Quarantine"><rect codeLine="14" fill="#F1F1F1" height="122.4844" id="Quarantine" rx="2.5" ry="2.5" style="stroke:#181818;stroke-width:0.5;" width="181" x="67" y="257.1211"/><ellipse cx="117.75" cy="273.1211" fill="#ADD1B2" rx="11" ry="11" style="stroke:#181818;stroke-width:1.0;"/><path d="M120.5156,268.9961 Q120.6719,268.7773 120.8594,268.668 Q121.0469,268.5586 121.2656,268.5586 Q121.6406,268.5586 121.875,268.8242 Q122.1094,269.0742 122.1094,269.6836 L122.1094,271.1367 Q122.1094,271.7461 121.875,272.0117 Q121.6406,272.2773 121.2656,272.2773 Q120.9219,272.2773 120.7188,272.0742 Q120.5156,271.8867 120.4063,271.3711 Q120.3594,271.0117 120.1719,270.8242 Q119.8438,270.4492 119.2344,270.2305 Q118.625,270.0117 118,270.0117 Q117.2344,270.0117 116.5938,270.3398 Q115.9688,270.668 115.4688,271.418 Q114.9844,272.168 114.9844,273.1992 L114.9844,274.293 Q114.9844,275.5273 115.875,276.3555 Q116.7656,277.168 118.3594,277.168 Q119.2969,277.168 119.9531,276.918 Q120.3438,276.7617 120.7656,276.3242 Q121.0313,276.0586 121.1719,275.9805 Q121.3281,275.9023 121.5313,275.9023 Q121.8594,275.9023 122.1094,276.168 Q122.375,276.418 122.375,276.7617 Q122.375,277.1055 122.0313,277.5117 Q121.5313,278.0898 120.7344,278.418 Q119.6563,278.8711 118.3594,278.8711 Q116.8438,278.8711 115.6406,278.2461 Q114.6563,277.7461 113.9688,276.6836 Q113.2813,275.6055 113.2813,274.3242 L113.2813,273.168 Q113.2813,271.8398 113.8906,270.6992 Q114.5156,269.543 115.6094,268.9336 Q116.7031,268.3086 117.9375,268.3086 Q118.6719,268.3086 119.3125,268.4805 Q119.9688,268.6367 120.5156,268.9961 Z " fill="#000000"/><text fill="#000000" font-family="sans-serif" font-size="14" lengthAdjust="spacing" textLength="71" x="138.25" y="278.918">Quarantine</text><line style="stroke:#181818;stroke-width:0.5;" x1="68" x2="247" y1="289.1211" y2="289.1211"/><rect fill="none" height="6" style="stroke:#C82930;stroke-width:1.0;" width="6" x="75" y="300.9316"/><text fill="#000000" font-family="sans-serif" font-size="14" lengthAdjust="spacing" textLength="139" x="87" y="308.2285">stack : Stack&lt;Return&gt;</text><line style="stroke:#181818;stroke-width:0.5;" x1="68" x2="247" y1="315.7422" y2="315.7422"/><ellipse cx="78" cy="330.5527" fill="#84BE84" rx="3" ry="3" style="stroke:#038048;stroke-width:1.0;"/><text fill="#000000" font-family="sans-serif" font-size="14" lengthAdjust="spacing" textLength="137" x="87" y="334.8496">addReturn(r : Return)</text><ellipse cx="78" cy="349.1738" fill="#84BE84" rx="3" ry="3" style="stroke:#038048;stroke-width:1.0;"/><text fill="#000000" font-family="sans-serif" font-size="14" lengthAdjust="spacing" textLength="155" x="87" y="353.4707">getNextReturn() : Return</text><ellipse cx="78" cy="367.7949" fill="#84BE84" rx="3" ry="3" style="stroke:#038048;stroke-width:1.0;"/><text fill="#000000" font-family="sans-serif" font-size="14" lengthAdjust="spacing" textLength="122" x="87" y="372.0918">isEmpty() : boolean</text></g><!--class Inventory--><g id="elem_Inventory"><rect codeLine="21" fill="#F1F1F1" height="141.1055" id="Inventory" rx="2.5" ry="2.5" style="stroke:#181818;stroke-width:0.5;" width="270" x="311.5" y="247.6211"/><ellipse cx="413.25" cy="263.6211" fill="#ADD1B2" rx="11" ry="11" style="stroke:#181818;stroke-width:1.0;"/><path d="M416.0156,259.4961 Q416.1719,259.2773 416.3594,259.168 Q416.5469,259.0586 416.7656,259.0586 Q417.1406,259.0586 417.375,259.3242 Q417.6094,259.5742 417.6094,260.1836 L417.6094,261.6367 Q417.6094,262.2461 417.375,262.5117 Q417.1406,262.7773 416.7656,262.7773 Q416.4219,262.7773 416.2188,262.5742 Q416.0156,262.3867 415.9063,261.8711 Q415.8594,261.5117 415.6719,261.3242 Q415.3438,260.9492 414.7344,260.7305 Q414.125,260.5117 413.5,260.5117 Q412.7344,260.5117 412.0938,260.8398 Q411.4688,261.168 410.9688,261.918 Q410.4844,262.668 410.4844,263.6992 L410.4844,264.793 Q410.4844,266.0273 411.375,266.8555 Q412.2656,267.668 413.8594,267.668 Q414.7969,267.668 415.4531,267.418 Q415.8438,267.2617 416.2656,266.8242 Q416.5313,266.5586 416.6719,266.4805 Q416.8281,266.4023 417.0313,266.4023 Q417.3594,266.4023 417.6094,266.668 Q417.875,266.918 417.875,267.2617 Q417.875,267.6055 417.5313,268.0117 Q417.0313,268.5898 416.2344,268.918 Q415.1563,269.3711 413.8594,269.3711 Q412.3438,269.3711 411.1406,268.7461 Q410.1563,268.2461 409.4688,267.1836 Q408.7813,266.1055 408.7813,264.8242 L408.7813,263.668 Q408.7813,262.3398 409.3906,261.1992 Q410.0156,260.043 411.1094,259.4336 Q412.2031,258.8086 413.4375,258.8086 Q414.1719,258.8086 414.8125,258.9805 Q415.4688,259.1367 416.0156,259.4961 Z " fill="#000000"/><text fill="#000000" font-family="sans-serif" font-size="14" lengthAdjust="spacing" textLength="58" x="433.75" y="269.418">Inventory</text><line style="stroke:#181818;stroke-width:0.5;" x1="312.5" x2="580.5" y1="279.6211" y2="279.6211"/><rect fill="none" height="6" style="stroke:#C82930;stroke-width:1.0;" width="6" x="319.5" y="291.4316"/><text fill="#000000" font-family="sans-serif" font-size="14" lengthAdjust="spacing" textLength="110" x="331.5" y="298.7285">boxes : List&lt;Box&gt;</text><line style="stroke:#181818;stroke-width:0.5;" x1="312.5" x2="580.5" y1="306.2422" y2="306.2422"/><ellipse cx="322.5" cy="321.0527" fill="#84BE84" rx="3" ry="3" style="stroke:#038048;stroke-width:1.0;"/><text fill="#000000" font-family="sans-serif" font-size="14" lengthAdjust="spacing" textLength="116" x="331.5" y="325.3496">restock(r : Return)</text><ellipse cx="322.5" cy="339.6738" fill="#84BE84" rx="3" ry="3" style="stroke:#038048;stroke-width:1.0;"/><text fill="#000000" font-family="sans-serif" font-size="14" lengthAdjust="spacing" textLength="244" x="331.5" y="343.9707">createBoxFromReturn(r : Return) : Box</text><ellipse cx="322.5" cy="358.2949" fill="#84BE84" rx="3" ry="3" style="stroke:#038048;stroke-width:1.0;"/><text fill="#000000" font-family="sans-serif" font-size="14" lengthAdjust="spacing" textLength="149" x="331.5" y="362.5918">insertBoxFEFO(b : Box)</text><ellipse cx="322.5" cy="376.916" fill="#84BE84" rx="3" ry="3" style="stroke:#038048;stroke-width:1.0;"/><text fill="#000000" font-family="sans-serif" font-size="14" lengthAdjust="spacing" textLength="137" x="331.5" y="381.2129">removeExpiredItems()</text></g><!--class Box--><g id="elem_Box"><rect codeLine="29" fill="#F1F1F1" height="178.3477" id="Box" rx="2.5" ry="2.5" style="stroke:#181818;stroke-width:0.5;" width="203" x="229" y="467.6211"/><ellipse cx="314.75" cy="483.6211" fill="#ADD1B2" rx="11" ry="11" style="stroke:#181818;stroke-width:1.0;"/><path d="M317.5156,479.4961 Q317.6719,479.2773 317.8594,479.168 Q318.0469,479.0586 318.2656,479.0586 Q318.6406,479.0586 318.875,479.3242 Q319.1094,479.5742 319.1094,480.1836 L319.1094,481.6367 Q319.1094,482.2461 318.875,482.5117 Q318.6406,482.7773 318.2656,482.7773 Q317.9219,482.7773 317.7188,482.5742 Q317.5156,482.3867 317.4063,481.8711 Q317.3594,481.5117 317.1719,481.3242 Q316.8438,480.9492 316.2344,480.7305 Q315.625,480.5117 315,480.5117 Q314.2344,480.5117 313.5938,480.8398 Q312.9688,481.168 312.4688,481.918 Q311.9844,482.668 311.9844,483.6992 L311.9844,484.793 Q311.9844,486.0273 312.875,486.8555 Q313.7656,487.668 315.3594,487.668 Q316.2969,487.668 316.9531,487.418 Q317.3438,487.2617 317.7656,486.8242 Q318.0313,486.5586 318.1719,486.4805 Q318.3281,486.4023 318.5313,486.4023 Q318.8594,486.4023 319.1094,486.668 Q319.375,486.918 319.375,487.2617 Q319.375,487.6055 319.0313,488.0117 Q318.5313,488.5898 317.7344,488.918 Q316.6563,489.3711 315.3594,489.3711 Q313.8438,489.3711 312.6406,488.7461 Q311.6563,488.2461 310.9688,487.1836 Q310.2813,486.1055 310.2813,484.8242 L310.2813,483.668 Q310.2813,482.3398 310.8906,481.1992 Q311.5156,480.043 312.6094,479.4336 Q313.7031,478.8086 314.9375,478.8086 Q315.6719,478.8086 316.3125,478.9805 Q316.9688,479.1367 317.5156,479.4961 Z " fill="#000000"/><text fill="#000000" font-family="sans-serif" font-size="14" lengthAdjust="spacing" textLength="23" x="335.25" y="489.418">Box</text><line style="stroke:#181818;stroke-width:0.5;" x1="230" x2="431" y1="499.6211" y2="499.6211"/><rect fill="none" height="6" style="stroke:#C82930;stroke-width:1.0;" width="6" x="237" y="511.4316"/><text fill="#000000" font-family="sans-serif" font-size="14" lengthAdjust="spacing" textLength="82" x="249" y="518.7285">boxId : String</text><rect fill="none" height="6" style="stroke:#C82930;stroke-width:1.0;" width="6" x="237" y="530.0527"/><text fill="#000000" font-family="sans-serif" font-size="14" lengthAdjust="spacing" textLength="71" x="249" y="537.3496">sku : String</text><rect fill="none" height="6" style="stroke:#C82930;stroke-width:1.0;" width="6" x="237" y="548.6738"/><text fill="#000000" font-family="sans-serif" font-size="14" lengthAdjust="spacing" textLength="46" x="249" y="555.9707">qty : int</text><rect fill="none" height="6" style="stroke:#C82930;stroke-width:1.0;" width="6" x="237" y="567.2949"/><text fill="#000000" font-family="sans-serif" font-size="14" lengthAdjust="spacing" textLength="117" x="249" y="574.5918">expiryDate : Date?</text><rect fill="none" height="6" style="stroke:#C82930;stroke-width:1.0;" width="6" x="237" y="585.916"/><text fill="#000000" font-family="sans-serif" font-size="14" lengthAdjust="spacing" textLength="140" x="249" y="593.2129">receivedAt : DateTime</text><rect fill="none" height="6" style="stroke:#C82930;stroke-width:1.0;" width="6" x="237" y="604.5371"/><text fill="#000000" font-family="sans-serif" font-size="14" lengthAdjust="spacing" textLength="98" x="249" y="611.834">location : String</text><line style="stroke:#181818;stroke-width:0.5;" x1="230" x2="431" y1="619.3477" y2="619.3477"/><ellipse cx="240" cy="634.1582" fill="#84BE84" rx="3" ry="3" style="stroke:#038048;stroke-width:1.0;"/><text fill="#000000" font-family="sans-serif" font-size="14" lengthAdjust="spacing" textLength="177" x="249" y="638.4551">compareTo(other : Box) : int</text></g><!--class AuditLog--><g id="elem_AuditLog"><rect codeLine="39" fill="#F1F1F1" height="103.8633" id="AuditLog" rx="2.5" ry="2.5" style="stroke:#181818;stroke-width:0.5;" width="427" x="467" y="504.6211"/><ellipse cx="648.25" cy="520.6211" fill="#ADD1B2" rx="11" ry="11" style="stroke:#181818;stroke-width:1.0;"/><path d="M651.0156,516.4961 Q651.1719,516.2773 651.3594,516.168 Q651.5469,516.0586 651.7656,516.0586 Q652.1406,516.0586 652.375,516.3242 Q652.6094,516.5742 652.6094,517.1836 L652.6094,518.6367 Q652.6094,519.2461 652.375,519.5117 Q652.1406,519.7773 651.7656,519.7773 Q651.4219,519.7773 651.2188,519.5742 Q651.0156,519.3867 650.9063,518.8711 Q650.8594,518.5117 650.6719,518.3242 Q650.3438,517.9492 649.7344,517.7305 Q649.125,517.5117 648.5,517.5117 Q647.7344,517.5117 647.0938,517.8398 Q646.4688,518.168 645.9688,518.918 Q645.4844,519.668 645.4844,520.6992 L645.4844,521.793 Q645.4844,523.0273 646.375,523.8555 Q647.2656,524.668 648.8594,524.668 Q649.7969,524.668 650.4531,524.418 Q650.8438,524.2617 651.2656,523.8242 Q651.5313,523.5586 651.6719,523.4805 Q651.8281,523.4023 652.0313,523.4023 Q652.3594,523.4023 652.6094,523.668 Q652.875,523.918 652.875,524.2617 Q652.875,524.6055 652.5313,525.0117 Q652.0313,525.5898 651.2344,525.918 Q650.1563,526.3711 648.8594,526.3711 Q647.3438,526.3711 646.1406,525.7461 Q645.1563,525.2461 644.4688,524.1836 Q643.7813,523.1055 643.7813,521.8242 L643.7813,520.668 Q643.7813,519.3398 644.3906,518.1992 Q645.0156,517.043 646.1094,516.4336 Q647.2031,515.8086 648.4375,515.8086 Q649.1719,515.8086 649.8125,515.9805 Q650.4688,516.1367 651.0156,516.4961 Z " fill="#000000"/><text fill="#000000" font-family="sans-serif" font-size="14" lengthAdjust="spacing" textLength="56" x="668.75" y="526.418">AuditLog</text><line style="stroke:#181818;stroke-width:0.5;" x1="468" x2="893" y1="536.6211" y2="536.6211"/><rect fill="none" height="6" style="stroke:#C82930;stroke-width:1.0;" width="6" x="475" y="548.4316"/><text fill="#000000" font-family="sans-serif" font-size="14" lengthAdjust="spacing" textLength="120" x="487" y="555.7285">logFilePath : String</text><line style="stroke:#181818;stroke-width:0.5;" x1="468" x2="893" y1="563.2422" y2="563.2422"/><ellipse cx="478" cy="578.0527" fill="#84BE84" rx="3" ry="3" style="stroke:#038048;stroke-width:1.0;"/><text fill="#000000" font-family="sans-serif" font-size="14" lengthAdjust="spacing" textLength="272" x="487" y="582.3496">writeLog(r : Return, action : String, qty : int)</text><ellipse cx="478" cy="596.6738" fill="#84BE84" rx="3" ry="3" style="stroke:#038048;stroke-width:1.0;"/><text fill="#000000" font-family="sans-serif" font-size="14" lengthAdjust="spacing" textLength="401" x="487" y="600.9707">writePartialLog(r : Return, restockedQty : int, discardedQty : int)</text></g><!--class WMS--><g id="elem_WMS"><rect codeLine="45" fill="#F1F1F1" height="122.4844" id="WMS" rx="2.5" ry="2.5" style="stroke:#181818;stroke-width:0.5;" width="177" x="358" y="46.6211"/><ellipse cx="425.75" cy="62.6211" fill="#ADD1B2" rx="11" ry="11" style="stroke:#181818;stroke-width:1.0;"/><path d="M428.5156,58.4961 Q428.6719,58.2773 428.8594,58.168 Q429.0469,58.0586 429.2656,58.0586 Q429.6406,58.0586 429.875,58.3242 Q430.1094,58.5742 430.1094,59.1836 L430.1094,60.6367 Q430.1094,61.2461 429.875,61.5117 Q429.6406,61.7773 429.2656,61.7773 Q428.9219,61.7773 428.7188,61.5742 Q428.5156,61.3867 428.4063,60.8711 Q428.3594,60.5117 428.1719,60.3242 Q427.8438,59.9492 427.2344,59.7305 Q426.625,59.5117 426,59.5117 Q425.2344,59.5117 424.5938,59.8398 Q423.9688,60.168 423.4688,60.918 Q422.9844,61.668 422.9844,62.6992 L422.9844,63.793 Q422.9844,65.0273 423.875,65.8555 Q424.7656,66.668 426.3594,66.668 Q427.2969,66.668 427.9531,66.418 Q428.3438,66.2617 428.7656,65.8242 Q429.0313,65.5586 429.1719,65.4805 Q429.3281,65.4023 429.5313,65.4023 Q429.8594,65.4023 430.1094,65.668 Q430.375,65.918 430.375,66.2617 Q430.375,66.6055 430.0313,67.0117 Q429.5313,67.5898 428.7344,67.918 Q427.6563,68.3711 426.3594,68.3711 Q424.8438,68.3711 423.6406,67.7461 Q422.6563,67.2461 421.9688,66.1836 Q421.2813,65.1055 421.2813,63.8242 L421.2813,62.668 Q421.2813,61.3398 421.8906,60.1992 Q422.5156,59.043 423.6094,58.4336 Q424.7031,57.8086 425.9375,57.8086 Q426.6719,57.8086 427.3125,57.9805 Q427.9688,58.1367 428.5156,58.4961 Z " fill="#000000"/><text fill="#000000" font-family="sans-serif" font-size="14" lengthAdjust="spacing" textLength="33" x="446.25" y="68.418">WMS</text><line style="stroke:#181818;stroke-width:0.5;" x1="359" x2="534" y1="78.6211" y2="78.6211"/><rect fill="none" height="6" style="stroke:#C82930;stroke-width:1.0;" width="6" x="366" y="90.4316"/><text fill="#000000" font-family="sans-serif" font-size="14" lengthAdjust="spacing" textLength="151" x="378" y="97.7285">quarantine : Quarantine</text><rect fill="none" height="6" style="stroke:#C82930;stroke-width:1.0;" width="6" x="366" y="109.0527"/><text fill="#000000" font-family="sans-serif" font-size="14" lengthAdjust="spacing" textLength="128" x="378" y="116.3496">inventory : Inventory</text><rect fill="none" height="6" style="stroke:#C82930;stroke-width:1.0;" width="6" x="366" y="127.6738"/><text fill="#000000" font-family="sans-serif" font-size="14" lengthAdjust="spacing" textLength="123" x="378" y="134.9707">auditLog : AuditLog</text><line style="stroke:#181818;stroke-width:0.5;" x1="359" x2="534" y1="142.4844" y2="142.4844"/><ellipse cx="369" cy="157.2949" fill="#84BE84" rx="3" ry="3" style="stroke:#038048;stroke-width:1.0;"/><text fill="#000000" font-family="sans-serif" font-size="14" lengthAdjust="spacing" textLength="110" x="378" y="161.5918">processReturns()</text></g><!--link WMS to Quarantine--><g id="link_WMS_Quarantine"><path codeLine="53" d="M363.3,168.6511 C324.86,196.3811 284.1852,225.7198 245.7352,253.4698 " fill="none" id="WMS-to-Quarantine" style="stroke:#181818;stroke-width:1.0;"/><polygon fill="#181818" points="240.87,256.9811,250.5087,254.9576,244.9244,254.055,245.827,248.4706,240.87,256.9811" style="stroke:#181818;stroke-width:1.0;"/><text fill="#000000" font-family="sans-serif" font-size="13" lengthAdjust="spacing" textLength="53" x="320.5" y="213.6494">manages</text></g><!--link WMS to Inventory--><g id="link_WMS_Inventory"><path codeLine="54" d="M446.5,168.6511 C446.5,193.3111 446.5,216.0211 446.5,241.5911 " fill="none" id="WMS-to-Inventory" style="stroke:#181818;stroke-width:1.0;"/><polygon fill="#181818" points="446.5,247.5911,450.5,238.5911,446.5,242.5911,442.5,238.5911,446.5,247.5911" style="stroke:#181818;stroke-width:1.0;"/><text fill="#000000" font-family="sans-serif" font-size="13" lengthAdjust="spacing" textLength="50" x="447.5" y="213.6494">interacts</text></g><!--link WMS to AuditLog--><g id="link_WMS_AuditLog"><path codeLine="55" d="M529.15,168.9011 C554.61,191.1011 580.61,218.1111 598.5,247.6211 C647.92,329.1211 667.2331,434.4353 675.0531,498.5053 " fill="none" id="WMS-to-AuditLog" style="stroke:#181818;stroke-width:1.0;"/><polygon fill="#181818" points="675.78,504.4611,678.6601,495.0428,675.1742,499.4979,670.7191,496.012,675.78,504.4611" style="stroke:#181818;stroke-width:1.0;"/><text fill="#000000" font-family="sans-serif" font-size="13" lengthAdjust="spacing" textLength="43" x="655.5" y="323.6494">records</text></g><!--reverse link Inventory to Box--><g id="link_Inventory_Box"><path codeLine="56" d="M407.0375,399.5758 C394.9475,424.2358 386.46,441.5311 373.71,467.5211 " fill="none" id="Inventory-backto-Box" style="stroke:#181818;stroke-width:1.0;"/><polygon fill="#181818" points="412.32,388.8011,406.0872,392.4276,407.0375,399.5758,413.2703,395.9493,412.32,388.8011" style="stroke:#181818;stroke-width:1.0;"/><text fill="#000000" font-family="sans-serif" font-size="13" lengthAdjust="spacing" textLength="49" x="396.5" y="433.6494">contains</text></g><!--reverse link Quarantine to Return--><g id="link_Quarantine_Return"><path codeLine="57" d="M140.1594,391.0773 C133.7294,417.7673 128.84,438.0211 121.78,467.3111 " fill="none" id="Quarantine-backto-Return" style="stroke:#181818;stroke-width:1.0;"/><polygon fill="#181818" points="142.97,379.4111,137.676,384.3074,140.1594,391.0773,145.4535,386.1811,142.97,379.4111" style="stroke:#181818;stroke-width:1.0;"/><text fill="#000000" font-family="sans-serif" font-size="13" lengthAdjust="spacing" textLength="36" x="133.5" y="433.6494">stores</text></g><!--link Inventory to AuditLog--><g id="link_Inventory_AuditLog"><path codeLine="58" d="M515.44,388.8011 C552.11,425.8611 592.1801,466.3558 625.6501,500.1858 " fill="none" id="Inventory-to-AuditLog" style="stroke:#181818;stroke-width:1.0;"/><polygon fill="#181818" points="629.87,504.4511,626.3837,495.2399,626.3534,500.8967,620.6967,500.8664,629.87,504.4511" style="stroke:#181818;stroke-width:1.0;"/><text fill="#000000" font-family="sans-serif" font-size="13" lengthAdjust="spacing" textLength="70" x="564.5" y="433.6494">logs actions</text></g><!--SRC=[bLHDRzim3BtxL-YqsbiCxBABqNN8cWGmq6rjqc5dnYOS8RRaIaoMODX_7oqf_aXxcI-s-FZno4UP9DKeVcwM-STF8XKBjB9Iuhu6QyL2GcMW4V4QwM2K5U_4qm4CA98AaoYw4P-xntkZzQUeSB4-HFo916Srxf2N8XCRCb9LpchtXwdXXSvia8f245YjfXua6xG4JSlc1H0-yza1U6gbENUcW7nXymSXxPhzTR67ROrnmjXMwnf1HN-ZG7JeA93b_CNUbUNthU_ZpcM3ilJ7s33kFnE7L4ZVyKG1JNeqa5WsBPtVBf-h8ohIvXogR_M99vc91sdfzgi- -Sh6T_6gRi538cItbT7DQsxynPWdeImQwZoNgn_nrYD9IDxe8owx2MAP4pOsJWQ2x3PG-qy9trIbKxP0USHoJjSorhe0abFLkKlTj63mMSUQTcW2zr2d9pe_b98UT1NOrhfQoHeVWNRJRB-D96I_qQ1c0ef9sTdGI384FO8X2VLrR107owTBp4oKqXPWof5jDD9VtpQ1vCkmVDbe4nqc-yt8XYrn25mwpVgc7SdMw0Aj3RVLYtYveskitMJjJhQNczhnIDExyHN8H0CAAhGzc8zeS1jeU5G3EX-eiAhQb3OQ0jwdgLkVZ1LK1Bo2qQXKXuQ_HCQNJlCOHx5NoLbD6qIoqJy0]--></g></svg>