<?xml version="1.0" encoding="us-ascii" standalone="no"?><svg xmlns="http://www.w3.org/2000/svg" xmlns:xlink="http://www.w3.org/1999/xlink" contentStyleType="text/css" height="1330px" preserveAspectRatio="none" style="width:1698px;height:1330px;background:#FFFFFF;" version="1.1" viewBox="0 0 1698 1330" width="1698px" zoomAndPan="magnify"><defs/><g><text fill="#000000" font-family="sans-serif" font-size="14" font-weight="bold" lengthAdjust="spacing" textLength="348" x="676.75" y="30.1074">USEI08 - Spatial Search by Geographical Area (SD)</text><rect fill="#FFFFFF" height="1073.0215" style="stroke:#181818;stroke-width:1.0;" width="10" x="372.5" y="156.5332"/><rect fill="#FFFFFF" height="885.2754" style="stroke:#181818;stroke-width:1.0;" width="10" x="795.5" y="312.9883"/><rect fill="#FFFFFF" height="715.8203" style="stroke:#181818;stroke-width:1.0;" width="10" x="800.5" y="459.1523"/><rect fill="#FFFFFF" height="31.291" style="stroke:#181818;stroke-width:1.0;" width="10" x="1238.5" y="388.5703"/><rect fill="#FFFFFF" height="31.291" style="stroke:#181818;stroke-width:1.0;" width="10" x="1360.5" y="521.7344"/><rect fill="#FFFFFF" height="31.291" style="stroke:#181818;stroke-width:1.0;" width="10" x="1360.5" y="654.8984"/><rect fill="#FFFFFF" height="31.291" style="stroke:#181818;stroke-width:1.0;" width="10" x="1360.5" y="937.2266"/><rect fill="#FFFFFF" height="31.291" style="stroke:#181818;stroke-width:1.0;" width="10" x="1360.5" y="1077.3906"/><rect fill="none" height="688.8203" style="stroke:#000000;stroke-width:1.5;" width="985" x="707.5" y="479.1523"/><rect fill="none" height="224.0371" style="stroke:#000000;stroke-width:1.5;" width="965" x="717.5" y="612.3164"/><rect fill="none" height="128.1641" style="stroke:#000000;stroke-width:1.5;" width="945" x="727.5" y="701.1895"/><rect fill="none" height="50.582" style="stroke:#000000;stroke-width:1.5;" width="925" x="737.5" y="771.7715"/><rect fill="none" height="126.1641" style="stroke:#000000;stroke-width:1.5;" width="704" x="737.5" y="894.6445"/><rect fill="none" height="126.1641" style="stroke:#000000;stroke-width:1.5;" width="704" x="737.5" y="1034.8086"/><line style="stroke:#181818;stroke-width:0.5;stroke-dasharray:5.0,5.0;" x1="32" x2="32" y1="123.2422" y2="1247.5547"/><line style="stroke:#181818;stroke-width:0.5;stroke-dasharray:5.0,5.0;" x1="377.5" x2="377.5" y1="123.2422" y2="1247.5547"/><line style="stroke:#181818;stroke-width:0.5;stroke-dasharray:5.0,5.0;" x1="800.5" x2="800.5" y1="123.2422" y2="1247.5547"/><line style="stroke:#181818;stroke-width:0.5;stroke-dasharray:5.0,5.0;" x1="1243.5" x2="1243.5" y1="123.2422" y2="1247.5547"/><line style="stroke:#181818;stroke-width:0.5;stroke-dasharray:5.0,5.0;" x1="1365.5" x2="1365.5" y1="123.2422" y2="1247.5547"/><line style="stroke:#181818;stroke-width:0.5;stroke-dasharray:5.0,5.0;" x1="1546.5" x2="1546.5" y1="123.2422" y2="1247.5547"/><text fill="#000000" font-family="sans-serif" font-size="14" lengthAdjust="spacing" textLength="49" x="5" y="119.7285">Planner</text><ellipse cx="32.5" cy="53.1211" fill="#E3E3E3" rx="8" ry="8" style="stroke:#181818;stroke-width:0.5;"/><path d="M32.5,61.1211 L32.5,88.1211 M19.5,69.1211 L45.5,69.1211 M32.5,88.1211 L19.5,103.1211 M32.5,88.1211 L45.5,103.1211 " fill="none" style="stroke:#181818;stroke-width:0.5;"/><text fill="#000000" font-family="sans-serif" font-size="14" lengthAdjust="spacing" textLength="49" x="5" y="1261.6621">Planner</text><ellipse cx="32.5" cy="1273.6758" fill="#E3E3E3" rx="8" ry="8" style="stroke:#181818;stroke-width:0.5;"/><path d="M32.5,1281.6758 L32.5,1308.6758 M19.5,1289.6758 L45.5,1289.6758 M32.5,1308.6758 L19.5,1323.6758 M32.5,1308.6758 L45.5,1323.6758 " fill="none" style="stroke:#181818;stroke-width:0.5;"/><rect fill="#E3E3E3" height="32.6211" rx="2.5" ry="2.5" style="stroke:#181818;stroke-width:0.5;" width="124" x="315.5" y="89.6211"/><text fill="#000000" font-family="sans-serif" font-size="14" lengthAdjust="spacing" textLength="110" x="322.5" y="111.7285">:CargoHandlingUI</text><rect fill="#E3E3E3" height="32.6211" rx="2.5" ry="2.5" style="stroke:#181818;stroke-width:0.5;" width="124" x="315.5" y="1246.5547"/><text fill="#000000" font-family="sans-serif" font-size="14" lengthAdjust="spacing" textLength="110" x="322.5" y="1268.6621">:CargoHandlingUI</text><rect fill="#E3E3E3" height="32.6211" rx="2.5" ry="2.5" style="stroke:#181818;stroke-width:0.5;" width="106" x="747.5" y="89.6211"/><text fill="#000000" font-family="sans-serif" font-size="14" lengthAdjust="spacing" textLength="92" x="754.5" y="111.7285">:SpatialSearch</text><rect fill="#E3E3E3" height="32.6211" rx="2.5" ry="2.5" style="stroke:#181818;stroke-width:0.5;" width="106" x="747.5" y="1246.5547"/><text fill="#000000" font-family="sans-serif" font-size="14" lengthAdjust="spacing" textLength="92" x="754.5" y="1268.6621">:SpatialSearch</text><rect fill="#E3E3E3" height="32.6211" rx="2.5" ry="2.5" style="stroke:#181818;stroke-width:0.5;" width="92" x="1197.5" y="89.6211"/><text fill="#000000" font-family="sans-serif" font-size="14" lengthAdjust="spacing" textLength="78" x="1204.5" y="111.7285">tree:KDTree</text><rect fill="#E3E3E3" height="32.6211" rx="2.5" ry="2.5" style="stroke:#181818;stroke-width:0.5;" width="92" x="1197.5" y="1246.5547"/><text fill="#000000" font-family="sans-serif" font-size="14" lengthAdjust="spacing" textLength="78" x="1204.5" y="1268.6621">tree:KDTree</text><rect fill="#E3E3E3" height="32.6211" rx="2.5" ry="2.5" style="stroke:#181818;stroke-width:0.5;" width="132" x="1299.5" y="89.6211"/><text fill="#000000" font-family="sans-serif" font-size="14" lengthAdjust="spacing" textLength="118" x="1306.5" y="111.7285">node:KDTreeNode</text><rect fill="#E3E3E3" height="32.6211" rx="2.5" ry="2.5" style="stroke:#181818;stroke-width:0.5;" width="132" x="1299.5" y="1246.5547"/><text fill="#000000" font-family="sans-serif" font-size="14" lengthAdjust="spacing" textLength="118" x="1306.5" y="1268.6621">node:KDTreeNode</text><rect fill="#E3E3E3" height="32.6211" rx="2.5" ry="2.5" style="stroke:#181818;stroke-width:0.5;" width="211" x="1441.5" y="89.6211"/><text fill="#000000" font-family="sans-serif" font-size="14" lengthAdjust="spacing" textLength="197" x="1448.5" y="111.7285">stations:List&lt;EuropeanStation&gt;</text><rect fill="#E3E3E3" height="32.6211" rx="2.5" ry="2.5" style="stroke:#181818;stroke-width:0.5;" width="211" x="1441.5" y="1246.5547"/><text fill="#000000" font-family="sans-serif" font-size="14" lengthAdjust="spacing" textLength="197" x="1448.5" y="1268.6621">stations:List&lt;EuropeanStation&gt;</text><rect fill="#FFFFFF" height="1073.0215" style="stroke:#181818;stroke-width:1.0;" width="10" x="372.5" y="156.5332"/><rect fill="#FFFFFF" height="885.2754" style="stroke:#181818;stroke-width:1.0;" width="10" x="795.5" y="312.9883"/><rect fill="#FFFFFF" height="715.8203" style="stroke:#181818;stroke-width:1.0;" width="10" x="800.5" y="459.1523"/><rect fill="#FFFFFF" height="31.291" style="stroke:#181818;stroke-width:1.0;" width="10" x="1238.5" y="388.5703"/><rect fill="#FFFFFF" height="31.291" style="stroke:#181818;stroke-width:1.0;" width="10" x="1360.5" y="521.7344"/><rect fill="#FFFFFF" height="31.291" style="stroke:#181818;stroke-width:1.0;" width="10" x="1360.5" y="654.8984"/><rect fill="#FFFFFF" height="31.291" style="stroke:#181818;stroke-width:1.0;" width="10" x="1360.5" y="937.2266"/><rect fill="#FFFFFF" height="31.291" style="stroke:#181818;stroke-width:1.0;" width="10" x="1360.5" y="1077.3906"/><polygon fill="#181818" points="360.5,152.5332,370.5,156.5332,360.5,160.5332,364.5,156.5332" style="stroke:#181818;stroke-width:1.0;"/><line style="stroke:#181818;stroke-width:1.0;" x1="32.5" x2="366.5" y1="156.5332" y2="156.5332"/><text fill="#000000" font-family="sans-serif" font-size="13" font-weight="bold" lengthAdjust="spacing" textLength="7" x="39.5" y="151.2705">1</text><text fill="#000000" font-family="sans-serif" font-size="13" lengthAdjust="spacing" textLength="124" x="50.5" y="151.2705">selectSpatialSearch()</text><polygon fill="#181818" points="43.5,183.8242,33.5,187.8242,43.5,191.8242,39.5,187.8242" style="stroke:#181818;stroke-width:1.0;"/><line style="stroke:#181818;stroke-width:1.0;" x1="37.5" x2="371.5" y1="187.8242" y2="187.8242"/><text fill="#000000" font-family="sans-serif" font-size="13" font-weight="bold" lengthAdjust="spacing" textLength="7" x="49.5" y="182.5615">2</text><text fill="#000000" font-family="sans-serif" font-size="13" lengthAdjust="spacing" textLength="187" x="60.5" y="182.5615">promptForGeographicalBounds()</text><polygon fill="#181818" points="360.5,215.1152,370.5,219.1152,360.5,223.1152,364.5,219.1152" style="stroke:#181818;stroke-width:1.0;"/><line style="stroke:#181818;stroke-width:1.0;" x1="32.5" x2="366.5" y1="219.1152" y2="219.1152"/><text fill="#000000" font-family="sans-serif" font-size="13" font-weight="bold" lengthAdjust="spacing" textLength="7" x="39.5" y="213.8525">3</text><text fill="#000000" font-family="sans-serif" font-size="13" lengthAdjust="spacing" textLength="259" x="50.5" y="213.8525">enterBounds(latMin, latMax, lonMin, lonMax)</text><polygon fill="#181818" points="43.5,246.4063,33.5,250.4063,43.5,254.4063,39.5,250.4063" style="stroke:#181818;stroke-width:1.0;"/><line style="stroke:#181818;stroke-width:1.0;" x1="37.5" x2="371.5" y1="250.4063" y2="250.4063"/><text fill="#000000" font-family="sans-serif" font-size="13" font-weight="bold" lengthAdjust="spacing" textLength="7" x="49.5" y="245.1436">4</text><text fill="#000000" font-family="sans-serif" font-size="13" lengthAdjust="spacing" textLength="151" x="60.5" y="245.1436">promptForOptionalFilters()</text><polygon fill="#181818" points="360.5,277.6973,370.5,281.6973,360.5,285.6973,364.5,281.6973" style="stroke:#181818;stroke-width:1.0;"/><line style="stroke:#181818;stroke-width:1.0;" x1="32.5" x2="366.5" y1="281.6973" y2="281.6973"/><text fill="#000000" font-family="sans-serif" font-size="13" font-weight="bold" lengthAdjust="spacing" textLength="7" x="39.5" y="276.4346">5</text><text fill="#000000" font-family="sans-serif" font-size="13" lengthAdjust="spacing" textLength="203" x="50.5" y="276.4346">enterFilters(country, isCity, isMain)</text><polygon fill="#181818" points="783.5,308.9883,793.5,312.9883,783.5,316.9883,787.5,312.9883" style="stroke:#181818;stroke-width:1.0;"/><line style="stroke:#181818;stroke-width:1.0;" x1="382.5" x2="789.5" y1="312.9883" y2="312.9883"/><text fill="#000000" font-family="sans-serif" font-size="13" font-weight="bold" lengthAdjust="spacing" textLength="7" x="389.5" y="307.7256">6</text><text fill="#000000" font-family="sans-serif" font-size="13" lengthAdjust="spacing" textLength="383" x="400.5" y="307.7256">searchByGeographicalArea(latMin, latMax, lonMin, lonMax, filters)</text><line style="stroke:#181818;stroke-width:1.0;" x1="805.5" x2="847.5" y1="344.2793" y2="344.2793"/><line style="stroke:#181818;stroke-width:1.0;" x1="847.5" x2="847.5" y1="344.2793" y2="357.2793"/><line style="stroke:#181818;stroke-width:1.0;" x1="806.5" x2="847.5" y1="357.2793" y2="357.2793"/><polygon fill="#181818" points="816.5,353.2793,806.5,357.2793,816.5,361.2793,812.5,357.2793" style="stroke:#181818;stroke-width:1.0;"/><text fill="#000000" font-family="sans-serif" font-size="13" font-weight="bold" lengthAdjust="spacing" textLength="7" x="812.5" y="339.0166">7</text><text fill="#000000" font-family="sans-serif" font-size="13" lengthAdjust="spacing" textLength="120" x="823.5" y="339.0166">validateCoordinates()</text><polygon fill="#181818" points="1226.5,384.5703,1236.5,388.5703,1226.5,392.5703,1230.5,388.5703" style="stroke:#181818;stroke-width:1.0;"/><line style="stroke:#181818;stroke-width:1.0;" x1="805.5" x2="1232.5" y1="388.5703" y2="388.5703"/><text fill="#000000" font-family="sans-serif" font-size="13" font-weight="bold" lengthAdjust="spacing" textLength="7" x="812.5" y="383.3076">8</text><text fill="#000000" font-family="sans-serif" font-size="13" lengthAdjust="spacing" textLength="53" x="823.5" y="383.3076">getRoot()</text><polygon fill="#181818" points="816.5,415.8613,806.5,419.8613,816.5,423.8613,812.5,419.8613" style="stroke:#181818;stroke-width:1.0;"/><line style="stroke:#181818;stroke-width:1.0;stroke-dasharray:2.0,2.0;" x1="810.5" x2="1242.5" y1="419.8613" y2="419.8613"/><text fill="#000000" font-family="sans-serif" font-size="13" font-weight="bold" lengthAdjust="spacing" textLength="7" x="822.5" y="414.5986">9</text><text fill="#000000" font-family="sans-serif" font-size="13" lengthAdjust="spacing" textLength="52" x="833.5" y="414.5986">rootNode</text><line style="stroke:#181818;stroke-width:1.0;" x1="805.5" x2="852.5" y1="446.1523" y2="446.1523"/><line style="stroke:#181818;stroke-width:1.0;" x1="852.5" x2="852.5" y1="446.1523" y2="459.1523"/><line style="stroke:#181818;stroke-width:1.0;" x1="811.5" x2="852.5" y1="459.1523" y2="459.1523"/><polygon fill="#181818" points="821.5,455.1523,811.5,459.1523,821.5,463.1523,817.5,459.1523" style="stroke:#181818;stroke-width:1.0;"/><text fill="#000000" font-family="sans-serif" font-size="13" font-weight="bold" lengthAdjust="spacing" textLength="14" x="817.5" y="440.8896">10</text><text fill="#000000" font-family="sans-serif" font-size="13" lengthAdjust="spacing" textLength="353" x="835.5" y="440.8896">searchInRangeRecursive(rootNode, bounds, filters, 0, results)</text><path d="M707.5,479.1523 L780.5,479.1523 L780.5,488.4434 L770.5,498.4434 L707.5,498.4434 L707.5,479.1523 " fill="#EEEEEE" style="stroke:#000000;stroke-width:1.5;"/><rect fill="none" height="688.8203" style="stroke:#000000;stroke-width:1.5;" width="985" x="707.5" y="479.1523"/><text fill="#000000" font-family="sans-serif" font-size="13" font-weight="bold" lengthAdjust="spacing" textLength="28" x="722.5" y="494.1807">loop</text><text fill="#000000" font-family="sans-serif" font-size="11" font-weight="bold" lengthAdjust="spacing" textLength="141" x="795.5" y="493.0225">[for each node in KD-tree]</text><polygon fill="#181818" points="1348.5,517.7344,1358.5,521.7344,1348.5,525.7344,1352.5,521.7344" style="stroke:#181818;stroke-width:1.0;"/><line style="stroke:#181818;stroke-width:1.0;" x1="810.5" x2="1354.5" y1="521.7344" y2="521.7344"/><text fill="#000000" font-family="sans-serif" font-size="13" font-weight="bold" lengthAdjust="spacing" textLength="14" x="817.5" y="516.4717">11</text><text fill="#000000" font-family="sans-serif" font-size="13" lengthAdjust="spacing" textLength="120" x="835.5" y="516.4717">getCoordinate(depth)</text><polygon fill="#181818" points="821.5,549.0254,811.5,553.0254,821.5,557.0254,817.5,553.0254" style="stroke:#181818;stroke-width:1.0;"/><line style="stroke:#181818;stroke-width:1.0;stroke-dasharray:2.0,2.0;" x1="815.5" x2="1364.5" y1="553.0254" y2="553.0254"/><text fill="#000000" font-family="sans-serif" font-size="13" font-weight="bold" lengthAdjust="spacing" textLength="14" x="827.5" y="547.7627">12</text><text fill="#000000" font-family="sans-serif" font-size="13" lengthAdjust="spacing" textLength="60" x="845.5" y="547.7627">coordinate</text><line style="stroke:#181818;stroke-width:1.0;" x1="810.5" x2="852.5" y1="584.3164" y2="584.3164"/><line style="stroke:#181818;stroke-width:1.0;" x1="852.5" x2="852.5" y1="584.3164" y2="597.3164"/><line style="stroke:#181818;stroke-width:1.0;" x1="811.5" x2="852.5" y1="597.3164" y2="597.3164"/><polygon fill="#181818" points="821.5,593.3164,811.5,597.3164,821.5,601.3164,817.5,597.3164" style="stroke:#181818;stroke-width:1.0;"/><text fill="#000000" font-family="sans-serif" font-size="13" font-weight="bold" lengthAdjust="spacing" textLength="14" x="817.5" y="579.0537">13</text><text fill="#000000" font-family="sans-serif" font-size="13" lengthAdjust="spacing" textLength="174" x="835.5" y="579.0537">checkIfInRange(node, bounds)</text><path d="M717.5,612.3164 L782.5,612.3164 L782.5,621.6074 L772.5,631.6074 L717.5,631.6074 L717.5,612.3164 " fill="#EEEEEE" style="stroke:#000000;stroke-width:1.5;"/><rect fill="none" height="224.0371" style="stroke:#000000;stroke-width:1.5;" width="965" x="717.5" y="612.3164"/><text fill="#000000" font-family="sans-serif" font-size="13" font-weight="bold" lengthAdjust="spacing" textLength="20" x="732.5" y="627.3447">opt</text><text fill="#000000" font-family="sans-serif" font-size="11" font-weight="bold" lengthAdjust="spacing" textLength="118" x="797.5" y="626.1865">["node within range"]</text><polygon fill="#181818" points="1348.5,650.8984,1358.5,654.8984,1348.5,658.8984,1352.5,654.8984" style="stroke:#181818;stroke-width:1.0;"/><line style="stroke:#181818;stroke-width:1.0;" x1="810.5" x2="1354.5" y1="654.8984" y2="654.8984"/><text fill="#000000" font-family="sans-serif" font-size="13" font-weight="bold" lengthAdjust="spacing" textLength="14" x="817.5" y="649.6357">14</text><text fill="#000000" font-family="sans-serif" font-size="13" lengthAdjust="spacing" textLength="74" x="835.5" y="649.6357">getStations()</text><polygon fill="#181818" points="821.5,682.1895,811.5,686.1895,821.5,690.1895,817.5,686.1895" style="stroke:#181818;stroke-width:1.0;"/><line style="stroke:#181818;stroke-width:1.0;stroke-dasharray:2.0,2.0;" x1="815.5" x2="1364.5" y1="686.1895" y2="686.1895"/><text fill="#000000" font-family="sans-serif" font-size="13" font-weight="bold" lengthAdjust="spacing" textLength="14" x="827.5" y="680.9268">15</text><text fill="#000000" font-family="sans-serif" font-size="13" lengthAdjust="spacing" textLength="60" x="845.5" y="680.9268">stationList</text><path d="M727.5,701.1895 L800.5,701.1895 L800.5,710.4805 L790.5,720.4805 L727.5,720.4805 L727.5,701.1895 " fill="#EEEEEE" style="stroke:#000000;stroke-width:1.5;"/><rect fill="none" height="128.1641" style="stroke:#000000;stroke-width:1.5;" width="945" x="727.5" y="701.1895"/><text fill="#000000" font-family="sans-serif" font-size="13" font-weight="bold" lengthAdjust="spacing" textLength="28" x="742.5" y="716.2178">loop</text><text fill="#000000" font-family="sans-serif" font-size="11" font-weight="bold" lengthAdjust="spacing" textLength="138" x="815.5" y="715.0596">[for each station in node]</text><line style="stroke:#181818;stroke-width:1.0;" x1="810.5" x2="852.5" y1="743.7715" y2="743.7715"/><line style="stroke:#181818;stroke-width:1.0;" x1="852.5" x2="852.5" y1="743.7715" y2="756.7715"/><line style="stroke:#181818;stroke-width:1.0;" x1="811.5" x2="852.5" y1="756.7715" y2="756.7715"/><polygon fill="#181818" points="821.5,752.7715,811.5,756.7715,821.5,760.7715,817.5,756.7715" style="stroke:#181818;stroke-width:1.0;"/><text fill="#000000" font-family="sans-serif" font-size="13" font-weight="bold" lengthAdjust="spacing" textLength="14" x="817.5" y="738.5088">16</text><text fill="#000000" font-family="sans-serif" font-size="13" lengthAdjust="spacing" textLength="172" x="835.5" y="738.5088">matchesFilters(station, filters)</text><path d="M737.5,771.7715 L802.5,771.7715 L802.5,781.0625 L792.5,791.0625 L737.5,791.0625 L737.5,771.7715 " fill="#EEEEEE" style="stroke:#000000;stroke-width:1.5;"/><rect fill="none" height="50.582" style="stroke:#000000;stroke-width:1.5;" width="925" x="737.5" y="771.7715"/><text fill="#000000" font-family="sans-serif" font-size="13" font-weight="bold" lengthAdjust="spacing" textLength="20" x="752.5" y="786.7998">opt</text><text fill="#000000" font-family="sans-serif" font-size="11" font-weight="bold" lengthAdjust="spacing" textLength="143" x="817.5" y="785.6416">["station matches filters"]</text><polygon fill="#181818" points="1535,810.3535,1545,814.3535,1535,818.3535,1539,814.3535" style="stroke:#181818;stroke-width:1.0;"/><line style="stroke:#181818;stroke-width:1.0;" x1="810.5" x2="1541" y1="814.3535" y2="814.3535"/><text fill="#000000" font-family="sans-serif" font-size="13" font-weight="bold" lengthAdjust="spacing" textLength="14" x="817.5" y="809.0908">17</text><text fill="#000000" font-family="sans-serif" font-size="13" lengthAdjust="spacing" textLength="68" x="835.5" y="809.0908">add(station)</text><line style="stroke:#181818;stroke-width:1.0;" x1="810.5" x2="852.5" y1="866.6445" y2="866.6445"/><line style="stroke:#181818;stroke-width:1.0;" x1="852.5" x2="852.5" y1="866.6445" y2="879.6445"/><line style="stroke:#181818;stroke-width:1.0;" x1="811.5" x2="852.5" y1="879.6445" y2="879.6445"/><polygon fill="#181818" points="821.5,875.6445,811.5,879.6445,821.5,883.6445,817.5,879.6445" style="stroke:#181818;stroke-width:1.0;"/><text fill="#000000" font-family="sans-serif" font-size="13" font-weight="bold" lengthAdjust="spacing" textLength="14" x="817.5" y="861.3818">18</text><text fill="#000000" font-family="sans-serif" font-size="13" lengthAdjust="spacing" textLength="311" x="835.5" y="861.3818">decideWhichSubtreesToExplore(node, bounds, depth)</text><path d="M737.5,894.6445 L802.5,894.6445 L802.5,903.9355 L792.5,913.9355 L737.5,913.9355 L737.5,894.6445 " fill="#EEEEEE" style="stroke:#000000;stroke-width:1.5;"/><rect fill="none" height="126.1641" style="stroke:#000000;stroke-width:1.5;" width="704" x="737.5" y="894.6445"/><text fill="#000000" font-family="sans-serif" font-size="13" font-weight="bold" lengthAdjust="spacing" textLength="20" x="752.5" y="909.6729">opt</text><text fill="#000000" font-family="sans-serif" font-size="11" font-weight="bold" lengthAdjust="spacing" textLength="128" x="817.5" y="908.5146">["explore left subtree"]</text><polygon fill="#181818" points="1348.5,933.2266,1358.5,937.2266,1348.5,941.2266,1352.5,937.2266" style="stroke:#181818;stroke-width:1.0;"/><line style="stroke:#181818;stroke-width:1.0;" x1="810.5" x2="1354.5" y1="937.2266" y2="937.2266"/><text fill="#000000" font-family="sans-serif" font-size="13" font-weight="bold" lengthAdjust="spacing" textLength="14" x="817.5" y="931.9639">19</text><text fill="#000000" font-family="sans-serif" font-size="13" lengthAdjust="spacing" textLength="47" x="835.5" y="931.9639">getLeft()</text><polygon fill="#181818" points="821.5,964.5176,811.5,968.5176,821.5,972.5176,817.5,968.5176" style="stroke:#181818;stroke-width:1.0;"/><line style="stroke:#181818;stroke-width:1.0;stroke-dasharray:2.0,2.0;" x1="815.5" x2="1364.5" y1="968.5176" y2="968.5176"/><text fill="#000000" font-family="sans-serif" font-size="13" font-weight="bold" lengthAdjust="spacing" textLength="14" x="827.5" y="963.2549">20</text><text fill="#000000" font-family="sans-serif" font-size="13" lengthAdjust="spacing" textLength="47" x="845.5" y="963.2549">leftNode</text><line style="stroke:#181818;stroke-width:1.0;" x1="810.5" x2="852.5" y1="999.8086" y2="999.8086"/><line style="stroke:#181818;stroke-width:1.0;" x1="852.5" x2="852.5" y1="999.8086" y2="1012.8086"/><line style="stroke:#181818;stroke-width:1.0;" x1="811.5" x2="852.5" y1="1012.8086" y2="1012.8086"/><polygon fill="#181818" points="821.5,1008.8086,811.5,1012.8086,821.5,1016.8086,817.5,1012.8086" style="stroke:#181818;stroke-width:1.0;"/><text fill="#000000" font-family="sans-serif" font-size="13" font-weight="bold" lengthAdjust="spacing" textLength="14" x="817.5" y="994.5459">21</text><text fill="#000000" font-family="sans-serif" font-size="13" lengthAdjust="spacing" textLength="388" x="835.5" y="994.5459">searchInRangeRecursive(leftNode, bounds, filters, depth+1, results)</text><path d="M737.5,1034.8086 L802.5,1034.8086 L802.5,1044.0996 L792.5,1054.0996 L737.5,1054.0996 L737.5,1034.8086 " fill="#EEEEEE" style="stroke:#000000;stroke-width:1.5;"/><rect fill="none" height="126.1641" style="stroke:#000000;stroke-width:1.5;" width="704" x="737.5" y="1034.8086"/><text fill="#000000" font-family="sans-serif" font-size="13" font-weight="bold" lengthAdjust="spacing" textLength="20" x="752.5" y="1049.8369">opt</text><text fill="#000000" font-family="sans-serif" font-size="11" font-weight="bold" lengthAdjust="spacing" textLength="136" x="817.5" y="1048.6787">["explore right subtree"]</text><polygon fill="#181818" points="1348.5,1073.3906,1358.5,1077.3906,1348.5,1081.3906,1352.5,1077.3906" style="stroke:#181818;stroke-width:1.0;"/><line style="stroke:#181818;stroke-width:1.0;" x1="810.5" x2="1354.5" y1="1077.3906" y2="1077.3906"/><text fill="#000000" font-family="sans-serif" font-size="13" font-weight="bold" lengthAdjust="spacing" textLength="14" x="817.5" y="1072.1279">22</text><text fill="#000000" font-family="sans-serif" font-size="13" lengthAdjust="spacing" textLength="56" x="835.5" y="1072.1279">getRight()</text><polygon fill="#181818" points="821.5,1104.6816,811.5,1108.6816,821.5,1112.6816,817.5,1108.6816" style="stroke:#181818;stroke-width:1.0;"/><line style="stroke:#181818;stroke-width:1.0;stroke-dasharray:2.0,2.0;" x1="815.5" x2="1364.5" y1="1108.6816" y2="1108.6816"/><text fill="#000000" font-family="sans-serif" font-size="13" font-weight="bold" lengthAdjust="spacing" textLength="14" x="827.5" y="1103.4189">23</text><text fill="#000000" font-family="sans-serif" font-size="13" lengthAdjust="spacing" textLength="55" x="845.5" y="1103.4189">rightNode</text><line style="stroke:#181818;stroke-width:1.0;" x1="810.5" x2="852.5" y1="1139.9727" y2="1139.9727"/><line style="stroke:#181818;stroke-width:1.0;" x1="852.5" x2="852.5" y1="1139.9727" y2="1152.9727"/><line style="stroke:#181818;stroke-width:1.0;" x1="811.5" x2="852.5" y1="1152.9727" y2="1152.9727"/><polygon fill="#181818" points="821.5,1148.9727,811.5,1152.9727,821.5,1156.9727,817.5,1152.9727" style="stroke:#181818;stroke-width:1.0;"/><text fill="#000000" font-family="sans-serif" font-size="13" font-weight="bold" lengthAdjust="spacing" textLength="14" x="817.5" y="1134.71">24</text><text fill="#000000" font-family="sans-serif" font-size="13" lengthAdjust="spacing" textLength="396" x="835.5" y="1134.71">searchInRangeRecursive(rightNode, bounds, filters, depth+1, results)</text><polygon fill="#181818" points="393.5,1194.2637,383.5,1198.2637,393.5,1202.2637,389.5,1198.2637" style="stroke:#181818;stroke-width:1.0;"/><line style="stroke:#181818;stroke-width:1.0;stroke-dasharray:2.0,2.0;" x1="387.5" x2="799.5" y1="1198.2637" y2="1198.2637"/><text fill="#000000" font-family="sans-serif" font-size="13" font-weight="bold" lengthAdjust="spacing" textLength="14" x="399.5" y="1193.001">25</text><text fill="#000000" font-family="sans-serif" font-size="13" lengthAdjust="spacing" textLength="83" x="417.5" y="1193.001">searchResults</text><polygon fill="#181818" points="43.5,1225.5547,33.5,1229.5547,43.5,1233.5547,39.5,1229.5547" style="stroke:#181818;stroke-width:1.0;"/><line style="stroke:#181818;stroke-width:1.0;" x1="37.5" x2="376.5" y1="1229.5547" y2="1229.5547"/><text fill="#000000" font-family="sans-serif" font-size="13" font-weight="bold" lengthAdjust="spacing" textLength="14" x="49.5" y="1224.292">26</text><text fill="#000000" font-family="sans-serif" font-size="13" lengthAdjust="spacing" textLength="298" x="67.5" y="1224.292">displayResults(searchResults, performanceMetrics)</text><!--SRC=[hLR1Rjim3BtxAuYS4im5kjiG30NMjDs2jTkGDDYPaPbOg28PajmsVp_AbZCxTTAigowocKVoyObYxALN18lvzVJy4vp1l40lKS6Sq8eSbbluIcPjiSYbOFCNImZ3-TKeITo3r0LQtC36Q2DoQpO4tfRK-gL0yO1hclijvx0aFEgrQWDSZfbvadeDArIEaWHBRtIvMPBbP-6DXLyAjUPNTl1Io0ArXy5uWdPjlg7E53ilfWD01ulf7YWMKzTIGJgMBjfRel7tgtlUAcZzsCLeapMO7_pOmeNNBjPvJcMq6zzAvpzVbzOKX7fUMozgDX6I9B58EBlWAiRWIB5O7RB3KT13FgAdK2ZmMam3FhgEeU0JAFoDiUqJkpIbpXmx1uUzBAGzsGXGwE-aJY7i-CoxqVKxx_ZCntqiuSyYb87gHYgEU2nRWn2SrTjj2j9DfA_sEvIwawTJVj0ax9VRTdMX7L-XdiAgpbcJscdOxOJgjx0wvXuMZwXanluJOsmcDJ-5SW-xrzqnXZNvcJ4-IjDX4XkjiLlofTLW6LqrrSdKQe6cUiQNZ6OaIkla8msRG2aigwFU2PB2UShPNAcyww5rGA2mb345hFXk4ZAJS2b0QgxZpBSBUKMJmAdIvQ-KmumAduzUHDYJgf9b7nDb4xjWoUj4zWGKEOc7wIegEDGjqKOlevaY3WHuaZxd-ctm6hp0dI91CmY6erxtK-flQH0dJvWxII-kUtuH7evG7ufyYdmRzAoWQwvu3Bjt__fMfMJ38aPfl0O7lVefDKCNCCiQ2eSpaywIK-t1ziyjbP6G6VtcOPNFosMu7kxUN3yNojXkWwKGUx-_pwXs0KKh3wwEzBPMk-K8xzDcWSj1p1k7LHEpPrXL-dpus3EoZfvGHpuhr_b_wZSB8Tv7m8hDUoku2_fc2GzAcj6nFuTc-5IcMPsWzxCXawvGk8sGOSSXXO8iJwODQa5tvAqKpBALc3zz_W00]--></g></svg>