<svg xmlns="http://www.w3.org/2000/svg" xmlns:xlink="http://www.w3.org/1999/xlink" contentStyleType="text/css" height="1051px" preserveAspectRatio="none" style="width:1697px;height:1051px;background:#FFFFFF;" version="1.1" viewBox="0 0 1697 1051" width="1697px" zoomAndPan="magnify"><defs/><g><rect fill="#FFFFFF" height="861.3848" style="stroke:#181818;stroke-width:1.0;" width="10" x="83.3164" y="91.4883"/><rect fill="#FFFFFF" height="796.7637" style="stroke:#181818;stroke-width:1.0;" width="10" x="428.0669" y="156.1094"/><rect fill="#FFFFFF" height="738.1426" style="stroke:#181818;stroke-width:1.0;" width="10" x="626.5293" y="185.4199"/><rect fill="none" height="411.0371" style="stroke:#000000;stroke-width:1.5;" width="1650.5723" x="20" y="454.9043"/><rect fill="none" height="321.1055" style="stroke:#000000;stroke-width:1.5;" width="1630.5723" x="30" y="537.8359"/><rect fill="none" height="17.3105" style="stroke:#000000;stroke-width:1.5;" width="336.7329" x="40" y="834.6309"/><line style="stroke:#181818;stroke-width:0.5;stroke-dasharray:5.0,5.0;" x1="88" x2="88" y1="81.4883" y2="970.873"/><line style="stroke:#181818;stroke-width:0.5;stroke-dasharray:5.0,5.0;" x1="432.7676" x2="432.7676" y1="81.4883" y2="970.873"/><line style="stroke:#181818;stroke-width:0.5;stroke-dasharray:5.0,5.0;" x1="631.5112" x2="631.5112" y1="81.4883" y2="970.873"/><line style="stroke:#181818;stroke-width:0.5;stroke-dasharray:5.0,5.0;" x1="952.5518" x2="952.5518" y1="81.4883" y2="970.873"/><line style="stroke:#181818;stroke-width:0.5;stroke-dasharray:5.0,5.0;" x1="1129.1025" x2="1129.1025" y1="81.4883" y2="970.873"/><line style="stroke:#181818;stroke-width:0.5;stroke-dasharray:5.0,5.0;" x1="1463.2432" x2="1463.2432" y1="81.4883" y2="970.873"/><line style="stroke:#181818;stroke-width:0.5;stroke-dasharray:5.0,5.0;" x1="1587.1074" x2="1587.1074" y1="81.4883" y2="970.873"/><text fill="#000000" font-family="sans-serif" font-size="14" lengthAdjust="spacing" textLength="110.6328" x="30" y="78.5352">Freight Manager</text><ellipse cx="88.3164" cy="13.5" fill="#E2E2F0" rx="8" ry="8" style="stroke:#181818;stroke-width:0.5;"/><path d="M88.3164,21.5 L88.3164,48.5 M75.3164,29.5 L101.3164,29.5 M88.3164,48.5 L75.3164,63.5 M88.3164,48.5 L101.3164,63.5 " fill="none" style="stroke:#181818;stroke-width:0.5;"/><text fill="#000000" font-family="sans-serif" font-size="14" lengthAdjust="spacing" textLength="110.6328" x="30" y="983.4082">Freight Manager</text><ellipse cx="88.3164" cy="994.8613" fill="#E2E2F0" rx="8" ry="8" style="stroke:#181818;stroke-width:0.5;"/><path d="M88.3164,1002.8613 L88.3164,1029.8613 M75.3164,1010.8613 L101.3164,1010.8613 M88.3164,1029.8613 L75.3164,1044.8613 M88.3164,1029.8613 L101.3164,1044.8613 " fill="none" style="stroke:#181818;stroke-width:0.5;"/><rect fill="#E2E2F0" height="30.4883" rx="2.5" ry="2.5" style="stroke:#181818;stroke-width:0.5;" width="138.5986" x="363.7676" y="50"/><text fill="#000000" font-family="sans-serif" font-size="14" lengthAdjust="spacing" textLength="124.5986" x="370.7676" y="70.5352">Dispatcher Service</text><rect fill="#E2E2F0" height="30.4883" rx="2.5" ry="2.5" style="stroke:#181818;stroke-width:0.5;" width="138.5986" x="363.7676" y="969.873"/><text fill="#000000" font-family="sans-serif" font-size="14" lengthAdjust="spacing" textLength="124.5986" x="370.7676" y="990.4082">Dispatcher Service</text><rect fill="#E2E2F0" height="30.4883" rx="2.5" ry="2.5" style="stroke:#181818;stroke-width:0.5;" width="132.0361" x="565.5112" y="50"/><text fill="#000000" font-family="sans-serif" font-size="14" lengthAdjust="spacing" textLength="118.0361" x="572.5112" y="70.5352">Scheduler Service</text><rect fill="#E2E2F0" height="30.4883" rx="2.5" ry="2.5" style="stroke:#181818;stroke-width:0.5;" width="132.0361" x="565.5112" y="969.873"/><text fill="#000000" font-family="sans-serif" font-size="14" lengthAdjust="spacing" textLength="118.0361" x="572.5112" y="990.4082">Scheduler Service</text><rect fill="#E2E2F0" height="30.4883" rx="2.5" ry="2.5" style="stroke:#181818;stroke-width:0.5;" width="152.5508" x="876.5518" y="50"/><text fill="#000000" font-family="sans-serif" font-size="14" lengthAdjust="spacing" textLength="138.5508" x="883.5518" y="70.5352">TrainTrip A (Priority)</text><rect fill="#E2E2F0" height="30.4883" rx="2.5" ry="2.5" style="stroke:#181818;stroke-width:0.5;" width="152.5508" x="876.5518" y="969.873"/><text fill="#000000" font-family="sans-serif" font-size="14" lengthAdjust="spacing" textLength="138.5508" x="883.5518" y="990.4082">TrainTrip A (Priority)</text><rect fill="#E2E2F0" height="30.4883" rx="2.5" ry="2.5" style="stroke:#181818;stroke-width:0.5;" width="181.7061" x="1039.1025" y="50"/><text fill="#000000" font-family="sans-serif" font-size="14" lengthAdjust="spacing" textLength="167.7061" x="1046.1025" y="70.5352">TrainTrip B (Subsequent)</text><rect fill="#E2E2F0" height="30.4883" rx="2.5" ry="2.5" style="stroke:#181818;stroke-width:0.5;" width="181.7061" x="1039.1025" y="969.873"/><text fill="#000000" font-family="sans-serif" font-size="14" lengthAdjust="spacing" textLength="167.7061" x="1046.1025" y="990.4082">TrainTrip B (Subsequent)</text><rect fill="#E2E2F0" height="30.4883" rx="2.5" ry="2.5" style="stroke:#181818;stroke-width:0.5;" width="100.8643" x="1413.2432" y="50"/><text fill="#000000" font-family="sans-serif" font-size="14" lengthAdjust="spacing" textLength="86.8643" x="1420.2432" y="70.5352">LineSegment</text><rect fill="#E2E2F0" height="30.4883" rx="2.5" ry="2.5" style="stroke:#181818;stroke-width:0.5;" width="100.8643" x="1413.2432" y="969.873"/><text fill="#000000" font-family="sans-serif" font-size="14" lengthAdjust="spacing" textLength="86.8643" x="1420.2432" y="990.4082">LineSegment</text><rect fill="#E2E2F0" height="30.4883" rx="2.5" ry="2.5" style="stroke:#181818;stroke-width:0.5;" width="126.4648" x="1524.1074" y="50"/><text fill="#000000" font-family="sans-serif" font-size="14" lengthAdjust="spacing" textLength="112.4648" x="1531.1074" y="70.5352">Scheduler Result</text><rect fill="#E2E2F0" height="30.4883" rx="2.5" ry="2.5" style="stroke:#181818;stroke-width:0.5;" width="126.4648" x="1524.1074" y="969.873"/><text fill="#000000" font-family="sans-serif" font-size="14" lengthAdjust="spacing" textLength="112.4648" x="1531.1074" y="990.4082">Scheduler Result</text><rect fill="#FFFFFF" height="861.3848" style="stroke:#181818;stroke-width:1.0;" width="10" x="83.3164" y="91.4883"/><rect fill="#FFFFFF" height="796.7637" style="stroke:#181818;stroke-width:1.0;" width="10" x="428.0669" y="156.1094"/><rect fill="#FFFFFF" height="738.1426" style="stroke:#181818;stroke-width:1.0;" width="10" x="626.5293" y="185.4199"/><rect fill="#EEEEEE" height="3" style="stroke:#EEEEEE;stroke-width:1.0;" width="1690.5723" x="0" y="112.1436"/><line style="stroke:#000000;stroke-width:1.0;" x1="0" x2="1690.5723" y1="112.1436" y2="112.1436"/><line style="stroke:#000000;stroke-width:1.0;" x1="0" x2="1690.5723" y1="115.1436" y2="115.1436"/><rect fill="#EEEEEE" height="23.3105" style="stroke:#000000;stroke-width:2.0;" width="197.8979" x="746.3372" y="101.4883"/><text fill="#000000" font-family="sans-serif" font-size="13" font-weight="bold" lengthAdjust="spacing" textLength="179.6133" x="752.3372" y="118.0566">Start Dispatching (USLP07)</text><polygon fill="#181818" points="416.0669,152.1094,426.0669,156.1094,416.0669,160.1094,420.0669,156.1094" style="stroke:#181818;stroke-width:1.0;"/><line style="stroke:#181818;stroke-width:1.0;" x1="93.3164" x2="422.0669" y1="156.1094" y2="156.1094"/><text fill="#000000" font-family="sans-serif" font-size="13" font-weight="bold" lengthAdjust="spacing" textLength="8.5757" x="100.3164" y="151.3672">1</text><text fill="#000000" font-family="sans-serif" font-size="13" lengthAdjust="spacing" textLength="274.2886" x="112.8921" y="151.3672">Request to dispatch trains(List&lt;TrainTrip&gt;)</text><polygon fill="#181818" points="614.5293,181.4199,624.5293,185.4199,614.5293,189.4199,618.5293,185.4199" style="stroke:#181818;stroke-width:1.0;"/><line style="stroke:#181818;stroke-width:1.0;" x1="438.0669" x2="620.5293" y1="185.4199" y2="185.4199"/><text fill="#000000" font-family="sans-serif" font-size="13" font-weight="bold" lengthAdjust="spacing" textLength="8.5757" x="445.0669" y="180.6777">2</text><text fill="#000000" font-family="sans-serif" font-size="13" lengthAdjust="spacing" textLength="152.915" x="457.6426" y="180.6777">dispatchTrains(Trip List)</text><path d="M494,198.4199 L494,223.4199 L768,223.4199 L768,208.4199 L758,198.4199 L494,198.4199 " fill="#FEFFDD" style="stroke:#181818;stroke-width:0.5;"/><path d="M758,198.4199 L758,208.4199 L768,208.4199 L758,198.4199 " fill="#FEFFDD" style="stroke:#181818;stroke-width:0.5;"/><text fill="#000000" font-family="sans-serif" font-size="13" lengthAdjust="spacing" textLength="253.8618" x="500" y="215.9883">1. Sort all trips by Departure Time (AC1)</text><path d="M500,258.041 L500,283.041 L762,283.041 L762,268.041 L752,258.041 L500,258.041 " fill="#FEFFDD" style="stroke:#181818;stroke-width:0.5;"/><path d="M752,258.041 L752,268.041 L762,268.041 L752,258.041 " fill="#FEFFDD" style="stroke:#181818;stroke-width:0.5;"/><text fill="#000000" font-family="sans-serif" font-size="13" lengthAdjust="spacing" textLength="241.7822" x="506" y="275.6094">2. Calculate initial times for Trip A &amp; B</text><polygon fill="#181818" points="940.8271,305.6621,950.8271,309.6621,940.8271,313.6621,944.8271,309.6621" style="stroke:#181818;stroke-width:1.0;"/><line style="stroke:#181818;stroke-width:1.0;" x1="636.5293" x2="946.8271" y1="309.6621" y2="309.6621"/><text fill="#000000" font-family="sans-serif" font-size="13" font-weight="bold" lengthAdjust="spacing" textLength="8.5757" x="643.5293" y="304.9199">3</text><text fill="#000000" font-family="sans-serif" font-size="13" lengthAdjust="spacing" textLength="140.2515" x="656.105" y="304.9199">calculateTravelTimes()</text><polygon fill="#181818" points="1117.9556,334.9727,1127.9556,338.9727,1117.9556,342.9727,1121.9556,338.9727" style="stroke:#181818;stroke-width:1.0;"/><line style="stroke:#181818;stroke-width:1.0;" x1="636.5293" x2="1123.9556" y1="338.9727" y2="338.9727"/><text fill="#000000" font-family="sans-serif" font-size="13" font-weight="bold" lengthAdjust="spacing" textLength="8.5757" x="643.5293" y="334.2305">4</text><text fill="#000000" font-family="sans-serif" font-size="13" lengthAdjust="spacing" textLength="140.2515" x="656.105" y="334.2305">calculateTravelTimes()</text><polygon fill="#181818" points="647.5293,364.2832,637.5293,368.2832,647.5293,372.2832,643.5293,368.2832" style="stroke:#181818;stroke-width:1.0;"/><line style="stroke:#181818;stroke-width:1.0;" x1="641.5293" x2="951.8271" y1="368.2832" y2="368.2832"/><text fill="#000000" font-family="sans-serif" font-size="13" font-weight="bold" lengthAdjust="spacing" textLength="8.5757" x="653.5293" y="363.541">5</text><text fill="#000000" font-family="sans-serif" font-size="13" lengthAdjust="spacing" textLength="279.7222" x="666.105" y="363.541">return calculated segment entries (SimEntry)</text><polygon fill="#181818" points="647.5293,393.5938,637.5293,397.5938,647.5293,401.5938,643.5293,397.5938" style="stroke:#181818;stroke-width:1.0;"/><line style="stroke:#181818;stroke-width:1.0;" x1="641.5293" x2="1128.9556" y1="397.5938" y2="397.5938"/><text fill="#000000" font-family="sans-serif" font-size="13" font-weight="bold" lengthAdjust="spacing" textLength="8.5757" x="653.5293" y="392.8516">6</text><text fill="#000000" font-family="sans-serif" font-size="13" lengthAdjust="spacing" textLength="279.7222" x="666.105" y="392.8516">return calculated segment entries (SimEntry)</text><line style="stroke:#181818;stroke-width:1.0;" x1="636.5293" x2="678.5293" y1="426.9043" y2="426.9043"/><line style="stroke:#181818;stroke-width:1.0;" x1="678.5293" x2="678.5293" y1="426.9043" y2="439.9043"/><line style="stroke:#181818;stroke-width:1.0;" x1="637.5293" x2="678.5293" y1="439.9043" y2="439.9043"/><polygon fill="#181818" points="647.5293,435.9043,637.5293,439.9043,647.5293,443.9043,643.5293,439.9043" style="stroke:#181818;stroke-width:1.0;"/><text fill="#000000" font-family="sans-serif" font-size="13" font-weight="bold" lengthAdjust="spacing" textLength="8.5757" x="643.5293" y="422.1621">7</text><text fill="#000000" font-family="sans-serif" font-size="13" lengthAdjust="spacing" textLength="205.3911" x="656.105" y="422.1621">resolveFirstConflict(TripA, TripB)</text><path d="M20,454.9043 L94.4468,454.9043 L94.4468,462.2148 L84.4468,472.2148 L20,472.2148 L20,454.9043 " fill="#EEEEEE" style="stroke:#000000;stroke-width:1.5;"/><rect fill="none" height="411.0371" style="stroke:#000000;stroke-width:1.5;" width="1650.5723" x="20" y="454.9043"/><text fill="#000000" font-family="sans-serif" font-size="13" font-weight="bold" lengthAdjust="spacing" textLength="29.4468" x="35" y="468.4727">loop</text><text fill="#000000" font-family="sans-serif" font-size="11" font-weight="bold" lengthAdjust="spacing" textLength="157.2012" x="109.4468" y="467.5391">[For each Segment Entry (i)]</text><polygon fill="#181818" points="940.8271,489.5254,950.8271,493.5254,940.8271,497.5254,944.8271,493.5254" style="stroke:#181818;stroke-width:1.0;"/><line style="stroke:#181818;stroke-width:1.0;" x1="636.5293" x2="946.8271" y1="493.5254" y2="493.5254"/><text fill="#000000" font-family="sans-serif" font-size="13" font-weight="bold" lengthAdjust="spacing" textLength="8.5757" x="643.5293" y="488.7832">8</text><text fill="#000000" font-family="sans-serif" font-size="13" lengthAdjust="spacing" textLength="119.1709" x="656.105" y="488.7832">getSegmentEntry(i)</text><polygon fill="#181818" points="1117.9556,518.8359,1127.9556,522.8359,1117.9556,526.8359,1121.9556,522.8359" style="stroke:#181818;stroke-width:1.0;"/><line style="stroke:#181818;stroke-width:1.0;" x1="636.5293" x2="1123.9556" y1="522.8359" y2="522.8359"/><text fill="#000000" font-family="sans-serif" font-size="13" font-weight="bold" lengthAdjust="spacing" textLength="8.5757" x="643.5293" y="518.0938">9</text><text fill="#000000" font-family="sans-serif" font-size="13" lengthAdjust="spacing" textLength="119.1709" x="656.105" y="518.0938">getSegmentEntry(i)</text><path d="M30,537.8359 L92.1387,537.8359 L92.1387,545.1465 L82.1387,555.1465 L30,555.1465 L30,537.8359 " fill="#EEEEEE" style="stroke:#000000;stroke-width:1.5;"/><rect fill="none" height="321.1055" style="stroke:#000000;stroke-width:1.5;" width="1630.5723" x="30" y="537.8359"/><text fill="#000000" font-family="sans-serif" font-size="13" font-weight="bold" lengthAdjust="spacing" textLength="17.1387" x="45" y="551.4043">alt</text><text fill="#000000" font-family="sans-serif" font-size="11" font-weight="bold" lengthAdjust="spacing" textLength="340.0869" x="107.1387" y="550.4707">[Conflict detected (Single Track &amp; ExitTimeA &gt; EntryTimeB)]</text><path d="M526,560.1465 L526,585.1465 L735,585.1465 L735,570.1465 L725,560.1465 L526,560.1465 " fill="#FEFFDD" style="stroke:#181818;stroke-width:0.5;"/><path d="M725,560.1465 L725,570.1465 L735,570.1465 L725,560.1465 " fill="#FEFFDD" style="stroke:#181818;stroke-width:0.5;"/><text fill="#000000" font-family="sans-serif" font-size="13" lengthAdjust="spacing" textLength="188.7158" x="532" y="577.7148">3. Conflict found in segment i</text><polygon fill="#181818" points="1117.9556,607.7676,1127.9556,611.7676,1117.9556,615.7676,1121.9556,611.7676" style="stroke:#181818;stroke-width:1.0;"/><line style="stroke:#181818;stroke-width:1.0;" x1="636.5293" x2="1123.9556" y1="611.7676" y2="611.7676"/><text fill="#000000" font-family="sans-serif" font-size="13" font-weight="bold" lengthAdjust="spacing" textLength="17.1514" x="643.5293" y="607.0254">10</text><text fill="#000000" font-family="sans-serif" font-size="13" lengthAdjust="spacing" textLength="179.4419" x="664.6807" y="607.0254">findLastSafeWaitingPointId(i)</text><polygon fill="#181818" points="647.5293,637.0781,637.5293,641.0781,647.5293,645.0781,643.5293,641.0781" style="stroke:#181818;stroke-width:1.0;"/><line style="stroke:#181818;stroke-width:1.0;stroke-dasharray:2.0,2.0;" x1="641.5293" x2="1128.9556" y1="641.0781" y2="641.0781"/><text fill="#000000" font-family="sans-serif" font-size="13" font-weight="bold" lengthAdjust="spacing" textLength="17.1514" x="653.5293" y="636.3359">11</text><text fill="#000000" font-family="sans-serif" font-size="13" lengthAdjust="spacing" textLength="124.8584" x="674.6807" y="636.3359">return SafeFacilityId</text><line style="stroke:#181818;stroke-width:1.0;" x1="636.5293" x2="678.5293" y1="670.3887" y2="670.3887"/><line style="stroke:#181818;stroke-width:1.0;" x1="678.5293" x2="678.5293" y1="670.3887" y2="683.3887"/><line style="stroke:#181818;stroke-width:1.0;" x1="637.5293" x2="678.5293" y1="683.3887" y2="683.3887"/><polygon fill="#181818" points="647.5293,679.3887,637.5293,683.3887,647.5293,687.3887,643.5293,683.3887" style="stroke:#181818;stroke-width:1.0;"/><text fill="#000000" font-family="sans-serif" font-size="13" font-weight="bold" lengthAdjust="spacing" textLength="17.1514" x="643.5293" y="665.6465">12</text><text fill="#000000" font-family="sans-serif" font-size="13" lengthAdjust="spacing" textLength="144.79" x="664.6807" y="665.6465">Calculate delayMinutes</text><polygon fill="#181818" points="1575.3398,708.6992,1585.3398,712.6992,1575.3398,716.6992,1579.3398,712.6992" style="stroke:#181818;stroke-width:1.0;"/><line style="stroke:#181818;stroke-width:1.0;" x1="636.5293" x2="1581.3398" y1="712.6992" y2="712.6992"/><text fill="#000000" font-family="sans-serif" font-size="13" font-weight="bold" lengthAdjust="spacing" textLength="17.1514" x="643.5293" y="707.957">13</text><text fill="#000000" font-family="sans-serif" font-size="13" lengthAdjust="spacing" textLength="161.897" x="664.6807" y="707.957">addConflict(Conflict DTO)</text><path d="M502,725.6992 L502,750.6992 L759,750.6992 L759,735.6992 L749,725.6992 L502,725.6992 " fill="#FEFFDD" style="stroke:#181818;stroke-width:0.5;"/><path d="M749,725.6992 L749,735.6992 L759,735.6992 L749,725.6992 " fill="#FEFFDD" style="stroke:#181818;stroke-width:0.5;"/><text fill="#000000" font-family="sans-serif" font-size="13" lengthAdjust="spacing" textLength="236.8501" x="508" y="743.2676">4. Recalculate Trip B with Delay (AC4)</text><polygon fill="#181818" points="1117.9556,773.3203,1127.9556,777.3203,1117.9556,781.3203,1121.9556,777.3203" style="stroke:#181818;stroke-width:1.0;"/><line style="stroke:#181818;stroke-width:1.0;" x1="636.5293" x2="1123.9556" y1="777.3203" y2="777.3203"/><text fill="#000000" font-family="sans-serif" font-size="13" font-weight="bold" lengthAdjust="spacing" textLength="17.1514" x="643.5293" y="772.5781">14</text><text fill="#000000" font-family="sans-serif" font-size="13" lengthAdjust="spacing" textLength="204.7563" x="664.6807" y="772.5781">newTripWithDelay(delayMinutes)</text><line style="stroke:#181818;stroke-width:1.0;" x1="1129.9556" x2="1171.9556" y1="806.6309" y2="806.6309"/><line style="stroke:#181818;stroke-width:1.0;" x1="1171.9556" x2="1171.9556" y1="806.6309" y2="819.6309"/><line style="stroke:#181818;stroke-width:1.0;" x1="1130.9556" x2="1171.9556" y1="819.6309" y2="819.6309"/><polygon fill="#181818" points="1140.9556,815.6309,1130.9556,819.6309,1140.9556,823.6309,1136.9556,819.6309" style="stroke:#181818;stroke-width:1.0;"/><text fill="#000000" font-family="sans-serif" font-size="13" font-weight="bold" lengthAdjust="spacing" textLength="17.1514" x="1136.9556" y="801.8887">15</text><text fill="#000000" font-family="sans-serif" font-size="13" lengthAdjust="spacing" textLength="298.5684" x="1158.1069" y="801.8887">calculateTravelTimes() // Recalc from new start</text><path d="M40,834.6309 L123.0098,834.6309 L123.0098,841.9414 L113.0098,851.9414 L40,851.9414 L40,834.6309 " fill="#EEEEEE" style="stroke:#000000;stroke-width:1.5;"/><rect fill="none" height="17.3105" style="stroke:#000000;stroke-width:1.5;" width="336.7329" x="40" y="834.6309"/><text fill="#000000" font-family="sans-serif" font-size="13" font-weight="bold" lengthAdjust="spacing" textLength="38.0098" x="55" y="848.1992">break</text><text fill="#000000" font-family="sans-serif" font-size="11" font-weight="bold" lengthAdjust="spacing" textLength="233.7231" x="138.0098" y="847.2656">[loop // Stop after first conflict resolved]</text><polygon fill="#181818" points="1575.3398,890.252,1585.3398,894.252,1575.3398,898.252,1579.3398,894.252" style="stroke:#181818;stroke-width:1.0;"/><line style="stroke:#181818;stroke-width:1.0;" x1="636.5293" x2="1581.3398" y1="894.252" y2="894.252"/><text fill="#000000" font-family="sans-serif" font-size="13" font-weight="bold" lengthAdjust="spacing" textLength="17.1514" x="643.5293" y="889.5098">16</text><text fill="#000000" font-family="sans-serif" font-size="13" lengthAdjust="spacing" textLength="183.7646" x="664.6807" y="889.5098">addTrip(Final Trip Schedules)</text><polygon fill="#181818" points="449.0669,919.5625,439.0669,923.5625,449.0669,927.5625,445.0669,923.5625" style="stroke:#181818;stroke-width:1.0;"/><line style="stroke:#181818;stroke-width:1.0;stroke-dasharray:2.0,2.0;" x1="443.0669" x2="630.5293" y1="923.5625" y2="923.5625"/><text fill="#000000" font-family="sans-serif" font-size="13" font-weight="bold" lengthAdjust="spacing" textLength="17.1514" x="455.0669" y="918.8203">17</text><text fill="#000000" font-family="sans-serif" font-size="13" lengthAdjust="spacing" textLength="143.311" x="476.2183" y="918.8203">return SchedulerResult</text><polygon fill="#181818" points="99.3164,948.873,89.3164,952.873,99.3164,956.873,95.3164,952.873" style="stroke:#181818;stroke-width:1.0;"/><line style="stroke:#181818;stroke-width:1.0;" x1="93.3164" x2="432.0669" y1="952.873" y2="952.873"/><text fill="#000000" font-family="sans-serif" font-size="13" font-weight="bold" lengthAdjust="spacing" textLength="17.1514" x="105.3164" y="948.1309">18</text><text fill="#000000" font-family="sans-serif" font-size="13" lengthAdjust="spacing" textLength="289.5991" x="126.4678" y="948.1309">Display SchedulerResult (Schedules, Conflicts)</text><!--SRC=[fLLTQzim57tFhxZqOTZGfUjM69Ib4BSD558Mvem-A_QrUwaZPPASBlz-L_9tvhI31O9bSSwvvtv85gLLijnkK4yc8h5Amzb28-NF5Xw553dgCn2cMKzsGbjAQ2UaXRCxCZjXasVK4AFUKu8UssqFuJ5lfMLnX6vtX-2r5YJNcdOmXs2bIMcoXz0ptExy53g282ut1d-LA6s7ZuRu9KcCCTyofZ9HhK_v_O6cB2fajPnCPZE8BQFRR4dc4FoCbwjFNqEOpNmrQIyijhMhd_3nfbSYk6P9DciiM0LflG_M9MI29HdxhKtk9kofzghSKsFjplPrgxUkv7o5d6ROwNJrdqZ5xshl6jJJk9n2h3XHKHHiYtO6DWUuGrUgKYEiQOiGp6ylsLoXr0uMF4CeE0SVRIL8WmyyFwywmJZWttYmprEu5KLI5iuQIR8aE2g7C92nRZqG7o3o6XsJy_OnM29f-9pq7WldpmJXE3uwZVU4IlEeg1evSTdnKZ3L-03_DR7L8ARjFQyFOQiI_PVAt-w7KaOLUroGDlPMoQoWn8wLVDYUUkR1Xu20AgydovgZhHcUy2O-6iUt155OQ8n2YXOJbp_dA_E29qgBv8LxVF-RhEl676uga-ubwicS7gClqqu_KwLCUPRQ-j9GOTHzHZ9T2cDZaU6Ju36K-KgHj0zfF_5USyUxw-WBaL31bzT3-aRSFhSx02aMul18ihHetY1NTn8pHPgs_M_plrj__wUQNKrPg1r7g6_JLxBFVDhPXplaL-7xfPFuwfPFJFIye9_5QEtUEujmSL5RWqohhOi0nbs-mxGs6iLBDUHCY2q_HMRPNEOE1YHDGUhZahPabDNQFTr_ShAwpcUm8CcNagzF0-IyUfpZ2xuPXWPHVqDI7Bk4XvTvyysuzegk2qSgV6eQ3-VjpBETddZlIz7VRZvBVm00]--></g></svg>