<svg xmlns="http://www.w3.org/2000/svg" xmlns:xlink="http://www.w3.org/1999/xlink" contentStyleType="text/css" height="939px" preserveAspectRatio="none" style="width:1376px;height:939px;background:#FFFFFF;" version="1.1" viewBox="0 0 1376 939" width="1376px" zoomAndPan="magnify"><defs/><g><rect fill="#FFFFFF" height="748.7871" style="stroke:#181818;stroke-width:1.0;" width="10" x="80.4531" y="91.4883"/><rect fill="#FFFFFF" height="684.166" style="stroke:#181818;stroke-width:1.0;" width="10" x="412.4321" y="156.1094"/><rect fill="#FFFFFF" height="29.3105" style="stroke:#181818;stroke-width:1.0;" width="10" x="781.0054" y="185.4199"/><rect fill="#FFFFFF" height="53.6211" style="stroke:#181818;stroke-width:1.0;" width="10" x="922.2964" y="401.5938"/><rect fill="#FFFFFF" height="71.6211" style="stroke:#181818;stroke-width:1.0;" width="10" x="1048.8901" y="484.5254"/><rect fill="none" height="515.6133" style="stroke:#000000;stroke-width:1.5;" width="1025.5342" x="323.8281" y="296.3516"/><rect fill="none" height="357.3711" style="stroke:#000000;stroke-width:1.5;" width="1005.5342" x="333.8281" y="362.9727"/><rect fill="none" height="223.1289" style="stroke:#000000;stroke-width:1.5;" width="985.5342" x="343.8281" y="416.5938"/><rect fill="none" height="61.5762" style="stroke:#000000;stroke-width:1.5;" width="644.6431" x="353.8281" y="571.1465"/><rect fill="none" height="59.6211" style="stroke:#000000;stroke-width:1.5;" width="294.0776" x="353.8281" y="653.7227"/><line style="stroke:#181818;stroke-width:0.5;stroke-dasharray:5.0,5.0;" x1="85" x2="85" y1="81.4883" y2="858.2754"/><line style="stroke:#181818;stroke-width:0.5;stroke-dasharray:5.0,5.0;" x1="416.8281" x2="416.8281" y1="81.4883" y2="858.2754"/><line style="stroke:#181818;stroke-width:0.5;stroke-dasharray:5.0,5.0;" x1="785.8892" x2="785.8892" y1="81.4883" y2="858.2754"/><line style="stroke:#181818;stroke-width:0.5;stroke-dasharray:5.0,5.0;" x1="927.1216" x2="927.1216" y1="81.4883" y2="858.2754"/><line style="stroke:#181818;stroke-width:0.5;stroke-dasharray:5.0,5.0;" x1="1053.4712" x2="1053.4712" y1="81.4883" y2="858.2754"/><text fill="#000000" font-family="sans-serif" font-size="14" lengthAdjust="spacing" textLength="124.9063" x="20" y="78.5352">Terminal Operator</text><ellipse cx="85.4531" cy="13.5" fill="#E2E2F0" rx="8" ry="8" style="stroke:#181818;stroke-width:0.5;"/><path d="M85.4531,21.5 L85.4531,48.5 M72.4531,29.5 L98.4531,29.5 M85.4531,48.5 L72.4531,63.5 M85.4531,48.5 L98.4531,63.5 " fill="none" style="stroke:#181818;stroke-width:0.5;"/><text fill="#000000" font-family="sans-serif" font-size="14" lengthAdjust="spacing" textLength="124.9063" x="20" y="870.8105">Terminal Operator</text><ellipse cx="85.4531" cy="882.2637" fill="#E2E2F0" rx="8" ry="8" style="stroke:#181818;stroke-width:0.5;"/><path d="M85.4531,890.2637 L85.4531,917.2637 M72.4531,898.2637 L98.4531,898.2637 M85.4531,917.2637 L72.4531,932.2637 M85.4531,917.2637 L98.4531,932.2637 " fill="none" style="stroke:#181818;stroke-width:0.5;"/><rect fill="#E2E2F0" height="30.4883" rx="2.5" ry="2.5" style="stroke:#181818;stroke-width:0.5;" width="107.208" x="363.8281" y="50"/><text fill="#000000" font-family="sans-serif" font-size="14" lengthAdjust="spacing" textLength="93.208" x="370.8281" y="70.5352">System (WMS)</text><rect fill="#E2E2F0" height="30.4883" rx="2.5" ry="2.5" style="stroke:#181818;stroke-width:0.5;" width="107.208" x="363.8281" y="857.2754"/><text fill="#000000" font-family="sans-serif" font-size="14" lengthAdjust="spacing" textLength="93.208" x="370.8281" y="877.8105">System (WMS)</text><rect fill="#E2E2F0" height="30.4883" rx="2.5" ry="2.5" style="stroke:#181818;stroke-width:0.5;" width="140.2324" x="715.8892" y="50"/><text fill="#000000" font-family="sans-serif" font-size="14" lengthAdjust="spacing" textLength="126.2324" x="722.8892" y="70.5352">Inventory Manager</text><rect fill="#E2E2F0" height="30.4883" rx="2.5" ry="2.5" style="stroke:#181818;stroke-width:0.5;" width="140.2324" x="715.8892" y="857.2754"/><text fill="#000000" font-family="sans-serif" font-size="14" lengthAdjust="spacing" textLength="126.2324" x="722.8892" y="877.8105">Inventory Manager</text><rect fill="#E2E2F0" height="30.4883" rx="2.5" ry="2.5" style="stroke:#181818;stroke-width:0.5;" width="122.3496" x="866.1216" y="50"/><text fill="#000000" font-family="sans-serif" font-size="14" lengthAdjust="spacing" textLength="108.3496" x="873.1216" y="70.5352">Warehouse (Wh)</text><rect fill="#E2E2F0" height="30.4883" rx="2.5" ry="2.5" style="stroke:#181818;stroke-width:0.5;" width="122.3496" x="866.1216" y="857.2754"/><text fill="#000000" font-family="sans-serif" font-size="14" lengthAdjust="spacing" textLength="108.3496" x="873.1216" y="877.8105">Warehouse (Wh)</text><rect fill="#E2E2F0" height="30.4883" rx="2.5" ry="2.5" style="stroke:#181818;stroke-width:0.5;" width="110.8379" x="998.4712" y="50"/><text fill="#000000" font-family="sans-serif" font-size="14" lengthAdjust="spacing" textLength="96.8379" x="1005.4712" y="70.5352">Inventory (Inv)</text><rect fill="#E2E2F0" height="30.4883" rx="2.5" ry="2.5" style="stroke:#181818;stroke-width:0.5;" width="110.8379" x="998.4712" y="857.2754"/><text fill="#000000" font-family="sans-serif" font-size="14" lengthAdjust="spacing" textLength="96.8379" x="1005.4712" y="877.8105">Inventory (Inv)</text><rect fill="#FFFFFF" height="748.7871" style="stroke:#181818;stroke-width:1.0;" width="10" x="80.4531" y="91.4883"/><rect fill="#FFFFFF" height="684.166" style="stroke:#181818;stroke-width:1.0;" width="10" x="412.4321" y="156.1094"/><rect fill="#FFFFFF" height="29.3105" style="stroke:#181818;stroke-width:1.0;" width="10" x="781.0054" y="185.4199"/><rect fill="#FFFFFF" height="53.6211" style="stroke:#181818;stroke-width:1.0;" width="10" x="922.2964" y="401.5938"/><rect fill="#FFFFFF" height="71.6211" style="stroke:#181818;stroke-width:1.0;" width="10" x="1048.8901" y="484.5254"/><rect fill="#EEEEEE" height="3" style="stroke:#EEEEEE;stroke-width:1.0;" width="1369.3623" x="0" y="112.1436"/><line style="stroke:#000000;stroke-width:1.0;" x1="0" x2="1369.3623" y1="112.1436" y2="112.1436"/><line style="stroke:#000000;stroke-width:1.0;" x1="0" x2="1369.3623" y1="115.1436" y2="115.1436"/><rect fill="#EEEEEE" height="23.3105" style="stroke:#000000;stroke-width:2.0;" width="203.1729" x="583.0947" y="101.4883"/><text fill="#000000" font-family="sans-serif" font-size="13" font-weight="bold" lengthAdjust="spacing" textLength="184.8882" x="589.0947" y="118.0566">In&#237;cio da Opera&#231;&#227;o (USEI01)</text><polygon fill="#181818" points="400.4321,152.1094,410.4321,156.1094,400.4321,160.1094,404.4321,156.1094" style="stroke:#181818;stroke-width:1.0;"/><line style="stroke:#181818;stroke-width:1.0;" x1="90.4531" x2="406.4321" y1="156.1094" y2="156.1094"/><text fill="#000000" font-family="sans-serif" font-size="13" font-weight="bold" lengthAdjust="spacing" textLength="8.5757" x="97.4531" y="151.3672">1</text><text fill="#000000" font-family="sans-serif" font-size="13" lengthAdjust="spacing" textLength="244.061" x="110.0288" y="151.3672">Request to unload wagons(Wagon List)</text><polygon fill="#181818" points="769.0054,181.4199,779.0054,185.4199,769.0054,189.4199,773.0054,185.4199" style="stroke:#181818;stroke-width:1.0;"/><line style="stroke:#181818;stroke-width:1.0;" x1="422.4321" x2="775.0054" y1="185.4199" y2="185.4199"/><text fill="#000000" font-family="sans-serif" font-size="13" font-weight="bold" lengthAdjust="spacing" textLength="8.5757" x="429.4321" y="180.6777">2</text><text fill="#000000" font-family="sans-serif" font-size="13" lengthAdjust="spacing" textLength="301.5581" x="442.0078" y="180.6777">Load and validate all data (items, bays, wagons)</text><polygon fill="#181818" points="433.4321,210.7305,423.4321,214.7305,433.4321,218.7305,429.4321,214.7305" style="stroke:#181818;stroke-width:1.0;"/><line style="stroke:#181818;stroke-width:1.0;stroke-dasharray:2.0,2.0;" x1="427.4321" x2="785.0054" y1="214.7305" y2="214.7305"/><text fill="#000000" font-family="sans-serif" font-size="13" font-weight="bold" lengthAdjust="spacing" textLength="8.5757" x="439.4321" y="209.9883">3</text><text fill="#000000" font-family="sans-serif" font-size="13" lengthAdjust="spacing" textLength="190.8931" x="452.0078" y="209.9883">Data loaded (or errors logged)</text><line style="stroke:#181818;stroke-width:1.0;" x1="422.4321" x2="464.4321" y1="268.3516" y2="268.3516"/><line style="stroke:#181818;stroke-width:1.0;" x1="464.4321" x2="464.4321" y1="268.3516" y2="281.3516"/><line style="stroke:#181818;stroke-width:1.0;" x1="423.4321" x2="464.4321" y1="281.3516" y2="281.3516"/><polygon fill="#181818" points="433.4321,277.3516,423.4321,281.3516,433.4321,285.3516,429.4321,281.3516" style="stroke:#181818;stroke-width:1.0;"/><text fill="#000000" font-family="sans-serif" font-size="13" font-weight="bold" lengthAdjust="spacing" textLength="8.5757" x="429.4321" y="263.6094">4</text><text fill="#000000" font-family="sans-serif" font-size="13" lengthAdjust="spacing" textLength="174.1416" x="442.0078" y="263.6094">Log wagon start processing</text><path d="M323.8281,296.3516 L398.2749,296.3516 L398.2749,303.6621 L388.2749,313.6621 L323.8281,313.6621 L323.8281,296.3516 " fill="#EEEEEE" style="stroke:#000000;stroke-width:1.5;"/><rect fill="none" height="515.6133" style="stroke:#000000;stroke-width:1.5;" width="1025.5342" x="323.8281" y="296.3516"/><text fill="#000000" font-family="sans-serif" font-size="13" font-weight="bold" lengthAdjust="spacing" textLength="29.4468" x="338.8281" y="309.9199">loop</text><text fill="#000000" font-family="sans-serif" font-size="11" font-weight="bold" lengthAdjust="spacing" textLength="138.5742" x="413.2749" y="308.9863">[For each BOX in wagon]</text><line style="stroke:#181818;stroke-width:1.0;" x1="422.4321" x2="464.4321" y1="334.9727" y2="334.9727"/><line style="stroke:#181818;stroke-width:1.0;" x1="464.4321" x2="464.4321" y1="334.9727" y2="347.9727"/><line style="stroke:#181818;stroke-width:1.0;" x1="423.4321" x2="464.4321" y1="347.9727" y2="347.9727"/><polygon fill="#181818" points="433.4321,343.9727,423.4321,347.9727,433.4321,351.9727,429.4321,347.9727" style="stroke:#181818;stroke-width:1.0;"/><text fill="#000000" font-family="sans-serif" font-size="13" font-weight="bold" lengthAdjust="spacing" textLength="8.5757" x="429.4321" y="330.2305">5</text><text fill="#000000" font-family="sans-serif" font-size="13" lengthAdjust="spacing" textLength="219.7686" x="442.0078" y="330.2305">Try to find location (sorted Wh list)</text><path d="M333.8281,362.9727 L408.2749,362.9727 L408.2749,370.2832 L398.2749,380.2832 L333.8281,380.2832 L333.8281,362.9727 " fill="#EEEEEE" style="stroke:#000000;stroke-width:1.5;"/><rect fill="none" height="357.3711" style="stroke:#000000;stroke-width:1.5;" width="1005.5342" x="333.8281" y="362.9727"/><text fill="#000000" font-family="sans-serif" font-size="13" font-weight="bold" lengthAdjust="spacing" textLength="29.4468" x="348.8281" y="376.541">loop</text><text fill="#000000" font-family="sans-serif" font-size="11" font-weight="bold" lengthAdjust="spacing" textLength="194.9922" x="423.2749" y="375.6074">[For each WH in precedence order]</text><polygon fill="#181818" points="910.2964,397.5938,920.2964,401.5938,910.2964,405.5938,914.2964,401.5938" style="stroke:#181818;stroke-width:1.0;"/><line style="stroke:#181818;stroke-width:1.0;" x1="422.4321" x2="916.2964" y1="401.5938" y2="401.5938"/><text fill="#000000" font-family="sans-serif" font-size="13" font-weight="bold" lengthAdjust="spacing" textLength="8.5757" x="429.4321" y="396.8516">6</text><text fill="#000000" font-family="sans-serif" font-size="13" lengthAdjust="spacing" textLength="87.3628" x="442.0078" y="396.8516">storeBox(Box)</text><path d="M343.8281,416.5938 L405.9668,416.5938 L405.9668,423.9043 L395.9668,433.9043 L343.8281,433.9043 L343.8281,416.5938 " fill="#EEEEEE" style="stroke:#000000;stroke-width:1.5;"/><rect fill="none" height="223.1289" style="stroke:#000000;stroke-width:1.5;" width="985.5342" x="343.8281" y="416.5938"/><text fill="#000000" font-family="sans-serif" font-size="13" font-weight="bold" lengthAdjust="spacing" textLength="17.1387" x="358.8281" y="430.1621">alt</text><text fill="#000000" font-family="sans-serif" font-size="11" font-weight="bold" lengthAdjust="spacing" textLength="114.0498" x="420.9668" y="429.2285">[successful storage]</text><polygon fill="#181818" points="433.4321,451.2148,423.4321,455.2148,433.4321,459.2148,429.4321,455.2148" style="stroke:#181818;stroke-width:1.0;"/><line style="stroke:#181818;stroke-width:1.0;stroke-dasharray:2.0,2.0;" x1="427.4321" x2="926.2964" y1="455.2148" y2="455.2148"/><text fill="#000000" font-family="sans-serif" font-size="13" font-weight="bold" lengthAdjust="spacing" textLength="8.5757" x="439.4321" y="450.4727">7</text><text fill="#000000" font-family="sans-serif" font-size="13" lengthAdjust="spacing" textLength="184.52" x="452.0078" y="450.4727">Location assigned (Aisle/Bay)</text><polygon fill="#181818" points="1036.8901,480.5254,1046.8901,484.5254,1036.8901,488.5254,1040.8901,484.5254" style="stroke:#181818;stroke-width:1.0;"/><line style="stroke:#181818;stroke-width:1.0;" x1="422.4321" x2="1042.8901" y1="484.5254" y2="484.5254"/><text fill="#000000" font-family="sans-serif" font-size="13" font-weight="bold" lengthAdjust="spacing" textLength="8.5757" x="429.4321" y="479.7832">8</text><text fill="#000000" font-family="sans-serif" font-size="13" lengthAdjust="spacing" textLength="183.9424" x="442.0078" y="479.7832">insertBoxFEFO(Box, Location)</text><line style="stroke:#181818;stroke-width:1.0;" x1="1058.8901" x2="1100.8901" y1="513.8359" y2="513.8359"/><line style="stroke:#181818;stroke-width:1.0;" x1="1100.8901" x2="1100.8901" y1="513.8359" y2="526.8359"/><line style="stroke:#181818;stroke-width:1.0;" x1="1059.8901" x2="1100.8901" y1="526.8359" y2="526.8359"/><polygon fill="#181818" points="1069.8901,522.8359,1059.8901,526.8359,1069.8901,530.8359,1065.8901,526.8359" style="stroke:#181818;stroke-width:1.0;"/><text fill="#000000" font-family="sans-serif" font-size="13" font-weight="bold" lengthAdjust="spacing" textLength="8.5757" x="1065.8901" y="509.0938">9</text><text fill="#000000" font-family="sans-serif" font-size="13" lengthAdjust="spacing" textLength="228.8965" x="1078.4658" y="509.0938">Sort box into logical list (FEFO/FIFO)</text><polygon fill="#181818" points="433.4321,552.1465,423.4321,556.1465,433.4321,560.1465,429.4321,556.1465" style="stroke:#181818;stroke-width:1.0;"/><line style="stroke:#181818;stroke-width:1.0;stroke-dasharray:2.0,2.0;" x1="427.4321" x2="1052.8901" y1="556.1465" y2="556.1465"/><text fill="#000000" font-family="sans-serif" font-size="13" font-weight="bold" lengthAdjust="spacing" textLength="17.1514" x="439.4321" y="551.4043">10</text><text fill="#000000" font-family="sans-serif" font-size="13" lengthAdjust="spacing" textLength="67.7676" x="460.5835" y="551.4043">Box stored</text><path d="M353.8281,571.1465 L436.8379,571.1465 L436.8379,578.457 L426.8379,588.457 L353.8281,588.457 L353.8281,571.1465 " fill="#EEEEEE" style="stroke:#000000;stroke-width:1.5;"/><rect fill="none" height="61.5762" style="stroke:#000000;stroke-width:1.5;" width="644.6431" x="353.8281" y="571.1465"/><text fill="#000000" font-family="sans-serif" font-size="13" font-weight="bold" lengthAdjust="spacing" textLength="38.0098" x="368.8281" y="584.7148">break</text><text fill="#000000" font-family="sans-serif" font-size="11" font-weight="bold" lengthAdjust="spacing" textLength="33.0698" x="451.8379" y="583.7813">[loop]</text><line style="stroke:#000000;stroke-width:1.0;stroke-dasharray:2.0,2.0;" x1="353.8281" x2="998.4712" y1="589.457" y2="589.457"/><text fill="#000000" font-family="sans-serif" font-size="11" font-weight="bold" lengthAdjust="spacing" textLength="164.4629" x="358.8281" y="600.0918">[storage failed (full bay/Wh)]</text><polygon fill="#181818" points="433.4321,620.7227,423.4321,624.7227,433.4321,628.7227,429.4321,624.7227" style="stroke:#181818;stroke-width:1.0;"/><line style="stroke:#181818;stroke-width:1.0;stroke-dasharray:2.0,2.0;" x1="427.4321" x2="926.2964" y1="624.7227" y2="624.7227"/><text fill="#000000" font-family="sans-serif" font-size="13" font-weight="bold" lengthAdjust="spacing" textLength="17.1514" x="439.4321" y="619.9805">11</text><text fill="#000000" font-family="sans-serif" font-size="13" lengthAdjust="spacing" textLength="78.0825" x="460.5835" y="619.9805">Capacity full</text><path d="M353.8281,653.7227 L415.9668,653.7227 L415.9668,661.0332 L405.9668,671.0332 L353.8281,671.0332 L353.8281,653.7227 " fill="#EEEEEE" style="stroke:#000000;stroke-width:1.5;"/><rect fill="none" height="59.6211" style="stroke:#000000;stroke-width:1.5;" width="294.0776" x="353.8281" y="653.7227"/><text fill="#000000" font-family="sans-serif" font-size="13" font-weight="bold" lengthAdjust="spacing" textLength="17.1387" x="368.8281" y="667.291">alt</text><text fill="#000000" font-family="sans-serif" font-size="11" font-weight="bold" lengthAdjust="spacing" textLength="108.1846" x="430.9668" y="666.3574">[no location found]</text><line style="stroke:#181818;stroke-width:1.0;" x1="422.4321" x2="464.4321" y1="692.3438" y2="692.3438"/><line style="stroke:#181818;stroke-width:1.0;" x1="464.4321" x2="464.4321" y1="692.3438" y2="705.3438"/><line style="stroke:#181818;stroke-width:1.0;" x1="423.4321" x2="464.4321" y1="705.3438" y2="705.3438"/><polygon fill="#181818" points="433.4321,701.3438,423.4321,705.3438,433.4321,709.3438,429.4321,705.3438" style="stroke:#181818;stroke-width:1.0;"/><text fill="#000000" font-family="sans-serif" font-size="13" font-weight="bold" lengthAdjust="spacing" textLength="17.1514" x="429.4321" y="687.6016">12</text><text fill="#000000" font-family="sans-serif" font-size="13" lengthAdjust="spacing" textLength="175.3223" x="450.5835" y="687.6016">Log box skipped (No space)</text><line style="stroke:#181818;stroke-width:1.0;" x1="422.4321" x2="464.4321" y1="748.6543" y2="748.6543"/><line style="stroke:#181818;stroke-width:1.0;" x1="464.4321" x2="464.4321" y1="748.6543" y2="761.6543"/><line style="stroke:#181818;stroke-width:1.0;" x1="423.4321" x2="464.4321" y1="761.6543" y2="761.6543"/><polygon fill="#181818" points="433.4321,757.6543,423.4321,761.6543,433.4321,765.6543,429.4321,761.6543" style="stroke:#181818;stroke-width:1.0;"/><text fill="#000000" font-family="sans-serif" font-size="13" font-weight="bold" lengthAdjust="spacing" textLength="17.1514" x="429.4321" y="743.9121">13</text><text fill="#000000" font-family="sans-serif" font-size="13" lengthAdjust="spacing" textLength="313.4219" x="450.5835" y="743.9121">Update wagon status (Fully/Partial/Not Unloaded)</text><line style="stroke:#181818;stroke-width:1.0;" x1="422.4321" x2="464.4321" y1="790.9648" y2="790.9648"/><line style="stroke:#181818;stroke-width:1.0;" x1="464.4321" x2="464.4321" y1="790.9648" y2="803.9648"/><line style="stroke:#181818;stroke-width:1.0;" x1="423.4321" x2="464.4321" y1="803.9648" y2="803.9648"/><polygon fill="#181818" points="433.4321,799.9648,423.4321,803.9648,433.4321,807.9648,429.4321,803.9648" style="stroke:#181818;stroke-width:1.0;"/><text fill="#000000" font-family="sans-serif" font-size="13" font-weight="bold" lengthAdjust="spacing" textLength="17.1514" x="429.4321" y="786.2227">14</text><text fill="#000000" font-family="sans-serif" font-size="13" lengthAdjust="spacing" textLength="143.2412" x="450.5835" y="786.2227">Log wagon completion</text><polygon fill="#181818" points="96.4531,836.2754,86.4531,840.2754,96.4531,844.2754,92.4531,840.2754" style="stroke:#181818;stroke-width:1.0;"/><line style="stroke:#181818;stroke-width:1.0;" x1="90.4531" x2="416.4321" y1="840.2754" y2="840.2754"/><text fill="#000000" font-family="sans-serif" font-size="13" font-weight="bold" lengthAdjust="spacing" textLength="17.1514" x="102.4531" y="835.5332">15</text><text fill="#000000" font-family="sans-serif" font-size="13" lengthAdjust="spacing" textLength="276.8276" x="123.6045" y="835.5332">Display UnloadResult Summary (Stats, Logs)</text><!--SRC=[bLHDJzj04BtxLumusH8exHKfbQ0bBHAGYe3IwyIUE2isk-xkckBVqqDF_HNyiSxOZZy8eQsbnFPwzirxRsO7os1DkLsHYo9CWtLmT4Tkgmngc1Vaa9UE07tt4XNeWafLWIR0qQBoWROGBwyNIHtMB8o3BiqZ6TvQmJKQpAa1R9_7eKjqjB6b9uRSD8ZTqY7Gc1-Rq6ujYgPJVdl-dIeB6JRadtyz_xGGtoykBj-zJs0whHMhHmpKgzizmCc7LWkSmYrzBya721PAeorcy0DpQtoyb1jSAH-I0LZhGRkTWLgfZ7Gbcz5ay8XQPHACMZF3W10hZlR7iCAA_vi4IG-wisk7TJ8a-4a0X1Xb43DvSiuwpojvJbaIPRG74sbh2vX9BAORM9vzdj-0Cg1PImHyzUoxB5SsRtY13rmAA9nDoNjbydh76F5y_atmwlZwym7GEwuW-xfMR8gsAGR5-B6tBh2MvQOcb7G0BrX_aHI5evGoCYc1THbhWy7LP-nRwvJvMqVdzYdcNpAAxupgssxqMGVmPIgorwMkSTZEKOXSVQwJiO6jFcJNSYF5EbDUq-GSgsGFP52rrycCzVK7ufHTyUG2YvjTpEOYyhZBlP-doz8VdvSXFVQBH0kk4wpi4sVa8dA_gPG7XzGCOiazcLtEvibRU4D_c6XJckmjCmxJN3d2Xxf7Hfz8So7QKi4QbHRZkNnQpjg4vyo_rkyZ5fYgK85i_lzwaUbr3P-bgOpjktzjIvCTwEBHOHJZ_OCg2X5qOy4pFKhsSkpkhw3S5_KGwavrA3qNZjLLawyoRL5FRco0UzCCb-Jleo6rsqAJw8Waxs0ATgELvvNoXSQgnRqbNx85YtAxHPdd2-RXfMDp7e33uTKEri5ADxV_0000]--></g></svg>