<?xml version="1.0" encoding="us-ascii" standalone="no"?><svg xmlns="http://www.w3.org/2000/svg" xmlns:xlink="http://www.w3.org/1999/xlink" contentStyleType="text/css" height="653px" preserveAspectRatio="none" style="width:1569px;height:653px;background:#FFFFFF;" version="1.1" viewBox="0 0 1569 653" width="1569px" zoomAndPan="magnify"><defs/><g><text fill="#000000" font-family="sans-serif" font-size="14" font-weight="bold" lengthAdjust="spacing" textLength="306" x="630.75" y="30.1074">USEI08 - Search by Geographical Area (SSD)</text><rect fill="#FFFFFF" height="396.2012" style="stroke:#181818;stroke-width:1.0;" width="10" x="393.5" y="156.5332"/><rect fill="#FFFFFF" height="333.6191" style="stroke:#181818;stroke-width:1.0;" width="10" x="398.5" y="219.1152"/><rect fill="#FFFFFF" height="226.7461" style="stroke:#181818;stroke-width:1.0;" width="10" x="821.5" y="250.4063"/><rect fill="#FFFFFF" height="119.873" style="stroke:#181818;stroke-width:1.0;" width="10" x="1154.5" y="325.9883"/><line style="stroke:#181818;stroke-width:0.5;stroke-dasharray:5.0,5.0;" x1="22" x2="22" y1="123.2422" y2="570.7344"/><line style="stroke:#181818;stroke-width:0.5;stroke-dasharray:5.0,5.0;" x1="398.5" x2="398.5" y1="123.2422" y2="570.7344"/><line style="stroke:#181818;stroke-width:0.5;stroke-dasharray:5.0,5.0;" x1="826.5" x2="826.5" y1="123.2422" y2="570.7344"/><line style="stroke:#181818;stroke-width:0.5;stroke-dasharray:5.0,5.0;" x1="1159" x2="1159" y1="123.2422" y2="570.7344"/><line style="stroke:#181818;stroke-width:0.5;stroke-dasharray:5.0,5.0;" x1="1503.5" x2="1503.5" y1="123.2422" y2="570.7344"/><text fill="#000000" font-family="sans-serif" font-size="14" lengthAdjust="spacing" textLength="29" x="5" y="119.7285">User</text><ellipse cx="22.5" cy="53.1211" fill="#E3E3E3" rx="8" ry="8" style="stroke:#181818;stroke-width:0.5;"/><path d="M22.5,61.1211 L22.5,88.1211 M9.5,69.1211 L35.5,69.1211 M22.5,88.1211 L9.5,103.1211 M22.5,88.1211 L35.5,103.1211 " fill="none" style="stroke:#181818;stroke-width:0.5;"/><text fill="#000000" font-family="sans-serif" font-size="14" lengthAdjust="spacing" textLength="29" x="5" y="584.8418">User</text><ellipse cx="22.5" cy="596.8555" fill="#E3E3E3" rx="8" ry="8" style="stroke:#181818;stroke-width:0.5;"/><path d="M22.5,604.8555 L22.5,631.8555 M9.5,612.8555 L35.5,612.8555 M22.5,631.8555 L9.5,646.8555 M22.5,631.8555 L35.5,646.8555 " fill="none" style="stroke:#181818;stroke-width:0.5;"/><rect fill="#E3E3E3" height="32.6211" rx="2.5" ry="2.5" style="stroke:#181818;stroke-width:0.5;" width="120" x="338.5" y="89.6211"/><text fill="#000000" font-family="sans-serif" font-size="14" lengthAdjust="spacing" textLength="106" x="345.5" y="111.7285">CargoHandlingUI</text><rect fill="#E3E3E3" height="32.6211" rx="2.5" ry="2.5" style="stroke:#181818;stroke-width:0.5;" width="120" x="338.5" y="569.7344"/><text fill="#000000" font-family="sans-serif" font-size="14" lengthAdjust="spacing" textLength="106" x="345.5" y="591.8418">CargoHandlingUI</text><rect fill="#E3E3E3" height="32.6211" rx="2.5" ry="2.5" style="stroke:#181818;stroke-width:0.5;" width="102" x="775.5" y="89.6211"/><text fill="#000000" font-family="sans-serif" font-size="14" lengthAdjust="spacing" textLength="88" x="782.5" y="111.7285">SpatialSearch</text><rect fill="#E3E3E3" height="32.6211" rx="2.5" ry="2.5" style="stroke:#181818;stroke-width:0.5;" width="102" x="775.5" y="569.7344"/><text fill="#000000" font-family="sans-serif" font-size="14" lengthAdjust="spacing" textLength="88" x="782.5" y="591.8418">SpatialSearch</text><rect fill="#E3E3E3" height="32.6211" rx="2.5" ry="2.5" style="stroke:#181818;stroke-width:0.5;" width="63" x="1128" y="89.6211"/><text fill="#000000" font-family="sans-serif" font-size="14" lengthAdjust="spacing" textLength="49" x="1135" y="111.7285">KDTree</text><rect fill="#E3E3E3" height="32.6211" rx="2.5" ry="2.5" style="stroke:#181818;stroke-width:0.5;" width="63" x="1128" y="569.7344"/><text fill="#000000" font-family="sans-serif" font-size="14" lengthAdjust="spacing" textLength="49" x="1135" y="591.8418">KDTree</text><rect fill="#E3E3E3" height="32.6211" rx="2.5" ry="2.5" style="stroke:#181818;stroke-width:0.5;" width="120" x="1443.5" y="89.6211"/><text fill="#000000" font-family="sans-serif" font-size="14" lengthAdjust="spacing" textLength="106" x="1450.5" y="111.7285">EuropeanStation</text><rect fill="#E3E3E3" height="32.6211" rx="2.5" ry="2.5" style="stroke:#181818;stroke-width:0.5;" width="120" x="1443.5" y="569.7344"/><text fill="#000000" font-family="sans-serif" font-size="14" lengthAdjust="spacing" textLength="106" x="1450.5" y="591.8418">EuropeanStation</text><rect fill="#FFFFFF" height="396.2012" style="stroke:#181818;stroke-width:1.0;" width="10" x="393.5" y="156.5332"/><rect fill="#FFFFFF" height="333.6191" style="stroke:#181818;stroke-width:1.0;" width="10" x="398.5" y="219.1152"/><rect fill="#FFFFFF" height="226.7461" style="stroke:#181818;stroke-width:1.0;" width="10" x="821.5" y="250.4063"/><rect fill="#FFFFFF" height="119.873" style="stroke:#181818;stroke-width:1.0;" width="10" x="1154.5" y="325.9883"/><polygon fill="#181818" points="381.5,152.5332,391.5,156.5332,381.5,160.5332,385.5,156.5332" style="stroke:#181818;stroke-width:1.0;"/><line style="stroke:#181818;stroke-width:1.0;" x1="22.5" x2="387.5" y1="156.5332" y2="156.5332"/><text fill="#000000" font-family="sans-serif" font-size="13" font-weight="bold" lengthAdjust="spacing" textLength="7" x="29.5" y="151.2705">1</text><text fill="#000000" font-family="sans-serif" font-size="13" lengthAdjust="spacing" textLength="156" x="40.5" y="151.2705">selectSpatialSearchMenu()</text><polygon fill="#181818" points="33.5,183.8242,23.5,187.8242,33.5,191.8242,29.5,187.8242" style="stroke:#181818;stroke-width:1.0;"/><line style="stroke:#181818;stroke-width:1.0;stroke-dasharray:2.0,2.0;" x1="27.5" x2="392.5" y1="187.8242" y2="187.8242"/><text fill="#000000" font-family="sans-serif" font-size="13" font-weight="bold" lengthAdjust="spacing" textLength="7" x="39.5" y="182.5615">2</text><text fill="#000000" font-family="sans-serif" font-size="13" lengthAdjust="spacing" textLength="162" x="50.5" y="182.5615">displaySpatialSearchMenu()</text><polygon fill="#181818" points="386.5,215.1152,396.5,219.1152,386.5,223.1152,390.5,219.1152" style="stroke:#181818;stroke-width:1.0;"/><line style="stroke:#181818;stroke-width:1.0;" x1="22.5" x2="392.5" y1="219.1152" y2="219.1152"/><text fill="#000000" font-family="sans-serif" font-size="13" font-weight="bold" lengthAdjust="spacing" textLength="7" x="29.5" y="213.8525">3</text><text fill="#000000" font-family="sans-serif" font-size="13" lengthAdjust="spacing" textLength="336" x="40.5" y="213.8525">enterSearchCriteria(latMin, latMax, lonMin, lonMax, filters)</text><polygon fill="#181818" points="809.5,246.4063,819.5,250.4063,809.5,254.4063,813.5,250.4063" style="stroke:#181818;stroke-width:1.0;"/><line style="stroke:#181818;stroke-width:1.0;" x1="408.5" x2="815.5" y1="250.4063" y2="250.4063"/><text fill="#000000" font-family="sans-serif" font-size="13" font-weight="bold" lengthAdjust="spacing" textLength="7" x="415.5" y="245.1436">4</text><text fill="#000000" font-family="sans-serif" font-size="13" lengthAdjust="spacing" textLength="383" x="426.5" y="245.1436">searchByGeographicalArea(latMin, latMax, lonMin, lonMax, filters)</text><line style="stroke:#181818;stroke-width:1.0;" x1="831.5" x2="873.5" y1="281.6973" y2="281.6973"/><line style="stroke:#181818;stroke-width:1.0;" x1="873.5" x2="873.5" y1="281.6973" y2="294.6973"/><line style="stroke:#181818;stroke-width:1.0;" x1="832.5" x2="873.5" y1="294.6973" y2="294.6973"/><polygon fill="#181818" points="842.5,290.6973,832.5,294.6973,842.5,298.6973,838.5,294.6973" style="stroke:#181818;stroke-width:1.0;"/><text fill="#000000" font-family="sans-serif" font-size="13" font-weight="bold" lengthAdjust="spacing" textLength="7" x="838.5" y="276.4346">5</text><text fill="#000000" font-family="sans-serif" font-size="13" lengthAdjust="spacing" textLength="298" x="849.5" y="276.4346">validateCoordinates(latMin, latMax, lonMin, lonMax)</text><polygon fill="#181818" points="1142.5,321.9883,1152.5,325.9883,1142.5,329.9883,1146.5,325.9883" style="stroke:#181818;stroke-width:1.0;"/><line style="stroke:#181818;stroke-width:1.0;" x1="831.5" x2="1148.5" y1="325.9883" y2="325.9883"/><text fill="#000000" font-family="sans-serif" font-size="13" font-weight="bold" lengthAdjust="spacing" textLength="7" x="838.5" y="320.7256">6</text><text fill="#000000" font-family="sans-serif" font-size="13" lengthAdjust="spacing" textLength="272" x="849.5" y="320.7256">searchInRange(latMin, latMax, lonMin, lonMax)</text><line style="stroke:#181818;stroke-width:1.0;" x1="1164.5" x2="1206.5" y1="357.2793" y2="357.2793"/><line style="stroke:#181818;stroke-width:1.0;" x1="1206.5" x2="1206.5" y1="357.2793" y2="370.2793"/><line style="stroke:#181818;stroke-width:1.0;" x1="1165.5" x2="1206.5" y1="370.2793" y2="370.2793"/><polygon fill="#181818" points="1175.5,366.2793,1165.5,370.2793,1175.5,374.2793,1171.5,370.2793" style="stroke:#181818;stroke-width:1.0;"/><text fill="#000000" font-family="sans-serif" font-size="13" font-weight="bold" lengthAdjust="spacing" textLength="7" x="1171.5" y="352.0166">7</text><text fill="#000000" font-family="sans-serif" font-size="13" lengthAdjust="spacing" textLength="309" x="1182.5" y="352.0166">searchInRangeRecursive(root, bounds, depth, results)</text><line style="stroke:#181818;stroke-width:1.0;stroke-dasharray:2.0,2.0;" x1="1164.5" x2="1206.5" y1="401.5703" y2="401.5703"/><line style="stroke:#181818;stroke-width:1.0;stroke-dasharray:2.0,2.0;" x1="1206.5" x2="1206.5" y1="401.5703" y2="414.5703"/><line style="stroke:#181818;stroke-width:1.0;stroke-dasharray:2.0,2.0;" x1="1165.5" x2="1206.5" y1="414.5703" y2="414.5703"/><polygon fill="#181818" points="1175.5,410.5703,1165.5,414.5703,1175.5,418.5703,1171.5,414.5703" style="stroke:#181818;stroke-width:1.0;"/><text fill="#000000" font-family="sans-serif" font-size="13" font-weight="bold" lengthAdjust="spacing" textLength="7" x="1171.5" y="396.3076">8</text><text fill="#000000" font-family="sans-serif" font-size="13" lengthAdjust="spacing" textLength="160" x="1182.5" y="396.3076">applyFilters(stations, filters)</text><polygon fill="#181818" points="842.5,441.8613,832.5,445.8613,842.5,449.8613,838.5,445.8613" style="stroke:#181818;stroke-width:1.0;"/><line style="stroke:#181818;stroke-width:1.0;stroke-dasharray:2.0,2.0;" x1="836.5" x2="1158.5" y1="445.8613" y2="445.8613"/><text fill="#000000" font-family="sans-serif" font-size="13" font-weight="bold" lengthAdjust="spacing" textLength="7" x="848.5" y="440.5986">9</text><text fill="#000000" font-family="sans-serif" font-size="13" lengthAdjust="spacing" textLength="133" x="859.5" y="440.5986">List&lt;EuropeanStation&gt;</text><polygon fill="#181818" points="419.5,473.1523,409.5,477.1523,419.5,481.1523,415.5,477.1523" style="stroke:#181818;stroke-width:1.0;"/><line style="stroke:#181818;stroke-width:1.0;stroke-dasharray:2.0,2.0;" x1="413.5" x2="825.5" y1="477.1523" y2="477.1523"/><text fill="#000000" font-family="sans-serif" font-size="13" font-weight="bold" lengthAdjust="spacing" textLength="14" x="425.5" y="471.8896">10</text><text fill="#000000" font-family="sans-serif" font-size="13" lengthAdjust="spacing" textLength="133" x="443.5" y="471.8896">List&lt;EuropeanStation&gt;</text><line style="stroke:#181818;stroke-width:1.0;" x1="408.5" x2="450.5" y1="508.4434" y2="508.4434"/><line style="stroke:#181818;stroke-width:1.0;" x1="450.5" x2="450.5" y1="508.4434" y2="521.4434"/><line style="stroke:#181818;stroke-width:1.0;" x1="409.5" x2="450.5" y1="521.4434" y2="521.4434"/><polygon fill="#181818" points="419.5,517.4434,409.5,521.4434,419.5,525.4434,415.5,521.4434" style="stroke:#181818;stroke-width:1.0;"/><text fill="#000000" font-family="sans-serif" font-size="13" font-weight="bold" lengthAdjust="spacing" textLength="14" x="415.5" y="503.1807">11</text><text fill="#000000" font-family="sans-serif" font-size="13" lengthAdjust="spacing" textLength="134" x="433.5" y="503.1807">formatResults(stations)</text><polygon fill="#181818" points="33.5,548.7344,23.5,552.7344,33.5,556.7344,29.5,552.7344" style="stroke:#181818;stroke-width:1.0;"/><line style="stroke:#181818;stroke-width:1.0;stroke-dasharray:2.0,2.0;" x1="27.5" x2="397.5" y1="552.7344" y2="552.7344"/><text fill="#000000" font-family="sans-serif" font-size="13" font-weight="bold" lengthAdjust="spacing" textLength="14" x="39.5" y="547.4717">12</text><text fill="#000000" font-family="sans-serif" font-size="13" lengthAdjust="spacing" textLength="302" x="57.5" y="547.4717">displaySearchResults(stations, performanceMetrics)</text><!--SRC=[bLDDZvim4BtpAqPx0eb8FLQhAbARtRQepIMK7p212LXhR6jiqlBlQyTa1JJPQdsPCNxpvklXX9C4LVbSVFW86oW9kUxWEC8tqYsZwKID4Zup8QHb-PGbYNqHoY1Z3xrMkkvOzmIE1vgz6AnViANIZPwSgNQeMZa7s0uR_Lke5aueBIK93awheJyIUxzscg6otlTe9sfXK3bus26t-ZkgHlh0gdW0j50LIqnfq0cKiOyB8hfBr8-dNqnqUOxkylbvO6q8LUaycLQH9lf94kg2pTPdVWHBqZUtoBadDQHPw46SqL4e4Fof2jY481_y28smHk9uAovWOy0i3Ib7764x5juNc4fqUw5o21R_UAjLl7iRxYSXFT16ndKrrugsqtH29y5-6UTh3rj_Nvv5hcdmC3kJl6PvpoX5uz4xhRaHodlsFocpEunnaTTE2dNmcgDtSRrMFca2LYT-lflhGFN0LfmfPQrT3aSzgCRcq91nNUv_0pj8PxExj3DUD4QEN-DaKnkLPs_C-WR5TR0_XNMVLaBUBW8RUglXws0d2RvDDwDQRNqbjq1rqjoZEyHnl7QNBP3__2eNrdLC3eRuGgTgsfDZKKyyiuAyv9Utlm00]--></g></svg>