<svg xmlns="http://www.w3.org/2000/svg" xmlns:xlink="http://www.w3.org/1999/xlink" contentStyleType="text/css" data-diagram-type="SEQUENCE" height="475px" preserveAspectRatio="none" style="width:524px;height:475px;background:#FFFFFF;" version="1.1" viewBox="0 0 524 475" width="524px" zoomAndPan="magnify"><defs/><g><g><title>Warehouse Planner</title><rect fill="#FFFFFF" height="294.1055" style="stroke:#181818;stroke-width:1;" width="10" x="67.5005" y="91.4883"/></g><g><title>.System</title><rect fill="#FFFFFF" height="29.3105" style="stroke:#181818;stroke-width:1;" width="10" x="480.7041" y="112.7988"/></g><g><title>.System</title><rect fill="#FFFFFF" height="29.3105" style="stroke:#181818;stroke-width:1;" width="10" x="480.7041" y="171.4199"/></g><g><title>.System</title><rect fill="#FFFFFF" height="29.3105" style="stroke:#181818;stroke-width:1;" width="10" x="480.7041" y="230.041"/></g><g><title>.System</title><rect fill="#FFFFFF" height="29.3105" style="stroke:#181818;stroke-width:1;" width="10" x="480.7041" y="288.6621"/></g><g><title>.System</title><rect fill="#FFFFFF" height="29.3105" style="stroke:#181818;stroke-width:1;" width="10" x="480.7041" y="347.2832"/></g><g><title>Warehouse Planner</title><rect fill="#000000" fill-opacity="0.00000" height="313.1055" width="8" x="68.5005" y="81.4883"/><line style="stroke:#181818;stroke-width:0.5;stroke-dasharray:5,5;" x1="72" x2="72" y1="81.4883" y2="394.5938"/></g><g><title>.System</title><rect fill="#000000" fill-opacity="0.00000" height="313.1055" width="8" x="481.7041" y="81.4883"/><line style="stroke:#181818;stroke-width:0.5;stroke-dasharray:5,5;" x1="485.4404" x2="485.4404" y1="81.4883" y2="394.5938"/></g><g class="participant participant-head"><text fill="#000000" font-family="sans-serif" font-size="14" lengthAdjust="spacing" textLength="129.001" x="5" y="78.5352">Warehouse Planner</text><ellipse cx="72.5005" cy="13.5" fill="#E3E3E3" rx="8" ry="8" style="stroke:#181818;stroke-width:0.5;"/><path d="M72.5005,21.5 L72.5005,48.5 M59.5005,29.5 L85.5005,29.5 M72.5005,48.5 L59.5005,63.5 M72.5005,48.5 L85.5005,63.5" fill="none" style="stroke:#181818;stroke-width:0.5;"/></g><g class="participant participant-tail" data-participant="Planner"><text fill="#000000" font-family="sans-serif" font-size="14" lengthAdjust="spacing" textLength="129.001" x="5" y="407.1289">Warehouse Planner</text><ellipse cx="72.5005" cy="418.582" fill="#E3E3E3" rx="8" ry="8" style="stroke:#181818;stroke-width:0.5;"/><path d="M72.5005,426.582 L72.5005,453.582 M59.5005,434.582 L85.5005,434.582 M72.5005,453.582 L59.5005,468.582 M72.5005,453.582 L85.5005,468.582" fill="none" style="stroke:#181818;stroke-width:0.5;"/></g><g class="participant participant-head" data-participant="System"><rect fill="#E3E3E3" height="30.4883" rx="2.5" ry="2.5" style="stroke:#181818;stroke-width:0.5;" width="66.5273" x="452.4404" y="50"/><text fill="#000000" font-family="sans-serif" font-size="14" lengthAdjust="spacing" textLength="52.5273" x="459.4404" y="70.5352">:System</text></g><g class="participant participant-tail" data-participant="System"><rect fill="#E3E3E3" height="30.4883" rx="2.5" ry="2.5" style="stroke:#181818;stroke-width:0.5;" width="66.5273" x="452.4404" y="393.5938"/><text fill="#000000" font-family="sans-serif" font-size="14" lengthAdjust="spacing" textLength="52.5273" x="459.4404" y="414.1289">:System</text></g><g><title>Warehouse Planner</title><rect fill="#FFFFFF" height="294.1055" style="stroke:#181818;stroke-width:1;" width="10" x="67.5005" y="91.4883"/></g><g><title>.System</title><rect fill="#FFFFFF" height="29.3105" style="stroke:#181818;stroke-width:1;" width="10" x="480.7041" y="112.7988"/></g><g><title>.System</title><rect fill="#FFFFFF" height="29.3105" style="stroke:#181818;stroke-width:1;" width="10" x="480.7041" y="171.4199"/></g><g><title>.System</title><rect fill="#FFFFFF" height="29.3105" style="stroke:#181818;stroke-width:1;" width="10" x="480.7041" y="230.041"/></g><g><title>.System</title><rect fill="#FFFFFF" height="29.3105" style="stroke:#181818;stroke-width:1;" width="10" x="480.7041" y="288.6621"/></g><g><title>.System</title><rect fill="#FFFFFF" height="29.3105" style="stroke:#181818;stroke-width:1;" width="10" x="480.7041" y="347.2832"/></g><g class="message" data-participant-1="Planner" data-participant-2="System"><polygon fill="#181818" points="468.7041,108.7988,478.7041,112.7988,468.7041,116.7988,472.7041,112.7988" style="stroke:#181818;stroke-width:1;"/><line style="stroke:#181818;stroke-width:1;" x1="77.5005" x2="474.7041" y1="112.7988" y2="112.7988"/><text fill="#000000" font-family="sans-serif" font-size="13" font-weight="bold" lengthAdjust="spacing" textLength="8.5757" x="84.5005" y="108.0566">1</text><text fill="#000000" font-family="sans-serif" font-size="13" lengthAdjust="spacing" textLength="141.667" x="97.0762" y="108.0566">generatePickingPlans()</text></g><g class="message" data-participant-1="System" data-participant-2="Planner"><polygon fill="#181818" points="88.5005,138.1094,78.5005,142.1094,88.5005,146.1094,84.5005,142.1094" style="stroke:#181818;stroke-width:1;"/><line style="stroke:#181818;stroke-width:1;stroke-dasharray:2,2;" x1="82.5005" x2="484.7041" y1="142.1094" y2="142.1094"/><text fill="#000000" font-family="sans-serif" font-size="13" font-weight="bold" lengthAdjust="spacing" textLength="8.5757" x="94.5005" y="137.3672">2</text><text fill="#000000" font-family="sans-serif" font-size="13" lengthAdjust="spacing" textLength="149.0112" x="107.0762" y="137.3672">displayParameterForm()</text></g><g class="message" data-participant-1="Planner" data-participant-2="System"><polygon fill="#181818" points="468.7041,167.4199,478.7041,171.4199,468.7041,175.4199,472.7041,171.4199" style="stroke:#181818;stroke-width:1;"/><line style="stroke:#181818;stroke-width:1;" x1="77.5005" x2="474.7041" y1="171.4199" y2="171.4199"/><text fill="#000000" font-family="sans-serif" font-size="13" font-weight="bold" lengthAdjust="spacing" textLength="8.5757" x="84.5005" y="166.6777">3</text><text fill="#000000" font-family="sans-serif" font-size="13" lengthAdjust="spacing" textLength="170.936" x="97.0762" y="166.6777">submitPackingParameters()</text></g><g class="message" data-participant-1="System" data-participant-2="Planner"><polygon fill="#181818" points="88.5005,196.7305,78.5005,200.7305,88.5005,204.7305,84.5005,200.7305" style="stroke:#181818;stroke-width:1;"/><line style="stroke:#181818;stroke-width:1;stroke-dasharray:2,2;" x1="82.5005" x2="484.7041" y1="200.7305" y2="200.7305"/><text fill="#000000" font-family="sans-serif" font-size="13" font-weight="bold" lengthAdjust="spacing" textLength="8.5757" x="94.5005" y="195.9883">4</text><text fill="#000000" font-family="sans-serif" font-size="13" lengthAdjust="spacing" textLength="169.6602" x="107.0762" y="195.9883">displayPickingPlanResults()</text></g><g class="message" data-participant-1="Planner" data-participant-2="System"><polygon fill="#181818" points="468.7041,226.041,478.7041,230.041,468.7041,234.041,472.7041,230.041" style="stroke:#181818;stroke-width:1;"/><line style="stroke:#181818;stroke-width:1;" x1="77.5005" x2="474.7041" y1="230.041" y2="230.041"/><text fill="#000000" font-family="sans-serif" font-size="13" font-weight="bold" lengthAdjust="spacing" textLength="8.5757" x="84.5005" y="225.2988">5</text><text fill="#000000" font-family="sans-serif" font-size="13" lengthAdjust="spacing" textLength="142.2383" x="97.0762" y="225.2988">requestTrolleyDetails()</text></g><g class="message" data-participant-1="System" data-participant-2="Planner"><polygon fill="#181818" points="88.5005,255.3516,78.5005,259.3516,88.5005,263.3516,84.5005,259.3516" style="stroke:#181818;stroke-width:1;"/><line style="stroke:#181818;stroke-width:1;stroke-dasharray:2,2;" x1="82.5005" x2="484.7041" y1="259.3516" y2="259.3516"/><text fill="#000000" font-family="sans-serif" font-size="13" font-weight="bold" lengthAdjust="spacing" textLength="8.5757" x="94.5005" y="254.6094">6</text><text fill="#000000" font-family="sans-serif" font-size="13" lengthAdjust="spacing" textLength="127.3911" x="107.0762" y="254.6094">showTrolleyDetails()</text></g><g class="message" data-participant-1="Planner" data-participant-2="System"><polygon fill="#181818" points="468.7041,284.6621,478.7041,288.6621,468.7041,292.6621,472.7041,288.6621" style="stroke:#181818;stroke-width:1;"/><line style="stroke:#181818;stroke-width:1;" x1="77.5005" x2="474.7041" y1="288.6621" y2="288.6621"/><text fill="#000000" font-family="sans-serif" font-size="13" font-weight="bold" lengthAdjust="spacing" textLength="8.5757" x="84.5005" y="283.9199">7</text><text fill="#000000" font-family="sans-serif" font-size="13" lengthAdjust="spacing" textLength="160.9067" x="97.0762" y="283.9199">exportPlan(format: "CSV")</text></g><g class="message" data-participant-1="System" data-participant-2="Planner"><polygon fill="#181818" points="88.5005,313.9727,78.5005,317.9727,88.5005,321.9727,84.5005,317.9727" style="stroke:#181818;stroke-width:1;"/><line style="stroke:#181818;stroke-width:1;stroke-dasharray:2,2;" x1="82.5005" x2="484.7041" y1="317.9727" y2="317.9727"/><text fill="#000000" font-family="sans-serif" font-size="13" font-weight="bold" lengthAdjust="spacing" textLength="8.5757" x="94.5005" y="313.2305">8</text><text fill="#000000" font-family="sans-serif" font-size="13" lengthAdjust="spacing" textLength="69.0625" x="107.0762" y="313.2305">returnFile()</text></g><g class="message" data-participant-1="Planner" data-participant-2="System"><polygon fill="#181818" points="468.7041,343.2832,478.7041,347.2832,468.7041,351.2832,472.7041,347.2832" style="stroke:#181818;stroke-width:1;"/><line style="stroke:#181818;stroke-width:1;" x1="77.5005" x2="474.7041" y1="347.2832" y2="347.2832"/><text fill="#000000" font-family="sans-serif" font-size="13" font-weight="bold" lengthAdjust="spacing" textLength="8.5757" x="84.5005" y="342.541">9</text><text fill="#000000" font-family="sans-serif" font-size="13" lengthAdjust="spacing" textLength="145.0122" x="97.0762" y="342.541">confirmPlanExecution()</text></g><g class="message" data-participant-1="System" data-participant-2="Planner"><polygon fill="#181818" points="88.5005,372.5938,78.5005,376.5938,88.5005,380.5938,84.5005,376.5938" style="stroke:#181818;stroke-width:1;"/><line style="stroke:#181818;stroke-width:1;stroke-dasharray:2,2;" x1="82.5005" x2="484.7041" y1="376.5938" y2="376.5938"/><text fill="#000000" font-family="sans-serif" font-size="13" font-weight="bold" lengthAdjust="spacing" textLength="17.1514" x="94.5005" y="371.8516">10</text><text fill="#000000" font-family="sans-serif" font-size="13" lengthAdjust="spacing" textLength="358.0522" x="115.6519" y="371.8516">showSuccess("Plano de picking executado com sucesso")</text></g><!--SRC=[fPF1JiCm38RlUGghft7O2_J01TYveWZENkQrqTAas0vRtvvqxGP2J68ZfoJ- - -LpgiZEXHuPE-XYYBRbs14e9p9ohlHeTzXGhOCdOBAAeV7V0zBY9kvTQ62BNiWOJ1f3wjR49Y-iHeRY3PdQc8IWyXW2SG4efxd987NMzHWKYh8UHAax1gRfaU8-KCzV6mDvp0jOti_14XhA6pbOEPi5cp4XYxjZ-ioOeJ2FQGdBJ9c19MoSz1w7QcoGb7WLkPin6_e9kkGYQTqvhN0oEQ7-e_FLr3D9yYfNEp6z9n9zuUWz3O-awFmjHjB6_Q-GlwlGeO-iOs6npTUBMaBnKByMryimQUAmSfwkbh0nR1rtO-NfG3QfY-76wwYJjIIoACRTc1sWd_vNxdGavrUIZyll9OsnM5nKDPy0]--></g></svg>