<svg xmlns="http://www.w3.org/2000/svg" xmlns:xlink="http://www.w3.org/1999/xlink" contentStyleType="text/css" height="593px" preserveAspectRatio="none" style="width:1411px;height:593px;background:#FFFFFF;" version="1.1" viewBox="0 0 1411 593" width="1411px" zoomAndPan="magnify"><defs/><g><!--class DispatcherService--><g id="elem_DispatcherService"><rect codeLine="9" fill="#F1F1F1" height="34.4883" id="DispatcherService" rx="2.5" ry="2.5" style="stroke:#181818;stroke-width:0.5;" width="126.1689" x="700.68" y="118.49"/><text fill="#000000" font-family="sans-serif" font-size="14" lengthAdjust="spacing" textLength="120.1689" x="703.68" y="137.0252">DispatcherService</text><line style="stroke:#181818;stroke-width:0.5;" x1="701.68" x2="825.8489" y1="144.9783" y2="144.9783"/></g><!--class SchedulerService--><g id="elem_SchedulerService"><rect codeLine="13" fill="#F1F1F1" height="34.4883" id="SchedulerService" rx="2.5" ry="2.5" style="stroke:#181818;stroke-width:0.5;" width="119.6064" x="628.96" y="229.98"/><text fill="#000000" font-family="sans-serif" font-size="14" lengthAdjust="spacing" textLength="113.6064" x="631.96" y="248.5152">SchedulerService</text><line style="stroke:#181818;stroke-width:0.5;" x1="629.96" x2="747.5664" y1="256.4683" y2="256.4683"/></g><!--class TrainTrip--><g id="elem_TrainTrip"><rect codeLine="20" fill="#F1F1F1" height="67.4648" id="TrainTrip" rx="2.5" ry="2.5" style="stroke:#181818;stroke-width:0.5;" width="235.002" x="571.27" y="341.46"/><text fill="#000000" font-family="sans-serif" font-size="14" lengthAdjust="spacing" textLength="62.4873" x="657.5273" y="359.9952">TrainTrip</text><line style="stroke:#181818;stroke-width:0.5;" x1="572.27" x2="805.272" y1="367.9483" y2="367.9483"/><rect fill="none" height="6" style="stroke:#C82930;stroke-width:1.0;" width="6" x="579.27" y="378.6924"/><text fill="#000000" font-family="sans-serif" font-size="14" lengthAdjust="spacing" textLength="85.4971" x="591.27" y="385.4834">tripId: String</text><rect fill="none" height="6" style="stroke:#C82930;stroke-width:1.0;" width="6" x="579.27" y="395.1807"/><text fill="#000000" font-family="sans-serif" font-size="14" lengthAdjust="spacing" textLength="209.002" x="591.27" y="401.9717">departureTime: LocalDateTime</text></g><!--class LineSegment--><g id="elem_LineSegment"><rect codeLine="31" fill="#F1F1F1" height="100.4414" id="LineSegment" rx="2.5" ry="2.5" style="stroke:#181818;stroke-width:0.5;" width="355.5332" x="7" y="485.93"/><text fill="#000000" font-family="sans-serif" font-size="14" lengthAdjust="spacing" textLength="86.8643" x="141.3345" y="504.4652">LineSegment</text><line style="stroke:#181818;stroke-width:0.5;" x1="8" x2="361.5332" y1="512.4183" y2="512.4183"/><rect fill="none" height="6" style="stroke:#C82930;stroke-width:1.0;" width="6" x="15" y="523.1624"/><text fill="#000000" font-family="sans-serif" font-size="14" lengthAdjust="spacing" textLength="120.1348" x="27" y="529.9534">segmentId: String</text><rect fill="none" height="6" style="stroke:#C82930;stroke-width:1.0;" width="6" x="15" y="539.6507"/><text fill="#000000" font-family="sans-serif" font-size="14" lengthAdjust="spacing" textLength="127.0596" x="27" y="546.4417">length_km: double</text><rect fill="none" height="6" style="stroke:#C82930;stroke-width:1.0;" width="6" x="15" y="556.139"/><text fill="#000000" font-family="sans-serif" font-size="14" lengthAdjust="spacing" textLength="210.417" x="27" y="562.93">maxSpeedAllowedKmh: double</text><rect fill="none" height="6" style="stroke:#C82930;stroke-width:1.0;" width="6" x="15" y="572.6273"/><text fill="#000000" font-family="sans-serif" font-size="14" lengthAdjust="spacing" textLength="329.5332" x="27" y="579.4183">numberTracks: int // 1 for single, &gt;1 for double</text></g><!--class Locomotive--><g id="elem_Locomotive"><rect codeLine="38" fill="#F1F1F1" height="83.9531" id="Locomotive" rx="2.5" ry="2.5" style="stroke:#181818;stroke-width:0.5;" width="178.5029" x="397.52" y="494.17"/><text fill="#000000" font-family="sans-serif" font-size="14" lengthAdjust="spacing" textLength="77.834" x="447.8545" y="512.7052">Locomotive</text><line style="stroke:#181818;stroke-width:0.5;" x1="398.52" x2="575.0229" y1="520.6583" y2="520.6583"/><rect fill="none" height="6" style="stroke:#C82930;stroke-width:1.0;" width="6" x="405.52" y="531.4024"/><text fill="#000000" font-family="sans-serif" font-size="14" lengthAdjust="spacing" textLength="136.0898" x="417.52" y="538.1934">locomotiveId: String</text><rect fill="none" height="6" style="stroke:#C82930;stroke-width:1.0;" width="6" x="405.52" y="547.8907"/><text fill="#000000" font-family="sans-serif" font-size="14" lengthAdjust="spacing" textLength="123.3135" x="417.52" y="554.6817">power_kw: double</text><rect fill="none" height="6" style="stroke:#C82930;stroke-width:1.0;" width="6" x="405.52" y="564.379"/><text fill="#000000" font-family="sans-serif" font-size="14" lengthAdjust="spacing" textLength="152.5029" x="417.52" y="571.17">tareWeight_kg: double</text></g><!--class Wagon--><g id="elem_Wagon"><rect codeLine="44" fill="#F1F1F1" height="83.9531" id="Wagon" rx="2.5" ry="2.5" style="stroke:#181818;stroke-width:0.5;" width="288.9785" x="867.28" y="494.17"/><text fill="#000000" font-family="sans-serif" font-size="14" lengthAdjust="spacing" textLength="45.7256" x="988.9065" y="512.7052">Wagon</text><line style="stroke:#181818;stroke-width:0.5;" x1="868.28" x2="1155.2585" y1="520.6583" y2="520.6583"/><rect fill="none" height="6" style="stroke:#C82930;stroke-width:1.0;" width="6" x="875.28" y="531.4024"/><text fill="#000000" font-family="sans-serif" font-size="14" lengthAdjust="spacing" textLength="106.21" x="887.28" y="538.1934">wagonId: String</text><rect fill="none" height="6" style="stroke:#C82930;stroke-width:1.0;" width="6" x="875.28" y="547.8907"/><text fill="#000000" font-family="sans-serif" font-size="14" lengthAdjust="spacing" textLength="152.5029" x="887.28" y="554.6817">tareWeight_kg: double</text><rect fill="none" height="6" style="stroke:#C82930;stroke-width:1.0;" width="6" x="875.28" y="564.379"/><text fill="#000000" font-family="sans-serif" font-size="14" lengthAdjust="spacing" textLength="262.9785" x="887.28" y="571.17">loadWeight_kg: double // Implied load</text></g><!--class SimulationSegmentEntry--><g id="elem_SimulationSegmentEntry"><rect codeLine="52" fill="#F1F1F1" height="100.4414" id="SimulationSegmentEntry" rx="2.5" ry="2.5" style="stroke:#181818;stroke-width:0.5;" width="221.7129" x="610.91" y="485.93"/><text fill="#000000" font-family="sans-serif" font-size="14" lengthAdjust="spacing" textLength="165.1152" x="639.2088" y="504.4652">SimulationSegmentEntry</text><line style="stroke:#181818;stroke-width:0.5;" x1="611.91" x2="831.6229" y1="512.4183" y2="512.4183"/><rect fill="none" height="6" style="stroke:#C82930;stroke-width:1.0;" width="6" x="618.91" y="523.1624"/><text fill="#000000" font-family="sans-serif" font-size="14" lengthAdjust="spacing" textLength="177.4336" x="630.91" y="529.9534">entryTime: LocalDateTime</text><rect fill="none" height="6" style="stroke:#C82930;stroke-width:1.0;" width="6" x="618.91" y="539.6507"/><text fill="#000000" font-family="sans-serif" font-size="14" lengthAdjust="spacing" textLength="168.335" x="630.91" y="546.4417">exitTime: LocalDateTime</text><rect fill="none" height="6" style="stroke:#C82930;stroke-width:1.0;" width="6" x="618.91" y="556.139"/><text fill="#000000" font-family="sans-serif" font-size="14" lengthAdjust="spacing" textLength="195.7129" x="630.91" y="562.93">calculatedSpeedKmh: double</text><text fill="#000000" font-family="sans-serif" font-size="14" lengthAdjust="spacing" textLength="112.1504" x="630.91" y="579.4183">// Other fields...</text></g><!--class Conflict--><g id="elem_Conflict"><rect codeLine="59" fill="#F1F1F1" height="100.4414" id="Conflict" rx="2.5" ry="2.5" style="stroke:#181818;stroke-width:0.5;" width="213.7012" x="1190.92" y="485.93"/><text fill="#000000" font-family="sans-serif" font-size="14" lengthAdjust="spacing" textLength="52.623" x="1271.4591" y="504.4652">Conflict</text><line style="stroke:#181818;stroke-width:0.5;" x1="1191.92" x2="1403.6212" y1="512.4183" y2="512.4183"/><rect fill="none" height="6" style="stroke:#C82930;stroke-width:1.0;" width="6" x="1198.92" y="523.1624"/><text fill="#000000" font-family="sans-serif" font-size="14" lengthAdjust="spacing" textLength="187.7012" x="1210.92" y="529.9534">tripId1: String // Prioritized</text><rect fill="none" height="6" style="stroke:#C82930;stroke-width:1.0;" width="6" x="1198.92" y="539.6507"/><text fill="#000000" font-family="sans-serif" font-size="14" lengthAdjust="spacing" textLength="171.8828" x="1210.92" y="546.4417">tripId2: String // Delayed</text><rect fill="none" height="6" style="stroke:#C82930;stroke-width:1.0;" width="6" x="1198.92" y="556.139"/><text fill="#000000" font-family="sans-serif" font-size="14" lengthAdjust="spacing" textLength="128.2832" x="1210.92" y="562.93">delayMinutes: long</text><rect fill="none" height="6" style="stroke:#C82930;stroke-width:1.0;" width="6" x="1198.92" y="572.6273"/><text fill="#000000" font-family="sans-serif" font-size="14" lengthAdjust="spacing" textLength="143.582" x="1210.92" y="579.4183">safeWaitFacilityId: int</text></g><!--class SchedulerResult--><g id="elem_SchedulerResult"><rect codeLine="66" fill="#F1F1F1" height="67.4648" id="SchedulerResult" rx="2.5" ry="2.5" style="stroke:#181818;stroke-width:0.5;" width="250.5537" x="1130.49" y="341.46"/><text fill="#000000" font-family="sans-serif" font-size="14" lengthAdjust="spacing" textLength="108.0352" x="1201.7493" y="359.9952">SchedulerResult</text><line style="stroke:#181818;stroke-width:0.5;" x1="1131.49" x2="1380.0437" y1="367.9483" y2="367.9483"/><ellipse cx="1141.49" cy="381.6924" fill="none" rx="3" ry="3" style="stroke:#038048;stroke-width:1.0;"/><text fill="#000000" font-family="sans-serif" font-size="14" lengthAdjust="spacing" textLength="221.0195" x="1150.49" y="385.4834">scheduledTrips: List&lt;TrainTrip&gt;</text><ellipse cx="1141.49" cy="398.1807" fill="none" rx="3" ry="3" style="stroke:#038048;stroke-width:1.0;"/><text fill="#000000" font-family="sans-serif" font-size="14" lengthAdjust="spacing" textLength="224.5537" x="1150.49" y="401.9717">resolvedConflicts: List&lt;Conflict&gt;</text></g><!--class TrainSimulationUI--><g id="elem_TrainSimulationUI"><rect codeLine="73" fill="#F1F1F1" height="34.4883" id="TrainSimulationUI" rx="2.5" ry="2.5" style="stroke:#181818;stroke-width:0.5;" width="126.4766" x="700.53" y="7"/><text fill="#000000" font-family="sans-serif" font-size="14" lengthAdjust="spacing" textLength="120.4766" x="703.53" y="25.5352">TrainSimulationUI</text><line style="stroke:#181818;stroke-width:0.5;" x1="701.53" x2="826.0066" y1="33.4883" y2="33.4883"/></g><!--class TrainRepository--><g id="elem_TrainRepository"><rect codeLine="77" fill="#F1F1F1" height="34.4883" id="TrainRepository" rx="2.5" ry="2.5" style="stroke:#181818;stroke-width:0.5;" width="113.1738" x="783.18" y="229.98"/><text fill="#000000" font-family="sans-serif" font-size="14" lengthAdjust="spacing" textLength="107.1738" x="786.18" y="248.5152">TrainRepository</text><line style="stroke:#181818;stroke-width:0.5;" x1="784.18" x2="895.3538" y1="256.4683" y2="256.4683"/></g><!--link TrainSimulationUI to DispatcherService--><g id="link_TrainSimulationUI_DispatcherService"><path codeLine="83" d="M763.77,41.87 C763.77,62.57 763.77,91.7 763.77,112.3 " fill="none" id="TrainSimulationUI-to-DispatcherService" style="stroke:#181818;stroke-width:1.0;"/><polygon fill="#181818" points="763.77,118.3,767.77,109.3,763.77,113.3,759.77,109.3,763.77,118.3" style="stroke:#181818;stroke-width:1.0;"/><text fill="#000000" font-family="sans-serif" font-size="13" lengthAdjust="spacing" textLength="28.5645" x="764.77" y="85.0584">uses</text></g><!--link DispatcherService to SchedulerService--><g id="link_DispatcherService_SchedulerService"><path codeLine="84" d="M748.6,153.43 C736.57,166.67 721.77,182.98 721.77,182.98 C721.77,182.98 709.9837,205.5396 700.2137,224.2796 " fill="none" id="DispatcherService-to-SchedulerService" style="stroke:#181818;stroke-width:1.0;"/><polygon fill="#181818" points="697.44,229.6,705.1475,223.4686,699.7515,225.1664,698.0537,219.7703,697.44,229.6" style="stroke:#181818;stroke-width:1.0;"/><text fill="#000000" font-family="sans-serif" font-size="13" lengthAdjust="spacing" textLength="73.8677" x="722.77" y="196.5484">coordinates</text></g><!--link DispatcherService to TrainRepository--><g id="link_DispatcherService_TrainRepository"><path codeLine="85" d="M777.12,153.43 C787.72,166.67 800.77,182.98 800.77,182.98 C800.77,182.98 814.8099,205.7534 826.3699,224.4934 " fill="none" id="DispatcherService-to-TrainRepository" style="stroke:#181818;stroke-width:1.0;"/><polygon fill="#181818" points="829.52,229.6,828.1993,219.8401,826.895,225.3445,821.3905,224.0402,829.52,229.6" style="stroke:#181818;stroke-width:1.0;"/><text fill="#000000" font-family="sans-serif" font-size="13" lengthAdjust="spacing" textLength="73.6582" x="812.23" y="196.5484">loads trains</text></g><!--link SchedulerService to TrainTrip--><g id="link_SchedulerService_TrainTrip"><path codeLine="87" d="M688.77,264.95 C688.77,284.29 688.77,310.6 688.77,335.08 " fill="none" id="SchedulerService-to-TrainTrip" style="stroke:#181818;stroke-width:1.0;"/><polygon fill="#181818" points="688.77,341.08,692.77,332.08,688.77,336.08,684.77,332.08,688.77,341.08" style="stroke:#181818;stroke-width:1.0;"/><text fill="#000000" font-family="sans-serif" font-size="13" lengthAdjust="spacing" textLength="60.2583" x="689.77" y="308.0284">simulates</text></g><!--link SchedulerService to LineSegment--><g id="link_SchedulerService_LineSegment"><path codeLine="88" d="M628.83,264.14 C528.58,290.77 337.77,341.46 337.77,341.46 C337.77,341.46 273.0194,423.4319 227.6894,480.8119 " fill="none" id="SchedulerService-to-LineSegment" style="stroke:#181818;stroke-width:1.0;"/><polygon fill="#181818" points="223.97,485.52,232.6878,480.9374,227.0695,481.5966,226.4103,475.9783,223.97,485.52" style="stroke:#181818;stroke-width:1.0;"/><text fill="#000000" font-family="sans-serif" font-size="13" lengthAdjust="spacing" textLength="108.6782" x="338.77" y="380.2684">reads constraints</text></g><!--link SchedulerService to Locomotive--><g id="link_SchedulerService_Locomotive"><path codeLine="89" d="M650.51,264.89 C588.95,291.71 474.77,341.46 474.77,341.46 C474.77,341.46 446.77,438.93 446.77,438.93 C446.77,438.93 446.77,455.93 446.77,455.93 C446.77,455.93 453.4444,469.1647 463.1244,488.3247 " fill="none" id="SchedulerService-to-Locomotive" style="stroke:#181818;stroke-width:1.0;"/><polygon fill="#181818" points="465.83,493.68,465.3418,483.8432,463.5753,489.2172,458.2013,487.4507,465.83,493.68" style="stroke:#181818;stroke-width:1.0;"/><text fill="#000000" font-family="sans-serif" font-size="13" lengthAdjust="spacing" textLength="77.4097" x="475.77" y="380.2684">reads power</text></g><!--link SchedulerService to Wagon--><g id="link_SchedulerService_Wagon"><path codeLine="90" d="M714.04,264.91 C734.09,278.16 758.77,294.46 758.77,294.46 C758.77,294.46 823.77,341.46 823.77,341.46 C823.77,341.46 912.5307,432.915 967.7207,489.765 " fill="none" id="SchedulerService-to-Wagon" style="stroke:#181818;stroke-width:1.0;"/><polygon fill="#181818" points="971.9,494.07,968.501,484.8262,968.4172,490.4825,962.761,490.3987,971.9,494.07" style="stroke:#181818;stroke-width:1.0;"/><text fill="#000000" font-family="sans-serif" font-size="13" lengthAdjust="spacing" textLength="80.7168" x="887.95" y="380.2684">reads weight</text></g><!--link SchedulerService to SchedulerResult--><g id="link_SchedulerService_SchedulerResult"><path codeLine="91" d="M749.06,260.94 C758.8,262.99 765.77,264.46 765.77,264.46 C765.77,264.46 997.77,294.46 997.77,294.46 C997.77,294.46 1071.9776,317.398 1142.8576,339.308 " fill="none" id="SchedulerService-to-SchedulerResult" style="stroke:#181818;stroke-width:1.0;"/><polygon fill="#181818" points="1148.59,341.08,1141.1727,334.6005,1143.813,339.6034,1138.8101,342.2436,1148.59,341.08" style="stroke:#181818;stroke-width:1.0;"/><text fill="#000000" font-family="sans-serif" font-size="13" lengthAdjust="spacing" textLength="48.6548" x="1048.12" y="308.0284">outputs</text></g><!--reverse link TrainTrip to LineSegment--><g id="link_TrainTrip_LineSegment"><path codeLine="93" d="M571.9758,413.0299 C502.1358,435.0599 420.7,460.74 342.17,485.51 " fill="none" id="TrainTrip-backto-LineSegment" style="stroke:#181818;stroke-width:1.0;"/><polygon fill="#181818" points="583.42,409.42,576.4946,407.4102,571.9758,413.0299,578.9012,415.0397,583.42,409.42" style="stroke:#181818;stroke-width:1.0;"/><text fill="#000000" font-family="sans-serif" font-size="13" lengthAdjust="spacing" textLength="83.4907" x="482.91" y="452.4984">defines route</text><text fill="#000000" font-family="sans-serif" font-size="13" lengthAdjust="spacing" textLength="8.2202" x="555.9615" y="429.4487">1</text><text fill="#000000" font-family="sans-serif" font-size="13" lengthAdjust="spacing" textLength="22.7119" x="339.8908" y="475.2866">1..*</text></g><!--reverse link TrainTrip to Locomotive--><g id="link_TrainTrip_Locomotive"><path codeLine="94" d="M637.4794,416.5505 C606.2794,441.1005 572.88,467.39 539.37,493.76 " fill="none" id="TrainTrip-backto-Locomotive" style="stroke:#181818;stroke-width:1.0;"/><polygon fill="#181818" points="646.91,409.13,639.7212,409.6967,637.4794,416.5505,644.6682,415.9838,646.91,409.13" style="stroke:#181818;stroke-width:1.0;"/><text fill="#000000" font-family="sans-serif" font-size="13" lengthAdjust="spacing" textLength="72.7759" x="606.86" y="452.4984">is pulled by</text><text fill="#000000" font-family="sans-serif" font-size="13" lengthAdjust="spacing" textLength="8.2202" x="630.4747" y="429.367">1</text><text fill="#000000" font-family="sans-serif" font-size="13" lengthAdjust="spacing" textLength="22.7119" x="524.0565" y="483.4024">1..*</text></g><!--reverse link TrainTrip to Wagon--><g id="link_TrainTrip_Wagon"><path codeLine="95" d="M773.2773,414.3372 C806.6173,429.3872 827.77,438.93 827.77,438.93 C827.77,438.93 882.8,467.71 932.67,493.78 " fill="none" id="TrainTrip-backto-Wagon" style="stroke:#181818;stroke-width:1.0;"/><polygon fill="#181818" points="762.34,409.4,766.1629,415.5144,773.2773,414.3372,769.4544,408.2228,762.34,409.4" style="stroke:#181818;stroke-width:1.0;"/><text fill="#000000" font-family="sans-serif" font-size="13" lengthAdjust="spacing" textLength="30.3926" x="859.61" y="452.4984">pulls</text><text fill="#000000" font-family="sans-serif" font-size="13" lengthAdjust="spacing" textLength="8.2202" x="766.7516" y="429.4252">1</text><text fill="#000000" font-family="sans-serif" font-size="13" lengthAdjust="spacing" textLength="22.7119" x="896.3672" y="483.4256">0..*</text></g><!--reverse link TrainTrip to SimulationSegmentEntry--><g id="link_TrainTrip_SimulationSegmentEntry"><path codeLine="96" d="M698.0402,420.8793 C702.6302,442.9793 706.32,460.74 711.49,485.64 " fill="none" id="TrainTrip-backto-SimulationSegmentEntry" style="stroke:#181818;stroke-width:1.0;"/><polygon fill="#181818" points="695.6,409.13,692.9037,415.818,698.0402,420.8793,700.7365,414.1912,695.6,409.13" style="stroke:#181818;stroke-width:1.0;"/><text fill="#000000" font-family="sans-serif" font-size="13" lengthAdjust="spacing" textLength="112.8169" x="706.27" y="452.4984">simulation results</text><text fill="#000000" font-family="sans-serif" font-size="13" lengthAdjust="spacing" textLength="8.2202" x="688.1419" y="429.367">1</text><text fill="#000000" font-family="sans-serif" font-size="13" lengthAdjust="spacing" textLength="22.7119" x="686.5481" y="475.0724">0..*</text></g><!--reverse link SchedulerResult to Conflict--><g id="link_SchedulerResult_Conflict"><path codeLine="98" d="M1267.5358,420.7318 C1273.3758,442.8318 1278.1,460.74 1284.69,485.64 " fill="none" id="SchedulerResult-backto-Conflict" style="stroke:#181818;stroke-width:1.0;"/><polygon fill="#181818" points="1264.47,409.13,1262.1356,415.9528,1267.5358,420.7318,1269.8702,413.9089,1264.47,409.13" style="stroke:#181818;stroke-width:1.0;"/><text fill="#000000" font-family="sans-serif" font-size="13" lengthAdjust="spacing" textLength="41.6089" x="1277.77" y="452.4984">details</text><text fill="#000000" font-family="sans-serif" font-size="13" lengthAdjust="spacing" textLength="8.2202" x="1257.3574" y="429.367">1</text><text fill="#000000" font-family="sans-serif" font-size="13" lengthAdjust="spacing" textLength="22.7119" x="1259.3537" y="475.0724">0..*</text></g><!--SRC=[VLLDRziu4BthLn2vRDBMJjEZi32GscvhnAqDIq6E0IEEvO4fKI2fkEvY__iEgK_Ryfv4SjuCtynmdimUyu9hdh629tkUGcIF4fY6nF8ybH2O5c1sNAW3vYdRScdw5eavs6C1h53ow3R13WMm17KYwtK6TgU42OA_s6WqOjFLPiwYwO_vx7cv-FMTJPUFKJIFd2q84icDOJCq1RV93dG4-XqJOFy4Z7qKzN6iEURcrlfFo9PexD_-R78N_Dl4YCXTbF8iHC9bKafkmUFNeBTAPpnFWA9X4J9_7DFoxXpz3ZB63CmWy88P5YV4771o5tQaDc1AQPsh1gFaEtn3RUnKvLk9YRrr-CTFp7s-abjptcNNHlLfZTo52q7nQP6dxaG0zSUM6Xnfeg8ebvdBXBRksXJiHfKMRkzgdalgNGHf1hcTr01oKfco-4vPjx3sh46zy5Jb7S1l6rkiB9SlWEdEFgKE8bJv9Xi2KvMzqQrYhGwWdmuNzfhEFAUiUXGYp5nJKEKzm77I5QUNIbKUKsrEAoGXJ-tkTP_rRXrb_7TK08X7AOcKUCfsVMjUPc-WgVR9djgB5Fx-dZqmUaFCe1kPJsnIRMkVZb9RjegHRFUdf0fNYjVzeN-hvHgg6hxkq_0Yj2zu5VNWbgS1Xvqz0ouk32wVHLP81C4SmDrIJMqziFCDMpt7w-UOpUALwS_iS5SgNk2Mmmzn1B_HNZ6ruoTyJqwRGKnNbXI2RH6aCEFnk2j9Co_zuNXegk8yrngLHej_G7I8Btt432G_LbRXbZynfscXhajL5TRmBRnmjDzuWXBjqPMTNiI005MpNkcFgGz5F2WHFK4GJH8DgjbFkgPivkjLj8XNcmNfvprxNlGRugDsNI6ZPw3Btk4rfJeJcWqKog1LTJy_RZ5t4z9EP2M-VLxBntYn-XNzMAnhORzaCnfD1eG-PAK14rmQ7Fn2qqEMAAK5vlH8hZcTPn3wbsrOzVi8WekWhPFNrv16sxEc2mQXVRK9wU_fOYUaY3w-lURKwK7ZuqT_65sDU0Cy-AaTHfu_kf2Ho1SbqGYwb6uURjW7QjFDmtZyuUOi0G7KNJ1Ckx_3_pZr4q1YNqfwrUpjEEJosRiqMJYekGwx8YHj7yX0XN3PzPjNvtiMgnK2bvVbIFV-1m00]--></g></svg>