<svg xmlns="http://www.w3.org/2000/svg" xmlns:xlink="http://www.w3.org/1999/xlink" contentStyleType="text/css" height="1125px" preserveAspectRatio="none" style="width:1412px;height:1125px;background:#FFFFFF;" version="1.1" viewBox="0 0 1412 1125" width="1412px" zoomAndPan="magnify"><defs/><g><rect fill="#FFFFFF" height="29.3105" style="stroke:#181818;stroke-width:1.0;" width="10" x="83.3164" y="156.1094"/><rect fill="#FFFFFF" height="935.3164" style="stroke:#181818;stroke-width:1.0;" width="10" x="354.3726" y="91.4883"/><rect fill="#FFFFFF" height="782.7637" style="stroke:#181818;stroke-width:1.0;" width="10" x="552.835" y="214.7305"/><rect fill="#FFFFFF" height="724.1426" style="stroke:#181818;stroke-width:1.0;" width="10" x="751.2974" y="244.041"/><rect fill="none" height="404.0371" style="stroke:#000000;stroke-width:1.5;" width="1365.1611" x="20" y="506.5254"/><rect fill="none" height="278.7949" style="stroke:#000000;stroke-width:1.5;" width="1345.1611" x="30" y="624.7676"/><rect fill="none" height="17.3105" style="stroke:#000000;stroke-width:1.5;" width="341.0459" x="40" y="879.252"/><line style="stroke:#181818;stroke-width:0.5;stroke-dasharray:5.0,5.0;" x1="88" x2="88" y1="81.4883" y2="1044.8047"/><line style="stroke:#181818;stroke-width:0.5;stroke-dasharray:5.0,5.0;" x1="358.9194" x2="358.9194" y1="81.4883" y2="1044.8047"/><line style="stroke:#181818;stroke-width:0.5;stroke-dasharray:5.0,5.0;" x1="557.5356" x2="557.5356" y1="81.4883" y2="1044.8047"/><line style="stroke:#181818;stroke-width:0.5;stroke-dasharray:5.0,5.0;" x1="756.2793" x2="756.2793" y1="81.4883" y2="1044.8047"/><line style="stroke:#181818;stroke-width:0.5;stroke-dasharray:5.0,5.0;" x1="998.4873" x2="998.4873" y1="81.4883" y2="1044.8047"/><line style="stroke:#181818;stroke-width:0.5;stroke-dasharray:5.0,5.0;" x1="1058.5859" x2="1058.5859" y1="81.4883" y2="1044.8047"/><line style="stroke:#181818;stroke-width:0.5;stroke-dasharray:5.0,5.0;" x1="1116.0781" x2="1116.0781" y1="81.4883" y2="1044.8047"/><line style="stroke:#181818;stroke-width:0.5;stroke-dasharray:5.0,5.0;" x1="1185.9131" x2="1185.9131" y1="81.4883" y2="1044.8047"/><line style="stroke:#181818;stroke-width:0.5;stroke-dasharray:5.0,5.0;" x1="1265.7773" x2="1265.7773" y1="81.4883" y2="1044.8047"/><line style="stroke:#181818;stroke-width:0.5;stroke-dasharray:5.0,5.0;" x1="1336.4004" x2="1336.4004" y1="81.4883" y2="1044.8047"/><text fill="#000000" font-family="sans-serif" font-size="14" lengthAdjust="spacing" textLength="110.6328" x="30" y="78.5352">Freight Manager</text><ellipse cx="88.3164" cy="13.5" fill="#E2E2F0" rx="8" ry="8" style="stroke:#181818;stroke-width:0.5;"/><path d="M88.3164,21.5 L88.3164,48.5 M75.3164,29.5 L101.3164,29.5 M88.3164,48.5 L75.3164,63.5 M88.3164,48.5 L101.3164,63.5 " fill="none" style="stroke:#181818;stroke-width:0.5;"/><text fill="#000000" font-family="sans-serif" font-size="14" lengthAdjust="spacing" textLength="110.6328" x="30" y="1057.3398">Freight Manager</text><ellipse cx="88.3164" cy="1068.793" fill="#E2E2F0" rx="8" ry="8" style="stroke:#181818;stroke-width:0.5;"/><path d="M88.3164,1076.793 L88.3164,1103.793 M75.3164,1084.793 L101.3164,1084.793 M88.3164,1103.793 L75.3164,1118.793 M88.3164,1103.793 L101.3164,1118.793 " fill="none" style="stroke:#181818;stroke-width:0.5;"/><rect fill="#E2E2F0" height="30.4883" rx="2.5" ry="2.5" style="stroke:#181818;stroke-width:0.5;" width="138.9063" x="289.9194" y="50"/><text fill="#000000" font-family="sans-serif" font-size="14" lengthAdjust="spacing" textLength="124.9063" x="296.9194" y="70.5352">:TrainSimulationUI</text><rect fill="#E2E2F0" height="30.4883" rx="2.5" ry="2.5" style="stroke:#181818;stroke-width:0.5;" width="138.9063" x="289.9194" y="1043.8047"/><text fill="#000000" font-family="sans-serif" font-size="14" lengthAdjust="spacing" textLength="124.9063" x="296.9194" y="1064.3398">:TrainSimulationUI</text><rect fill="#E2E2F0" height="30.4883" rx="2.5" ry="2.5" style="stroke:#181818;stroke-width:0.5;" width="138.5986" x="488.5356" y="50"/><text fill="#000000" font-family="sans-serif" font-size="14" lengthAdjust="spacing" textLength="124.5986" x="495.5356" y="70.5352">:DispatcherService</text><rect fill="#E2E2F0" height="30.4883" rx="2.5" ry="2.5" style="stroke:#181818;stroke-width:0.5;" width="138.5986" x="488.5356" y="1043.8047"/><text fill="#000000" font-family="sans-serif" font-size="14" lengthAdjust="spacing" textLength="124.5986" x="495.5356" y="1064.3398">:DispatcherService</text><rect fill="#E2E2F0" height="30.4883" rx="2.5" ry="2.5" style="stroke:#181818;stroke-width:0.5;" width="132.0361" x="690.2793" y="50"/><text fill="#000000" font-family="sans-serif" font-size="14" lengthAdjust="spacing" textLength="118.0361" x="697.2793" y="70.5352">:SchedulerService</text><rect fill="#E2E2F0" height="30.4883" rx="2.5" ry="2.5" style="stroke:#181818;stroke-width:0.5;" width="132.0361" x="690.2793" y="1043.8047"/><text fill="#000000" font-family="sans-serif" font-size="14" lengthAdjust="spacing" textLength="118.0361" x="697.2793" y="1064.3398">:SchedulerService</text><rect fill="#E2E2F0" height="30.4883" rx="2.5" ry="2.5" style="stroke:#181818;stroke-width:0.5;" width="51.0986" x="973.4873" y="50"/><text fill="#000000" font-family="sans-serif" font-size="14" lengthAdjust="spacing" textLength="37.0986" x="980.4873" y="70.5352">TripA</text><rect fill="#E2E2F0" height="30.4883" rx="2.5" ry="2.5" style="stroke:#181818;stroke-width:0.5;" width="51.0986" x="973.4873" y="1043.8047"/><text fill="#000000" font-family="sans-serif" font-size="14" lengthAdjust="spacing" textLength="37.0986" x="980.4873" y="1064.3398">TripA</text><rect fill="#E2E2F0" height="30.4883" rx="2.5" ry="2.5" style="stroke:#181818;stroke-width:0.5;" width="49.4922" x="1034.5859" y="50"/><text fill="#000000" font-family="sans-serif" font-size="14" lengthAdjust="spacing" textLength="35.4922" x="1041.5859" y="70.5352">TripB</text><rect fill="#E2E2F0" height="30.4883" rx="2.5" ry="2.5" style="stroke:#181818;stroke-width:0.5;" width="49.4922" x="1034.5859" y="1043.8047"/><text fill="#000000" font-family="sans-serif" font-size="14" lengthAdjust="spacing" textLength="35.4922" x="1041.5859" y="1064.3398">TripB</text><rect fill="#E2E2F0" height="30.4883" rx="2.5" ry="2.5" style="stroke:#181818;stroke-width:0.5;" width="45.835" x="1094.0781" y="50"/><text fill="#000000" font-family="sans-serif" font-size="14" lengthAdjust="spacing" textLength="31.835" x="1101.0781" y="70.5352">Loco</text><rect fill="#E2E2F0" height="30.4883" rx="2.5" ry="2.5" style="stroke:#181818;stroke-width:0.5;" width="45.835" x="1094.0781" y="1043.8047"/><text fill="#000000" font-family="sans-serif" font-size="14" lengthAdjust="spacing" textLength="31.835" x="1101.0781" y="1064.3398">Loco</text><rect fill="#E2E2F0" height="30.4883" rx="2.5" ry="2.5" style="stroke:#181818;stroke-width:0.5;" width="72.8643" x="1149.9131" y="50"/><text fill="#000000" font-family="sans-serif" font-size="14" lengthAdjust="spacing" textLength="58.8643" x="1156.9131" y="70.5352">Segment</text><rect fill="#E2E2F0" height="30.4883" rx="2.5" ry="2.5" style="stroke:#181818;stroke-width:0.5;" width="72.8643" x="1149.9131" y="1043.8047"/><text fill="#000000" font-family="sans-serif" font-size="14" lengthAdjust="spacing" textLength="58.8643" x="1156.9131" y="1064.3398">Segment</text><rect fill="#E2E2F0" height="30.4883" rx="2.5" ry="2.5" style="stroke:#181818;stroke-width:0.5;" width="66.623" x="1232.7773" y="50"/><text fill="#000000" font-family="sans-serif" font-size="14" lengthAdjust="spacing" textLength="52.623" x="1239.7773" y="70.5352">Conflict</text><rect fill="#E2E2F0" height="30.4883" rx="2.5" ry="2.5" style="stroke:#181818;stroke-width:0.5;" width="66.623" x="1232.7773" y="1043.8047"/><text fill="#000000" font-family="sans-serif" font-size="14" lengthAdjust="spacing" textLength="52.623" x="1239.7773" y="1064.3398">Conflict</text><rect fill="#E2E2F0" height="30.4883" rx="2.5" ry="2.5" style="stroke:#181818;stroke-width:0.5;" width="55.7607" x="1309.4004" y="50"/><text fill="#000000" font-family="sans-serif" font-size="14" lengthAdjust="spacing" textLength="41.7607" x="1316.4004" y="70.5352">Result</text><rect fill="#E2E2F0" height="30.4883" rx="2.5" ry="2.5" style="stroke:#181818;stroke-width:0.5;" width="55.7607" x="1309.4004" y="1043.8047"/><text fill="#000000" font-family="sans-serif" font-size="14" lengthAdjust="spacing" textLength="41.7607" x="1316.4004" y="1064.3398">Result</text><rect fill="#FFFFFF" height="29.3105" style="stroke:#181818;stroke-width:1.0;" width="10" x="83.3164" y="156.1094"/><rect fill="#FFFFFF" height="935.3164" style="stroke:#181818;stroke-width:1.0;" width="10" x="354.3726" y="91.4883"/><rect fill="#FFFFFF" height="782.7637" style="stroke:#181818;stroke-width:1.0;" width="10" x="552.835" y="214.7305"/><rect fill="#FFFFFF" height="724.1426" style="stroke:#181818;stroke-width:1.0;" width="10" x="751.2974" y="244.041"/><rect fill="#EEEEEE" height="3" style="stroke:#EEEEEE;stroke-width:1.0;" width="1405.1611" x="0" y="112.1436"/><line style="stroke:#000000;stroke-width:1.0;" x1="0" x2="1405.1611" y1="112.1436" y2="112.1436"/><line style="stroke:#000000;stroke-width:1.0;" x1="0" x2="1405.1611" y1="115.1436" y2="115.1436"/><rect fill="#EEEEEE" height="23.3105" style="stroke:#000000;stroke-width:2.0;" width="134.2944" x="635.4333" y="101.4883"/><text fill="#000000" font-family="sans-serif" font-size="13" font-weight="bold" lengthAdjust="spacing" textLength="116.0098" x="641.4333" y="118.0566">Start Dispatching</text><polygon fill="#181818" points="104.3164,152.1094,94.3164,156.1094,104.3164,160.1094,100.3164,156.1094" style="stroke:#181818;stroke-width:1.0;"/><line style="stroke:#181818;stroke-width:1.0;" x1="98.3164" x2="353.3726" y1="156.1094" y2="156.1094"/><text fill="#000000" font-family="sans-serif" font-size="13" font-weight="bold" lengthAdjust="spacing" textLength="8.5757" x="110.3164" y="151.3672">1</text><text fill="#000000" font-family="sans-serif" font-size="13" lengthAdjust="spacing" textLength="90.2827" x="122.8921" y="151.3672">loadTrainList()</text><polygon fill="#181818" points="342.3726,181.4199,352.3726,185.4199,342.3726,189.4199,346.3726,185.4199" style="stroke:#181818;stroke-width:1.0;"/><line style="stroke:#181818;stroke-width:1.0;" x1="88.3164" x2="348.3726" y1="185.4199" y2="185.4199"/><text fill="#000000" font-family="sans-serif" font-size="13" font-weight="bold" lengthAdjust="spacing" textLength="8.5757" x="95.3164" y="180.6777">2</text><text fill="#000000" font-family="sans-serif" font-size="13" lengthAdjust="spacing" textLength="118.3838" x="107.8921" y="180.6777">return List&lt;Train&gt;</text><polygon fill="#181818" points="540.835,210.7305,550.835,214.7305,540.835,218.7305,544.835,214.7305" style="stroke:#181818;stroke-width:1.0;"/><line style="stroke:#181818;stroke-width:1.0;" x1="364.3726" x2="546.835" y1="214.7305" y2="214.7305"/><text fill="#000000" font-family="sans-serif" font-size="13" font-weight="bold" lengthAdjust="spacing" textLength="8.5757" x="371.3726" y="209.9883">3</text><text fill="#000000" font-family="sans-serif" font-size="13" lengthAdjust="spacing" textLength="136.957" x="383.9482" y="209.9883">dispatchTrains(trains)</text><polygon fill="#181818" points="739.2974,240.041,749.2974,244.041,739.2974,248.041,743.2974,244.041" style="stroke:#181818;stroke-width:1.0;"/><line style="stroke:#181818;stroke-width:1.0;" x1="562.835" x2="745.2974" y1="244.041" y2="244.041"/><text fill="#000000" font-family="sans-serif" font-size="13" font-weight="bold" lengthAdjust="spacing" textLength="8.5757" x="569.835" y="239.2988">4</text><text fill="#000000" font-family="sans-serif" font-size="13" lengthAdjust="spacing" textLength="129.8921" x="582.4106" y="239.2988">dispatchTrains(trips)</text><path d="M619,257.041 L619,282.041 L893,282.041 L893,267.041 L883,257.041 L619,257.041 " fill="#FEFFDD" style="stroke:#181818;stroke-width:0.5;"/><path d="M883,257.041 L883,267.041 L893,267.041 L883,257.041 " fill="#FEFFDD" style="stroke:#181818;stroke-width:0.5;"/><text fill="#000000" font-family="sans-serif" font-size="13" lengthAdjust="spacing" textLength="253.354" x="625" y="274.6094">1. Sort Trips by DepartureTime (A, B, ...)</text><path d="M607,316.6621 L607,341.6621 L905,341.6621 L905,326.6621 L895,316.6621 L607,316.6621 " fill="#FEFFDD" style="stroke:#181818;stroke-width:0.5;"/><path d="M895,316.6621 L895,326.6621 L905,326.6621 L895,316.6621 " fill="#FEFFDD" style="stroke:#181818;stroke-width:0.5;"/><text fill="#000000" font-family="sans-serif" font-size="13" lengthAdjust="spacing" textLength="277.5259" x="613" y="334.2305">2. Calculate Performance &amp; Times for Trip A</text><polygon fill="#181818" points="987.0366,364.2832,997.0366,368.2832,987.0366,372.2832,991.0366,368.2832" style="stroke:#181818;stroke-width:1.0;"/><line style="stroke:#181818;stroke-width:1.0;" x1="761.2974" x2="993.0366" y1="368.2832" y2="368.2832"/><text fill="#000000" font-family="sans-serif" font-size="13" font-weight="bold" lengthAdjust="spacing" textLength="8.5757" x="768.2974" y="363.541">5</text><text fill="#000000" font-family="sans-serif" font-size="13" lengthAdjust="spacing" textLength="175.481" x="780.873" y="363.541">calculateTrainPerformance()</text><polygon fill="#181818" points="987.0366,393.5938,997.0366,397.5938,987.0366,401.5938,991.0366,397.5938" style="stroke:#181818;stroke-width:1.0;"/><line style="stroke:#181818;stroke-width:1.0;" x1="761.2974" x2="993.0366" y1="397.5938" y2="397.5938"/><text fill="#000000" font-family="sans-serif" font-size="13" font-weight="bold" lengthAdjust="spacing" textLength="8.5757" x="768.2974" y="392.8516">6</text><text fill="#000000" font-family="sans-serif" font-size="13" lengthAdjust="spacing" textLength="201.1636" x="780.873" y="392.8516">calculateTravelTimes(segments)</text><path d="M607,410.5938 L607,435.5938 L904,435.5938 L904,420.5938 L894,410.5938 L607,410.5938 " fill="#FEFFDD" style="stroke:#181818;stroke-width:0.5;"/><path d="M894,410.5938 L894,420.5938 L904,420.5938 L894,410.5938 " fill="#FEFFDD" style="stroke:#181818;stroke-width:0.5;"/><text fill="#000000" font-family="sans-serif" font-size="13" lengthAdjust="spacing" textLength="276.0342" x="613" y="428.1621">3. Calculate Performance &amp; Times for Trip B</text><polygon fill="#181818" points="1047.332,458.2148,1057.332,462.2148,1047.332,466.2148,1051.332,462.2148" style="stroke:#181818;stroke-width:1.0;"/><line style="stroke:#181818;stroke-width:1.0;" x1="761.2974" x2="1053.332" y1="462.2148" y2="462.2148"/><text fill="#000000" font-family="sans-serif" font-size="13" font-weight="bold" lengthAdjust="spacing" textLength="8.5757" x="768.2974" y="457.4727">7</text><text fill="#000000" font-family="sans-serif" font-size="13" lengthAdjust="spacing" textLength="175.481" x="780.873" y="457.4727">calculateTrainPerformance()</text><polygon fill="#181818" points="1047.332,487.5254,1057.332,491.5254,1047.332,495.5254,1051.332,491.5254" style="stroke:#181818;stroke-width:1.0;"/><line style="stroke:#181818;stroke-width:1.0;" x1="761.2974" x2="1053.332" y1="491.5254" y2="491.5254"/><text fill="#000000" font-family="sans-serif" font-size="13" font-weight="bold" lengthAdjust="spacing" textLength="8.5757" x="768.2974" y="486.7832">8</text><text fill="#000000" font-family="sans-serif" font-size="13" lengthAdjust="spacing" textLength="201.1636" x="780.873" y="486.7832">calculateTravelTimes(segments)</text><path d="M20,506.5254 L94.4468,506.5254 L94.4468,513.8359 L84.4468,523.8359 L20,523.8359 L20,506.5254 " fill="#EEEEEE" style="stroke:#000000;stroke-width:1.5;"/><rect fill="none" height="404.0371" style="stroke:#000000;stroke-width:1.5;" width="1365.1611" x="20" y="506.5254"/><text fill="#000000" font-family="sans-serif" font-size="13" font-weight="bold" lengthAdjust="spacing" textLength="29.4468" x="35" y="520.0938">loop</text><text fill="#000000" font-family="sans-serif" font-size="11" font-weight="bold" lengthAdjust="spacing" textLength="158.4688" x="109.4468" y="519.1602">[For each segment index (i)]</text><polygon fill="#181818" points="987.0366,541.1465,997.0366,545.1465,987.0366,549.1465,991.0366,545.1465" style="stroke:#181818;stroke-width:1.0;"/><line style="stroke:#181818;stroke-width:1.0;" x1="761.2974" x2="993.0366" y1="545.1465" y2="545.1465"/><text fill="#000000" font-family="sans-serif" font-size="13" font-weight="bold" lengthAdjust="spacing" textLength="8.5757" x="768.2974" y="540.4043">9</text><text fill="#000000" font-family="sans-serif" font-size="13" lengthAdjust="spacing" textLength="119.1709" x="780.873" y="540.4043">getSegmentEntry(i)</text><polygon fill="#181818" points="1047.332,570.457,1057.332,574.457,1047.332,578.457,1051.332,574.457" style="stroke:#181818;stroke-width:1.0;"/><line style="stroke:#181818;stroke-width:1.0;" x1="761.2974" x2="1053.332" y1="574.457" y2="574.457"/><text fill="#000000" font-family="sans-serif" font-size="13" font-weight="bold" lengthAdjust="spacing" textLength="17.1514" x="768.2974" y="569.7148">10</text><text fill="#000000" font-family="sans-serif" font-size="13" lengthAdjust="spacing" textLength="119.1709" x="789.4487" y="569.7148">getSegmentEntry(i)</text><path d="M596,587.457 L596,612.457 L915,612.457 L915,597.457 L905,587.457 L596,587.457 " fill="#FEFFDD" style="stroke:#181818;stroke-width:0.5;"/><path d="M905,587.457 L905,597.457 L915,597.457 L905,587.457 " fill="#FEFFDD" style="stroke:#181818;stroke-width:0.5;"/><text fill="#000000" font-family="sans-serif" font-size="13" lengthAdjust="spacing" textLength="298.8477" x="602" y="605.0254">4. Check Conflict (Single Track &amp; Time Overlap)</text><path d="M30,624.7676 L92.1387,624.7676 L92.1387,632.0781 L82.1387,642.0781 L30,642.0781 L30,624.7676 " fill="#EEEEEE" style="stroke:#000000;stroke-width:1.5;"/><rect fill="none" height="278.7949" style="stroke:#000000;stroke-width:1.5;" width="1345.1611" x="30" y="624.7676"/><text fill="#000000" font-family="sans-serif" font-size="13" font-weight="bold" lengthAdjust="spacing" textLength="17.1387" x="45" y="638.3359">alt</text><text fill="#000000" font-family="sans-serif" font-size="11" font-weight="bold" lengthAdjust="spacing" textLength="254.7832" x="107.1387" y="637.4023">[Conflict detected (ExitTimeA &gt; EntryTimeB)]</text><line style="stroke:#181818;stroke-width:1.0;" x1="761.2974" x2="803.2974" y1="663.3887" y2="663.3887"/><line style="stroke:#181818;stroke-width:1.0;" x1="803.2974" x2="803.2974" y1="663.3887" y2="676.3887"/><line style="stroke:#181818;stroke-width:1.0;" x1="762.2974" x2="803.2974" y1="676.3887" y2="676.3887"/><polygon fill="#181818" points="772.2974,672.3887,762.2974,676.3887,772.2974,680.3887,768.2974,676.3887" style="stroke:#181818;stroke-width:1.0;"/><text fill="#000000" font-family="sans-serif" font-size="13" font-weight="bold" lengthAdjust="spacing" textLength="17.1514" x="768.2974" y="658.6465">11</text><text fill="#000000" font-family="sans-serif" font-size="13" lengthAdjust="spacing" textLength="175.6841" x="789.4487" y="658.6465">findLastSafeWaitingPointId()</text><path d="M633,689.3887 L633,714.3887 L878,714.3887 L878,699.3887 L868,689.3887 L633,689.3887 " fill="#FEFFDD" style="stroke:#181818;stroke-width:0.5;"/><path d="M868,689.3887 L868,699.3887 L878,699.3887 L868,689.3887 " fill="#FEFFDD" style="stroke:#181818;stroke-width:0.5;"/><text fill="#000000" font-family="sans-serif" font-size="13" lengthAdjust="spacing" textLength="224.0786" x="639" y="706.957">5. Calculate Delay &amp; Create Conflict</text><polygon fill="#181818" points="1254.0889,737.0098,1264.0889,741.0098,1254.0889,745.0098,1258.0889,741.0098" style="stroke:#181818;stroke-width:1.0;"/><line style="stroke:#181818;stroke-width:1.0;" x1="761.2974" x2="1260.0889" y1="741.0098" y2="741.0098"/><text fill="#000000" font-family="sans-serif" font-size="13" font-weight="bold" lengthAdjust="spacing" textLength="17.1514" x="768.2974" y="736.2676">12</text><text fill="#000000" font-family="sans-serif" font-size="13" lengthAdjust="spacing" textLength="112.9058" x="789.4487" y="736.2676">new(delay, waitId)</text><polygon fill="#181818" points="1325.2808,766.3203,1335.2808,770.3203,1325.2808,774.3203,1329.2808,770.3203" style="stroke:#181818;stroke-width:1.0;"/><line style="stroke:#181818;stroke-width:1.0;" x1="761.2974" x2="1331.2808" y1="770.3203" y2="770.3203"/><text fill="#000000" font-family="sans-serif" font-size="13" font-weight="bold" lengthAdjust="spacing" textLength="17.1514" x="768.2974" y="765.5781">13</text><text fill="#000000" font-family="sans-serif" font-size="13" lengthAdjust="spacing" textLength="110.6904" x="789.4487" y="765.5781">addConflict(Conf)</text><path d="M623,783.3203 L623,808.3203 L888,808.3203 L888,793.3203 L878,783.3203 L623,783.3203 " fill="#FEFFDD" style="stroke:#181818;stroke-width:0.5;"/><path d="M878,783.3203 L878,793.3203 L888,793.3203 L878,783.3203 " fill="#FEFFDD" style="stroke:#181818;stroke-width:0.5;"/><text fill="#000000" font-family="sans-serif" font-size="13" lengthAdjust="spacing" textLength="244.6006" x="629" y="800.8887">6. Recalculate Trip B (Cascading Delay)</text><polygon fill="#181818" points="1047.332,830.9414,1057.332,834.9414,1047.332,838.9414,1051.332,834.9414" style="stroke:#181818;stroke-width:1.0;"/><line style="stroke:#181818;stroke-width:1.0;" x1="761.2974" x2="1053.332" y1="834.9414" y2="834.9414"/><text fill="#000000" font-family="sans-serif" font-size="13" font-weight="bold" lengthAdjust="spacing" textLength="17.1514" x="768.2974" y="830.1992">14</text><text fill="#000000" font-family="sans-serif" font-size="13" lengthAdjust="spacing" textLength="229.2329" x="789.4487" y="830.1992">newDelayedTrip(newDepartureTime)</text><polygon fill="#181818" points="1047.332,860.252,1057.332,864.252,1047.332,868.252,1051.332,864.252" style="stroke:#181818;stroke-width:1.0;"/><line style="stroke:#181818;stroke-width:1.0;" x1="761.2974" x2="1053.332" y1="864.252" y2="864.252"/><text fill="#000000" font-family="sans-serif" font-size="13" font-weight="bold" lengthAdjust="spacing" textLength="17.1514" x="768.2974" y="859.5098">15</text><text fill="#000000" font-family="sans-serif" font-size="13" lengthAdjust="spacing" textLength="230.604" x="789.4487" y="859.5098">calculateTravelTimes(new segments)</text><path d="M40,879.252 L123.0098,879.252 L123.0098,886.5625 L113.0098,896.5625 L40,896.5625 L40,879.252 " fill="#EEEEEE" style="stroke:#000000;stroke-width:1.5;"/><rect fill="none" height="17.3105" style="stroke:#000000;stroke-width:1.5;" width="341.0459" x="40" y="879.252"/><text fill="#000000" font-family="sans-serif" font-size="13" font-weight="bold" lengthAdjust="spacing" textLength="38.0098" x="55" y="892.8203">break</text><text fill="#000000" font-family="sans-serif" font-size="11" font-weight="bold" lengthAdjust="spacing" textLength="238.0361" x="138.0098" y="891.8867">[loop // Resolve only first conflict in pair]</text><polygon fill="#181818" points="1325.2808,934.873,1335.2808,938.873,1325.2808,942.873,1329.2808,938.873" style="stroke:#181818;stroke-width:1.0;"/><line style="stroke:#181818;stroke-width:1.0;" x1="761.2974" x2="1331.2808" y1="938.873" y2="938.873"/><text fill="#000000" font-family="sans-serif" font-size="13" font-weight="bold" lengthAdjust="spacing" textLength="17.1514" x="768.2974" y="934.1309">16</text><text fill="#000000" font-family="sans-serif" font-size="13" lengthAdjust="spacing" textLength="151.6074" x="789.4487" y="934.1309">addTrip(final schedules)</text><polygon fill="#181818" points="573.835,964.1836,563.835,968.1836,573.835,972.1836,569.835,968.1836" style="stroke:#181818;stroke-width:1.0;"/><line style="stroke:#181818;stroke-width:1.0;stroke-dasharray:2.0,2.0;" x1="567.835" x2="755.2974" y1="968.1836" y2="968.1836"/><text fill="#000000" font-family="sans-serif" font-size="13" font-weight="bold" lengthAdjust="spacing" textLength="17.1514" x="579.835" y="963.4414">17</text><text fill="#000000" font-family="sans-serif" font-size="13" lengthAdjust="spacing" textLength="143.311" x="600.9863" y="963.4414">return SchedulerResult</text><polygon fill="#181818" points="375.3726,993.4941,365.3726,997.4941,375.3726,1001.4941,371.3726,997.4941" style="stroke:#181818;stroke-width:1.0;"/><line style="stroke:#181818;stroke-width:1.0;stroke-dasharray:2.0,2.0;" x1="369.3726" x2="556.835" y1="997.4941" y2="997.4941"/><text fill="#000000" font-family="sans-serif" font-size="13" font-weight="bold" lengthAdjust="spacing" textLength="17.1514" x="381.3726" y="992.752">18</text><text fill="#000000" font-family="sans-serif" font-size="13" lengthAdjust="spacing" textLength="143.311" x="402.5239" y="992.752">return SchedulerResult</text><polygon fill="#181818" points="99.3164,1022.8047,89.3164,1026.8047,99.3164,1030.8047,95.3164,1026.8047" style="stroke:#181818;stroke-width:1.0;"/><line style="stroke:#181818;stroke-width:1.0;stroke-dasharray:2.0,2.0;" x1="93.3164" x2="358.3726" y1="1026.8047" y2="1026.8047"/><text fill="#000000" font-family="sans-serif" font-size="13" font-weight="bold" lengthAdjust="spacing" textLength="17.1514" x="105.3164" y="1022.0625">19</text><text fill="#000000" font-family="sans-serif" font-size="13" lengthAdjust="spacing" textLength="220.9048" x="126.4678" y="1022.0625">display final schedule and conflicts</text><!--SRC=[fLPBR-8m4BxdLunwM0M9fThdeLeg4TfAI5rjjQ7QiniFmSBOaMre-VSxTXua45gwwqjiptoVvsLFx4geWXcsXe9bAvPZwdOImM3ccCebHhPHi4l6zRDGEIoOj1X5REEqsgoVqD0ySzh0nPr1aIyT_6IAkCm5C5lF8s9n8XC5KmukhkQ62PMAzKOo9xHwd0NTnzc1sesm1NFP4asAPYio36hxtGFrbFRuHdQrcyskyjo8OX8KmknOc3J2f2kyrvaECZ_fYbBCrwXSUIxcNU5KguKKMIdrYwxuDzgDB8KqZQBn65972esxFlRZSGYss3A7Fbn0ut467w_hECCLICruYE-zi2uU19q6KwV3RzOGGXF75QNTROm23_iH2Aw36iSZTElSVJA8WLUBWBQn2vy32rhPWsgqE8YnILWVeIWglWxdFiUDp0-bIQQtnDJc_3I2L5DSVMejFEtW1dqYDWRdOeqGJuQG364q6WswR5Bh0kwepYaUIxemma0SQcTOLic1-ca3FezWocJcQn_X0Sr2cpLJ6S87y1POe8r02PCZnZqFHIgSJeHPpHR2r6AC1-ydsA8CLiIsB6PxjbzVplOhUTkiv7_zIlx1hswAAqKGYkCBnEBuq9C1pT5LRy6jScPtDZRfn_Q2-vFmbPAmn6m5zNC3SIhyMqxyzCPNkO1VX9Eiw3UBIRU7StJK3f13VFiYd0TFu1g2QNwHdB3koBssaGiAwJspBcKB_CE48mCVj51knkDNwFeT_jQkkXkKR4S-JWtwPUt4UHPwRI9K-1npppE4Px9jnWVdmUdL9ZJZl3urzfDt-_DzH4nDuLRt1U8findZlWS47y-qgQufyYd0aFkTE2nRZzuxsNgl5N72ArUh7a-KcLLvqIulVSoqt58KbDnHLHZh8AiBJwZmoFOoeUBHMtj-7RsThH0GAaWcmLOATd0ATzZmgfRPQ9HDl46tMcTFYsgtlOCUt4VO8clrqAOLT_u1VD_qDw7h5p35c_ZQg4L8ln9_0G00]--></g></svg>