<?xml version="1.0" encoding="us-ascii" standalone="no"?><svg xmlns="http://www.w3.org/2000/svg" xmlns:xlink="http://www.w3.org/1999/xlink" contentStyleType="text/css" height="2008px" preserveAspectRatio="none" style="width:2816px;height:2008px;background:#FFFFFF;" version="1.1" viewBox="0 0 2816 2008" width="2816px" zoomAndPan="magnify"><defs/><g><text fill="#000000" font-family="sans-serif" font-size="14" font-weight="bold" lengthAdjust="spacing" textLength="284" x="1268" y="30.1074">USEI12 - Minimal Backbone Network (SD)</text><rect fill="#FFFFFF" height="1751.2598" style="stroke:#181818;stroke-width:1.0;" width="10" x="484.5" y="156.5332"/><rect fill="#FFFFFF" height="374.2012" style="stroke:#181818;stroke-width:1.0;" width="10" x="796.5" y="219.1152"/><rect fill="#FFFFFF" height="31.291" style="stroke:#181818;stroke-width:1.0;" width="10" x="1150.5" y="320.9883"/><rect fill="#FFFFFF" height="31.291" style="stroke:#181818;stroke-width:1.0;" width="10" x="1150.5" y="461.1523"/><rect fill="#FFFFFF" height="31.291" style="stroke:#181818;stroke-width:1.0;" width="10" x="1150.5" y="530.7344"/><rect fill="#FFFFFF" height="31.291" style="stroke:#181818;stroke-width:1.0;" width="10" x="1150.5" y="655.8984"/><rect fill="#FFFFFF" height="31.291" style="stroke:#181818;stroke-width:1.0;" width="10" x="1150.5" y="903.9355"/><rect fill="#FFFFFF" height="31.291" style="stroke:#181818;stroke-width:1.0;" width="10" x="1150.5" y="1397.0098"/><rect fill="#FFFFFF" height="540.3652" style="stroke:#181818;stroke-width:1.0;" width="10" x="1375.5" y="624.6074"/><rect fill="#FFFFFF" height="31.291" style="stroke:#181818;stroke-width:1.0;" width="10" x="1750.5" y="1102.3906"/><rect fill="#FFFFFF" height="31.291" style="stroke:#181818;stroke-width:1.0;" width="10" x="1750.5" y="1334.4277"/><rect fill="#FFFFFF" height="377.9102" style="stroke:#181818;stroke-width:1.0;" width="10" x="1966" y="1303.1367"/><rect fill="#FFFFFF" height="119.873" style="stroke:#181818;stroke-width:1.0;" width="10" x="2182" y="1712.3379"/><rect fill="#FFFFFF" height="1728.9688" style="stroke:#181818;stroke-width:1.0;" width="10" x="2593" y="187.8242"/><rect fill="#FFFFFF" height="75.582" style="stroke:#181818;stroke-width:1.0;" width="10" x="2598" y="1196.2637"/><rect fill="none" height="81.873" style="stroke:#000000;stroke-width:1.5;" width="547" x="703" y="278.4063"/><rect fill="none" height="126.1641" style="stroke:#000000;stroke-width:1.5;" width="547" x="703" y="374.2793"/><rect fill="none" height="281.3281" style="stroke:#000000;stroke-width:1.5;" width="607.5" x="1051" y="746.4805"/><rect fill="none" height="159.4551" style="stroke:#000000;stroke-width:1.5;" width="587.5" x="1061" y="861.3535"/><rect fill="none" height="63.582" style="stroke:#000000;stroke-width:1.5;" width="349.5" x="1289" y="950.2266"/><line style="stroke:#181818;stroke-width:0.5;stroke-dasharray:5.0,5.0;" x1="76" x2="76" y1="123.2422" y2="1925.793"/><line style="stroke:#181818;stroke-width:0.5;stroke-dasharray:5.0,5.0;" x1="489" x2="489" y1="123.2422" y2="1925.793"/><line style="stroke:#181818;stroke-width:0.5;stroke-dasharray:5.0,5.0;" x1="801" x2="801" y1="123.2422" y2="1925.793"/><line style="stroke:#181818;stroke-width:0.5;stroke-dasharray:5.0,5.0;" x1="1155" x2="1155" y1="123.2422" y2="1925.793"/><line style="stroke:#181818;stroke-width:0.5;stroke-dasharray:5.0,5.0;" x1="1380" x2="1380" y1="123.2422" y2="1925.793"/><line style="stroke:#181818;stroke-width:0.5;stroke-dasharray:5.0,5.0;" x1="1755" x2="1755" y1="123.2422" y2="1925.793"/><line style="stroke:#181818;stroke-width:0.5;stroke-dasharray:5.0,5.0;" x1="1971" x2="1971" y1="123.2422" y2="1925.793"/><line style="stroke:#181818;stroke-width:0.5;stroke-dasharray:5.0,5.0;" x1="2186.5" x2="2186.5" y1="123.2422" y2="1925.793"/><line style="stroke:#181818;stroke-width:0.5;stroke-dasharray:5.0,5.0;" x1="2598" x2="2598" y1="123.2422" y2="1925.793"/><text fill="#000000" font-family="sans-serif" font-size="14" lengthAdjust="spacing" textLength="137" x="5" y="119.7285">Infrastructure Planner</text><ellipse cx="76.5" cy="53.1211" fill="#E3E3E3" rx="8" ry="8" style="stroke:#181818;stroke-width:0.5;"/><path d="M76.5,61.1211 L76.5,88.1211 M63.5,69.1211 L89.5,69.1211 M76.5,88.1211 L63.5,103.1211 M76.5,88.1211 L89.5,103.1211 " fill="none" style="stroke:#181818;stroke-width:0.5;"/><text fill="#000000" font-family="sans-serif" font-size="14" lengthAdjust="spacing" textLength="137" x="5" y="1939.9004">Infrastructure Planner</text><ellipse cx="76.5" cy="1951.9141" fill="#E3E3E3" rx="8" ry="8" style="stroke:#181818;stroke-width:0.5;"/><path d="M76.5,1959.9141 L76.5,1986.9141 M63.5,1967.9141 L89.5,1967.9141 M76.5,1986.9141 L63.5,2001.9141 M76.5,1986.9141 L89.5,2001.9141 " fill="none" style="stroke:#181818;stroke-width:0.5;"/><rect fill="#E3E3E3" height="32.6211" rx="2.5" ry="2.5" style="stroke:#181818;stroke-width:0.5;" width="193" x="393" y="89.6211"/><text fill="#000000" font-family="sans-serif" font-size="14" lengthAdjust="spacing" textLength="179" x="400" y="111.7285">:BackboneNetworkController</text><rect fill="#E3E3E3" height="32.6211" rx="2.5" ry="2.5" style="stroke:#181818;stroke-width:0.5;" width="193" x="393" y="1924.793"/><text fill="#000000" font-family="sans-serif" font-size="14" lengthAdjust="spacing" textLength="179" x="400" y="1946.9004">:BackboneNetworkController</text><rect fill="#E3E3E3" height="32.6211" rx="2.5" ry="2.5" style="stroke:#181818;stroke-width:0.5;" width="177" x="713" y="89.6211"/><text fill="#000000" font-family="sans-serif" font-size="14" lengthAdjust="spacing" textLength="163" x="720" y="111.7285">loader:RailNetworkLoader</text><rect fill="#E3E3E3" height="32.6211" rx="2.5" ry="2.5" style="stroke:#181818;stroke-width:0.5;" width="177" x="713" y="1924.793"/><text fill="#000000" font-family="sans-serif" font-size="14" lengthAdjust="spacing" textLength="163" x="720" y="1946.9004">loader:RailNetworkLoader</text><rect fill="#E3E3E3" height="32.6211" rx="2.5" ry="2.5" style="stroke:#181818;stroke-width:0.5;" width="169" x="1071" y="89.6211"/><text fill="#000000" font-family="sans-serif" font-size="14" lengthAdjust="spacing" textLength="155" x="1078" y="111.7285">graph:RailNetworkGraph</text><rect fill="#E3E3E3" height="32.6211" rx="2.5" ry="2.5" style="stroke:#181818;stroke-width:0.5;" width="169" x="1071" y="1924.793"/><text fill="#000000" font-family="sans-serif" font-size="14" lengthAdjust="spacing" textLength="155" x="1078" y="1946.9004">graph:RailNetworkGraph</text><rect fill="#E3E3E3" height="32.6211" rx="2.5" ry="2.5" style="stroke:#181818;stroke-width:0.5;" width="163" x="1299" y="89.6211"/><text fill="#000000" font-family="sans-serif" font-size="14" lengthAdjust="spacing" textLength="149" x="1306" y="111.7285">algorithm:PrimAlgorithm</text><rect fill="#E3E3E3" height="32.6211" rx="2.5" ry="2.5" style="stroke:#181818;stroke-width:0.5;" width="163" x="1299" y="1924.793"/><text fill="#000000" font-family="sans-serif" font-size="14" lengthAdjust="spacing" textLength="149" x="1306" y="1946.9004">algorithm:PrimAlgorithm</text><rect fill="#E3E3E3" height="32.6211" rx="2.5" ry="2.5" style="stroke:#181818;stroke-width:0.5;" width="213" x="1649" y="89.6211"/><text fill="#000000" font-family="sans-serif" font-size="14" lengthAdjust="spacing" textLength="199" x="1656" y="111.7285">result:MinimalBackboneNetwork</text><rect fill="#E3E3E3" height="32.6211" rx="2.5" ry="2.5" style="stroke:#181818;stroke-width:0.5;" width="213" x="1649" y="1924.793"/><text fill="#000000" font-family="sans-serif" font-size="14" lengthAdjust="spacing" textLength="199" x="1656" y="1946.9004">result:MinimalBackboneNetwork</text><rect fill="#E3E3E3" height="32.6211" rx="2.5" ry="2.5" style="stroke:#181818;stroke-width:0.5;" width="198" x="1872" y="89.6211"/><text fill="#000000" font-family="sans-serif" font-size="14" lengthAdjust="spacing" textLength="184" x="1879" y="111.7285">generator:DOTFileGenerator</text><rect fill="#E3E3E3" height="32.6211" rx="2.5" ry="2.5" style="stroke:#181818;stroke-width:0.5;" width="198" x="1872" y="1924.793"/><text fill="#000000" font-family="sans-serif" font-size="14" lengthAdjust="spacing" textLength="184" x="1879" y="1946.9004">generator:DOTFileGenerator</text><rect fill="#E3E3E3" height="32.6211" rx="2.5" ry="2.5" style="stroke:#181818;stroke-width:0.5;" width="185" x="2094.5" y="89.6211"/><text fill="#000000" font-family="sans-serif" font-size="14" lengthAdjust="spacing" textLength="171" x="2101.5" y="111.7285">executor:GraphVizExecutor</text><rect fill="#E3E3E3" height="32.6211" rx="2.5" ry="2.5" style="stroke:#181818;stroke-width:0.5;" width="185" x="2094.5" y="1924.793"/><text fill="#000000" font-family="sans-serif" font-size="14" lengthAdjust="spacing" textLength="171" x="2101.5" y="1946.9004">executor:GraphVizExecutor</text><rect fill="#E3E3E3" height="32.6211" rx="2.5" ry="2.5" style="stroke:#181818;stroke-width:0.5;" width="184" x="2506" y="89.6211"/><text fill="#000000" font-family="sans-serif" font-size="14" lengthAdjust="spacing" textLength="170" x="2513" y="111.7285">analyzer:AlgorithmAnalyzer</text><rect fill="#E3E3E3" height="32.6211" rx="2.5" ry="2.5" style="stroke:#181818;stroke-width:0.5;" width="184" x="2506" y="1924.793"/><text fill="#000000" font-family="sans-serif" font-size="14" lengthAdjust="spacing" textLength="170" x="2513" y="1946.9004">analyzer:AlgorithmAnalyzer</text><rect fill="#FFFFFF" height="1751.2598" style="stroke:#181818;stroke-width:1.0;" width="10" x="484.5" y="156.5332"/><rect fill="#FFFFFF" height="374.2012" style="stroke:#181818;stroke-width:1.0;" width="10" x="796.5" y="219.1152"/><rect fill="#FFFFFF" height="31.291" style="stroke:#181818;stroke-width:1.0;" width="10" x="1150.5" y="320.9883"/><rect fill="#FFFFFF" height="31.291" style="stroke:#181818;stroke-width:1.0;" width="10" x="1150.5" y="461.1523"/><rect fill="#FFFFFF" height="31.291" style="stroke:#181818;stroke-width:1.0;" width="10" x="1150.5" y="530.7344"/><rect fill="#FFFFFF" height="31.291" style="stroke:#181818;stroke-width:1.0;" width="10" x="1150.5" y="655.8984"/><rect fill="#FFFFFF" height="31.291" style="stroke:#181818;stroke-width:1.0;" width="10" x="1150.5" y="903.9355"/><rect fill="#FFFFFF" height="31.291" style="stroke:#181818;stroke-width:1.0;" width="10" x="1150.5" y="1397.0098"/><rect fill="#FFFFFF" height="540.3652" style="stroke:#181818;stroke-width:1.0;" width="10" x="1375.5" y="624.6074"/><rect fill="#FFFFFF" height="31.291" style="stroke:#181818;stroke-width:1.0;" width="10" x="1750.5" y="1102.3906"/><rect fill="#FFFFFF" height="31.291" style="stroke:#181818;stroke-width:1.0;" width="10" x="1750.5" y="1334.4277"/><rect fill="#FFFFFF" height="377.9102" style="stroke:#181818;stroke-width:1.0;" width="10" x="1966" y="1303.1367"/><rect fill="#FFFFFF" height="119.873" style="stroke:#181818;stroke-width:1.0;" width="10" x="2182" y="1712.3379"/><rect fill="#FFFFFF" height="1728.9688" style="stroke:#181818;stroke-width:1.0;" width="10" x="2593" y="187.8242"/><rect fill="#FFFFFF" height="75.582" style="stroke:#181818;stroke-width:1.0;" width="10" x="2598" y="1196.2637"/><polygon fill="#181818" points="472.5,152.5332,482.5,156.5332,472.5,160.5332,476.5,156.5332" style="stroke:#181818;stroke-width:1.0;"/><line style="stroke:#181818;stroke-width:1.0;" x1="76.5" x2="478.5" y1="156.5332" y2="156.5332"/><text fill="#000000" font-family="sans-serif" font-size="13" font-weight="bold" lengthAdjust="spacing" textLength="7" x="83.5" y="151.2705">1</text><text fill="#000000" font-family="sans-serif" font-size="13" lengthAdjust="spacing" textLength="161" x="94.5" y="151.2705">computeMinimalBackbone()</text><polygon fill="#181818" points="2581,183.8242,2591,187.8242,2581,191.8242,2585,187.8242" style="stroke:#181818;stroke-width:1.0;"/><line style="stroke:#181818;stroke-width:1.0;" x1="494.5" x2="2587" y1="187.8242" y2="187.8242"/><text fill="#000000" font-family="sans-serif" font-size="13" font-weight="bold" lengthAdjust="spacing" textLength="7" x="501.5" y="182.5615">2</text><text fill="#000000" font-family="sans-serif" font-size="13" lengthAdjust="spacing" textLength="113" x="512.5" y="182.5615">startMeasurement()</text><polygon fill="#181818" points="784.5,215.1152,794.5,219.1152,784.5,223.1152,788.5,219.1152" style="stroke:#181818;stroke-width:1.0;"/><line style="stroke:#181818;stroke-width:1.0;" x1="494.5" x2="790.5" y1="219.1152" y2="219.1152"/><text fill="#000000" font-family="sans-serif" font-size="13" font-weight="bold" lengthAdjust="spacing" textLength="7" x="501.5" y="213.8525">3</text><text fill="#000000" font-family="sans-serif" font-size="13" lengthAdjust="spacing" textLength="272" x="512.5" y="213.8525">loadNetworkFromCSV("station_to_station.csv")</text><line style="stroke:#181818;stroke-width:1.0;" x1="806.5" x2="848.5" y1="250.4063" y2="250.4063"/><line style="stroke:#181818;stroke-width:1.0;" x1="848.5" x2="848.5" y1="250.4063" y2="263.4063"/><line style="stroke:#181818;stroke-width:1.0;" x1="807.5" x2="848.5" y1="263.4063" y2="263.4063"/><polygon fill="#181818" points="817.5,259.4063,807.5,263.4063,817.5,267.4063,813.5,263.4063" style="stroke:#181818;stroke-width:1.0;"/><text fill="#000000" font-family="sans-serif" font-size="13" font-weight="bold" lengthAdjust="spacing" textLength="7" x="813.5" y="245.1436">4</text><text fill="#000000" font-family="sans-serif" font-size="13" lengthAdjust="spacing" textLength="81" x="824.5" y="245.1436">readCSVFile()</text><path d="M703,278.4063 L776,278.4063 L776,287.6973 L766,297.6973 L703,297.6973 L703,278.4063 " fill="#EEEEEE" style="stroke:#000000;stroke-width:1.5;"/><rect fill="none" height="81.873" style="stroke:#000000;stroke-width:1.5;" width="547" x="703" y="278.4063"/><text fill="#000000" font-family="sans-serif" font-size="13" font-weight="bold" lengthAdjust="spacing" textLength="28" x="718" y="293.4346">loop</text><text fill="#000000" font-family="sans-serif" font-size="11" font-weight="bold" lengthAdjust="spacing" textLength="134" x="791" y="292.2764">[for each station record]</text><polygon fill="#181818" points="1138.5,316.9883,1148.5,320.9883,1138.5,324.9883,1142.5,320.9883" style="stroke:#181818;stroke-width:1.0;"/><line style="stroke:#181818;stroke-width:1.0;" x1="806.5" x2="1144.5" y1="320.9883" y2="320.9883"/><text fill="#000000" font-family="sans-serif" font-size="13" font-weight="bold" lengthAdjust="spacing" textLength="7" x="813.5" y="315.7256">5</text><text fill="#000000" font-family="sans-serif" font-size="13" lengthAdjust="spacing" textLength="257" x="824.5" y="315.7256">addStation(stationId, name, xCoord, yCoord)</text><polygon fill="#181818" points="817.5,348.2793,807.5,352.2793,817.5,356.2793,813.5,352.2793" style="stroke:#181818;stroke-width:1.0;"/><line style="stroke:#181818;stroke-width:1.0;stroke-dasharray:2.0,2.0;" x1="811.5" x2="1154.5" y1="352.2793" y2="352.2793"/><text fill="#000000" font-family="sans-serif" font-size="13" font-weight="bold" lengthAdjust="spacing" textLength="7" x="823.5" y="347.0166">6</text><text fill="#000000" font-family="sans-serif" font-size="13" lengthAdjust="spacing" textLength="76" x="834.5" y="347.0166">stationAdded</text><path d="M703,374.2793 L776,374.2793 L776,383.5703 L766,393.5703 L703,393.5703 L703,374.2793 " fill="#EEEEEE" style="stroke:#000000;stroke-width:1.5;"/><rect fill="none" height="126.1641" style="stroke:#000000;stroke-width:1.5;" width="547" x="703" y="374.2793"/><text fill="#000000" font-family="sans-serif" font-size="13" font-weight="bold" lengthAdjust="spacing" textLength="28" x="718" y="389.3076">loop</text><text fill="#000000" font-family="sans-serif" font-size="11" font-weight="bold" lengthAdjust="spacing" textLength="157" x="791" y="388.1494">[for each connection record]</text><line style="stroke:#181818;stroke-width:1.0;" x1="806.5" x2="848.5" y1="416.8613" y2="416.8613"/><line style="stroke:#181818;stroke-width:1.0;" x1="848.5" x2="848.5" y1="416.8613" y2="429.8613"/><line style="stroke:#181818;stroke-width:1.0;" x1="807.5" x2="848.5" y1="429.8613" y2="429.8613"/><polygon fill="#181818" points="817.5,425.8613,807.5,429.8613,817.5,433.8613,813.5,429.8613" style="stroke:#181818;stroke-width:1.0;"/><text fill="#000000" font-family="sans-serif" font-size="13" font-weight="bold" lengthAdjust="spacing" textLength="7" x="813.5" y="411.5986">7</text><text fill="#000000" font-family="sans-serif" font-size="13" lengthAdjust="spacing" textLength="319" x="824.5" y="411.5986">validateConnection(fromStationId, toStationId, distance)</text><polygon fill="#181818" points="1138.5,457.1523,1148.5,461.1523,1138.5,465.1523,1142.5,461.1523" style="stroke:#181818;stroke-width:1.0;"/><line style="stroke:#181818;stroke-width:1.0;" x1="806.5" x2="1144.5" y1="461.1523" y2="461.1523"/><text fill="#000000" font-family="sans-serif" font-size="13" font-weight="bold" lengthAdjust="spacing" textLength="7" x="813.5" y="455.8896">8</text><text fill="#000000" font-family="sans-serif" font-size="13" lengthAdjust="spacing" textLength="297" x="824.5" y="455.8896">addConnection(fromStationId, toStationId, distance)</text><polygon fill="#181818" points="817.5,488.4434,807.5,492.4434,817.5,496.4434,813.5,492.4434" style="stroke:#181818;stroke-width:1.0;"/><line style="stroke:#181818;stroke-width:1.0;stroke-dasharray:2.0,2.0;" x1="811.5" x2="1154.5" y1="492.4434" y2="492.4434"/><text fill="#000000" font-family="sans-serif" font-size="13" font-weight="bold" lengthAdjust="spacing" textLength="7" x="823.5" y="487.1807">9</text><text fill="#000000" font-family="sans-serif" font-size="13" lengthAdjust="spacing" textLength="100" x="834.5" y="487.1807">connectionAdded</text><polygon fill="#181818" points="1138.5,526.7344,1148.5,530.7344,1138.5,534.7344,1142.5,530.7344" style="stroke:#181818;stroke-width:1.0;"/><line style="stroke:#181818;stroke-width:1.0;" x1="806.5" x2="1144.5" y1="530.7344" y2="530.7344"/><text fill="#000000" font-family="sans-serif" font-size="13" font-weight="bold" lengthAdjust="spacing" textLength="14" x="813.5" y="525.4717">10</text><text fill="#000000" font-family="sans-serif" font-size="13" lengthAdjust="spacing" textLength="117" x="831.5" y="525.4717">buildAdjacencyList()</text><polygon fill="#181818" points="817.5,558.0254,807.5,562.0254,817.5,566.0254,813.5,562.0254" style="stroke:#181818;stroke-width:1.0;"/><line style="stroke:#181818;stroke-width:1.0;stroke-dasharray:2.0,2.0;" x1="811.5" x2="1154.5" y1="562.0254" y2="562.0254"/><text fill="#000000" font-family="sans-serif" font-size="13" font-weight="bold" lengthAdjust="spacing" textLength="14" x="823.5" y="556.7627">11</text><text fill="#000000" font-family="sans-serif" font-size="13" lengthAdjust="spacing" textLength="85" x="841.5" y="556.7627">adjacencyBuilt</text><polygon fill="#181818" points="505.5,589.3164,495.5,593.3164,505.5,597.3164,501.5,593.3164" style="stroke:#181818;stroke-width:1.0;"/><line style="stroke:#181818;stroke-width:1.0;stroke-dasharray:2.0,2.0;" x1="499.5" x2="800.5" y1="593.3164" y2="593.3164"/><text fill="#000000" font-family="sans-serif" font-size="13" font-weight="bold" lengthAdjust="spacing" textLength="14" x="511.5" y="588.0537">12</text><text fill="#000000" font-family="sans-serif" font-size="13" lengthAdjust="spacing" textLength="104" x="529.5" y="588.0537">RailNetworkGraph</text><polygon fill="#181818" points="1363.5,620.6074,1373.5,624.6074,1363.5,628.6074,1367.5,624.6074" style="stroke:#181818;stroke-width:1.0;"/><line style="stroke:#181818;stroke-width:1.0;" x1="494.5" x2="1369.5" y1="624.6074" y2="624.6074"/><text fill="#000000" font-family="sans-serif" font-size="13" font-weight="bold" lengthAdjust="spacing" textLength="14" x="501.5" y="619.3447">13</text><text fill="#000000" font-family="sans-serif" font-size="13" lengthAdjust="spacing" textLength="117" x="519.5" y="619.3447">computeMST(graph)</text><polygon fill="#181818" points="1171.5,651.8984,1161.5,655.8984,1171.5,659.8984,1167.5,655.8984" style="stroke:#181818;stroke-width:1.0;"/><line style="stroke:#181818;stroke-width:1.0;" x1="1165.5" x2="1374.5" y1="655.8984" y2="655.8984"/><text fill="#000000" font-family="sans-serif" font-size="13" font-weight="bold" lengthAdjust="spacing" textLength="14" x="1177.5" y="650.6357">14</text><text fill="#000000" font-family="sans-serif" font-size="13" lengthAdjust="spacing" textLength="74" x="1195.5" y="650.6357">getStations()</text><polygon fill="#181818" points="1363.5,683.1895,1373.5,687.1895,1363.5,691.1895,1367.5,687.1895" style="stroke:#181818;stroke-width:1.0;"/><line style="stroke:#181818;stroke-width:1.0;stroke-dasharray:2.0,2.0;" x1="1155.5" x2="1369.5" y1="687.1895" y2="687.1895"/><text fill="#000000" font-family="sans-serif" font-size="13" font-weight="bold" lengthAdjust="spacing" textLength="14" x="1162.5" y="681.9268">15</text><text fill="#000000" font-family="sans-serif" font-size="13" lengthAdjust="spacing" textLength="60" x="1180.5" y="681.9268">stationList</text><line style="stroke:#181818;stroke-width:1.0;" x1="1385.5" x2="1427.5" y1="718.4805" y2="718.4805"/><line style="stroke:#181818;stroke-width:1.0;" x1="1427.5" x2="1427.5" y1="718.4805" y2="731.4805"/><line style="stroke:#181818;stroke-width:1.0;" x1="1386.5" x2="1427.5" y1="731.4805" y2="731.4805"/><polygon fill="#181818" points="1396.5,727.4805,1386.5,731.4805,1396.5,735.4805,1392.5,731.4805" style="stroke:#181818;stroke-width:1.0;"/><text fill="#000000" font-family="sans-serif" font-size="13" font-weight="bold" lengthAdjust="spacing" textLength="14" x="1392.5" y="713.2178">16</text><text fill="#000000" font-family="sans-serif" font-size="13" lengthAdjust="spacing" textLength="227" x="1410.5" y="713.2178">initializePriorityQueue(stationList.first())</text><path d="M1051,746.4805 L1124,746.4805 L1124,755.7715 L1114,765.7715 L1051,765.7715 L1051,746.4805 " fill="#EEEEEE" style="stroke:#000000;stroke-width:1.5;"/><rect fill="none" height="281.3281" style="stroke:#000000;stroke-width:1.5;" width="607.5" x="1051" y="746.4805"/><text fill="#000000" font-family="sans-serif" font-size="13" font-weight="bold" lengthAdjust="spacing" textLength="28" x="1066" y="761.5088">loop</text><text fill="#000000" font-family="sans-serif" font-size="11" font-weight="bold" lengthAdjust="spacing" textLength="204" x="1139" y="760.3506">[while visitedStations &lt; totalStations]</text><line style="stroke:#181818;stroke-width:1.0;" x1="1385.5" x2="1427.5" y1="789.0625" y2="789.0625"/><line style="stroke:#181818;stroke-width:1.0;" x1="1427.5" x2="1427.5" y1="789.0625" y2="802.0625"/><line style="stroke:#181818;stroke-width:1.0;" x1="1386.5" x2="1427.5" y1="802.0625" y2="802.0625"/><polygon fill="#181818" points="1396.5,798.0625,1386.5,802.0625,1396.5,806.0625,1392.5,802.0625" style="stroke:#181818;stroke-width:1.0;"/><text fill="#000000" font-family="sans-serif" font-size="13" font-weight="bold" lengthAdjust="spacing" textLength="14" x="1392.5" y="783.7998">17</text><text fill="#000000" font-family="sans-serif" font-size="13" lengthAdjust="spacing" textLength="177" x="1410.5" y="783.7998">getMinimumEdgeFromQueue()</text><line style="stroke:#181818;stroke-width:1.0;" x1="1385.5" x2="1427.5" y1="833.3535" y2="833.3535"/><line style="stroke:#181818;stroke-width:1.0;" x1="1427.5" x2="1427.5" y1="833.3535" y2="846.3535"/><line style="stroke:#181818;stroke-width:1.0;" x1="1386.5" x2="1427.5" y1="846.3535" y2="846.3535"/><polygon fill="#181818" points="1396.5,842.3535,1386.5,846.3535,1396.5,850.3535,1392.5,846.3535" style="stroke:#181818;stroke-width:1.0;"/><text fill="#000000" font-family="sans-serif" font-size="13" font-weight="bold" lengthAdjust="spacing" textLength="14" x="1392.5" y="828.0908">18</text><text fill="#000000" font-family="sans-serif" font-size="13" lengthAdjust="spacing" textLength="100" x="1410.5" y="828.0908">addEdgeToMST()</text><path d="M1061,861.3535 L1122,861.3535 L1122,870.6445 L1112,880.6445 L1061,880.6445 L1061,861.3535 " fill="#EEEEEE" style="stroke:#000000;stroke-width:1.5;"/><rect fill="none" height="159.4551" style="stroke:#000000;stroke-width:1.5;" width="587.5" x="1061" y="861.3535"/><text fill="#000000" font-family="sans-serif" font-size="13" font-weight="bold" lengthAdjust="spacing" textLength="16" x="1076" y="876.3818">alt</text><text fill="#000000" font-family="sans-serif" font-size="11" font-weight="bold" lengthAdjust="spacing" textLength="158" x="1137" y="875.2236">[edge connects new station]</text><polygon fill="#181818" points="1171.5,899.9355,1161.5,903.9355,1171.5,907.9355,1167.5,903.9355" style="stroke:#181818;stroke-width:1.0;"/><line style="stroke:#181818;stroke-width:1.0;" x1="1165.5" x2="1374.5" y1="903.9355" y2="903.9355"/><text fill="#000000" font-family="sans-serif" font-size="13" font-weight="bold" lengthAdjust="spacing" textLength="14" x="1177.5" y="898.6729">19</text><text fill="#000000" font-family="sans-serif" font-size="13" lengthAdjust="spacing" textLength="178" x="1195.5" y="898.6729">getAdjacentEdges(newStation)</text><polygon fill="#181818" points="1363.5,931.2266,1373.5,935.2266,1363.5,939.2266,1367.5,935.2266" style="stroke:#181818;stroke-width:1.0;"/><line style="stroke:#181818;stroke-width:1.0;stroke-dasharray:2.0,2.0;" x1="1155.5" x2="1369.5" y1="935.2266" y2="935.2266"/><text fill="#000000" font-family="sans-serif" font-size="13" font-weight="bold" lengthAdjust="spacing" textLength="14" x="1162.5" y="929.9639">20</text><text fill="#000000" font-family="sans-serif" font-size="13" lengthAdjust="spacing" textLength="86" x="1180.5" y="929.9639">adjacentEdges</text><path d="M1289,950.2266 L1362,950.2266 L1362,959.5176 L1352,969.5176 L1289,969.5176 L1289,950.2266 " fill="#EEEEEE" style="stroke:#000000;stroke-width:1.5;"/><rect fill="none" height="63.582" style="stroke:#000000;stroke-width:1.5;" width="349.5" x="1289" y="950.2266"/><text fill="#000000" font-family="sans-serif" font-size="13" font-weight="bold" lengthAdjust="spacing" textLength="28" x="1304" y="965.2549">loop</text><text fill="#000000" font-family="sans-serif" font-size="11" font-weight="bold" lengthAdjust="spacing" textLength="133" x="1377" y="964.0967">[for each adjacent edge]</text><line style="stroke:#181818;stroke-width:1.0;" x1="1385.5" x2="1427.5" y1="992.8086" y2="992.8086"/><line style="stroke:#181818;stroke-width:1.0;" x1="1427.5" x2="1427.5" y1="992.8086" y2="1005.8086"/><line style="stroke:#181818;stroke-width:1.0;" x1="1386.5" x2="1427.5" y1="1005.8086" y2="1005.8086"/><polygon fill="#181818" points="1396.5,1001.8086,1386.5,1005.8086,1396.5,1009.8086,1392.5,1005.8086" style="stroke:#181818;stroke-width:1.0;"/><text fill="#000000" font-family="sans-serif" font-size="13" font-weight="bold" lengthAdjust="spacing" textLength="14" x="1392.5" y="987.5459">21</text><text fill="#000000" font-family="sans-serif" font-size="13" lengthAdjust="spacing" textLength="216" x="1410.5" y="987.5459">addToPriorityQueueIfNotVisited(edge)</text><line style="stroke:#181818;stroke-width:1.0;" x1="1385.5" x2="1427.5" y1="1058.0996" y2="1058.0996"/><line style="stroke:#181818;stroke-width:1.0;" x1="1427.5" x2="1427.5" y1="1058.0996" y2="1071.0996"/><line style="stroke:#181818;stroke-width:1.0;" x1="1386.5" x2="1427.5" y1="1071.0996" y2="1071.0996"/><polygon fill="#181818" points="1396.5,1067.0996,1386.5,1071.0996,1396.5,1075.0996,1392.5,1071.0996" style="stroke:#181818;stroke-width:1.0;"/><text fill="#000000" font-family="sans-serif" font-size="13" font-weight="bold" lengthAdjust="spacing" textLength="14" x="1392.5" y="1052.8369">22</text><text fill="#000000" font-family="sans-serif" font-size="13" lengthAdjust="spacing" textLength="139" x="1410.5" y="1052.8369">calculateTotalDistance()</text><polygon fill="#181818" points="1738.5,1098.3906,1748.5,1102.3906,1738.5,1106.3906,1742.5,1102.3906" style="stroke:#181818;stroke-width:1.0;"/><line style="stroke:#181818;stroke-width:1.0;" x1="1385.5" x2="1744.5" y1="1102.3906" y2="1102.3906"/><text fill="#000000" font-family="sans-serif" font-size="13" font-weight="bold" lengthAdjust="spacing" textLength="14" x="1392.5" y="1097.1279">23</text><text fill="#000000" font-family="sans-serif" font-size="13" lengthAdjust="spacing" textLength="328" x="1410.5" y="1097.1279">new MinimalBackboneNetwork(mstEdges, totalDistance)</text><polygon fill="#181818" points="1396.5,1129.6816,1386.5,1133.6816,1396.5,1137.6816,1392.5,1133.6816" style="stroke:#181818;stroke-width:1.0;"/><line style="stroke:#181818;stroke-width:1.0;stroke-dasharray:2.0,2.0;" x1="1390.5" x2="1754.5" y1="1133.6816" y2="1133.6816"/><text fill="#000000" font-family="sans-serif" font-size="13" font-weight="bold" lengthAdjust="spacing" textLength="14" x="1402.5" y="1128.4189">24</text><text fill="#000000" font-family="sans-serif" font-size="13" lengthAdjust="spacing" textLength="103" x="1420.5" y="1128.4189">backboneNetwork</text><polygon fill="#181818" points="505.5,1160.9727,495.5,1164.9727,505.5,1168.9727,501.5,1164.9727" style="stroke:#181818;stroke-width:1.0;"/><line style="stroke:#181818;stroke-width:1.0;stroke-dasharray:2.0,2.0;" x1="499.5" x2="1379.5" y1="1164.9727" y2="1164.9727"/><text fill="#000000" font-family="sans-serif" font-size="13" font-weight="bold" lengthAdjust="spacing" textLength="14" x="511.5" y="1159.71">25</text><text fill="#000000" font-family="sans-serif" font-size="13" lengthAdjust="spacing" textLength="150" x="529.5" y="1159.71">MinimalBackboneNetwork</text><polygon fill="#181818" points="2586,1192.2637,2596,1196.2637,2586,1200.2637,2590,1196.2637" style="stroke:#181818;stroke-width:1.0;"/><line style="stroke:#181818;stroke-width:1.0;" x1="494.5" x2="2592" y1="1196.2637" y2="1196.2637"/><text fill="#000000" font-family="sans-serif" font-size="13" font-weight="bold" lengthAdjust="spacing" textLength="14" x="501.5" y="1191.001">26</text><text fill="#000000" font-family="sans-serif" font-size="13" lengthAdjust="spacing" textLength="112" x="519.5" y="1191.001">stopMeasurement()</text><line style="stroke:#181818;stroke-width:1.0;" x1="2608" x2="2650" y1="1227.5547" y2="1227.5547"/><line style="stroke:#181818;stroke-width:1.0;" x1="2650" x2="2650" y1="1227.5547" y2="1240.5547"/><line style="stroke:#181818;stroke-width:1.0;" x1="2609" x2="2650" y1="1240.5547" y2="1240.5547"/><polygon fill="#181818" points="2619,1236.5547,2609,1240.5547,2619,1244.5547,2615,1240.5547" style="stroke:#181818;stroke-width:1.0;"/><text fill="#000000" font-family="sans-serif" font-size="13" font-weight="bold" lengthAdjust="spacing" textLength="14" x="2615" y="1222.292">27</text><text fill="#000000" font-family="sans-serif" font-size="13" lengthAdjust="spacing" textLength="176" x="2633" y="1222.292">calculatePerformanceMetrics()</text><polygon fill="#181818" points="505.5,1267.8457,495.5,1271.8457,505.5,1275.8457,501.5,1271.8457" style="stroke:#181818;stroke-width:1.0;"/><line style="stroke:#181818;stroke-width:1.0;stroke-dasharray:2.0,2.0;" x1="499.5" x2="2592" y1="1271.8457" y2="1271.8457"/><text fill="#000000" font-family="sans-serif" font-size="13" font-weight="bold" lengthAdjust="spacing" textLength="14" x="511.5" y="1266.583">28</text><text fill="#000000" font-family="sans-serif" font-size="13" lengthAdjust="spacing" textLength="116" x="529.5" y="1266.583">PerformanceMetrics</text><polygon fill="#181818" points="1954,1299.1367,1964,1303.1367,1954,1307.1367,1958,1303.1367" style="stroke:#181818;stroke-width:1.0;"/><line style="stroke:#181818;stroke-width:1.0;" x1="494.5" x2="1960" y1="1303.1367" y2="1303.1367"/><text fill="#000000" font-family="sans-serif" font-size="13" font-weight="bold" lengthAdjust="spacing" textLength="14" x="501.5" y="1297.874">29</text><text fill="#000000" font-family="sans-serif" font-size="13" lengthAdjust="spacing" textLength="303" x="519.5" y="1297.874">generateDOT(backboneNetwork, stationCoordinates)</text><polygon fill="#181818" points="1771.5,1330.4277,1761.5,1334.4277,1771.5,1338.4277,1767.5,1334.4277" style="stroke:#181818;stroke-width:1.0;"/><line style="stroke:#181818;stroke-width:1.0;" x1="1765.5" x2="1965" y1="1334.4277" y2="1334.4277"/><text fill="#000000" font-family="sans-serif" font-size="13" font-weight="bold" lengthAdjust="spacing" textLength="14" x="1777.5" y="1329.165">30</text><text fill="#000000" font-family="sans-serif" font-size="13" lengthAdjust="spacing" textLength="63" x="1795.5" y="1329.165">getEdges()</text><polygon fill="#181818" points="1954,1361.7188,1964,1365.7188,1954,1369.7188,1958,1365.7188" style="stroke:#181818;stroke-width:1.0;"/><line style="stroke:#181818;stroke-width:1.0;stroke-dasharray:2.0,2.0;" x1="1755.5" x2="1960" y1="1365.7188" y2="1365.7188"/><text fill="#000000" font-family="sans-serif" font-size="13" font-weight="bold" lengthAdjust="spacing" textLength="14" x="1762.5" y="1360.4561">31</text><text fill="#000000" font-family="sans-serif" font-size="13" lengthAdjust="spacing" textLength="49" x="1780.5" y="1360.4561">edgeList</text><polygon fill="#181818" points="1171.5,1393.0098,1161.5,1397.0098,1171.5,1401.0098,1167.5,1397.0098" style="stroke:#181818;stroke-width:1.0;"/><line style="stroke:#181818;stroke-width:1.0;" x1="1165.5" x2="1965" y1="1397.0098" y2="1397.0098"/><text fill="#000000" font-family="sans-serif" font-size="13" font-weight="bold" lengthAdjust="spacing" textLength="14" x="1177.5" y="1391.7471">32</text><text fill="#000000" font-family="sans-serif" font-size="13" lengthAdjust="spacing" textLength="136" x="1195.5" y="1391.7471">getStationCoordinates()</text><polygon fill="#181818" points="1954,1424.3008,1964,1428.3008,1954,1432.3008,1958,1428.3008" style="stroke:#181818;stroke-width:1.0;"/><line style="stroke:#181818;stroke-width:1.0;stroke-dasharray:2.0,2.0;" x1="1155.5" x2="1960" y1="1428.3008" y2="1428.3008"/><text fill="#000000" font-family="sans-serif" font-size="13" font-weight="bold" lengthAdjust="spacing" textLength="14" x="1162.5" y="1423.0381">33</text><text fill="#000000" font-family="sans-serif" font-size="13" lengthAdjust="spacing" textLength="67" x="1180.5" y="1423.0381">coordinates</text><line style="stroke:#181818;stroke-width:1.0;" x1="1976" x2="2018" y1="1459.5918" y2="1459.5918"/><line style="stroke:#181818;stroke-width:1.0;" x1="2018" x2="2018" y1="1459.5918" y2="1472.5918"/><line style="stroke:#181818;stroke-width:1.0;" x1="1977" x2="2018" y1="1472.5918" y2="1472.5918"/><polygon fill="#181818" points="1987,1468.5918,1977,1472.5918,1987,1476.5918,1983,1472.5918" style="stroke:#181818;stroke-width:1.0;"/><text fill="#000000" font-family="sans-serif" font-size="13" font-weight="bold" lengthAdjust="spacing" textLength="14" x="1983" y="1454.3291">34</text><text fill="#000000" font-family="sans-serif" font-size="13" lengthAdjust="spacing" textLength="111" x="2001" y="1454.3291">createDOTHeader()</text><line style="stroke:#181818;stroke-width:1.0;" x1="1976" x2="2018" y1="1503.8828" y2="1503.8828"/><line style="stroke:#181818;stroke-width:1.0;" x1="2018" x2="2018" y1="1503.8828" y2="1516.8828"/><line style="stroke:#181818;stroke-width:1.0;" x1="1977" x2="2018" y1="1516.8828" y2="1516.8828"/><polygon fill="#181818" points="1987,1512.8828,1977,1516.8828,1987,1520.8828,1983,1516.8828" style="stroke:#181818;stroke-width:1.0;"/><text fill="#000000" font-family="sans-serif" font-size="13" font-weight="bold" lengthAdjust="spacing" textLength="14" x="1983" y="1498.6201">35</text><text fill="#000000" font-family="sans-serif" font-size="13" lengthAdjust="spacing" textLength="174" x="2001" y="1498.6201">createDOTNodes(coordinates)</text><line style="stroke:#181818;stroke-width:1.0;" x1="1976" x2="2018" y1="1548.1738" y2="1548.1738"/><line style="stroke:#181818;stroke-width:1.0;" x1="2018" x2="2018" y1="1548.1738" y2="1561.1738"/><line style="stroke:#181818;stroke-width:1.0;" x1="1977" x2="2018" y1="1561.1738" y2="1561.1738"/><polygon fill="#181818" points="1987,1557.1738,1977,1561.1738,1987,1565.1738,1983,1561.1738" style="stroke:#181818;stroke-width:1.0;"/><text fill="#000000" font-family="sans-serif" font-size="13" font-weight="bold" lengthAdjust="spacing" textLength="14" x="1983" y="1542.9111">36</text><text fill="#000000" font-family="sans-serif" font-size="13" lengthAdjust="spacing" textLength="156" x="2001" y="1542.9111">createDOTEdges(edgeList)</text><line style="stroke:#181818;stroke-width:1.0;" x1="1976" x2="2018" y1="1592.4648" y2="1592.4648"/><line style="stroke:#181818;stroke-width:1.0;" x1="2018" x2="2018" y1="1592.4648" y2="1605.4648"/><line style="stroke:#181818;stroke-width:1.0;" x1="1977" x2="2018" y1="1605.4648" y2="1605.4648"/><polygon fill="#181818" points="1987,1601.4648,1977,1605.4648,1987,1609.4648,1983,1605.4648" style="stroke:#181818;stroke-width:1.0;"/><text fill="#000000" font-family="sans-serif" font-size="13" font-weight="bold" lengthAdjust="spacing" textLength="14" x="1983" y="1587.2021">37</text><text fill="#000000" font-family="sans-serif" font-size="13" lengthAdjust="spacing" textLength="107" x="2001" y="1587.2021">createDOTFooter()</text><line style="stroke:#181818;stroke-width:1.0;" x1="1976" x2="2018" y1="1636.7559" y2="1636.7559"/><line style="stroke:#181818;stroke-width:1.0;" x1="2018" x2="2018" y1="1636.7559" y2="1649.7559"/><line style="stroke:#181818;stroke-width:1.0;" x1="1977" x2="2018" y1="1649.7559" y2="1649.7559"/><polygon fill="#181818" points="1987,1645.7559,1977,1649.7559,1987,1653.7559,1983,1649.7559" style="stroke:#181818;stroke-width:1.0;"/><text fill="#000000" font-family="sans-serif" font-size="13" font-weight="bold" lengthAdjust="spacing" textLength="14" x="1983" y="1631.4932">38</text><text fill="#000000" font-family="sans-serif" font-size="13" lengthAdjust="spacing" textLength="157" x="2001" y="1631.4932">saveToFile("backbone.dot")</text><polygon fill="#181818" points="505.5,1677.0469,495.5,1681.0469,505.5,1685.0469,501.5,1681.0469" style="stroke:#181818;stroke-width:1.0;"/><line style="stroke:#181818;stroke-width:1.0;stroke-dasharray:2.0,2.0;" x1="499.5" x2="1970" y1="1681.0469" y2="1681.0469"/><text fill="#000000" font-family="sans-serif" font-size="13" font-weight="bold" lengthAdjust="spacing" textLength="14" x="511.5" y="1675.7842">39</text><text fill="#000000" font-family="sans-serif" font-size="13" lengthAdjust="spacing" textLength="88" x="529.5" y="1675.7842">"backbone.dot"</text><polygon fill="#181818" points="2170,1708.3379,2180,1712.3379,2170,1716.3379,2174,1712.3379" style="stroke:#181818;stroke-width:1.0;"/><line style="stroke:#181818;stroke-width:1.0;" x1="494.5" x2="2176" y1="1712.3379" y2="1712.3379"/><text fill="#000000" font-family="sans-serif" font-size="13" font-weight="bold" lengthAdjust="spacing" textLength="14" x="501.5" y="1707.0752">40</text><text fill="#000000" font-family="sans-serif" font-size="13" lengthAdjust="spacing" textLength="271" x="519.5" y="1707.0752">generateSVG("backbone.dot", "backbone.svg")</text><line style="stroke:#181818;stroke-width:1.0;" x1="2192" x2="2234" y1="1743.6289" y2="1743.6289"/><line style="stroke:#181818;stroke-width:1.0;" x1="2234" x2="2234" y1="1743.6289" y2="1756.6289"/><line style="stroke:#181818;stroke-width:1.0;" x1="2193" x2="2234" y1="1756.6289" y2="1756.6289"/><polygon fill="#181818" points="2203,1752.6289,2193,1756.6289,2203,1760.6289,2199,1756.6289" style="stroke:#181818;stroke-width:1.0;"/><text fill="#000000" font-family="sans-serif" font-size="13" font-weight="bold" lengthAdjust="spacing" textLength="14" x="2199" y="1738.3662">41</text><text fill="#000000" font-family="sans-serif" font-size="13" lengthAdjust="spacing" textLength="369" x="2217" y="1738.3662">executeCommand("neato -Tsvg backbone.dot -o backbone.svg")</text><line style="stroke:#181818;stroke-width:1.0;" x1="2192" x2="2234" y1="1787.9199" y2="1787.9199"/><line style="stroke:#181818;stroke-width:1.0;" x1="2234" x2="2234" y1="1787.9199" y2="1800.9199"/><line style="stroke:#181818;stroke-width:1.0;" x1="2193" x2="2234" y1="1800.9199" y2="1800.9199"/><polygon fill="#181818" points="2203,1796.9199,2193,1800.9199,2203,1804.9199,2199,1800.9199" style="stroke:#181818;stroke-width:1.0;"/><text fill="#000000" font-family="sans-serif" font-size="13" font-weight="bold" lengthAdjust="spacing" textLength="14" x="2199" y="1782.6572">42</text><text fill="#000000" font-family="sans-serif" font-size="13" lengthAdjust="spacing" textLength="118" x="2217" y="1782.6572">validateSVGOutput()</text><polygon fill="#181818" points="505.5,1828.2109,495.5,1832.2109,505.5,1836.2109,501.5,1832.2109" style="stroke:#181818;stroke-width:1.0;"/><line style="stroke:#181818;stroke-width:1.0;stroke-dasharray:2.0,2.0;" x1="499.5" x2="2186" y1="1832.2109" y2="1832.2109"/><text fill="#000000" font-family="sans-serif" font-size="13" font-weight="bold" lengthAdjust="spacing" textLength="14" x="511.5" y="1826.9482">43</text><text fill="#000000" font-family="sans-serif" font-size="13" lengthAdjust="spacing" textLength="22" x="529.5" y="1826.9482">true</text><line style="stroke:#181818;stroke-width:1.0;" x1="494.5" x2="536.5" y1="1863.502" y2="1863.502"/><line style="stroke:#181818;stroke-width:1.0;" x1="536.5" x2="536.5" y1="1863.502" y2="1876.502"/><line style="stroke:#181818;stroke-width:1.0;" x1="495.5" x2="536.5" y1="1876.502" y2="1876.502"/><polygon fill="#181818" points="505.5,1872.502,495.5,1876.502,505.5,1880.502,501.5,1876.502" style="stroke:#181818;stroke-width:1.0;"/><text fill="#000000" font-family="sans-serif" font-size="13" font-weight="bold" lengthAdjust="spacing" textLength="14" x="501.5" y="1858.2393">44</text><text fill="#000000" font-family="sans-serif" font-size="13" lengthAdjust="spacing" textLength="97" x="519.5" y="1858.2393">compileResults()</text><polygon fill="#181818" points="87.5,1903.793,77.5,1907.793,87.5,1911.793,83.5,1907.793" style="stroke:#181818;stroke-width:1.0;"/><line style="stroke:#181818;stroke-width:1.0;stroke-dasharray:2.0,2.0;" x1="81.5" x2="488.5" y1="1907.793" y2="1907.793"/><text fill="#000000" font-family="sans-serif" font-size="13" font-weight="bold" lengthAdjust="spacing" textLength="14" x="93.5" y="1902.5303">45</text><text fill="#000000" font-family="sans-serif" font-size="13" lengthAdjust="spacing" textLength="366" x="111.5" y="1902.5303">displayResults(backboneNetwork, performanceMetrics, svgFile)</text><!--SRC=[fLTBR-Cs4BxxLn0-oO0Je3qAHO5iNWsmoQPhhwyBXXhRR2ZIe2XddL_V8KLQ9ANOAQgBHNeUttpp86Mu4K1-B6uVVlkTN917BdbD1Vb2sUkBaa2UmBmf_KgAnSriCcbUkTnHJMjIAwdOLgiQYD4jHF_iK9LkO64EQ5W3CrHkH2pGR6cbthZSa3KL3Kmcj3LAjlKBQ7ndHcaoVP1hJHkqp4ohWJmBAYNeAQ5DU9-WCSCPtr5foBGCW3tUQoMDLa9udNwPgWb5Az3bTyg5L_pgTfnIzvegR3JTRMFvUxlXnDrRAat5HcbkjdNvh7bz5LPT6BYJIcjeMc5Adu8i8ASJzZ9CW7HGfAsy-RQyumBkmuPJmatSI5NW5x3MQZZGA_v-wpUwI5PXcOKZgJYy8r_7IAxyZbCBYyd4fuXS_1anNnAcwbrh80kmcDcaypqr4ETfGl3frzPMS52InY2kHw0D5aSDqg0DAtwqqqCPMkdIMXARUq_k7TRnzM9LJD6kuKh-DEgdVxrapNwQMVU5GVpJBMFJ6cY5zcmkF3Bx75-4KZkonZ87ohR4ExAjedHr54ejkpoLX5RLeXCllDf3DIUIrZ0dlwuLwi_9mVtE4aD7w5sHndzfm0wJ0SLLLK6F0MHr3ZrJc6bsFe10pPuANY6IwwDUiKRs5tqqHaMBYYCmoM1sbfV_PV0yFtsSdw1eWE-bvQAwglwX32GxV4KCKLryuDmxfa7h2zem7_lAUYqVKKw-Who6H_h33gQ-LnVBmisyh0NSz1fWiRjHr1imdldcq-7wEhGKVMo_WuXZn70iftV0jPr7XxzRQA68J5okkRPSVzI4RrjiKRBd3JSGEgiXVs3962h2EYc75096wAPPMzzM6x1Zf8CmEw63jMg5byfocmgcDIaC0HGCfTSG2M-1dqHod7fVRiOwQmhKzV7C1hedgdzOY9szWT1W8nqJGTb5D90T9McfahG-h9-KMNMPAgoLOHnnB-RhqJvDVJ8gM2kGXwND_eqV556AWdWukKgNaV7pkgYRZgbvLqmtWxbpPFrugcU4lwGMFuAVDVuudBpzNV-UEMBLxZCdR00JDb8hHqwVGMCnr9Q2Hp2QitWazBfPC4EjF91J9trtyx7DuEv3WEiY8tKU6ieTcboYL9D5wkzF0MktJCi0kwthil-GNLl2urEkzp2Oen7AJqzKrkkSyXN8OdXvSLJz1VQ4YDoSa7rI5I9YEOTdj3hE0X6VKhbJoYIWJYWrT8-jx2vXqv3soqgPwT1JLdQfU5volY162gw_EFT5jrZTP-xdaVrclyblbz7jEy3ijt8ltKKURrCrDabLJ2NofCZ54ksIs2cvK6J4wMdZuQw68Nnh3Lu7Yd6jZ3ttFPXn5WKrmbl-aO0f- -u-XaALn-9sNdVV5wMzpUq4FGJXGNFl1lC36tw_iJM1NxCHlkZ3ury0]--></g></svg>