<svg xmlns="http://www.w3.org/2000/svg" xmlns:xlink="http://www.w3.org/1999/xlink" contentStyleType="text/css" data-diagram-type="SEQUENCE" height="414px" preserveAspectRatio="none" style="width:381px;height:414px;background:#FFFFFF;" version="1.1" viewBox="0 0 381 414" width="381px" zoomAndPan="magnify"><title>USEI15 - Risk-Aware Shortest Paths</title><defs/><g><text fill="#000000" font-family="sans-serif" font-size="14" font-weight="bold" lengthAdjust="spacing" textLength="239.6338" x="70.0393" y="30.1074">USEI15 - Risk-Aware Shortest Paths</text><g><title>System</title><rect fill="#FFFFFF" height="31.291" style="stroke:#181818;stroke-width:1;" width="10" x="340.3745" y="156.5332"/></g><g><title>System</title><rect fill="#FFFFFF" height="31.291" style="stroke:#181818;stroke-width:1;" width="10" x="340.3745" y="219.1152"/></g><g><title>System</title><rect fill="#FFFFFF" height="31.291" style="stroke:#181818;stroke-width:1;" width="10" x="340.3745" y="281.6973"/></g><g><title>RoutePlanner</title><rect fill="#000000" fill-opacity="0.00000" height="207.7461" width="8" x="46.8066" y="123.2422"/><line style="stroke:#181818;stroke-width:0.5;stroke-dasharray:5,5;" x1="50" x2="50" y1="123.2422" y2="330.9883"/></g><g><title>System</title><rect fill="#000000" fill-opacity="0.00000" height="207.7461" width="8" x="341.3745" y="123.2422"/><line style="stroke:#181818;stroke-width:0.5;stroke-dasharray:5,5;" x1="345.0366" x2="345.0366" y1="123.2422" y2="330.9883"/></g><g class="participant participant-head"><text fill="#000000" font-family="sans-serif" font-size="14" lengthAdjust="spacing" textLength="85.6133" x="5" y="119.7285">RoutePlanner</text><ellipse cx="50.8066" cy="53.1211" fill="#E3E3E3" rx="8" ry="8" style="stroke:#181818;stroke-width:0.5;"/><path d="M50.8066,61.1211 L50.8066,88.1211 M37.8066,69.1211 L63.8066,69.1211 M50.8066,88.1211 L37.8066,103.1211 M50.8066,88.1211 L63.8066,103.1211" fill="none" style="stroke:#181818;stroke-width:0.5;"/></g><g class="participant participant-tail"><text fill="#000000" font-family="sans-serif" font-size="14" lengthAdjust="spacing" textLength="85.6133" x="5" y="345.0957">RoutePlanner</text><ellipse cx="50.8066" cy="357.1094" fill="#E3E3E3" rx="8" ry="8" style="stroke:#181818;stroke-width:0.5;"/><path d="M50.8066,365.1094 L50.8066,392.1094 M37.8066,373.1094 L63.8066,373.1094 M50.8066,392.1094 L37.8066,407.1094 M50.8066,392.1094 L63.8066,407.1094" fill="none" style="stroke:#181818;stroke-width:0.5;"/></g><g class="participant participant-head"><rect fill="#E3E3E3" height="32.6211" rx="2.5" ry="2.5" style="stroke:#181818;stroke-width:0.5;" width="60.6758" x="315.0366" y="89.6211"/><text fill="#000000" font-family="sans-serif" font-size="14" lengthAdjust="spacing" textLength="46.6758" x="322.0366" y="111.7285">System</text></g><g class="participant participant-tail"><rect fill="#E3E3E3" height="32.6211" rx="2.5" ry="2.5" style="stroke:#181818;stroke-width:0.5;" width="60.6758" x="315.0366" y="329.9883"/><text fill="#000000" font-family="sans-serif" font-size="14" lengthAdjust="spacing" textLength="46.6758" x="322.0366" y="352.0957">System</text></g><g><title>System</title><rect fill="#FFFFFF" height="31.291" style="stroke:#181818;stroke-width:1;" width="10" x="340.3745" y="156.5332"/></g><g><title>System</title><rect fill="#FFFFFF" height="31.291" style="stroke:#181818;stroke-width:1;" width="10" x="340.3745" y="219.1152"/></g><g><title>System</title><rect fill="#FFFFFF" height="31.291" style="stroke:#181818;stroke-width:1;" width="10" x="340.3745" y="281.6973"/></g><g class="message"><polygon fill="#181818" points="328.3745,152.5332,338.3745,156.5332,328.3745,160.5332,332.3745,156.5332" style="stroke:#181818;stroke-width:1;"/><line style="stroke:#181818;stroke-width:1;" x1="50.8066" x2="334.3745" y1="156.5332" y2="156.5332"/><text fill="#000000" font-family="sans-serif" font-size="13" font-weight="bold" lengthAdjust="spacing" textLength="7.23" x="57.8066" y="151.2705">1</text><text fill="#000000" font-family="sans-serif" font-size="13" lengthAdjust="spacing" textLength="201.5889" x="69.0366" y="151.2705">requestRiskAwareRoutingModule()</text></g><g class="message"><polygon fill="#181818" points="61.8066,183.8242,51.8066,187.8242,61.8066,191.8242,57.8066,187.8242" style="stroke:#181818;stroke-width:1;"/><line style="stroke:#181818;stroke-width:1;stroke-dasharray:2,2;" x1="55.8066" x2="344.3745" y1="187.8242" y2="187.8242"/><text fill="#000000" font-family="sans-serif" font-size="13" font-weight="bold" lengthAdjust="spacing" textLength="7.23" x="67.8066" y="182.5615">2</text><text fill="#000000" font-family="sans-serif" font-size="13" lengthAdjust="spacing" textLength="106.9326" x="79.0366" y="182.5615">displayRoutingUI()</text></g><g class="message"
><polygon fill="#181818" points="328.3745,215.1152,338.3745,219.1152,328.3745,223.1152,332.3745,219.1152" style="stroke:#181818;stroke-width:1;"/><line style="stroke:#181818;stroke-width:1;" x1="50.8066" x2="334.3745" y1="219.1152" y2="219.1152"/><text fill="#000000" font-family="sans-serif" font-size="13" font-weight="bold" lengthAdjust="spacing" textLength="7.23" x="57.8066" y="213.8525">3</text><text fill="#000000" font-family="sans-serif" font-size="13" lengthAdjust="spacing" textLength="255.8042" x="69.0366" y="213.8525">computeShortestPath(departStid, targetStid)</text></g><g class="message"
><polygon fill="#181818" points="61.8066,246.4063,51.8066,250.4063,61.8066,254.4063,57.8066,250.4063" style="stroke:#181818;stroke-width:1;"/><line style="stroke:#181818;stroke-width:1;stroke-dasharray:2,2;" x1="55.8066" x2="344.3745" y1="250.4063" y2="250.4063"/><text fill="#000000" font-family="sans-serif" font-size="13" font-weight="bold" lengthAdjust="spacing" textLength="7.23" x="67.8066" y="245.1436">4</text><text fill="#000000" font-family="sans-serif" font-size="13" lengthAdjust="spacing" textLength="254.3379" x="79.0366" y="245.1436">displayRoutingResult(pathOrNegativeCycle)</text></g><g class="message"
><polygon fill="#181818" points="328.3745,277.6973,338.3745,281.6973,328.3745,285.6973,332.3745,281.6973" style="stroke:#181818;stroke-width:1;"/><line style="stroke:#181818;stroke-width:1;" x1="50.8066" x2="334.3745" y1="281.6973" y2="281.6973"/><text fill="#000000" font-family="sans-serif" font-size="13" font-weight="bold" lengthAdjust="spacing" textLength="7.23" x="57.8066" y="276.4346">5</text><text fill="#000000" font-family="sans-serif" font-size="13" lengthAdjust="spacing" textLength="139.4453" x="69.0366" y="276.4346">requestAnalysisReport()</text></g><g class="message"><polygon fill="#181818" points="61.8066,308.9883,51.8066,312.9883,61.8066,316.9883,57.8066,312.9883" style="stroke:#181818;stroke-width:1;"/><line style="stroke:#181818;stroke-width:1;stroke-dasharray:2,2;" x1="55.8066" x2="344.3745" y1="312.9883" y2="312.9883"/><text fill="#000000" font-family="sans-serif" font-size="13" font-weight="bold" lengthAdjust="spacing" textLength="7.23" x="67.8066" y="307.7256">6</text><text fill="#000000" font-family="sans-serif" font-size="13" lengthAdjust="spacing" textLength="241.3062" x="79.0366" y="307.7256">displayTemporalComplexityReport(report)</text></g><!--SRC=[fP0zJyD038Rt_0gFGI830qi7fAfYw42f4le3pCKafzmNTpvA_ZrEIAK8mG3SSfO_7hz-MRCXE3Nt-vjRgA3MQQYsPum4JUyZKs8u8lUfADAWNS285gntNlNHMmAEcLQLW6h0ZXeU1Hf9CRhEh1jIZwq_QzV12vf4HO6PlSlscQB4Yds4scUceq7d92TJh9KEw1YQCJ7PebWtG7Mtv3UoxpMBtkc4-OAfJpOz-3ORAgycl7v3fWi8v7s6K0bcZTr0grCmE2wCqrxcM_fA-56AyZP8vMBXv63PqdHCmxgz1iROqHp_IrPDAHikW-0Vuu4w51BjHcNeLseNuxOEpPXqgYc8x3yQzaHMfj7in053xvh71HVdxpjT7m00]--></g></svg>