<svg xmlns="http://www.w3.org/2000/svg" xmlns:xlink="http://www.w3.org/1999/xlink" contentStyleType="text/css" height="856px" preserveAspectRatio="none" style="width:651px;height:856px;background:#FFFFFF;" version="1.1" viewBox="0 0 651 856" width="651px" zoomAndPan="magnify"><defs/><g><!--class TrainCompositionService--><g id="elem_TrainCompositionService"><rect codeLine="6" fill="#F1F1F1" height="108.4414" id="TrainCompositionService" rx="2.5" ry="2.5" style="stroke:#181818;stroke-width:0.5;" width="344.5205" x="85.96" y="7"/><text fill="#000000" font-family="sans-serif" font-size="14" lengthAdjust="spacing" textLength="168.9023" x="173.7691" y="25.5352">TrainCompositionService</text><line style="stroke:#181818;stroke-width:0.5;" x1="86.96" x2="429.4805" y1="33.4883" y2="33.4883"/><line style="stroke:#181818;stroke-width:0.5;" x1="86.96" x2="429.4805" y1="41.4883" y2="41.4883"/><ellipse cx="96.96" cy="55.2324" fill="#84BE84" rx="3" ry="3" style="stroke:#038048;stroke-width:1.0;"/><text fill="#000000" font-family="sans-serif" font-size="14" lengthAdjust="spacing" textLength="318.5205" x="105.96" y="59.0234">assembleTrain(locoId, wagonIds, routeId, date)</text><rect fill="#F24D5C" height="6" style="stroke:#C82930;stroke-width:1.0;" width="6" x="93.96" y="68.7207"/><text fill="#000000" font-family="sans-serif" font-size="14" lengthAdjust="spacing" textLength="146.0361" x="105.96" y="75.5117">validatePhysics(Train)</text><rect fill="#F24D5C" height="6" style="stroke:#C82930;stroke-width:1.0;" width="6" x="93.96" y="85.209"/><text fill="#000000" font-family="sans-serif" font-size="14" lengthAdjust="spacing" textLength="237.583" x="105.96" y="92">validateInfrastructure(Train, Route)</text><rect fill="#F24D5C" height="6" style="stroke:#C82930;stroke-width:1.0;" width="6" x="93.96" y="101.6973"/><text fill="#000000" font-family="sans-serif" font-size="14" lengthAdjust="spacing" textLength="258.3916" x="105.96" y="108.4883">persistAssignment(Train, Route, Date)</text></g><!--class Train--><g id="elem_Train"><rect codeLine="13" fill="#F1F1F1" height="141.418" id="Train" rx="2.5" ry="2.5" style="stroke:#181818;stroke-width:0.5;" width="246.582" x="19.93" y="530.35"/><text fill="#000000" font-family="sans-serif" font-size="14" lengthAdjust="spacing" textLength="35.0479" x="125.6971" y="548.8852">Train</text><line style="stroke:#181818;stroke-width:0.5;" x1="20.93" x2="265.512" y1="556.8383" y2="556.8383"/><text fill="#000000" font-family="sans-serif" font-size="14" lengthAdjust="spacing" textLength="44.2764" x="25.93" y="574.3734">trainId</text><text fill="#000000" font-family="sans-serif" font-size="14" lengthAdjust="spacing" textLength="88.8262" x="25.93" y="590.8617">totalMass_kg</text><text fill="#000000" font-family="sans-serif" font-size="14" lengthAdjust="spacing" textLength="97.5283" x="25.93" y="607.35">totalLength_m</text><line style="stroke:#181818;stroke-width:0.5;" x1="20.93" x2="265.512" y1="614.3031" y2="614.3031"/><ellipse cx="30.93" cy="628.0473" fill="#84BE84" rx="3" ry="3" style="stroke:#038048;stroke-width:1.0;"/><text fill="#000000" font-family="sans-serif" font-size="14" lengthAdjust="spacing" textLength="137.2588" x="39.93" y="631.8383">calculateTotalMass()</text><ellipse cx="30.93" cy="644.5355" fill="#84BE84" rx="3" ry="3" style="stroke:#038048;stroke-width:1.0;"/><text fill="#000000" font-family="sans-serif" font-size="14" lengthAdjust="spacing" textLength="149.8027" x="39.93" y="648.3266">calculateTotalLength()</text><ellipse cx="30.93" cy="661.0238" fill="#84BE84" rx="3" ry="3" style="stroke:#038048;stroke-width:1.0;"/><text fill="#000000" font-family="sans-serif" font-size="14" lengthAdjust="spacing" textLength="220.582" x="39.93" y="664.8148">validateTractiveEffort() : boolean</text></g><!--class Locomotive--><g id="elem_Locomotive"><rect codeLine="22" fill="#F1F1F1" height="100.4414" id="Locomotive" rx="2.5" ry="2.5" style="stroke:#181818;stroke-width:0.5;" width="116.9863" x="27.73" y="748.77"/><text fill="#000000" font-family="sans-serif" font-size="14" lengthAdjust="spacing" textLength="77.834" x="47.3062" y="767.3052">Locomotive</text><line style="stroke:#181818;stroke-width:0.5;" x1="28.73" x2="143.7163" y1="775.2583" y2="775.2583"/><text fill="#000000" font-family="sans-serif" font-size="14" lengthAdjust="spacing" textLength="87.2607" x="33.73" y="792.7934">locomotiveId</text><text fill="#000000" font-family="sans-serif" font-size="14" lengthAdjust="spacing" textLength="104.9863" x="33.73" y="809.2817">tractiveEffort_N</text><text fill="#000000" font-family="sans-serif" font-size="14" lengthAdjust="spacing" textLength="67.6963" x="33.73" y="825.77">power_kw</text><text fill="#000000" font-family="sans-serif" font-size="14" lengthAdjust="spacing" textLength="96.8857" x="33.73" y="842.2583">tareWeight_kg</text></g><!--class Wagon--><g id="elem_Wagon"><rect codeLine="29" fill="#F1F1F1" height="100.4414" id="Wagon" rx="2.5" ry="2.5" style="stroke:#181818;stroke-width:0.5;" width="146.6885" x="292.87" y="748.77"/><text fill="#000000" font-family="sans-serif" font-size="14" lengthAdjust="spacing" textLength="45.7256" x="343.3514" y="767.3052">Wagon</text><line style="stroke:#181818;stroke-width:0.5;" x1="293.87" x2="438.5585" y1="775.2583" y2="775.2583"/><text fill="#000000" font-family="sans-serif" font-size="14" lengthAdjust="spacing" textLength="57.3809" x="298.87" y="792.7934">wagonId</text><text fill="#000000" font-family="sans-serif" font-size="14" lengthAdjust="spacing" textLength="96.8857" x="298.87" y="809.2817">tareWeight_kg</text><text fill="#000000" font-family="sans-serif" font-size="14" lengthAdjust="spacing" textLength="134.6885" x="298.87" y="825.77">payloadCapacity_kg</text><text fill="#000000" font-family="sans-serif" font-size="14" lengthAdjust="spacing" textLength="107.7207" x="298.87" y="842.2583">grossWeight_kg</text></g><!--class Route--><g id="elem_Route"><rect codeLine="36" fill="#F1F1F1" height="91.9531" id="Route" rx="2.5" ry="2.5" style="stroke:#181818;stroke-width:0.5;" width="248.0996" x="318.17" y="361.4"/><text fill="#000000" font-family="sans-serif" font-size="14" lengthAdjust="spacing" textLength="39.1768" x="422.6314" y="379.9352">Route</text><line style="stroke:#181818;stroke-width:0.5;" x1="319.17" x2="565.2696" y1="387.8883" y2="387.8883"/><text fill="#000000" font-family="sans-serif" font-size="14" lengthAdjust="spacing" textLength="48.8975" x="324.17" y="405.4234">routeId</text><text fill="#000000" font-family="sans-serif" font-size="14" lengthAdjust="spacing" textLength="137.9287" x="324.17" y="421.9117">maxSidingLength_m</text><line style="stroke:#181818;stroke-width:0.5;" x1="319.17" x2="565.2696" y1="428.8648" y2="428.8648"/><ellipse cx="329.17" cy="442.609" fill="#84BE84" rx="3" ry="3" style="stroke:#038048;stroke-width:1.0;"/><text fill="#000000" font-family="sans-serif" font-size="14" lengthAdjust="spacing" textLength="222.0996" x="338.17" y="446.4">validateCapacity(Train) : boolean</text></g><!--class ScheduledTrip--><g id="elem_ScheduledTrip"><rect codeLine="42" fill="#F1F1F1" height="83.9531" id="ScheduledTrip" rx="2.5" ry="2.5" style="stroke:#181818;stroke-width:0.5;" width="109.5898" x="88.42" y="196.44"/><text fill="#000000" font-family="sans-serif" font-size="14" lengthAdjust="spacing" textLength="96.7969" x="94.8165" y="214.9752">ScheduledTrip</text><line style="stroke:#181818;stroke-width:0.5;" x1="89.42" x2="197.0098" y1="222.9283" y2="222.9283"/><text fill="#000000" font-family="sans-serif" font-size="14" lengthAdjust="spacing" textLength="36.668" x="94.42" y="240.4634">tripId</text><text fill="#000000" font-family="sans-serif" font-size="14" lengthAdjust="spacing" textLength="97.5898" x="94.42" y="256.9517">departureDate</text><text fill="#000000" font-family="sans-serif" font-size="14" lengthAdjust="spacing" textLength="41.166" x="94.42" y="273.44">status</text></g><!--class RollingStockRepository--><g id="elem_RollingStockRepository"><rect codeLine="48" fill="#F1F1F1" height="91.9531" id="RollingStockRepository" rx="2.5" ry="2.5" style="stroke:#181818;stroke-width:0.5;" width="214.3164" x="233.06" y="192.44"/><text fill="#000000" font-family="sans-serif" font-size="14" lengthAdjust="spacing" textLength="155.8662" x="262.2851" y="210.9752">RollingStockRepository</text><line style="stroke:#181818;stroke-width:0.5;" x1="234.06" x2="446.3764" y1="218.9283" y2="218.9283"/><line style="stroke:#181818;stroke-width:0.5;" x1="234.06" x2="446.3764" y1="226.9283" y2="226.9283"/><ellipse cx="244.06" cy="240.6724" fill="#84BE84" rx="3" ry="3" style="stroke:#038048;stroke-width:1.0;"/><text fill="#000000" font-family="sans-serif" font-size="14" lengthAdjust="spacing" textLength="126.4922" x="253.06" y="244.4634">findLocomotive(id)</text><ellipse cx="244.06" cy="257.1607" fill="#84BE84" rx="3" ry="3" style="stroke:#038048;stroke-width:1.0;"/><text fill="#000000" font-family="sans-serif" font-size="14" lengthAdjust="spacing" textLength="129.1104" x="253.06" y="260.9517">findWagons(listIds)</text><ellipse cx="244.06" cy="273.649" fill="#84BE84" rx="3" ry="3" style="stroke:#038048;stroke-width:1.0;"/><text fill="#000000" font-family="sans-serif" font-size="14" lengthAdjust="spacing" textLength="188.3164" x="253.06" y="277.44">updateStatus(id, newStatus)</text></g><!--class TripRepository--><g id="elem_TripRepository"><rect codeLine="54" fill="#F1F1F1" height="58.9766" id="TripRepository" rx="2.5" ry="2.5" style="stroke:#181818;stroke-width:0.5;" width="161.8164" x="482.31" y="208.93"/><text fill="#000000" font-family="sans-serif" font-size="14" lengthAdjust="spacing" textLength="99.5654" x="513.4355" y="227.4652">TripRepository</text><line style="stroke:#181818;stroke-width:0.5;" x1="483.31" x2="643.1264" y1="235.4183" y2="235.4183"/><line style="stroke:#181818;stroke-width:0.5;" x1="483.31" x2="643.1264" y1="243.4183" y2="243.4183"/><ellipse cx="493.31" cy="257.1624" fill="#84BE84" rx="3" ry="3" style="stroke:#038048;stroke-width:1.0;"/><text fill="#000000" font-family="sans-serif" font-size="14" lengthAdjust="spacing" textLength="135.8164" x="502.31" y="260.9534">save(ScheduledTrip)</text></g><!--link TrainCompositionService to RollingStockRepository--><g id="link_TrainCompositionService_RollingStockRepository"><path codeLine="59" d="M283.27,115.74 C294.71,140.19 305.5772,163.4055 316.5072,186.7655 " fill="none" id="TrainCompositionService-to-RollingStockRepository" style="stroke:#181818;stroke-width:1.0;stroke-dasharray:7.0,7.0;"/><polygon fill="#181818" points="319.05,192.2,318.8588,182.353,316.931,187.6712,311.6128,185.7434,319.05,192.2" style="stroke:#181818;stroke-width:1.0;"/><text fill="#000000" font-family="sans-serif" font-size="13" lengthAdjust="spacing" textLength="28.5645" x="305.13" y="159.0084">uses</text></g><!--link TrainCompositionService to TripRepository--><g id="link_TrainCompositionService_TripRepository"><path codeLine="60" d="M351.39,115.74 C404.64,146.33 464.1377,180.5008 507.9077,205.6508 " fill="none" id="TrainCompositionService-to-TripRepository" style="stroke:#181818;stroke-width:1.0;stroke-dasharray:7.0,7.0;"/><polygon fill="#181818" points="513.11,208.64,507.2993,200.6879,508.7747,206.149,503.3136,207.6244,513.11,208.64" style="stroke:#181818;stroke-width:1.0;"/><text fill="#000000" font-family="sans-serif" font-size="13" lengthAdjust="spacing" textLength="28.5645" x="429.98" y="159.0084">uses</text></g><!--link TrainCompositionService to Train--><g id="link_TrainCompositionService_Train"><path codeLine="62" d="M159.2,115.88 C127.88,136.56 95.22,162.5 71.22,192.44 C34.58,238.15 32.54,256.92 21.22,314.4 C6,391.65 44.4162,468.759 83.1662,525.009 " fill="none" id="TrainCompositionService-to-Train" style="stroke:#181818;stroke-width:1.0;stroke-dasharray:7.0,7.0;"/><polygon fill="#181818" points="86.57,529.95,84.7583,520.2692,83.7335,525.8325,78.1702,524.8077,86.57,529.95" style="stroke:#181818;stroke-width:1.0;"/><text fill="#000000" font-family="sans-serif" font-size="13" lengthAdjust="spacing" textLength="112.5884" x="22.22" y="327.9684">creates aggregate</text></g><!--link TrainCompositionService to ScheduledTrip--><g id="link_TrainCompositionService_ScheduledTrip"><path codeLine="63" d="M191.47,115.62 C182.74,124.85 174.62,134.89 168.22,145.44 C158.95,160.73 154.3728,173.6254 150.6528,190.2154 " fill="none" id="TrainCompositionService-to-ScheduledTrip" style="stroke:#181818;stroke-width:1.0;stroke-dasharray:7.0,7.0;"/><polygon fill="#181818" points="149.34,196.07,155.2123,188.1633,150.434,191.1911,147.4061,186.4129,149.34,196.07" style="stroke:#181818;stroke-width:1.0;"/><text fill="#000000" font-family="sans-serif" font-size="13" lengthAdjust="spacing" textLength="121.9194" x="169.22" y="159.0084">creates assignment</text></g><!--reverse link Train to Locomotive--><g id="link_Train_Locomotive"><path codeLine="66" d="M36.7023,681.4121 C29.0423,690.4921 30.13,691.19 25.22,701.77 C17.89,717.56 22.81,733.86 32.42,748.46 " fill="none" id="Train-backto-Locomotive" style="stroke:#181818;stroke-width:1.0;"/><polygon fill="#181818" points="44.44,672.24,37.5138,674.2468,36.7023,681.4121,43.6285,679.4053,44.44,672.24" style="stroke:#181818;stroke-width:1.0;"/><text fill="#000000" font-family="sans-serif" font-size="13" lengthAdjust="spacing" textLength="73.2583" x="26.22" y="715.3384">powered by</text><text fill="#000000" font-family="sans-serif" font-size="13" lengthAdjust="spacing" textLength="8.2202" x="26.6542" y="692.3224">1</text><text fill="#000000" font-family="sans-serif" font-size="13" lengthAdjust="spacing" textLength="8.2202" x="16.3069" y="737.8896">1</text></g><!--link Train to Locomotive--><g id="link_Train_Locomotive"><path codeLine="70" d="M122.8,672.24 C115.45,697.5 109.0076,719.6793 102.2776,742.7893 " fill="none" id="Train-to-Locomotive" style="stroke:#181818;stroke-width:1.0;stroke-dasharray:7.0,7.0;"/><polygon fill="#181818" points="100.6,748.55,106.9569,741.0274,101.998,743.7494,99.2759,738.7905,100.6,748.55" style="stroke:#181818;stroke-width:1.0;"/><text fill="#000000" font-family="sans-serif" font-size="13" lengthAdjust="spacing" textLength="181.7715" x="114.01" y="715.3384">checks power against weight</text></g><!--reverse link Train to Wagon--><g id="link_Train_Wagon"><path codeLine="67" d="M276.3511,677.4232 C289.7011,687.1432 292.84,690.59 304.22,701.77 C317.97,715.28 330.2,732.36 340.09,748.38 " fill="none" id="Train-backto-Wagon" style="stroke:#181818;stroke-width:1.0;"/><polygon fill="#181818" points="266.65,670.36,269.1461,677.1253,276.3511,677.4232,273.8549,670.6579,266.65,670.36" style="stroke:#181818;stroke-width:1.0;"/><text fill="#000000" font-family="sans-serif" font-size="13" lengthAdjust="spacing" textLength="81.8784" x="319.8" y="715.3384">composed of</text><text fill="#000000" font-family="sans-serif" font-size="13" lengthAdjust="spacing" textLength="8.2202" x="274.4219" y="671.7038">1</text><text fill="#000000" font-family="sans-serif" font-size="13" lengthAdjust="spacing" textLength="22.7119" x="313.1493" y="738.1606">1..*</text></g><!--link Route to Train--><g id="link_Route_Train"><path codeLine="71" d="M371.36,453.8 C335.87,476.55 297.1712,501.362 257.5012,526.792 " fill="none" id="Route-to-Train" style="stroke:#181818;stroke-width:1.0;stroke-dasharray:7.0,7.0;"/><polygon fill="#181818" points="252.45,530.03,262.1856,528.5404,256.6594,527.3316,257.8682,521.8054,252.45,530.03" style="stroke:#181818;stroke-width:1.0;"/><text fill="#000000" font-family="sans-serif" font-size="13" lengthAdjust="spacing" textLength="87.0708" x="320.5" y="496.9184">checks length</text></g><!--link ScheduledTrip to Train--><g id="link_ScheduledTrip_Train"><path codeLine="74" d="M143.22,280.79 C143.22,341.66 143.22,450.13 143.22,524.18 " fill="none" id="ScheduledTrip-to-Train" style="stroke:#181818;stroke-width:1.0;"/><polygon fill="#181818" points="143.22,530.18,147.22,521.18,143.22,525.18,139.22,521.18,143.22,530.18" style="stroke:#181818;stroke-width:1.0;"/><text fill="#000000" font-family="sans-serif" font-size="13" lengthAdjust="spacing" textLength="138.7788" x="144.22" y="412.4384">assigns physical asset</text><text fill="#000000" font-family="sans-serif" font-size="13" lengthAdjust="spacing" textLength="8.2202" x="134.6251" y="301.019">1</text><text fill="#000000" font-family="sans-serif" font-size="13" lengthAdjust="spacing" textLength="8.2202" x="134.8188" y="519.6815">1</text></g><!--link ScheduledTrip to Route--><g id="link_ScheduledTrip_Route"><path codeLine="75" d="M198.42,274.41 C204.07,277.84 209.74,281.22 215.22,284.4 C260.59,310.72 306.7143,335.7183 349.1343,358.1183 " fill="none" id="ScheduledTrip-to-Route" style="stroke:#181818;stroke-width:1.0;"/><polygon fill="#181818" points="354.44,360.92,348.3492,353.1803,350.0186,358.5853,344.6136,360.2546,354.44,360.92" style="stroke:#181818;stroke-width:1.0;"/><text fill="#000000" font-family="sans-serif" font-size="13" lengthAdjust="spacing" textLength="133.6372" x="296.59" y="327.9684">executes logical path</text><text fill="#000000" font-family="sans-serif" font-size="13" lengthAdjust="spacing" textLength="8.2202" x="206.0198" y="275.649">1</text><text fill="#000000" font-family="sans-serif" font-size="13" lengthAdjust="spacing" textLength="8.2202" x="332.976" y="350.5863">1</text></g><!--SRC=[XLHBRnen4BxlhnZbaYK1r1xB8LAKz814gmXeSqIEFUnQU6tBza9MLVzx_LfW4v9oMNlyFMR6OshE42WtL61HXpKssdNGeAiLiqLn3OuxWV0WYBNmo4bbI0CJ-BLQF7tvDeDxQx5vyG0YMTZmIiBQ42wBWaPAt3oeHYlB7LToXMRFASAV0lplbcH-X9L2KJLdOpYGIiavisCmgdKOGemu74NEP4y43zkdkhESsZ9otvpDvTOGwqnBNMimGSQm36ePgT5ORbtAkK7f1g0nF4R3luCwSjOkhESihPKZueT7R7RLAR10MRbwqwGYAH6q5LvltOFBqQMJnEhF-bAyCtLyZz-tMsLSEO8Pl2WbaCXJTWlVk4O5L4vH70DzdWELpSyOrEg0PhCx90Gn-8oygbqevIZz7EuYg-PxkG2FQgGJYh07eWdbhkl3bL7MNX2EVSx2-PhZkY6lAywuh8PDxDlHo-ThlzID5QsHjGBPsd1zl3Ekim53JKmOYt35CM8TSQqzJqq8dy3AARfROXnTPRf-PhTSibF3Iyv6ftZibYs5dom_l_cWrI7nLJJny358FAJTOC2uVkzbYNSOr1Cfrx14FpR-FTcQQrjyzCgcqxkFYfb1Q_5pvfkKCkC_bF1CPa0D-f8jaAeoM8K-VyOQNjWP-_WuGydtlHQSoIHTkFfw1JUJIVoUFOPP6d5ayDAzGqwdDrTvlBrbbFH0jGrUlzEqUGClLt4AvIDgb0mbxKPPAMG-yF9Lq9rDbhvoZx4E3d7oYpJjWnObj8XJ7kixLfiyYs5RGkAJoLtyzXgfGTuo_XKI4GBeFY6cD6Q0hqZRq68Hd3nH4v_4Fm00]--></g></svg>