<?xml version="1.0" encoding="us-ascii" standalone="no"?><svg xmlns="http://www.w3.org/2000/svg" xmlns:xlink="http://www.w3.org/1999/xlink" contentStyleType="text/css" height="414px" preserveAspectRatio="none" style="width:531px;height:414px;background:#FFFFFF;" version="1.1" viewBox="0 0 531 414" width="531px" zoomAndPan="magnify"><defs/><g><text fill="#000000" font-family="sans-serif" font-size="14" font-weight="bold" lengthAdjust="spacing" textLength="299" x="115.25" y="30.1074">USEI10 - Radius Search &amp; Density Summary</text><rect fill="#FFFFFF" height="31.291" style="stroke:#181818;stroke-width:1.0;" width="10" x="490.5" y="156.5332"/><rect fill="#FFFFFF" height="31.291" style="stroke:#181818;stroke-width:1.0;" width="10" x="490.5" y="219.1152"/><rect fill="#FFFFFF" height="31.291" style="stroke:#181818;stroke-width:1.0;" width="10" x="490.5" y="281.6973"/><line style="stroke:#181818;stroke-width:0.5;stroke-dasharray:5.0,5.0;" x1="67" x2="67" y1="123.2422" y2="330.9883"/><line style="stroke:#181818;stroke-width:0.5;stroke-dasharray:5.0,5.0;" x1="495.5" x2="495.5" y1="123.2422" y2="330.9883"/><text fill="#000000" font-family="sans-serif" font-size="14" lengthAdjust="spacing" textLength="119" x="5" y="119.7285">OperationsPlanner</text><ellipse cx="67.5" cy="53.1211" fill="#E3E3E3" rx="8" ry="8" style="stroke:#181818;stroke-width:0.5;"/><path d="M67.5,61.1211 L67.5,88.1211 M54.5,69.1211 L80.5,69.1211 M67.5,88.1211 L54.5,103.1211 M67.5,88.1211 L80.5,103.1211 " fill="none" style="stroke:#181818;stroke-width:0.5;"/><text fill="#000000" font-family="sans-serif" font-size="14" lengthAdjust="spacing" textLength="119" x="5" y="345.0957">OperationsPlanner</text><ellipse cx="67.5" cy="357.1094" fill="#E3E3E3" rx="8" ry="8" style="stroke:#181818;stroke-width:0.5;"/><path d="M67.5,365.1094 L67.5,392.1094 M54.5,373.1094 L80.5,373.1094 M67.5,392.1094 L54.5,407.1094 M67.5,392.1094 L80.5,407.1094 " fill="none" style="stroke:#181818;stroke-width:0.5;"/><rect fill="#E3E3E3" height="32.6211" rx="2.5" ry="2.5" style="stroke:#181818;stroke-width:0.5;" width="60" x="465.5" y="89.6211"/><text fill="#000000" font-family="sans-serif" font-size="14" lengthAdjust="spacing" textLength="46" x="472.5" y="111.7285">System</text><rect fill="#E3E3E3" height="32.6211" rx="2.5" ry="2.5" style="stroke:#181818;stroke-width:0.5;" width="60" x="465.5" y="329.9883"/><text fill="#000000" font-family="sans-serif" font-size="14" lengthAdjust="spacing" textLength="46" x="472.5" y="352.0957">System</text><rect fill="#FFFFFF" height="31.291" style="stroke:#181818;stroke-width:1.0;" width="10" x="490.5" y="156.5332"/><rect fill="#FFFFFF" height="31.291" style="stroke:#181818;stroke-width:1.0;" width="10" x="490.5" y="219.1152"/><rect fill="#FFFFFF" height="31.291" style="stroke:#181818;stroke-width:1.0;" width="10" x="490.5" y="281.6973"/><polygon fill="#181818" points="478.5,152.5332,488.5,156.5332,478.5,160.5332,482.5,156.5332" style="stroke:#181818;stroke-width:1.0;"/><line style="stroke:#181818;stroke-width:1.0;" x1="67.5" x2="484.5" y1="156.5332" y2="156.5332"/><text fill="#000000" font-family="sans-serif" font-size="13" font-weight="bold" lengthAdjust="spacing" textLength="7" x="74.5" y="151.2705">1</text><text fill="#000000" font-family="sans-serif" font-size="13" lengthAdjust="spacing" textLength="174" x="85.5" y="151.2705">requestRadiusSearchModule()</text><polygon fill="#181818" points="78.5,183.8242,68.5,187.8242,78.5,191.8242,74.5,187.8242" style="stroke:#181818;stroke-width:1.0;"/><line style="stroke:#181818;stroke-width:1.0;stroke-dasharray:2.0,2.0;" x1="72.5" x2="494.5" y1="187.8242" y2="187.8242"/><text fill="#000000" font-family="sans-serif" font-size="13" font-weight="bold" lengthAdjust="spacing" textLength="7" x="84.5" y="182.5615">2</text><text fill="#000000" font-family="sans-serif" font-size="13" lengthAdjust="spacing" textLength="142" x="95.5" y="182.5615">displayRadiusSearchUI()</text><polygon fill="#181818" points="478.5,215.1152,488.5,219.1152,478.5,223.1152,482.5,219.1152" style="stroke:#181818;stroke-width:1.0;"/><line style="stroke:#181818;stroke-width:1.0;" x1="67.5" x2="484.5" y1="219.1152" y2="219.1152"/><text fill="#000000" font-family="sans-serif" font-size="13" font-weight="bold" lengthAdjust="spacing" textLength="7" x="74.5" y="213.8525">3</text><text fill="#000000" font-family="sans-serif" font-size="13" lengthAdjust="spacing" textLength="214" x="85.5" y="213.8525">findStationsByRadius(lat, lon, radius)</text><polygon fill="#181818" points="78.5,246.4063,68.5,250.4063,78.5,254.4063,74.5,250.4063" style="stroke:#181818;stroke-width:1.0;"/><line style="stroke:#181818;stroke-width:1.0;stroke-dasharray:2.0,2.0;" x1="72.5" x2="494.5" y1="250.4063" y2="250.4063"/><text fill="#000000" font-family="sans-serif" font-size="13" font-weight="bold" lengthAdjust="spacing" textLength="7" x="84.5" y="245.1436">4</text><text fill="#000000" font-family="sans-serif" font-size="13" lengthAdjust="spacing" textLength="388" x="95.5" y="245.1436">displayRadiusSearchResults(stationResultsTree, densitySummary)</text><polygon fill="#181818" points="478.5,277.6973,488.5,281.6973,478.5,285.6973,482.5,281.6973" style="stroke:#181818;stroke-width:1.0;"/><line style="stroke:#181818;stroke-width:1.0;" x1="67.5" x2="484.5" y1="281.6973" y2="281.6973"/><text fill="#000000" font-family="sans-serif" font-size="13" font-weight="bold" lengthAdjust="spacing" textLength="7" x="74.5" y="276.4346">5</text><text fill="#000000" font-family="sans-serif" font-size="13" lengthAdjust="spacing" textLength="139" x="85.5" y="276.4346">requestAnalysisReport()</text><polygon fill="#181818" points="78.5,308.9883,68.5,312.9883,78.5,316.9883,74.5,312.9883" style="stroke:#181818;stroke-width:1.0;"/><line style="stroke:#181818;stroke-width:1.0;stroke-dasharray:2.0,2.0;" x1="72.5" x2="494.5" y1="312.9883" y2="312.9883"/><text fill="#000000" font-family="sans-serif" font-size="13" font-weight="bold" lengthAdjust="spacing" textLength="7" x="84.5" y="307.7256">6</text><text fill="#000000" font-family="sans-serif" font-size="13" lengthAdjust="spacing" textLength="170" x="95.5" y="307.7256">displayAnalysisReport(report)</text><!--SRC=[hP7DJiCm3CVlVGgVq90w2Qux887WiCC4Mja3cCRReYLEiHrGtvwm5gdQ41A2NEBaR__yPTu2mQPvM5vVmHpMw7nMQ0YbtSC5t1EhjnwQ72DANrLwyDoXO8IOEBLxIP709DD4wR0zu8uQwmjQg3NaNPWww1vTUlUyWoq6fQh2R8bpV24fTcj9uB4ZGVE9zIaWSn5AgFdMTyW6JQz6iQhEl61-CugBalarazhGqj3HAhaSQ7RvcSI_eT4N2SePJ9WNn1bt0Svh5x2VqZRBGd9qolgvggrdrzWWtusuMK2h8IIkGOuV_rJWcZG7qvaE-SRdin3Lu8RDZelzVH_ZT6yPGwzUrzGbiRzCzeGan-kxkZu0]--></g></svg>