<?xml version="1.0" encoding="us-ascii" standalone="no"?><svg xmlns="http://www.w3.org/2000/svg" xmlns:xlink="http://www.w3.org/1999/xlink" contentStyleType="text/css" height="967px" preserveAspectRatio="none" style="width:428px;height:967px;background:#FFFFFF;" version="1.1" viewBox="0 0 428 967" width="428px" zoomAndPan="magnify"><defs/><g><text fill="#000000" font-family="sans-serif" font-size="14" font-weight="bold" lengthAdjust="spacing" textLength="352" x="31.25" y="25.1074">USEI08 - Spatial Search by Geographical Area (DM)</text><!--class SpatialSearch--><g id="elem_SpatialSearch"><rect codeLine="12" fill="#F1F1F1" height="36.6211" id="SpatialSearch" rx="2.5" ry="2.5" style="stroke:#181818;stroke-width:0.5;" width="94" x="102.5" y="352.6211"/><text fill="#000000" font-family="sans-serif" font-size="14" lengthAdjust="spacing" textLength="88" x="105.5" y="372.7285">SpatialSearch</text><line style="stroke:#181818;stroke-width:0.5;" x1="103.5" x2="195.5" y1="381.2422" y2="381.2422"/></g><!--class KDTree--><g id="elem_KDTree"><rect codeLine="16" fill="#F1F1F1" height="36.6211" id="KDTree" rx="2.5" ry="2.5" style="stroke:#181818;stroke-width:0.5;" width="55" x="7" y="468.6211"/><text fill="#000000" font-family="sans-serif" font-size="14" lengthAdjust="spacing" textLength="49" x="10" y="488.7285">KDTree</text><line style="stroke:#181818;stroke-width:0.5;" x1="8" x2="61" y1="497.2422" y2="497.2422"/></g><!--class KDTreeNode--><g id="elem_KDTreeNode"><rect codeLine="20" fill="#F1F1F1" height="129.7266" id="KDTreeNode" rx="2.5" ry="2.5" style="stroke:#181818;stroke-width:0.5;" width="88" x="88.5" y="584.6211"/><text fill="#000000" font-family="sans-serif" font-size="14" lengthAdjust="spacing" textLength="82" x="91.5" y="604.7285">KDTreeNode</text><line style="stroke:#181818;stroke-width:0.5;" x1="89.5" x2="175.5" y1="613.2422" y2="613.2422"/><text fill="#000000" font-family="sans-serif" font-size="14" lengthAdjust="spacing" textLength="46" x="94.5" y="632.3496">latitude</text><text fill="#000000" font-family="sans-serif" font-size="14" lengthAdjust="spacing" textLength="58" x="94.5" y="650.9707">longitude</text><text fill="#000000" font-family="sans-serif" font-size="14" lengthAdjust="spacing" textLength="49" x="94.5" y="669.5918">stations</text><text fill="#000000" font-family="sans-serif" font-size="14" lengthAdjust="spacing" textLength="19" x="94.5" y="688.2129">left</text><text fill="#000000" font-family="sans-serif" font-size="14" lengthAdjust="spacing" textLength="28" x="94.5" y="706.834">right</text></g><!--class EuropeanStation--><g id="elem_EuropeanStation"><rect codeLine="29" fill="#F1F1F1" height="166.9688" id="EuropeanStation" rx="2.5" ry="2.5" style="stroke:#181818;stroke-width:0.5;" width="112" x="183.5" y="793.6211"/><text fill="#000000" font-family="sans-serif" font-size="14" lengthAdjust="spacing" textLength="106" x="186.5" y="813.7285">EuropeanStation</text><line style="stroke:#181818;stroke-width:0.5;" x1="184.5" x2="294.5" y1="822.2422" y2="822.2422"/><text fill="#000000" font-family="sans-serif" font-size="14" lengthAdjust="spacing" textLength="78" x="189.5" y="841.3496">stationName</text><text fill="#000000" font-family="sans-serif" font-size="14" lengthAdjust="spacing" textLength="46" x="189.5" y="859.9707">latitude</text><text fill="#000000" font-family="sans-serif" font-size="14" lengthAdjust="spacing" textLength="58" x="189.5" y="878.5918">longitude</text><text fill="#000000" font-family="sans-serif" font-size="14" lengthAdjust="spacing" textLength="47" x="189.5" y="897.2129">country</text><text fill="#000000" font-family="sans-serif" font-size="14" lengthAdjust="spacing" textLength="34" x="189.5" y="915.834">isCity</text><text fill="#000000" font-family="sans-serif" font-size="14" lengthAdjust="spacing" textLength="84" x="189.5" y="934.4551">isMainStation</text><text fill="#000000" font-family="sans-serif" font-size="14" lengthAdjust="spacing" textLength="98" x="189.5" y="953.0762">timeZoneGroup</text></g><!--class SpatialSearchQueries--><g id="elem_SpatialSearchQueries"><rect codeLine="40" fill="#F1F1F1" height="111.1055" id="SpatialSearchQueries" rx="2.5" ry="2.5" style="stroke:#181818;stroke-width:0.5;" width="144" x="239.5" y="162.6211"/><text fill="#000000" font-family="sans-serif" font-size="14" lengthAdjust="spacing" textLength="138" x="242.5" y="182.7285">SpatialSearchQueries</text><line style="stroke:#181818;stroke-width:0.5;" x1="240.5" x2="382.5" y1="191.2422" y2="191.2422"/><text fill="#000000" font-family="sans-serif" font-size="14" lengthAdjust="spacing" textLength="69" x="245.5" y="210.3496">description</text><text fill="#000000" font-family="sans-serif" font-size="14" lengthAdjust="spacing" textLength="49" x="245.5" y="228.9707">stations</text><text fill="#000000" font-family="sans-serif" font-size="14" lengthAdjust="spacing" textLength="91" x="245.5" y="247.5918">executionTime</text><text fill="#000000" font-family="sans-serif" font-size="14" lengthAdjust="spacing" textLength="90" x="245.5" y="266.2129">stationsFound</text></g><!--class CargoHandlingUI--><g id="elem_CargoHandlingUI"><rect codeLine="48" fill="#F1F1F1" height="36.6211" id="CargoHandlingUI" rx="2.5" ry="2.5" style="stroke:#181818;stroke-width:0.5;" width="112" x="122.5" y="46.6211"/><text fill="#000000" font-family="sans-serif" font-size="14" lengthAdjust="spacing" textLength="106" x="125.5" y="66.7285">CargoHandlingUI</text><line style="stroke:#181818;stroke-width:0.5;" x1="123.5" x2="233.5" y1="75.2422" y2="75.2422"/></g><!--reverse link SpatialSearch to KDTree--><g id="link_SpatialSearch_KDTree"><path codeLine="52" d="M112.26,396.353 C91.5,409.853 76.5,419.6211 76.5,419.6211 C76.5,419.6211 58.2,448.6011 45.76,468.3011 " fill="none" id="SpatialSearch-backto-KDTree" style="stroke:#181818;stroke-width:1.0;"/><polygon fill="#181818" points="122.32,389.8111,115.1094,389.7287,112.26,396.353,119.4706,396.4354,122.32,389.8111" style="stroke:#181818;stroke-width:1.0;"/><text fill="#000000" font-family="sans-serif" font-size="13" lengthAdjust="spacing" textLength="28" x="77.5" y="434.6494">uses</text><text fill="#000000" font-family="sans-serif" font-size="13" lengthAdjust="spacing" textLength="7" x="107.0748" y="411.2367">1</text><text fill="#000000" font-family="sans-serif" font-size="13" lengthAdjust="spacing" textLength="7" x="41.0395" y="457.4026">1</text></g><!--reverse link KDTree to KDTreeNode--><g id="link_KDTree_KDTreeNode"><path codeLine="53" d="M43.743,517.3843 C49.963,537.0843 55.5,554.6211 55.5,554.6211 C55.5,554.6211 71.17,573.7511 88.38,594.7611 " fill="none" id="KDTree-backto-KDTreeNode" style="stroke:#181818;stroke-width:1.0;"/><polygon fill="#181818" points="40.13,505.9411,38.1221,512.867,43.743,517.3843,45.7509,510.4583,40.13,505.9411" style="stroke:#181818;stroke-width:1.0;"/><text fill="#000000" font-family="sans-serif" font-size="13" lengthAdjust="spacing" textLength="49" x="56.5" y="550.6494">contains</text><text fill="#000000" font-family="sans-serif" font-size="13" lengthAdjust="spacing" textLength="7" x="33.7024" y="527.4017">1</text><text fill="#000000" font-family="sans-serif" font-size="13" lengthAdjust="spacing" textLength="20" x="60.4311" y="582.5249">1..*</text></g><!--reverse link KDTreeNode to EuropeanStation--><g id="link_KDTreeNode_EuropeanStation"><path codeLine="54" d="M161.155,725.9276 C170.855,751.4376 175.5,763.6211 175.5,763.6211 C175.5,763.6211 182.81,776.4611 192.48,793.4711 " fill="none" id="KDTreeNode-backto-EuropeanStation" style="stroke:#181818;stroke-width:1.0;"/><polygon fill="none" points="156.89,714.7111,155.2837,721.741,161.155,725.9276,162.7613,718.8977,156.89,714.7111" style="stroke:#181818;stroke-width:1.0;"/><text fill="#000000" font-family="sans-serif" font-size="13" lengthAdjust="spacing" textLength="36" x="176.5" y="759.6494">stores</text><text fill="#000000" font-family="sans-serif" font-size="13" lengthAdjust="spacing" textLength="7" x="152.0443" y="736.3575">1</text><text fill="#000000" font-family="sans-serif" font-size="13" lengthAdjust="spacing" textLength="20" x="167.4017" y="782.3067">1..*</text></g><!--reverse link SpatialSearchQueries to EuropeanStation--><g id="link_SpatialSearchQueries_EuropeanStation"><path codeLine="55" d="M318.5434,285.5644 C323.1234,328.8244 327.5,370.1211 327.5,370.1211 C327.5,370.1211 327.5,370.1211 327.5,650.6211 C327.5,650.6211 296.88,729.0711 271.77,793.4311 " fill="none" id="SpatialSearchQueries-backto-EuropeanStation" style="stroke:#181818;stroke-width:1.0;"/><polygon fill="none" points="317.28,273.6311,313.9339,280.0189,318.5434,285.5644,321.8895,279.1766,317.28,273.6311" style="stroke:#181818;stroke-width:1.0;"/><text fill="#000000" font-family="sans-serif" font-size="13" lengthAdjust="spacing" textLength="92" x="328.5" y="492.6494">contains results</text><text fill="#000000" font-family="sans-serif" font-size="13" lengthAdjust="spacing" textLength="7" x="310.5721" y="295.8726">1</text><text fill="#000000" font-family="sans-serif" font-size="13" lengthAdjust="spacing" textLength="20" x="253.7534" y="782.2631">1..*</text></g><!--reverse link CargoHandlingUI to SpatialSearch--><g id="link_CargoHandlingUI_SpatialSearch"><path codeLine="56" d="M175.1234,95.7442 C171.9534,123.6042 167.5,162.6211 167.5,162.6211 C167.5,162.6211 155.39,302.2511 151.03,352.4311 " fill="none" id="CargoHandlingUI-backto-SpatialSearch" style="stroke:#181818;stroke-width:1.0;"/><polygon fill="#181818" points="176.48,83.8211,171.8273,89.3304,175.1234,95.7442,179.776,90.2348,176.48,83.8211" style="stroke:#181818;stroke-width:1.0;"/><text fill="#000000" font-family="sans-serif" font-size="13" lengthAdjust="spacing" textLength="53" x="168.5" y="223.6494">manages</text><text fill="#000000" font-family="sans-serif" font-size="13" lengthAdjust="spacing" textLength="7" x="167.9965" y="105.2494">1</text><text fill="#000000" font-family="sans-serif" font-size="13" lengthAdjust="spacing" textLength="7" x="143.4267" y="341.2351">1</text></g><!--reverse link CargoHandlingUI to SpatialSearchQueries--><g id="link_CargoHandlingUI_SpatialSearchQueries"><path codeLine="57" d="M201.9515,92.7461 C218.8715,111.9561 238.88,134.6711 263.26,162.3611 " fill="none" id="CargoHandlingUI-backto-SpatialSearchQueries" style="stroke:#181818;stroke-width:1.0;"/><polygon fill="#181818" points="194.02,83.7411,194.9841,90.8875,201.9515,92.7461,200.9875,85.5998,194.02,83.7411" style="stroke:#181818;stroke-width:1.0;"/><text fill="#000000" font-family="sans-serif" font-size="13" lengthAdjust="spacing" textLength="53" x="237.5" y="128.6494">executes</text><text fill="#000000" font-family="sans-serif" font-size="13" lengthAdjust="spacing" textLength="7" x="190.2504" y="105.1479">1</text><text fill="#000000" font-family="sans-serif" font-size="13" lengthAdjust="spacing" textLength="7" x="249.6308" y="151.168">1</text></g><!--link SpatialSearch to KDTreeNode--><g id="link_SpatialSearch_KDTreeNode"><path codeLine="60" d="M148.41,389.8411 C146.04,428.3411 140.6977,515.2624 136.8077,578.6124 " fill="none" id="SpatialSearch-to-KDTreeNode" style="stroke:#181818;stroke-width:1.0;stroke-dasharray:7.0,7.0;"/><polygon fill="#181818" points="136.44,584.6011,140.9841,575.8632,136.7464,579.6105,132.9991,575.3729,136.44,584.6011" style="stroke:#181818;stroke-width:1.0;"/><text fill="#000000" font-family="sans-serif" font-size="13" lengthAdjust="spacing" textLength="52" x="145.5" y="492.6494">traverses</text></g><!--link SpatialSearch to EuropeanStation--><g id="link_SpatialSearch_EuropeanStation"><path codeLine="61" d="M159.95,389.8211 C176.41,417.6811 206.5,468.6211 206.5,468.6211 C206.5,468.6211 222.6456,668.0407 232.2956,787.1907 " fill="none" id="SpatialSearch-to-EuropeanStation" style="stroke:#181818;stroke-width:1.0;stroke-dasharray:7.0,7.0;"/><polygon fill="#181818" points="232.78,793.1711,236.0404,783.8776,232.3764,788.1874,228.0665,784.5234,232.78,793.1711" style="stroke:#181818;stroke-width:1.0;"/><text fill="#000000" font-family="sans-serif" font-size="13" lengthAdjust="spacing" textLength="31" x="213.5" y="550.6494">filters</text></g><!--link SpatialSearchQueries to SpatialSearch--><g id="link_SpatialSearchQueries_SpatialSearch"><path codeLine="62" d="M253.01,273.6311 C223.29,301.3411 193.5596,329.0607 172.8696,348.3407 " fill="none" id="SpatialSearchQueries-to-SpatialSearch" style="stroke:#181818;stroke-width:1.0;stroke-dasharray:7.0,7.0;"/><polygon fill="#181818" points="168.48,352.4311,177.7913,349.2218,172.138,349.0224,172.3374,343.3691,168.48,352.4311" style="stroke:#181818;stroke-width:1.0;"/><text fill="#000000" font-family="sans-serif" font-size="13" lengthAdjust="spacing" textLength="42" x="221.5" y="318.6494">queries</text></g><!--SRC=[bLF1Rjim3BtxAuHUjXL8q9qsv32WIB8kA5fWTNlfJPKPMwWiQHIrpIlsxwDi6N6y5CDEfiJt7Xz9cJGP40_bTdVnKIn4wILfQKG94bKZdZfn1Qv6wHkj-FeIGOgtcvjtHT7e2eJIg0mCSGlKk2eKuLbRBr6smalrB6iegUCI28gahHbz08H6Lkw7jhNOInEc6QCjKET1U6UwT9Zab94XN1AXVee4E-LigN-1k2YADtF_MridRiyOSpdrKlnEXElDuXu1n1vTEupXGuPVR_h437VhkDL061L5X2DedtefX31SXs85ANJi8CU1-DxPaAvXJ_n1NJSqwAyTWjYuLchBhfdVPUrjHET1sd9WzmMoqgriuVLooaLBs76amphffU26zRCIdqctyEWiNA6BVl3nDG9suWv2D1HOmn8p04-DC44rXDvH1K6XzbbtqYdy11NJuLwtqo5yPdVLKF9XnzstddrO4dk78kGbVXiAvDfhYRNx8ct5pw5cJbxC7PX1iT4-5CSxFdj_9iuNY_wRrxaICR1aFXq0o-NvsNIFgx7t4TlV9hmxuEUxMN5xlCUPZN5E_oIF5VbVwSTVp5kUzdFSwKgqqlA_zX-SqTOgxuYvFCuDUB0LMDMnYzSdkrn-EfuMeVmE6E0KyEzEzzeGeq_FAL7ctOrFuGy0]--></g></svg>