<svg xmlns="http://www.w3.org/2000/svg" xmlns:xlink="http://www.w3.org/1999/xlink" contentStyleType="text/css" height="395px" preserveAspectRatio="none" style="width:526px;height:395px;background:#FFFFFF;" version="1.1" viewBox="0 0 526 395" width="526px" zoomAndPan="magnify"><title>USEI14 - Maximum Throughput (Max Flow)</title><defs/><g><text fill="#000000" font-family="sans-serif" font-size="14" font-weight="bold" lengthAdjust="spacing" textLength="311.0762" x="106.4866" y="28.5352">USEI14 - Maximum Throughput (Max Flow)</text><rect fill="#FFFFFF" height="29.3105" style="stroke:#181818;stroke-width:1.0;" width="10" x="484.0005" y="150.2871"/><rect fill="#FFFFFF" height="29.3105" style="stroke:#181818;stroke-width:1.0;" width="10" x="484.0005" y="208.9082"/><rect fill="#FFFFFF" height="29.3105" style="stroke:#181818;stroke-width:1.0;" width="10" x="484.0005" y="267.5293"/><line style="stroke:#181818;stroke-width:0.5;stroke-dasharray:5.0,5.0;" x1="70" x2="70" y1="118.9766" y2="314.8398"/><line style="stroke:#181818;stroke-width:0.5;stroke-dasharray:5.0,5.0;" x1="488.9517" x2="488.9517" y1="118.9766" y2="314.8398"/><text fill="#000000" font-family="sans-serif" font-size="14" lengthAdjust="spacing" textLength="124.4688" x="5" y="116.0234">OperationsAnalyst</text><ellipse cx="70.2344" cy="50.9883" fill="#E3E3E3" rx="8" ry="8" style="stroke:#181818;stroke-width:0.5;"/><path d="M70.2344,58.9883 L70.2344,85.9883 M57.2344,66.9883 L83.2344,66.9883 M70.2344,85.9883 L57.2344,100.9883 M70.2344,85.9883 L83.2344,100.9883 " fill="none" style="stroke:#181818;stroke-width:0.5;"/><text fill="#000000" font-family="sans-serif" font-size="14" lengthAdjust="spacing" textLength="124.4688" x="5" y="327.375">OperationsAnalyst</text><ellipse cx="70.2344" cy="338.8281" fill="#E3E3E3" rx="8" ry="8" style="stroke:#181818;stroke-width:0.5;"/><path d="M70.2344,346.8281 L70.2344,373.8281 M57.2344,354.8281 L83.2344,354.8281 M70.2344,373.8281 L57.2344,388.8281 M70.2344,373.8281 L83.2344,388.8281 " fill="none" style="stroke:#181818;stroke-width:0.5;"/><rect fill="#E3E3E3" height="30.4883" rx="2.5" ry="2.5" style="stroke:#181818;stroke-width:0.5;" width="62.0977" x="457.9517" y="87.4883"/><text fill="#000000" font-family="sans-serif" font-size="14" lengthAdjust="spacing" textLength="48.0977" x="464.9517" y="108.0234">System</text><rect fill="#E3E3E3" height="30.4883" rx="2.5" ry="2.5" style="stroke:#181818;stroke-width:0.5;" width="62.0977" x="457.9517" y="313.8398"/><text fill="#000000" font-family="sans-serif" font-size="14" lengthAdjust="spacing" textLength="48.0977" x="464.9517" y="334.375">System</text><rect fill="#FFFFFF" height="29.3105" style="stroke:#181818;stroke-width:1.0;" width="10" x="484.0005" y="150.2871"/><rect fill="#FFFFFF" height="29.3105" style="stroke:#181818;stroke-width:1.0;" width="10" x="484.0005" y="208.9082"/><rect fill="#FFFFFF" height="29.3105" style="stroke:#181818;stroke-width:1.0;" width="10" x="484.0005" y="267.5293"/><polygon fill="#181818" points="472.0005,146.2871,482.0005,150.2871,472.0005,154.2871,476.0005,150.2871" style="stroke:#181818;stroke-width:1.0;"/><line style="stroke:#181818;stroke-width:1.0;" x1="70.2344" x2="478.0005" y1="150.2871" y2="150.2871"/><text fill="#000000" font-family="sans-serif" font-size="13" font-weight="bold" lengthAdjust="spacing" textLength="8.5757" x="77.2344" y="145.5449">1</text><text fill="#000000" font-family="sans-serif" font-size="13" lengthAdjust="spacing" textLength="193.1592" x="89.8101" y="145.5449">requestMaxFlowComputation()</text><polygon fill="#181818" points="81.2344,175.5977,71.2344,179.5977,81.2344,183.5977,77.2344,179.5977" style="stroke:#181818;stroke-width:1.0;"/><line style="stroke:#181818;stroke-width:1.0;stroke-dasharray:2.0,2.0;" x1="75.2344" x2="488.0005" y1="179.5977" y2="179.5977"/><text fill="#000000" font-family="sans-serif" font-size="13" font-weight="bold" lengthAdjust="spacing" textLength="8.5757" x="87.2344" y="174.8555">2</text><text fill="#000000" font-family="sans-serif" font-size="13" lengthAdjust="spacing" textLength="120.7642" x="99.8101" y="174.8555">displayMaxFlowUI()</text><polygon fill="#181818" points="472.0005,204.9082,482.0005,208.9082,472.0005,212.9082,476.0005,208.9082" style="stroke:#181818;stroke-width:1.0;"/><line style="stroke:#181818;stroke-width:1.0;" x1="70.2344" x2="478.0005" y1="208.9082" y2="208.9082"/><text fill="#000000" font-family="sans-serif" font-size="13" font-weight="bold" lengthAdjust="spacing" textLength="8.5757" x="77.2344" y="204.166">3</text><text fill="#000000" font-family="sans-serif" font-size="13" lengthAdjust="spacing" textLength="282.2803" x="89.8101" y="204.166">computeMaxFlow(sourceStation, sinkStation)</text><polygon fill="#181818" points="81.2344,234.2188,71.2344,238.2188,81.2344,242.2188,77.2344,238.2188" style="stroke:#181818;stroke-width:1.0;"/><line style="stroke:#181818;stroke-width:1.0;stroke-dasharray:2.0,2.0;" x1="75.2344" x2="488.0005" y1="238.2188" y2="238.2188"/><text fill="#000000" font-family="sans-serif" font-size="13" font-weight="bold" lengthAdjust="spacing" textLength="8.5757" x="87.2344" y="233.4766">4</text><text fill="#000000" font-family="sans-serif" font-size="13" lengthAdjust="spacing" textLength="377.1904" x="99.8101" y="233.4766">displayMaxFlowSummary(sourceId, targetId, maxFlowValue)</text><polygon fill="#181818" points="472.0005,263.5293,482.0005,267.5293,472.0005,271.5293,476.0005,267.5293" style="stroke:#181818;stroke-width:1.0;"/><line style="stroke:#181818;stroke-width:1.0;" x1="70.2344" x2="478.0005" y1="267.5293" y2="267.5293"/><text fill="#000000" font-family="sans-serif" font-size="13" font-weight="bold" lengthAdjust="spacing" textLength="8.5757" x="77.2344" y="262.7871">5</text><text fill="#000000" font-family="sans-serif" font-size="13" lengthAdjust="spacing" textLength="149.5889" x="89.8101" y="262.7871">requestAnalysisReport()</text><polygon fill="#181818" points="81.2344,292.8398,71.2344,296.8398,81.2344,300.8398,77.2344,296.8398" style="stroke:#181818;stroke-width:1.0;"/><line style="stroke:#181818;stroke-width:1.0;stroke-dasharray:2.0,2.0;" x1="75.2344" x2="488.0005" y1="296.8398" y2="296.8398"/><text fill="#000000" font-family="sans-serif" font-size="13" font-weight="bold" lengthAdjust="spacing" textLength="8.5757" x="87.2344" y="292.0977">6</text><text fill="#000000" font-family="sans-serif" font-size="13" lengthAdjust="spacing" textLength="267.6489" x="99.8101" y="292.0977">displayAnalysisReport(complexityAnalysis)</text><!--SRC=[fP1FImCn4CNl-HHpt49x43pr88Wex444rteVi-DkQFwPJ6ptsplRNQMq8aXpcinx-StBi65Bi6dkwwjhMC4Zxeqh3bxw54hNny9GIGyURDWjbCfRuoCcTE223rfCZe1JeICbejvYHmqF0awa6NrdZmsvnpRiZE_W7MqcfR1myCMzKP9QSqZm52aXc-3phKSxP5Rob8qs4Jr38mroIfsvO7KpYskP_54eiuGVizy59tyvcAl5ECHy8jCt2UHC9Qm4SSPTGsjoj3ZCj4qja9PECNy7qeS8D2Eg74hIigM3VmdP-ErykJnVKvp3DCmpwdO9ZAaZ7YitMLxH5lh_9-QjJeh9pnH3uaisUa8QbsHfR_X7-2tZ5m00]--></g></svg>