<?xml version="1.0" encoding="us-ascii" standalone="no"?><svg xmlns="http://www.w3.org/2000/svg" xmlns:xlink="http://www.w3.org/1999/xlink" contentStyleType="text/css" height="931px" preserveAspectRatio="none" style="width:1191px;height:931px;background:#FFFFFF;" version="1.1" viewBox="0 0 1191 931" width="1191px" zoomAndPan="magnify"><defs/><g><rect fill="#FFFFFF" height="713.0332" style="stroke:#181818;stroke-width:1.0;" width="10" x="76" y="116.9121"/><rect fill="#FFFFFF" height="736.3242" style="stroke:#181818;stroke-width:1.0;" width="10" x="333" y="93.6211"/><rect fill="#FFFFFF" height="93.873" style="stroke:#181818;stroke-width:1.0;" width="10" x="528" y="210.7852"/><rect fill="#FFFFFF" height="400.123" style="stroke:#181818;stroke-width:1.0;" width="10" x="528" y="398.5313"/><rect fill="#FFFFFF" height="31.291" style="stroke:#181818;stroke-width:1.0;" width="10" x="671" y="242.0762"/><rect fill="#FFFFFF" height="168.0859" style="stroke:#181818;stroke-width:1.0;" width="10" x="762" y="429.8223"/><rect fill="#FFFFFF" height="31.291" style="stroke:#181818;stroke-width:1.0;" width="10" x="870.5" y="629.1992"/><rect fill="#FFFFFF" height="75.582" style="stroke:#181818;stroke-width:1.0;" width="10" x="980" y="691.7813"/><line style="stroke:#181818;stroke-width:0.5;stroke-dasharray:5.0,5.0;" x1="81" x2="81" y1="83.6211" y2="847.9453"/><line style="stroke:#181818;stroke-width:0.5;stroke-dasharray:5.0,5.0;" x1="337.5" x2="337.5" y1="83.6211" y2="847.9453"/><line style="stroke:#181818;stroke-width:0.5;stroke-dasharray:5.0,5.0;" x1="532.5" x2="532.5" y1="83.6211" y2="847.9453"/><line style="stroke:#181818;stroke-width:0.5;stroke-dasharray:5.0,5.0;" x1="676" x2="676" y1="83.6211" y2="847.9453"/><line style="stroke:#181818;stroke-width:0.5;stroke-dasharray:5.0,5.0;" x1="767" x2="767" y1="83.6211" y2="847.9453"/><line style="stroke:#181818;stroke-width:0.5;stroke-dasharray:5.0,5.0;" x1="875" x2="875" y1="83.6211" y2="847.9453"/><line style="stroke:#181818;stroke-width:0.5;stroke-dasharray:5.0,5.0;" x1="985" x2="985" y1="83.6211" y2="847.9453"/><text fill="#000000" font-family="sans-serif" font-size="14" lengthAdjust="spacing" textLength="116" x="20" y="80.1074">Terminal Operator</text><ellipse cx="81" cy="13.5" fill="#E2E2F0" rx="8" ry="8" style="stroke:#181818;stroke-width:0.5;"/><path d="M81,21.5 L81,48.5 M68,29.5 L94,29.5 M81,48.5 L68,63.5 M81,48.5 L94,63.5 " fill="none" style="stroke:#181818;stroke-width:0.5;"/><text fill="#000000" font-family="sans-serif" font-size="14" lengthAdjust="spacing" textLength="116" x="20" y="862.0527">Terminal Operator</text><ellipse cx="81" cy="874.0664" fill="#E2E2F0" rx="8" ry="8" style="stroke:#181818;stroke-width:0.5;"/><path d="M81,882.0664 L81,909.0664 M68,890.0664 L94,890.0664 M81,909.0664 L68,924.0664 M81,909.0664 L94,924.0664 " fill="none" style="stroke:#181818;stroke-width:0.5;"/><rect fill="#E2E2F0" height="32.6211" rx="2.5" ry="2.5" style="stroke:#181818;stroke-width:0.5;" width="119" x="278.5" y="50"/><text fill="#000000" font-family="sans-serif" font-size="14" lengthAdjust="spacing" textLength="105" x="285.5" y="72.1074">:UnloadWagonUI</text><rect fill="#E2E2F0" height="32.6211" rx="2.5" ry="2.5" style="stroke:#181818;stroke-width:0.5;" width="119" x="278.5" y="846.9453"/><text fill="#000000" font-family="sans-serif" font-size="14" lengthAdjust="spacing" textLength="105" x="285.5" y="869.0527">:UnloadWagonUI</text><rect fill="#E2E2F0" height="32.6211" rx="2.5" ry="2.5" style="stroke:#181818;stroke-width:0.5;" width="125" x="470.5" y="50"/><text fill="#000000" font-family="sans-serif" font-size="14" lengthAdjust="spacing" textLength="111" x="477.5" y="72.1074">:WagonController</text><rect fill="#E2E2F0" height="32.6211" rx="2.5" ry="2.5" style="stroke:#181818;stroke-width:0.5;" width="125" x="470.5" y="846.9453"/><text fill="#000000" font-family="sans-serif" font-size="14" lengthAdjust="spacing" textLength="111" x="477.5" y="869.0527">:WagonController</text><rect fill="#E2E2F0" height="32.6211" rx="2.5" ry="2.5" style="stroke:#181818;stroke-width:0.5;" width="92" x="630" y="50"/><text fill="#000000" font-family="sans-serif" font-size="14" lengthAdjust="spacing" textLength="78" x="637" y="72.1074">WagonForm</text><rect fill="#E2E2F0" height="32.6211" rx="2.5" ry="2.5" style="stroke:#181818;stroke-width:0.5;" width="92" x="630" y="846.9453"/><text fill="#000000" font-family="sans-serif" font-size="14" lengthAdjust="spacing" textLength="78" x="637" y="869.0527">WagonForm</text><rect fill="#E2E2F0" height="32.6211" rx="2.5" ry="2.5" style="stroke:#181818;stroke-width:0.5;" width="70" x="732" y="50"/><text fill="#000000" font-family="sans-serif" font-size="14" lengthAdjust="spacing" textLength="56" x="739" y="72.1074">Validator</text><rect fill="#E2E2F0" height="32.6211" rx="2.5" ry="2.5" style="stroke:#181818;stroke-width:0.5;" width="70" x="732" y="846.9453"/><text fill="#000000" font-family="sans-serif" font-size="14" lengthAdjust="spacing" textLength="56" x="739" y="869.0527">Validator</text><rect fill="#E2E2F0" height="32.6211" rx="2.5" ry="2.5" style="stroke:#181818;stroke-width:0.5;" width="127" x="812" y="50"/><text fill="#000000" font-family="sans-serif" font-size="14" lengthAdjust="spacing" textLength="113" x="819" y="72.1074">WagonRepository</text><rect fill="#E2E2F0" height="32.6211" rx="2.5" ry="2.5" style="stroke:#181818;stroke-width:0.5;" width="127" x="812" y="846.9453"/><text fill="#000000" font-family="sans-serif" font-size="14" lengthAdjust="spacing" textLength="113" x="819" y="869.0527">WagonRepository</text><rect fill="#E2E2F0" height="32.6211" rx="2.5" ry="2.5" style="stroke:#181818;stroke-width:0.5;" width="72" x="949" y="50"/><text fill="#000000" font-family="sans-serif" font-size="14" lengthAdjust="spacing" textLength="58" x="956" y="72.1074">Inventory</text><rect fill="#E2E2F0" height="32.6211" rx="2.5" ry="2.5" style="stroke:#181818;stroke-width:0.5;" width="72" x="949" y="846.9453"/><text fill="#000000" font-family="sans-serif" font-size="14" lengthAdjust="spacing" textLength="58" x="956" y="869.0527">Inventory</text><rect fill="#FFFFFF" height="713.0332" style="stroke:#181818;stroke-width:1.0;" width="10" x="76" y="116.9121"/><rect fill="#FFFFFF" height="736.3242" style="stroke:#181818;stroke-width:1.0;" width="10" x="333" y="93.6211"/><rect fill="#FFFFFF" height="93.873" style="stroke:#181818;stroke-width:1.0;" width="10" x="528" y="210.7852"/><rect fill="#FFFFFF" height="400.123" style="stroke:#181818;stroke-width:1.0;" width="10" x="528" y="398.5313"/><rect fill="#FFFFFF" height="31.291" style="stroke:#181818;stroke-width:1.0;" width="10" x="671" y="242.0762"/><rect fill="#FFFFFF" height="168.0859" style="stroke:#181818;stroke-width:1.0;" width="10" x="762" y="429.8223"/><rect fill="#FFFFFF" height="31.291" style="stroke:#181818;stroke-width:1.0;" width="10" x="870.5" y="629.1992"/><rect fill="#FFFFFF" height="75.582" style="stroke:#181818;stroke-width:1.0;" width="10" x="980" y="691.7813"/><polygon fill="#181818" points="97,112.9121,87,116.9121,97,120.9121,93,116.9121" style="stroke:#181818;stroke-width:1.0;"/><line style="stroke:#181818;stroke-width:1.0;stroke-dasharray:2.0,2.0;" x1="91" x2="332" y1="116.9121" y2="116.9121"/><text fill="#000000" font-family="sans-serif" font-size="13" font-weight="bold" lengthAdjust="spacing" textLength="7" x="103" y="111.6494">1</text><text fill="#000000" font-family="sans-serif" font-size="13" lengthAdjust="spacing" textLength="119" x="114" y="111.6494">display unload menu</text><polygon fill="#181818" points="321,144.2031,331,148.2031,321,152.2031,325,148.2031" style="stroke:#181818;stroke-width:1.0;"/><line style="stroke:#181818;stroke-width:1.0;" x1="86" x2="327" y1="148.2031" y2="148.2031"/><text fill="#000000" font-family="sans-serif" font-size="13" font-weight="bold" lengthAdjust="spacing" textLength="7" x="93" y="142.9404">2</text><text fill="#000000" font-family="sans-serif" font-size="13" lengthAdjust="spacing" textLength="133" x="104" y="142.9404">select wagon to unload</text><polygon fill="#181818" points="521,175.4941,531,179.4941,521,183.4941,525,179.4941" style="stroke:#181818;stroke-width:1.0;"/><line style="stroke:#181818;stroke-width:1.0;stroke-dasharray:2.0,2.0;" x1="343" x2="527" y1="179.4941" y2="179.4941"/><text fill="#000000" font-family="sans-serif" font-size="13" font-weight="bold" lengthAdjust="spacing" textLength="7" x="350" y="174.2314">3</text><text fill="#000000" font-family="sans-serif" font-size="13" lengthAdjust="spacing" textLength="134" x="361" y="174.2314">unloadWagon(wagonId)</text><polygon fill="#181818" points="516,206.7852,526,210.7852,516,214.7852,520,210.7852" style="stroke:#181818;stroke-width:1.0;"/><line style="stroke:#181818;stroke-width:1.0;" x1="343" x2="522" y1="210.7852" y2="210.7852"/><text fill="#000000" font-family="sans-serif" font-size="13" font-weight="bold" lengthAdjust="spacing" textLength="7" x="350" y="205.5225">4</text><text fill="#000000" font-family="sans-serif" font-size="13" lengthAdjust="spacing" textLength="122" x="361" y="205.5225">requestWagonForm()</text><polygon fill="#181818" points="659,238.0762,669,242.0762,659,246.0762,663,242.0762" style="stroke:#181818;stroke-width:1.0;"/><line style="stroke:#181818;stroke-width:1.0;" x1="538" x2="665" y1="242.0762" y2="242.0762"/><text fill="#000000" font-family="sans-serif" font-size="13" font-weight="bold" lengthAdjust="spacing" textLength="7" x="545" y="236.8135">5</text><text fill="#000000" font-family="sans-serif" font-size="13" lengthAdjust="spacing" textLength="103" x="556" y="236.8135">getForm(wagonId)</text><polygon fill="#181818" points="549,269.3672,539,273.3672,549,277.3672,545,273.3672" style="stroke:#181818;stroke-width:1.0;"/><line style="stroke:#181818;stroke-width:1.0;stroke-dasharray:2.0,2.0;" x1="543" x2="675" y1="273.3672" y2="273.3672"/><text fill="#000000" font-family="sans-serif" font-size="13" font-weight="bold" lengthAdjust="spacing" textLength="7" x="555" y="268.1045">6</text><text fill="#000000" font-family="sans-serif" font-size="13" lengthAdjust="spacing" textLength="84" x="566" y="268.1045">return wagonId</text><polygon fill="#181818" points="354,300.6582,344,304.6582,354,308.6582,350,304.6582" style="stroke:#181818;stroke-width:1.0;"/><line style="stroke:#181818;stroke-width:1.0;stroke-dasharray:2.0,2.0;" x1="348" x2="532" y1="304.6582" y2="304.6582"/><text fill="#000000" font-family="sans-serif" font-size="13" font-weight="bold" lengthAdjust="spacing" textLength="7" x="360" y="299.3955">7</text><text fill="#000000" font-family="sans-serif" font-size="13" lengthAdjust="spacing" textLength="62" x="371" y="299.3955">return form</text><polygon fill="#181818" points="97,331.9492,87,335.9492,97,339.9492,93,335.9492" style="stroke:#181818;stroke-width:1.0;"/><line style="stroke:#181818;stroke-width:1.0;stroke-dasharray:2.0,2.0;" x1="91" x2="332" y1="335.9492" y2="335.9492"/><text fill="#000000" font-family="sans-serif" font-size="13" font-weight="bold" lengthAdjust="spacing" textLength="7" x="103" y="330.6865">8</text><text fill="#000000" font-family="sans-serif" font-size="13" lengthAdjust="spacing" textLength="129" x="114" y="330.6865">display form (wagonId)</text><polygon fill="#181818" points="321,363.2402,331,367.2402,321,371.2402,325,367.2402" style="stroke:#181818;stroke-width:1.0;"/><line style="stroke:#181818;stroke-width:1.0;" x1="86" x2="327" y1="367.2402" y2="367.2402"/><text fill="#000000" font-family="sans-serif" font-size="13" font-weight="bold" lengthAdjust="spacing" textLength="7" x="93" y="361.9775">9</text><text fill="#000000" font-family="sans-serif" font-size="13" lengthAdjust="spacing" textLength="90" x="104" y="361.9775">submit wagonId</text><polygon fill="#181818" points="516,394.5313,526,398.5313,516,402.5313,520,398.5313" style="stroke:#181818;stroke-width:1.0;"/><line style="stroke:#181818;stroke-width:1.0;" x1="343" x2="522" y1="398.5313" y2="398.5313"/><text fill="#000000" font-family="sans-serif" font-size="13" font-weight="bold" lengthAdjust="spacing" textLength="14" x="350" y="393.2686">10</text><text fill="#000000" font-family="sans-serif" font-size="13" lengthAdjust="spacing" textLength="89" x="368" y="393.2686">getInformation()</text><polygon fill="#181818" points="750,425.8223,760,429.8223,750,433.8223,754,429.8223" style="stroke:#181818;stroke-width:1.0;"/><line style="stroke:#181818;stroke-width:1.0;" x1="538" x2="756" y1="429.8223" y2="429.8223"/><text fill="#000000" font-family="sans-serif" font-size="13" font-weight="bold" lengthAdjust="spacing" textLength="14" x="545" y="424.5596">11</text><text fill="#000000" font-family="sans-serif" font-size="13" lengthAdjust="spacing" textLength="149" x="563" y="424.5596">validateWagonId(wagonId)</text><polygon fill="#181818" points="549,483.4043,539,487.4043,549,491.4043,545,487.4043" style="stroke:#181818;stroke-width:1.0;"/><line style="stroke:#181818;stroke-width:1.0;stroke-dasharray:2.0,2.0;" x1="543" x2="761" y1="487.4043" y2="487.4043"/><text fill="#000000" font-family="sans-serif" font-size="13" font-weight="bold" lengthAdjust="spacing" textLength="14" x="555" y="482.1416">12</text><text fill="#000000" font-family="sans-serif" font-size="13" lengthAdjust="spacing" textLength="86" x="573" y="482.1416">invalid wagonId</text><polygon fill="#181818" points="354,514.6953,344,518.6953,354,522.6953,350,518.6953" style="stroke:#181818;stroke-width:1.0;"/><line style="stroke:#181818;stroke-width:1.0;stroke-dasharray:2.0,2.0;" x1="348" x2="527" y1="518.6953" y2="518.6953"/><text fill="#000000" font-family="sans-serif" font-size="13" font-weight="bold" lengthAdjust="spacing" textLength="14" x="360" y="513.4326">13</text><text fill="#000000" font-family="sans-serif" font-size="13" lengthAdjust="spacing" textLength="63" x="378" y="513.4326">return error</text><polygon fill="#181818" points="97,545.9863,87,549.9863,97,553.9863,93,549.9863" style="stroke:#181818;stroke-width:1.0;"/><line style="stroke:#181818;stroke-width:1.0;stroke-dasharray:2.0,2.0;" x1="91" x2="332" y1="549.9863" y2="549.9863"/><text fill="#000000" font-family="sans-serif" font-size="13" font-weight="bold" lengthAdjust="spacing" textLength="14" x="103" y="544.7236">14</text><text fill="#000000" font-family="sans-serif" font-size="13" lengthAdjust="spacing" textLength="71" x="121" y="544.7236">display error</text><polygon fill="#181818" points="549,593.9082,539,597.9082,549,601.9082,545,597.9082" style="stroke:#181818;stroke-width:1.0;"/><line style="stroke:#181818;stroke-width:1.0;stroke-dasharray:2.0,2.0;" x1="543" x2="766" y1="597.9082" y2="597.9082"/><text fill="#000000" font-family="sans-serif" font-size="13" font-weight="bold" lengthAdjust="spacing" textLength="14" x="555" y="592.6455">15</text><text fill="#000000" font-family="sans-serif" font-size="13" lengthAdjust="spacing" textLength="76" x="573" y="592.6455">valid wagonId</text><polygon fill="#181818" points="858.5,625.1992,868.5,629.1992,858.5,633.1992,862.5,629.1992" style="stroke:#181818;stroke-width:1.0;"/><line style="stroke:#181818;stroke-width:1.0;" x1="538" x2="864.5" y1="629.1992" y2="629.1992"/><text fill="#000000" font-family="sans-serif" font-size="13" font-weight="bold" lengthAdjust="spacing" textLength="14" x="545" y="623.9365">16</text><text fill="#000000" font-family="sans-serif" font-size="13" lengthAdjust="spacing" textLength="101" x="563" y="623.9365">findById(wagonId)</text><polygon fill="#181818" points="549,656.4902,539,660.4902,549,664.4902,545,660.4902" style="stroke:#181818;stroke-width:1.0;"/><line style="stroke:#181818;stroke-width:1.0;stroke-dasharray:2.0,2.0;" x1="543" x2="874.5" y1="660.4902" y2="660.4902"/><text fill="#000000" font-family="sans-serif" font-size="13" font-weight="bold" lengthAdjust="spacing" textLength="14" x="555" y="655.2275">17</text><text fill="#000000" font-family="sans-serif" font-size="13" lengthAdjust="spacing" textLength="107" x="573" y="655.2275">Wagon with boxes</text><polygon fill="#181818" points="968,687.7813,978,691.7813,968,695.7813,972,691.7813" style="stroke:#181818;stroke-width:1.0;"/><line style="stroke:#181818;stroke-width:1.0;" x1="538" x2="974" y1="691.7813" y2="691.7813"/><text fill="#000000" font-family="sans-serif" font-size="13" font-weight="bold" lengthAdjust="spacing" textLength="14" x="545" y="686.5186">18</text><text fill="#000000" font-family="sans-serif" font-size="13" lengthAdjust="spacing" textLength="191" x="563" y="686.5186">unloadBoxes(Wagon.getBoxes())</text><line style="stroke:#181818;stroke-width:1.0;" x1="990" x2="1032" y1="723.0723" y2="723.0723"/><line style="stroke:#181818;stroke-width:1.0;" x1="1032" x2="1032" y1="723.0723" y2="736.0723"/><line style="stroke:#181818;stroke-width:1.0;" x1="991" x2="1032" y1="736.0723" y2="736.0723"/><polygon fill="#181818" points="1001,732.0723,991,736.0723,1001,740.0723,997,736.0723" style="stroke:#181818;stroke-width:1.0;"/><text fill="#000000" font-family="sans-serif" font-size="13" font-weight="bold" lengthAdjust="spacing" textLength="14" x="997" y="717.8096">19</text><text fill="#000000" font-family="sans-serif" font-size="13" lengthAdjust="spacing" textLength="169" x="1015" y="717.8096">insert each box (FEFO/FIFO)</text><polygon fill="#181818" points="549,763.3633,539,767.3633,549,771.3633,545,767.3633" style="stroke:#181818;stroke-width:1.0;"/><line style="stroke:#181818;stroke-width:1.0;stroke-dasharray:2.0,2.0;" x1="543" x2="984" y1="767.3633" y2="767.3633"/><text fill="#000000" font-family="sans-serif" font-size="13" font-weight="bold" lengthAdjust="spacing" textLength="14" x="555" y="762.1006">20</text><text fill="#000000" font-family="sans-serif" font-size="13" lengthAdjust="spacing" textLength="70" x="573" y="762.1006">confirmation</text><polygon fill="#181818" points="354,794.6543,344,798.6543,354,802.6543,350,798.6543" style="stroke:#181818;stroke-width:1.0;"/><line style="stroke:#181818;stroke-width:1.0;stroke-dasharray:2.0,2.0;" x1="348" x2="532" y1="798.6543" y2="798.6543"/><text fill="#000000" font-family="sans-serif" font-size="13" font-weight="bold" lengthAdjust="spacing" textLength="14" x="360" y="793.3916">21</text><text fill="#000000" font-family="sans-serif" font-size="13" lengthAdjust="spacing" textLength="143" x="378" y="793.3916">return success message</text><polygon fill="#181818" points="92,825.9453,82,829.9453,92,833.9453,88,829.9453" style="stroke:#181818;stroke-width:1.0;"/><line style="stroke:#181818;stroke-width:1.0;stroke-dasharray:2.0,2.0;" x1="86" x2="337" y1="829.9453" y2="829.9453"/><text fill="#000000" font-family="sans-serif" font-size="13" font-weight="bold" lengthAdjust="spacing" textLength="14" x="98" y="824.6826">22</text><text fill="#000000" font-family="sans-serif" font-size="13" lengthAdjust="spacing" textLength="205" x="116" y="824.6826">display success "Wagon unloaded"</text><!--SRC=[fLKzavim4Etv5JkkxC99xoB5tOGPAi_SHwwMOSrfJaX44dRuzrajM0OCETz4bGHldzw-NHRt8NKjhAYW5lc7AF7Pjmh1Okw5BXKcBWBSkoZCMUeIZa8vJ1BHUAERwe2Mzhat5bOlQ2kfXO9zZLRGenK85my94NcPorfe3wlTgrP656-YDFerO-1pwpnM4nW37etsrYY57UFZozCOnQ3Ks8fVXytu_I-XP145qMac_0bhuoHXMWQ5unYLwHFg-9vEdBSy2OyNwK2hsy9s-oDc3ZiefAkLQA7XhA52tJ0wCaINe5ync8XwpXquL5GRE0V1u4rF5sC6TvD7X6-k9gyvA2isD-WBsEBl1fsFPgwlq2WpM0-35IA98C29eKJFWJTNZJYuFZ1PpB0TQF6DrT0JZT05BZEndA5XFSzn21mGX7Jct9kfNA20sypcozGSAkblr4yD9xio7NY5brIW- -sc3gRmKzVL-DPTyudheUkdfWlbGMhccRNwii9zrzhS4x5K2BHsqEF3zM_tv-EG9X5yLVuoVj0OmQqvvyDO88wZrCL3-wddF4IcQfZYAeUh1sVft-5W_g1RKiHSSv9e4iKl_I4mh9do6tLNTzmig0iZR2eka4LEgHrQ3wI1jS4w_PdklwTPkj_C1yQaSgEFik_hfOHuWjxJCwx9StIEXgPpz8_wp-_umjPD_TutB5R9X38EvC6pVip_1G00]--></g></svg>