<?xml version="1.0" encoding="us-ascii" standalone="no"?><svg xmlns="http://www.w3.org/2000/svg" xmlns:xlink="http://www.w3.org/1999/xlink" contentStyleType="text/css" height="415px" preserveAspectRatio="none" style="width:345px;height:415px;background:#FFFFFF;" version="1.1" viewBox="0 0 345 415" width="345px" zoomAndPan="magnify"><defs/><g><text fill="#000000" font-family="sans-serif" font-size="14" font-weight="bold" lengthAdjust="spacing" textLength="248" x="41.5" y="25.1074">USEI07 - 2D-Tree Construction (DM)</text><!--class StationIndexManager--><g id="elem_StationIndexManager"><rect codeLine="12" fill="#F1F1F1" height="36.6211" id="StationIndexManager" rx="2.5" ry="2.5" style="stroke:#181818;stroke-width:0.5;" width="139" x="89.5" y="46.6211"/><text fill="#000000" font-family="sans-serif" font-size="14" lengthAdjust="spacing" textLength="133" x="92.5" y="66.7285">StationIndexManager</text><line style="stroke:#181818;stroke-width:0.5;" x1="90.5" x2="227.5" y1="75.2422" y2="75.2422"/></g><!--class BST--><g id="elem_BST"><rect codeLine="16" fill="#F1F1F1" height="36.6211" id="BST" rx="2.5" ry="2.5" style="stroke:#181818;stroke-width:0.5;" width="33" x="142.5" y="162.6211"/><text fill="#000000" font-family="sans-serif" font-size="14" lengthAdjust="spacing" textLength="27" x="145.5" y="182.7285">BST</text><line style="stroke:#181818;stroke-width:0.5;" x1="143.5" x2="174.5" y1="191.2422" y2="191.2422"/></g><!--class KDTree--><g id="elem_KDTree"><rect codeLine="21" fill="#F1F1F1" height="36.6211" id="KDTree" rx="2.5" ry="2.5" style="stroke:#181818;stroke-width:0.5;" width="55" x="240.5" y="162.6211"/><text fill="#000000" font-family="sans-serif" font-size="14" lengthAdjust="spacing" textLength="49" x="243.5" y="182.7285">KDTree</text><line style="stroke:#181818;stroke-width:0.5;" x1="241.5" x2="294.5" y1="191.2422" y2="191.2422"/></g><!--class EuropeanStation--><g id="elem_EuropeanStation"><rect codeLine="26" fill="#F1F1F1" height="129.7266" id="EuropeanStation" rx="2.5" ry="2.5" style="stroke:#181818;stroke-width:0.5;" width="112" x="159" y="278.6211"/><text fill="#000000" font-family="sans-serif" font-size="14" lengthAdjust="spacing" textLength="106" x="162" y="298.7285">EuropeanStation</text><line style="stroke:#181818;stroke-width:0.5;" x1="160" x2="270" y1="307.2422" y2="307.2422"/><text fill="#000000" font-family="sans-serif" font-size="14" lengthAdjust="spacing" textLength="78" x="165" y="326.3496">stationName</text><text fill="#000000" font-family="sans-serif" font-size="14" lengthAdjust="spacing" textLength="46" x="165" y="344.9707">latitude</text><text fill="#000000" font-family="sans-serif" font-size="14" lengthAdjust="spacing" textLength="58" x="165" y="363.5918">longitude</text><text fill="#000000" font-family="sans-serif" font-size="14" lengthAdjust="spacing" textLength="47" x="165" y="382.2129">country</text><text fill="#000000" font-family="sans-serif" font-size="14" lengthAdjust="spacing" textLength="98" x="165" y="400.834">timeZoneGroup</text></g><!--reverse link StationIndexManager to BST--><g id="link_StationIndexManager_BST"><path codeLine="36" d="M90.9996,87.2291 C47.4196,100.7591 6,113.6211 6,113.6211 C6,113.6211 6,132.6211 6,132.6211 C6,132.6211 102.68,162.6411 142.34,174.9511 " fill="none" id="StationIndexManager-backto-BST" style="stroke:#181818;stroke-width:1.0;"/><polygon fill="#181818" points="102.46,83.6711,95.5438,81.63,90.9996,87.2291,97.9158,89.2702,102.46,83.6711" style="stroke:#181818;stroke-width:1.0;"/><text fill="#000000" font-family="sans-serif" font-size="13" lengthAdjust="spacing" textLength="108" x="7" y="128.6494">(holds 1D indexes)</text><text fill="#000000" font-family="sans-serif" font-size="13" lengthAdjust="spacing" textLength="7" x="78.5737" y="105.4014">1</text><text fill="#000000" font-family="sans-serif" font-size="13" lengthAdjust="spacing" textLength="20" x="114.5086" y="167.7685">1..*</text></g><!--link StationIndexManager to BST--><g id="link_StationIndexManager_BST"><path codeLine="41" d="M157.88,83.8111 C157.03,97.3111 156,113.6211 156,113.6211 C156,113.6211 156,132.6211 156,132.6211 C156,132.6211 156.653,142.943 157.503,156.443 " fill="none" id="StationIndexManager-to-BST" style="stroke:#181818;stroke-width:1.0;stroke-dasharray:7.0,7.0;"/><polygon fill="#181818" points="157.88,162.4311,161.3065,153.1975,157.5658,157.441,153.3224,153.7002,157.88,162.4311" style="stroke:#181818;stroke-width:1.0;"/><text fill="#000000" font-family="sans-serif" font-size="13" lengthAdjust="spacing" textLength="71" x="157" y="128.6494">(builds from)</text></g><!--reverse link StationIndexManager to KDTree--><g id="link_StationIndexManager_KDTree"><path codeLine="37" d="M196.6498,90.2914 C217.6898,103.7914 233,113.6211 233,113.6211 C233,113.6211 248.25,142.6011 258.62,162.3011 " fill="none" id="StationIndexManager-backto-KDTree" style="stroke:#181818;stroke-width:1.0;"/><polygon fill="#181818" points="186.55,83.8111,189.4398,90.4179,196.6498,90.2914,193.76,83.6847,186.55,83.8111" style="stroke:#181818;stroke-width:1.0;"/><text fill="#000000" font-family="sans-serif" font-size="13" lengthAdjust="spacing" textLength="94" x="243" y="128.6494">(holds 2D index)</text><text fill="#000000" font-family="sans-serif" font-size="13" lengthAdjust="spacing" textLength="7" x="186.0134" y="105.2367">1</text><text fill="#000000" font-family="sans-serif" font-size="13" lengthAdjust="spacing" textLength="7" x="247.8365" y="151.4026">1</text></g><!--reverse link BST to EuropeanStation--><g id="link_BST_EuropeanStation"><path codeLine="44" d="M169.1599,211.2424 C175.7899,230.2624 182.75,250.1911 192.67,278.6211 " fill="none" id="BST-backto-EuropeanStation" style="stroke:#181818;stroke-width:1.0;"/><polygon fill="none" points="165.21,199.9111,163.4078,206.8934,169.1599,211.2424,170.962,204.2601,165.21,199.9111" style="stroke:#181818;stroke-width:1.0;"/><text fill="#000000" font-family="sans-serif" font-size="13" lengthAdjust="spacing" textLength="45" x="182" y="244.6494">indexes</text><text fill="#000000" font-family="sans-serif" font-size="13" lengthAdjust="spacing" textLength="20" x="168.9318" y="267.1836">1..*</text></g><!--reverse link KDTree to EuropeanStation--><g id="link_KDTree_EuropeanStation"><path codeLine="45" d="M258.3676,211.306 C252.0876,230.326 245.52,250.1911 236.14,278.6211 " fill="none" id="KDTree-backto-EuropeanStation" style="stroke:#181818;stroke-width:1.0;"/><polygon fill="none" points="262.13,199.9111,256.4505,204.3544,258.3676,211.306,264.0471,206.8627,262.13,199.9111" style="stroke:#181818;stroke-width:1.0;"/><text fill="#000000" font-family="sans-serif" font-size="13" lengthAdjust="spacing" textLength="45" x="251" y="244.6494">indexes</text><text fill="#000000" font-family="sans-serif" font-size="13" lengthAdjust="spacing" textLength="20" x="217.4281" y="267.1836">1..*</text></g><!--SRC=[ZL9DQnin4BthLmo-n0xOn3cqa4EXoPfYIdBekXHoKxHZhuXMMZIpDDlI_rvzsMlIG7FQqUoyf_VUY3KRXE_rPdlr4PPmNIrt7X7kd2NsWsBjBCoh-uKGhMuGbFRAOAuxvDOr9EXPsrvwsK4lrRCyOCrZuFIeMDf3c9u6g9MD-wdj0VRIqFaVeotos2FqpepnSFPF6KdqcTdhfu5ngvojzI-4Ao4kODTgoWFGEjCGI6D0smPVa4JkrooZZMritaiR17huBVvaD0A-QE8egP4i8RiUFCBUkou7yw4GtTQx00IuWFcjjjAFKAFqgeKKsTvvM5UBYVXXy-CVpZ2JiowKNwk4BQp7zECOzK6rB5w2l3DYvG9LvJgfBMmiQnuBssRmhaTfY-D4Ixb-a1s6ama77ffKEdiurieDblqOAjOTFZgBNxmR-dpbDpI9WbhTKv7GbHodp3bqazR9Bectef-jPt2vN8RlQdKvIw7Um3mJhQlZxXR_mSwEqPsmrmMx4AyqXi3h98-SPsp2KoEclDxO3GAYAtRmD6ZJf5xcVbF2QlNfg3dDPwRJfHnm52A8AqftbbN4Xo0YpatMNw_hvlHmYxTtpVu5]--></g></svg>