<?xml version="1.0" encoding="us-ascii" standalone="no"?><svg xmlns="http://www.w3.org/2000/svg" xmlns:xlink="http://www.w3.org/1999/xlink" contentStyleType="text/css" height="1059px" preserveAspectRatio="none" style="width:1555px;height:1059px;background:#FFFFFF;" version="1.1" viewBox="0 0 1555 1059" width="1555px" zoomAndPan="magnify"><defs/><g><text fill="#000000" font-family="sans-serif" font-size="14" font-weight="bold" lengthAdjust="spacing" textLength="331" x="613" y="30.1074">USEI04 - Design Sequence Diagram (Corrected)</text><rect fill="#FFFFFF" height="809.9844" style="stroke:#181818;stroke-width:1.0;" width="10" x="37.5" y="156.5332"/><rect fill="#FFFFFF" height="833.2754" style="stroke:#181818;stroke-width:1.0;" width="10" x="349.5" y="133.2422"/><rect fill="#FFFFFF" height="703.7813" style="stroke:#181818;stroke-width:1.0;" width="10" x="544.5" y="262.7363"/><rect fill="#FFFFFF" height="57.582" style="stroke:#181818;stroke-width:1.0;" width="10" x="716.5" y="294.0273"/><rect fill="#FFFFFF" height="164.1641" style="stroke:#181818;stroke-width:1.0;" width="10" x="884.5" y="493.4043"/><rect fill="#FFFFFF" height="31.291" style="stroke:#181818;stroke-width:1.0;" width="10" x="1054.5" y="688.8594"/><rect fill="#FFFFFF" height="31.291" style="stroke:#181818;stroke-width:1.0;" width="10" x="1159.5" y="751.4414"/><rect fill="#FFFFFF" height="74.9121" style="stroke:#181818;stroke-width:1.0;" width="10" x="1298" y="814.0234"/><rect fill="none" height="650.4902" style="stroke:#000000;stroke-width:1.5;" width="1538" x="10" y="309.0273"/><line style="stroke:#181818;stroke-width:0.5;stroke-dasharray:5.0,5.0;" x1="42" x2="42" y1="123.2422" y2="976.5176"/><line style="stroke:#181818;stroke-width:0.5;stroke-dasharray:5.0,5.0;" x1="354" x2="354" y1="123.2422" y2="976.5176"/><line style="stroke:#181818;stroke-width:0.5;stroke-dasharray:5.0,5.0;" x1="549" x2="549" y1="227.6348" y2="976.5176"/><line style="stroke:#181818;stroke-width:0.5;stroke-dasharray:5.0,5.0;" x1="721" x2="721" y1="123.2422" y2="976.5176"/><line style="stroke:#181818;stroke-width:0.5;stroke-dasharray:5.0,5.0;" x1="889" x2="889" y1="123.2422" y2="976.5176"/><line style="stroke:#181818;stroke-width:0.5;stroke-dasharray:5.0,5.0;" x1="1059" x2="1059" y1="123.2422" y2="976.5176"/><line style="stroke:#181818;stroke-width:0.5;stroke-dasharray:5.0,5.0;" x1="1164" x2="1164" y1="123.2422" y2="976.5176"/><line style="stroke:#181818;stroke-width:0.5;stroke-dasharray:5.0,5.0;" x1="1303" x2="1303" y1="123.2422" y2="976.5176"/><line style="stroke:#181818;stroke-width:0.5;stroke-dasharray:5.0,5.0;" x1="1492" x2="1492" y1="853.834" y2="976.5176"/><text fill="#000000" font-family="sans-serif" font-size="14" lengthAdjust="spacing" textLength="39" x="20" y="119.7285">Picker</text><ellipse cx="42.5" cy="53.1211" fill="#E2E2F0" rx="8" ry="8" style="stroke:#181818;stroke-width:0.5;"/><path d="M42.5,61.1211 L42.5,88.1211 M29.5,69.1211 L55.5,69.1211 M42.5,88.1211 L29.5,103.1211 M42.5,88.1211 L55.5,103.1211 " fill="none" style="stroke:#181818;stroke-width:0.5;"/><text fill="#000000" font-family="sans-serif" font-size="14" lengthAdjust="spacing" textLength="39" x="20" y="990.625">Picker</text><ellipse cx="42.5" cy="1002.6387" fill="#E2E2F0" rx="8" ry="8" style="stroke:#181818;stroke-width:0.5;"/><path d="M42.5,1010.6387 L42.5,1037.6387 M29.5,1018.6387 L55.5,1018.6387 M42.5,1037.6387 L29.5,1052.6387 M42.5,1037.6387 L55.5,1052.6387 " fill="none" style="stroke:#181818;stroke-width:0.5;"/><rect fill="#E2E2F0" height="32.6211" rx="2.5" ry="2.5" style="stroke:#181818;stroke-width:0.5;" width="127" x="291" y="89.6211"/><text fill="#000000" font-family="sans-serif" font-size="14" lengthAdjust="spacing" textLength="113" x="298" y="111.7285">:GetPickingPathUI</text><rect fill="#E2E2F0" height="32.6211" rx="2.5" ry="2.5" style="stroke:#181818;stroke-width:0.5;" width="127" x="291" y="975.5176"/><text fill="#000000" font-family="sans-serif" font-size="14" lengthAdjust="spacing" textLength="113" x="298" y="997.625">:GetPickingPathUI</text><rect fill="#E2E2F0" height="32.6211" rx="2.5" ry="2.5" style="stroke:#181818;stroke-width:0.5;" width="177" x="461" y="975.5176"/><text fill="#000000" font-family="sans-serif" font-size="14" lengthAdjust="spacing" textLength="163" x="468" y="997.625">:GetPickingPathController</text><rect fill="#E2E2F0" height="32.6211" rx="2.5" ry="2.5" style="stroke:#181818;stroke-width:0.5;" width="147" x="648" y="89.6211"/><text fill="#000000" font-family="sans-serif" font-size="14" lengthAdjust="spacing" textLength="133" x="655" y="111.7285">:PickingPlanValidator</text><rect fill="#E2E2F0" height="32.6211" rx="2.5" ry="2.5" style="stroke:#181818;stroke-width:0.5;" width="147" x="648" y="975.5176"/><text fill="#000000" font-family="sans-serif" font-size="14" lengthAdjust="spacing" textLength="133" x="655" y="997.625">:PickingPlanValidator</text><rect fill="#E2E2F0" height="32.6211" rx="2.5" ry="2.5" style="stroke:#181818;stroke-width:0.5;" width="169" x="805" y="89.6211"/><text fill="#000000" font-family="sans-serif" font-size="14" lengthAdjust="spacing" textLength="155" x="812" y="111.7285">:PathSequencingService</text><rect fill="#E2E2F0" height="32.6211" rx="2.5" ry="2.5" style="stroke:#181818;stroke-width:0.5;" width="169" x="805" y="975.5176"/><text fill="#000000" font-family="sans-serif" font-size="14" lengthAdjust="spacing" textLength="155" x="812" y="997.625">:PathSequencingService</text><rect fill="#E2E2F0" height="32.6211" rx="2.5" ry="2.5" style="stroke:#181818;stroke-width:0.5;" width="93" x="1013" y="89.6211"/><text fill="#000000" font-family="sans-serif" font-size="14" lengthAdjust="spacing" textLength="79" x="1020" y="111.7285">Repositories</text><rect fill="#E2E2F0" height="32.6211" rx="2.5" ry="2.5" style="stroke:#181818;stroke-width:0.5;" width="93" x="1013" y="975.5176"/><text fill="#000000" font-family="sans-serif" font-size="14" lengthAdjust="spacing" textLength="79" x="1020" y="997.625">Repositories</text><rect fill="#E2E2F0" height="51.2422" rx="2.5" ry="2.5" style="stroke:#181818;stroke-width:0.5;" width="97" x="1116" y="71"/><text fill="#000000" font-family="sans-serif" font-size="14" lengthAdjust="spacing" textLength="74" x="1127.5" y="93.1074">repositories</text><text fill="#000000" font-family="sans-serif" font-size="14" lengthAdjust="spacing" textLength="83" x="1123" y="111.7285">:Repositories</text><rect fill="#E2E2F0" height="51.2422" rx="2.5" ry="2.5" style="stroke:#181818;stroke-width:0.5;" width="97" x="1116" y="975.5176"/><text fill="#000000" font-family="sans-serif" font-size="14" lengthAdjust="spacing" textLength="74" x="1127.5" y="997.625">repositories</text><text fill="#000000" font-family="sans-serif" font-size="14" lengthAdjust="spacing" textLength="83" x="1123" y="1016.2461">:Repositories</text><rect fill="#E2E2F0" height="32.6211" rx="2.5" ry="2.5" style="stroke:#181818;stroke-width:0.5;" width="160" x="1223" y="89.6211"/><text fill="#000000" font-family="sans-serif" font-size="14" lengthAdjust="spacing" textLength="146" x="1230" y="111.7285">:PickingPathRepository</text><rect fill="#E2E2F0" height="32.6211" rx="2.5" ry="2.5" style="stroke:#181818;stroke-width:0.5;" width="160" x="1223" y="975.5176"/><text fill="#000000" font-family="sans-serif" font-size="14" lengthAdjust="spacing" textLength="146" x="1230" y="997.625">:PickingPathRepository</text><rect fill="#E2E2F0" height="32.6211" rx="2.5" ry="2.5" style="stroke:#181818;stroke-width:0.5;" width="92" x="1446" y="975.5176"/><text fill="#000000" font-family="sans-serif" font-size="14" lengthAdjust="spacing" textLength="78" x="1453" y="997.625">:PickingPath</text><rect fill="#FFFFFF" height="809.9844" style="stroke:#181818;stroke-width:1.0;" width="10" x="37.5" y="156.5332"/><rect fill="#FFFFFF" height="833.2754" style="stroke:#181818;stroke-width:1.0;" width="10" x="349.5" y="133.2422"/><rect fill="#FFFFFF" height="703.7813" style="stroke:#181818;stroke-width:1.0;" width="10" x="544.5" y="262.7363"/><rect fill="#FFFFFF" height="57.582" style="stroke:#181818;stroke-width:1.0;" width="10" x="716.5" y="294.0273"/><rect fill="#FFFFFF" height="164.1641" style="stroke:#181818;stroke-width:1.0;" width="10" x="884.5" y="493.4043"/><rect fill="#FFFFFF" height="31.291" style="stroke:#181818;stroke-width:1.0;" width="10" x="1054.5" y="688.8594"/><rect fill="#FFFFFF" height="31.291" style="stroke:#181818;stroke-width:1.0;" width="10" x="1159.5" y="751.4414"/><rect fill="#FFFFFF" height="74.9121" style="stroke:#181818;stroke-width:1.0;" width="10" x="1298" y="814.0234"/><polygon fill="#181818" points="58.5,152.5332,48.5,156.5332,58.5,160.5332,54.5,156.5332" style="stroke:#181818;stroke-width:1.0;"/><line style="stroke:#181818;stroke-width:1.0;stroke-dasharray:2.0,2.0;" x1="52.5" x2="348.5" y1="156.5332" y2="156.5332"/><text fill="#000000" font-family="sans-serif" font-size="13" font-weight="bold" lengthAdjust="spacing" textLength="7" x="64.5" y="151.2705">1</text><text fill="#000000" font-family="sans-serif" font-size="13" lengthAdjust="spacing" textLength="217" x="75.5" y="151.2705">Displays option to plan a picking path</text><polygon fill="#181818" points="337.5,183.8242,347.5,187.8242,337.5,191.8242,341.5,187.8242" style="stroke:#181818;stroke-width:1.0;"/><line style="stroke:#181818;stroke-width:1.0;" x1="47.5" x2="343.5" y1="187.8242" y2="187.8242"/><text fill="#000000" font-family="sans-serif" font-size="13" font-weight="bold" lengthAdjust="spacing" textLength="7" x="54.5" y="182.5615">2</text><text fill="#000000" font-family="sans-serif" font-size="13" lengthAdjust="spacing" textLength="246" x="65.5" y="182.5615">Requests optimized path for a picking plan</text><polygon fill="#181818" points="449,215.1152,459,219.1152,449,223.1152,453,219.1152" style="stroke:#181818;stroke-width:1.0;"/><line style="stroke:#181818;stroke-width:1.0;stroke-dasharray:2.0,2.0;" x1="359.5" x2="455" y1="219.1152" y2="219.1152"/><text fill="#000000" font-family="sans-serif" font-size="13" font-weight="bold" lengthAdjust="spacing" textLength="7" x="366.5" y="213.8525">3</text><text fill="#000000" font-family="sans-serif" font-size="13" lengthAdjust="spacing" textLength="44" x="377.5" y="213.8525">create()</text><rect fill="#E2E2F0" height="32.6211" rx="2.5" ry="2.5" style="stroke:#181818;stroke-width:0.5;" width="177" x="461" y="195.8242"/><text fill="#000000" font-family="sans-serif" font-size="14" lengthAdjust="spacing" textLength="163" x="468" y="217.9316">:GetPickingPathController</text><polygon fill="#181818" points="532.5,258.7363,542.5,262.7363,532.5,266.7363,536.5,262.7363" style="stroke:#181818;stroke-width:1.0;"/><line style="stroke:#181818;stroke-width:1.0;" x1="359.5" x2="538.5" y1="262.7363" y2="262.7363"/><text fill="#000000" font-family="sans-serif" font-size="13" font-weight="bold" lengthAdjust="spacing" textLength="7" x="366.5" y="257.4736">4</text><text fill="#000000" font-family="sans-serif" font-size="13" lengthAdjust="spacing" textLength="136" x="377.5" y="257.4736">getOptimizedPath(plan)</text><polygon fill="#181818" points="704.5,290.0273,714.5,294.0273,704.5,298.0273,708.5,294.0273" style="stroke:#181818;stroke-width:1.0;"/><line style="stroke:#181818;stroke-width:1.0;" x1="554.5" x2="710.5" y1="294.0273" y2="294.0273"/><text fill="#000000" font-family="sans-serif" font-size="13" font-weight="bold" lengthAdjust="spacing" textLength="7" x="561.5" y="288.7646">5</text><text fill="#000000" font-family="sans-serif" font-size="13" lengthAdjust="spacing" textLength="75" x="572.5" y="288.7646">validate(plan)</text><path d="M10,309.0273 L71,309.0273 L71,318.3184 L61,328.3184 L10,328.3184 L10,309.0273 " fill="#EEEEEE" style="stroke:#000000;stroke-width:1.5;"/><rect fill="none" height="650.4902" style="stroke:#000000;stroke-width:1.5;" width="1538" x="10" y="309.0273"/><text fill="#000000" font-family="sans-serif" font-size="13" font-weight="bold" lengthAdjust="spacing" textLength="16" x="25" y="324.0557">alt</text><text fill="#000000" font-family="sans-serif" font-size="11" font-weight="bold" lengthAdjust="spacing" textLength="112" x="86" y="322.8975">[Invalid Picking Plan]</text><polygon fill="#181818" points="565.5,347.6094,555.5,351.6094,565.5,355.6094,561.5,351.6094" style="stroke:#181818;stroke-width:1.0;"/><line style="stroke:#181818;stroke-width:1.0;stroke-dasharray:2.0,2.0;" x1="559.5" x2="720.5" y1="351.6094" y2="351.6094"/><text fill="#000000" font-family="sans-serif" font-size="13" font-weight="bold" lengthAdjust="spacing" textLength="7" x="571.5" y="346.3467">6</text><text fill="#000000" font-family="sans-serif" font-size="13" lengthAdjust="spacing" textLength="74" x="582.5" y="346.3467">false (invalid)</text><polygon fill="#181818" points="370.5,378.9004,360.5,382.9004,370.5,386.9004,366.5,382.9004" style="stroke:#181818;stroke-width:1.0;"/><line style="stroke:#181818;stroke-width:1.0;stroke-dasharray:2.0,2.0;" x1="364.5" x2="543.5" y1="382.9004" y2="382.9004"/><text fill="#000000" font-family="sans-serif" font-size="13" font-weight="bold" lengthAdjust="spacing" textLength="7" x="376.5" y="377.6377">7</text><text fill="#000000" font-family="sans-serif" font-size="13" lengthAdjust="spacing" textLength="150" x="387.5" y="377.6377">return error ("Invalid Plan")</text><polygon fill="#181818" points="58.5,410.1914,48.5,414.1914,58.5,418.1914,54.5,414.1914" style="stroke:#181818;stroke-width:1.0;"/><line style="stroke:#181818;stroke-width:1.0;stroke-dasharray:2.0,2.0;" x1="52.5" x2="348.5" y1="414.1914" y2="414.1914"/><text fill="#000000" font-family="sans-serif" font-size="13" font-weight="bold" lengthAdjust="spacing" textLength="7" x="64.5" y="408.9287">8</text><text fill="#000000" font-family="sans-serif" font-size="13" lengthAdjust="spacing" textLength="137" x="75.5" y="408.9287">Displays error message</text><line style="stroke:#000000;stroke-width:1.0;stroke-dasharray:2.0,2.0;" x1="10" x2="1548" y1="423.1914" y2="423.1914"/><text fill="#000000" font-family="sans-serif" font-size="11" font-weight="bold" lengthAdjust="spacing" textLength="104" x="15" y="435.0615">[Valid Picking Plan]</text><polygon fill="#181818" points="565.5,458.1133,555.5,462.1133,565.5,466.1133,561.5,462.1133" style="stroke:#181818;stroke-width:1.0;"/><line style="stroke:#181818;stroke-width:1.0;stroke-dasharray:2.0,2.0;" x1="559.5" x2="720.5" y1="462.1133" y2="462.1133"/><text fill="#000000" font-family="sans-serif" font-size="13" font-weight="bold" lengthAdjust="spacing" textLength="7" x="571.5" y="456.8506">9</text><text fill="#000000" font-family="sans-serif" font-size="13" lengthAdjust="spacing" textLength="59" x="582.5" y="456.8506">true (valid)</text><polygon fill="#181818" points="872.5,489.4043,882.5,493.4043,872.5,497.4043,876.5,493.4043" style="stroke:#181818;stroke-width:1.0;"/><line style="stroke:#181818;stroke-width:1.0;" x1="554.5" x2="878.5" y1="493.4043" y2="493.4043"/><text fill="#000000" font-family="sans-serif" font-size="13" font-weight="bold" lengthAdjust="spacing" textLength="14" x="561.5" y="488.1416">10</text><text fill="#000000" font-family="sans-serif" font-size="13" lengthAdjust="spacing" textLength="118" x="579.5" y="488.1416">calculatePaths(plan)</text><line style="stroke:#181818;stroke-width:1.0;" x1="894.5" x2="936.5" y1="524.6953" y2="524.6953"/><line style="stroke:#181818;stroke-width:1.0;" x1="936.5" x2="936.5" y1="524.6953" y2="537.6953"/><line style="stroke:#181818;stroke-width:1.0;" x1="895.5" x2="936.5" y1="537.6953" y2="537.6953"/><polygon fill="#181818" points="905.5,533.6953,895.5,537.6953,905.5,541.6953,901.5,537.6953" style="stroke:#181818;stroke-width:1.0;"/><text fill="#000000" font-family="sans-serif" font-size="13" font-weight="bold" lengthAdjust="spacing" textLength="14" x="901.5" y="519.4326">11</text><text fill="#000000" font-family="sans-serif" font-size="13" lengthAdjust="spacing" textLength="128" x="919.5" y="519.4326">mergeDuplicateBays()</text><line style="stroke:#181818;stroke-width:1.0;" x1="894.5" x2="936.5" y1="568.9863" y2="568.9863"/><line style="stroke:#181818;stroke-width:1.0;" x1="936.5" x2="936.5" y1="568.9863" y2="581.9863"/><line style="stroke:#181818;stroke-width:1.0;" x1="895.5" x2="936.5" y1="581.9863" y2="581.9863"/><polygon fill="#181818" points="905.5,577.9863,895.5,581.9863,905.5,585.9863,901.5,581.9863" style="stroke:#181818;stroke-width:1.0;"/><text fill="#000000" font-family="sans-serif" font-size="13" font-weight="bold" lengthAdjust="spacing" textLength="14" x="901.5" y="563.7236">12</text><text fill="#000000" font-family="sans-serif" font-size="13" lengthAdjust="spacing" textLength="118" x="919.5" y="563.7236">calculateStrategyA()</text><line style="stroke:#181818;stroke-width:1.0;" x1="894.5" x2="936.5" y1="613.2773" y2="613.2773"/><line style="stroke:#181818;stroke-width:1.0;" x1="936.5" x2="936.5" y1="613.2773" y2="626.2773"/><line style="stroke:#181818;stroke-width:1.0;" x1="895.5" x2="936.5" y1="626.2773" y2="626.2773"/><polygon fill="#181818" points="905.5,622.2773,895.5,626.2773,905.5,630.2773,901.5,626.2773" style="stroke:#181818;stroke-width:1.0;"/><text fill="#000000" font-family="sans-serif" font-size="13" font-weight="bold" lengthAdjust="spacing" textLength="14" x="901.5" y="608.0146">13</text><text fill="#000000" font-family="sans-serif" font-size="13" lengthAdjust="spacing" textLength="118" x="919.5" y="608.0146">calculateStrategyB()</text><polygon fill="#181818" points="565.5,653.5684,555.5,657.5684,565.5,661.5684,561.5,657.5684" style="stroke:#181818;stroke-width:1.0;"/><line style="stroke:#181818;stroke-width:1.0;stroke-dasharray:2.0,2.0;" x1="559.5" x2="888.5" y1="657.5684" y2="657.5684"/><text fill="#000000" font-family="sans-serif" font-size="13" font-weight="bold" lengthAdjust="spacing" textLength="14" x="571.5" y="652.3057">14</text><text fill="#000000" font-family="sans-serif" font-size="13" lengthAdjust="spacing" textLength="133" x="589.5" y="652.3057">pathCalculationResults</text><polygon fill="#181818" points="1042.5,684.8594,1052.5,688.8594,1042.5,692.8594,1046.5,688.8594" style="stroke:#181818;stroke-width:1.0;"/><line style="stroke:#181818;stroke-width:1.0;" x1="554.5" x2="1048.5" y1="688.8594" y2="688.8594"/><text fill="#000000" font-family="sans-serif" font-size="13" font-weight="bold" lengthAdjust="spacing" textLength="14" x="561.5" y="683.5967">15</text><text fill="#000000" font-family="sans-serif" font-size="13" lengthAdjust="spacing" textLength="75" x="579.5" y="683.5967">getInstance()</text><polygon fill="#181818" points="565.5,716.1504,555.5,720.1504,565.5,724.1504,561.5,720.1504" style="stroke:#181818;stroke-width:1.0;"/><line style="stroke:#181818;stroke-width:1.0;stroke-dasharray:2.0,2.0;" x1="559.5" x2="1058.5" y1="720.1504" y2="720.1504"/><text fill="#000000" font-family="sans-serif" font-size="13" font-weight="bold" lengthAdjust="spacing" textLength="14" x="571.5" y="714.8877">16</text><text fill="#000000" font-family="sans-serif" font-size="13" lengthAdjust="spacing" textLength="67" x="589.5" y="714.8877">repositories</text><polygon fill="#181818" points="1147.5,747.4414,1157.5,751.4414,1147.5,755.4414,1151.5,751.4414" style="stroke:#181818;stroke-width:1.0;"/><line style="stroke:#181818;stroke-width:1.0;" x1="554.5" x2="1153.5" y1="751.4414" y2="751.4414"/><text fill="#000000" font-family="sans-serif" font-size="13" font-weight="bold" lengthAdjust="spacing" textLength="14" x="561.5" y="746.1787">17</text><text fill="#000000" font-family="sans-serif" font-size="13" lengthAdjust="spacing" textLength="158" x="579.5" y="746.1787">getPickingPathRepository()</text><polygon fill="#181818" points="565.5,778.7324,555.5,782.7324,565.5,786.7324,561.5,782.7324" style="stroke:#181818;stroke-width:1.0;"/><line style="stroke:#181818;stroke-width:1.0;stroke-dasharray:2.0,2.0;" x1="559.5" x2="1163.5" y1="782.7324" y2="782.7324"/><text fill="#000000" font-family="sans-serif" font-size="13" font-weight="bold" lengthAdjust="spacing" textLength="14" x="571.5" y="777.4697">18</text><text fill="#000000" font-family="sans-serif" font-size="13" lengthAdjust="spacing" textLength="132" x="589.5" y="777.4697">PickingPathRepository</text><polygon fill="#181818" points="1286,810.0234,1296,814.0234,1286,818.0234,1290,814.0234" style="stroke:#181818;stroke-width:1.0;"/><line style="stroke:#181818;stroke-width:1.0;" x1="554.5" x2="1292" y1="814.0234" y2="814.0234"/><text fill="#000000" font-family="sans-serif" font-size="13" font-weight="bold" lengthAdjust="spacing" textLength="14" x="561.5" y="808.7607">19</text><text fill="#000000" font-family="sans-serif" font-size="13" lengthAdjust="spacing" textLength="255" x="579.5" y="808.7607">createAndSavePath(pathCalculationResults)</text><polygon fill="#181818" points="1434,841.3145,1444,845.3145,1434,849.3145,1438,845.3145" style="stroke:#181818;stroke-width:1.0;"/><line style="stroke:#181818;stroke-width:1.0;" x1="1308" x2="1440" y1="845.3145" y2="845.3145"/><text fill="#000000" font-family="sans-serif" font-size="13" font-weight="bold" lengthAdjust="spacing" textLength="14" x="1315" y="840.0518">20</text><text fill="#000000" font-family="sans-serif" font-size="13" lengthAdjust="spacing" textLength="96" x="1333" y="840.0518">create(pathData)</text><rect fill="#E2E2F0" height="32.6211" rx="2.5" ry="2.5" style="stroke:#181818;stroke-width:0.5;" width="92" x="1446" y="822.0234"/><text fill="#000000" font-family="sans-serif" font-size="14" lengthAdjust="spacing" textLength="78" x="1453" y="844.1309">:PickingPath</text><polygon fill="#181818" points="565.5,884.9355,555.5,888.9355,565.5,892.9355,561.5,888.9355" style="stroke:#181818;stroke-width:1.0;"/><line style="stroke:#181818;stroke-width:1.0;stroke-dasharray:2.0,2.0;" x1="559.5" x2="1302" y1="888.9355" y2="888.9355"/><text fill="#000000" font-family="sans-serif" font-size="13" font-weight="bold" lengthAdjust="spacing" textLength="14" x="571.5" y="883.6729">21</text><text fill="#000000" font-family="sans-serif" font-size="13" lengthAdjust="spacing" textLength="103" x="589.5" y="883.6729">savedPickingPath</text><polygon fill="#181818" points="370.5,916.2266,360.5,920.2266,370.5,924.2266,366.5,920.2266" style="stroke:#181818;stroke-width:1.0;"/><line style="stroke:#181818;stroke-width:1.0;stroke-dasharray:2.0,2.0;" x1="364.5" x2="543.5" y1="920.2266" y2="920.2266"/><text fill="#000000" font-family="sans-serif" font-size="13" font-weight="bold" lengthAdjust="spacing" textLength="14" x="376.5" y="914.9639">22</text><text fill="#000000" font-family="sans-serif" font-size="13" lengthAdjust="spacing" textLength="103" x="394.5" y="914.9639">savedPickingPath</text><polygon fill="#181818" points="58.5,947.5176,48.5,951.5176,58.5,955.5176,54.5,951.5176" style="stroke:#181818;stroke-width:1.0;"/><line style="stroke:#181818;stroke-width:1.0;stroke-dasharray:2.0,2.0;" x1="52.5" x2="348.5" y1="951.5176" y2="951.5176"/><text fill="#000000" font-family="sans-serif" font-size="13" font-weight="bold" lengthAdjust="spacing" textLength="14" x="64.5" y="946.2549">23</text><text fill="#000000" font-family="sans-serif" font-size="13" lengthAdjust="spacing" textLength="260" x="82.5" y="946.2549">Displays both optimized paths and distances</text><!--SRC=[fLR1Rjim3BtxAuXSbXGeiCDEFXHeaw8mCBH5tFGqO61irjMgo9uafyY-VfHbkqvYn-ccGs3PvEDx94N52Yi9Ll5jzFKRNCA2ZCWKnFIx99KGB0Hc6ZSmdUTQKs8fdGM1UHEgGFUwmEGDCuhjZa7STrIPf8w1USKqVnSgWnUKXW8iRQxApPfq461YSmsJHv6yaPu06l2F0RjQaOW2bOL9U4VMlMUCHxIlgwYoN4KdhUQviZgNiiQTFoqFp1jRYUePfKYHgLIcxUxGWL7hhB1VJ7eh4geywkTz-oKLkH4C8yXKLilRnuTutqPtR7weiD_bPnpTtts_VNgu7r30l5hFdVVZxR2nJpG_L0KGMxJaiWcyLX5SNbxLLGYvzgQGk3EG5rRa2cmEl5U0K7WuBZ_3ECyMgQuWrCjlWK5NKSZ4E7_6Ui2D-4DfXG0lt0OTK8uHj0Wr9wxWnGM4a6ZYCDFPtlVgSmWPsOS6s0cSEgGFovQZwmReBDuxZBRo8Mpz8nqWxA5yD0eSB9GM8bLXG9ruS8rsPEXM2zF83Fr9WQdm4BDUjvJE8DAAg_EloPPQ0MdDuQQJbYDpc_I76Ue83x4XO_Zq7tcIu__yp_gjBbd-PyKFgxzgZYYt3ygabEpe-iFqbFUepCtfXe7rXKjjIIkKOBmfo3mJYJijBqAbiEQEhzhS36BKCVQORaXdj2WBAHAcSSD9dyu-1T1AZQtctsnt_Ry0D-S0D4LqYkSr0W-F9PbIMZDMpYRRfufPZKMeZdka3Dyu2Kr7YkY7xn1t3zWoxuxbCRuUU9Jjnn3tl7jdzraYEjV1IJcTYAsmtgXdAUn4FQcLKTiPVQtI6BVa1t5lCupfTTVOe4WNoaqcHkvU32xI0YtEpZcmxK4rJ1JiAu6YzmeIylKl_ZVZlhdNF65mZOP6wFX4Cnc7btRIFPfa9tLaV9yBEpIorxcJjNVn6a0UKAdmX-YusKcbGG_RvlxilAgl_SuR_aln5m00]--></g></svg>