<?xml version="1.0" encoding="us-ascii" standalone="no"?><svg xmlns="http://www.w3.org/2000/svg" xmlns:xlink="http://www.w3.org/1999/xlink" contentStyleType="text/css" height="796px" preserveAspectRatio="none" style="width:1036px;height:796px;background:#FFFFFF;" version="1.1" viewBox="0 0 1036 796" width="1036px" zoomAndPan="magnify"><defs/><g><text fill="#000000" font-family="sans-serif" font-size="14" font-weight="bold" lengthAdjust="spacing" textLength="213" x="404.75" y="25.1074">USEI04 - Design Class Diagram</text><!--class GetPickingPathUI--><g id="elem_GetPickingPathUI"><rect codeLine="9" fill="#F1F1F1" height="66.6211" id="GetPickingPathUI" rx="2.5" ry="2.5" style="stroke:#181818;stroke-width:0.5;" width="141" x="292" y="46.6211"/><ellipse cx="307" cy="62.6211" fill="#ADD1B2" rx="11" ry="11" style="stroke:#181818;stroke-width:1.0;"/><path d="M309.7656,58.4961 Q309.9219,58.2773 310.1094,58.168 Q310.2969,58.0586 310.5156,58.0586 Q310.8906,58.0586 311.125,58.3242 Q311.3594,58.5742 311.3594,59.1836 L311.3594,60.6367 Q311.3594,61.2461 311.125,61.5117 Q310.8906,61.7773 310.5156,61.7773 Q310.1719,61.7773 309.9688,61.5742 Q309.7656,61.3867 309.6563,60.8711 Q309.6094,60.5117 309.4219,60.3242 Q309.0938,59.9492 308.4844,59.7305 Q307.875,59.5117 307.25,59.5117 Q306.4844,59.5117 305.8438,59.8398 Q305.2188,60.168 304.7188,60.918 Q304.2344,61.668 304.2344,62.6992 L304.2344,63.793 Q304.2344,65.0273 305.125,65.8555 Q306.0156,66.668 307.6094,66.668 Q308.5469,66.668 309.2031,66.418 Q309.5938,66.2617 310.0156,65.8242 Q310.2813,65.5586 310.4219,65.4805 Q310.5781,65.4023 310.7813,65.4023 Q311.1094,65.4023 311.3594,65.668 Q311.625,65.918 311.625,66.2617 Q311.625,66.6055 311.2813,67.0117 Q310.7813,67.5898 309.9844,67.918 Q308.9063,68.3711 307.6094,68.3711 Q306.0938,68.3711 304.8906,67.7461 Q303.9063,67.2461 303.2188,66.1836 Q302.5313,65.1055 302.5313,63.8242 L302.5313,62.668 Q302.5313,61.3398 303.1406,60.1992 Q303.7656,59.043 304.8594,58.4336 Q305.9531,57.8086 307.1875,57.8086 Q307.9219,57.8086 308.5625,57.9805 Q309.2188,58.1367 309.7656,58.4961 Z " fill="#000000"/><text fill="#000000" font-family="sans-serif" font-size="14" lengthAdjust="spacing" textLength="109" x="321" y="68.418">GetPickingPathUI</text><line style="stroke:#181818;stroke-width:0.5;" x1="293" x2="432" y1="78.6211" y2="78.6211"/><line style="stroke:#181818;stroke-width:0.5;" x1="293" x2="432" y1="86.6211" y2="86.6211"/><text fill="#000000" font-family="sans-serif" font-size="14" lengthAdjust="spacing" textLength="95" x="298" y="105.7285">+requestPath()</text></g><!--class GetPickingPathController--><g id="elem_GetPickingPathController"><rect codeLine="13" fill="#F1F1F1" height="66.6211" id="GetPickingPathController" rx="2.5" ry="2.5" style="stroke:#181818;stroke-width:0.5;" width="279" x="223" y="192.6211"/><ellipse cx="278.75" cy="208.6211" fill="#ADD1B2" rx="11" ry="11" style="stroke:#181818;stroke-width:1.0;"/><path d="M281.5156,204.4961 Q281.6719,204.2773 281.8594,204.168 Q282.0469,204.0586 282.2656,204.0586 Q282.6406,204.0586 282.875,204.3242 Q283.1094,204.5742 283.1094,205.1836 L283.1094,206.6367 Q283.1094,207.2461 282.875,207.5117 Q282.6406,207.7773 282.2656,207.7773 Q281.9219,207.7773 281.7188,207.5742 Q281.5156,207.3867 281.4063,206.8711 Q281.3594,206.5117 281.1719,206.3242 Q280.8438,205.9492 280.2344,205.7305 Q279.625,205.5117 279,205.5117 Q278.2344,205.5117 277.5938,205.8398 Q276.9688,206.168 276.4688,206.918 Q275.9844,207.668 275.9844,208.6992 L275.9844,209.793 Q275.9844,211.0273 276.875,211.8555 Q277.7656,212.668 279.3594,212.668 Q280.2969,212.668 280.9531,212.418 Q281.3438,212.2617 281.7656,211.8242 Q282.0313,211.5586 282.1719,211.4805 Q282.3281,211.4023 282.5313,211.4023 Q282.8594,211.4023 283.1094,211.668 Q283.375,211.918 283.375,212.2617 Q283.375,212.6055 283.0313,213.0117 Q282.5313,213.5898 281.7344,213.918 Q280.6563,214.3711 279.3594,214.3711 Q277.8438,214.3711 276.6406,213.7461 Q275.6563,213.2461 274.9688,212.1836 Q274.2813,211.1055 274.2813,209.8242 L274.2813,208.668 Q274.2813,207.3398 274.8906,206.1992 Q275.5156,205.043 276.6094,204.4336 Q277.7031,203.8086 278.9375,203.8086 Q279.6719,203.8086 280.3125,203.9805 Q280.9688,204.1367 281.5156,204.4961 Z " fill="#000000"/><text fill="#000000" font-family="sans-serif" font-size="14" lengthAdjust="spacing" textLength="159" x="299.25" y="214.418">GetPickingPathController</text><line style="stroke:#181818;stroke-width:0.5;" x1="224" x2="501" y1="224.6211" y2="224.6211"/><line style="stroke:#181818;stroke-width:0.5;" x1="224" x2="501" y1="232.6211" y2="232.6211"/><text fill="#000000" font-family="sans-serif" font-size="14" lengthAdjust="spacing" textLength="267" x="229" y="251.7285">+getOptimizedPath(plan: PickingPlanDTO)</text></g><!--class PickingPlanDTO--><g id="elem_PickingPlanDTO"><rect codeLine="17" fill="#F1F1F1" height="85.2422" id="PickingPlanDTO" rx="2.5" ry="2.5" style="stroke:#181818;stroke-width:0.5;" width="147" x="7" y="338.6211"/><ellipse cx="27.4" cy="354.6211" fill="#ADD1B2" rx="11" ry="11" style="stroke:#181818;stroke-width:1.0;"/><path d="M30.1656,350.4961 Q30.3219,350.2773 30.5094,350.168 Q30.6969,350.0586 30.9156,350.0586 Q31.2906,350.0586 31.525,350.3242 Q31.7594,350.5742 31.7594,351.1836 L31.7594,352.6367 Q31.7594,353.2461 31.525,353.5117 Q31.2906,353.7773 30.9156,353.7773 Q30.5719,353.7773 30.3688,353.5742 Q30.1656,353.3867 30.0563,352.8711 Q30.0094,352.5117 29.8219,352.3242 Q29.4938,351.9492 28.8844,351.7305 Q28.275,351.5117 27.65,351.5117 Q26.8844,351.5117 26.2438,351.8398 Q25.6188,352.168 25.1188,352.918 Q24.6344,353.668 24.6344,354.6992 L24.6344,355.793 Q24.6344,357.0273 25.525,357.8555 Q26.4156,358.668 28.0094,358.668 Q28.9469,358.668 29.6031,358.418 Q29.9938,358.2617 30.4156,357.8242 Q30.6813,357.5586 30.8219,357.4805 Q30.9781,357.4023 31.1813,357.4023 Q31.5094,357.4023 31.7594,357.668 Q32.025,357.918 32.025,358.2617 Q32.025,358.6055 31.6813,359.0117 Q31.1813,359.5898 30.3844,359.918 Q29.3063,360.3711 28.0094,360.3711 Q26.4938,360.3711 25.2906,359.7461 Q24.3063,359.2461 23.6188,358.1836 Q22.9313,357.1055 22.9313,355.8242 L22.9313,354.668 Q22.9313,353.3398 23.5406,352.1992 Q24.1656,351.043 25.2594,350.4336 Q26.3531,349.8086 27.5875,349.8086 Q28.3219,349.8086 28.9625,349.9805 Q29.6188,350.1367 30.1656,350.4961 Z " fill="#000000"/><text fill="#000000" font-family="sans-serif" font-size="14" lengthAdjust="spacing" textLength="103" x="42.6" y="360.418">PickingPlanDTO</text><line style="stroke:#181818;stroke-width:0.5;" x1="8" x2="153" y1="370.6211" y2="370.6211"/><text fill="#000000" font-family="sans-serif" font-size="14" lengthAdjust="spacing" textLength="135" x="13" y="389.7285">-bays: List&lt;BayDTO&gt;</text><line style="stroke:#181818;stroke-width:0.5;" x1="8" x2="153" y1="397.2422" y2="397.2422"/><text fill="#000000" font-family="sans-serif" font-size="14" lengthAdjust="spacing" textLength="69" x="13" y="416.3496">+getBays()</text></g><!--class PickingPlanValidator--><g id="elem_PickingPlanValidator"><rect codeLine="22" fill="#F1F1F1" height="66.6211" id="PickingPlanValidator" rx="2.5" ry="2.5" style="stroke:#181818;stroke-width:0.5;" width="276" x="189.5" y="347.6211"/><ellipse cx="258.75" cy="363.6211" fill="#ADD1B2" rx="11" ry="11" style="stroke:#181818;stroke-width:1.0;"/><path d="M261.5156,359.4961 Q261.6719,359.2773 261.8594,359.168 Q262.0469,359.0586 262.2656,359.0586 Q262.6406,359.0586 262.875,359.3242 Q263.1094,359.5742 263.1094,360.1836 L263.1094,361.6367 Q263.1094,362.2461 262.875,362.5117 Q262.6406,362.7773 262.2656,362.7773 Q261.9219,362.7773 261.7188,362.5742 Q261.5156,362.3867 261.4063,361.8711 Q261.3594,361.5117 261.1719,361.3242 Q260.8438,360.9492 260.2344,360.7305 Q259.625,360.5117 259,360.5117 Q258.2344,360.5117 257.5938,360.8398 Q256.9688,361.168 256.4688,361.918 Q255.9844,362.668 255.9844,363.6992 L255.9844,364.793 Q255.9844,366.0273 256.875,366.8555 Q257.7656,367.668 259.3594,367.668 Q260.2969,367.668 260.9531,367.418 Q261.3438,367.2617 261.7656,366.8242 Q262.0313,366.5586 262.1719,366.4805 Q262.3281,366.4023 262.5313,366.4023 Q262.8594,366.4023 263.1094,366.668 Q263.375,366.918 263.375,367.2617 Q263.375,367.6055 263.0313,368.0117 Q262.5313,368.5898 261.7344,368.918 Q260.6563,369.3711 259.3594,369.3711 Q257.8438,369.3711 256.6406,368.7461 Q255.6563,368.2461 254.9688,367.1836 Q254.2813,366.1055 254.2813,364.8242 L254.2813,363.668 Q254.2813,362.3398 254.8906,361.1992 Q255.5156,360.043 256.6094,359.4336 Q257.7031,358.8086 258.9375,358.8086 Q259.6719,358.8086 260.3125,358.9805 Q260.9688,359.1367 261.5156,359.4961 Z " fill="#000000"/><text fill="#000000" font-family="sans-serif" font-size="14" lengthAdjust="spacing" textLength="129" x="279.25" y="369.418">PickingPlanValidator</text><line style="stroke:#181818;stroke-width:0.5;" x1="190.5" x2="464.5" y1="379.6211" y2="379.6211"/><line style="stroke:#181818;stroke-width:0.5;" x1="190.5" x2="464.5" y1="387.6211" y2="387.6211"/><text fill="#000000" font-family="sans-serif" font-size="14" lengthAdjust="spacing" textLength="264" x="195.5" y="406.7285">+validate(plan: PickingPlanDTO): boolean</text></g><!--class PathSequencingService--><g id="elem_PathSequencingService"><rect codeLine="26" fill="#F1F1F1" height="66.6211" id="PathSequencingService" rx="2.5" ry="2.5" style="stroke:#181818;stroke-width:0.5;" width="312" x="500.5" y="347.6211"/><ellipse cx="576.75" cy="363.6211" fill="#ADD1B2" rx="11" ry="11" style="stroke:#181818;stroke-width:1.0;"/><path d="M579.5156,359.4961 Q579.6719,359.2773 579.8594,359.168 Q580.0469,359.0586 580.2656,359.0586 Q580.6406,359.0586 580.875,359.3242 Q581.1094,359.5742 581.1094,360.1836 L581.1094,361.6367 Q581.1094,362.2461 580.875,362.5117 Q580.6406,362.7773 580.2656,362.7773 Q579.9219,362.7773 579.7188,362.5742 Q579.5156,362.3867 579.4063,361.8711 Q579.3594,361.5117 579.1719,361.3242 Q578.8438,360.9492 578.2344,360.7305 Q577.625,360.5117 577,360.5117 Q576.2344,360.5117 575.5938,360.8398 Q574.9688,361.168 574.4688,361.918 Q573.9844,362.668 573.9844,363.6992 L573.9844,364.793 Q573.9844,366.0273 574.875,366.8555 Q575.7656,367.668 577.3594,367.668 Q578.2969,367.668 578.9531,367.418 Q579.3438,367.2617 579.7656,366.8242 Q580.0313,366.5586 580.1719,366.4805 Q580.3281,366.4023 580.5313,366.4023 Q580.8594,366.4023 581.1094,366.668 Q581.375,366.918 581.375,367.2617 Q581.375,367.6055 581.0313,368.0117 Q580.5313,368.5898 579.7344,368.918 Q578.6563,369.3711 577.3594,369.3711 Q575.8438,369.3711 574.6406,368.7461 Q573.6563,368.2461 572.9688,367.1836 Q572.2813,366.1055 572.2813,364.8242 L572.2813,363.668 Q572.2813,362.3398 572.8906,361.1992 Q573.5156,360.043 574.6094,359.4336 Q575.7031,358.8086 576.9375,358.8086 Q577.6719,358.8086 578.3125,358.9805 Q578.9688,359.1367 579.5156,359.4961 Z " fill="#000000"/><text fill="#000000" font-family="sans-serif" font-size="14" lengthAdjust="spacing" textLength="151" x="597.25" y="369.418">PathSequencingService</text><line style="stroke:#181818;stroke-width:0.5;" x1="501.5" x2="811.5" y1="379.6211" y2="379.6211"/><line style="stroke:#181818;stroke-width:0.5;" x1="501.5" x2="811.5" y1="387.6211" y2="387.6211"/><text fill="#000000" font-family="sans-serif" font-size="14" lengthAdjust="spacing" textLength="300" x="506.5" y="406.7285">+calculatePaths(plan: PickingPlan): PickingPath</text></g><!--class PickingPlan--><g id="elem_PickingPlan"><rect codeLine="30" fill="#F1F1F1" height="85.2422" id="PickingPlan" rx="2.5" ry="2.5" style="stroke:#181818;stroke-width:0.5;" width="117" x="510" y="502.6211"/><ellipse cx="530.4" cy="518.6211" fill="#ADD1B2" rx="11" ry="11" style="stroke:#181818;stroke-width:1.0;"/><path d="M533.1656,514.4961 Q533.3219,514.2773 533.5094,514.168 Q533.6969,514.0586 533.9156,514.0586 Q534.2906,514.0586 534.525,514.3242 Q534.7594,514.5742 534.7594,515.1836 L534.7594,516.6367 Q534.7594,517.2461 534.525,517.5117 Q534.2906,517.7773 533.9156,517.7773 Q533.5719,517.7773 533.3688,517.5742 Q533.1656,517.3867 533.0563,516.8711 Q533.0094,516.5117 532.8219,516.3242 Q532.4938,515.9492 531.8844,515.7305 Q531.275,515.5117 530.65,515.5117 Q529.8844,515.5117 529.2438,515.8398 Q528.6188,516.168 528.1188,516.918 Q527.6344,517.668 527.6344,518.6992 L527.6344,519.793 Q527.6344,521.0273 528.525,521.8555 Q529.4156,522.668 531.0094,522.668 Q531.9469,522.668 532.6031,522.418 Q532.9938,522.2617 533.4156,521.8242 Q533.6813,521.5586 533.8219,521.4805 Q533.9781,521.4023 534.1813,521.4023 Q534.5094,521.4023 534.7594,521.668 Q535.025,521.918 535.025,522.2617 Q535.025,522.6055 534.6813,523.0117 Q534.1813,523.5898 533.3844,523.918 Q532.3063,524.3711 531.0094,524.3711 Q529.4938,524.3711 528.2906,523.7461 Q527.3063,523.2461 526.6188,522.1836 Q525.9313,521.1055 525.9313,519.8242 L525.9313,518.668 Q525.9313,517.3398 526.5406,516.1992 Q527.1656,515.043 528.2594,514.4336 Q529.3531,513.8086 530.5875,513.8086 Q531.3219,513.8086 531.9625,513.9805 Q532.6188,514.1367 533.1656,514.4961 Z " fill="#000000"/><text fill="#000000" font-family="sans-serif" font-size="14" lengthAdjust="spacing" textLength="73" x="545.6" y="524.418">PickingPlan</text><line style="stroke:#181818;stroke-width:0.5;" x1="511" x2="626" y1="534.6211" y2="534.6211"/><text fill="#000000" font-family="sans-serif" font-size="14" lengthAdjust="spacing" textLength="88" x="516" y="553.7285">-planId: String</text><text fill="#000000" font-family="sans-serif" font-size="14" lengthAdjust="spacing" textLength="105" x="516" y="572.3496">-bays: List&lt;Bay&gt;</text><line style="stroke:#181818;stroke-width:0.5;" x1="511" x2="626" y1="579.8633" y2="579.8633"/></g><!--class Bay--><g id="elem_Bay"><rect codeLine="35" fill="#F1F1F1" height="85.2422" id="Bay" rx="2.5" ry="2.5" style="stroke:#181818;stroke-width:0.5;" width="69" x="534" y="685.1211"/><ellipse cx="554.85" cy="701.1211" fill="#ADD1B2" rx="11" ry="11" style="stroke:#181818;stroke-width:1.0;"/><path d="M557.6156,696.9961 Q557.7719,696.7773 557.9594,696.668 Q558.1469,696.5586 558.3656,696.5586 Q558.7406,696.5586 558.975,696.8242 Q559.2094,697.0742 559.2094,697.6836 L559.2094,699.1367 Q559.2094,699.7461 558.975,700.0117 Q558.7406,700.2773 558.3656,700.2773 Q558.0219,700.2773 557.8188,700.0742 Q557.6156,699.8867 557.5063,699.3711 Q557.4594,699.0117 557.2719,698.8242 Q556.9438,698.4492 556.3344,698.2305 Q555.725,698.0117 555.1,698.0117 Q554.3344,698.0117 553.6938,698.3398 Q553.0688,698.668 552.5688,699.418 Q552.0844,700.168 552.0844,701.1992 L552.0844,702.293 Q552.0844,703.5273 552.975,704.3555 Q553.8656,705.168 555.4594,705.168 Q556.3969,705.168 557.0531,704.918 Q557.4438,704.7617 557.8656,704.3242 Q558.1313,704.0586 558.2719,703.9805 Q558.4281,703.9023 558.6313,703.9023 Q558.9594,703.9023 559.2094,704.168 Q559.475,704.418 559.475,704.7617 Q559.475,705.1055 559.1313,705.5117 Q558.6313,706.0898 557.8344,706.418 Q556.7563,706.8711 555.4594,706.8711 Q553.9438,706.8711 552.7406,706.2461 Q551.7563,705.7461 551.0688,704.6836 Q550.3813,703.6055 550.3813,702.3242 L550.3813,701.168 Q550.3813,699.8398 550.9906,698.6992 Q551.6156,697.543 552.7094,696.9336 Q553.8031,696.3086 555.0375,696.3086 Q555.7719,696.3086 556.4125,696.4805 Q557.0688,696.6367 557.6156,696.9961 Z " fill="#000000"/><text fill="#000000" font-family="sans-serif" font-size="14" lengthAdjust="spacing" textLength="24" x="570.15" y="706.918">Bay</text><line style="stroke:#181818;stroke-width:0.5;" x1="535" x2="602" y1="717.1211" y2="717.1211"/><text fill="#000000" font-family="sans-serif" font-size="14" lengthAdjust="spacing" textLength="57" x="540" y="736.2285">-aisle: int</text><text fill="#000000" font-family="sans-serif" font-size="14" lengthAdjust="spacing" textLength="51" x="540" y="754.8496">-bay: int</text><line style="stroke:#181818;stroke-width:0.5;" x1="535" x2="602" y1="762.3633" y2="762.3633"/></g><!--class PickingPath--><g id="elem_PickingPath"><rect codeLine="40" fill="#F1F1F1" height="122.4844" id="PickingPath" rx="2.5" ry="2.5" style="stroke:#181818;stroke-width:0.5;" width="191" x="686" y="666.6211"/><ellipse cx="740.25" cy="682.6211" fill="#ADD1B2" rx="11" ry="11" style="stroke:#181818;stroke-width:1.0;"/><path d="M743.0156,678.4961 Q743.1719,678.2773 743.3594,678.168 Q743.5469,678.0586 743.7656,678.0586 Q744.1406,678.0586 744.375,678.3242 Q744.6094,678.5742 744.6094,679.1836 L744.6094,680.6367 Q744.6094,681.2461 744.375,681.5117 Q744.1406,681.7773 743.7656,681.7773 Q743.4219,681.7773 743.2188,681.5742 Q743.0156,681.3867 742.9063,680.8711 Q742.8594,680.5117 742.6719,680.3242 Q742.3438,679.9492 741.7344,679.7305 Q741.125,679.5117 740.5,679.5117 Q739.7344,679.5117 739.0938,679.8398 Q738.4688,680.168 737.9688,680.918 Q737.4844,681.668 737.4844,682.6992 L737.4844,683.793 Q737.4844,685.0273 738.375,685.8555 Q739.2656,686.668 740.8594,686.668 Q741.7969,686.668 742.4531,686.418 Q742.8438,686.2617 743.2656,685.8242 Q743.5313,685.5586 743.6719,685.4805 Q743.8281,685.4023 744.0313,685.4023 Q744.3594,685.4023 744.6094,685.668 Q744.875,685.918 744.875,686.2617 Q744.875,686.6055 744.5313,687.0117 Q744.0313,687.5898 743.2344,687.918 Q742.1563,688.3711 740.8594,688.3711 Q739.3438,688.3711 738.1406,687.7461 Q737.1563,687.2461 736.4688,686.1836 Q735.7813,685.1055 735.7813,683.8242 L735.7813,682.668 Q735.7813,681.3398 736.3906,680.1992 Q737.0156,679.043 738.1094,678.4336 Q739.2031,677.8086 740.4375,677.8086 Q741.1719,677.8086 741.8125,677.9805 Q742.4688,678.1367 743.0156,678.4961 Z " fill="#000000"/><text fill="#000000" font-family="sans-serif" font-size="14" lengthAdjust="spacing" textLength="74" x="760.75" y="688.418">PickingPath</text><line style="stroke:#181818;stroke-width:0.5;" x1="687" x2="876" y1="698.6211" y2="698.6211"/><text fill="#000000" font-family="sans-serif" font-size="14" lengthAdjust="spacing" textLength="172" x="692" y="717.7285">-strategyA_Path: List&lt;Bay&gt;</text><text fill="#000000" font-family="sans-serif" font-size="14" lengthAdjust="spacing" textLength="179" x="692" y="736.3496">-strategyA_Distance: double</text><text fill="#000000" font-family="sans-serif" font-size="14" lengthAdjust="spacing" textLength="172" x="692" y="754.9707">-strategyB_Path: List&lt;Bay&gt;</text><text fill="#000000" font-family="sans-serif" font-size="14" lengthAdjust="spacing" textLength="179" x="692" y="773.5918">-strategyB_Distance: double</text><line style="stroke:#181818;stroke-width:0.5;" x1="687" x2="876" y1="781.1055" y2="781.1055"/></g><!--class Repositories--><g id="elem_Repositories"><rect codeLine="47" fill="#F1F1F1" height="66.6211" id="Repositories" rx="2.5" ry="2.5" style="stroke:#181818;stroke-width:0.5;" width="111" x="848" y="347.6211"/><ellipse cx="863" cy="363.6211" fill="#ADD1B2" rx="11" ry="11" style="stroke:#181818;stroke-width:1.0;"/><path d="M865.7656,359.4961 Q865.9219,359.2773 866.1094,359.168 Q866.2969,359.0586 866.5156,359.0586 Q866.8906,359.0586 867.125,359.3242 Q867.3594,359.5742 867.3594,360.1836 L867.3594,361.6367 Q867.3594,362.2461 867.125,362.5117 Q866.8906,362.7773 866.5156,362.7773 Q866.1719,362.7773 865.9688,362.5742 Q865.7656,362.3867 865.6563,361.8711 Q865.6094,361.5117 865.4219,361.3242 Q865.0938,360.9492 864.4844,360.7305 Q863.875,360.5117 863.25,360.5117 Q862.4844,360.5117 861.8438,360.8398 Q861.2188,361.168 860.7188,361.918 Q860.2344,362.668 860.2344,363.6992 L860.2344,364.793 Q860.2344,366.0273 861.125,366.8555 Q862.0156,367.668 863.6094,367.668 Q864.5469,367.668 865.2031,367.418 Q865.5938,367.2617 866.0156,366.8242 Q866.2813,366.5586 866.4219,366.4805 Q866.5781,366.4023 866.7813,366.4023 Q867.1094,366.4023 867.3594,366.668 Q867.625,366.918 867.625,367.2617 Q867.625,367.6055 867.2813,368.0117 Q866.7813,368.5898 865.9844,368.918 Q864.9063,369.3711 863.6094,369.3711 Q862.0938,369.3711 860.8906,368.7461 Q859.9063,368.2461 859.2188,367.1836 Q858.5313,366.1055 858.5313,364.8242 L858.5313,363.668 Q858.5313,362.3398 859.1406,361.1992 Q859.7656,360.043 860.8594,359.4336 Q861.9531,358.8086 863.1875,358.8086 Q863.9219,358.8086 864.5625,358.9805 Q865.2188,359.1367 865.7656,359.4961 Z " fill="#000000"/><text fill="#000000" font-family="sans-serif" font-size="14" lengthAdjust="spacing" textLength="79" x="877" y="369.418">Repositories</text><line style="stroke:#181818;stroke-width:0.5;" x1="849" x2="958" y1="379.6211" y2="379.6211"/><line style="stroke:#181818;stroke-width:0.5;" x1="849" x2="958" y1="387.6211" y2="387.6211"/><text fill="#000000" font-family="sans-serif" font-size="14" lengthAdjust="spacing" textLength="91" x="854" y="406.7285">+getInstance()</text></g><!--class PickingPathRepository--><g id="elem_PickingPathRepository"><rect codeLine="51" fill="#F1F1F1" height="66.6211" id="PickingPathRepository" rx="2.5" ry="2.5" style="stroke:#181818;stroke-width:0.5;" width="252" x="777.5" y="511.6211"/><ellipse cx="828.25" cy="527.6211" fill="#ADD1B2" rx="11" ry="11" style="stroke:#181818;stroke-width:1.0;"/><path d="M831.0156,523.4961 Q831.1719,523.2773 831.3594,523.168 Q831.5469,523.0586 831.7656,523.0586 Q832.1406,523.0586 832.375,523.3242 Q832.6094,523.5742 832.6094,524.1836 L832.6094,525.6367 Q832.6094,526.2461 832.375,526.5117 Q832.1406,526.7773 831.7656,526.7773 Q831.4219,526.7773 831.2188,526.5742 Q831.0156,526.3867 830.9063,525.8711 Q830.8594,525.5117 830.6719,525.3242 Q830.3438,524.9492 829.7344,524.7305 Q829.125,524.5117 828.5,524.5117 Q827.7344,524.5117 827.0938,524.8398 Q826.4688,525.168 825.9688,525.918 Q825.4844,526.668 825.4844,527.6992 L825.4844,528.793 Q825.4844,530.0273 826.375,530.8555 Q827.2656,531.668 828.8594,531.668 Q829.7969,531.668 830.4531,531.418 Q830.8438,531.2617 831.2656,530.8242 Q831.5313,530.5586 831.6719,530.4805 Q831.8281,530.4023 832.0313,530.4023 Q832.3594,530.4023 832.6094,530.668 Q832.875,530.918 832.875,531.2617 Q832.875,531.6055 832.5313,532.0117 Q832.0313,532.5898 831.2344,532.918 Q830.1563,533.3711 828.8594,533.3711 Q827.3438,533.3711 826.1406,532.7461 Q825.1563,532.2461 824.4688,531.1836 Q823.7813,530.1055 823.7813,528.8242 L823.7813,527.668 Q823.7813,526.3398 824.3906,525.1992 Q825.0156,524.043 826.1094,523.4336 Q827.2031,522.8086 828.4375,522.8086 Q829.1719,522.8086 829.8125,522.9805 Q830.4688,523.1367 831.0156,523.4961 Z " fill="#000000"/><text fill="#000000" font-family="sans-serif" font-size="14" lengthAdjust="spacing" textLength="142" x="848.75" y="533.418">PickingPathRepository</text><line style="stroke:#181818;stroke-width:0.5;" x1="778.5" x2="1028.5" y1="543.6211" y2="543.6211"/><line style="stroke:#181818;stroke-width:0.5;" x1="778.5" x2="1028.5" y1="551.6211" y2="551.6211"/><text fill="#000000" font-family="sans-serif" font-size="14" lengthAdjust="spacing" textLength="240" x="783.5" y="570.7285">+save(path: PickingPath): PickingPath</text></g><!--link GetPickingPathUI to GetPickingPathController--><g id="link_GetPickingPathUI_GetPickingPathController"><path codeLine="56" d="M362.5,113.8011 C362.5,137.3611 362.5,163.0411 362.5,186.5711 " fill="none" id="GetPickingPathUI-to-GetPickingPathController" style="stroke:#181818;stroke-width:1.0;stroke-dasharray:7.0,7.0;"/><polygon fill="#181818" points="362.5,192.5711,366.5,183.5711,362.5,187.5711,358.5,183.5711,362.5,192.5711" style="stroke:#181818;stroke-width:1.0;"/><text fill="#000000" font-family="sans-serif" font-size="13" lengthAdjust="spacing" textLength="28" x="363.5" y="158.6494">uses</text></g><!--link GetPickingPathController to PickingPlanDTO--><g id="link_GetPickingPathController_PickingPlanDTO"><path codeLine="57" d="M302.35,259.7511 C259,283.2811 205.524,312.2902 159.364,337.3302 " fill="none" id="GetPickingPathController-to-PickingPlanDTO" style="stroke:#181818;stroke-width:1.0;stroke-dasharray:7.0,7.0;"/><polygon fill="#181818" points="154.09,340.1911,163.9083,339.4157,158.485,337.807,160.0937,332.3837,154.09,340.1911" style="stroke:#181818;stroke-width:1.0;"/><text fill="#000000" font-family="sans-serif" font-size="13" lengthAdjust="spacing" textLength="28" x="248.5" y="304.6494">uses</text></g><!--link GetPickingPathController to PickingPlanValidator--><g id="link_GetPickingPathController_PickingPlanValidator"><path codeLine="58" d="M354.99,259.9411 C349.07,285.8411 342.1766,315.9419 336.2766,341.7619 " fill="none" id="GetPickingPathController-to-PickingPlanValidator" style="stroke:#181818;stroke-width:1.0;stroke-dasharray:7.0,7.0;"/><polygon fill="#181818" points="334.94,347.6111,340.8444,339.7283,336.0538,342.7367,333.0454,337.9462,334.94,347.6111" style="stroke:#181818;stroke-width:1.0;"/><text fill="#000000" font-family="sans-serif" font-size="13" lengthAdjust="spacing" textLength="28" x="349.5" y="304.6494">uses</text></g><!--link GetPickingPathController to PathSequencingService--><g id="link_GetPickingPathController_PathSequencingService"><path codeLine="59" d="M425.21,259.7511 C474.96,285.6411 538.8376,318.8913 588.5676,344.7713 " fill="none" id="GetPickingPathController-to-PathSequencingService" style="stroke:#181818;stroke-width:1.0;stroke-dasharray:7.0,7.0;"/><polygon fill="#181818" points="593.89,347.5411,587.7529,339.8381,589.4547,345.2329,584.0598,346.9346,593.89,347.5411" style="stroke:#181818;stroke-width:1.0;"/><text fill="#000000" font-family="sans-serif" font-size="13" lengthAdjust="spacing" textLength="28" x="519.5" y="304.6494">uses</text></g><!--link GetPickingPathController to Repositories--><g id="link_GetPickingPathController_Repositories"><path codeLine="60" d="M498.83,259.6711 C636.67,292.5811 829.5,338.6211 829.5,338.6211 C829.5,338.6211 832.048,340.044 842.558,345.944 " fill="none" id="GetPickingPathController-to-Repositories" style="stroke:#181818;stroke-width:1.0;stroke-dasharray:7.0,7.0;"/><polygon fill="#181818" points="847.79,348.8811,841.9001,340.9875,843.43,346.4335,837.984,347.9635,847.79,348.8811" style="stroke:#181818;stroke-width:1.0;"/><text fill="#000000" font-family="sans-serif" font-size="13" lengthAdjust="spacing" textLength="28" x="693.5" y="304.6494">uses</text></g><!--link PathSequencingService to PickingPlan--><g id="link_PathSequencingService_PickingPlan"><path codeLine="62" d="M638.69,414.9011 C624.98,440.1411 608.8044,469.929 594.0044,497.169 " fill="none" id="PathSequencingService-to-PickingPlan" style="stroke:#181818;stroke-width:1.0;stroke-dasharray:7.0,7.0;"/><polygon fill="#181818" points="591.14,502.4411,598.9514,496.4426,593.527,498.0477,591.9219,492.6233,591.14,502.4411" style="stroke:#181818;stroke-width:1.0;"/><text fill="#000000" font-family="sans-serif" font-size="13" lengthAdjust="spacing" textLength="28" x="616.5" y="468.6494">uses</text></g><!--link PathSequencingService to PickingPath--><g id="link_PathSequencingService_PickingPath"><path codeLine="63" d="M665.69,414.6811 C682.04,472.6311 714.5,587.6211 714.5,587.6211 C714.5,587.6211 731.7847,623.4863 749.8947,661.0563 " fill="none" id="PathSequencingService-to-PickingPath" style="stroke:#181818;stroke-width:1.0;stroke-dasharray:7.0,7.0;"/><polygon fill="#181818" points="752.5,666.4611,752.1953,656.617,750.3289,661.9571,744.9888,660.0907,752.5,666.4611" style="stroke:#181818;stroke-width:1.0;"/><text fill="#000000" font-family="sans-serif" font-size="13" lengthAdjust="spacing" textLength="43" x="715.5" y="550.6494">creates</text></g><!--link Repositories to PickingPathRepository--><g id="link_Repositories_PickingPathRepository"><path codeLine="65" d="M903.5,414.9011 C903.5,443.0111 903.5,477.2911 903.5,505.3911 " fill="none" id="Repositories-to-PickingPathRepository" style="stroke:#181818;stroke-width:1.0;stroke-dasharray:7.0,7.0;"/><polygon fill="#181818" points="903.5,511.3911,907.5,502.3911,903.5,506.3911,899.5,502.3911,903.5,511.3911" style="stroke:#181818;stroke-width:1.0;"/><text fill="#000000" font-family="sans-serif" font-size="13" lengthAdjust="spacing" textLength="87" x="904.5" y="468.6494">pathRepository</text></g><!--link PickingPathRepository to PickingPath--><g id="link_PickingPathRepository_PickingPath"><path codeLine="67" d="M881.41,578.8111 C864.93,603.1911 845.2987,632.2193 825.5387,661.4693 " fill="none" id="PickingPathRepository-to-PickingPath" style="stroke:#181818;stroke-width:1.0;stroke-dasharray:7.0,7.0;"/><polygon fill="#181818" points="822.18,666.4411,830.5326,661.2225,824.9789,662.2979,823.9036,656.7442,822.18,666.4411" style="stroke:#181818;stroke-width:1.0;"/><text fill="#000000" font-family="sans-serif" font-size="13" lengthAdjust="spacing" textLength="53" x="854.5" y="632.6494">manages</text></g><!--link PickingPlan to Bay--><g id="link_PickingPlan_Bay"><path codeLine="69" d="M568.5,587.9811 C568.5,617.1411 568.5,655.8711 568.5,684.9811 " fill="none" id="PickingPlan-Bay" style="stroke:#181818;stroke-width:1.0;"/><text fill="#000000" font-family="sans-serif" font-size="13" lengthAdjust="spacing" textLength="88" x="569.5" y="632.6494">is composed of</text><text fill="#000000" font-family="sans-serif" font-size="13" lengthAdjust="spacing" textLength="7" x="560.9641" y="609.8777">1</text><text fill="#000000" font-family="sans-serif" font-size="13" lengthAdjust="spacing" textLength="20" x="546.9063" y="673.8629">1..*</text></g><!--SRC=[bLJ1Rfj04Btp5IDEIIjRgTGJgYp5SHGXLKfKcbwhyJ8XgwntAREuebN_lRCO1p0aJKymC- -zURipuBKt1FVPTNhn4HQm8TQ5XIk3pB3HM5IuYo9-qhP4UOKIrHCMbFb6M1KfZxOmD03m8-RkfxO5FA3XOSLeIxuf2KfdcX0CQYhqk_I-qjlQKwgSpVGlWeieQYjmG_vEAu4NT-WVxrFu7G6y5mC_Qc8VScVdqPzvz9MpldB6KDMn2lAtfTSxwP2trDAWJU18aM3pzNOWDowq8WlOOiC9VDRiFwsnaVpgg2qXdytJlw7HENftTB8_n3Jl886jSuRG3hJ4RXOERPK0CwhsMb4dfj2eseXQ0F5KyhoF133hhpjReAPv0fdCmnOpnrtrR8bQLW2XPaC9QEkxXB0EuQIPEEYQiQ_4Sz5SVW_9OOznTIDvj4hqSrTlPUU6vVMhvFMK_6pe2vMEjOn44_VxaTe3VcwEqkYPr7GKnhqCiRKmW4rlF9eiydAvUdbV4wYPE7gn7iWds_cVb7uZtqISNR-tC4VNt16YURaJXqVqly5Xfn9G5SdGHNtKyWGt6602SJdAn69i5ZdjjKChFqFk2S5l_266nK8Uo-MxkFq-v1jWK6udIfI3UuZ-0W00]--></g></svg>