<?xml version="1.0" encoding="us-ascii" standalone="no"?><svg xmlns="http://www.w3.org/2000/svg" xmlns:xlink="http://www.w3.org/1999/xlink" contentStyleType="text/css" height="758px" preserveAspectRatio="none" style="width:596px;height:758px;background:#FFFFFF;" version="1.1" viewBox="0 0 596 758" width="596px" zoomAndPan="magnify"><defs/><g><text fill="#000000" font-family="sans-serif" font-size="14" font-weight="bold" lengthAdjust="spacing" textLength="160" x="211" y="25.1074">USEI06 - Class Diagram</text><!--class StationQueryUI--><g id="elem_StationQueryUI"><rect codeLine="10" fill="#F1F1F1" height="40" id="StationQueryUI" rx="2.5" ry="2.5" style="stroke:#181818;stroke-width:0.5;" width="127" x="333.5" y="46.6211"/><ellipse cx="348.5" cy="62.6211" fill="#ADD1B2" rx="11" ry="11" style="stroke:#181818;stroke-width:1.0;"/><path d="M351.2656,58.4961 Q351.4219,58.2773 351.6094,58.168 Q351.7969,58.0586 352.0156,58.0586 Q352.3906,58.0586 352.625,58.3242 Q352.8594,58.5742 352.8594,59.1836 L352.8594,60.6367 Q352.8594,61.2461 352.625,61.5117 Q352.3906,61.7773 352.0156,61.7773 Q351.6719,61.7773 351.4688,61.5742 Q351.2656,61.3867 351.1563,60.8711 Q351.1094,60.5117 350.9219,60.3242 Q350.5938,59.9492 349.9844,59.7305 Q349.375,59.5117 348.75,59.5117 Q347.9844,59.5117 347.3438,59.8398 Q346.7188,60.168 346.2188,60.918 Q345.7344,61.668 345.7344,62.6992 L345.7344,63.793 Q345.7344,65.0273 346.625,65.8555 Q347.5156,66.668 349.1094,66.668 Q350.0469,66.668 350.7031,66.418 Q351.0938,66.2617 351.5156,65.8242 Q351.7813,65.5586 351.9219,65.4805 Q352.0781,65.4023 352.2813,65.4023 Q352.6094,65.4023 352.8594,65.668 Q353.125,65.918 353.125,66.2617 Q353.125,66.6055 352.7813,67.0117 Q352.2813,67.5898 351.4844,67.918 Q350.4063,68.3711 349.1094,68.3711 Q347.5938,68.3711 346.3906,67.7461 Q345.4063,67.2461 344.7188,66.1836 Q344.0313,65.1055 344.0313,63.8242 L344.0313,62.668 Q344.0313,61.3398 344.6406,60.1992 Q345.2656,59.043 346.3594,58.4336 Q347.4531,57.8086 348.6875,57.8086 Q349.4219,57.8086 350.0625,57.9805 Q350.7188,58.1367 351.2656,58.4961 Z " fill="#000000"/><text fill="#000000" font-family="sans-serif" font-size="14" lengthAdjust="spacing" textLength="95" x="362.5" y="68.418">StationQueryUI</text><line style="stroke:#181818;stroke-width:0.5;" x1="334.5" x2="459.5" y1="78.6211" y2="78.6211"/></g><!--class StationQueryController--><g id="elem_StationQueryController"><rect codeLine="14" fill="#F1F1F1" height="40" id="StationQueryController" rx="2.5" ry="2.5" style="stroke:#181818;stroke-width:0.5;" width="177" x="308.5" y="165.6211"/><ellipse cx="323.5" cy="181.6211" fill="#ADD1B2" rx="11" ry="11" style="stroke:#181818;stroke-width:1.0;"/><path d="M326.2656,177.4961 Q326.4219,177.2773 326.6094,177.168 Q326.7969,177.0586 327.0156,177.0586 Q327.3906,177.0586 327.625,177.3242 Q327.8594,177.5742 327.8594,178.1836 L327.8594,179.6367 Q327.8594,180.2461 327.625,180.5117 Q327.3906,180.7773 327.0156,180.7773 Q326.6719,180.7773 326.4688,180.5742 Q326.2656,180.3867 326.1563,179.8711 Q326.1094,179.5117 325.9219,179.3242 Q325.5938,178.9492 324.9844,178.7305 Q324.375,178.5117 323.75,178.5117 Q322.9844,178.5117 322.3438,178.8398 Q321.7188,179.168 321.2188,179.918 Q320.7344,180.668 320.7344,181.6992 L320.7344,182.793 Q320.7344,184.0273 321.625,184.8555 Q322.5156,185.668 324.1094,185.668 Q325.0469,185.668 325.7031,185.418 Q326.0938,185.2617 326.5156,184.8242 Q326.7813,184.5586 326.9219,184.4805 Q327.0781,184.4023 327.2813,184.4023 Q327.6094,184.4023 327.8594,184.668 Q328.125,184.918 328.125,185.2617 Q328.125,185.6055 327.7813,186.0117 Q327.2813,186.5898 326.4844,186.918 Q325.4063,187.3711 324.1094,187.3711 Q322.5938,187.3711 321.3906,186.7461 Q320.4063,186.2461 319.7188,185.1836 Q319.0313,184.1055 319.0313,182.8242 L319.0313,181.668 Q319.0313,180.3398 319.6406,179.1992 Q320.2656,178.043 321.3594,177.4336 Q322.4531,176.8086 323.6875,176.8086 Q324.4219,176.8086 325.0625,176.9805 Q325.7188,177.1367 326.2656,177.4961 Z " fill="#000000"/><text fill="#000000" font-family="sans-serif" font-size="14" lengthAdjust="spacing" textLength="145" x="337.5" y="187.418">StationQueryController</text><line style="stroke:#181818;stroke-width:0.5;" x1="309.5" x2="484.5" y1="197.6211" y2="197.6211"/></g><!--class StationIndexManager--><g id="elem_StationIndexManager"><rect codeLine="18" fill="#F1F1F1" height="58.6211" id="StationIndexManager" rx="2.5" ry="2.5" style="stroke:#181818;stroke-width:0.5;" width="191" x="227.5" y="284.6211"/><ellipse cx="254.2" cy="300.6211" fill="#ADD1B2" rx="11" ry="11" style="stroke:#181818;stroke-width:1.0;"/><path d="M256.9656,296.4961 Q257.1219,296.2773 257.3094,296.168 Q257.4969,296.0586 257.7156,296.0586 Q258.0906,296.0586 258.325,296.3242 Q258.5594,296.5742 258.5594,297.1836 L258.5594,298.6367 Q258.5594,299.2461 258.325,299.5117 Q258.0906,299.7773 257.7156,299.7773 Q257.3719,299.7773 257.1688,299.5742 Q256.9656,299.3867 256.8563,298.8711 Q256.8094,298.5117 256.6219,298.3242 Q256.2938,297.9492 255.6844,297.7305 Q255.075,297.5117 254.45,297.5117 Q253.6844,297.5117 253.0438,297.8398 Q252.4188,298.168 251.9188,298.918 Q251.4344,299.668 251.4344,300.6992 L251.4344,301.793 Q251.4344,303.0273 252.325,303.8555 Q253.2156,304.668 254.8094,304.668 Q255.7469,304.668 256.4031,304.418 Q256.7938,304.2617 257.2156,303.8242 Q257.4813,303.5586 257.6219,303.4805 Q257.7781,303.4023 257.9813,303.4023 Q258.3094,303.4023 258.5594,303.668 Q258.825,303.918 258.825,304.2617 Q258.825,304.6055 258.4813,305.0117 Q257.9813,305.5898 257.1844,305.918 Q256.1063,306.3711 254.8094,306.3711 Q253.2938,306.3711 252.0906,305.7461 Q251.1063,305.2461 250.4188,304.1836 Q249.7313,303.1055 249.7313,301.8242 L249.7313,300.668 Q249.7313,299.3398 250.3406,298.1992 Q250.9656,297.043 252.0594,296.4336 Q253.1531,295.8086 254.3875,295.8086 Q255.1219,295.8086 255.7625,295.9805 Q256.4188,296.1367 256.9656,296.4961 Z " fill="#000000"/><text fill="#000000" font-family="sans-serif" font-size="14" lengthAdjust="spacing" textLength="133" x="270.8" y="306.418">StationIndexManager</text><line style="stroke:#181818;stroke-width:0.5;" x1="228.5" x2="417.5" y1="316.6211" y2="316.6211"/><text fill="#000000" font-family="sans-serif" font-size="14" lengthAdjust="spacing" textLength="179" x="233.5" y="335.7285">-indexes: Map&lt;String, Tree&gt;</text></g><!--class StationRepository--><g id="elem_StationRepository"><rect codeLine="24" fill="#F1F1F1" height="58.6211" id="StationRepository" rx="2.5" ry="2.5" style="stroke:#181818;stroke-width:0.5;" width="234" x="355" y="373.6211"/><ellipse cx="411.75" cy="389.6211" fill="#ADD1B2" rx="11" ry="11" style="stroke:#181818;stroke-width:1.0;"/><path d="M414.5156,385.4961 Q414.6719,385.2773 414.8594,385.168 Q415.0469,385.0586 415.2656,385.0586 Q415.6406,385.0586 415.875,385.3242 Q416.1094,385.5742 416.1094,386.1836 L416.1094,387.6367 Q416.1094,388.2461 415.875,388.5117 Q415.6406,388.7773 415.2656,388.7773 Q414.9219,388.7773 414.7188,388.5742 Q414.5156,388.3867 414.4063,387.8711 Q414.3594,387.5117 414.1719,387.3242 Q413.8438,386.9492 413.2344,386.7305 Q412.625,386.5117 412,386.5117 Q411.2344,386.5117 410.5938,386.8398 Q409.9688,387.168 409.4688,387.918 Q408.9844,388.668 408.9844,389.6992 L408.9844,390.793 Q408.9844,392.0273 409.875,392.8555 Q410.7656,393.668 412.3594,393.668 Q413.2969,393.668 413.9531,393.418 Q414.3438,393.2617 414.7656,392.8242 Q415.0313,392.5586 415.1719,392.4805 Q415.3281,392.4023 415.5313,392.4023 Q415.8594,392.4023 416.1094,392.668 Q416.375,392.918 416.375,393.2617 Q416.375,393.6055 416.0313,394.0117 Q415.5313,394.5898 414.7344,394.918 Q413.6563,395.3711 412.3594,395.3711 Q410.8438,395.3711 409.6406,394.7461 Q408.6563,394.2461 407.9688,393.1836 Q407.2813,392.1055 407.2813,390.8242 L407.2813,389.668 Q407.2813,388.3398 407.8906,387.1992 Q408.5156,386.043 409.6094,385.4336 Q410.7031,384.8086 411.9375,384.8086 Q412.6719,384.8086 413.3125,384.9805 Q413.9688,385.1367 414.5156,385.4961 Z " fill="#000000"/><text fill="#000000" font-family="sans-serif" font-size="14" lengthAdjust="spacing" textLength="112" x="432.25" y="395.418">StationRepository</text><line style="stroke:#181818;stroke-width:0.5;" x1="356" x2="588" y1="405.6211" y2="405.6211"/><text fill="#000000" font-family="sans-serif" font-size="14" lengthAdjust="spacing" textLength="222" x="361" y="424.7285">-allStations: List&lt;EuropeanStation&gt;</text></g><!--class EuropeanStation--><g id="elem_EuropeanStation"><rect codeLine="29" fill="#F1F1F1" height="170.3477" id="EuropeanStation" rx="2.5" ry="2.5" style="stroke:#181818;stroke-width:0.5;" width="160" x="252" y="581.6211"/><ellipse cx="276.9" cy="597.6211" fill="#ADD1B2" rx="11" ry="11" style="stroke:#181818;stroke-width:1.0;"/><path d="M279.6656,593.4961 Q279.8219,593.2773 280.0094,593.168 Q280.1969,593.0586 280.4156,593.0586 Q280.7906,593.0586 281.025,593.3242 Q281.2594,593.5742 281.2594,594.1836 L281.2594,595.6367 Q281.2594,596.2461 281.025,596.5117 Q280.7906,596.7773 280.4156,596.7773 Q280.0719,596.7773 279.8688,596.5742 Q279.6656,596.3867 279.5563,595.8711 Q279.5094,595.5117 279.3219,595.3242 Q278.9938,594.9492 278.3844,594.7305 Q277.775,594.5117 277.15,594.5117 Q276.3844,594.5117 275.7438,594.8398 Q275.1188,595.168 274.6188,595.918 Q274.1344,596.668 274.1344,597.6992 L274.1344,598.793 Q274.1344,600.0273 275.025,600.8555 Q275.9156,601.668 277.5094,601.668 Q278.4469,601.668 279.1031,601.418 Q279.4938,601.2617 279.9156,600.8242 Q280.1813,600.5586 280.3219,600.4805 Q280.4781,600.4023 280.6813,600.4023 Q281.0094,600.4023 281.2594,600.668 Q281.525,600.918 281.525,601.2617 Q281.525,601.6055 281.1813,602.0117 Q280.6813,602.5898 279.8844,602.918 Q278.8063,603.3711 277.5094,603.3711 Q275.9938,603.3711 274.7906,602.7461 Q273.8063,602.2461 273.1188,601.1836 Q272.4313,600.1055 272.4313,598.8242 L272.4313,597.668 Q272.4313,596.3398 273.0406,595.1992 Q273.6656,594.043 274.7594,593.4336 Q275.8531,592.8086 277.0875,592.8086 Q277.8219,592.8086 278.4625,592.9805 Q279.1188,593.1367 279.6656,593.4961 Z " fill="#000000"/><text fill="#000000" font-family="sans-serif" font-size="14" lengthAdjust="spacing" textLength="106" x="293.1" y="603.418">EuropeanStation</text><line style="stroke:#181818;stroke-width:0.5;" x1="253" x2="411" y1="613.6211" y2="613.6211"/><text fill="#000000" font-family="sans-serif" font-size="14" lengthAdjust="spacing" textLength="128" x="258" y="632.7285">-stationName: String</text><text fill="#000000" font-family="sans-serif" font-size="14" lengthAdjust="spacing" textLength="102" x="258" y="651.3496">-latitude: double</text><text fill="#000000" font-family="sans-serif" font-size="14" lengthAdjust="spacing" textLength="114" x="258" y="669.9707">-longitude: double</text><text fill="#000000" font-family="sans-serif" font-size="14" lengthAdjust="spacing" textLength="97" x="258" y="688.5918">-country: String</text><text fill="#000000" font-family="sans-serif" font-size="14" lengthAdjust="spacing" textLength="148" x="258" y="707.2129">-timeZoneGroup: String</text><text fill="#000000" font-family="sans-serif" font-size="14" lengthAdjust="spacing" textLength="98" x="258" y="725.834">-isCity: boolean</text><text fill="#000000" font-family="sans-serif" font-size="14" lengthAdjust="spacing" textLength="148" x="258" y="744.4551">-isMainStation: boolean</text></g><!--class Tree--><g id="elem_Tree"><rect codeLine="40" fill="#F1F1F1" height="40" id="Tree" rx="2.5" ry="2.5" style="stroke:#181818;stroke-width:0.5;" width="73" x="157.5" y="462.6211"/><ellipse cx="172.5" cy="478.6211" fill="#B4A7E5" rx="11" ry="11" style="stroke:#181818;stroke-width:1.0;"/><path d="M173.4531,475.2617 L173.4531,481.918 L175.1719,481.918 Q175.7813,481.918 176.0469,482.1523 Q176.3125,482.3867 176.3125,482.7773 Q176.3125,483.1523 176.0469,483.3867 Q175.7813,483.6211 175.1719,483.6211 L170.0313,483.6211 Q169.4219,483.6211 169.1563,483.3867 Q168.8906,483.1523 168.8906,482.7617 Q168.8906,482.3867 169.1563,482.1523 Q169.4219,481.918 170.0313,481.918 L171.75,481.918 L171.75,475.2617 L170.0313,475.2617 Q169.4219,475.2617 169.1563,475.0273 Q168.8906,474.793 168.8906,474.4023 Q168.8906,474.0273 169.1563,473.793 Q169.4219,473.5586 170.0313,473.5586 L175.1719,473.5586 Q175.7813,473.5586 176.0469,473.793 Q176.3125,474.0273 176.3125,474.4023 Q176.3125,474.793 176.0469,475.0273 Q175.7813,475.2617 175.1719,475.2617 L173.4531,475.2617 Z " fill="#000000"/><text fill="#000000" font-family="sans-serif" font-size="14" font-style="italic" lengthAdjust="spacing" textLength="30" x="186.5" y="484.418">Tree</text><rect fill="#FFFFFF" height="17.9609" style="stroke:#181818;stroke-width:1.0;stroke-dasharray:2.0,2.0;" width="9" x="224.5" y="459.6211"/><text fill="#000000" font-family="sans-serif" font-size="12" font-style="italic" lengthAdjust="spacing" textLength="7" x="225.5" y="473.5703">T</text><line style="stroke:#181818;stroke-width:0.5;" x1="158.5" x2="229.5" y1="494.6211" y2="494.6211"/></g><!--class BST--><g id="elem_BST"><rect codeLine="44" fill="#F1F1F1" height="40" id="BST" rx="2.5" ry="2.5" style="stroke:#181818;stroke-width:0.5;" width="70" x="7" y="646.6211"/><ellipse cx="22" cy="662.6211" fill="#ADD1B2" rx="11" ry="11" style="stroke:#181818;stroke-width:1.0;"/><path d="M24.7656,658.4961 Q24.9219,658.2773 25.1094,658.168 Q25.2969,658.0586 25.5156,658.0586 Q25.8906,658.0586 26.125,658.3242 Q26.3594,658.5742 26.3594,659.1836 L26.3594,660.6367 Q26.3594,661.2461 26.125,661.5117 Q25.8906,661.7773 25.5156,661.7773 Q25.1719,661.7773 24.9688,661.5742 Q24.7656,661.3867 24.6563,660.8711 Q24.6094,660.5117 24.4219,660.3242 Q24.0938,659.9492 23.4844,659.7305 Q22.875,659.5117 22.25,659.5117 Q21.4844,659.5117 20.8438,659.8398 Q20.2188,660.168 19.7188,660.918 Q19.2344,661.668 19.2344,662.6992 L19.2344,663.793 Q19.2344,665.0273 20.125,665.8555 Q21.0156,666.668 22.6094,666.668 Q23.5469,666.668 24.2031,666.418 Q24.5938,666.2617 25.0156,665.8242 Q25.2813,665.5586 25.4219,665.4805 Q25.5781,665.4023 25.7813,665.4023 Q26.1094,665.4023 26.3594,665.668 Q26.625,665.918 26.625,666.2617 Q26.625,666.6055 26.2813,667.0117 Q25.7813,667.5898 24.9844,667.918 Q23.9063,668.3711 22.6094,668.3711 Q21.0938,668.3711 19.8906,667.7461 Q18.9063,667.2461 18.2188,666.1836 Q17.5313,665.1055 17.5313,663.8242 L17.5313,662.668 Q17.5313,661.3398 18.1406,660.1992 Q18.7656,659.043 19.8594,658.4336 Q20.9531,657.8086 22.1875,657.8086 Q22.9219,657.8086 23.5625,657.9805 Q24.2188,658.1367 24.7656,658.4961 Z " fill="#000000"/><text fill="#000000" font-family="sans-serif" font-size="14" lengthAdjust="spacing" textLength="27" x="36" y="668.418">BST</text><rect fill="#FFFFFF" height="17.9609" style="stroke:#181818;stroke-width:1.0;stroke-dasharray:2.0,2.0;" width="9" x="71" y="643.6211"/><text fill="#000000" font-family="sans-serif" font-size="12" font-style="italic" lengthAdjust="spacing" textLength="7" x="72" y="657.5703">T</text><line style="stroke:#181818;stroke-width:0.5;" x1="8" x2="76" y1="678.6211" y2="678.6211"/></g><!--class AVLTree--><g id="elem_AVLTree"><rect codeLine="47" fill="#F1F1F1" height="40" id="AVLTree" rx="2.5" ry="2.5" style="stroke:#181818;stroke-width:0.5;" width="99" x="112.5" y="646.6211"/><ellipse cx="127.5" cy="662.6211" fill="#ADD1B2" rx="11" ry="11" style="stroke:#181818;stroke-width:1.0;"/><path d="M130.2656,658.4961 Q130.4219,658.2773 130.6094,658.168 Q130.7969,658.0586 131.0156,658.0586 Q131.3906,658.0586 131.625,658.3242 Q131.8594,658.5742 131.8594,659.1836 L131.8594,660.6367 Q131.8594,661.2461 131.625,661.5117 Q131.3906,661.7773 131.0156,661.7773 Q130.6719,661.7773 130.4688,661.5742 Q130.2656,661.3867 130.1563,660.8711 Q130.1094,660.5117 129.9219,660.3242 Q129.5938,659.9492 128.9844,659.7305 Q128.375,659.5117 127.75,659.5117 Q126.9844,659.5117 126.3438,659.8398 Q125.7188,660.168 125.2188,660.918 Q124.7344,661.668 124.7344,662.6992 L124.7344,663.793 Q124.7344,665.0273 125.625,665.8555 Q126.5156,666.668 128.1094,666.668 Q129.0469,666.668 129.7031,666.418 Q130.0938,666.2617 130.5156,665.8242 Q130.7813,665.5586 130.9219,665.4805 Q131.0781,665.4023 131.2813,665.4023 Q131.6094,665.4023 131.8594,665.668 Q132.125,665.918 132.125,666.2617 Q132.125,666.6055 131.7813,667.0117 Q131.2813,667.5898 130.4844,667.918 Q129.4063,668.3711 128.1094,668.3711 Q126.5938,668.3711 125.3906,667.7461 Q124.4063,667.2461 123.7188,666.1836 Q123.0313,665.1055 123.0313,663.8242 L123.0313,662.668 Q123.0313,661.3398 123.6406,660.1992 Q124.2656,659.043 125.3594,658.4336 Q126.4531,657.8086 127.6875,657.8086 Q128.4219,657.8086 129.0625,657.9805 Q129.7188,658.1367 130.2656,658.4961 Z " fill="#000000"/><text fill="#000000" font-family="sans-serif" font-size="14" lengthAdjust="spacing" textLength="56" x="141.5" y="668.418">AVLTree</text><rect fill="#FFFFFF" height="17.9609" style="stroke:#181818;stroke-width:1.0;stroke-dasharray:2.0,2.0;" width="9" x="205.5" y="643.6211"/><text fill="#000000" font-family="sans-serif" font-size="12" font-style="italic" lengthAdjust="spacing" textLength="7" x="206.5" y="657.5703">T</text><line style="stroke:#181818;stroke-width:0.5;" x1="113.5" x2="210.5" y1="678.6211" y2="678.6211"/></g><!--link StationQueryUI to StationQueryController--><g id="link_StationQueryUI_StationQueryController"><path codeLine="51" d="M397,86.6811 C397,108.4411 397,137.8211 397,159.5711 " fill="none" id="StationQueryUI-to-StationQueryController" style="stroke:#181818;stroke-width:1.0;stroke-dasharray:7.0,7.0;"/><polygon fill="#181818" points="397,165.5711,401,156.5711,397,160.5711,393,156.5711,397,165.5711" style="stroke:#181818;stroke-width:1.0;"/><text fill="#000000" font-family="sans-serif" font-size="13" lengthAdjust="spacing" textLength="28" x="398" y="131.6494">uses</text></g><!--link StationQueryController to StationIndexManager--><g id="link_StationQueryController_StationIndexManager"><path codeLine="53" d="M385.76,205.8311 C373.55,226.7111 356.9401,255.1024 342.8801,279.1324 " fill="none" id="StationQueryController-to-StationIndexManager" style="stroke:#181818;stroke-width:1.0;"/><polygon fill="#181818" points="339.85,284.3111,347.8475,278.5631,342.375,279.9955,340.9426,274.523,339.85,284.3111" style="stroke:#181818;stroke-width:1.0;"/><text fill="#000000" font-family="sans-serif" font-size="13" lengthAdjust="spacing" textLength="39" x="367" y="250.6494">uses 1</text></g><!--link StationQueryController to StationRepository--><g id="link_StationQueryController_StationRepository"><path codeLine="54" d="M404.71,205.9811 C416.07,234.5411 436,284.6211 436,284.6211 C436,284.6211 450.7837,332.8539 461.4337,367.6439 " fill="none" id="StationQueryController-to-StationRepository" style="stroke:#181818;stroke-width:1.0;"/><polygon fill="#181818" points="463.19,373.3811,464.3804,363.6044,461.7264,368.6001,456.7308,365.9462,463.19,373.3811" style="stroke:#181818;stroke-width:1.0;"/><text fill="#000000" font-family="sans-serif" font-size="13" lengthAdjust="spacing" textLength="39" x="424" y="250.6494">uses 1</text></g><!--link StationRepository to EuropeanStation--><g id="link_StationRepository_EuropeanStation"><path codeLine="57" d="M456.62,432.8511 C437.62,468.3411 407.2822,525.0016 379.9422,576.0616 " fill="none" id="StationRepository-to-EuropeanStation" style="stroke:#181818;stroke-width:1.0;"/><polygon fill="#181818" points="377.11,581.3511,384.8847,575.3051,379.4702,576.9432,377.832,571.5287,377.11,581.3511" style="stroke:#181818;stroke-width:1.0;"/><text fill="#000000" font-family="sans-serif" font-size="13" lengthAdjust="spacing" textLength="43" x="440" y="488.1494">creates</text><text fill="#000000" font-family="sans-serif" font-size="13" lengthAdjust="spacing" textLength="20" x="360.1273" y="570.3186">0..*</text></g><!--link StationIndexManager to EuropeanStation--><g id="link_StationIndexManager_EuropeanStation"><path codeLine="59" d="M323.74,343.8011 C325.05,395.1411 327.7056,498.5531 329.6856,575.4931 " fill="none" id="StationIndexManager-to-EuropeanStation" style="stroke:#181818;stroke-width:1.0;stroke-dasharray:7.0,7.0;"/><polygon fill="#181818" points="329.84,581.4911,333.6071,572.3912,329.7114,576.4927,325.6098,572.597,329.84,581.4911" style="stroke:#181818;stroke-width:1.0;"/><text fill="#000000" font-family="sans-serif" font-size="13" lengthAdjust="spacing" textLength="60" x="328" y="488.1494">references</text></g><!--reverse link StationIndexManager to Tree--><g id="link_StationIndexManager_Tree"><path codeLine="63" d="M274.7852,350.8209 C254.7252,365.6709 244,373.6211 244,373.6211 C244,373.6211 217.18,431.5611 202.82,462.5611 " fill="none" id="StationIndexManager-backto-Tree" style="stroke:#181818;stroke-width:1.0;"/><polygon fill="#181818" points="284.43,343.6811,277.2276,344.0361,274.7852,350.8209,281.9875,350.466,284.43,343.6811" style="stroke:#181818;stroke-width:1.0;"/><text fill="#000000" font-family="sans-serif" font-size="13" lengthAdjust="spacing" textLength="60" x="245" y="408.6494">composes</text><text fill="#000000" font-family="sans-serif" font-size="13" lengthAdjust="spacing" textLength="7" x="269.1475" y="365.2684">1</text><text fill="#000000" font-family="sans-serif" font-size="13" lengthAdjust="spacing" textLength="20" x="182.4734" y="451.2427">1..*</text></g><!--reverse link Tree to BST--><g id="link_Tree_BST"><path codeLine="65" d="M140.8386,506.8745 C108.1686,521.1645 82,532.6211 82,532.6211 C82,532.6211 58.79,609.7911 47.73,646.5611 " fill="none" id="Tree-backto-BST" style="stroke:#181818;stroke-width:1.0;stroke-dasharray:7.0,7.0;"/><polygon fill="none" points="157.33,499.6611,138.4341,501.3774,143.2431,512.3716,157.33,499.6611" style="stroke:#181818;stroke-width:1.0;"/><text fill="#000000" font-family="sans-serif" font-size="13" lengthAdjust="spacing" textLength="67" x="83" y="547.6494">implements</text></g><!--reverse link Tree to AVLTree--><g id="link_Tree_AVLTree"><path codeLine="66" d="M169.9067,517.3476 C160.0767,531.1076 159,532.6211 159,532.6211 C159,532.6211 159,551.6211 159,551.6211 C159,551.6211 160.64,614.0911 161.5,646.5411 " fill="none" id="Tree-backto-AVLTree" style="stroke:#181818;stroke-width:1.0;stroke-dasharray:7.0,7.0;"/><polygon fill="none" points="180.37,502.7011,165.0245,513.8598,174.7889,520.8353,180.37,502.7011" style="stroke:#181818;stroke-width:1.0;"/><text fill="#000000" font-family="sans-serif" font-size="13" lengthAdjust="spacing" textLength="67" x="160" y="547.6494">implements</text></g><!--reverse link Tree to EuropeanStation--><g id="link_Tree_EuropeanStation"><path codeLine="69" d="M216.1534,512.1841 C226.8234,525.9441 232,532.6211 232,532.6211 C232,532.6211 248.82,554.9911 268.67,581.3911 " fill="none" id="Tree-backto-EuropeanStation" style="stroke:#181818;stroke-width:1.0;"/><polygon fill="none" points="208.8,502.7011,209.3157,509.8937,216.1534,512.1841,215.6377,504.9914,208.8,502.7011" style="stroke:#181818;stroke-width:1.0;"/><text fill="#000000" font-family="sans-serif" font-size="13" lengthAdjust="spacing" textLength="36" x="246" y="547.6494">stores</text><text fill="#000000" font-family="sans-serif" font-size="13" lengthAdjust="spacing" textLength="20" x="242.3682" y="570.3621">0..*</text></g><!--SRC=[ZLDDRzim3BtxLn2vR2jghxti40G1kZJO0hGR5gSzxAROJAnL5br9HkTz_FTHyaUTD0Ls5Cb7FZu-EUaKmbswN5ryW1WMIbWBrrBiZIYZg90vGecke3oo3r9NWiDGYUn1x35r3KCDPaxelS9HWIr4JazIxs4db1rdbDJecWgX8jNunoYN-TbNpXcvhHskCjAf_8Lm4KKX0waJJfB-LgDfxbRmEm9u0v-5pXLQg2qQaDgX4PclWXqPUEHIYJRwUwh5WhGpf1JZsbOB8fDBBHotouKJe4ZaVWaUyMghbSxnvwtGh4VVPrD82wBV0_YXwGa4P7vO87SUwahXiiBtTmN2v399pYQifWfjRI6hXAjYtea7e9t2hQXcAJVL-tFO6CJv2ovhhCXAHwRfcApHLjnBRlbENez-ePsX4XRfVHWWbEhmFEH6MZTRreOg5BeBZmOTPSAO66px-Y9Ad49BCSJzAgxEEPXJpHpQ8EdzosX6DL-ZEO0xMU9tqlZ9K5qTPAHTICV5MoB5RBhOhP0ziUSKK_SNmTOREv6rIdZ9musjCtNcQiEdVQxmyiusSrxl6LvM2alKdL8WBD_giPO6SzWseTzTsgdqCTqCw3PoTNzpr7CzEhIDZgoT9FFNh3hrJhTHz4ewZkSddTd2uF8_S2CN3QX0U0Xx6zdtcS7mLVpgdGE0jZ_OuSC-8umVSEoUAVGz9XVU_SDM1zIz62-H1dTeK6TU2_wwNzVhvMApl9uU2Dl_lOpAGCH3trfICeTSYf9q_ex1_dk7lzWjqvvi-C39ILQJomcSnN7_R_rr_JvXaESK0hC_IUBTm9d1FtQKwcnncEuCvpXXMLWoU22nTstRWlpu8Dm9VGBGHly0]--></g></svg>