<svg xmlns="http://www.w3.org/2000/svg" xmlns:xlink="http://www.w3.org/1999/xlink" contentStyleType="text/css" data-diagram-type="SEQUENCE" height="1840px" preserveAspectRatio="none" style="width:1621px;height:1840px;background:#FFFFFF;" version="1.1" viewBox="0 0 1621 1840" width="1621px" zoomAndPan="magnify"><defs/><g><g><title>Warehouse Planner</title><rect fill="#FFFFFF" height="1659.459" style="stroke:#181818;stroke-width:1;" width="10" x="67.5005" y="91.4883"/></g><g><title>UI Layer</title><rect fill="#FFFFFF" height="29.3105" style="stroke:#181818;stroke-width:1;" width="10" x="312.8711" y="112.7988"/></g><g><title>UI Layer</title><rect fill="#FFFFFF" height="1564.2168" style="stroke:#181818;stroke-width:1;" width="10" x="312.8711" y="186.7305"/></g><g><title>UI Layer</title><rect fill="#FFFFFF" height="34.3105" style="stroke:#181818;stroke-width:1;" width="10" x="317.8711" y="751.0098"/></g><g><title>UI Layer</title><rect fill="#FFFFFF" height="936.3164" style="stroke:#181818;stroke-width:1;" width="10" x="317.8711" y="814.6309"/></g><g><title>UI Layer</title><rect fill="#FFFFFF" height="521.9688" style="stroke:#181818;stroke-width:1;" width="10" x="322.8711" y="1228.9785"/></g><g><title>UI Layer</title><rect fill="#FFFFFF" height="34.3105" style="stroke:#181818;stroke-width:1;" width="10" x="327.8711" y="1489.4629"/></g><g><title>UI Layer</title><rect fill="#FFFFFF" height="197.8633" style="stroke:#181818;stroke-width:1;" width="10" x="327.8711" y="1553.084"/></g><g><title>UI Layer</title><rect fill="#FFFFFF" height="34.3105" style="stroke:#181818;stroke-width:1;" width="10" x="332.8711" y="1707.6367"/></g><g><title>PickingPlanService</title><rect fill="#FFFFFF" height="497.6582" style="stroke:#181818;stroke-width:1;" width="10" x="683.2607" y="216.041"/></g><g><title>PickingPlanService</title><rect fill="#FFFFFF" height="40.3105" style="stroke:#181818;stroke-width:1;" width="10" x="688.2607" y="253.3516"/></g><g><title>PickingPlanService</title><rect fill="#FFFFFF" height="267.7949" style="stroke:#181818;stroke-width:1;" width="10" x="683.2607" y="843.9414"/></g><g><title>PickingPlanService</title><rect fill="#FFFFFF" height="193.8633" style="stroke:#181818;stroke-width:1;" width="10" x="683.2607" y="1258.2891"/></g><g><title>PackingHeuristic</title><rect fill="#FFFFFF" height="29.3105" style="stroke:#181818;stroke-width:1;" width="10" x="937.6958" y="329.9727"/></g><g><title>PackingHeuristic</title><rect fill="#FFFFFF" height="162.5527" style="stroke:#181818;stroke-width:1;" width="10" x="1074.1265" y="388.5938"/></g><g><title>PickingPlan</title><rect fill="#FFFFFF" height="29.3105" style="stroke:#181818;stroke-width:1;" width="10" x="1192.7461" y="580.457"/></g><g><title>PickingPlan</title><rect fill="#FFFFFF" height="14" style="stroke:#181818;stroke-width:1;" width="10" x="1192.7461" y="663.3887"/></g><g><title>PickingPlan</title><rect fill="#FFFFFF" height="29.3105" style="stroke:#181818;stroke-width:1;" width="10" x="1192.7461" y="873.252"/></g><g><title>PickingPlan</title><rect fill="#FFFFFF" height="29.3105" style="stroke:#181818;stroke-width:1;" width="10" x="1192.7461" y="1582.3945"/></g><g><title>Trolley</title><rect fill="#FFFFFF" height="72.6211" style="stroke:#181818;stroke-width:1;" width="10" x="1282.2637" y="442.2148"/></g><g><title>Trolley</title><rect fill="#FFFFFF" height="29.3105" style="stroke:#181818;stroke-width:1;" width="10" x="1282.2637" y="956.1836"/></g><g><title>Trolley</title><rect fill="#FFFFFF" height="29.3105" style="stroke:#181818;stroke-width:1;" width="10" x="1282.2637" y="1311.9102"/></g><g><title>Trolley</title><rect fill="#FFFFFF" height="29.3105" style="stroke:#181818;stroke-width:1;" width="10" x="1282.2637" y="1641.0156"/></g><g><title>PickingAssignment</title><rect fill="#FFFFFF" height="14" style="stroke:#181818;stroke-width:1;" width="10" x="1439.5498" y="471.5254"/></g><g><title>PickingAssignment</title><rect fill="#FFFFFF" height="29.3105" style="stroke:#181818;stroke-width:1;" width="10" x="1439.5498" y="1039.1152"/></g><g><title>PickingAssignment</title><rect fill="#FFFFFF" height="14" style="stroke:#181818;stroke-width:1;" width="10" x="1439.5498" y="1394.8418"/></g><g><title>File System</title><rect fill="#FFFFFF" height="29.3105" style="stroke:#181818;stroke-width:1;" width="10" x="1565.9111" y="1141.0469"/></g><rect fill="none" height="119.2422" style="stroke:#000000;stroke-width:1.5;" width="520.0366" x="1005.9111" y="403.5938"/><rect fill="none" height="60.6211" style="stroke:#000000;stroke-width:1.5;" width="643.96" x="609.1904" y="624.7676"/><rect fill="none" height="165.8633" style="stroke:#000000;stroke-width:1.5;" width="936.7573" x="599.1904" y="917.5625"/><rect fill="none" height="75.9316" style="stroke:#000000;stroke-width:1.5;" width="916.7573" x="609.1904" y="1000.4941"/><rect fill="none" height="150.5527" style="stroke:#000000;stroke-width:1.5;" width="936.7573" x="599.1904" y="1273.2891"/><rect fill="none" height="60.6211" style="stroke:#000000;stroke-width:1.5;" width="916.7573" x="609.1904" y="1356.2207"/><g><title>Warehouse Planner</title><rect fill="#000000" fill-opacity="0.00000" height="1678.459" width="8" x="68.5005" y="81.4883"/><line style="stroke:#181818;stroke-width:0.5;stroke-dasharray:5,5;" x1="72" x2="72" y1="81.4883" y2="1759.9473"/></g><g><title>UI Layer</title><rect fill="#000000" fill-opacity="0.00000" height="1678.459" width="8" x="313.8711" y="81.4883"/><line style="stroke:#181818;stroke-width:0.5;stroke-dasharray:5,5;" x1="317.77" x2="317.77" y1="81.4883" y2="1759.9473"/></g><g><title>PickingPlanService</title><rect fill="#000000" fill-opacity="0.00000" height="1678.459" width="8" x="684.2607" y="81.4883"/><line style="stroke:#181818;stroke-width:0.5;stroke-dasharray:5,5;" x1="688.1904" x2="688.1904" y1="81.4883" y2="1759.9473"/></g><g><title>PackingHeuristic</title><rect fill="#000000" fill-opacity="0.00000" height="1678.459" width="8" x="938.6958" y="81.4883"/><line style="stroke:#181818;stroke-width:0.5;stroke-dasharray:5,5;" x1="942.4805" x2="942.4805" y1="81.4883" y2="1759.9473"/></g><g><title>PackingHeuristic</title><rect fill="#000000" fill-opacity="0.00000" height="1678.459" width="8" x="1075.1265" y="81.4883"/><line style="stroke:#181818;stroke-width:0.5;stroke-dasharray:5,5;" x1="1078.9111" x2="1078.9111" y1="81.4883" y2="1759.9473"/></g><g><title>PickingPlan</title><rect fill="#000000" fill-opacity="0.00000" height="1678.459" width="8" x="1193.7461" y="81.4883"/><line style="stroke:#181818;stroke-width:0.5;stroke-dasharray:5,5;" x1="1197.3418" x2="1197.3418" y1="81.4883" y2="1759.9473"/></g><g><title>Trolley</title><rect fill="#000000" fill-opacity="0.00000" height="1678.459" width="8" x="1283.2637" y="81.4883"/><line style="stroke:#181818;stroke-width:0.5;stroke-dasharray:5,5;" x1="1287.0693" x2="1287.0693" y1="81.4883" y2="1759.9473"/></g><g><title>PickingAssignment</title><rect fill="#000000" fill-opacity="0.00000" height="1678.459" width="8" x="1440.5498" y="81.4883"/><line style="stroke:#181818;stroke-width:0.5;stroke-dasharray:5,5;" x1="1444.1519" x2="1444.1519" y1="81.4883" y2="1759.9473"/></g><g><title>File System</title><rect fill="#000000" fill-opacity="0.00000" height="1678.459" width="8" x="1566.9111" y="81.4883"/><line style="stroke:#181818;stroke-width:0.5;stroke-dasharray:5,5;" x1="1569.9478" x2="1569.9478" y1="81.4883" y2="1759.9473"/></g><g class="participant participant-head"><text fill="#000000" font-family="sans-serif" font-size="14" lengthAdjust="spacing" textLength="129.001" x="5" y="78.5352">Warehouse Planner</text><ellipse cx="72.5005" cy="13.5" fill="#E2E2F0" rx="8" ry="8" style="stroke:#181818;stroke-width:0.5;"/><path d="M72.5005,21.5 L72.5005,48.5 M59.5005,29.5 L85.5005,29.5 M72.5005,48.5 L59.5005,63.5 M72.5005,48.5 L85.5005,63.5" fill="none" style="stroke:#181818;stroke-width:0.5;"/></g><g class="participant participant-tail"><text fill="#000000" font-family="sans-serif" font-size="14" lengthAdjust="spacing" textLength="129.001" x="5" y="1772.4824">Warehouse Planner</text><ellipse cx="72.5005" cy="1783.9355" fill="#E2E2F0" rx="8" ry="8" style="stroke:#181818;stroke-width:0.5;"/><path d="M72.5005,1791.9355 L72.5005,1818.9355 M59.5005,1799.9355 L85.5005,1799.9355 M72.5005,1818.9355 L59.5005,1833.9355 M72.5005,1818.9355 L85.5005,1833.9355" fill="none" style="stroke:#181818;stroke-width:0.5;"/></g><g class="participant participant-head"><rect fill="#E2E2F0" height="30.4883" rx="2.5" ry="2.5" style="stroke:#181818;stroke-width:0.5;" width="68.2021" x="283.77" y="50"/><text fill="#000000" font-family="sans-serif" font-size="14" lengthAdjust="spacing" textLength="54.2021" x="290.77" y="70.5352">UI Layer</text></g><g class="participant participant-tail" data-participant="UI"><rect fill="#E2E2F0" height="30.4883" rx="2.5" ry="2.5" style="stroke:#181818;stroke-width:0.5;" width="68.2021" x="283.77" y="1758.9473"/><text fill="#000000" font-family="sans-serif" font-size="14" lengthAdjust="spacing" textLength="54.2021" x="290.77" y="1779.4824">UI Layer</text></g><g class="participant participant-head" data-participant="PPS"><rect fill="#E2E2F0" height="30.4883" rx="2.5" ry="2.5" style="stroke:#181818;stroke-width:0.5;" width="138.1406" x="619.1904" y="50"/><text fill="#000000" font-family="sans-serif" font-size="14" lengthAdjust="spacing" textLength="124.1406" x="626.1904" y="70.5352">PickingPlanService</text></g><g class="participant participant-tail" data-participant="PPS"><rect fill="#E2E2F0" height="30.4883" rx="2.5" ry="2.5" style="stroke:#181818;stroke-width:0.5;" width="138.1406" x="619.1904" y="1758.9473"/><text fill="#000000" font-family="sans-serif" font-size="14" lengthAdjust="spacing" textLength="124.1406" x="626.1904" y="1779.4824">PickingPlanService</text></g><g class="participant participant-head" data-participant="PHF"><rect fill="#E2E2F0" height="46.9766" rx="2.5" ry="2.5" style="stroke:#181818;stroke-width:0.5;" width="126.4307" x="879.4805" y="33.5117"/><text fill="#000000" font-family="sans-serif" font-size="14" lengthAdjust="spacing" textLength="112.4307" x="886.4805" y="54.0469">PackingHeuristic</text><text fill="#000000" font-family="sans-serif" font-size="14" lengthAdjust="spacing" textLength="49.2871" x="918.0522" y="70.5352">Factory</text></g><g class="participant participant-tail" data-participant="PHF"><rect fill="#E2E2F0" height="46.9766" rx="2.5" ry="2.5" style="stroke:#181818;stroke-width:0.5;" width="126.4307" x="879.4805" y="1758.9473"/><text fill="#000000" font-family="sans-serif" font-size="14" lengthAdjust="spacing" textLength="112.4307" x="886.4805" y="1779.4824">PackingHeuristic</text><text fill="#000000" font-family="sans-serif" font-size="14" lengthAdjust="spacing" textLength="49.2871" x="918.0522" y="1795.9707">Factory</text></g><g class="participant participant-head" data-participant="PH"><rect fill="#E2E2F0" height="30.4883" rx="2.5" ry="2.5" style="stroke:#181818;stroke-width:0.5;" width="126.4307" x="1015.9111" y="50"/><text fill="#000000" font-family="sans-serif" font-size="14" lengthAdjust="spacing" textLength="112.4307" x="1022.9111" y="70.5352">PackingHeuristic</text></g><g class="participant participant-tail" data-participant="PH"><rect fill="#E2E2F0" height="30.4883" rx="2.5" ry="2.5" style="stroke:#181818;stroke-width:0.5;" width="126.4307" x="1015.9111" y="1758.9473"/><text fill="#000000" font-family="sans-serif" font-size="14" lengthAdjust="spacing" textLength="112.4307" x="1022.9111" y="1779.4824">PackingHeuristic</text></g><g class="participant participant-head" data-participant="PP"><rect fill="#E2E2F0" height="30.4883" rx="2.5" ry="2.5" style="stroke:#181818;stroke-width:0.5;" width="90.8086" x="1152.3418" y="50"/><text fill="#000000" font-family="sans-serif" font-size="14" lengthAdjust="spacing" textLength="76.8086" x="1159.3418" y="70.5352">PickingPlan</text></g><g class="participant participant-tail" data-participant="PP"><rect fill="#E2E2F0" height="30.4883" rx="2.5" ry="2.5" style="stroke:#181818;stroke-width:0.5;" width="90.8086" x="1152.3418" y="1758.9473"/><text fill="#000000" font-family="sans-serif" font-size="14" lengthAdjust="spacing" textLength="76.8086" x="1159.3418" y="1779.4824">PickingPlan</text></g><g class="participant participant-head" data-participant="T"><rect fill="#E2E2F0" height="30.4883" rx="2.5" ry="2.5" style="stroke:#181818;stroke-width:0.5;" width="60.3887" x="1257.0693" y="50"/><text fill="#000000" font-family="sans-serif" font-size="14" lengthAdjust="spacing" textLength="46.3887" x="1264.0693" y="70.5352">Trolley</text></g><g class="participant participant-tail" data-participant="T"><rect fill="#E2E2F0" height="30.4883" rx="2.5" ry="2.5" style="stroke:#181818;stroke-width:0.5;" width="60.3887" x="1257.0693" y="1758.9473"/><text fill="#000000" font-family="sans-serif" font-size="14" lengthAdjust="spacing" textLength="46.3887" x="1264.0693" y="1779.4824">Trolley</text></g><g class="participant participant-head" data-participant="PA"><rect fill="#E2E2F0" height="30.4883" rx="2.5" ry="2.5" style="stroke:#181818;stroke-width:0.5;" width="142.7959" x="1373.1519" y="50"/><text fill="#000000" font-family="sans-serif" font-size="14" lengthAdjust="spacing" textLength="128.7959" x="1380.1519" y="70.5352">PickingAssignment</text></g><g class="participant participant-tail" data-participant="PA"><rect fill="#E2E2F0" height="30.4883" rx="2.5" ry="2.5" style="stroke:#181818;stroke-width:0.5;" width="142.7959" x="1373.1519" y="1758.9473"/><text fill="#000000" font-family="sans-serif" font-size="14" lengthAdjust="spacing" textLength="128.7959" x="1380.1519" y="1779.4824">PickingAssignment</text></g><g class="participant participant-head" data-participant="FS"><rect fill="#E2E2F0" height="30.4883" rx="2.5" ry="2.5" style="stroke:#181818;stroke-width:0.5;" width="89.9268" x="1525.9478" y="50"/><text fill="#000000" font-family="sans-serif" font-size="14" lengthAdjust="spacing" textLength="75.9268" x="1532.9478" y="70.5352">File System</text></g><g class="participant participant-tail" data-participant="FS"><rect fill="#E2E2F0" height="30.4883" rx="2.5" ry="2.5" style="stroke:#181818;stroke-width:0.5;" width="89.9268" x="1525.9478" y="1758.9473"/><text fill="#000000" font-family="sans-serif" font-size="14" lengthAdjust="spacing" textLength="75.9268" x="1532.9478" y="1779.4824">File System</text></g><g><title>Warehouse Planner</title><rect fill="#FFFFFF" height="1659.459" style="stroke:#181818;stroke-width:1;" width="10" x="67.5005" y="91.4883"/></g><g><title>UI Layer</title><rect fill="#FFFFFF" height="29.3105" style="stroke:#181818;stroke-width:1;" width="10" x="312.8711" y="112.7988"/></g><g><title>UI Layer</title><rect fill="#FFFFFF" height="1564.2168" style="stroke:#181818;stroke-width:1;" width="10" x="312.8711" y="186.7305"/></g><g><title>UI Layer</title><rect fill="#FFFFFF" height="34.3105" style="stroke:#181818;stroke-width:1;" width="10" x="317.8711" y="751.0098"/></g><g><title>UI Layer</title><rect fill="#FFFFFF" height="936.3164" style="stroke:#181818;stroke-width:1;" width="10" x="317.8711" y="814.6309"/></g><g><title>UI Layer</title><rect fill="#FFFFFF" height="521.9688" style="stroke:#181818;stroke-width:1;" width="10" x="322.8711" y="1228.9785"/></g><g><title>UI Layer</title><rect fill="#FFFFFF" height="34.3105" style="stroke:#181818;stroke-width:1;" width="10" x="327.8711" y="1489.4629"/></g><g><title>UI Layer</title><rect fill="#FFFFFF" height="197.8633" style="stroke:#181818;stroke-width:1;" width="10" x="327.8711" y="1553.084"/></g><g><title>UI Layer</title><rect fill="#FFFFFF" height="34.3105" style="stroke:#181818;stroke-width:1;" width="10" x="332.8711" y="1707.6367"/></g><g><title>PickingPlanService</title><rect fill="#FFFFFF" height="497.6582" style="stroke:#181818;stroke-width:1;" width="10" x="683.2607" y="216.041"/></g><g><title>PickingPlanService</title><rect fill="#FFFFFF" height="40.3105" style="stroke:#181818;stroke-width:1;" width="10" x="688.2607" y="253.3516"/></g><g><title>PickingPlanService</title><rect fill="#FFFFFF" height="267.7949" style="stroke:#181818;stroke-width:1;" width="10" x="683.2607" y="843.9414"/></g><g><title>PickingPlanService</title><rect fill="#FFFFFF" height="193.8633" style="stroke:#181818;stroke-width:1;" width="10" x="683.2607" y="1258.2891"/></g><g><title>PackingHeuristic</title><rect fill="#FFFFFF" height="29.3105" style="stroke:#181818;stroke-width:1;" width="10" x="937.6958" y="329.9727"/></g><g><title>PackingHeuristic</title><rect fill="#FFFFFF" height="162.5527" style="stroke:#181818;stroke-width:1;" width="10" x="1074.1265" y="388.5938"/></g><g><title>PickingPlan</title><rect fill="#FFFFFF" height="29.3105" style="stroke:#181818;stroke-width:1;" width="10" x="1192.7461" y="580.457"/></g><g><title>PickingPlan</title><rect fill="#FFFFFF" height="14" style="stroke:#181818;stroke-width:1;" width="10" x="1192.7461" y="663.3887"/></g><g><title>PickingPlan</title><rect fill="#FFFFFF" height="29.3105" style="stroke:#181818;stroke-width:1;" width="10" x="1192.7461" y="873.252"/></g><g><title>PickingPlan</title><rect fill="#FFFFFF" height="29.3105" style="stroke:#181818;stroke-width:1;" width="10" x="1192.7461" y="1582.3945"/></g><g><title>Trolley</title><rect fill="#FFFFFF" height="72.6211" style="stroke:#181818;stroke-width:1;" width="10" x="1282.2637" y="442.2148"/></g><g><title>Trolley</title><rect fill="#FFFFFF" height="29.3105" style="stroke:#181818;stroke-width:1;" width="10" x="1282.2637" y="956.1836"/></g><g><title>Trolley</title><rect fill="#FFFFFF" height="29.3105" style="stroke:#181818;stroke-width:1;" width="10" x="1282.2637" y="1311.9102"/></g><g><title>Trolley</title><rect fill="#FFFFFF" height="29.3105" style="stroke:#181818;stroke-width:1;" width="10" x="1282.2637" y="1641.0156"/></g><g><title>PickingAssignment</title><rect fill="#FFFFFF" height="14" style="stroke:#181818;stroke-width:1;" width="10" x="1439.5498" y="471.5254"/></g><g><title>PickingAssignment</title><rect fill="#FFFFFF" height="29.3105" style="stroke:#181818;stroke-width:1;" width="10" x="1439.5498" y="1039.1152"/></g><g><title>PickingAssignment</title><rect fill="#FFFFFF" height="14" style="stroke:#181818;stroke-width:1;" width="10" x="1439.5498" y="1394.8418"/></g><g><title>File System</title><rect fill="#FFFFFF" height="29.3105" style="stroke:#181818;stroke-width:1;" width="10" x="1565.9111" y="1141.0469"/></g><g class="message" data-participant-1="WP" data-participant-2="UI"><polygon fill="#181818" points="300.8711,108.7988,310.8711,112.7988,300.8711,116.7988,304.8711,112.7988" style="stroke:#181818;stroke-width:1;"/><line style="stroke:#181818;stroke-width:1;" x1="77.5005" x2="306.8711" y1="112.7988" y2="112.7988"/><text fill="#000000" font-family="sans-serif" font-size="13" lengthAdjust="spacing" textLength="165.458" x="84.5005" y="108.0566">2. displayParameterForm()</text></g><g class="message" data-participant-1="UI" data-participant-2="WP"><polygon fill="#181818" points="88.5005,138.1094,78.5005,142.1094,88.5005,146.1094,84.5005,142.1094" style="stroke:#181818;stroke-width:1;"/><line style="stroke:#181818;stroke-width:1;stroke-dasharray:2,2;" x1="82.5005" x2="316.8711" y1="142.1094" y2="142.1094"/><text fill="#000000" font-family="sans-serif" font-size="13" lengthAdjust="spacing" textLength="142.8096" x="94.5005" y="137.3672">Shows parameter form</text></g><g class="message" data-participant-1="WP" data-participant-2="UI"><polygon fill="#181818" points="300.8711,182.7305,310.8711,186.7305,300.8711,190.7305,304.8711,186.7305" style="stroke:#181818;stroke-width:1;"/><line style="stroke:#181818;stroke-width:1;" x1="77.5005" x2="306.8711" y1="186.7305" y2="186.7305"/><text fill="#000000" font-family="sans-serif" font-size="13" lengthAdjust="spacing" textLength="183.1553" x="84.5005" y="166.6777">3. submitPackingParameters(</text><text fill="#000000" font-family="sans-serif" font-size="13" lengthAdjust="spacing" textLength="194.1304" x="84.5005" y="181.9883">allocations, capacity, heuristic)</text></g><g class="message" data-participant-1="UI" data-participant-2="PPS"><polygon fill="#181818" points="671.2607,212.041,681.2607,216.041,671.2607,220.041,675.2607,216.041" style="stroke:#181818;stroke-width:1;"/><line style="stroke:#181818;stroke-width:1;" x1="322.8711" x2="677.2607" y1="216.041" y2="216.041"/><text fill="#000000" font-family="sans-serif" font-size="13" lengthAdjust="spacing" textLength="341.3896" x="329.8711" y="211.2988">1. generatePickingPlan(allocations, capacity, heuristic)</text></g><g class="message" data-participant-1="PPS" data-participant-2="PPS"><line style="stroke:#181818;stroke-width:1;" x1="693.2607" x2="740.2607" y1="240.3516" y2="240.3516"/><line style="stroke:#181818;stroke-width:1;" x1="740.2607" x2="740.2607" y1="240.3516" y2="253.3516"/><line style="stroke:#181818;stroke-width:1;" x1="699.2607" x2="740.2607" y1="253.3516" y2="253.3516"/><polygon fill="#181818" points="709.2607,249.3516,699.2607,253.3516,709.2607,257.3516,705.2607,253.3516" style="stroke:#181818;stroke-width:1;"/><text fill="#000000" font-family="sans-serif" font-size="13" lengthAdjust="spacing" textLength="220.4351" x="705.2607" y="235.6094">convertToAssignments(allocations)</text></g><g class="message" data-participant-1="PPS" data-participant-2="PPS"><line style="stroke:#181818;stroke-width:1;stroke-dasharray:2,2;" x1="698.2607" x2="740.2607" y1="292.6621" y2="292.6621"/><line style="stroke:#181818;stroke-width:1;stroke-dasharray:2,2;" x1="740.2607" x2="740.2607" y1="292.6621" y2="305.6621"/><line style="stroke:#181818;stroke-width:1;stroke-dasharray:2,2;" x1="693.2607" x2="740.2607" y1="305.6621" y2="305.6621"/><polygon fill="#181818" points="703.2607,301.6621,693.2607,305.6621,703.2607,309.6621,699.2607,305.6621" style="stroke:#181818;stroke-width:1;"/><text fill="#000000" font-family="sans-serif" font-size="13" lengthAdjust="spacing" textLength="162.4429" x="705.2607" y="287.9199">List&lt;PickingAssignment&gt;</text></g><g class="message" data-participant-1="PPS" data-participant-2="PHF"><polygon fill="#181818" points="925.6958,325.9727,935.6958,329.9727,925.6958,333.9727,929.6958,329.9727" style="stroke:#181818;stroke-width:1;"/><line style="stroke:#181818;stroke-width:1;" x1="693.2607" x2="931.6958" y1="329.9727" y2="329.9727"/><text fill="#000000" font-family="sans-serif" font-size="13" lengthAdjust="spacing" textLength="157.168" x="700.2607" y="325.2305">createHeuristic(heuristic)</text></g><g class="message" data-participant-1="PHF" data-participant-2="PPS"><polygon fill="#181818" points="704.2607,355.2832,694.2607,359.2832,704.2607,363.2832,700.2607,359.2832" style="stroke:#181818;stroke-width:1;"/><line style="stroke:#181818;stroke-width:1;stroke-dasharray:2,2;" x1="698.2607" x2="941.6958" y1="359.2832" y2="359.2832"/><text fill="#000000" font-family="sans-serif" font-size="13" lengthAdjust="spacing" textLength="160.9766" x="710.2607" y="354.541">PackingHeuristic instance</text></g><g class="message" data-participant-1="PPS" data-participant-2="PH"><polygon fill="#181818" points="1062.1265,384.5938,1072.1265,388.5938,1062.1265,392.5938,1066.1265,388.5938" style="stroke:#181818;stroke-width:1;"/><line style="stroke:#181818;stroke-width:1;" x1="693.2607" x2="1068.1265" y1="388.5938" y2="388.5938"/><text fill="#000000" font-family="sans-serif" font-size="13" lengthAdjust="spacing" textLength="211.4849" x="700.2607" y="383.8516">packItems(assignments, capacity)</text></g><path d="M1005.9111,403.5938 L1080.3579,403.5938 L1080.3579,410.9043 L1070.3579,420.9043 L1005.9111,420.9043 L1005.9111,403.5938" fill="#EEEEEE" style="stroke:#000000;stroke-width:1.5;"/><rect fill="none" height="119.2422" style="stroke:#000000;stroke-width:1.5;" width="520.0366" x="1005.9111" y="403.5938"/><text fill="#000000" font-family="sans-serif" font-size="13" font-weight="bold" lengthAdjust="spacing" textLength="29.4468" x="1020.9111" y="417.1621">loop</text><text fill="#000000" font-family="sans-serif" font-size="11" font-weight="bold" lengthAdjust="spacing" textLength="123.7393" x="1095.3579" y="416.2285">[for each assignment]</text><g class="message" data-participant-1="PH" data-participant-2="T"><polygon fill="#181818" points="1270.2637,438.2148,1280.2637,442.2148,1270.2637,446.2148,1274.2637,442.2148" style="stroke:#181818;stroke-width:1;"/><line style="stroke:#181818;stroke-width:1;" x1="1084.1265" x2="1276.2637" y1="442.2148" y2="442.2148"/><text fill="#000000" font-family="sans-serif" font-size="13" lengthAdjust="spacing" textLength="179.1372" x="1091.1265" y="437.4727">addAssignment(assignment)</text></g><g class="message" data-participant-1="T" data-participant-2="PA"><polygon fill="#181818" points="1427.5498,467.5254,1437.5498,471.5254,1427.5498,475.5254,1431.5498,471.5254" style="stroke:#181818;stroke-width:1;"/><line style="stroke:#181818;stroke-width:1;" x1="1292.2637" x2="1433.5498" y1="471.5254" y2="471.5254"/><text fill="#000000" font-family="sans-serif" font-size="13" lengthAdjust="spacing" textLength="128.2861" x="1299.2637" y="466.7832">setStatus(ASSIGNED)</text></g><g class="message" data-participant-1="PA" data-participant-2="T"><polygon fill="#181818" points="1303.2637,481.5254,1293.2637,485.5254,1303.2637,489.5254,1299.2637,485.5254" style="stroke:#181818;stroke-width:1;"/><line style="stroke:#181818;stroke-width:1;stroke-dasharray:2,2;" x1="1297.2637" x2="1443.5498" y1="485.5254" y2="485.5254"/></g><g class="message" data-participant-1="T" data-participant-2="PH"><polygon fill="#181818" points="1095.1265,510.8359,1085.1265,514.8359,1095.1265,518.8359,1091.1265,514.8359" style="stroke:#181818;stroke-width:1;"/><line style="stroke:#181818;stroke-width:1;stroke-dasharray:2,2;" x1="1089.1265" x2="1286.2637" y1="514.8359" y2="514.8359"/><text fill="#000000" font-family="sans-serif" font-size="13" lengthAdjust="spacing" textLength="90.3906" x="1101.1265" y="510.0938">boolean result</text></g><g class="message" data-participant-1="PH" data-participant-2="PPS"><polygon fill="#181818" points="704.2607,547.1465,694.2607,551.1465,704.2607,555.1465,700.2607,551.1465" style="stroke:#181818;stroke-width:1;"/><line style="stroke:#181818;stroke-width:1;stroke-dasharray:2,2;" x1="698.2607" x2="1078.1265" y1="551.1465" y2="551.1465"/><text fill="#000000" font-family="sans-serif" font-size="13" lengthAdjust="spacing" textLength="85.9219" x="710.2607" y="546.4043">List&lt;Trolley&gt;</text></g><g class="message" data-participant-1="PPS" data-participant-2="PP"><polygon fill="#181818" points="1180.7461,576.457,1190.7461,580.457,1180.7461,584.457,1184.7461,580.457" style="stroke:#181818;stroke-width:1;"/><line style="stroke:#181818;stroke-width:1;" x1="693.2607" x2="1186.7461" y1="580.457" y2="580.457"/><text fill="#000000" font-family="sans-serif" font-size="13" lengthAdjust="spacing" textLength="243.2422" x="700.2607" y="575.7148">new PickingPlan(id, heuristic, capacity)</text></g><g class="message" data-participant-1="PP" data-participant-2="PPS"><polygon fill="#181818" points="704.2607,605.7676,694.2607,609.7676,704.2607,613.7676,700.2607,609.7676" style="stroke:#181818;stroke-width:1;"/><line style="stroke:#181818;stroke-width:1;stroke-dasharray:2,2;" x1="698.2607" x2="1196.7461" y1="609.7676" y2="609.7676"/><text fill="#000000" font-family="sans-serif" font-size="13" lengthAdjust="spacing" textLength="127.8989" x="710.2607" y="605.0254">PickingPlan instance</text></g><path d="M609.1904,624.7676 L683.6372,624.7676 L683.6372,632.0781 L673.6372,642.0781 L609.1904,642.0781 L609.1904,624.7676" fill="#EEEEEE" style="stroke:#000000;stroke-width:1.5;"/><rect fill="none" height="60.6211" style="stroke:#000000;stroke-width:1.5;" width="643.96" x="609.1904" y="624.7676"/><text fill="#000000" font-family="sans-serif" font-size="13" font-weight="bold" lengthAdjust="spacing" textLength="29.4468" x="624.1904" y="638.3359">loop</text><text fill="#000000" font-family="sans-serif" font-size="11" font-weight="bold" lengthAdjust="spacing" textLength="94.4775" x="698.6372" y="637.4023">[for each trolley]</text><g class="message" data-participant-1="PPS" data-participant-2="PP"><polygon fill="#181818" points="1180.7461,659.3887,1190.7461,663.3887,1180.7461,667.3887,1184.7461,663.3887" style="stroke:#181818;stroke-width:1;"/><line style="stroke:#181818;stroke-width:1;" x1="693.2607" x2="1186.7461" y1="663.3887" y2="663.3887"/><text fill="#000000" font-family="sans-serif" font-size="13" lengthAdjust="spacing" textLength="114.791" x="700.2607" y="658.6465">addTrolley(trolley)</text></g><g class="message" data-participant-1="PP" data-participant-2="PPS"><polygon fill="#181818" points="704.2607,673.3887,694.2607,677.3887,704.2607,681.3887,700.2607,677.3887" style="stroke:#181818;stroke-width:1;"/><line style="stroke:#181818;stroke-width:1;stroke-dasharray:2,2;" x1="698.2607" x2="1196.7461" y1="677.3887" y2="677.3887"/></g><g class="message" data-participant-1="PPS" data-participant-2="UI"><polygon fill="#181818" points="333.8711,709.6992,323.8711,713.6992,333.8711,717.6992,329.8711,713.6992" style="stroke:#181818;stroke-width:1;"/><line style="stroke:#181818;stroke-width:1;stroke-dasharray:2,2;" x1="327.8711" x2="687.2607" y1="713.6992" y2="713.6992"/><text fill="#000000" font-family="sans-serif" font-size="13" lengthAdjust="spacing" textLength="71.3223" x="339.8711" y="708.957">PickingPlan</text></g><g class="message" data-participant-1="UI" data-participant-2="UI"><line style="stroke:#181818;stroke-width:1;" x1="322.8711" x2="369.8711" y1="738.0098" y2="738.0098"/><line style="stroke:#181818;stroke-width:1;" x1="369.8711" x2="369.8711" y1="738.0098" y2="751.0098"/><line style="stroke:#181818;stroke-width:1;" x1="328.8711" x2="369.8711" y1="751.0098" y2="751.0098"/><polygon fill="#181818" points="338.8711,747.0098,328.8711,751.0098,338.8711,755.0098,334.8711,751.0098" style="stroke:#181818;stroke-width:1;"/><text fill="#000000" font-family="sans-serif" font-size="13" lengthAdjust="spacing" textLength="213.2939" x="334.8711" y="733.2676">4. displayPickingPlanResults(plan)</text></g><g class="message" data-participant-1="UI" data-participant-2="WP"><polygon fill="#181818" points="88.5005,781.3203,78.5005,785.3203,88.5005,789.3203,84.5005,785.3203" style="stroke:#181818;stroke-width:1;"/><line style="stroke:#181818;stroke-width:1;stroke-dasharray:2,2;" x1="82.5005" x2="311.8711" y1="785.3203" y2="785.3203"/><text fill="#000000" font-family="sans-serif" font-size="13" lengthAdjust="spacing" textLength="211.3706" x="94.5005" y="780.5781">Shows plan summary and trolleys</text></g><g class="message" data-participant-1="WP" data-participant-2="UI"><polygon fill="#181818" points="305.8711,810.6309,315.8711,814.6309,305.8711,818.6309,309.8711,814.6309" style="stroke:#181818;stroke-width:1;"/><line style="stroke:#181818;stroke-width:1;" x1="77.5005" x2="311.8711" y1="814.6309" y2="814.6309"/><text fill="#000000" font-family="sans-serif" font-size="13" lengthAdjust="spacing" textLength="126.8643" x="84.5005" y="809.8887">7. exportPlan("CSV")</text></g><g class="message" data-participant-1="UI" data-participant-2="PPS"><polygon fill="#181818" points="671.2607,839.9414,681.2607,843.9414,671.2607,847.9414,675.2607,843.9414" style="stroke:#181818;stroke-width:1;"/><line style="stroke:#181818;stroke-width:1;" x1="327.8711" x2="677.2607" y1="843.9414" y2="843.9414"/><text fill="#000000" font-family="sans-serif" font-size="13" lengthAdjust="spacing" textLength="117.9077" x="334.8711" y="839.1992">exportToCSV(plan)</text></g><g class="message" data-participant-1="PPS" data-participant-2="PP"><polygon fill="#181818" points="1180.7461,869.252,1190.7461,873.252,1180.7461,877.252,1184.7461,873.252" style="stroke:#181818;stroke-width:1;"/><line style="stroke:#181818;stroke-width:1;" x1="693.2607" x2="1186.7461" y1="873.252" y2="873.252"/><text fill="#000000" font-family="sans-serif" font-size="13" lengthAdjust="spacing" textLength="78.3682" x="700.2607" y="868.5098">getTrolleys()</text></g><g class="message" data-participant-1="PP" data-participant-2="PPS"><polygon fill="#181818" points="704.2607,898.5625,694.2607,902.5625,704.2607,906.5625,700.2607,902.5625" style="stroke:#181818;stroke-width:1;"/><line style="stroke:#181818;stroke-width:1;stroke-dasharray:2,2;" x1="698.2607" x2="1196.7461" y1="902.5625" y2="902.5625"/><text fill="#000000" font-family="sans-serif" font-size="13" lengthAdjust="spacing" textLength="85.9219" x="710.2607" y="897.8203">List&lt;Trolley&gt;</text></g><path d="M599.1904,917.5625 L673.6372,917.5625 L673.6372,924.873 L663.6372,934.873 L599.1904,934.873 L599.1904,917.5625" fill="#EEEEEE" style="stroke:#000000;stroke-width:1.5;"/><rect fill="none" height="165.8633" style="stroke:#000000;stroke-width:1.5;" width="936.7573" x="599.1904" y="917.5625"/><text fill="#000000" font-family="sans-serif" font-size="13" font-weight="bold" lengthAdjust="spacing" textLength="29.4468" x="614.1904" y="931.1309">loop</text><text fill="#000000" font-family="sans-serif" font-size="11" font-weight="bold" lengthAdjust="spacing" textLength="94.4775" x="688.6372" y="930.1973">[for each trolley]</text><g class="message" data-participant-1="PPS" data-participant-2="T"><polygon fill="#181818" points="1270.2637,952.1836,1280.2637,956.1836,1270.2637,960.1836,1274.2637,956.1836" style="stroke:#181818;stroke-width:1;"/><line style="stroke:#181818;stroke-width:1;" x1="693.2607" x2="1276.2637" y1="956.1836" y2="956.1836"/><text fill="#000000" font-family="sans-serif" font-size="13" lengthAdjust="spacing" textLength="109.7573" x="700.2607" y="951.4414">getAssignments()</text></g><g class="message" data-participant-1="T" data-participant-2="PPS"><polygon fill="#181818" points="704.2607,981.4941,694.2607,985.4941,704.2607,989.4941,700.2607,985.4941" style="stroke:#181818;stroke-width:1;"/><line style="stroke:#181818;stroke-width:1;stroke-dasharray:2,2;" x1="698.2607" x2="1286.2637" y1="985.4941" y2="985.4941"/><text fill="#000000" font-family="sans-serif" font-size="13" lengthAdjust="spacing" textLength="162.4429" x="710.2607" y="980.752">List&lt;PickingAssignment&gt;</text></g><path d="M609.1904,1000.4941 L683.6372,1000.4941 L683.6372,1007.8047 L673.6372,1017.8047 L609.1904,1017.8047 L609.1904,1000.4941" fill="#EEEEEE" style="stroke:#000000;stroke-width:1.5;"/><rect fill="none" height="75.9316" style="stroke:#000000;stroke-width:1.5;" width="916.7573" x="609.1904" y="1000.4941"/><text fill="#000000" font-family="sans-serif" font-size="13" font-weight="bold" lengthAdjust="spacing" textLength="29.4468" x="624.1904" y="1014.0625">loop</text><text fill="#000000" font-family="sans-serif" font-size="11" font-weight="bold" lengthAdjust="spacing" textLength="123.7393" x="698.6372" y="1013.1289">[for each assignment]</text><g class="message" data-participant-1="PPS" data-participant-2="PA"><polygon fill="#181818" points="1427.5498,1035.1152,1437.5498,1039.1152,1427.5498,1043.1152,1431.5498,1039.1152" style="stroke:#181818;stroke-width:1;"/><line style="stroke:#181818;stroke-width:1;" x1="693.2607" x2="1433.5498" y1="1039.1152" y2="1039.1152"/><text fill="#000000" font-family="sans-serif" font-size="13" lengthAdjust="spacing" textLength="167.4194" x="700.2607" y="1034.373">getOrderId(), getSku(), etc.</text></g><g class="message" data-participant-1="PA" data-participant-2="PPS"><polygon fill="#181818" points="704.2607,1064.4258,694.2607,1068.4258,704.2607,1072.4258,700.2607,1068.4258" style="stroke:#181818;stroke-width:1;"/><line style="stroke:#181818;stroke-width:1;stroke-dasharray:2,2;" x1="698.2607" x2="1443.5498" y1="1068.4258" y2="1068.4258"/><text fill="#000000" font-family="sans-serif" font-size="13" lengthAdjust="spacing" textLength="104.1904" x="710.2607" y="1063.6836">assignment data</text></g><g class="message" data-participant-1="PPS" data-participant-2="UI"><polygon fill="#181818" points="338.8711,1107.7363,328.8711,1111.7363,338.8711,1115.7363,334.8711,1111.7363" style="stroke:#181818;stroke-width:1;"/><line style="stroke:#181818;stroke-width:1;stroke-dasharray:2,2;" x1="332.8711" x2="687.2607" y1="1111.7363" y2="1111.7363"/><text fill="#000000" font-family="sans-serif" font-size="13" lengthAdjust="spacing" textLength="65.3491" x="344.8711" y="1106.9941">CSV string</text></g><g class="message" data-participant-1="UI" data-participant-2="FS"><polygon fill="#181818" points="1553.9111,1137.0469,1563.9111,1141.0469,1553.9111,1145.0469,1557.9111,1141.0469" style="stroke:#181818;stroke-width:1;"/><line style="stroke:#181818;stroke-width:1;" x1="327.8711" x2="1559.9111" y1="1141.0469" y2="1141.0469"/><text fill="#000000" font-family="sans-serif" font-size="13" lengthAdjust="spacing" textLength="134.4814" x="334.8711" y="1136.3047">8. returnFile(csvData)</text></g><g class="message" data-participant-1="FS" data-participant-2="UI"><polygon fill="#181818" points="338.8711,1166.3574,328.8711,1170.3574,338.8711,1174.3574,334.8711,1170.3574" style="stroke:#181818;stroke-width:1;"/><line style="stroke:#181818;stroke-width:1;stroke-dasharray:2,2;" x1="332.8711" x2="1569.9111" y1="1170.3574" y2="1170.3574"/><text fill="#000000" font-family="sans-serif" font-size="13" lengthAdjust="spacing" textLength="146.4722" x="344.8711" y="1165.6152">File saved confirmation</text></g><g class="message" data-participant-1="UI" data-participant-2="WP"><polygon fill="#181818" points="88.5005,1195.668,78.5005,1199.668,88.5005,1203.668,84.5005,1199.668" style="stroke:#181818;stroke-width:1;"/><line style="stroke:#181818;stroke-width:1;stroke-dasharray:2,2;" x1="82.5005" x2="316.8711" y1="1199.668" y2="1199.668"/><text fill="#000000" font-family="sans-serif" font-size="13" lengthAdjust="spacing" textLength="115.1719" x="94.5005" y="1194.9258">Download CSV file</text></g><g class="message" data-participant-1="WP" data-participant-2="UI"><polygon fill="#181818" points="310.8711,1224.9785,320.8711,1228.9785,310.8711,1232.9785,314.8711,1228.9785" style="stroke:#181818;stroke-width:1;"/><line style="stroke:#181818;stroke-width:1;" x1="77.5005" x2="316.8711" y1="1228.9785" y2="1228.9785"/><text fill="#000000" font-family="sans-serif" font-size="13" lengthAdjust="spacing" textLength="161.459" x="84.5005" y="1224.2363">9. confirmPlanExecution()</text></g><g class="message" data-participant-1="UI" data-participant-2="PPS"><polygon fill="#181818" points="671.2607,1254.2891,681.2607,1258.2891,671.2607,1262.2891,675.2607,1258.2891" style="stroke:#181818;stroke-width:1;"/><line style="stroke:#181818;stroke-width:1;" x1="332.8711" x2="677.2607" y1="1258.2891" y2="1258.2891"/><text fill="#000000" font-family="sans-serif" font-size="13" lengthAdjust="spacing" textLength="111.1221" x="339.8711" y="1253.5469">executePlan(plan)</text></g><path d="M599.1904,1273.2891 L673.6372,1273.2891 L673.6372,1280.5996 L663.6372,1290.5996 L599.1904,1290.5996 L599.1904,1273.2891" fill="#EEEEEE" style="stroke:#000000;stroke-width:1.5;"/><rect fill="none" height="150.5527" style="stroke:#000000;stroke-width:1.5;" width="936.7573" x="599.1904" y="1273.2891"/><text fill="#000000" font-family="sans-serif" font-size="13" font-weight="bold" lengthAdjust="spacing" textLength="29.4468" x="614.1904" y="1286.8574">loop</text><text fill="#000000" font-family="sans-serif" font-size="11" font-weight="bold" lengthAdjust="spacing" textLength="94.4775" x="688.6372" y="1285.9238">[for each trolley]</text><g class="message" data-participant-1="PPS" data-participant-2="T"><polygon fill="#181818" points="1270.2637,1307.9102,1280.2637,1311.9102,1270.2637,1315.9102,1274.2637,1311.9102" style="stroke:#181818;stroke-width:1;"/><line style="stroke:#181818;stroke-width:1;" x1="693.2607" x2="1276.2637" y1="1311.9102" y2="1311.9102"/><text fill="#000000" font-family="sans-serif" font-size="13" lengthAdjust="spacing" textLength="109.7573" x="700.2607" y="1307.168">getAssignments()</text></g><g class="message" data-participant-1="T" data-participant-2="PPS"><polygon fill="#181818" points="704.2607,1337.2207,694.2607,1341.2207,704.2607,1345.2207,700.2607,1341.2207" style="stroke:#181818;stroke-width:1;"/><line style="stroke:#181818;stroke-width:1;stroke-dasharray:2,2;" x1="698.2607" x2="1286.2637" y1="1341.2207" y2="1341.2207"/><text fill="#000000" font-family="sans-serif" font-size="13" lengthAdjust="spacing" textLength="162.4429" x="710.2607" y="1336.4785">List&lt;PickingAssignment&gt;</text></g><path d="M609.1904,1356.2207 L683.6372,1356.2207 L683.6372,1363.5313 L673.6372,1373.5313 L609.1904,1373.5313 L609.1904,1356.2207" fill="#EEEEEE" style="stroke:#000000;stroke-width:1.5;"/><rect fill="none" height="60.6211" style="stroke:#000000;stroke-width:1.5;" width="916.7573" x="609.1904" y="1356.2207"/><text fill="#000000" font-family="sans-serif" font-size="13" font-weight="bold" lengthAdjust="spacing" textLength="29.4468" x="624.1904" y="1369.7891">loop</text><text fill="#000000" font-family="sans-serif" font-size="11" font-weight="bold" lengthAdjust="spacing" textLength="123.7393" x="698.6372" y="1368.8555">[for each assignment]</text><g class="message" data-participant-1="PPS" data-participant-2="PA"><polygon fill="#181818" points="1427.5498,1390.8418,1437.5498,1394.8418,1427.5498,1398.8418,1431.5498,1394.8418" style="stroke:#181818;stroke-width:1;"/><line style="stroke:#181818;stroke-width:1;" x1="693.2607" x2="1433.5498" y1="1394.8418" y2="1394.8418"/><text fill="#000000" font-family="sans-serif" font-size="13" lengthAdjust="spacing" textLength="110.9824" x="700.2607" y="1390.0996">setStatus(PICKED)</text></g><g class="message" data-participant-1="PA" data-participant-2="PPS"><polygon fill="#181818" points="704.2607,1404.8418,694.2607,1408.8418,704.2607,1412.8418,700.2607,1408.8418" style="stroke:#181818;stroke-width:1;"/><line style="stroke:#181818;stroke-width:1;stroke-dasharray:2,2;" x1="698.2607" x2="1443.5498" y1="1408.8418" y2="1408.8418"/></g><g class="message" data-participant-1="PPS" data-participant-2="UI"><polygon fill="#181818" points="343.8711,1448.1523,333.8711,1452.1523,343.8711,1456.1523,339.8711,1452.1523" style="stroke:#181818;stroke-width:1;"/><line style="stroke:#181818;stroke-width:1;stroke-dasharray:2,2;" x1="337.8711" x2="687.2607" y1="1452.1523" y2="1452.1523"/><text fill="#000000" font-family="sans-serif" font-size="13" lengthAdjust="spacing" textLength="132.0249" x="349.8711" y="1447.4102">Execution completed</text></g><g class="message" data-participant-1="UI" data-participant-2="UI"><line style="stroke:#181818;stroke-width:1;" x1="332.8711" x2="379.8711" y1="1476.4629" y2="1476.4629"/><line style="stroke:#181818;stroke-width:1;" x1="379.8711" x2="379.8711" y1="1476.4629" y2="1489.4629"/><line style="stroke:#181818;stroke-width:1;" x1="338.8711" x2="379.8711" y1="1489.4629" y2="1489.4629"/><polygon fill="#181818" points="348.8711,1485.4629,338.8711,1489.4629,348.8711,1493.4629,344.8711,1489.4629" style="stroke:#181818;stroke-width:1;"/><text fill="#000000" font-family="sans-serif" font-size="13" lengthAdjust="spacing" textLength="297.8765" x="344.8711" y="1471.7207">10. showSuccess("Plano de picking executado")</text></g><g class="message" data-participant-1="UI" data-participant-2="WP"><polygon fill="#181818" points="88.5005,1519.7734,78.5005,1523.7734,88.5005,1527.7734,84.5005,1523.7734" style="stroke:#181818;stroke-width:1;"/><line style="stroke:#181818;stroke-width:1;stroke-dasharray:2,2;" x1="82.5005" x2="321.8711" y1="1523.7734" y2="1523.7734"/><text fill="#000000" font-family="sans-serif" font-size="13" lengthAdjust="spacing" textLength="108.1577" x="94.5005" y="1519.0313">Success message</text></g><g class="message" data-participant-1="WP" data-participant-2="UI"><polygon fill="#181818" points="315.8711,1549.084,325.8711,1553.084,315.8711,1557.084,319.8711,1553.084" style="stroke:#181818;stroke-width:1;"/><line style="stroke:#181818;stroke-width:1;" x1="77.5005" x2="321.8711" y1="1553.084" y2="1553.084"/><text fill="#000000" font-family="sans-serif" font-size="13" lengthAdjust="spacing" textLength="210.3296" x="84.5005" y="1548.3418">5. requestTrolleyDetails(trolleyId)</text></g><g class="message" data-participant-1="UI" data-participant-2="PP"><polygon fill="#181818" points="1180.7461,1578.3945,1190.7461,1582.3945,1180.7461,1586.3945,1184.7461,1582.3945" style="stroke:#181818;stroke-width:1;"/><line style="stroke:#181818;stroke-width:1;" x1="337.8711" x2="1186.7461" y1="1582.3945" y2="1582.3945"/><text fill="#000000" font-family="sans-serif" font-size="13" lengthAdjust="spacing" textLength="78.3682" x="344.8711" y="1577.6523">getTrolleys()</text></g><g class="message" data-participant-1="PP" data-participant-2="UI"><polygon fill="#181818" points="348.8711,1607.7051,338.8711,1611.7051,348.8711,1615.7051,344.8711,1611.7051" style="stroke:#181818;stroke-width:1;"/><line style="stroke:#181818;stroke-width:1;stroke-dasharray:2,2;" x1="342.8711" x2="1196.7461" y1="1611.7051" y2="1611.7051"/><text fill="#000000" font-family="sans-serif" font-size="13" lengthAdjust="spacing" textLength="85.9219" x="354.8711" y="1606.9629">List&lt;Trolley&gt;</text></g><g class="message" data-participant-1="UI" data-participant-2="T"><polygon fill="#181818" points="1270.2637,1637.0156,1280.2637,1641.0156,1270.2637,1645.0156,1274.2637,1641.0156" style="stroke:#181818;stroke-width:1;"/><line style="stroke:#181818;stroke-width:1;" x1="337.8711" x2="1276.2637" y1="1641.0156" y2="1641.0156"/><text fill="#000000" font-family="sans-serif" font-size="13" lengthAdjust="spacing" textLength="109.7573" x="344.8711" y="1636.2734">getAssignments()</text></g><g class="message" data-participant-1="T" data-participant-2="UI"><polygon fill="#181818" points="348.8711,1666.3262,338.8711,1670.3262,348.8711,1674.3262,344.8711,1670.3262" style="stroke:#181818;stroke-width:1;"/><line style="stroke:#181818;stroke-width:1;stroke-dasharray:2,2;" x1="342.8711" x2="1286.2637" y1="1670.3262" y2="1670.3262"/><text fill="#000000" font-family="sans-serif" font-size="13" lengthAdjust="spacing" textLength="162.4429" x="354.8711" y="1665.584">List&lt;PickingAssignment&gt;</text></g><g class="message" data-participant-1="UI" data-participant-2="UI"><line style="stroke:#181818;stroke-width:1;" x1="337.8711" x2="384.8711" y1="1694.6367" y2="1694.6367"/><line style="stroke:#181818;stroke-width:1;" x1="384.8711" x2="384.8711" y1="1694.6367" y2="1707.6367"/><line style="stroke:#181818;stroke-width:1;" x1="343.8711" x2="384.8711" y1="1707.6367" y2="1707.6367"/><polygon fill="#181818" points="353.8711,1703.6367,343.8711,1707.6367,353.8711,1711.6367,349.8711,1707.6367" style="stroke:#181818;stroke-width:1;"/><text fill="#000000" font-family="sans-serif" font-size="13" lengthAdjust="spacing" textLength="223.1392" x="349.8711" y="1689.8945">6. showTrolleyDetails(assignments)</text></g><g class="message" data-participant-1="UI" data-participant-2="WP"><polygon fill="#181818" points="88.5005,1737.9473,78.5005,1741.9473,88.5005,1745.9473,84.5005,1741.9473" style="stroke:#181818;stroke-width:1;"/><line style="stroke:#181818;stroke-width:1;stroke-dasharray:2,2;" x1="82.5005" x2="326.8711" y1="1741.9473" y2="1741.9473"/><text fill="#000000" font-family="sans-serif" font-size="13" lengthAdjust="spacing" textLength="189.9092" x="94.5005" y="1737.2051">Shows detailed trolley content</text></g><!--SRC=[rLPTRvim57tdLrpbYKfjjEvxqLGfQiiIRThGOElBNbouRQs2pMoJDlz-rmQ28Hzj7rUfAE1pFtpkyG6M6QbWSiKKtibQ8yG54mBL19Y6gpYec38yunKJ1YQ_bl2DhTl5NylXOiopUovkRNo2QiKpTB0uJaOuvd0Bh1NNzFYFY9XjOjt05z5XU8lQMxijEbnFbImAR2gaEqFdMlDRKQ8mJOBv41Nn0Y5PQuEbMu-I8A2k-OePj3HTnN1oHfJCuFKKSgwhWgrZfbY91bKaLHaUzNXYZfWyeO2hU0R9dNpGK7LWk25qaAEFzjA_cOAkhqjkMbusHNJuHx2Ya1apN0fz31chMCRD-XZkEkwsUpYpyvd1wHHkaQPEAnwLuGlosJ47TDcapAHOeJAfx9dLVi9Hh0ljOhzHzizRWpdpMHdKMqHKJo4ztyWatDaaYOl- -q9ZSG4NsZ2HuQ0KHVMbPZIgx7v9Gg3jz5lh-HdK2u92oihE52ZX7VGH0T1VlB19qncmFEytwkKzSh1DmjJTfgwJ-GmqciGmK-jmdYJBBzylBqPuah4hCtTRfZhkrj_RlClORkvQoWAP08MwBimOdWOeSY9ZCPfLUxw64rfuWfY1m0VmjSLpJqYxsOiftfjL7xnxJF6ORDDqrL3GTq9Sj_s6BMBCMjo6zCMtU8jR9bhPsgFfDRYbrEQiMTJRtXzw_4_7jWxfiNZAAEp-TLsMJAs1YRpRfHvxXcSQ7wQ0ZvLKnZ4_EKz-J_PQGGDC9O76xGpF-8mimxH4wd3_tFOBv3a3IrqPtqFs7Ocdp6DBolQ1knmyehvuvgwP7of7jSp3esDxbzpNzXUQRBh1Zu-NTmPTYtq9o9bX6ypsmRGYsn8QZGQqKRI_FJgBgCR7APrXKojXNrrXfbSNLCcR4ht1eZwbUxzfjiBS6lSDLwLpQJz_rAPlrNWX7qGXMUwwkQ7mWU8-JRiyLdANZvZLDbzuG7OMWawWksJttmcbz-PuUVwrS-RdgEEbSjYmIvINLK4V0_a1_pbzHLyGv2H9dMMeTJYnb4kg1LL3HJiAbil9VYjgWg6a2xl50zRppihmRuswiueBD8mNkhFUPRvR4izm5vl-eBaqkNO9mnjkEinr-AiZzPbytn0vsfVtJV24a-Sk0ZSERa-CiMeQilaF]--></g></svg>