<svg xmlns="http://www.w3.org/2000/svg" xmlns:xlink="http://www.w3.org/1999/xlink" contentStyleType="text/css" height="791px" preserveAspectRatio="none" style="width:1158px;height:791px;background:#FFFFFF;" version="1.1" viewBox="0 0 1158 791" width="1158px" zoomAndPan="magnify"><title>USEI06 - Query by Time-Zone Group (SD)</title><defs/><g><text fill="#000000" font-family="sans-serif" font-size="14" font-weight="bold" lengthAdjust="spacing" textLength="301.335" x="430.0974" y="28.5352">USEI06 - Query by Time-Zone Group (SD)</text><rect fill="#FFFFFF" height="394.0371" style="stroke:#181818;stroke-width:1.0;" width="10" x="28.2109" y="298.8398"/><rect fill="#FFFFFF" height="29.3105" style="stroke:#181818;stroke-width:1.0;" width="10" x="271.3491" y="328.1504"/><rect fill="#FFFFFF" height="29.3105" style="stroke:#181818;stroke-width:1.0;" width="10" x="271.3491" y="386.7715"/><rect fill="#FFFFFF" height="256.4844" style="stroke:#181818;stroke-width:1.0;" width="10" x="271.3491" y="445.3926"/><rect fill="#FFFFFF" height="34.3105" style="stroke:#181818;stroke-width:1.0;" width="10" x="276.3491" y="658.5664"/><rect fill="#FFFFFF" height="169.8633" style="stroke:#181818;stroke-width:1.0;" width="10" x="510.1519" y="128.9766"/><rect fill="#FFFFFF" height="146.5527" style="stroke:#181818;stroke-width:1.0;" width="10" x="510.1519" y="474.7031"/><rect fill="#FFFFFF" height="29.3105" style="stroke:#181818;stroke-width:1.0;" width="10" x="689.8052" y="150.2871"/><rect fill="#FFFFFF" height="89.9316" style="stroke:#181818;stroke-width:1.0;" width="10" x="845.1406" y="208.9082"/><rect fill="#FFFFFF" height="87.9316" style="stroke:#181818;stroke-width:1.0;" width="10" x="845.1406" y="504.0137"/><rect fill="#FFFFFF" height="29.3105" style="stroke:#181818;stroke-width:1.0;" width="10" x="1102.3008" y="533.3242"/><rect fill="none" height="46.6211" style="stroke:#000000;stroke-width:1.5;" width="391.1221" x="761.4077" y="223.9082"/><line style="stroke:#181818;stroke-width:0.5;stroke-dasharray:5.0,5.0;" x1="33" x2="33" y1="118.9766" y2="710.877"/><line style="stroke:#181818;stroke-width:0.5;stroke-dasharray:5.0,5.0;" x1="275.7393" x2="275.7393" y1="118.9766" y2="710.877"/><line style="stroke:#181818;stroke-width:0.5;stroke-dasharray:5.0,5.0;" x1="514.3281" x2="514.3281" y1="118.9766" y2="710.877"/><line style="stroke:#181818;stroke-width:0.5;stroke-dasharray:5.0,5.0;" x1="694.2026" x2="694.2026" y1="118.9766" y2="710.877"/><line style="stroke:#181818;stroke-width:0.5;stroke-dasharray:5.0,5.0;" x1="849.4077" x2="849.4077" y1="118.9766" y2="710.877"/><line style="stroke:#181818;stroke-width:0.5;stroke-dasharray:5.0,5.0;" x1="1107.0718" x2="1107.0718" y1="118.9766" y2="710.877"/><text fill="#000000" font-family="sans-serif" font-size="14" lengthAdjust="spacing" textLength="50.4219" x="5" y="116.0234">Planner</text><ellipse cx="33.2109" cy="50.9883" fill="#E2E2F0" rx="8" ry="8" style="stroke:#181818;stroke-width:0.5;"/><path d="M33.2109,58.9883 L33.2109,85.9883 M20.2109,66.9883 L46.2109,66.9883 M33.2109,85.9883 L20.2109,100.9883 M33.2109,85.9883 L46.2109,100.9883 " fill="none" style="stroke:#181818;stroke-width:0.5;"/><text fill="#000000" font-family="sans-serif" font-size="14" lengthAdjust="spacing" textLength="50.4219" x="5" y="723.4121">Planner</text><ellipse cx="33.2109" cy="734.8652" fill="#E2E2F0" rx="8" ry="8" style="stroke:#181818;stroke-width:0.5;"/><path d="M33.2109,742.8652 L33.2109,769.8652 M20.2109,750.8652 L46.2109,750.8652 M33.2109,769.8652 L20.2109,784.8652 M33.2109,769.8652 L46.2109,784.8652 " fill="none" style="stroke:#181818;stroke-width:0.5;"/><rect fill="#E2E2F0" height="30.4883" rx="2.5" ry="2.5" style="stroke:#181818;stroke-width:0.5;" width="115.2197" x="218.7393" y="87.4883"/><text fill="#000000" font-family="sans-serif" font-size="14" lengthAdjust="spacing" textLength="101.2197" x="225.7393" y="108.0234">StationQueryUI</text><rect fill="#E2E2F0" height="30.4883" rx="2.5" ry="2.5" style="stroke:#181818;stroke-width:0.5;" width="115.2197" x="218.7393" y="709.877"/><text fill="#000000" font-family="sans-serif" font-size="14" lengthAdjust="spacing" textLength="101.2197" x="225.7393" y="730.4121">StationQueryUI</text><rect fill="#E2E2F0" height="30.4883" rx="2.5" ry="2.5" style="stroke:#181818;stroke-width:0.5;" width="169.6475" x="430.3281" y="87.4883"/><text fill="#000000" font-family="sans-serif" font-size="14" lengthAdjust="spacing" textLength="155.6475" x="437.3281" y="108.0234">StationQueryController</text><rect fill="#E2E2F0" height="30.4883" rx="2.5" ry="2.5" style="stroke:#181818;stroke-width:0.5;" width="169.6475" x="430.3281" y="709.877"/><text fill="#000000" font-family="sans-serif" font-size="14" lengthAdjust="spacing" textLength="155.6475" x="437.3281" y="730.4121">StationQueryController</text><rect fill="#E2E2F0" height="30.4883" rx="2.5" ry="2.5" style="stroke:#181818;stroke-width:0.5;" width="133.2051" x="628.2026" y="87.4883"/><text fill="#000000" font-family="sans-serif" font-size="14" lengthAdjust="spacing" textLength="119.2051" x="635.2026" y="108.0234">StationRepository</text><rect fill="#E2E2F0" height="30.4883" rx="2.5" ry="2.5" style="stroke:#181818;stroke-width:0.5;" width="133.2051" x="628.2026" y="709.877"/><text fill="#000000" font-family="sans-serif" font-size="14" lengthAdjust="spacing" textLength="119.2051" x="635.2026" y="730.4121">StationRepository</text><rect fill="#E2E2F0" height="30.4883" rx="2.5" ry="2.5" style="stroke:#181818;stroke-width:0.5;" width="157.4658" x="771.4077" y="87.4883"/><text fill="#000000" font-family="sans-serif" font-size="14" lengthAdjust="spacing" textLength="143.4658" x="778.4077" y="108.0234">StationIndexManager</text><rect fill="#E2E2F0" height="30.4883" rx="2.5" ry="2.5" style="stroke:#181818;stroke-width:0.5;" width="157.4658" x="771.4077" y="709.877"/><text fill="#000000" font-family="sans-serif" font-size="14" lengthAdjust="spacing" textLength="143.4658" x="778.4077" y="730.4121">StationIndexManager</text><rect fill="#E2E2F0" height="30.4883" rx="2.5" ry="2.5" style="stroke:#181818;stroke-width:0.5;" width="70.458" x="1072.0718" y="87.4883"/><text fill="#000000" font-family="sans-serif" font-size="14" lengthAdjust="spacing" textLength="56.458" x="1079.0718" y="108.0234">AVLTree</text><rect fill="#E2E2F0" height="30.4883" rx="2.5" ry="2.5" style="stroke:#181818;stroke-width:0.5;" width="70.458" x="1072.0718" y="709.877"/><text fill="#000000" font-family="sans-serif" font-size="14" lengthAdjust="spacing" textLength="56.458" x="1079.0718" y="730.4121">AVLTree</text><rect fill="#FFFFFF" height="394.0371" style="stroke:#181818;stroke-width:1.0;" width="10" x="28.2109" y="298.8398"/><rect fill="#FFFFFF" height="29.3105" style="stroke:#181818;stroke-width:1.0;" width="10" x="271.3491" y="328.1504"/><rect fill="#FFFFFF" height="29.3105" style="stroke:#181818;stroke-width:1.0;" width="10" x="271.3491" y="386.7715"/><rect fill="#FFFFFF" height="256.4844" style="stroke:#181818;stroke-width:1.0;" width="10" x="271.3491" y="445.3926"/><rect fill="#FFFFFF" height="34.3105" style="stroke:#181818;stroke-width:1.0;" width="10" x="276.3491" y="658.5664"/><rect fill="#FFFFFF" height="169.8633" style="stroke:#181818;stroke-width:1.0;" width="10" x="510.1519" y="128.9766"/><rect fill="#FFFFFF" height="146.5527" style="stroke:#181818;stroke-width:1.0;" width="10" x="510.1519" y="474.7031"/><rect fill="#FFFFFF" height="29.3105" style="stroke:#181818;stroke-width:1.0;" width="10" x="689.8052" y="150.2871"/><rect fill="#FFFFFF" height="89.9316" style="stroke:#181818;stroke-width:1.0;" width="10" x="845.1406" y="208.9082"/><rect fill="#FFFFFF" height="87.9316" style="stroke:#181818;stroke-width:1.0;" width="10" x="845.1406" y="504.0137"/><rect fill="#FFFFFF" height="29.3105" style="stroke:#181818;stroke-width:1.0;" width="10" x="1102.3008" y="533.3242"/><polygon fill="#181818" points="677.8052,146.2871,687.8052,150.2871,677.8052,154.2871,681.8052,150.2871" style="stroke:#181818;stroke-width:1.0;"/><line style="stroke:#181818;stroke-width:1.0;" x1="520.1519" x2="683.8052" y1="150.2871" y2="150.2871"/><text fill="#000000" font-family="sans-serif" font-size="13" lengthAdjust="spacing" textLength="140.0674" x="527.1519" y="145.5449">loadStations(filename)</text><polygon fill="#181818" points="531.1519,175.5977,521.1519,179.5977,531.1519,183.5977,527.1519,179.5977" style="stroke:#181818;stroke-width:1.0;"/><line style="stroke:#181818;stroke-width:1.0;stroke-dasharray:2.0,2.0;" x1="525.1519" x2="693.8052" y1="179.5977" y2="179.5977"/><text fill="#000000" font-family="sans-serif" font-size="13" lengthAdjust="spacing" textLength="145.6533" x="537.1519" y="174.8555">List&lt;EuropeanStation&gt;</text><polygon fill="#181818" points="833.1406,204.9082,843.1406,208.9082,833.1406,212.9082,837.1406,208.9082" style="stroke:#181818;stroke-width:1.0;"/><line style="stroke:#181818;stroke-width:1.0;" x1="520.1519" x2="839.1406" y1="208.9082" y2="208.9082"/><text fill="#000000" font-family="sans-serif" font-size="13" lengthAdjust="spacing" textLength="139.4517" x="527.1519" y="204.166">buildIndexes(stations)</text><path d="M761.4077,223.9082 L835.8545,223.9082 L835.8545,231.2188 L825.8545,241.2188 L761.4077,241.2188 L761.4077,223.9082 " fill="#EEEEEE" style="stroke:#000000;stroke-width:1.5;"/><rect fill="none" height="46.6211" style="stroke:#000000;stroke-width:1.5;" width="391.1221" x="761.4077" y="223.9082"/><text fill="#000000" font-family="sans-serif" font-size="13" font-weight="bold" lengthAdjust="spacing" textLength="29.4468" x="776.4077" y="237.4766">loop</text><text fill="#000000" font-family="sans-serif" font-size="11" font-weight="bold" lengthAdjust="spacing" textLength="97.4102" x="850.8545" y="236.543">[for each station]</text><polygon fill="#181818" points="1095.3008,258.5293,1105.3008,262.5293,1095.3008,266.5293,1099.3008,262.5293" style="stroke:#181818;stroke-width:1.0;"/><line style="stroke:#181818;stroke-width:1.0;" x1="855.1406" x2="1101.3008" y1="262.5293" y2="262.5293"/><text fill="#000000" font-family="sans-serif" font-size="13" lengthAdjust="spacing" textLength="87.6738" x="862.1406" y="257.7871">insert(station)</text><polygon fill="#181818" points="526.1519,294.8398,516.1519,298.8398,526.1519,302.8398,522.1519,298.8398" style="stroke:#181818;stroke-width:1.0;"/><line style="stroke:#181818;stroke-width:1.0;stroke-dasharray:2.0,2.0;" x1="520.1519" x2="849.1406" y1="298.8398" y2="298.8398"/><text fill="#000000" font-family="sans-serif" font-size="13" lengthAdjust="spacing" textLength="81.8213" x="532.1519" y="294.0977">Indexes built</text><polygon fill="#181818" points="259.3491,324.1504,269.3491,328.1504,259.3491,332.1504,263.3491,328.1504" style="stroke:#181818;stroke-width:1.0;"/><line style="stroke:#181818;stroke-width:1.0;" x1="38.2109" x2="265.3491" y1="328.1504" y2="328.1504"/><text fill="#000000" font-family="sans-serif" font-size="13" lengthAdjust="spacing" textLength="200.1162" x="45.2109" y="323.4082">1. requestStationQueryModule()</text><polygon fill="#181818" points="49.2109,353.4609,39.2109,357.4609,49.2109,361.4609,45.2109,357.4609" style="stroke:#181818;stroke-width:1.0;"/><line style="stroke:#181818;stroke-width:1.0;stroke-dasharray:2.0,2.0;" x1="43.2109" x2="275.3491" y1="357.4609" y2="357.4609"/><text fill="#000000" font-family="sans-serif" font-size="13" lengthAdjust="spacing" textLength="154.2988" x="55.2109" y="352.7188">Shows main query menu</text><polygon fill="#181818" points="259.3491,382.7715,269.3491,386.7715,259.3491,390.7715,263.3491,386.7715" style="stroke:#181818;stroke-width:1.0;"/><line style="stroke:#181818;stroke-width:1.0;" x1="38.2109" x2="265.3491" y1="386.7715" y2="386.7715"/><text fill="#000000" font-family="sans-serif" font-size="13" lengthAdjust="spacing" textLength="214.1382" x="45.2109" y="382.0293">2. selectQueryByTimezoneGroup()</text><polygon fill="#181818" points="49.2109,412.082,39.2109,416.082,49.2109,420.082,45.2109,416.082" style="stroke:#181818;stroke-width:1.0;"/><line style="stroke:#181818;stroke-width:1.0;stroke-dasharray:2.0,2.0;" x1="43.2109" x2="275.3491" y1="416.082" y2="416.082"/><text fill="#000000" font-family="sans-serif" font-size="13" lengthAdjust="spacing" textLength="193.1909" x="55.2109" y="411.3398">Shows prompt for group name</text><polygon fill="#181818" points="259.3491,441.3926,269.3491,445.3926,259.3491,449.3926,263.3491,445.3926" style="stroke:#181818;stroke-width:1.0;"/><line style="stroke:#181818;stroke-width:1.0;" x1="38.2109" x2="265.3491" y1="445.3926" y2="445.3926"/><text fill="#000000" font-family="sans-serif" font-size="13" lengthAdjust="spacing" textLength="203.563" x="45.2109" y="440.6504">3. submitTimezoneGroup("CET")</text><polygon fill="#181818" points="498.1519,470.7031,508.1519,474.7031,498.1519,478.7031,502.1519,474.7031" style="stroke:#181818;stroke-width:1.0;"/><line style="stroke:#181818;stroke-width:1.0;" x1="281.3491" x2="504.1519" y1="474.7031" y2="474.7031"/><text fill="#000000" font-family="sans-serif" font-size="13" lengthAdjust="spacing" textLength="209.8027" x="288.3491" y="469.9609">4. queryByTimezoneGroup("CET")</text><polygon fill="#181818" points="833.1406,500.0137,843.1406,504.0137,833.1406,508.0137,837.1406,504.0137" style="stroke:#181818;stroke-width:1.0;"/><line style="stroke:#181818;stroke-width:1.0;" x1="520.1519" x2="839.1406" y1="504.0137" y2="504.0137"/><text fill="#000000" font-family="sans-serif" font-size="13" lengthAdjust="spacing" textLength="215.2935" x="527.1519" y="499.2715">5. searchByTimezoneGroup("CET")</text><polygon fill="#181818" points="1090.3008,529.3242,1100.3008,533.3242,1090.3008,537.3242,1094.3008,533.3242" style="stroke:#181818;stroke-width:1.0;"/><line style="stroke:#181818;stroke-width:1.0;" x1="855.1406" x2="1096.3008" y1="533.3242" y2="533.3242"/><text fill="#000000" font-family="sans-serif" font-size="13" lengthAdjust="spacing" textLength="228.1602" x="862.1406" y="528.582">6. findRange("CET_AAA", "CET_ZZZ")</text><polygon fill="#181818" points="866.1406,558.6348,856.1406,562.6348,866.1406,566.6348,862.1406,562.6348" style="stroke:#181818;stroke-width:1.0;"/><line style="stroke:#181818;stroke-width:1.0;stroke-dasharray:2.0,2.0;" x1="860.1406" x2="1106.3008" y1="562.6348" y2="562.6348"/><text fill="#000000" font-family="sans-serif" font-size="13" lengthAdjust="spacing" textLength="145.6533" x="872.1406" y="557.8926">List&lt;EuropeanStation&gt;</text><polygon fill="#181818" points="531.1519,587.9453,521.1519,591.9453,531.1519,595.9453,527.1519,591.9453" style="stroke:#181818;stroke-width:1.0;"/><line style="stroke:#181818;stroke-width:1.0;stroke-dasharray:2.0,2.0;" x1="525.1519" x2="849.1406" y1="591.9453" y2="591.9453"/><text fill="#000000" font-family="sans-serif" font-size="13" lengthAdjust="spacing" textLength="145.6533" x="537.1519" y="587.2031">List&lt;EuropeanStation&gt;</text><polygon fill="#181818" points="292.3491,617.2559,282.3491,621.2559,292.3491,625.2559,288.3491,621.2559" style="stroke:#181818;stroke-width:1.0;"/><line style="stroke:#181818;stroke-width:1.0;stroke-dasharray:2.0,2.0;" x1="286.3491" x2="514.1519" y1="621.2559" y2="621.2559"/><text fill="#000000" font-family="sans-serif" font-size="13" lengthAdjust="spacing" textLength="145.6533" x="298.3491" y="616.5137">List&lt;EuropeanStation&gt;</text><line style="stroke:#181818;stroke-width:1.0;" x1="281.3491" x2="328.3491" y1="645.5664" y2="645.5664"/><line style="stroke:#181818;stroke-width:1.0;" x1="328.3491" x2="328.3491" y1="645.5664" y2="658.5664"/><line style="stroke:#181818;stroke-width:1.0;" x1="287.3491" x2="328.3491" y1="658.5664" y2="658.5664"/><polygon fill="#181818" points="297.3491,654.5664,287.3491,658.5664,297.3491,662.5664,293.3491,658.5664" style="stroke:#181818;stroke-width:1.0;"/><text fill="#000000" font-family="sans-serif" font-size="13" lengthAdjust="spacing" textLength="164.7534" x="293.3491" y="640.8242">7. displayResults(stations)</text><polygon fill="#181818" points="44.2109,688.877,34.2109,692.877,44.2109,696.877,40.2109,692.877" style="stroke:#181818;stroke-width:1.0;"/><line style="stroke:#181818;stroke-width:1.0;stroke-dasharray:2.0,2.0;" x1="38.2109" x2="270.3491" y1="692.877" y2="692.877"/><text fill="#000000" font-family="sans-serif" font-size="13" lengthAdjust="spacing" textLength="196.7266" x="50.2109" y="688.1348">Shows list of matching stations</text><!--SRC=[XLHjRzem4FwUNt7YIq4gTA-TXAPA6MLJ9Bfbl4mJNof33kBDiLFRQPV- -fsDITD21H-Y4D_TSyzppzboAn0Mit7ovXBwyBD2NSEgXZaliBzK4k6RLbK9tTbrBuhOsYeDdLGmAL5tW1b8ev9fozUyPD92PsQPvKhwEel4HooIrqD6IbgjX0Z5HlFfv6Zm54jbE87NFcuwJdySZKjaXlzkc6JRK36v_drx4tz_7Xp_cimreWzmxzFnE8hEO5ORYmLGAMs9yWLSCyjWebZ6vPOKu4Kf-8PZrgFWUSuDvAmiKHfGSetmaAC4coCKAgj8L3hdablE17_4p8l7xvd57KltWFwLfp84GI21Wkbkk4392kmzfNZ2xW5zod6vGvXmOp-FAwrAP38aNqKPFazgW88IGrXLN6HUA3HT4q1RM7l98g5K2HiQE9NC8KH6GByGuie6_OR4rQ2s-u8z7tS6tLWO5SwS7bQ18eqqM1g0EGTLS6inyp0hZVVSrhq89SdLO3I4Gy-UW6qJtNVS-kGrfZ7r-trO47XmzbUX7jotrZJIA7Ky5iaGtWv0urs5nhOzUkF7sMqfH8vU9BwnT0YpN3qOA1YNSESn2fHLknMAVe9uDm230jVMb_vIkprxf3NpMtO2ezIgAAsNQkkNqfdaLQJtX5IjIDxd49tHUDuvnDbh_66mO_6oivTfEtqFlFNHqMDwdP_ARqns1h4nLK5ZzQkpMrtuAnrXCajbq1-GpRnbe6kKTePnTzJoOgGgka38CiSSUJc03PVPbCaj-WPkupZkd8D_NIwNxNvQry2Su3oKHbjfkM_ChdDt3GH_WrhzeIcQA2JwIJKod5pD1kxGvITp6-bsweTndqpRJMmtQvVmQG0PDwLWzHHD9UpHk-282mK1WTeSA69UEB7rBut-0m00]--></g></svg>