<?xml version="1.0" encoding="us-ascii" standalone="no"?><svg xmlns="http://www.w3.org/2000/svg" xmlns:xlink="http://www.w3.org/1999/xlink" contentStyleType="text/css" height="835px" preserveAspectRatio="none" style="width:1101px;height:835px;background:#FFFFFF;" version="1.1" viewBox="0 0 1101 835" width="1101px" zoomAndPan="magnify"><defs/><g><text fill="#000000" font-family="sans-serif" font-size="14" font-weight="bold" lengthAdjust="spacing" textLength="281" x="411.5" y="30.1074">USEI06 - Query by Time-Zone Group (SD)</text><rect fill="#FFFFFF" height="419.7832" style="stroke:#181818;stroke-width:1.0;" width="10" x="27.5" y="314.9883"/><rect fill="#FFFFFF" height="31.291" style="stroke:#181818;stroke-width:1.0;" width="10" x="256.5" y="346.2793"/><rect fill="#FFFFFF" height="31.291" style="stroke:#181818;stroke-width:1.0;" width="10" x="256.5" y="408.8613"/><rect fill="#FFFFFF" height="272.3281" style="stroke:#181818;stroke-width:1.0;" width="10" x="256.5" y="471.4434"/><rect fill="#FFFFFF" height="36.291" style="stroke:#181818;stroke-width:1.0;" width="10" x="261.5" y="698.4805"/><rect fill="#FFFFFF" height="181.7461" style="stroke:#181818;stroke-width:1.0;" width="10" x="482.5" y="133.2422"/><rect fill="#FFFFFF" height="156.4551" style="stroke:#181818;stroke-width:1.0;" width="10" x="482.5" y="502.7344"/><rect fill="#FFFFFF" height="31.291" style="stroke:#181818;stroke-width:1.0;" width="10" x="649.5" y="156.5332"/><rect fill="#FFFFFF" height="95.873" style="stroke:#181818;stroke-width:1.0;" width="10" x="796" y="219.1152"/><rect fill="#FFFFFF" height="93.873" style="stroke:#181818;stroke-width:1.0;" width="10" x="796" y="534.0254"/><rect fill="#FFFFFF" height="31.291" style="stroke:#181818;stroke-width:1.0;" width="10" x="1045" y="565.3164"/><rect fill="none" height="50.582" style="stroke:#000000;stroke-width:1.5;" width="377.5" x="717.5" y="234.1152"/><line style="stroke:#181818;stroke-width:0.5;stroke-dasharray:5.0,5.0;" x1="32" x2="32" y1="123.2422" y2="752.7715"/><line style="stroke:#181818;stroke-width:0.5;stroke-dasharray:5.0,5.0;" x1="261" x2="261" y1="123.2422" y2="752.7715"/><line style="stroke:#181818;stroke-width:0.5;stroke-dasharray:5.0,5.0;" x1="487" x2="487" y1="123.2422" y2="752.7715"/><line style="stroke:#181818;stroke-width:0.5;stroke-dasharray:5.0,5.0;" x1="654.5" x2="654.5" y1="123.2422" y2="752.7715"/><line style="stroke:#181818;stroke-width:0.5;stroke-dasharray:5.0,5.0;" x1="800.5" x2="800.5" y1="123.2422" y2="752.7715"/><line style="stroke:#181818;stroke-width:0.5;stroke-dasharray:5.0,5.0;" x1="1050" x2="1050" y1="123.2422" y2="752.7715"/><text fill="#000000" font-family="sans-serif" font-size="14" lengthAdjust="spacing" textLength="49" x="5" y="119.7285">Planner</text><ellipse cx="32.5" cy="53.1211" fill="#E2E2F0" rx="8" ry="8" style="stroke:#181818;stroke-width:0.5;"/><path d="M32.5,61.1211 L32.5,88.1211 M19.5,69.1211 L45.5,69.1211 M32.5,88.1211 L19.5,103.1211 M32.5,88.1211 L45.5,103.1211 " fill="none" style="stroke:#181818;stroke-width:0.5;"/><text fill="#000000" font-family="sans-serif" font-size="14" lengthAdjust="spacing" textLength="49" x="5" y="766.8789">Planner</text><ellipse cx="32.5" cy="778.8926" fill="#E2E2F0" rx="8" ry="8" style="stroke:#181818;stroke-width:0.5;"/><path d="M32.5,786.8926 L32.5,813.8926 M19.5,794.8926 L45.5,794.8926 M32.5,813.8926 L19.5,828.8926 M32.5,813.8926 L45.5,828.8926 " fill="none" style="stroke:#181818;stroke-width:0.5;"/><rect fill="#E2E2F0" height="32.6211" rx="2.5" ry="2.5" style="stroke:#181818;stroke-width:0.5;" width="109" x="207" y="89.6211"/><text fill="#000000" font-family="sans-serif" font-size="14" lengthAdjust="spacing" textLength="95" x="214" y="111.7285">StationQueryUI</text><rect fill="#E2E2F0" height="32.6211" rx="2.5" ry="2.5" style="stroke:#181818;stroke-width:0.5;" width="109" x="207" y="751.7715"/><text fill="#000000" font-family="sans-serif" font-size="14" lengthAdjust="spacing" textLength="95" x="214" y="773.8789">StationQueryUI</text><rect fill="#E2E2F0" height="32.6211" rx="2.5" ry="2.5" style="stroke:#181818;stroke-width:0.5;" width="159" x="408" y="89.6211"/><text fill="#000000" font-family="sans-serif" font-size="14" lengthAdjust="spacing" textLength="145" x="415" y="111.7285">StationQueryController</text><rect fill="#E2E2F0" height="32.6211" rx="2.5" ry="2.5" style="stroke:#181818;stroke-width:0.5;" width="159" x="408" y="751.7715"/><text fill="#000000" font-family="sans-serif" font-size="14" lengthAdjust="spacing" textLength="145" x="415" y="773.8789">StationQueryController</text><rect fill="#E2E2F0" height="32.6211" rx="2.5" ry="2.5" style="stroke:#181818;stroke-width:0.5;" width="126" x="591.5" y="89.6211"/><text fill="#000000" font-family="sans-serif" font-size="14" lengthAdjust="spacing" textLength="112" x="598.5" y="111.7285">StationRepository</text><rect fill="#E2E2F0" height="32.6211" rx="2.5" ry="2.5" style="stroke:#181818;stroke-width:0.5;" width="126" x="591.5" y="751.7715"/><text fill="#000000" font-family="sans-serif" font-size="14" lengthAdjust="spacing" textLength="112" x="598.5" y="773.8789">StationRepository</text><rect fill="#E2E2F0" height="32.6211" rx="2.5" ry="2.5" style="stroke:#181818;stroke-width:0.5;" width="147" x="727.5" y="89.6211"/><text fill="#000000" font-family="sans-serif" font-size="14" lengthAdjust="spacing" textLength="133" x="734.5" y="111.7285">StationIndexManager</text><rect fill="#E2E2F0" height="32.6211" rx="2.5" ry="2.5" style="stroke:#181818;stroke-width:0.5;" width="147" x="727.5" y="751.7715"/><text fill="#000000" font-family="sans-serif" font-size="14" lengthAdjust="spacing" textLength="133" x="734.5" y="773.8789">StationIndexManager</text><rect fill="#E2E2F0" height="32.6211" rx="2.5" ry="2.5" style="stroke:#181818;stroke-width:0.5;" width="70" x="1015" y="89.6211"/><text fill="#000000" font-family="sans-serif" font-size="14" lengthAdjust="spacing" textLength="56" x="1022" y="111.7285">AVLTree</text><rect fill="#E2E2F0" height="32.6211" rx="2.5" ry="2.5" style="stroke:#181818;stroke-width:0.5;" width="70" x="1015" y="751.7715"/><text fill="#000000" font-family="sans-serif" font-size="14" lengthAdjust="spacing" textLength="56" x="1022" y="773.8789">AVLTree</text><rect fill="#FFFFFF" height="419.7832" style="stroke:#181818;stroke-width:1.0;" width="10" x="27.5" y="314.9883"/><rect fill="#FFFFFF" height="31.291" style="stroke:#181818;stroke-width:1.0;" width="10" x="256.5" y="346.2793"/><rect fill="#FFFFFF" height="31.291" style="stroke:#181818;stroke-width:1.0;" width="10" x="256.5" y="408.8613"/><rect fill="#FFFFFF" height="272.3281" style="stroke:#181818;stroke-width:1.0;" width="10" x="256.5" y="471.4434"/><rect fill="#FFFFFF" height="36.291" style="stroke:#181818;stroke-width:1.0;" width="10" x="261.5" y="698.4805"/><rect fill="#FFFFFF" height="181.7461" style="stroke:#181818;stroke-width:1.0;" width="10" x="482.5" y="133.2422"/><rect fill="#FFFFFF" height="156.4551" style="stroke:#181818;stroke-width:1.0;" width="10" x="482.5" y="502.7344"/><rect fill="#FFFFFF" height="31.291" style="stroke:#181818;stroke-width:1.0;" width="10" x="649.5" y="156.5332"/><rect fill="#FFFFFF" height="95.873" style="stroke:#181818;stroke-width:1.0;" width="10" x="796" y="219.1152"/><rect fill="#FFFFFF" height="93.873" style="stroke:#181818;stroke-width:1.0;" width="10" x="796" y="534.0254"/><rect fill="#FFFFFF" height="31.291" style="stroke:#181818;stroke-width:1.0;" width="10" x="1045" y="565.3164"/><polygon fill="#181818" points="637.5,152.5332,647.5,156.5332,637.5,160.5332,641.5,156.5332" style="stroke:#181818;stroke-width:1.0;"/><line style="stroke:#181818;stroke-width:1.0;" x1="492.5" x2="643.5" y1="156.5332" y2="156.5332"/><text fill="#000000" font-family="sans-serif" font-size="13" lengthAdjust="spacing" textLength="128" x="499.5" y="151.2705">loadStations(filename)</text><polygon fill="#181818" points="503.5,183.8242,493.5,187.8242,503.5,191.8242,499.5,187.8242" style="stroke:#181818;stroke-width:1.0;"/><line style="stroke:#181818;stroke-width:1.0;stroke-dasharray:2.0,2.0;" x1="497.5" x2="653.5" y1="187.8242" y2="187.8242"/><text fill="#000000" font-family="sans-serif" font-size="13" lengthAdjust="spacing" textLength="133" x="509.5" y="182.5615">List&lt;EuropeanStation&gt;</text><polygon fill="#181818" points="784,215.1152,794,219.1152,784,223.1152,788,219.1152" style="stroke:#181818;stroke-width:1.0;"/><line style="stroke:#181818;stroke-width:1.0;" x1="492.5" x2="790" y1="219.1152" y2="219.1152"/><text fill="#000000" font-family="sans-serif" font-size="13" lengthAdjust="spacing" textLength="126" x="499.5" y="213.8525">buildIndexes(stations)</text><path d="M717.5,234.1152 L790.5,234.1152 L790.5,243.4063 L780.5,253.4063 L717.5,253.4063 L717.5,234.1152 " fill="#EEEEEE" style="stroke:#000000;stroke-width:1.5;"/><rect fill="none" height="50.582" style="stroke:#000000;stroke-width:1.5;" width="377.5" x="717.5" y="234.1152"/><text fill="#000000" font-family="sans-serif" font-size="13" font-weight="bold" lengthAdjust="spacing" textLength="28" x="732.5" y="249.1436">loop</text><text fill="#000000" font-family="sans-serif" font-size="11" font-weight="bold" lengthAdjust="spacing" textLength="94" x="805.5" y="247.9854">[for each station]</text><polygon fill="#181818" points="1038,272.6973,1048,276.6973,1038,280.6973,1042,276.6973" style="stroke:#181818;stroke-width:1.0;"/><line style="stroke:#181818;stroke-width:1.0;" x1="806" x2="1044" y1="276.6973" y2="276.6973"/><text fill="#000000" font-family="sans-serif" font-size="13" lengthAdjust="spacing" textLength="79" x="813" y="271.4346">insert(station)</text><polygon fill="#181818" points="498.5,310.9883,488.5,314.9883,498.5,318.9883,494.5,314.9883" style="stroke:#181818;stroke-width:1.0;"/><line style="stroke:#181818;stroke-width:1.0;stroke-dasharray:2.0,2.0;" x1="492.5" x2="800" y1="314.9883" y2="314.9883"/><text fill="#000000" font-family="sans-serif" font-size="13" lengthAdjust="spacing" textLength="73" x="504.5" y="309.7256">Indexes built</text><polygon fill="#181818" points="244.5,342.2793,254.5,346.2793,244.5,350.2793,248.5,346.2793" style="stroke:#181818;stroke-width:1.0;"/><line style="stroke:#181818;stroke-width:1.0;" x1="37.5" x2="250.5" y1="346.2793" y2="346.2793"/><text fill="#000000" font-family="sans-serif" font-size="13" lengthAdjust="spacing" textLength="184" x="44.5" y="341.0166">1. requestStationQueryModule()</text><polygon fill="#181818" points="48.5,373.5703,38.5,377.5703,48.5,381.5703,44.5,377.5703" style="stroke:#181818;stroke-width:1.0;"/><line style="stroke:#181818;stroke-width:1.0;stroke-dasharray:2.0,2.0;" x1="42.5" x2="260.5" y1="377.5703" y2="377.5703"/><text fill="#000000" font-family="sans-serif" font-size="13" lengthAdjust="spacing" textLength="143" x="54.5" y="372.3076">Shows main query menu</text><polygon fill="#181818" points="244.5,404.8613,254.5,408.8613,244.5,412.8613,248.5,408.8613" style="stroke:#181818;stroke-width:1.0;"/><line style="stroke:#181818;stroke-width:1.0;" x1="37.5" x2="250.5" y1="408.8613" y2="408.8613"/><text fill="#000000" font-family="sans-serif" font-size="13" lengthAdjust="spacing" textLength="200" x="44.5" y="403.5986">2. selectQueryByTimezoneGroup()</text><polygon fill="#181818" points="48.5,436.1523,38.5,440.1523,48.5,444.1523,44.5,440.1523" style="stroke:#181818;stroke-width:1.0;"/><line style="stroke:#181818;stroke-width:1.0;stroke-dasharray:2.0,2.0;" x1="42.5" x2="260.5" y1="440.1523" y2="440.1523"/><text fill="#000000" font-family="sans-serif" font-size="13" lengthAdjust="spacing" textLength="173" x="54.5" y="434.8896">Shows prompt for group name</text><polygon fill="#181818" points="244.5,467.4434,254.5,471.4434,244.5,475.4434,248.5,471.4434" style="stroke:#181818;stroke-width:1.0;"/><line style="stroke:#181818;stroke-width:1.0;" x1="37.5" x2="250.5" y1="471.4434" y2="471.4434"/><text fill="#000000" font-family="sans-serif" font-size="13" lengthAdjust="spacing" textLength="188" x="44.5" y="466.1807">3. submitTimezoneGroup("CET")</text><polygon fill="#181818" points="470.5,498.7344,480.5,502.7344,470.5,506.7344,474.5,502.7344" style="stroke:#181818;stroke-width:1.0;"/><line style="stroke:#181818;stroke-width:1.0;" x1="266.5" x2="476.5" y1="502.7344" y2="502.7344"/><text fill="#000000" font-family="sans-serif" font-size="13" lengthAdjust="spacing" textLength="197" x="273.5" y="497.4717">4. queryByTimezoneGroup("CET")</text><polygon fill="#181818" points="784,530.0254,794,534.0254,784,538.0254,788,534.0254" style="stroke:#181818;stroke-width:1.0;"/><line style="stroke:#181818;stroke-width:1.0;" x1="492.5" x2="790" y1="534.0254" y2="534.0254"/><text fill="#000000" font-family="sans-serif" font-size="13" lengthAdjust="spacing" textLength="204" x="499.5" y="528.7627">5. searchByTimezoneGroup("CET")</text><polygon fill="#181818" points="1033,561.3164,1043,565.3164,1033,569.3164,1037,565.3164" style="stroke:#181818;stroke-width:1.0;"/><line style="stroke:#181818;stroke-width:1.0;" x1="806" x2="1039" y1="565.3164" y2="565.3164"/><text fill="#000000" font-family="sans-serif" font-size="13" lengthAdjust="spacing" textLength="220" x="813" y="560.0537">6. findRange("CET_AAA", "CET_ZZZ")</text><polygon fill="#181818" points="817,592.6074,807,596.6074,817,600.6074,813,596.6074" style="stroke:#181818;stroke-width:1.0;"/><line style="stroke:#181818;stroke-width:1.0;stroke-dasharray:2.0,2.0;" x1="811" x2="1049" y1="596.6074" y2="596.6074"/><text fill="#000000" font-family="sans-serif" font-size="13" lengthAdjust="spacing" textLength="133" x="823" y="591.3447">List&lt;EuropeanStation&gt;</text><polygon fill="#181818" points="503.5,623.8984,493.5,627.8984,503.5,631.8984,499.5,627.8984" style="stroke:#181818;stroke-width:1.0;"/><line style="stroke:#181818;stroke-width:1.0;stroke-dasharray:2.0,2.0;" x1="497.5" x2="800" y1="627.8984" y2="627.8984"/><text fill="#000000" font-family="sans-serif" font-size="13" lengthAdjust="spacing" textLength="133" x="509.5" y="622.6357">List&lt;EuropeanStation&gt;</text><polygon fill="#181818" points="277.5,655.1895,267.5,659.1895,277.5,663.1895,273.5,659.1895" style="stroke:#181818;stroke-width:1.0;"/><line style="stroke:#181818;stroke-width:1.0;stroke-dasharray:2.0,2.0;" x1="271.5" x2="486.5" y1="659.1895" y2="659.1895"/><text fill="#000000" font-family="sans-serif" font-size="13" lengthAdjust="spacing" textLength="133" x="283.5" y="653.9268">List&lt;EuropeanStation&gt;</text><line style="stroke:#181818;stroke-width:1.0;" x1="266.5" x2="313.5" y1="685.4805" y2="685.4805"/><line style="stroke:#181818;stroke-width:1.0;" x1="313.5" x2="313.5" y1="685.4805" y2="698.4805"/><line style="stroke:#181818;stroke-width:1.0;" x1="272.5" x2="313.5" y1="698.4805" y2="698.4805"/><polygon fill="#181818" points="282.5,694.4805,272.5,698.4805,282.5,702.4805,278.5,698.4805" style="stroke:#181818;stroke-width:1.0;"/><text fill="#000000" font-family="sans-serif" font-size="13" lengthAdjust="spacing" textLength="154" x="278.5" y="680.2178">7. displayResults(stations)</text><polygon fill="#181818" points="43.5,730.7715,33.5,734.7715,43.5,738.7715,39.5,734.7715" style="stroke:#181818;stroke-width:1.0;"/><line style="stroke:#181818;stroke-width:1.0;stroke-dasharray:2.0,2.0;" x1="37.5" x2="255.5" y1="734.7715" y2="734.7715"/><text fill="#000000" font-family="sans-serif" font-size="13" lengthAdjust="spacing" textLength="181" x="49.5" y="729.5088">Shows list of matching stations</text><!--SRC=[XLHjRzem4FwUNt7YIq4gTA-TXAPA6MLJ9Bfbl4mJNof33kBDiLFRQPV- -fsDITD21H-Y4D_TSyzppzboAn0Mit7ovXBwyBD2NSEgXZaliBzK4k6RLbK9tTbrBuhOsYeDdLGmAL5tW1b8ev9fozUyPD92PsQPvKhwEel4HooIrqD6IbgjX0Z5HlFfv6Zm54jbE87NFcuwJdySZKjaXlzkc6JRK36v_drx4tz_7Xp_cimreWzmxzFnE8hEO5ORYmLGAMs9yWLSCyjWebZ6vPOKu4Kf-8PZrgFWUSuDvAmiKHfGSetmaAC4coCKAgj8L3hdablE17_4p8l7xvd57KltWFwLfp84GI21Wkbkk4392kmzfNZ2xW5zod6vGvXmOp-FAwrAP38aNqKPFazgW88IGrXLN6HUA3HT4q1RM7l98g5K2HiQE9NC8KH6GByGuie6_OR4rQ2s-u8z7tS6tLWO5SwS7bQ18eqqM1g0EGTLS6inyp0hZVVSrhq89SdLO3I4Gy-UW6qJtNVS-kGrfZ7r-trO47XmzbUX7jotrZJIA7Ky5iaGtWv0urs5nhOzUkF7sMqfH8vU9BwnT0YpN3qOA1YNSESn2fHLknMAVe9uDm230jVMb_vIkprxf3NpMtO2ezIgAAsNQkkNqfdaLQJtX5IjIDxd49tHUDuvnDbh_66mO_6oivTfEtqFlFNHqMDwdP_ARqns1h4nLK5ZzQkpMrtuAnrXCajbq1-GpRnbe6kKTePnTzJoOgGgka38CiSSUJc03PVPbCaj-WPkupZkd8D_NIwNxNvQry2Su3oKHbjfkM_ChdDt3GH_WrhzeIcQA2JwIJKod5pD1kxGvITp6-bsweTndqpRJMmtQvVmQG0PDwLWzHHD9UpHk-282mK1WTeSA69UEB7rBut-0m00]--></g></svg>