<svg xmlns="http://www.w3.org/2000/svg" xmlns:xlink="http://www.w3.org/1999/xlink" contentStyleType="text/css" height="581px" preserveAspectRatio="none" style="width:457px;height:581px;background:#FFFFFF;" version="1.1" viewBox="0 0 457 581" width="457px" zoomAndPan="magnify"><defs/><g><rect fill="#FFFFFF" height="378.3262" style="stroke:#181818;stroke-width:1.0;" width="10" x="48.0054" y="112.7988"/><rect fill="#FFFFFF" height="399.6367" style="stroke:#181818;stroke-width:1.0;" width="10" x="318.6597" y="91.4883"/><rect fill="none" height="267.3945" style="stroke:#000000;stroke-width:1.5;" width="440.3516" x="10" y="215.7305"/><rect fill="none" height="162.5078" style="stroke:#000000;stroke-width:1.5;" width="420.3516" x="20" y="313.6172"/><line style="stroke:#181818;stroke-width:0.5;stroke-dasharray:5.0,5.0;" x1="53" x2="53" y1="81.4883" y2="500.125"/><line style="stroke:#181818;stroke-width:0.5;stroke-dasharray:5.0,5.0;" x1="323.6108" x2="323.6108" y1="81.4883" y2="500.125"/><text fill="#000000" font-family="sans-serif" font-size="14" lengthAdjust="spacing" textLength="40.0107" x="30" y="78.5352">Editor</text><ellipse cx="53.0054" cy="13.5" fill="#E2E2F0" rx="8" ry="8" style="stroke:#181818;stroke-width:0.5;"/><path d="M53.0054,21.5 L53.0054,48.5 M40.0054,29.5 L66.0054,29.5 M53.0054,48.5 L40.0054,63.5 M53.0054,48.5 L66.0054,63.5 " fill="none" style="stroke:#181818;stroke-width:0.5;"/><text fill="#000000" font-family="sans-serif" font-size="14" lengthAdjust="spacing" textLength="40.0107" x="30" y="512.6602">Editor</text><ellipse cx="53.0054" cy="524.1133" fill="#E2E2F0" rx="8" ry="8" style="stroke:#181818;stroke-width:0.5;"/><path d="M53.0054,532.1133 L53.0054,559.1133 M40.0054,540.1133 L66.0054,540.1133 M53.0054,559.1133 L40.0054,574.1133 M53.0054,559.1133 L66.0054,574.1133 " fill="none" style="stroke:#181818;stroke-width:0.5;"/><rect fill="#E2E2F0" height="30.4883" rx="2.5" ry="2.5" style="stroke:#181818;stroke-width:0.5;" width="62.0977" x="292.6108" y="50"/><text fill="#000000" font-family="sans-serif" font-size="14" lengthAdjust="spacing" textLength="48.0977" x="299.6108" y="70.5352">System</text><rect fill="#E2E2F0" height="30.4883" rx="2.5" ry="2.5" style="stroke:#181818;stroke-width:0.5;" width="62.0977" x="292.6108" y="499.125"/><text fill="#000000" font-family="sans-serif" font-size="14" lengthAdjust="spacing" textLength="48.0977" x="299.6108" y="519.6602">System</text><rect fill="#FFFFFF" height="378.3262" style="stroke:#181818;stroke-width:1.0;" width="10" x="48.0054" y="112.7988"/><rect fill="#FFFFFF" height="399.6367" style="stroke:#181818;stroke-width:1.0;" width="10" x="318.6597" y="91.4883"/><polygon fill="#181818" points="69.0054,108.7988,59.0054,112.7988,69.0054,116.7988,65.0054,112.7988" style="stroke:#181818;stroke-width:1.0;"/><line style="stroke:#181818;stroke-width:1.0;" x1="63.0054" x2="317.6597" y1="112.7988" y2="112.7988"/><text fill="#000000" font-family="sans-serif" font-size="13" font-weight="bold" lengthAdjust="spacing" textLength="8.5757" x="75.0054" y="108.0566">1</text><text fill="#000000" font-family="sans-serif" font-size="13" lengthAdjust="spacing" textLength="90.7334" x="87.5811" y="108.0566">displays menu</text><polygon fill="#181818" points="306.6597,138.1094,316.6597,142.1094,306.6597,146.1094,310.6597,142.1094" style="stroke:#181818;stroke-width:1.0;"/><line style="stroke:#181818;stroke-width:1.0;" x1="58.0054" x2="312.6597" y1="142.1094" y2="142.1094"/><text fill="#000000" font-family="sans-serif" font-size="13" font-weight="bold" lengthAdjust="spacing" textLength="8.5757" x="65.0054" y="137.3672">2</text><text fill="#000000" font-family="sans-serif" font-size="13" lengthAdjust="spacing" textLength="158.8691" x="77.5811" y="137.3672">Selects to create the map</text><polygon fill="#181818" points="69.0054,167.4199,59.0054,171.4199,69.0054,175.4199,65.0054,171.4199" style="stroke:#181818;stroke-width:1.0;"/><line style="stroke:#181818;stroke-width:1.0;stroke-dasharray:2.0,2.0;" x1="63.0054" x2="317.6597" y1="171.4199" y2="171.4199"/><text fill="#000000" font-family="sans-serif" font-size="13" font-weight="bold" lengthAdjust="spacing" textLength="8.5757" x="75.0054" y="166.6777">3</text><text fill="#000000" font-family="sans-serif" font-size="13" lengthAdjust="spacing" textLength="224.0786" x="87.5811" y="166.6777">displays form (name, width, height)</text><polygon fill="#181818" points="306.6597,196.7305,316.6597,200.7305,306.6597,204.7305,310.6597,200.7305" style="stroke:#181818;stroke-width:1.0;"/><line style="stroke:#181818;stroke-width:1.0;" x1="58.0054" x2="312.6597" y1="200.7305" y2="200.7305"/><text fill="#000000" font-family="sans-serif" font-size="13" font-weight="bold" lengthAdjust="spacing" textLength="8.5757" x="65.0054" y="195.9883">4</text><text fill="#000000" font-family="sans-serif" font-size="13" lengthAdjust="spacing" textLength="99.7026" x="77.5811" y="195.9883">fill out the form</text><path d="M10,215.7305 L72.1387,215.7305 L72.1387,223.041 L62.1387,233.041 L10,233.041 L10,215.7305 " fill="#EEEEEE" style="stroke:#000000;stroke-width:1.5;"/><rect fill="none" height="267.3945" style="stroke:#000000;stroke-width:1.5;" width="440.3516" x="10" y="215.7305"/><text fill="#000000" font-family="sans-serif" font-size="13" font-weight="bold" lengthAdjust="spacing" textLength="17.1387" x="25" y="229.2988">alt</text><text fill="#000000" font-family="sans-serif" font-size="11" font-weight="bold" lengthAdjust="spacing" textLength="80.8188" x="87.1387" y="228.3652">[invalid name]</text><polygon fill="#181818" points="69.0054,250.3516,59.0054,254.3516,69.0054,258.3516,65.0054,254.3516" style="stroke:#181818;stroke-width:1.0;"/><line style="stroke:#181818;stroke-width:1.0;" x1="63.0054" x2="317.6597" y1="254.3516" y2="254.3516"/><text fill="#000000" font-family="sans-serif" font-size="13" font-weight="bold" lengthAdjust="spacing" textLength="8.5757" x="75.0054" y="249.6094">5</text><text fill="#000000" font-family="sans-serif" font-size="13" lengthAdjust="spacing" textLength="123.8428" x="87.5811" y="249.6094">displays form again</text><polygon fill="#181818" points="306.6597,279.6621,316.6597,283.6621,306.6597,287.6621,310.6597,283.6621" style="stroke:#181818;stroke-width:1.0;"/><line style="stroke:#181818;stroke-width:1.0;" x1="58.0054" x2="312.6597" y1="283.6621" y2="283.6621"/><text fill="#000000" font-family="sans-serif" font-size="13" font-weight="bold" lengthAdjust="spacing" textLength="8.5757" x="65.0054" y="278.9199">6</text><text fill="#000000" font-family="sans-serif" font-size="13" lengthAdjust="spacing" textLength="99.7026" x="77.5811" y="278.9199">fill out the form</text><line style="stroke:#000000;stroke-width:1.0;stroke-dasharray:2.0,2.0;" x1="10" x2="450.3516" y1="292.6621" y2="292.6621"/><text fill="#000000" font-family="sans-serif" font-size="11" font-weight="bold" lengthAdjust="spacing" textLength="70.0176" x="15" y="303.2969">[valid name]</text><path d="M20,313.6172 L82.1387,313.6172 L82.1387,320.9277 L72.1387,330.9277 L20,330.9277 L20,313.6172 " fill="#EEEEEE" style="stroke:#000000;stroke-width:1.5;"/><rect fill="none" height="162.5078" style="stroke:#000000;stroke-width:1.5;" width="420.3516" x="20" y="313.6172"/><text fill="#000000" font-family="sans-serif" font-size="13" font-weight="bold" lengthAdjust="spacing" textLength="17.1387" x="35" y="327.1855">alt</text><text fill="#000000" font-family="sans-serif" font-size="11" font-weight="bold" lengthAdjust="spacing" textLength="115.4839" x="97.1387" y="326.252">[invalid dimensions]</text><polygon fill="#181818" points="69.0054,348.2383,59.0054,352.2383,69.0054,356.2383,65.0054,352.2383" style="stroke:#181818;stroke-width:1.0;"/><line style="stroke:#181818;stroke-width:1.0;" x1="63.0054" x2="317.6597" y1="352.2383" y2="352.2383"/><text fill="#000000" font-family="sans-serif" font-size="13" font-weight="bold" lengthAdjust="spacing" textLength="8.5757" x="75.0054" y="347.4961">7</text><text fill="#000000" font-family="sans-serif" font-size="13" lengthAdjust="spacing" textLength="123.8428" x="87.5811" y="347.4961">displays form again</text><polygon fill="#181818" points="306.6597,377.5488,316.6597,381.5488,306.6597,385.5488,310.6597,381.5488" style="stroke:#181818;stroke-width:1.0;"/><line style="stroke:#181818;stroke-width:1.0;" x1="58.0054" x2="312.6597" y1="381.5488" y2="381.5488"/><text fill="#000000" font-family="sans-serif" font-size="13" font-weight="bold" lengthAdjust="spacing" textLength="8.5757" x="65.0054" y="376.8066">8</text><text fill="#000000" font-family="sans-serif" font-size="13" lengthAdjust="spacing" textLength="99.7026" x="77.5811" y="376.8066">fill out the form</text><line style="stroke:#000000;stroke-width:1.0;stroke-dasharray:2.0,2.0;" x1="20" x2="440.3516" y1="390.5488" y2="390.5488"/><text fill="#000000" font-family="sans-serif" font-size="11" font-weight="bold" lengthAdjust="spacing" textLength="104.6826" x="25" y="401.1836">[valid dimensions]</text><line style="stroke:#181818;stroke-width:1.0;" x1="328.6597" x2="370.6597" y1="425.8145" y2="425.8145"/><line style="stroke:#181818;stroke-width:1.0;" x1="370.6597" x2="370.6597" y1="425.8145" y2="438.8145"/><line style="stroke:#181818;stroke-width:1.0;" x1="329.6597" x2="370.6597" y1="438.8145" y2="438.8145"/><polygon fill="#181818" points="339.6597,434.8145,329.6597,438.8145,339.6597,442.8145,335.6597,438.8145" style="stroke:#181818;stroke-width:1.0;"/><text fill="#000000" font-family="sans-serif" font-size="13" font-weight="bold" lengthAdjust="spacing" textLength="8.5757" x="335.6597" y="421.0723">9</text><text fill="#000000" font-family="sans-serif" font-size="13" lengthAdjust="spacing" textLength="70.1162" x="348.2354" y="421.0723">create map</text><polygon fill="#181818" points="69.0054,464.125,59.0054,468.125,69.0054,472.125,65.0054,468.125" style="stroke:#181818;stroke-width:1.0;"/><line style="stroke:#181818;stroke-width:1.0;" x1="63.0054" x2="317.6597" y1="468.125" y2="468.125"/><text fill="#000000" font-family="sans-serif" font-size="13" font-weight="bold" lengthAdjust="spacing" textLength="17.1514" x="75.0054" y="463.3828">10</text><text fill="#000000" font-family="sans-serif" font-size="13" lengthAdjust="spacing" textLength="121.291" x="96.1567" y="463.3828">return map created</text><!--SRC=[bL5BQWCn3Dtx58zPjP1U88lkUeASG1qh6O4_WosdvFOTUzmaX30q1YDXlOzaKT4OYl_cP0oD6XE6BojB740PQsfcIYgZp1GKm-6IbNqhhwbfJ3cJyj_B6l3nsHMmXvKyExfaU0xbHkWE7ROGEdMF0piUDKCZniGLgnF3qtnLVof_ZCdZBP3d7Nx4whJ3n7AQzFsPoL6SGopQj2lLa5D8E9CJYwfYi9ojUPeXdKX2W_xBf0BPPSQ3pxsvbUMdiiIGM-d5DbvgvQ6TJUUhL5zANSX6Vucrf51HdM3NuOCrzVu2]--></g></svg>
