<svg xmlns="http://www.w3.org/2000/svg" xmlns:xlink="http://www.w3.org/1999/xlink" contentStyleType="text/css" height="512px" preserveAspectRatio="none" style="width:889px;height:512px;background:#FFFFFF;" version="1.1" viewBox="0 0 889 512" width="889px" zoomAndPan="magnify"><title>USEI04 - Pick Path Sequencing</title><defs/><g><text fill="#000000" font-family="sans-serif" font-size="14" font-weight="bold" lengthAdjust="spacing" textLength="220.8623" x="335.4817" y="28.5352">USEI04 - Pick Path Sequencing</text><rect fill="#FFFFFF" height="292.4395" style="stroke:#181818;stroke-width:1.0;" width="10" x="38.3335" y="128.9766"/><rect fill="#FFFFFF" height="271.1289" style="stroke:#181818;stroke-width:1.0;" width="10" x="483.4468" y="150.2871"/><rect fill="none" height="249.1289" style="stroke:#000000;stroke-width:1.5;" width="872.8257" x="10" y="165.2871"/><rect fill="none" height="101.9316" style="stroke:#000000;stroke-width:1.5;" width="510.6992" x="362.1265" y="276.1738"/><line style="stroke:#181818;stroke-width:0.5;stroke-dasharray:5.0,5.0;" x1="43" x2="43" y1="118.9766" y2="431.416"/><line style="stroke:#181818;stroke-width:0.5;stroke-dasharray:5.0,5.0;" x1="488.1265" x2="488.1265" y1="118.9766" y2="431.416"/><text fill="#000000" font-family="sans-serif" font-size="14" lengthAdjust="spacing" textLength="40.667" x="20" y="116.0234">Picker</text><ellipse cx="43.3335" cy="50.9883" fill="#E2E2F0" rx="8" ry="8" style="stroke:#181818;stroke-width:0.5;"/><path d="M43.3335,58.9883 L43.3335,85.9883 M30.3335,66.9883 L56.3335,66.9883 M43.3335,85.9883 L30.3335,100.9883 M43.3335,85.9883 L56.3335,100.9883 " fill="none" style="stroke:#181818;stroke-width:0.5;"/><text fill="#000000" font-family="sans-serif" font-size="14" lengthAdjust="spacing" textLength="40.667" x="20" y="443.9512">Picker</text><ellipse cx="43.3335" cy="455.4043" fill="#E2E2F0" rx="8" ry="8" style="stroke:#181818;stroke-width:0.5;"/><path d="M43.3335,463.4043 L43.3335,490.4043 M30.3335,471.4043 L56.3335,471.4043 M43.3335,490.4043 L30.3335,505.4043 M43.3335,490.4043 L56.3335,505.4043 " fill="none" style="stroke:#181818;stroke-width:0.5;"/><rect fill="#E2E2F0" height="30.4883" rx="2.5" ry="2.5" style="stroke:#181818;stroke-width:0.5;" width="232.6406" x="372.1265" y="87.4883"/><text fill="#000000" font-family="sans-serif" font-size="14" lengthAdjust="spacing" textLength="218.6406" x="379.1265" y="108.0234">Warehouse Management System</text><rect fill="#E2E2F0" height="30.4883" rx="2.5" ry="2.5" style="stroke:#181818;stroke-width:0.5;" width="232.6406" x="372.1265" y="430.416"/><text fill="#000000" font-family="sans-serif" font-size="14" lengthAdjust="spacing" textLength="218.6406" x="379.1265" y="450.9512">Warehouse Management System</text><rect fill="#FFFFFF" height="292.4395" style="stroke:#181818;stroke-width:1.0;" width="10" x="38.3335" y="128.9766"/><rect fill="#FFFFFF" height="271.1289" style="stroke:#181818;stroke-width:1.0;" width="10" x="483.4468" y="150.2871"/><polygon fill="#181818" points="471.4468,146.2871,481.4468,150.2871,471.4468,154.2871,475.4468,150.2871" style="stroke:#181818;stroke-width:1.0;"/><line style="stroke:#181818;stroke-width:1.0;" x1="48.3335" x2="477.4468" y1="150.2871" y2="150.2871"/><text fill="#000000" font-family="sans-serif" font-size="13" font-weight="bold" lengthAdjust="spacing" textLength="8.5757" x="55.3335" y="145.5449">1</text><text fill="#000000" font-family="sans-serif" font-size="13" lengthAdjust="spacing" textLength="242.5249" x="67.9092" y="145.5449">Requests picking path for a given plan</text><path d="M10,165.2871 L72.1387,165.2871 L72.1387,172.5977 L62.1387,182.5977 L10,182.5977 L10,165.2871 " fill="#EEEEEE" style="stroke:#000000;stroke-width:1.5;"/><rect fill="none" height="249.1289" style="stroke:#000000;stroke-width:1.5;" width="872.8257" x="10" y="165.2871"/><text fill="#000000" font-family="sans-serif" font-size="13" font-weight="bold" lengthAdjust="spacing" textLength="17.1387" x="25" y="178.8555">alt</text><text fill="#000000" font-family="sans-serif" font-size="11" font-weight="bold" lengthAdjust="spacing" textLength="173.6313" x="87.1387" y="177.9219">[Empty or Invalid Picking Plan]</text><polygon fill="#181818" points="59.3335,199.9082,49.3335,203.9082,59.3335,207.9082,55.3335,203.9082" style="stroke:#181818;stroke-width:1.0;"/><line style="stroke:#181818;stroke-width:1.0;stroke-dasharray:2.0,2.0;" x1="53.3335" x2="482.4468" y1="203.9082" y2="203.9082"/><text fill="#000000" font-family="sans-serif" font-size="13" font-weight="bold" lengthAdjust="spacing" textLength="8.5757" x="65.3335" y="199.166">2</text><text fill="#000000" font-family="sans-serif" font-size="13" lengthAdjust="spacing" textLength="398.5376" x="77.9092" y="199.166">Displays error message (e.g., "Picking plan is empty or invalid")</text><line style="stroke:#000000;stroke-width:1.0;stroke-dasharray:2.0,2.0;" x1="10" x2="882.8257" y1="212.9082" y2="212.9082"/><text fill="#000000" font-family="sans-serif" font-size="11" font-weight="bold" lengthAdjust="spacing" textLength="109.2104" x="15" y="223.543">[Valid Picking Plan]</text><line style="stroke:#181818;stroke-width:1.0;" x1="493.4468" x2="535.4468" y1="248.1738" y2="248.1738"/><line style="stroke:#181818;stroke-width:1.0;" x1="535.4468" x2="535.4468" y1="248.1738" y2="261.1738"/><line style="stroke:#181818;stroke-width:1.0;" x1="494.4468" x2="535.4468" y1="261.1738" y2="261.1738"/><polygon fill="#181818" points="504.4468,257.1738,494.4468,261.1738,504.4468,265.1738,500.4468,261.1738" style="stroke:#181818;stroke-width:1.0;"/><text fill="#000000" font-family="sans-serif" font-size="13" font-weight="bold" lengthAdjust="spacing" textLength="8.5757" x="500.4468" y="243.4316">3</text><text fill="#000000" font-family="sans-serif" font-size="13" lengthAdjust="spacing" textLength="227.1255" x="513.0225" y="243.4316">Merge duplicate bay locations (AC1)</text><path d="M362.1265,276.1738 L686.6138,276.1738 L686.6138,283.4844 L676.6138,293.4844 L362.1265,293.4844 L362.1265,276.1738 " fill="#EEEEEE" style="stroke:#000000;stroke-width:1.5;"/><rect fill="none" height="101.9316" style="stroke:#000000;stroke-width:1.5;" width="510.6992" x="362.1265" y="276.1738"/><text fill="#000000" font-family="sans-serif" font-size="13" font-weight="bold" lengthAdjust="spacing" textLength="279.4873" x="377.1265" y="289.7422">Path Calculation for Both Strategies (AC2)</text><line style="stroke:#181818;stroke-width:1.0;" x1="493.4468" x2="535.4468" y1="314.7949" y2="314.7949"/><line style="stroke:#181818;stroke-width:1.0;" x1="535.4468" x2="535.4468" y1="314.7949" y2="327.7949"/><line style="stroke:#181818;stroke-width:1.0;" x1="494.4468" x2="535.4468" y1="327.7949" y2="327.7949"/><polygon fill="#181818" points="504.4468,323.7949,494.4468,327.7949,504.4468,331.7949,500.4468,327.7949" style="stroke:#181818;stroke-width:1.0;"/><text fill="#000000" font-family="sans-serif" font-size="13" font-weight="bold" lengthAdjust="spacing" textLength="8.5757" x="500.4468" y="310.0527">4</text><text fill="#000000" font-family="sans-serif" font-size="13" lengthAdjust="spacing" textLength="337.8032" x="513.0225" y="310.0527">Calculate path using Strategy A (Deterministic Sweep)</text><line style="stroke:#181818;stroke-width:1.0;" x1="493.4468" x2="535.4468" y1="357.1055" y2="357.1055"/><line style="stroke:#181818;stroke-width:1.0;" x1="535.4468" x2="535.4468" y1="357.1055" y2="370.1055"/><line style="stroke:#181818;stroke-width:1.0;" x1="494.4468" x2="535.4468" y1="370.1055" y2="370.1055"/><polygon fill="#181818" points="504.4468,366.1055,494.4468,370.1055,504.4468,374.1055,500.4468,370.1055" style="stroke:#181818;stroke-width:1.0;"/><text fill="#000000" font-family="sans-serif" font-size="13" font-weight="bold" lengthAdjust="spacing" textLength="8.5757" x="500.4468" y="352.3633">5</text><text fill="#000000" font-family="sans-serif" font-size="13" lengthAdjust="spacing" textLength="330.4146" x="513.0225" y="352.3633">Calculate path using Strategy B (Nearest-Neighbour)</text><polygon fill="#181818" points="59.3335,402.416,49.3335,406.416,59.3335,410.416,55.3335,406.416" style="stroke:#181818;stroke-width:1.0;"/><line style="stroke:#181818;stroke-width:1.0;stroke-dasharray:2.0,2.0;" x1="53.3335" x2="482.4468" y1="406.416" y2="406.416"/><text fill="#000000" font-family="sans-serif" font-size="13" font-weight="bold" lengthAdjust="spacing" textLength="8.5757" x="65.3335" y="401.6738">6</text><text fill="#000000" font-family="sans-serif" font-size="13" lengthAdjust="spacing" textLength="388.3115" x="77.9092" y="401.6738">Displays both optimized paths and their total distances (AC3)</text><!--SRC=[dL9DRnen4BtlhtZY4f12rAzJ3fK8oI478bIQvcns9xkZxDgkFGRHNz-n5mIfgXxA1QyzxsDcdh3qXEVDm-E7BvXZpVKRraOwREXd8bkpRQlA974s3LiAUgx51Kno8OK9JCHuhBm9mZLxOmMJ5nEeSoaILiQQbWRIsyqX2Wq5yxBQ52hU6Q4Jm_Y7-TVyV8jlsK6K2A_twWC- -tfLTOEMTsJXUsFFB8Np2jyxGYnAs9cU6tsA4BrawvESoGgs5pmCNWvGraTRwekRNB7E5T2V4cEkhaP_jxZdgEX318MWk85Yr1OnfPlsvdeSpKa1h5Kd0Hu59hEgebv7y-FlSbVgH2XOqyC7LojxVjQ6VCJMH6hWB1PrJLwChGdBm5hEvkprEC0L1RNL9DzpdGUqDGVqJe_iRCHqiVmuAvYZwhDQqia6bpp48NPkN-OcUuV1i4Lj-Zhr1GunyIqMu0WecLbU5EGztRaS90agtZ8LoK-Zv9zMJqWQbvnAoqVa0GjCxqbx7DXor91XioVo_yDqX-aJQJQZp9-8ssxhKXXvo3QNmxX8KI19mOuPUcLTotLkRZ0YkWgbIXeYdLT-FWRvdw7Pvg4uBppmBoN8BYECRJ811sKINNoZVURbbfbzdbNPNTNGkwnVV1vrVmC0]--></g></svg>