<?xml version="1.0" encoding="us-ascii" standalone="no"?><svg xmlns="http://www.w3.org/2000/svg" xmlns:xlink="http://www.w3.org/1999/xlink" contentStyleType="text/css" height="982px" preserveAspectRatio="none" style="width:1471px;height:982px;background:#FFFFFF;" version="1.1" viewBox="0 0 1471 982" width="1471px" zoomAndPan="magnify"><defs/><g><text fill="#000000" font-family="sans-serif" font-size="14" font-weight="bold" lengthAdjust="spacing" textLength="293" x="591.25" y="30.1074">USEI12 - Minimal Backbone Network (SSD)</text><rect fill="#FFFFFF" height="724.5293" style="stroke:#181818;stroke-width:1.0;" width="10" x="603.5" y="156.5332"/><rect fill="#FFFFFF" height="119.873" style="stroke:#181818;stroke-width:1.0;" width="10" x="774.5" y="187.8242"/><rect fill="#FFFFFF" height="119.873" style="stroke:#181818;stroke-width:1.0;" width="10" x="932.5" y="338.9883"/><rect fill="#FFFFFF" height="119.873" style="stroke:#181818;stroke-width:1.0;" width="10" x="1106.5" y="490.1523"/><rect fill="#FFFFFF" height="119.873" style="stroke:#181818;stroke-width:1.0;" width="10" x="1282.5" y="641.3164"/><line style="stroke:#181818;stroke-width:0.5;stroke-dasharray:5.0,5.0;" x1="76" x2="76" y1="123.2422" y2="899.0625"/><line style="stroke:#181818;stroke-width:0.5;stroke-dasharray:5.0,5.0;" x1="608" x2="608" y1="123.2422" y2="899.0625"/><line style="stroke:#181818;stroke-width:0.5;stroke-dasharray:5.0,5.0;" x1="779" x2="779" y1="123.2422" y2="899.0625"/><line style="stroke:#181818;stroke-width:0.5;stroke-dasharray:5.0,5.0;" x1="937.5" x2="937.5" y1="123.2422" y2="899.0625"/><line style="stroke:#181818;stroke-width:0.5;stroke-dasharray:5.0,5.0;" x1="1111.5" x2="1111.5" y1="123.2422" y2="899.0625"/><line style="stroke:#181818;stroke-width:0.5;stroke-dasharray:5.0,5.0;" x1="1287" x2="1287" y1="123.2422" y2="899.0625"/><text fill="#000000" font-family="sans-serif" font-size="14" lengthAdjust="spacing" textLength="137" x="5" y="119.7285">Infrastructure Planner</text><ellipse cx="76.5" cy="53.1211" fill="#E3E3E3" rx="8" ry="8" style="stroke:#181818;stroke-width:0.5;"/><path d="M76.5,61.1211 L76.5,88.1211 M63.5,69.1211 L89.5,69.1211 M76.5,88.1211 L63.5,103.1211 M76.5,88.1211 L89.5,103.1211 " fill="none" style="stroke:#181818;stroke-width:0.5;"/><text fill="#000000" font-family="sans-serif" font-size="14" lengthAdjust="spacing" textLength="137" x="5" y="913.1699">Infrastructure Planner</text><ellipse cx="76.5" cy="925.1836" fill="#E3E3E3" rx="8" ry="8" style="stroke:#181818;stroke-width:0.5;"/><path d="M76.5,933.1836 L76.5,960.1836 M63.5,941.1836 L89.5,941.1836 M76.5,960.1836 L63.5,975.1836 M76.5,960.1836 L89.5,975.1836 " fill="none" style="stroke:#181818;stroke-width:0.5;"/><rect fill="#E3E3E3" height="32.6211" rx="2.5" ry="2.5" style="stroke:#181818;stroke-width:0.5;" width="189" x="514" y="89.6211"/><text fill="#000000" font-family="sans-serif" font-size="14" lengthAdjust="spacing" textLength="175" x="521" y="111.7285">BackboneNetworkController</text><rect fill="#E3E3E3" height="32.6211" rx="2.5" ry="2.5" style="stroke:#181818;stroke-width:0.5;" width="189" x="514" y="898.0625"/><text fill="#000000" font-family="sans-serif" font-size="14" lengthAdjust="spacing" textLength="175" x="521" y="920.1699">BackboneNetworkController</text><rect fill="#E3E3E3" height="32.6211" rx="2.5" ry="2.5" style="stroke:#181818;stroke-width:0.5;" width="133" x="713" y="89.6211"/><text fill="#000000" font-family="sans-serif" font-size="14" lengthAdjust="spacing" textLength="119" x="720" y="111.7285">RailNetworkLoader</text><rect fill="#E3E3E3" height="32.6211" rx="2.5" ry="2.5" style="stroke:#181818;stroke-width:0.5;" width="133" x="713" y="898.0625"/><text fill="#000000" font-family="sans-serif" font-size="14" lengthAdjust="spacing" textLength="119" x="720" y="920.1699">RailNetworkLoader</text><rect fill="#E3E3E3" height="32.6211" rx="2.5" ry="2.5" style="stroke:#181818;stroke-width:0.5;" width="102" x="886.5" y="89.6211"/><text fill="#000000" font-family="sans-serif" font-size="14" lengthAdjust="spacing" textLength="88" x="893.5" y="111.7285">MSTAlgorithm</text><rect fill="#E3E3E3" height="32.6211" rx="2.5" ry="2.5" style="stroke:#181818;stroke-width:0.5;" width="102" x="886.5" y="898.0625"/><text fill="#000000" font-family="sans-serif" font-size="14" lengthAdjust="spacing" textLength="88" x="893.5" y="920.1699">MSTAlgorithm</text><rect fill="#E3E3E3" height="32.6211" rx="2.5" ry="2.5" style="stroke:#181818;stroke-width:0.5;" width="132" x="1045.5" y="89.6211"/><text fill="#000000" font-family="sans-serif" font-size="14" lengthAdjust="spacing" textLength="118" x="1052.5" y="111.7285">DOTFileGenerator</text><rect fill="#E3E3E3" height="32.6211" rx="2.5" ry="2.5" style="stroke:#181818;stroke-width:0.5;" width="132" x="1045.5" y="898.0625"/><text fill="#000000" font-family="sans-serif" font-size="14" lengthAdjust="spacing" textLength="118" x="1052.5" y="920.1699">DOTFileGenerator</text><rect fill="#E3E3E3" height="32.6211" rx="2.5" ry="2.5" style="stroke:#181818;stroke-width:0.5;" width="127" x="1224" y="89.6211"/><text fill="#000000" font-family="sans-serif" font-size="14" lengthAdjust="spacing" textLength="113" x="1231" y="111.7285">GraphVizExecutor</text><rect fill="#E3E3E3" height="32.6211" rx="2.5" ry="2.5" style="stroke:#181818;stroke-width:0.5;" width="127" x="1224" y="898.0625"/><text fill="#000000" font-family="sans-serif" font-size="14" lengthAdjust="spacing" textLength="113" x="1231" y="920.1699">GraphVizExecutor</text><rect fill="#FFFFFF" height="724.5293" style="stroke:#181818;stroke-width:1.0;" width="10" x="603.5" y="156.5332"/><rect fill="#FFFFFF" height="119.873" style="stroke:#181818;stroke-width:1.0;" width="10" x="774.5" y="187.8242"/><rect fill="#FFFFFF" height="119.873" style="stroke:#181818;stroke-width:1.0;" width="10" x="932.5" y="338.9883"/><rect fill="#FFFFFF" height="119.873" style="stroke:#181818;stroke-width:1.0;" width="10" x="1106.5" y="490.1523"/><rect fill="#FFFFFF" height="119.873" style="stroke:#181818;stroke-width:1.0;" width="10" x="1282.5" y="641.3164"/><polygon fill="#181818" points="591.5,152.5332,601.5,156.5332,591.5,160.5332,595.5,156.5332" style="stroke:#181818;stroke-width:1.0;"/><line style="stroke:#181818;stroke-width:1.0;" x1="76.5" x2="597.5" y1="156.5332" y2="156.5332"/><text fill="#000000" font-family="sans-serif" font-size="13" font-weight="bold" lengthAdjust="spacing" textLength="7" x="83.5" y="151.2705">1</text><text fill="#000000" font-family="sans-serif" font-size="13" lengthAdjust="spacing" textLength="161" x="94.5" y="151.2705">computeMinimalBackbone()</text><polygon fill="#181818" points="762.5,183.8242,772.5,187.8242,762.5,191.8242,766.5,187.8242" style="stroke:#181818;stroke-width:1.0;"/><line style="stroke:#181818;stroke-width:1.0;" x1="613.5" x2="768.5" y1="187.8242" y2="187.8242"/><text fill="#000000" font-family="sans-serif" font-size="13" font-weight="bold" lengthAdjust="spacing" textLength="7" x="620.5" y="182.5615">2</text><text fill="#000000" font-family="sans-serif" font-size="13" lengthAdjust="spacing" textLength="128" x="631.5" y="182.5615">loadRailNetworkData()</text><line style="stroke:#181818;stroke-width:1.0;" x1="784.5" x2="826.5" y1="219.1152" y2="219.1152"/><line style="stroke:#181818;stroke-width:1.0;" x1="826.5" x2="826.5" y1="219.1152" y2="232.1152"/><line style="stroke:#181818;stroke-width:1.0;" x1="785.5" x2="826.5" y1="232.1152" y2="232.1152"/><polygon fill="#181818" points="795.5,228.1152,785.5,232.1152,795.5,236.1152,791.5,232.1152" style="stroke:#181818;stroke-width:1.0;"/><text fill="#000000" font-family="sans-serif" font-size="13" font-weight="bold" lengthAdjust="spacing" textLength="7" x="791.5" y="213.8525">3</text><text fill="#000000" font-family="sans-serif" font-size="13" lengthAdjust="spacing" textLength="101" x="802.5" y="213.8525">readStationData()</text><line style="stroke:#181818;stroke-width:1.0;" x1="784.5" x2="826.5" y1="263.4063" y2="263.4063"/><line style="stroke:#181818;stroke-width:1.0;" x1="826.5" x2="826.5" y1="263.4063" y2="276.4063"/><line style="stroke:#181818;stroke-width:1.0;" x1="785.5" x2="826.5" y1="276.4063" y2="276.4063"/><polygon fill="#181818" points="795.5,272.4063,785.5,276.4063,795.5,280.4063,791.5,276.4063" style="stroke:#181818;stroke-width:1.0;"/><text fill="#000000" font-family="sans-serif" font-size="13" font-weight="bold" lengthAdjust="spacing" textLength="7" x="791.5" y="258.1436">4</text><text fill="#000000" font-family="sans-serif" font-size="13" lengthAdjust="spacing" textLength="123" x="802.5" y="258.1436">validateConnections()</text><polygon fill="#181818" points="624.5,303.6973,614.5,307.6973,624.5,311.6973,620.5,307.6973" style="stroke:#181818;stroke-width:1.0;"/><line style="stroke:#181818;stroke-width:1.0;stroke-dasharray:2.0,2.0;" x1="618.5" x2="778.5" y1="307.6973" y2="307.6973"/><text fill="#000000" font-family="sans-serif" font-size="13" font-weight="bold" lengthAdjust="spacing" textLength="7" x="630.5" y="302.4346">5</text><text fill="#000000" font-family="sans-serif" font-size="13" lengthAdjust="spacing" textLength="104" x="641.5" y="302.4346">RailNetworkGraph</text><polygon fill="#181818" points="920.5,334.9883,930.5,338.9883,920.5,342.9883,924.5,338.9883" style="stroke:#181818;stroke-width:1.0;"/><line style="stroke:#181818;stroke-width:1.0;" x1="613.5" x2="926.5" y1="338.9883" y2="338.9883"/><text fill="#000000" font-family="sans-serif" font-size="13" font-weight="bold" lengthAdjust="spacing" textLength="7" x="620.5" y="333.7256">6</text><text fill="#000000" font-family="sans-serif" font-size="13" lengthAdjust="spacing" textLength="270" x="631.5" y="333.7256">computeMinimumSpanningTree(networkGraph)</text><line style="stroke:#181818;stroke-width:1.0;" x1="942.5" x2="984.5" y1="370.2793" y2="370.2793"/><line style="stroke:#181818;stroke-width:1.0;" x1="984.5" x2="984.5" y1="370.2793" y2="383.2793"/><line style="stroke:#181818;stroke-width:1.0;" x1="943.5" x2="984.5" y1="383.2793" y2="383.2793"/><polygon fill="#181818" points="953.5,379.2793,943.5,383.2793,953.5,387.2793,949.5,383.2793" style="stroke:#181818;stroke-width:1.0;"/><text fill="#000000" font-family="sans-serif" font-size="13" font-weight="bold" lengthAdjust="spacing" textLength="7" x="949.5" y="365.0166">7</text><text fill="#000000" font-family="sans-serif" font-size="13" lengthAdjust="spacing" textLength="121" x="960.5" y="365.0166">applyPrimAlgorithm()</text><line style="stroke:#181818;stroke-width:1.0;" x1="942.5" x2="984.5" y1="414.5703" y2="414.5703"/><line style="stroke:#181818;stroke-width:1.0;" x1="984.5" x2="984.5" y1="414.5703" y2="427.5703"/><line style="stroke:#181818;stroke-width:1.0;" x1="943.5" x2="984.5" y1="427.5703" y2="427.5703"/><polygon fill="#181818" points="953.5,423.5703,943.5,427.5703,953.5,431.5703,949.5,427.5703" style="stroke:#181818;stroke-width:1.0;"/><text fill="#000000" font-family="sans-serif" font-size="13" font-weight="bold" lengthAdjust="spacing" textLength="7" x="949.5" y="409.3076">8</text><text fill="#000000" font-family="sans-serif" font-size="13" lengthAdjust="spacing" textLength="139" x="960.5" y="409.3076">calculateTotalDistance()</text><polygon fill="#181818" points="624.5,454.8613,614.5,458.8613,624.5,462.8613,620.5,458.8613" style="stroke:#181818;stroke-width:1.0;"/><line style="stroke:#181818;stroke-width:1.0;stroke-dasharray:2.0,2.0;" x1="618.5" x2="936.5" y1="458.8613" y2="458.8613"/><text fill="#000000" font-family="sans-serif" font-size="13" font-weight="bold" lengthAdjust="spacing" textLength="7" x="630.5" y="453.5986">9</text><text fill="#000000" font-family="sans-serif" font-size="13" lengthAdjust="spacing" textLength="150" x="641.5" y="453.5986">MinimalBackboneNetwork</text><polygon fill="#181818" points="1094.5,486.1523,1104.5,490.1523,1094.5,494.1523,1098.5,490.1523" style="stroke:#181818;stroke-width:1.0;"/><line style="stroke:#181818;stroke-width:1.0;" x1="613.5" x2="1100.5" y1="490.1523" y2="490.1523"/><text fill="#000000" font-family="sans-serif" font-size="13" font-weight="bold" lengthAdjust="spacing" textLength="14" x="620.5" y="484.8896">10</text><text fill="#000000" font-family="sans-serif" font-size="13" lengthAdjust="spacing" textLength="208" x="638.5" y="484.8896">generateDOTFile(backboneNetwork)</text><line style="stroke:#181818;stroke-width:1.0;" x1="1116.5" x2="1158.5" y1="521.4434" y2="521.4434"/><line style="stroke:#181818;stroke-width:1.0;" x1="1158.5" x2="1158.5" y1="521.4434" y2="534.4434"/><line style="stroke:#181818;stroke-width:1.0;" x1="1117.5" x2="1158.5" y1="534.4434" y2="534.4434"/><polygon fill="#181818" points="1127.5,530.4434,1117.5,534.4434,1127.5,538.4434,1123.5,534.4434" style="stroke:#181818;stroke-width:1.0;"/><text fill="#000000" font-family="sans-serif" font-size="13" font-weight="bold" lengthAdjust="spacing" textLength="14" x="1123.5" y="516.1807">11</text><text fill="#000000" font-family="sans-serif" font-size="13" lengthAdjust="spacing" textLength="134" x="1141.5" y="516.1807">createNodeDefinitions()</text><line style="stroke:#181818;stroke-width:1.0;" x1="1116.5" x2="1158.5" y1="565.7344" y2="565.7344"/><line style="stroke:#181818;stroke-width:1.0;" x1="1158.5" x2="1158.5" y1="565.7344" y2="578.7344"/><line style="stroke:#181818;stroke-width:1.0;" x1="1117.5" x2="1158.5" y1="578.7344" y2="578.7344"/><polygon fill="#181818" points="1127.5,574.7344,1117.5,578.7344,1127.5,582.7344,1123.5,578.7344" style="stroke:#181818;stroke-width:1.0;"/><text fill="#000000" font-family="sans-serif" font-size="13" font-weight="bold" lengthAdjust="spacing" textLength="14" x="1123.5" y="560.4717">12</text><text fill="#000000" font-family="sans-serif" font-size="13" lengthAdjust="spacing" textLength="134" x="1141.5" y="560.4717">createEdgeDefinitions()</text><polygon fill="#181818" points="624.5,606.0254,614.5,610.0254,624.5,614.0254,620.5,610.0254" style="stroke:#181818;stroke-width:1.0;"/><line style="stroke:#181818;stroke-width:1.0;stroke-dasharray:2.0,2.0;" x1="618.5" x2="1110.5" y1="610.0254" y2="610.0254"/><text fill="#000000" font-family="sans-serif" font-size="13" font-weight="bold" lengthAdjust="spacing" textLength="14" x="630.5" y="604.7627">13</text><text fill="#000000" font-family="sans-serif" font-size="13" lengthAdjust="spacing" textLength="93" x="648.5" y="604.7627">DOT file content</text><polygon fill="#181818" points="1270.5,637.3164,1280.5,641.3164,1270.5,645.3164,1274.5,641.3164" style="stroke:#181818;stroke-width:1.0;"/><line style="stroke:#181818;stroke-width:1.0;" x1="613.5" x2="1276.5" y1="641.3164" y2="641.3164"/><text fill="#000000" font-family="sans-serif" font-size="13" font-weight="bold" lengthAdjust="spacing" textLength="14" x="620.5" y="636.0537">14</text><text fill="#000000" font-family="sans-serif" font-size="13" lengthAdjust="spacing" textLength="149" x="638.5" y="636.0537">generateSVG(dotContent)</text><line style="stroke:#181818;stroke-width:1.0;" x1="1292.5" x2="1334.5" y1="672.6074" y2="672.6074"/><line style="stroke:#181818;stroke-width:1.0;" x1="1334.5" x2="1334.5" y1="672.6074" y2="685.6074"/><line style="stroke:#181818;stroke-width:1.0;" x1="1293.5" x2="1334.5" y1="685.6074" y2="685.6074"/><polygon fill="#181818" points="1303.5,681.6074,1293.5,685.6074,1303.5,689.6074,1299.5,685.6074" style="stroke:#181818;stroke-width:1.0;"/><text fill="#000000" font-family="sans-serif" font-size="13" font-weight="bold" lengthAdjust="spacing" textLength="14" x="1299.5" y="667.3447">15</text><text fill="#000000" font-family="sans-serif" font-size="13" lengthAdjust="spacing" textLength="147" x="1317.5" y="667.3447">executeNeatoCommand()</text><line style="stroke:#181818;stroke-width:1.0;" x1="1292.5" x2="1334.5" y1="716.8984" y2="716.8984"/><line style="stroke:#181818;stroke-width:1.0;" x1="1334.5" x2="1334.5" y1="716.8984" y2="729.8984"/><line style="stroke:#181818;stroke-width:1.0;" x1="1293.5" x2="1334.5" y1="729.8984" y2="729.8984"/><polygon fill="#181818" points="1303.5,725.8984,1293.5,729.8984,1303.5,733.8984,1299.5,729.8984" style="stroke:#181818;stroke-width:1.0;"/><text fill="#000000" font-family="sans-serif" font-size="13" font-weight="bold" lengthAdjust="spacing" textLength="14" x="1299.5" y="711.6357">16</text><text fill="#000000" font-family="sans-serif" font-size="13" lengthAdjust="spacing" textLength="100" x="1317.5" y="711.6357">readSVGOutput()</text><polygon fill="#181818" points="624.5,757.1895,614.5,761.1895,624.5,765.1895,620.5,761.1895" style="stroke:#181818;stroke-width:1.0;"/><line style="stroke:#181818;stroke-width:1.0;stroke-dasharray:2.0,2.0;" x1="618.5" x2="1286.5" y1="761.1895" y2="761.1895"/><text fill="#000000" font-family="sans-serif" font-size="13" font-weight="bold" lengthAdjust="spacing" textLength="14" x="630.5" y="755.9268">17</text><text fill="#000000" font-family="sans-serif" font-size="13" lengthAdjust="spacing" textLength="48" x="648.5" y="755.9268">SVG file</text><line style="stroke:#181818;stroke-width:1.0;" x1="613.5" x2="655.5" y1="792.4805" y2="792.4805"/><line style="stroke:#181818;stroke-width:1.0;" x1="655.5" x2="655.5" y1="792.4805" y2="805.4805"/><line style="stroke:#181818;stroke-width:1.0;" x1="614.5" x2="655.5" y1="805.4805" y2="805.4805"/><polygon fill="#181818" points="624.5,801.4805,614.5,805.4805,624.5,809.4805,620.5,805.4805" style="stroke:#181818;stroke-width:1.0;"/><text fill="#000000" font-family="sans-serif" font-size="13" font-weight="bold" lengthAdjust="spacing" textLength="14" x="620.5" y="787.2178">18</text><text fill="#000000" font-family="sans-serif" font-size="13" lengthAdjust="spacing" textLength="126" x="638.5" y="787.2178">analyzePerformance()</text><line style="stroke:#181818;stroke-width:1.0;" x1="613.5" x2="655.5" y1="836.7715" y2="836.7715"/><line style="stroke:#181818;stroke-width:1.0;" x1="655.5" x2="655.5" y1="836.7715" y2="849.7715"/><line style="stroke:#181818;stroke-width:1.0;" x1="614.5" x2="655.5" y1="849.7715" y2="849.7715"/><polygon fill="#181818" points="624.5,845.7715,614.5,849.7715,624.5,853.7715,620.5,849.7715" style="stroke:#181818;stroke-width:1.0;"/><text fill="#000000" font-family="sans-serif" font-size="13" font-weight="bold" lengthAdjust="spacing" textLength="14" x="620.5" y="831.5088">19</text><text fill="#000000" font-family="sans-serif" font-size="13" lengthAdjust="spacing" textLength="127" x="638.5" y="831.5088">calculateTotalLength()</text><polygon fill="#181818" points="87.5,877.0625,77.5,881.0625,87.5,885.0625,83.5,881.0625" style="stroke:#181818;stroke-width:1.0;"/><line style="stroke:#181818;stroke-width:1.0;stroke-dasharray:2.0,2.0;" x1="81.5" x2="607.5" y1="881.0625" y2="881.0625"/><text fill="#000000" font-family="sans-serif" font-size="13" font-weight="bold" lengthAdjust="spacing" textLength="14" x="93.5" y="875.7998">20</text><text fill="#000000" font-family="sans-serif" font-size="13" lengthAdjust="spacing" textLength="485" x="111.5" y="875.7998">displayResults(backboneNetwork, totalLength, performanceMetrics, dotFile, svgFile)</text><!--SRC=[XLJBRjim4BphAnOvEO1pQ8y-56XZrmYG5o8tzmsrbebGf42jaZfVtvL4sHIZeBgONCyCPhXBicP3y2VVt7px3bTmfwskqC0lLAylpXBS4xyx_mgBF5zVPbdpgcsD7Yked7Ngu5r5mBwbw9zQk5XIpaTHzgGORMbYG7F0mhrhMy8UJKDPXYqxsrOlv6Mjs7cukB5xZuqeAsuzmQD1QybV03RZEXCnrahNQ1akHiF1xxMpx9qnWNBUJbbFg4rWt3ei0dfOJf5t-UwdAPtNVAXwa1IcYFN3xhSsj2NnXfAXHqbH2bFWrcDzUDOVcx-asX4u5hCin8Eh7v7j5IXNrIrJQD0OTt7P7PX-GwOu9CXttdPIGwOL6FcDKg-HKJGw_4adn8Vm3TjOmnCMEIDhPoF-FFODZIv4LTnO6GMXD3Fu96jai3-N7bzGwd0cfdHbUbHjbSkfMncsdITQs4WrYTqrTFGbwvCQrhKvFdfTdVeV1OY12ergZKZj7ADPwqO6Nr4AJg8c_Gofqy2TjvcqmtIje1ncZi88BbwcQadGC9EZgs4RoobfCDEzAsXDU_6NTkqhngOe_yD8maiPzc9OEcQPBAUnWzEPvEDrEMVFdxUBml7re9H4FjskqT1Oc6fHVoFbsEJ-NhkgGbj48UOv_MLutZwqB3CtYqv22xWFdOOzlm2VuyPyj6YE7_H8Vkzy5OtOrvJfPDwIBVaGI9-OGWqlq0eAtTG6Zq_Kj8QRTAoMm6Uv9THdGtV4Ngjc2TAGRY2NqBoLtU8oYm97xzK_]--></g></svg>