<?xml version="1.0" encoding="us-ascii" standalone="no"?><svg xmlns="http://www.w3.org/2000/svg" xmlns:xlink="http://www.w3.org/1999/xlink" contentStyleType="text/css" height="577px" preserveAspectRatio="none" style="width:931px;height:577px;background:#FFFFFF;" version="1.1" viewBox="0 0 931 577" width="931px" zoomAndPan="magnify"><defs/><g><!--class UnloadWagonUI--><g id="elem_UnloadWagonUI"><rect codeLine="7" fill="#F1F1F1" height="66.6211" id="UnloadWagonUI" rx="2.5" ry="2.5" style="stroke:#181818;stroke-width:0.5;" width="215" x="358.5" y="7"/><ellipse cx="411.25" cy="23" fill="#ADD1B2" rx="11" ry="11" style="stroke:#181818;stroke-width:1.0;"/><path d="M414.0156,18.875 Q414.1719,18.6563 414.3594,18.5469 Q414.5469,18.4375 414.7656,18.4375 Q415.1406,18.4375 415.375,18.7031 Q415.6094,18.9531 415.6094,19.5625 L415.6094,21.0156 Q415.6094,21.625 415.375,21.8906 Q415.1406,22.1563 414.7656,22.1563 Q414.4219,22.1563 414.2188,21.9531 Q414.0156,21.7656 413.9063,21.25 Q413.8594,20.8906 413.6719,20.7031 Q413.3438,20.3281 412.7344,20.1094 Q412.125,19.8906 411.5,19.8906 Q410.7344,19.8906 410.0938,20.2188 Q409.4688,20.5469 408.9688,21.2969 Q408.4844,22.0469 408.4844,23.0781 L408.4844,24.1719 Q408.4844,25.4063 409.375,26.2344 Q410.2656,27.0469 411.8594,27.0469 Q412.7969,27.0469 413.4531,26.7969 Q413.8438,26.6406 414.2656,26.2031 Q414.5313,25.9375 414.6719,25.8594 Q414.8281,25.7813 415.0313,25.7813 Q415.3594,25.7813 415.6094,26.0469 Q415.875,26.2969 415.875,26.6406 Q415.875,26.9844 415.5313,27.3906 Q415.0313,27.9688 414.2344,28.2969 Q413.1563,28.75 411.8594,28.75 Q410.3438,28.75 409.1406,28.125 Q408.1563,27.625 407.4688,26.5625 Q406.7813,25.4844 406.7813,24.2031 L406.7813,23.0469 Q406.7813,21.7188 407.3906,20.5781 Q408.0156,19.4219 409.1094,18.8125 Q410.2031,18.1875 411.4375,18.1875 Q412.1719,18.1875 412.8125,18.3594 Q413.4688,18.5156 414.0156,18.875 Z " fill="#000000"/><text fill="#000000" font-family="sans-serif" font-size="14" lengthAdjust="spacing" textLength="101" x="431.75" y="28.7969">UnloadWagonUI</text><line style="stroke:#181818;stroke-width:0.5;" x1="359.5" x2="572.5" y1="39" y2="39"/><line style="stroke:#181818;stroke-width:0.5;" x1="359.5" x2="572.5" y1="47" y2="47"/><text fill="#000000" font-family="sans-serif" font-size="14" lengthAdjust="spacing" textLength="203" x="364.5" y="66.1074">+unloadWagon(wagonId: String)</text></g><!--class WagonForm--><g id="elem_WagonForm"><rect codeLine="11" fill="#F1F1F1" height="85.2422" id="WagonForm" rx="2.5" ry="2.5" style="stroke:#181818;stroke-width:0.5;" width="114" x="7" y="162.5"/><ellipse cx="23.8" cy="178.5" fill="#ADD1B2" rx="11" ry="11" style="stroke:#181818;stroke-width:1.0;"/><path d="M26.5656,174.375 Q26.7219,174.1563 26.9094,174.0469 Q27.0969,173.9375 27.3156,173.9375 Q27.6906,173.9375 27.925,174.2031 Q28.1594,174.4531 28.1594,175.0625 L28.1594,176.5156 Q28.1594,177.125 27.925,177.3906 Q27.6906,177.6563 27.3156,177.6563 Q26.9719,177.6563 26.7688,177.4531 Q26.5656,177.2656 26.4563,176.75 Q26.4094,176.3906 26.2219,176.2031 Q25.8938,175.8281 25.2844,175.6094 Q24.675,175.3906 24.05,175.3906 Q23.2844,175.3906 22.6438,175.7188 Q22.0188,176.0469 21.5188,176.7969 Q21.0344,177.5469 21.0344,178.5781 L21.0344,179.6719 Q21.0344,180.9063 21.925,181.7344 Q22.8156,182.5469 24.4094,182.5469 Q25.3469,182.5469 26.0031,182.2969 Q26.3938,182.1406 26.8156,181.7031 Q27.0813,181.4375 27.2219,181.3594 Q27.3781,181.2813 27.5813,181.2813 Q27.9094,181.2813 28.1594,181.5469 Q28.425,181.7969 28.425,182.1406 Q28.425,182.4844 28.0813,182.8906 Q27.5813,183.4688 26.7844,183.7969 Q25.7063,184.25 24.4094,184.25 Q22.8938,184.25 21.6906,183.625 Q20.7063,183.125 20.0188,182.0625 Q19.3313,180.9844 19.3313,179.7031 L19.3313,178.5469 Q19.3313,177.2188 19.9406,176.0781 Q20.5656,174.9219 21.6594,174.3125 Q22.7531,173.6875 23.9875,173.6875 Q24.7219,173.6875 25.3625,173.8594 Q26.0188,174.0156 26.5656,174.375 Z " fill="#000000"/><text fill="#000000" font-family="sans-serif" font-size="14" lengthAdjust="spacing" textLength="78" x="38.2" y="184.2969">WagonForm</text><line style="stroke:#181818;stroke-width:0.5;" x1="8" x2="120" y1="194.5" y2="194.5"/><text fill="#000000" font-family="sans-serif" font-size="14" lengthAdjust="spacing" textLength="102" x="13" y="213.6074">-wagonId: String</text><line style="stroke:#181818;stroke-width:0.5;" x1="8" x2="120" y1="221.1211" y2="221.1211"/><text fill="#000000" font-family="sans-serif" font-size="14" lengthAdjust="spacing" textLength="94" x="13" y="240.2285">+getWagonId()</text></g><!--class Wagon--><g id="elem_Wagon"><rect codeLine="16" fill="#F1F1F1" height="85.2422" id="Wagon" rx="2.5" ry="2.5" style="stroke:#181818;stroke-width:0.5;" width="157" x="730.5" y="410.5"/><ellipse cx="782.25" cy="426.5" fill="#ADD1B2" rx="11" ry="11" style="stroke:#181818;stroke-width:1.0;"/><path d="M785.0156,422.375 Q785.1719,422.1563 785.3594,422.0469 Q785.5469,421.9375 785.7656,421.9375 Q786.1406,421.9375 786.375,422.2031 Q786.6094,422.4531 786.6094,423.0625 L786.6094,424.5156 Q786.6094,425.125 786.375,425.3906 Q786.1406,425.6563 785.7656,425.6563 Q785.4219,425.6563 785.2188,425.4531 Q785.0156,425.2656 784.9063,424.75 Q784.8594,424.3906 784.6719,424.2031 Q784.3438,423.8281 783.7344,423.6094 Q783.125,423.3906 782.5,423.3906 Q781.7344,423.3906 781.0938,423.7188 Q780.4688,424.0469 779.9688,424.7969 Q779.4844,425.5469 779.4844,426.5781 L779.4844,427.6719 Q779.4844,428.9063 780.375,429.7344 Q781.2656,430.5469 782.8594,430.5469 Q783.7969,430.5469 784.4531,430.2969 Q784.8438,430.1406 785.2656,429.7031 Q785.5313,429.4375 785.6719,429.3594 Q785.8281,429.2813 786.0313,429.2813 Q786.3594,429.2813 786.6094,429.5469 Q786.875,429.7969 786.875,430.1406 Q786.875,430.4844 786.5313,430.8906 Q786.0313,431.4688 785.2344,431.7969 Q784.1563,432.25 782.8594,432.25 Q781.3438,432.25 780.1406,431.625 Q779.1563,431.125 778.4688,430.0625 Q777.7813,428.9844 777.7813,427.7031 L777.7813,426.5469 Q777.7813,425.2188 778.3906,424.0781 Q779.0156,422.9219 780.1094,422.3125 Q781.2031,421.6875 782.4375,421.6875 Q783.1719,421.6875 783.8125,421.8594 Q784.4688,422.0156 785.0156,422.375 Z " fill="#000000"/><text fill="#000000" font-family="sans-serif" font-size="14" lengthAdjust="spacing" textLength="45" x="802.75" y="432.2969">Wagon</text><line style="stroke:#181818;stroke-width:0.5;" x1="731.5" x2="886.5" y1="442.5" y2="442.5"/><text fill="#000000" font-family="sans-serif" font-size="14" lengthAdjust="spacing" textLength="102" x="736.5" y="461.6074">-wagonId: String</text><line style="stroke:#181818;stroke-width:0.5;" x1="731.5" x2="886.5" y1="469.1211" y2="469.1211"/><text fill="#000000" font-family="sans-serif" font-size="14" lengthAdjust="spacing" textLength="145" x="736.5" y="488.2285">+getBoxes(): List&lt;Box&gt;</text></g><!--class Inventory--><g id="elem_Inventory"><rect codeLine="21" fill="#F1F1F1" height="103.8633" id="Inventory" rx="2.5" ry="2.5" style="stroke:#181818;stroke-width:0.5;" width="217" x="156.5" y="153"/><ellipse cx="231.75" cy="169" fill="#ADD1B2" rx="11" ry="11" style="stroke:#181818;stroke-width:1.0;"/><path d="M234.5156,164.875 Q234.6719,164.6563 234.8594,164.5469 Q235.0469,164.4375 235.2656,164.4375 Q235.6406,164.4375 235.875,164.7031 Q236.1094,164.9531 236.1094,165.5625 L236.1094,167.0156 Q236.1094,167.625 235.875,167.8906 Q235.6406,168.1563 235.2656,168.1563 Q234.9219,168.1563 234.7188,167.9531 Q234.5156,167.7656 234.4063,167.25 Q234.3594,166.8906 234.1719,166.7031 Q233.8438,166.3281 233.2344,166.1094 Q232.625,165.8906 232,165.8906 Q231.2344,165.8906 230.5938,166.2188 Q229.9688,166.5469 229.4688,167.2969 Q228.9844,168.0469 228.9844,169.0781 L228.9844,170.1719 Q228.9844,171.4063 229.875,172.2344 Q230.7656,173.0469 232.3594,173.0469 Q233.2969,173.0469 233.9531,172.7969 Q234.3438,172.6406 234.7656,172.2031 Q235.0313,171.9375 235.1719,171.8594 Q235.3281,171.7813 235.5313,171.7813 Q235.8594,171.7813 236.1094,172.0469 Q236.375,172.2969 236.375,172.6406 Q236.375,172.9844 236.0313,173.3906 Q235.5313,173.9688 234.7344,174.2969 Q233.6563,174.75 232.3594,174.75 Q230.8438,174.75 229.6406,174.125 Q228.6563,173.625 227.9688,172.5625 Q227.2813,171.4844 227.2813,170.2031 L227.2813,169.0469 Q227.2813,167.7188 227.8906,166.5781 Q228.5156,165.4219 229.6094,164.8125 Q230.7031,164.1875 231.9375,164.1875 Q232.6719,164.1875 233.3125,164.3594 Q233.9688,164.5156 234.5156,164.875 Z " fill="#000000"/><text fill="#000000" font-family="sans-serif" font-size="14" lengthAdjust="spacing" textLength="58" x="252.25" y="174.7969">Inventory</text><line style="stroke:#181818;stroke-width:0.5;" x1="157.5" x2="372.5" y1="185" y2="185"/><line style="stroke:#181818;stroke-width:0.5;" x1="157.5" x2="372.5" y1="193" y2="193"/><text fill="#000000" font-family="sans-serif" font-size="14" lengthAdjust="spacing" textLength="167" x="162.5" y="212.1074">+insertBoxFEFO(box: Box)</text><text fill="#000000" font-family="sans-serif" font-size="14" lengthAdjust="spacing" textLength="205" x="162.5" y="230.7285">+unloadBoxes(boxes: List&lt;Box&gt;)</text><text fill="#000000" font-family="sans-serif" font-size="14" lengthAdjust="spacing" textLength="145" x="162.5" y="249.3496">+getBoxes(): List&lt;Box&gt;</text></g><!--class Box--><g id="elem_Box"><rect codeLine="27" fill="#F1F1F1" height="234.2109" id="Box" rx="2.5" ry="2.5" style="stroke:#181818;stroke-width:0.5;" width="204" x="163" y="336"/><ellipse cx="249.25" cy="352" fill="#ADD1B2" rx="11" ry="11" style="stroke:#181818;stroke-width:1.0;"/><path d="M252.0156,347.875 Q252.1719,347.6563 252.3594,347.5469 Q252.5469,347.4375 252.7656,347.4375 Q253.1406,347.4375 253.375,347.7031 Q253.6094,347.9531 253.6094,348.5625 L253.6094,350.0156 Q253.6094,350.625 253.375,350.8906 Q253.1406,351.1563 252.7656,351.1563 Q252.4219,351.1563 252.2188,350.9531 Q252.0156,350.7656 251.9063,350.25 Q251.8594,349.8906 251.6719,349.7031 Q251.3438,349.3281 250.7344,349.1094 Q250.125,348.8906 249.5,348.8906 Q248.7344,348.8906 248.0938,349.2188 Q247.4688,349.5469 246.9688,350.2969 Q246.4844,351.0469 246.4844,352.0781 L246.4844,353.1719 Q246.4844,354.4063 247.375,355.2344 Q248.2656,356.0469 249.8594,356.0469 Q250.7969,356.0469 251.4531,355.7969 Q251.8438,355.6406 252.2656,355.2031 Q252.5313,354.9375 252.6719,354.8594 Q252.8281,354.7813 253.0313,354.7813 Q253.3594,354.7813 253.6094,355.0469 Q253.875,355.2969 253.875,355.6406 Q253.875,355.9844 253.5313,356.3906 Q253.0313,356.9688 252.2344,357.2969 Q251.1563,357.75 249.8594,357.75 Q248.3438,357.75 247.1406,357.125 Q246.1563,356.625 245.4688,355.5625 Q244.7813,354.4844 244.7813,353.2031 L244.7813,352.0469 Q244.7813,350.7188 245.3906,349.5781 Q246.0156,348.4219 247.1094,347.8125 Q248.2031,347.1875 249.4375,347.1875 Q250.1719,347.1875 250.8125,347.3594 Q251.4688,347.5156 252.0156,347.875 Z " fill="#000000"/><text fill="#000000" font-family="sans-serif" font-size="14" lengthAdjust="spacing" textLength="23" x="269.75" y="357.7969">Box</text><line style="stroke:#181818;stroke-width:0.5;" x1="164" x2="366" y1="368" y2="368"/><text fill="#000000" font-family="sans-serif" font-size="14" lengthAdjust="spacing" textLength="83" x="169" y="387.1074">-boxId: String</text><text fill="#000000" font-family="sans-serif" font-size="14" lengthAdjust="spacing" textLength="72" x="169" y="405.7285">-sku: String</text><text fill="#000000" font-family="sans-serif" font-size="14" lengthAdjust="spacing" textLength="104" x="169" y="424.3496">-qtyAvailable: int</text><text fill="#000000" font-family="sans-serif" font-size="14" lengthAdjust="spacing" textLength="144" x="169" y="442.9707">-expiryDate: LocalDate</text><text fill="#000000" font-family="sans-serif" font-size="14" lengthAdjust="spacing" textLength="192" x="169" y="461.5918">-receivedDate: LocalDateTime</text><text fill="#000000" font-family="sans-serif" font-size="14" lengthAdjust="spacing" textLength="79" x="169" y="480.2129">-aisle: String</text><text fill="#000000" font-family="sans-serif" font-size="14" lengthAdjust="spacing" textLength="73" x="169" y="498.834">-bay: String</text><line style="stroke:#181818;stroke-width:0.5;" x1="164" x2="366" y1="506.3477" y2="506.3477"/><text fill="#000000" font-family="sans-serif" font-size="14" lengthAdjust="spacing" textLength="72" x="169" y="525.4551">+getBoxId()</text><text fill="#000000" font-family="sans-serif" font-size="14" lengthAdjust="spacing" textLength="62" x="169" y="544.0762">+getSku()</text><text fill="#000000" font-family="sans-serif" font-size="14" lengthAdjust="spacing" textLength="117" x="169" y="562.6973">+getQtyAvailable()</text></g><!--class Validator--><g id="elem_Validator"><rect codeLine="40" fill="#F1F1F1" height="66.6211" id="Validator" rx="2.5" ry="2.5" style="stroke:#181818;stroke-width:0.5;" width="250" x="409" y="171.5"/><ellipse cx="501.75" cy="187.5" fill="#ADD1B2" rx="11" ry="11" style="stroke:#181818;stroke-width:1.0;"/><path d="M504.5156,183.375 Q504.6719,183.1563 504.8594,183.0469 Q505.0469,182.9375 505.2656,182.9375 Q505.6406,182.9375 505.875,183.2031 Q506.1094,183.4531 506.1094,184.0625 L506.1094,185.5156 Q506.1094,186.125 505.875,186.3906 Q505.6406,186.6563 505.2656,186.6563 Q504.9219,186.6563 504.7188,186.4531 Q504.5156,186.2656 504.4063,185.75 Q504.3594,185.3906 504.1719,185.2031 Q503.8438,184.8281 503.2344,184.6094 Q502.625,184.3906 502,184.3906 Q501.2344,184.3906 500.5938,184.7188 Q499.9688,185.0469 499.4688,185.7969 Q498.9844,186.5469 498.9844,187.5781 L498.9844,188.6719 Q498.9844,189.9063 499.875,190.7344 Q500.7656,191.5469 502.3594,191.5469 Q503.2969,191.5469 503.9531,191.2969 Q504.3438,191.1406 504.7656,190.7031 Q505.0313,190.4375 505.1719,190.3594 Q505.3281,190.2813 505.5313,190.2813 Q505.8594,190.2813 506.1094,190.5469 Q506.375,190.7969 506.375,191.1406 Q506.375,191.4844 506.0313,191.8906 Q505.5313,192.4688 504.7344,192.7969 Q503.6563,193.25 502.3594,193.25 Q500.8438,193.25 499.6406,192.625 Q498.6563,192.125 497.9688,191.0625 Q497.2813,189.9844 497.2813,188.7031 L497.2813,187.5469 Q497.2813,186.2188 497.8906,185.0781 Q498.5156,183.9219 499.6094,183.3125 Q500.7031,182.6875 501.9375,182.6875 Q502.6719,182.6875 503.3125,182.8594 Q503.9688,183.0156 504.5156,183.375 Z " fill="#000000"/><text fill="#000000" font-family="sans-serif" font-size="14" lengthAdjust="spacing" textLength="56" x="522.25" y="193.2969">Validator</text><line style="stroke:#181818;stroke-width:0.5;" x1="410" x2="658" y1="203.5" y2="203.5"/><line style="stroke:#181818;stroke-width:0.5;" x1="410" x2="658" y1="211.5" y2="211.5"/><text fill="#000000" font-family="sans-serif" font-size="14" lengthAdjust="spacing" textLength="238" x="415" y="230.6074">+validateWagonId(id: String): boolean</text></g><!--class WagonRepository--><g id="elem_WagonRepository"><rect codeLine="44" fill="#F1F1F1" height="66.6211" id="WagonRepository" rx="2.5" ry="2.5" style="stroke:#181818;stroke-width:0.5;" width="230" x="694" y="171.5"/><ellipse cx="748.25" cy="187.5" fill="#ADD1B2" rx="11" ry="11" style="stroke:#181818;stroke-width:1.0;"/><path d="M751.0156,183.375 Q751.1719,183.1563 751.3594,183.0469 Q751.5469,182.9375 751.7656,182.9375 Q752.1406,182.9375 752.375,183.2031 Q752.6094,183.4531 752.6094,184.0625 L752.6094,185.5156 Q752.6094,186.125 752.375,186.3906 Q752.1406,186.6563 751.7656,186.6563 Q751.4219,186.6563 751.2188,186.4531 Q751.0156,186.2656 750.9063,185.75 Q750.8594,185.3906 750.6719,185.2031 Q750.3438,184.8281 749.7344,184.6094 Q749.125,184.3906 748.5,184.3906 Q747.7344,184.3906 747.0938,184.7188 Q746.4688,185.0469 745.9688,185.7969 Q745.4844,186.5469 745.4844,187.5781 L745.4844,188.6719 Q745.4844,189.9063 746.375,190.7344 Q747.2656,191.5469 748.8594,191.5469 Q749.7969,191.5469 750.4531,191.2969 Q750.8438,191.1406 751.2656,190.7031 Q751.5313,190.4375 751.6719,190.3594 Q751.8281,190.2813 752.0313,190.2813 Q752.3594,190.2813 752.6094,190.5469 Q752.875,190.7969 752.875,191.1406 Q752.875,191.4844 752.5313,191.8906 Q752.0313,192.4688 751.2344,192.7969 Q750.1563,193.25 748.8594,193.25 Q747.3438,193.25 746.1406,192.625 Q745.1563,192.125 744.4688,191.0625 Q743.7813,189.9844 743.7813,188.7031 L743.7813,187.5469 Q743.7813,186.2188 744.3906,185.0781 Q745.0156,183.9219 746.1094,183.3125 Q747.2031,182.6875 748.4375,182.6875 Q749.1719,182.6875 749.8125,182.8594 Q750.4688,183.0156 751.0156,183.375 Z " fill="#000000"/><text fill="#000000" font-family="sans-serif" font-size="14" lengthAdjust="spacing" textLength="113" x="768.75" y="193.2969">WagonRepository</text><line style="stroke:#181818;stroke-width:0.5;" x1="695" x2="923" y1="203.5" y2="203.5"/><line style="stroke:#181818;stroke-width:0.5;" x1="695" x2="923" y1="211.5" y2="211.5"/><text fill="#000000" font-family="sans-serif" font-size="14" lengthAdjust="spacing" textLength="218" x="700" y="230.6074">+findById(wagonId: String): Wagon</text></g><!--link UnloadWagonUI to Inventory--><g id="link_UnloadWagonUI_Inventory"><path codeLine="48" d="M425.32,74.38 C397.45,96.92 364.5859,123.4879 332.8459,149.1479 " fill="none" id="UnloadWagonUI-to-Inventory" style="stroke:#181818;stroke-width:1.0;"/><polygon fill="#181818" points="328.18,152.92,337.6937,150.3724,332.0683,149.7765,332.6641,144.1512,328.18,152.92" style="stroke:#181818;stroke-width:1.0;"/><text fill="#000000" font-family="sans-serif" font-size="13" lengthAdjust="spacing" textLength="28" x="385" y="119.0283">uses</text></g><!--link UnloadWagonUI to WagonForm--><g id="link_UnloadWagonUI_WagonForm"><path codeLine="49" d="M370.54,74.05 C274.02,106.96 139,153 139,153 C139,153 136.4508,154.7351 126.1908,161.7151 " fill="none" id="UnloadWagonUI-to-WagonForm" style="stroke:#181818;stroke-width:1.0;"/><polygon fill="#181818" points="121.23,165.09,130.9212,163.3348,125.364,162.2776,126.4213,156.7204,121.23,165.09" style="stroke:#181818;stroke-width:1.0;"/><text fill="#000000" font-family="sans-serif" font-size="13" lengthAdjust="spacing" textLength="43" x="275" y="119.0283">creates</text></g><!--link UnloadWagonUI to Validator--><g id="link_UnloadWagonUI_Validator"><path codeLine="50" d="M479.76,74.38 C491.6,102.67 506.2632,137.7153 518.0632,165.9053 " fill="none" id="UnloadWagonUI-to-Validator" style="stroke:#181818;stroke-width:1.0;"/><polygon fill="#181818" points="520.38,171.44,520.5947,161.5935,518.4494,166.8278,513.2151,164.6825,520.38,171.44" style="stroke:#181818;stroke-width:1.0;"/><text fill="#000000" font-family="sans-serif" font-size="13" lengthAdjust="spacing" textLength="50" x="501" y="119.0283">validates</text></g><!--link UnloadWagonUI to WagonRepository--><g id="link_UnloadWagonUI_WagonRepository"><path codeLine="51" d="M535,74.19 C594.67,102.46 675.0577,140.5412 734.6877,168.7912 " fill="none" id="UnloadWagonUI-to-WagonRepository" style="stroke:#181818;stroke-width:1.0;"/><polygon fill="#181818" points="740.11,171.36,733.6891,163.8919,735.5914,169.2193,730.264,171.1216,740.11,171.36" style="stroke:#181818;stroke-width:1.0;"/><text fill="#000000" font-family="sans-serif" font-size="13" lengthAdjust="spacing" textLength="89" x="639" y="119.0283">retrieves wagon</text></g><!--link WagonRepository to Wagon--><g id="link_WagonRepository_Wagon"><path codeLine="52" d="M809,238.67 C809,282.84 809,355.66 809,404.14 " fill="none" id="WagonRepository-to-Wagon" style="stroke:#181818;stroke-width:1.0;"/><polygon fill="#181818" points="809,410.14,813,401.14,809,405.14,805,401.14,809,410.14" style="stroke:#181818;stroke-width:1.0;"/><text fill="#000000" font-family="sans-serif" font-size="13" lengthAdjust="spacing" textLength="40" x="810" y="302.0283">returns</text></g><!--link Inventory to Box--><g id="link_Inventory_Box"><path codeLine="53" d="M265,257.27 C265,280.22 265,302.3 265,329.91 " fill="none" id="Inventory-to-Box" style="stroke:#181818;stroke-width:1.0;"/><polygon fill="#181818" points="265,335.91,269,326.91,265,330.91,261,326.91,265,335.91" style="stroke:#181818;stroke-width:1.0;"/><text fill="#000000" font-family="sans-serif" font-size="13" lengthAdjust="spacing" textLength="36" x="266" y="302.0283">stores</text></g><!--SRC=[ZLDDQ-Cm4BtxLymneGJsB9P2IpSGA2pRzECyjgVk44NoQcGtRjd_NiaYaUjsIoz6RzwyqTFCM7PiMdIuXnQh7JQqzOCcS5HvD8scGau9yeIrVMRJm2DgcJAQ3VcX9MYj7YAOS9L6aGll7PUTfqrbpPPV27uKnSZ0dT4MwmTihBdRm6i1SDRbqE8vVZUrWcseO9fbyUye7FcrTVjHj9ebnZeD-OSKNSnrNsakxO5aiLHmpU9_1dIUnHlJa_7M3Saf6o4N1UjVwz-BqXuK1B3CZqYrolYTr5j-uwQ0aiaWVcTn9Rjk2l_wuQ97rbXgKi36no0TMdR35VeGkhOLwdYCH1WiSK_rZBhb_KWZIwoIgvSuV6pFsD24jhlkTFupSJBj-3rghZ5qBJMjJv2Ei-4yNGMbjPhGpCPrGwqLpdr_P5DV3a4xNm-LygFy_MAjLkUJuIdeXEIJbBnK2Yf7mULdMVb12ewl-M-rYNSL_glWateI69qNyuoJAkLspaYHRKSsxeK22JXS-GO0]--></g></svg>