<?xml version="1.0" encoding="us-ascii" standalone="no"?><svg xmlns="http://www.w3.org/2000/svg" xmlns:xlink="http://www.w3.org/1999/xlink" contentStyleType="text/css" height="1683px" preserveAspectRatio="none" style="width:1665px;height:1683px;background:#FFFFFF;" version="1.1" viewBox="0 0 1665 1683" width="1665px" zoomAndPan="magnify"><defs/><g><rect fill="#FFFFFF" height="1489.1445" style="stroke:#181818;stroke-width:1.0;" width="10" x="53" y="93.6211"/><rect fill="#FFFFFF" height="1420.5625" style="stroke:#181818;stroke-width:1.0;" width="10" x="383" y="162.2031"/><rect fill="#FFFFFF" height="1357.9805" style="stroke:#181818;stroke-width:1.0;" width="10" x="623" y="193.4941"/><rect fill="#FFFFFF" height="138.1641" style="stroke:#181818;stroke-width:1.0;" width="10" x="813" y="325.6582"/><rect fill="#FFFFFF" height="31.291" style="stroke:#181818;stroke-width:1.0;" width="10" x="1022" y="1488.8926"/><rect fill="#FFFFFF" height="200.7461" style="stroke:#181818;stroke-width:1.0;" width="10" x="1300" y="706.1992"/><rect fill="none" height="324.25" style="stroke:#000000;stroke-width:1.5;" width="595" x="503" y="245.7852"/><rect fill="none" height="188.7461" style="stroke:#000000;stroke-width:1.5;" width="920.5" x="553.5" y="959.2363"/><rect fill="none" height="183.7461" style="stroke:#000000;stroke-width:1.5;" width="1178" x="470" y="1243.5645"/><rect fill="none" height="150.4551" style="stroke:#000000;stroke-width:1.5;" width="1158" x="480" y="1269.8555"/><line style="stroke:#181818;stroke-width:0.5;stroke-dasharray:5.0,5.0;" x1="58" x2="58" y1="83.6211" y2="1600.7656"/><line style="stroke:#181818;stroke-width:0.5;stroke-dasharray:5.0,5.0;" x1="387.5" x2="387.5" y1="83.6211" y2="1600.7656"/><line style="stroke:#181818;stroke-width:0.5;stroke-dasharray:5.0,5.0;" x1="627.5" x2="627.5" y1="83.6211" y2="1600.7656"/><line style="stroke:#181818;stroke-width:0.5;stroke-dasharray:5.0,5.0;" x1="818" x2="818" y1="83.6211" y2="1600.7656"/><line style="stroke:#181818;stroke-width:0.5;stroke-dasharray:5.0,5.0;" x1="1027" x2="1027" y1="83.6211" y2="1600.7656"/><line style="stroke:#181818;stroke-width:0.5;stroke-dasharray:5.0,5.0;" x1="1305" x2="1305" y1="83.6211" y2="1600.7656"/><line style="stroke:#181818;stroke-width:0.5;stroke-dasharray:5.0,5.0;" x1="1567" x2="1567" y1="83.6211" y2="1600.7656"/><text fill="#000000" font-family="sans-serif" font-size="14" lengthAdjust="spacing" textLength="100" x="5" y="80.1074">Traffic Manager</text><ellipse cx="58" cy="13.5" fill="#E2E2F0" rx="8" ry="8" style="stroke:#181818;stroke-width:0.5;"/><path d="M58,21.5 L58,48.5 M45,29.5 L71,29.5 M58,48.5 L45,63.5 M58,48.5 L71,63.5 " fill="none" style="stroke:#181818;stroke-width:0.5;"/><text fill="#000000" font-family="sans-serif" font-size="14" lengthAdjust="spacing" textLength="100" x="5" y="1614.873">Traffic Manager</text><ellipse cx="58" cy="1626.8867" fill="#E2E2F0" rx="8" ry="8" style="stroke:#181818;stroke-width:0.5;"/><path d="M58,1634.8867 L58,1661.8867 M45,1642.8867 L71,1642.8867 M58,1661.8867 L45,1676.8867 M58,1661.8867 L71,1676.8867 " fill="none" style="stroke:#181818;stroke-width:0.5;"/><rect fill="#E2E2F0" height="32.6211" rx="2.5" ry="2.5" style="stroke:#181818;stroke-width:0.5;" width="133" x="321.5" y="50"/><text fill="#000000" font-family="sans-serif" font-size="14" lengthAdjust="spacing" textLength="119" x="328.5" y="72.1074">Dispatcher Service</text><rect fill="#E2E2F0" height="32.6211" rx="2.5" ry="2.5" style="stroke:#181818;stroke-width:0.5;" width="133" x="321.5" y="1599.7656"/><text fill="#000000" font-family="sans-serif" font-size="14" lengthAdjust="spacing" textLength="119" x="328.5" y="1621.873">Dispatcher Service</text><rect fill="#E2E2F0" height="32.6211" rx="2.5" ry="2.5" style="stroke:#181818;stroke-width:0.5;" width="129" x="563.5" y="50"/><text fill="#000000" font-family="sans-serif" font-size="14" lengthAdjust="spacing" textLength="115" x="570.5" y="72.1074">Scheduler Service</text><rect fill="#E2E2F0" height="32.6211" rx="2.5" ry="2.5" style="stroke:#181818;stroke-width:0.5;" width="129" x="563.5" y="1599.7656"/><text fill="#000000" font-family="sans-serif" font-size="14" lengthAdjust="spacing" textLength="115" x="570.5" y="1621.873">Scheduler Service</text><rect fill="#E2E2F0" height="32.6211" rx="2.5" ry="2.5" style="stroke:#181818;stroke-width:0.5;" width="136" x="750" y="50"/><text fill="#000000" font-family="sans-serif" font-size="14" lengthAdjust="spacing" textLength="122" x="757" y="72.1074">AutoPathCalculator</text><rect fill="#E2E2F0" height="32.6211" rx="2.5" ry="2.5" style="stroke:#181818;stroke-width:0.5;" width="136" x="750" y="1599.7656"/><text fill="#000000" font-family="sans-serif" font-size="14" lengthAdjust="spacing" textLength="122" x="757" y="1621.873">AutoPathCalculator</text><rect fill="#E2E2F0" height="32.6211" rx="2.5" ry="2.5" style="stroke:#181818;stroke-width:0.5;" width="122" x="966" y="50"/><text fill="#000000" font-family="sans-serif" font-size="14" lengthAdjust="spacing" textLength="108" x="973" y="72.1074">PL/SQL Gateway</text><rect fill="#E2E2F0" height="32.6211" rx="2.5" ry="2.5" style="stroke:#181818;stroke-width:0.5;" width="122" x="966" y="1599.7656"/><text fill="#000000" font-family="sans-serif" font-size="14" lengthAdjust="spacing" textLength="108" x="973" y="1621.873">PL/SQL Gateway</text><rect fill="#E2E2F0" height="32.6211" rx="2.5" ry="2.5" style="stroke:#181818;stroke-width:0.5;" width="72" x="1269" y="50"/><text fill="#000000" font-family="sans-serif" font-size="14" lengthAdjust="spacing" textLength="58" x="1276" y="72.1074">TrainTrip</text><rect fill="#E2E2F0" height="32.6211" rx="2.5" ry="2.5" style="stroke:#181818;stroke-width:0.5;" width="72" x="1269" y="1599.7656"/><text fill="#000000" font-family="sans-serif" font-size="14" lengthAdjust="spacing" textLength="58" x="1276" y="1621.873">TrainTrip</text><rect fill="#E2E2F0" height="32.6211" rx="2.5" ry="2.5" style="stroke:#181818;stroke-width:0.5;" width="122" x="1506" y="50"/><text fill="#000000" font-family="sans-serif" font-size="14" lengthAdjust="spacing" textLength="108" x="1513" y="72.1074">Scheduler Result</text><rect fill="#E2E2F0" height="32.6211" rx="2.5" ry="2.5" style="stroke:#181818;stroke-width:0.5;" width="122" x="1506" y="1599.7656"/><text fill="#000000" font-family="sans-serif" font-size="14" lengthAdjust="spacing" textLength="108" x="1513" y="1621.873">Scheduler Result</text><rect fill="#FFFFFF" height="1489.1445" style="stroke:#181818;stroke-width:1.0;" width="10" x="53" y="93.6211"/><rect fill="#FFFFFF" height="1420.5625" style="stroke:#181818;stroke-width:1.0;" width="10" x="383" y="162.2031"/><rect fill="#FFFFFF" height="1357.9805" style="stroke:#181818;stroke-width:1.0;" width="10" x="623" y="193.4941"/><rect fill="#FFFFFF" height="138.1641" style="stroke:#181818;stroke-width:1.0;" width="10" x="813" y="325.6582"/><rect fill="#FFFFFF" height="31.291" style="stroke:#181818;stroke-width:1.0;" width="10" x="1022" y="1488.8926"/><rect fill="#FFFFFF" height="200.7461" style="stroke:#181818;stroke-width:1.0;" width="10" x="1300" y="706.1992"/><rect fill="#EEEEEE" height="3" style="stroke:#EEEEEE;stroke-width:1.0;" width="1658" x="0" y="115.2666"/><line style="stroke:#000000;stroke-width:1.0;" x1="0" x2="1658" y1="115.2666" y2="115.2666"/><line style="stroke:#000000;stroke-width:1.0;" x1="0" x2="1658" y1="118.2666" y2="118.2666"/><rect fill="#EEEEEE" height="25.291" style="stroke:#000000;stroke-width:2.0;" width="254" x="702" y="103.6211"/><text fill="#000000" font-family="sans-serif" font-size="13" font-weight="bold" lengthAdjust="spacing" textLength="236" x="708" y="121.6494">USLP10 - Start Advanced Dispatching</text><polygon fill="#181818" points="371,158.2031,381,162.2031,371,166.2031,375,162.2031" style="stroke:#181818;stroke-width:1.0;"/><line style="stroke:#181818;stroke-width:1.0;" x1="63" x2="377" y1="162.2031" y2="162.2031"/><text fill="#000000" font-family="sans-serif" font-size="13" font-weight="bold" lengthAdjust="spacing" textLength="7" x="70" y="156.9404">1</text><text fill="#000000" font-family="sans-serif" font-size="13" lengthAdjust="spacing" textLength="290" x="81" y="156.9404">dispatchTrainsWithOptions(List&lt;TrainTrip&gt;, mode)</text><polygon fill="#181818" points="611,189.4941,621,193.4941,611,197.4941,615,193.4941" style="stroke:#181818;stroke-width:1.0;"/><line style="stroke:#181818;stroke-width:1.0;" x1="393" x2="617" y1="193.4941" y2="193.4941"/><text fill="#000000" font-family="sans-serif" font-size="13" font-weight="bold" lengthAdjust="spacing" textLength="7" x="400" y="188.2314">2</text><text fill="#000000" font-family="sans-serif" font-size="13" lengthAdjust="spacing" textLength="199" x="411" y="188.2314">dispatchAdvanced(Trip List, mode)</text><path d="M494,206.4941 L494,233.4941 L762,233.4941 L762,216.4941 L752,206.4941 L494,206.4941 " fill="#FEFFDD" style="stroke:#181818;stroke-width:0.5;"/><path d="M752,206.4941 L752,216.4941 L762,216.4941 L752,206.4941 " fill="#FEFFDD" style="stroke:#181818;stroke-width:0.5;"/><text fill="#000000" font-family="sans-serif" font-size="13" lengthAdjust="spacing" textLength="247" x="500" y="225.5225">USLP10 AC2: Path can be Manual or Auto</text><path d="M503,245.7852 L564,245.7852 L564,255.0762 L554,265.0762 L503,265.0762 L503,245.7852 " fill="#EEEEEE" style="stroke:#000000;stroke-width:1.5;"/><rect fill="none" height="324.25" style="stroke:#000000;stroke-width:1.5;" width="595" x="503" y="245.7852"/><text fill="#000000" font-family="sans-serif" font-size="13" font-weight="bold" lengthAdjust="spacing" textLength="16" x="518" y="260.8135">alt</text><text fill="#000000" font-family="sans-serif" font-size="11" font-weight="bold" lengthAdjust="spacing" textLength="118" x="579" y="259.6553">[mode = AUTOMATIC]</text><path d="M538,270.0762 L538,297.0762 L717,297.0762 L717,280.0762 L707,270.0762 L538,270.0762 " fill="#FEFFDD" style="stroke:#181818;stroke-width:0.5;"/><path d="M707,270.0762 L707,280.0762 L717,280.0762 L707,270.0762 " fill="#FEFFDD" style="stroke:#181818;stroke-width:0.5;"/><text fill="#000000" font-family="sans-serif" font-size="13" lengthAdjust="spacing" textLength="158" x="544" y="289.1045">Automatic Path Calculation</text><polygon fill="#181818" points="801,321.6582,811,325.6582,801,329.6582,805,325.6582" style="stroke:#181818;stroke-width:1.0;"/><line style="stroke:#181818;stroke-width:1.0;" x1="633" x2="807" y1="325.6582" y2="325.6582"/><text fill="#000000" font-family="sans-serif" font-size="13" font-weight="bold" lengthAdjust="spacing" textLength="7" x="640" y="320.3955">3</text><text fill="#000000" font-family="sans-serif" font-size="13" lengthAdjust="spacing" textLength="150" x="651" y="320.3955">calculateOptimalPath(trip)</text><polygon fill="#181818" points="1015,352.9492,1025,356.9492,1015,360.9492,1019,356.9492" style="stroke:#181818;stroke-width:1.0;"/><line style="stroke:#181818;stroke-width:1.0;" x1="823" x2="1021" y1="356.9492" y2="356.9492"/><text fill="#000000" font-family="sans-serif" font-size="13" font-weight="bold" lengthAdjust="spacing" textLength="7" x="830" y="351.6865">4</text><text fill="#000000" font-family="sans-serif" font-size="13" lengthAdjust="spacing" textLength="169" x="841" y="351.6865">getNetworkData() via PL/SQL</text><polygon fill="#181818" points="834,384.2402,824,388.2402,834,392.2402,830,388.2402" style="stroke:#181818;stroke-width:1.0;"/><line style="stroke:#181818;stroke-width:1.0;stroke-dasharray:2.0,2.0;" x1="828" x2="1026" y1="388.2402" y2="388.2402"/><text fill="#000000" font-family="sans-serif" font-size="13" font-weight="bold" lengthAdjust="spacing" textLength="7" x="840" y="382.9775">5</text><text fill="#000000" font-family="sans-serif" font-size="13" lengthAdjust="spacing" textLength="161" x="851" y="382.9775">return segments, capacities</text><line style="stroke:#181818;stroke-width:1.0;" x1="823" x2="865" y1="419.5313" y2="419.5313"/><line style="stroke:#181818;stroke-width:1.0;" x1="865" x2="865" y1="419.5313" y2="432.5313"/><line style="stroke:#181818;stroke-width:1.0;" x1="824" x2="865" y1="432.5313" y2="432.5313"/><polygon fill="#181818" points="834,428.5313,824,432.5313,834,436.5313,830,432.5313" style="stroke:#181818;stroke-width:1.0;"/><text fill="#000000" font-family="sans-serif" font-size="13" font-weight="bold" lengthAdjust="spacing" textLength="7" x="830" y="414.2686">6</text><text fill="#000000" font-family="sans-serif" font-size="13" lengthAdjust="spacing" textLength="170" x="841" y="414.2686">applyShortestPathAlgorithm()</text><polygon fill="#181818" points="644,459.8223,634,463.8223,644,467.8223,640,463.8223" style="stroke:#181818;stroke-width:1.0;"/><line style="stroke:#181818;stroke-width:1.0;stroke-dasharray:2.0,2.0;" x1="638" x2="817" y1="463.8223" y2="463.8223"/><text fill="#000000" font-family="sans-serif" font-size="13" font-weight="bold" lengthAdjust="spacing" textLength="7" x="650" y="458.5596">7</text><text fill="#000000" font-family="sans-serif" font-size="13" lengthAdjust="spacing" textLength="127" x="661" y="458.5596">return calculated Path</text><line style="stroke:#000000;stroke-width:1.0;stroke-dasharray:2.0,2.0;" x1="503" x2="1098" y1="472.8223" y2="472.8223"/><text fill="#000000" font-family="sans-serif" font-size="11" font-weight="bold" lengthAdjust="spacing" textLength="99" x="508" y="484.6924">[mode = MANUAL]</text><path d="M513,493.4531 L513,520.4531 L742,520.4531 L742,503.4531 L732,493.4531 L513,493.4531 " fill="#FEFFDD" style="stroke:#181818;stroke-width:0.5;"/><path d="M732,493.4531 L732,503.4531 L742,503.4531 L732,493.4531 " fill="#FEFFDD" style="stroke:#181818;stroke-width:0.5;"/><text fill="#000000" font-family="sans-serif" font-size="13" lengthAdjust="spacing" textLength="208" x="519" y="512.4814">Manual Path (from Freight Manager)</text><line style="stroke:#181818;stroke-width:1.0;" x1="633" x2="675" y1="549.0352" y2="549.0352"/><line style="stroke:#181818;stroke-width:1.0;" x1="675" x2="675" y1="549.0352" y2="562.0352"/><line style="stroke:#181818;stroke-width:1.0;" x1="634" x2="675" y1="562.0352" y2="562.0352"/><polygon fill="#181818" points="644,558.0352,634,562.0352,644,566.0352,640,562.0352" style="stroke:#181818;stroke-width:1.0;"/><text fill="#000000" font-family="sans-serif" font-size="13" font-weight="bold" lengthAdjust="spacing" textLength="7" x="640" y="543.7725">8</text><text fill="#000000" font-family="sans-serif" font-size="13" lengthAdjust="spacing" textLength="135" x="651" y="543.7725">usePredefinedPath(trip)</text><path d="M483,582.0352 L483,609.0352 L773,609.0352 L773,592.0352 L763,582.0352 L483,582.0352 " fill="#FEFFDD" style="stroke:#181818;stroke-width:0.5;"/><path d="M763,582.0352 L763,592.0352 L773,592.0352 L763,582.0352 " fill="#FEFFDD" style="stroke:#181818;stroke-width:0.5;"/><text fill="#000000" font-family="sans-serif" font-size="13" lengthAdjust="spacing" textLength="269" x="489" y="601.0635">USLP10 AC1: Each trip has planned departure</text><polygon fill="#181818" points="1293,633.6172,1303,637.6172,1293,641.6172,1297,637.6172" style="stroke:#181818;stroke-width:1.0;"/><line style="stroke:#181818;stroke-width:1.0;" x1="633" x2="1299" y1="637.6172" y2="637.6172"/><text fill="#000000" font-family="sans-serif" font-size="13" font-weight="bold" lengthAdjust="spacing" textLength="7" x="640" y="632.3545">9</text><text fill="#000000" font-family="sans-serif" font-size="13" lengthAdjust="spacing" textLength="183" x="651" y="632.3545">setDepartureTime(plannedTime)</text><path d="M439,650.6172 L439,677.6172 L817,677.6172 L817,660.6172 L807,650.6172 L439,650.6172 " fill="#FEFFDD" style="stroke:#181818;stroke-width:0.5;"/><path d="M807,650.6172 L807,660.6172 L817,660.6172 L807,650.6172 " fill="#FEFFDD" style="stroke:#181818;stroke-width:0.5;"/><text fill="#000000" font-family="sans-serif" font-size="13" lengthAdjust="spacing" textLength="357" x="445" y="669.6455">USLP10 AC3: Calculate speed based on power, weight, limits</text><polygon fill="#181818" points="1288,702.1992,1298,706.1992,1288,710.1992,1292,706.1992" style="stroke:#181818;stroke-width:1.0;"/><line style="stroke:#181818;stroke-width:1.0;" x1="633" x2="1294" y1="706.1992" y2="706.1992"/><text fill="#000000" font-family="sans-serif" font-size="13" font-weight="bold" lengthAdjust="spacing" textLength="14" x="640" y="700.9365">10</text><text fill="#000000" font-family="sans-serif" font-size="13" lengthAdjust="spacing" textLength="133" x="658" y="700.9365">calculateSpeedProfile()</text><polygon fill="#181818" points="1038,733.4902,1028,737.4902,1038,741.4902,1034,737.4902" style="stroke:#181818;stroke-width:1.0;"/><line style="stroke:#181818;stroke-width:1.0;" x1="1032" x2="1299" y1="737.4902" y2="737.4902"/><text fill="#000000" font-family="sans-serif" font-size="13" font-weight="bold" lengthAdjust="spacing" textLength="14" x="1044" y="732.2275">11</text><text fill="#000000" font-family="sans-serif" font-size="13" lengthAdjust="spacing" textLength="231" x="1062" y="732.2275">getLocomotivePower(trainId) via PL/SQL</text><polygon fill="#181818" points="1288,764.7813,1298,768.7813,1288,772.7813,1292,768.7813" style="stroke:#181818;stroke-width:1.0;"/><line style="stroke:#181818;stroke-width:1.0;stroke-dasharray:2.0,2.0;" x1="1027" x2="1294" y1="768.7813" y2="768.7813"/><text fill="#000000" font-family="sans-serif" font-size="13" font-weight="bold" lengthAdjust="spacing" textLength="14" x="1034" y="763.5186">12</text><text fill="#000000" font-family="sans-serif" font-size="13" lengthAdjust="spacing" textLength="98" x="1052" y="763.5186">return totalPower</text><polygon fill="#181818" points="1038,796.0723,1028,800.0723,1038,804.0723,1034,800.0723" style="stroke:#181818;stroke-width:1.0;"/><line style="stroke:#181818;stroke-width:1.0;" x1="1032" x2="1299" y1="800.0723" y2="800.0723"/><text fill="#000000" font-family="sans-serif" font-size="13" font-weight="bold" lengthAdjust="spacing" textLength="14" x="1044" y="794.8096">13</text><text fill="#000000" font-family="sans-serif" font-size="13" lengthAdjust="spacing" textLength="199" x="1062" y="794.8096">getTrainWeight(trainId) via PL/SQL</text><polygon fill="#181818" points="1288,827.3633,1298,831.3633,1288,835.3633,1292,831.3633" style="stroke:#181818;stroke-width:1.0;"/><line style="stroke:#181818;stroke-width:1.0;stroke-dasharray:2.0,2.0;" x1="1027" x2="1294" y1="831.3633" y2="831.3633"/><text fill="#000000" font-family="sans-serif" font-size="13" font-weight="bold" lengthAdjust="spacing" textLength="14" x="1034" y="826.1006">14</text><text fill="#000000" font-family="sans-serif" font-size="13" lengthAdjust="spacing" textLength="103" x="1052" y="826.1006">return totalWeight</text><line style="stroke:#181818;stroke-width:1.0;" x1="1310" x2="1352" y1="862.6543" y2="862.6543"/><line style="stroke:#181818;stroke-width:1.0;" x1="1352" x2="1352" y1="862.6543" y2="875.6543"/><line style="stroke:#181818;stroke-width:1.0;" x1="1311" x2="1352" y1="875.6543" y2="875.6543"/><polygon fill="#181818" points="1321,871.6543,1311,875.6543,1321,879.6543,1317,875.6543" style="stroke:#181818;stroke-width:1.0;"/><text fill="#000000" font-family="sans-serif" font-size="13" font-weight="bold" lengthAdjust="spacing" textLength="14" x="1317" y="857.3916">15</text><text fill="#000000" font-family="sans-serif" font-size="13" lengthAdjust="spacing" textLength="220" x="1335" y="857.3916">speed = min(trackLimit, power/weight)</text><polygon fill="#181818" points="644,902.9453,634,906.9453,644,910.9453,640,906.9453" style="stroke:#181818;stroke-width:1.0;"/><line style="stroke:#181818;stroke-width:1.0;stroke-dasharray:2.0,2.0;" x1="638" x2="1304" y1="906.9453" y2="906.9453"/><text fill="#000000" font-family="sans-serif" font-size="13" font-weight="bold" lengthAdjust="spacing" textLength="14" x="650" y="901.6826">16</text><text fill="#000000" font-family="sans-serif" font-size="13" lengthAdjust="spacing" textLength="108" x="668" y="901.6826">return speedProfile</text><path d="M462,919.9453 L462,946.9453 L793,946.9453 L793,929.9453 L783,919.9453 L462,919.9453 " fill="#FEFFDD" style="stroke:#181818;stroke-width:0.5;"/><path d="M783,919.9453 L783,929.9453 L793,929.9453 L783,919.9453 " fill="#FEFFDD" style="stroke:#181818;stroke-width:0.5;"/><text fill="#000000" font-family="sans-serif" font-size="13" lengthAdjust="spacing" textLength="310" x="468" y="938.9736">USLP10 AC4/5: Consider crossings &amp; estimate times</text><path d="M553.5,959.2363 L626.5,959.2363 L626.5,968.5273 L616.5,978.5273 L553.5,978.5273 L553.5,959.2363 " fill="#EEEEEE" style="stroke:#000000;stroke-width:1.5;"/><rect fill="none" height="188.7461" style="stroke:#000000;stroke-width:1.5;" width="920.5" x="553.5" y="959.2363"/><text fill="#000000" font-family="sans-serif" font-size="13" font-weight="bold" lengthAdjust="spacing" textLength="28" x="568.5" y="974.2646">loop</text><text fill="#000000" font-family="sans-serif" font-size="11" font-weight="bold" lengthAdjust="spacing" textLength="108" x="641.5" y="973.1064">[For each TrainTrip]</text><polygon fill="#181818" points="1293,997.8184,1303,1001.8184,1293,1005.8184,1297,1001.8184" style="stroke:#181818;stroke-width:1.0;"/><line style="stroke:#181818;stroke-width:1.0;" x1="633" x2="1299" y1="1001.8184" y2="1001.8184"/><text fill="#000000" font-family="sans-serif" font-size="13" font-weight="bold" lengthAdjust="spacing" textLength="14" x="640" y="996.5557">17</text><text fill="#000000" font-family="sans-serif" font-size="13" lengthAdjust="spacing" textLength="213" x="658" y="996.5557">calculateTravelTimesWithCrossings()</text><polygon fill="#181818" points="1038,1029.1094,1028,1033.1094,1038,1037.1094,1034,1033.1094" style="stroke:#181818;stroke-width:1.0;"/><line style="stroke:#181818;stroke-width:1.0;" x1="1032" x2="1304" y1="1033.1094" y2="1033.1094"/><text fill="#000000" font-family="sans-serif" font-size="13" font-weight="bold" lengthAdjust="spacing" textLength="14" x="1044" y="1027.8467">18</text><text fill="#000000" font-family="sans-serif" font-size="13" lengthAdjust="spacing" textLength="233" x="1062" y="1027.8467">getSegmentCapacities(path) via PL/SQL</text><polygon fill="#181818" points="1293,1060.4004,1303,1064.4004,1293,1068.4004,1297,1064.4004" style="stroke:#181818;stroke-width:1.0;"/><line style="stroke:#181818;stroke-width:1.0;stroke-dasharray:2.0,2.0;" x1="1027" x2="1299" y1="1064.4004" y2="1064.4004"/><text fill="#000000" font-family="sans-serif" font-size="13" font-weight="bold" lengthAdjust="spacing" textLength="14" x="1034" y="1059.1377">19</text><text fill="#000000" font-family="sans-serif" font-size="13" lengthAdjust="spacing" textLength="220" x="1052" y="1059.1377">return capacities, single/double tracks</text><line style="stroke:#181818;stroke-width:1.0;" x1="1305" x2="1347" y1="1095.6914" y2="1095.6914"/><line style="stroke:#181818;stroke-width:1.0;" x1="1347" x2="1347" y1="1095.6914" y2="1108.6914"/><line style="stroke:#181818;stroke-width:1.0;" x1="1306" x2="1347" y1="1108.6914" y2="1108.6914"/><polygon fill="#181818" points="1316,1104.6914,1306,1108.6914,1316,1112.6914,1312,1108.6914" style="stroke:#181818;stroke-width:1.0;"/><text fill="#000000" font-family="sans-serif" font-size="13" font-weight="bold" lengthAdjust="spacing" textLength="14" x="1312" y="1090.4287">20</text><text fill="#000000" font-family="sans-serif" font-size="13" lengthAdjust="spacing" textLength="132" x="1330" y="1090.4287">detectCrossingPoints()</text><polygon fill="#181818" points="644,1135.9824,634,1139.9824,644,1143.9824,640,1139.9824" style="stroke:#181818;stroke-width:1.0;"/><line style="stroke:#181818;stroke-width:1.0;stroke-dasharray:2.0,2.0;" x1="638" x2="1304" y1="1139.9824" y2="1139.9824"/><text fill="#000000" font-family="sans-serif" font-size="13" font-weight="bold" lengthAdjust="spacing" textLength="14" x="650" y="1134.7197">21</text><text fill="#000000" font-family="sans-serif" font-size="13" lengthAdjust="spacing" textLength="225" x="668" y="1134.7197">return detailed schedule with crossings</text><path d="M488,1159.9824 L488,1186.9824 L768,1186.9824 L768,1169.9824 L758,1159.9824 L488,1159.9824 " fill="#FEFFDD" style="stroke:#181818;stroke-width:0.5;"/><path d="M758,1159.9824 L758,1169.9824 L768,1169.9824 L758,1159.9824 " fill="#FEFFDD" style="stroke:#181818;stroke-width:0.5;"/><text fill="#000000" font-family="sans-serif" font-size="13" lengthAdjust="spacing" textLength="259" x="494" y="1179.0107">Conflict Resolution (Enhanced from USLP07)</text><line style="stroke:#181818;stroke-width:1.0;" x1="633" x2="675" y1="1215.5645" y2="1215.5645"/><line style="stroke:#181818;stroke-width:1.0;" x1="675" x2="675" y1="1215.5645" y2="1228.5645"/><line style="stroke:#181818;stroke-width:1.0;" x1="634" x2="675" y1="1228.5645" y2="1228.5645"/><polygon fill="#181818" points="644,1224.5645,634,1228.5645,644,1232.5645,640,1228.5645" style="stroke:#181818;stroke-width:1.0;"/><text fill="#000000" font-family="sans-serif" font-size="13" font-weight="bold" lengthAdjust="spacing" textLength="14" x="640" y="1210.3018">22</text><text fill="#000000" font-family="sans-serif" font-size="13" lengthAdjust="spacing" textLength="138" x="658" y="1210.3018">resolveAllConflicts(trips)</text><path d="M470,1243.5645 L543,1243.5645 L543,1252.8555 L533,1262.8555 L470,1262.8555 L470,1243.5645 " fill="#EEEEEE" style="stroke:#000000;stroke-width:1.5;"/><rect fill="none" height="183.7461" style="stroke:#000000;stroke-width:1.5;" width="1178" x="470" y="1243.5645"/><text fill="#000000" font-family="sans-serif" font-size="13" font-weight="bold" lengthAdjust="spacing" textLength="28" x="485" y="1258.5928">loop</text><text fill="#000000" font-family="sans-serif" font-size="11" font-weight="bold" lengthAdjust="spacing" textLength="100" x="558" y="1257.4346">[For each Conflict]</text><path d="M480,1269.8555 L541,1269.8555 L541,1279.1465 L531,1289.1465 L480,1289.1465 L480,1269.8555 " fill="#EEEEEE" style="stroke:#000000;stroke-width:1.5;"/><rect fill="none" height="150.4551" style="stroke:#000000;stroke-width:1.5;" width="1158" x="480" y="1269.8555"/><text fill="#000000" font-family="sans-serif" font-size="13" font-weight="bold" lengthAdjust="spacing" textLength="16" x="495" y="1284.8838">alt</text><text fill="#000000" font-family="sans-serif" font-size="11" font-weight="bold" lengthAdjust="spacing" textLength="187" x="556" y="1283.7256">[Conflict in Single Track Segment]</text><path d="M490,1294.1465 L490,1321.1465 L765,1321.1465 L765,1304.1465 L755,1294.1465 L490,1294.1465 " fill="#FEFFDD" style="stroke:#181818;stroke-width:0.5;"/><path d="M755,1294.1465 L755,1304.1465 L765,1304.1465 L755,1294.1465 " fill="#FEFFDD" style="stroke:#181818;stroke-width:0.5;"/><text fill="#000000" font-family="sans-serif" font-size="13" lengthAdjust="spacing" textLength="254" x="496" y="1313.1748">USLP10 AC4: Crossing at sidings or station</text><polygon fill="#181818" points="1293,1345.7285,1303,1349.7285,1293,1353.7285,1297,1349.7285" style="stroke:#181818;stroke-width:1.0;"/><line style="stroke:#181818;stroke-width:1.0;" x1="633" x2="1299" y1="1349.7285" y2="1349.7285"/><text fill="#000000" font-family="sans-serif" font-size="13" font-weight="bold" lengthAdjust="spacing" textLength="14" x="640" y="1344.4658">23</text><text fill="#000000" font-family="sans-serif" font-size="13" lengthAdjust="spacing" textLength="257" x="658" y="1344.4658">findNearestSidingOrStation(conflictSegment)</text><polygon fill="#181818" points="644,1377.0195,634,1381.0195,644,1385.0195,640,1381.0195" style="stroke:#181818;stroke-width:1.0;"/><line style="stroke:#181818;stroke-width:1.0;stroke-dasharray:2.0,2.0;" x1="638" x2="1304" y1="1381.0195" y2="1381.0195"/><text fill="#000000" font-family="sans-serif" font-size="13" font-weight="bold" lengthAdjust="spacing" textLength="14" x="650" y="1375.7568">24</text><text fill="#000000" font-family="sans-serif" font-size="13" lengthAdjust="spacing" textLength="116" x="668" y="1375.7568">return crossingPoint</text><polygon fill="#181818" points="1555,1408.3105,1565,1412.3105,1555,1416.3105,1559,1412.3105" style="stroke:#181818;stroke-width:1.0;"/><line style="stroke:#181818;stroke-width:1.0;" x1="633" x2="1561" y1="1412.3105" y2="1412.3105"/><text fill="#000000" font-family="sans-serif" font-size="13" font-weight="bold" lengthAdjust="spacing" textLength="14" x="640" y="1407.0479">25</text><text fill="#000000" font-family="sans-serif" font-size="13" lengthAdjust="spacing" textLength="254" x="658" y="1407.0479">addCrossingOperation(crossingPoint, delay)</text><polygon fill="#181818" points="1555,1453.6016,1565,1457.6016,1555,1461.6016,1559,1457.6016" style="stroke:#181818;stroke-width:1.0;"/><line style="stroke:#181818;stroke-width:1.0;" x1="633" x2="1561" y1="1457.6016" y2="1457.6016"/><text fill="#000000" font-family="sans-serif" font-size="13" font-weight="bold" lengthAdjust="spacing" textLength="14" x="640" y="1452.3389">26</text><text fill="#000000" font-family="sans-serif" font-size="13" lengthAdjust="spacing" textLength="142" x="658" y="1452.3389">compileFinalSchedules()</text><polygon fill="#181818" points="1010,1484.8926,1020,1488.8926,1010,1492.8926,1014,1488.8926" style="stroke:#181818;stroke-width:1.0;"/><line style="stroke:#181818;stroke-width:1.0;" x1="633" x2="1016" y1="1488.8926" y2="1488.8926"/><text fill="#000000" font-family="sans-serif" font-size="13" font-weight="bold" lengthAdjust="spacing" textLength="14" x="640" y="1483.6299">27</text><text fill="#000000" font-family="sans-serif" font-size="13" lengthAdjust="spacing" textLength="233" x="658" y="1483.6299">saveSchedulesToDatabase() via PL/SQL</text><polygon fill="#181818" points="644,1516.1836,634,1520.1836,644,1524.1836,640,1520.1836" style="stroke:#181818;stroke-width:1.0;"/><line style="stroke:#181818;stroke-width:1.0;stroke-dasharray:2.0,2.0;" x1="638" x2="1026" y1="1520.1836" y2="1520.1836"/><text fill="#000000" font-family="sans-serif" font-size="13" font-weight="bold" lengthAdjust="spacing" textLength="14" x="650" y="1514.9209">28</text><text fill="#000000" font-family="sans-serif" font-size="13" lengthAdjust="spacing" textLength="70" x="668" y="1514.9209">confirmation</text><polygon fill="#181818" points="404,1547.4746,394,1551.4746,404,1555.4746,400,1551.4746" style="stroke:#181818;stroke-width:1.0;"/><line style="stroke:#181818;stroke-width:1.0;stroke-dasharray:2.0,2.0;" x1="398" x2="627" y1="1551.4746" y2="1551.4746"/><text fill="#000000" font-family="sans-serif" font-size="13" font-weight="bold" lengthAdjust="spacing" textLength="14" x="410" y="1546.2119">29</text><text fill="#000000" font-family="sans-serif" font-size="13" lengthAdjust="spacing" textLength="188" x="428" y="1546.2119">return AdvancedSchedulerResult</text><polygon fill="#181818" points="69,1578.7656,59,1582.7656,69,1586.7656,65,1582.7656" style="stroke:#181818;stroke-width:1.0;"/><line style="stroke:#181818;stroke-width:1.0;" x1="63" x2="387" y1="1582.7656" y2="1582.7656"/><text fill="#000000" font-family="sans-serif" font-size="13" font-weight="bold" lengthAdjust="spacing" textLength="14" x="75" y="1577.5029">30</text><text fill="#000000" font-family="sans-serif" font-size="13" lengthAdjust="spacing" textLength="272" x="93" y="1577.5029">displayResults(schedules, crossings, conflicts)</text><!--SRC=[bLRRRkCs47tNLmpoKCY0W-psWW96lO3ZR8e5dCIj7Emp8urj8XGfa9I3_7s752bHlYIe7soPckivCyDXhLMohLzGPnahhT9mjT5ik-KbF339TgYlW9dud3LCMrxoXaaBLtVSDCoMUzHGe3xm4htiS3mMB-YeQiMHT7yw5bvGN6jczqicobOm2inBnwEny7frK_opWh-PnJVstWLnEnQXfBZSQDxuj-xXKd3_ecc5zMBTOvRDv_1ShDPVly0r59RKO54Tc2onwfFbSWVpkSUG7oYE7h7m2zVV4c1W1bNuumCpFxdTFpMMAsdo5JVshpxURrEeLOMJn7G2S6AI70n93FPZfBap1ivsDDZR6oZ8fAB_wk0uIco5v1VBNsUU0IYPX1UVOyi4KD4ukYX2ORrjcCFYUVFqiDZyM6P0d_DcdLBDY8FEQAIQGF1AWoYb5eadjJB8eGEiPiAzoYrbD_5gVLfzhRZJNj_nS4jMTcWVqRuf_Nh7BCidSE0CkaBo2YHqFVQhqRPQWi5TZTAQAGNIi99RZkR4HQB6caQy5tkbBHhhpXTYfpJnNUUJ8xqZ2eF3Fj_AYtgT2a_JH64mml-mU7nUh3x0Fb3dWS-tMjLmhv7lzZOMxkIKWrI_DRZMME6MIwmI1b1MdrRHrnbyP-KUd0RigSyQmIIPeQnSJxOQiv5VNxap0jxUHO4Dhp4FQkvvygdJtsPzWI6O1idT2pFqhIGqwWtr5Duy05CGlERMd8sXvw9m5jPQRRd0FEabFrcyS59eArMgMf44hfqdWegQ-qSrghbGRy5FeDugI_NjT4vi-W7nqqVyF-rrIht1YAw7P0urbyvU-RfoA4mxR6uwQ2P1wNoTcWIIB2bG3ybdzFn-ymSHHEEFL_IYrCeO6ga6VW7g6kfoKgOVwZIXL0FtD7BGbL0_9a-hzPWn4ZsWSCNYf-qokWXTU8nlqRNvik_ndCRf_jAO6CCy38OfE1y2RohLlWZAmI5hHWw3QeKMInkZMYjE8sOKsddGIOqHtXMOy0xUk1lGCRkF6fBWtWfUMdVFAT6wmGlvTxdlRZO_51m_N_wSP1VdW7Qg1rm84QqPFmaCTUIOglY-6z9qK_JkkOJ2e-JeB5yXGEy5Bq-meNGeav0kC4k0LxvooA-nmsrogJveW5MFo2WFMtZD9rrqQdaP0WpnJ7ex7n5IfWoUzzoj5UvggAeO-LE3EdXD3Ko9OC7UEzUEIa_dUMiqOnegXNikcOWIheH6qhwy3NL2Bx5HxW9qit1y2GxhncqS9ccw3XokwmxWfDj9ElLulFO4bE9Mqak6LIinb6mbuoqdRbJTZaFeTBecZotWhkPO_rE8B595fc4EErHw7BUs_m00]--></g></svg>