<?xml version="1.0" encoding="us-ascii" standalone="no"?><svg xmlns="http://www.w3.org/2000/svg" xmlns:xlink="http://www.w3.org/1999/xlink" contentStyleType="text/css" height="653px" preserveAspectRatio="none" style="width:459px;height:653px;background:#FFFFFF;" version="1.1" viewBox="0 0 459 653" width="459px" zoomAndPan="magnify"><defs/><g><text fill="#000000" font-family="sans-serif" font-size="14" font-weight="bold" lengthAdjust="spacing" textLength="327" x="59" y="25.1074">USEI05 - Domain Model (Returns &amp; Quarantine)</text><!--class Return--><g id="elem_Return"><rect codeLine="4" fill="#F1F1F1" height="159.7266" id="Return" rx="2.5" ry="2.5" style="stroke:#181818;stroke-width:0.5;" width="163" x="8.5" y="247.6211"/><ellipse cx="64.25" cy="263.6211" fill="#ADD1B2" rx="11" ry="11" style="stroke:#181818;stroke-width:1.0;"/><path d="M67.0156,259.4961 Q67.1719,259.2773 67.3594,259.168 Q67.5469,259.0586 67.7656,259.0586 Q68.1406,259.0586 68.375,259.3242 Q68.6094,259.5742 68.6094,260.1836 L68.6094,261.6367 Q68.6094,262.2461 68.375,262.5117 Q68.1406,262.7773 67.7656,262.7773 Q67.4219,262.7773 67.2188,262.5742 Q67.0156,262.3867 66.9063,261.8711 Q66.8594,261.5117 66.6719,261.3242 Q66.3438,260.9492 65.7344,260.7305 Q65.125,260.5117 64.5,260.5117 Q63.7344,260.5117 63.0938,260.8398 Q62.4688,261.168 61.9688,261.918 Q61.4844,262.668 61.4844,263.6992 L61.4844,264.793 Q61.4844,266.0273 62.375,266.8555 Q63.2656,267.668 64.8594,267.668 Q65.7969,267.668 66.4531,267.418 Q66.8438,267.2617 67.2656,266.8242 Q67.5313,266.5586 67.6719,266.4805 Q67.8281,266.4023 68.0313,266.4023 Q68.3594,266.4023 68.6094,266.668 Q68.875,266.918 68.875,267.2617 Q68.875,267.6055 68.5313,268.0117 Q68.0313,268.5898 67.2344,268.918 Q66.1563,269.3711 64.8594,269.3711 Q63.3438,269.3711 62.1406,268.7461 Q61.1563,268.2461 60.4688,267.1836 Q59.7813,266.1055 59.7813,264.8242 L59.7813,263.668 Q59.7813,262.3398 60.3906,261.1992 Q61.0156,260.043 62.1094,259.4336 Q63.2031,258.8086 64.4375,258.8086 Q65.1719,258.8086 65.8125,258.9805 Q66.4688,259.1367 67.0156,259.4961 Z " fill="#000000"/><text fill="#000000" font-family="sans-serif" font-size="14" lengthAdjust="spacing" textLength="43" x="84.75" y="269.418">Return</text><line style="stroke:#181818;stroke-width:0.5;" x1="9.5" x2="170.5" y1="279.6211" y2="279.6211"/><rect fill="none" height="6" style="stroke:#C82930;stroke-width:1.0;" width="6" x="16.5" y="291.4316"/><text fill="#000000" font-family="sans-serif" font-size="14" lengthAdjust="spacing" textLength="98" x="28.5" y="298.7285">returnId : String</text><rect fill="none" height="6" style="stroke:#C82930;stroke-width:1.0;" width="6" x="16.5" y="310.0527"/><text fill="#000000" font-family="sans-serif" font-size="14" lengthAdjust="spacing" textLength="71" x="28.5" y="317.3496">sku : String</text><rect fill="none" height="6" style="stroke:#C82930;stroke-width:1.0;" width="6" x="16.5" y="328.6738"/><text fill="#000000" font-family="sans-serif" font-size="14" lengthAdjust="spacing" textLength="46" x="28.5" y="335.9707">qty : int</text><rect fill="none" height="6" style="stroke:#C82930;stroke-width:1.0;" width="6" x="16.5" y="347.2949"/><text fill="#000000" font-family="sans-serif" font-size="14" lengthAdjust="spacing" textLength="93" x="28.5" y="354.5918">reason : String</text><rect fill="none" height="6" style="stroke:#C82930;stroke-width:1.0;" width="6" x="16.5" y="365.916"/><text fill="#000000" font-family="sans-serif" font-size="14" lengthAdjust="spacing" textLength="137" x="28.5" y="373.2129">timestamp : DateTime</text><rect fill="none" height="6" style="stroke:#C82930;stroke-width:1.0;" width="6" x="16.5" y="384.5371"/><text fill="#000000" font-family="sans-serif" font-size="14" lengthAdjust="spacing" textLength="117" x="28.5" y="391.834">expiryDate : Date?</text><line style="stroke:#181818;stroke-width:0.5;" x1="9.5" x2="170.5" y1="399.3477" y2="399.3477"/></g><!--class Quarantine--><g id="elem_Quarantine"><rect codeLine="13" fill="#F1F1F1" height="122.4844" id="Quarantine" rx="2.5" ry="2.5" style="stroke:#181818;stroke-width:0.5;" width="165" x="101.5" y="46.6211"/><ellipse cx="144.4" cy="62.6211" fill="#ADD1B2" rx="11" ry="11" style="stroke:#181818;stroke-width:1.0;"/><path d="M147.1656,58.4961 Q147.3219,58.2773 147.5094,58.168 Q147.6969,58.0586 147.9156,58.0586 Q148.2906,58.0586 148.525,58.3242 Q148.7594,58.5742 148.7594,59.1836 L148.7594,60.6367 Q148.7594,61.2461 148.525,61.5117 Q148.2906,61.7773 147.9156,61.7773 Q147.5719,61.7773 147.3688,61.5742 Q147.1656,61.3867 147.0563,60.8711 Q147.0094,60.5117 146.8219,60.3242 Q146.4938,59.9492 145.8844,59.7305 Q145.275,59.5117 144.65,59.5117 Q143.8844,59.5117 143.2438,59.8398 Q142.6188,60.168 142.1188,60.918 Q141.6344,61.668 141.6344,62.6992 L141.6344,63.793 Q141.6344,65.0273 142.525,65.8555 Q143.4156,66.668 145.0094,66.668 Q145.9469,66.668 146.6031,66.418 Q146.9938,66.2617 147.4156,65.8242 Q147.6813,65.5586 147.8219,65.4805 Q147.9781,65.4023 148.1813,65.4023 Q148.5094,65.4023 148.7594,65.668 Q149.025,65.918 149.025,66.2617 Q149.025,66.6055 148.6813,67.0117 Q148.1813,67.5898 147.3844,67.918 Q146.3063,68.3711 145.0094,68.3711 Q143.4938,68.3711 142.2906,67.7461 Q141.3063,67.2461 140.6188,66.1836 Q139.9313,65.1055 139.9313,63.8242 L139.9313,62.668 Q139.9313,61.3398 140.5406,60.1992 Q141.1656,59.043 142.2594,58.4336 Q143.3531,57.8086 144.5875,57.8086 Q145.3219,57.8086 145.9625,57.9805 Q146.6188,58.1367 147.1656,58.4961 Z " fill="#000000"/><text fill="#000000" font-family="sans-serif" font-size="14" lengthAdjust="spacing" textLength="71" x="164.6" y="68.418">Quarantine</text><line style="stroke:#181818;stroke-width:0.5;" x1="102.5" x2="265.5" y1="78.6211" y2="78.6211"/><rect fill="none" height="6" style="stroke:#C82930;stroke-width:1.0;" width="6" x="109.5" y="90.4316"/><text fill="#000000" font-family="sans-serif" font-size="14" lengthAdjust="spacing" textLength="139" x="121.5" y="97.7285">stack : Stack&lt;Return&gt;</text><line style="stroke:#181818;stroke-width:0.5;" x1="102.5" x2="265.5" y1="105.2422" y2="105.2422"/><ellipse cx="112.5" cy="120.0527" fill="#84BE84" rx="3" ry="3" style="stroke:#038048;stroke-width:1.0;"/><text fill="#000000" font-family="sans-serif" font-size="14" lengthAdjust="spacing" textLength="101" x="121.5" y="124.3496">push(r : Return)</text><ellipse cx="112.5" cy="138.6738" fill="#84BE84" rx="3" ry="3" style="stroke:#038048;stroke-width:1.0;"/><text fill="#000000" font-family="sans-serif" font-size="14" lengthAdjust="spacing" textLength="89" x="121.5" y="142.9707">pop() : Return</text><ellipse cx="112.5" cy="157.2949" fill="#84BE84" rx="3" ry="3" style="stroke:#038048;stroke-width:1.0;"/><text fill="#000000" font-family="sans-serif" font-size="14" lengthAdjust="spacing" textLength="122" x="121.5" y="161.5918">isEmpty() : boolean</text></g><!--class Inventory--><g id="elem_Inventory"><rect codeLine="20" fill="#F1F1F1" height="66.6211" id="Inventory" rx="2.5" ry="2.5" style="stroke:#181818;stroke-width:0.5;" width="142" x="207" y="294.1211"/><ellipse cx="245.4" cy="310.1211" fill="#ADD1B2" rx="11" ry="11" style="stroke:#181818;stroke-width:1.0;"/><path d="M248.1656,305.9961 Q248.3219,305.7773 248.5094,305.668 Q248.6969,305.5586 248.9156,305.5586 Q249.2906,305.5586 249.525,305.8242 Q249.7594,306.0742 249.7594,306.6836 L249.7594,308.1367 Q249.7594,308.7461 249.525,309.0117 Q249.2906,309.2773 248.9156,309.2773 Q248.5719,309.2773 248.3688,309.0742 Q248.1656,308.8867 248.0563,308.3711 Q248.0094,308.0117 247.8219,307.8242 Q247.4938,307.4492 246.8844,307.2305 Q246.275,307.0117 245.65,307.0117 Q244.8844,307.0117 244.2438,307.3398 Q243.6188,307.668 243.1188,308.418 Q242.6344,309.168 242.6344,310.1992 L242.6344,311.293 Q242.6344,312.5273 243.525,313.3555 Q244.4156,314.168 246.0094,314.168 Q246.9469,314.168 247.6031,313.918 Q247.9938,313.7617 248.4156,313.3242 Q248.6813,313.0586 248.8219,312.9805 Q248.9781,312.9023 249.1813,312.9023 Q249.5094,312.9023 249.7594,313.168 Q250.025,313.418 250.025,313.7617 Q250.025,314.1055 249.6813,314.5117 Q249.1813,315.0898 248.3844,315.418 Q247.3063,315.8711 246.0094,315.8711 Q244.4938,315.8711 243.2906,315.2461 Q242.3063,314.7461 241.6188,313.6836 Q240.9313,312.6055 240.9313,311.3242 L240.9313,310.168 Q240.9313,308.8398 241.5406,307.6992 Q242.1656,306.543 243.2594,305.9336 Q244.3531,305.3086 245.5875,305.3086 Q246.3219,305.3086 246.9625,305.4805 Q247.6188,305.6367 248.1656,305.9961 Z " fill="#000000"/><text fill="#000000" font-family="sans-serif" font-size="14" lengthAdjust="spacing" textLength="58" x="264.6" y="315.918">Inventory</text><line style="stroke:#181818;stroke-width:0.5;" x1="208" x2="348" y1="326.1211" y2="326.1211"/><line style="stroke:#181818;stroke-width:0.5;" x1="208" x2="348" y1="334.1211" y2="334.1211"/><ellipse cx="218" cy="348.9316" fill="#84BE84" rx="3" ry="3" style="stroke:#038048;stroke-width:1.0;"/><text fill="#000000" font-family="sans-serif" font-size="14" lengthAdjust="spacing" textLength="116" x="227" y="353.2285">restock(r : Return)</text></g><!--class Box--><g id="elem_Box"><rect codeLine="24" fill="#F1F1F1" height="159.7266" id="Box" rx="2.5" ry="2.5" style="stroke:#181818;stroke-width:0.5;" width="166" x="7" y="486.6211"/><ellipse cx="74.25" cy="502.6211" fill="#ADD1B2" rx="11" ry="11" style="stroke:#181818;stroke-width:1.0;"/><path d="M77.0156,498.4961 Q77.1719,498.2773 77.3594,498.168 Q77.5469,498.0586 77.7656,498.0586 Q78.1406,498.0586 78.375,498.3242 Q78.6094,498.5742 78.6094,499.1836 L78.6094,500.6367 Q78.6094,501.2461 78.375,501.5117 Q78.1406,501.7773 77.7656,501.7773 Q77.4219,501.7773 77.2188,501.5742 Q77.0156,501.3867 76.9063,500.8711 Q76.8594,500.5117 76.6719,500.3242 Q76.3438,499.9492 75.7344,499.7305 Q75.125,499.5117 74.5,499.5117 Q73.7344,499.5117 73.0938,499.8398 Q72.4688,500.168 71.9688,500.918 Q71.4844,501.668 71.4844,502.6992 L71.4844,503.793 Q71.4844,505.0273 72.375,505.8555 Q73.2656,506.668 74.8594,506.668 Q75.7969,506.668 76.4531,506.418 Q76.8438,506.2617 77.2656,505.8242 Q77.5313,505.5586 77.6719,505.4805 Q77.8281,505.4023 78.0313,505.4023 Q78.3594,505.4023 78.6094,505.668 Q78.875,505.918 78.875,506.2617 Q78.875,506.6055 78.5313,507.0117 Q78.0313,507.5898 77.2344,507.918 Q76.1563,508.3711 74.8594,508.3711 Q73.3438,508.3711 72.1406,507.7461 Q71.1563,507.2461 70.4688,506.1836 Q69.7813,505.1055 69.7813,503.8242 L69.7813,502.668 Q69.7813,501.3398 70.3906,500.1992 Q71.0156,499.043 72.1094,498.4336 Q73.2031,497.8086 74.4375,497.8086 Q75.1719,497.8086 75.8125,497.9805 Q76.4688,498.1367 77.0156,498.4961 Z " fill="#000000"/><text fill="#000000" font-family="sans-serif" font-size="14" lengthAdjust="spacing" textLength="23" x="94.75" y="508.418">Box</text><line style="stroke:#181818;stroke-width:0.5;" x1="8" x2="172" y1="518.6211" y2="518.6211"/><rect fill="none" height="6" style="stroke:#C82930;stroke-width:1.0;" width="6" x="15" y="530.4316"/><text fill="#000000" font-family="sans-serif" font-size="14" lengthAdjust="spacing" textLength="82" x="27" y="537.7285">boxId : String</text><rect fill="none" height="6" style="stroke:#C82930;stroke-width:1.0;" width="6" x="15" y="549.0527"/><text fill="#000000" font-family="sans-serif" font-size="14" lengthAdjust="spacing" textLength="71" x="27" y="556.3496">sku : String</text><rect fill="none" height="6" style="stroke:#C82930;stroke-width:1.0;" width="6" x="15" y="567.6738"/><text fill="#000000" font-family="sans-serif" font-size="14" lengthAdjust="spacing" textLength="46" x="27" y="574.9707">qty : int</text><rect fill="none" height="6" style="stroke:#C82930;stroke-width:1.0;" width="6" x="15" y="586.2949"/><text fill="#000000" font-family="sans-serif" font-size="14" lengthAdjust="spacing" textLength="117" x="27" y="593.5918">expiryDate : Date?</text><rect fill="none" height="6" style="stroke:#C82930;stroke-width:1.0;" width="6" x="15" y="604.916"/><text fill="#000000" font-family="sans-serif" font-size="14" lengthAdjust="spacing" textLength="140" x="27" y="612.2129">receivedAt : DateTime</text><rect fill="none" height="6" style="stroke:#C82930;stroke-width:1.0;" width="6" x="15" y="623.5371"/><text fill="#000000" font-family="sans-serif" font-size="14" lengthAdjust="spacing" textLength="98" x="27" y="630.834">location : String</text><line style="stroke:#181818;stroke-width:0.5;" x1="8" x2="172" y1="638.3477" y2="638.3477"/></g><!--class AuditLog--><g id="elem_AuditLog"><rect codeLine="33" fill="#F1F1F1" height="66.6211" id="AuditLog" rx="2.5" ry="2.5" style="stroke:#181818;stroke-width:0.5;" width="244" x="208" y="533.1211"/><ellipse cx="297.75" cy="549.1211" fill="#ADD1B2" rx="11" ry="11" style="stroke:#181818;stroke-width:1.0;"/><path d="M300.5156,544.9961 Q300.6719,544.7773 300.8594,544.668 Q301.0469,544.5586 301.2656,544.5586 Q301.6406,544.5586 301.875,544.8242 Q302.1094,545.0742 302.1094,545.6836 L302.1094,547.1367 Q302.1094,547.7461 301.875,548.0117 Q301.6406,548.2773 301.2656,548.2773 Q300.9219,548.2773 300.7188,548.0742 Q300.5156,547.8867 300.4063,547.3711 Q300.3594,547.0117 300.1719,546.8242 Q299.8438,546.4492 299.2344,546.2305 Q298.625,546.0117 298,546.0117 Q297.2344,546.0117 296.5938,546.3398 Q295.9688,546.668 295.4688,547.418 Q294.9844,548.168 294.9844,549.1992 L294.9844,550.293 Q294.9844,551.5273 295.875,552.3555 Q296.7656,553.168 298.3594,553.168 Q299.2969,553.168 299.9531,552.918 Q300.3438,552.7617 300.7656,552.3242 Q301.0313,552.0586 301.1719,551.9805 Q301.3281,551.9023 301.5313,551.9023 Q301.8594,551.9023 302.1094,552.168 Q302.375,552.418 302.375,552.7617 Q302.375,553.1055 302.0313,553.5117 Q301.5313,554.0898 300.7344,554.418 Q299.6563,554.8711 298.3594,554.8711 Q296.8438,554.8711 295.6406,554.2461 Q294.6563,553.7461 293.9688,552.6836 Q293.2813,551.6055 293.2813,550.3242 L293.2813,549.168 Q293.2813,547.8398 293.8906,546.6992 Q294.5156,545.543 295.6094,544.9336 Q296.7031,544.3086 297.9375,544.3086 Q298.6719,544.3086 299.3125,544.4805 Q299.9688,544.6367 300.5156,544.9961 Z " fill="#000000"/><text fill="#000000" font-family="sans-serif" font-size="14" lengthAdjust="spacing" textLength="56" x="318.25" y="554.918">AuditLog</text><line style="stroke:#181818;stroke-width:0.5;" x1="209" x2="451" y1="565.1211" y2="565.1211"/><line style="stroke:#181818;stroke-width:0.5;" x1="209" x2="451" y1="573.1211" y2="573.1211"/><ellipse cx="219" cy="587.9316" fill="#84BE84" rx="3" ry="3" style="stroke:#038048;stroke-width:1.0;"/><text fill="#000000" font-family="sans-serif" font-size="14" lengthAdjust="spacing" textLength="218" x="228" y="592.2285">writeLog(r : Return, action : String)</text></g><!--reverse link Quarantine to Return--><g id="link_Quarantine_Return"><path codeLine="38" d="M153.3173,179.7898 C142.8273,204.1098 135.32,221.5111 124.13,247.4711 " fill="none" id="Quarantine-backto-Return" style="stroke:#181818;stroke-width:1.0;"/><polygon fill="#181818" points="158.07,168.7711,152.0207,172.6962,153.3173,179.7898,159.3665,175.8647,158.07,168.7711" style="stroke:#181818;stroke-width:1.0;"/><polygon fill="#000000" points="146.02,212.8579,152.3005,205.716,146.9031,203.3884,146.02,212.8579" style="stroke:#000000;stroke-width:1.0;"/><text fill="#000000" font-family="sans-serif" font-size="13" lengthAdjust="spacing" textLength="49" x="157" y="213.6494">contains</text><text fill="#000000" font-family="sans-serif" font-size="13" lengthAdjust="spacing" textLength="7" x="147.4832" y="191.2762">1</text><text fill="#000000" font-family="sans-serif" font-size="13" lengthAdjust="spacing" textLength="5" x="122.0459" y="236.353">*</text></g><!--reverse link Inventory to Box--><g id="link_Inventory_Box"><path codeLine="39" d="M244.8876,370.7102 C224.5076,396.6002 202.69,424.2511 177,456.6211 C169.32,466.2911 161.25,476.4411 153.25,486.4811 " fill="none" id="Inventory-backto-Box" style="stroke:#181818;stroke-width:1.0;"/><polygon fill="#181818" points="252.31,361.2811,245.4558,363.5215,244.8876,370.7102,251.7418,368.4698,252.31,361.2811" style="stroke:#181818;stroke-width:1.0;"/><polygon fill="#000000" points="192.8968,451.1871,200.8149,445.9189,196.2062,442.2709,192.8968,451.1871" style="stroke:#000000;stroke-width:1.0;"/><text fill="#000000" font-family="sans-serif" font-size="13" lengthAdjust="spacing" textLength="53" x="205" y="452.6494">manages</text><text fill="#000000" font-family="sans-serif" font-size="13" lengthAdjust="spacing" textLength="7" x="240.1105" y="382.8788">1</text><text fill="#000000" font-family="sans-serif" font-size="13" lengthAdjust="spacing" textLength="5" x="153.8504" y="475.3639">*</text></g><!--link Inventory to AuditLog--><g id="link_Inventory_AuditLog"><path codeLine="40" d="M285.23,361.5711 C295.17,406.8511 311.6446,481.9504 321.5446,527.0904 " fill="none" id="Inventory-to-AuditLog" style="stroke:#181818;stroke-width:1.0;"/><polygon fill="#181818" points="322.83,532.9511,324.8091,523.3031,321.7589,528.0672,316.9948,525.0169,322.83,532.9511" style="stroke:#181818;stroke-width:1.0;"/><polygon fill="#000000" points="311.0715,452.1504,312.0038,442.6857,306.2625,443.9453,311.0715,452.1504" style="stroke:#000000;stroke-width:1.0;"/><text fill="#000000" font-family="sans-serif" font-size="13" lengthAdjust="spacing" textLength="70" x="319" y="452.6494">logs actions</text></g><!--link Quarantine to Inventory--><g id="link_Quarantine_Inventory"><path codeLine="41" d="M209.93,168.7711 C227.38,209.2211 247.3242,255.4915 261.5542,288.4915 " fill="none" id="Quarantine-to-Inventory" style="stroke:#181818;stroke-width:1.0;"/><polygon fill="#181818" points="263.93,294.0011,264.0394,284.1528,261.9502,289.4098,256.6932,287.3206,263.93,294.0011" style="stroke:#181818;stroke-width:1.0;"/><polygon fill="#000000" points="237.9798,212.8579,237.097,203.3884,231.6996,205.7158,237.9798,212.8579" style="stroke:#000000;stroke-width:1.0;"/><text fill="#000000" font-family="sans-serif" font-size="13" lengthAdjust="spacing" textLength="50" x="245" y="213.6494">interacts</text></g><!--link Return to Box--><g id="link_Return_Box"><path codeLine="42" d="M90,407.8711 C90,433.1711 90,455.1511 90,480.4511 " fill="none" id="Return-to-Box" style="stroke:#181818;stroke-width:1.0;"/><polygon fill="#181818" points="90,486.4511,94,477.4511,90,481.4511,86,477.4511,90,486.4511" style="stroke:#181818;stroke-width:1.0;"/><polygon fill="#000000" points="95,452.2666,97.9389,443.2215,92.0611,443.2215,95,452.2666" style="stroke:#000000;stroke-width:1.0;"/><text fill="#000000" font-family="sans-serif" font-size="13" lengthAdjust="spacing" textLength="65" x="104" y="452.6494">may create</text></g><!--SRC=[bL9DJyCm3BtdLrWzm3we10Sk5HGDjiCaEB313yZIg8lM9YLnnoh4VoT9qxL5NCWbylEp_Vna55XmUD-krjUt4CDIbLH8U54PBs2ouLXhQU02NckggKGX-PIGIxXt3vuAQWmtRKIOYw0jWIy2jflsmJg31BQeXSmzQWxr6FZ0nW92OYYYHian0qN93TAoil2I8d-piK_mKoLquw2GUI3V94ZfDGSvjWCx-CRslskLfZOpXwes-ucsgHQSjg2g9jCpvY5XLcM5ZOTtIXMSodxUMXwvHAKRFsvk5p6es67Kzqn-LAUWQgTE_tJeZwLRunWNHvujyBTBXM8KnT3Kiuv5dGbyLddG_Aa5SXiEH5y1PQDYlqLt0njU-DPcBwhk4WR6HpSHpE8OebdKdKO2J4cqLsOW9RrdGwOp9u6IIfhpCIkEqrvoOXVBJP3dU8F1ZjYNUU-ujan72q8SfPlK0BDtPmrDoGy0]--></g></svg>