<svg xmlns="http://www.w3.org/2000/svg" xmlns:xlink="http://www.w3.org/1999/xlink" contentStyleType="text/css" data-diagram-type="SEQUENCE" height="471px" preserveAspectRatio="none" style="width:524px;height:471px;background:#FFFFFF;" version="1.1" viewBox="0 0 524 471" width="524px" zoomAndPan="magnify"><title>USEI11 - Directed Line Upgrade Plan</title><defs/><g><text fill="#000000" font-family="sans-serif" font-size="14" font-weight="bold" lengthAdjust="spacing" textLength="264.2158" x="131.1782" y="28.5352">USEI11 - Directed Line Upgrade Plan</text><g><title>Infrastructure Planner</title><rect fill="#FFFFFF" height="252.4395" style="stroke:#181818;stroke-width:1;" width="10" x="91.7974" y="128.9766"/></g><g><title>System</title><rect fill="#FFFFFF" height="29.3105" style="stroke:#181818;stroke-width:1;" width="10" x="471.5234" y="150.2871"/></g><g><title>System</title><rect fill="#FFFFFF" height="97.8867" style="stroke:#181818;stroke-width:1;" width="10" x="471.5234" y="208.9082"/></g><g><title>System</title><rect fill="#FFFFFF" height="44.3105" style="stroke:#181818;stroke-width:1;" width="10" x="471.5234" y="336.1055"/></g><rect fill="none" height="149.5078" style="stroke:#000000;stroke-width:1.5;" width="507.5723" x="10" y="223.9082"/><g><title>Infrastructure Planner</title><rect fill="#000000" fill-opacity="0.00000" height="271.4395" width="8" x="92.7974" y="118.9766"/><line style="stroke:#181818;stroke-width:0.5;stroke-dasharray:5,5;" x1="96" x2="96" y1="118.9766" y2="390.416"/></g><g><title>System</title><rect fill="#000000" fill-opacity="0.00000" height="271.4395" width="8" x="472.5234" y="118.9766"/><line style="stroke:#181818;stroke-width:0.5;stroke-dasharray:5,5;" x1="476.4746" x2="476.4746" y1="118.9766" y2="390.416"/></g><g class="participant participant-head"><text fill="#000000" font-family="sans-serif" font-size="14" lengthAdjust="spacing" textLength="147.5947" x="20" y="116.0234">Infrastructure Planner</text><ellipse cx="96.7974" cy="50.9883" fill="#E2E2F0" rx="8" ry="8" style="stroke:#181818;stroke-width:0.5;"/><path d="M96.7974,58.9883 L96.7974,85.9883 M83.7974,66.9883 L109.7974,66.9883 M96.7974,85.9883 L83.7974,100.9883 M96.7974,85.9883 L109.7974,100.9883" fill="none" style="stroke:#181818;stroke-width:0.5;"/></g><g class="participant participant-tail"><text fill="#000000" font-family="sans-serif" font-size="14" lengthAdjust="spacing" textLength="147.5947" x="20" y="402.9512">Infrastructure Planner</text><ellipse cx="96.7974" cy="414.4043" fill="#E2E2F0" rx="8" ry="8" style="stroke:#181818;stroke-width:0.5;"/><path d="M96.7974,422.4043 L96.7974,449.4043 M83.7974,430.4043 L109.7974,430.4043 M96.7974,449.4043 L83.7974,464.4043 M96.7974,449.4043 L109.7974,464.4043" fill="none" style="stroke:#181818;stroke-width:0.5;"/></g><g class="participant participant-head"><rect fill="#E2E2F0" height="30.4883" rx="2.5" ry="2.5" style="stroke:#181818;stroke-width:0.5;" width="62.0977" x="445.4746" y="87.4883"/><text fill="#000000" font-family="sans-serif" font-size="14" lengthAdjust="spacing" textLength="48.0977" x="452.4746" y="108.0234">System</text></g><g class="participant participant-tail"><rect fill="#E2E2F0" height="30.4883" rx="2.5" ry="2.5" style="stroke:#181818;stroke-width:0.5;" width="62.0977" x="445.4746" y="389.416"/><text fill="#000000" font-family="sans-serif" font-size="14" lengthAdjust="spacing" textLength="48.0977" x="452.4746" y="409.9512">System</text></g><g><title>Infrastructure Planner</title><rect fill="#FFFFFF" height="252.4395" style="stroke:#181818;stroke-width:1;" width="10" x="91.7974" y="128.9766"/></g><g><title>System</title><rect fill="#FFFFFF" height="29.3105" style="stroke:#181818;stroke-width:1;" width="10" x="471.5234" y="150.2871"/></g><g><title>System</title><rect fill="#FFFFFF" height="97.8867" style="stroke:#181818;stroke-width:1;" width="10" x="471.5234" y="208.9082"/></g><g><title>System</title><rect fill="#FFFFFF" height="44.3105" style="stroke:#181818;stroke-width:1;" width="10" x="471.5234" y="336.1055"/></g><g class="message"
><polygon fill="#181818" points="459.5234,146.2871,469.5234,150.2871,459.5234,154.2871,463.5234,150.2871" style="stroke:#181818;stroke-width:1;"/><line style="stroke:#181818;stroke-width:1;" x1="101.7974" x2="465.5234" y1="150.2871" y2="150.2871"/><text fill="#000000" font-family="sans-serif" font-size="13" font-weight="bold" lengthAdjust="spacing" textLength="8.5757" x="108.7974" y="145.5449">1</text><text fill="#000000" font-family="sans-serif" font-size="13" lengthAdjust="spacing" textLength="176.1602" x="121.373" y="145.5449">requestUpgradePlanningUI()</text></g><g class="message"
><polygon fill="#181818" points="112.7974,175.5977,102.7974,179.5977,112.7974,183.5977,108.7974,179.5977" style="stroke:#181818;stroke-width:1;"/><line style="stroke:#181818;stroke-width:1;stroke-dasharray:2,2;" x1="106.7974" x2="475.5234" y1="179.5977" y2="179.5977"/><text fill="#000000" font-family="sans-serif" font-size="13" font-weight="bold" lengthAdjust="spacing" textLength="8.5757" x="118.7974" y="174.8555">2</text><text fill="#000000" font-family="sans-serif" font-size="13" lengthAdjust="spacing" textLength="173.0942" x="131.373" y="174.8555">displayUpgradePlanningUI()</text></g><g class="message"
><polygon fill="#181818" points="459.5234,204.9082,469.5234,208.9082,459.5234,212.9082,463.5234,208.9082" style="stroke:#181818;stroke-width:1;"/><line style="stroke:#181818;stroke-width:1;" x1="101.7974" x2="465.5234" y1="208.9082" y2="208.9082"/><text fill="#000000" font-family="sans-serif" font-size="13" font-weight="bold" lengthAdjust="spacing" textLength="8.5757" x="108.7974" y="204.166">3</text><text fill="#000000" font-family="sans-serif" font-size="13" lengthAdjust="spacing" textLength="282.3311" x="121.373" y="204.166">runDependencyAnalysis(TrackDependencies)</text></g><path d="M10,223.9082 L72.1387,223.9082 L72.1387,231.2188 L62.1387,241.2188 L10,241.2188 L10,223.9082" fill="#EEEEEE" style="stroke:#000000;stroke-width:1.5;"/><rect fill="none" height="149.5078" style="stroke:#000000;stroke-width:1.5;" width="507.5723" x="10" y="223.9082"/><text fill="#000000" font-family="sans-serif" font-size="13" font-weight="bold" lengthAdjust="spacing" textLength="17.1387" x="25" y="237.4766">alt</text><text fill="#000000" font-family="sans-serif" font-size="11" font-weight="bold" lengthAdjust="spacing" textLength="131.8174" x="87.1387" y="236.543">[Graph with NO Cycles]</text><g class="message"
><polygon fill="#181818" points="112.7974,258.5293,102.7974,262.5293,112.7974,266.5293,108.7974,262.5293" style="stroke:#181818;stroke-width:1;"/><line style="stroke:#181818;stroke-width:1;stroke-dasharray:2,2;" x1="106.7974" x2="470.5234" y1="262.5293" y2="262.5293"/><text fill="#000000" font-family="sans-serif" font-size="13" font-weight="bold" lengthAdjust="spacing" textLength="8.5757" x="118.7974" y="257.7871">4</text><text fill="#000000" font-family="sans-serif" font-size="13" lengthAdjust="spacing" textLength="323.0576" x="131.373" y="257.7871">displayFinalSchedule(UpgradeOrder: List&lt;Station&gt;)</text></g><line style="stroke:#000000;stroke-width:1;stroke-dasharray:2,2;" x1="10" x2="517.5723" y1="271.5293" y2="271.5293"/><text fill="#000000" font-family="sans-serif" font-size="11" font-weight="bold" lengthAdjust="spacing" textLength="164.4253" x="15" y="282.1641">[Graph with Cycles Detected]</text><g class="message"
><polygon fill="#181818" points="112.7974,302.7949,102.7974,306.7949,112.7974,310.7949,108.7974,306.7949" style="stroke:#181818;stroke-width:1;"/><line style="stroke:#181818;stroke-width:1;stroke-dasharray:2,2;" x1="106.7974" x2="475.5234" y1="306.7949" y2="306.7949"/><text fill="#000000" font-family="sans-serif" font-size="13" font-weight="bold" lengthAdjust="spacing" textLength="8.5757" x="118.7974" y="302.0527">5</text><text fill="#000000" font-family="sans-serif" font-size="13" lengthAdjust="spacing" textLength="275.1328" x="131.373" y="302.0527">displayAnalysisError(Error: Cycles Detected)</text></g><g class="message"
><polygon fill="#181818" points="459.5234,332.1055,469.5234,336.1055,459.5234,340.1055,463.5234,336.1055" style="stroke:#181818;stroke-width:1;"/><line style="stroke:#181818;stroke-width:1;" x1="101.7974" x2="465.5234" y1="336.1055" y2="336.1055"/><text fill="#000000" font-family="sans-serif" font-size="13" font-weight="bold" lengthAdjust="spacing" textLength="8.5757" x="108.7974" y="331.3633">6</text><text fill="#000000" font-family="sans-serif" font-size="13" lengthAdjust="spacing" textLength="132.6089" x="121.373" y="331.3633">requestCycleDetails()</text></g><g class="message"
><polygon fill="#181818" points="112.7974,361.416,102.7974,365.416,112.7974,369.416,108.7974,365.416" style="stroke:#181818;stroke-width:1;"/><line style="stroke:#181818;stroke-width:1;stroke-dasharray:2,2;" x1="106.7974" x2="470.5234" y1="365.416" y2="365.416"/><text fill="#000000" font-family="sans-serif" font-size="13" font-weight="bold" lengthAdjust="spacing" textLength="8.5757" x="118.7974" y="360.6738">7</text><text fill="#000000" font-family="sans-serif" font-size="13" lengthAdjust="spacing" textLength="333.1504" x="131.373" y="360.6738">displayCycleStations(StationsInvolved, LinksInvolved)</text></g><!--SRC=[XLB1JiCm3BtdAonEdSGEkqve4c83LPeOKja7cCHirhAqEEvG_vwiQmSQXUMGE8xVyxCTPVK4wsAHJoOmXZaBMIK7Imx9NMq47S6Bns2CGQkbm4qUtWMZIcsrbjDZ8Ba1ZBrjAXHbonK6XQA9Ilk4hhKCzVujFH-P-81w1flkXF6iYv-2q4TDKJiDRG27pJhFHj_mdljqmZZ1EwOfE8wLnsO8RnnTKWm9gCESAWgEWctk0_ecSinU1Utkx6UA0tBGApm9LbluPDt2ymeU6kif6aZh7wsFdB8KTakkzfHrobVYZY5BZdfNA2gNOJOov2Fzp75A07FITdxNClNbB4HAoTfzUian6cXJo_lti5g6X4VsSM1ELqIrwAx4cFL67WwbFv2xFVx9tVcQMX3Sq2H_Uxu0]--></g></svg>