<svg xmlns="http://www.w3.org/2000/svg" xmlns:xlink="http://www.w3.org/1999/xlink" contentStyleType="text/css" data-diagram-type="SEQUENCE" height="461px" preserveAspectRatio="none" style="width:749px;height:461px;background:#FFFFFF;" version="1.1" viewBox="0 0 749 461" width="749px" zoomAndPan="magnify"><title>System Sequence Diagram (SSD) - USLP08</title><defs/><g><text fill="#000000" font-family="sans-serif" font-size="14" font-weight="bold" lengthAdjust="spacing" textLength="303.5361" x="221.3435" y="28.5352">System Sequence Diagram (SSD) - USLP08</text><g><title>.System</title><rect fill="#FFFFFF" height="29.3105" style="stroke:#181818;stroke-width:1;" width="10" x="476.9111" y="150.2871"/></g><g><title>.System</title><rect fill="#FFFFFF" height="29.3105" style="stroke:#181818;stroke-width:1;" width="10" x="476.9111" y="208.9082"/></g><g><title>.System</title><rect fill="#FFFFFF" height="95.2422" style="stroke:#181818;stroke-width:1;" width="10" x="476.9111" y="267.5293"/></g><g><title>Freight Manager</title><rect fill="#000000" fill-opacity="0.00000" height="261.7949" width="8" x="59.3164" y="118.9766"/><line style="stroke:#181818;stroke-width:0.5;stroke-dasharray:5,5;" x1="63" x2="63" y1="118.9766" y2="380.7715"/></g><g><title>.System</title><rect fill="#000000" fill-opacity="0.00000" height="261.7949" width="8" x="477.9111" y="118.9766"/><line style="stroke:#181818;stroke-width:0.5;stroke-dasharray:5,5;" x1="481.6475" x2="481.6475" y1="118.9766" y2="380.7715"/></g><g class="participant participant-head" data-participant="FM"><text fill="#000000" font-family="sans-serif" font-size="14" lengthAdjust="spacing" textLength="110.6328" x="5" y="116.0234">Freight Manager</text><ellipse cx="63.3164" cy="50.9883" fill="#E2E2F0" rx="8" ry="8" style="stroke:#181818;stroke-width:0.5;"/><path d="M63.3164,58.9883 L63.3164,85.9883 M50.3164,66.9883 L76.3164,66.9883 M63.3164,85.9883 L50.3164,100.9883 M63.3164,85.9883 L76.3164,100.9883" fill="none" style="stroke:#181818;stroke-width:0.5;"/></g><g class="participant participant-tail" data-participant="FM"><text fill="#000000" font-family="sans-serif" font-size="14" lengthAdjust="spacing" textLength="110.6328" x="5" y="393.3066">Freight Manager</text><ellipse cx="63.3164" cy="404.7598" fill="#E2E2F0" rx="8" ry="8" style="stroke:#181818;stroke-width:0.5;"/><path d="M63.3164,412.7598 L63.3164,439.7598 M50.3164,420.7598 L76.3164,420.7598 M63.3164,439.7598 L50.3164,454.7598 M63.3164,439.7598 L76.3164,454.7598" fill="none" style="stroke:#181818;stroke-width:0.5;"/></g><g class="participant participant-head" data-participant="System"><rect fill="#E2E2F0" height="30.4883" rx="2.5" ry="2.5" style="stroke:#181818;stroke-width:0.5;" width="66.5273" x="448.6475" y="87.4883"/><text fill="#000000" font-family="sans-serif" font-size="14" lengthAdjust="spacing" textLength="52.5273" x="455.6475" y="108.0234">:System</text></g><g class="participant participant-tail" data-participant="System"><rect fill="#E2E2F0" height="30.4883" rx="2.5" ry="2.5" style="stroke:#181818;stroke-width:0.5;" width="66.5273" x="448.6475" y="379.7715"/><text fill="#000000" font-family="sans-serif" font-size="14" lengthAdjust="spacing" textLength="52.5273" x="455.6475" y="400.3066">:System</text></g><g><title>.System</title><rect fill="#FFFFFF" height="29.3105" style="stroke:#181818;stroke-width:1;" width="10" x="476.9111" y="150.2871"/></g><g><title>.System</title><rect fill="#FFFFFF" height="29.3105" style="stroke:#181818;stroke-width:1;" width="10" x="476.9111" y="208.9082"/></g><g><title>.System</title><rect fill="#FFFFFF" height="95.2422" style="stroke:#181818;stroke-width:1;" width="10" x="476.9111" y="267.5293"/></g><g class="message" data-participant-1="FM" data-participant-2="System"><polygon fill="#181818" points="464.9111,146.2871,474.9111,150.2871,464.9111,154.2871,468.9111,150.2871" style="stroke:#181818;stroke-width:1;"/><line style="stroke:#181818;stroke-width:1;" x1="63.3164" x2="470.9111" y1="150.2871" y2="150.2871"/><text fill="#000000" font-family="sans-serif" font-size="13" font-weight="bold" lengthAdjust="spacing" textLength="8.5757" x="70.3164" y="145.5449">1</text><text fill="#000000" font-family="sans-serif" font-size="13" lengthAdjust="spacing" textLength="157.5615" x="82.8921" y="145.5449">requestPendingFreights()</text></g><g class="message" data-participant-1="System" data-participant-2="FM"><polygon fill="#181818" points="74.3164,175.5977,64.3164,179.5977,74.3164,183.5977,70.3164,179.5977" style="stroke:#181818;stroke-width:1;"/><line style="stroke:#181818;stroke-width:1;stroke-dasharray:2,2;" x1="68.3164" x2="480.9111" y1="179.5977" y2="179.5977"/><text fill="#000000" font-family="sans-serif" font-size="13" font-weight="bold" lengthAdjust="spacing" textLength="8.5757" x="80.3164" y="174.8555">2</text><text fill="#000000" font-family="sans-serif" font-size="13" lengthAdjust="spacing" textLength="240.9888" x="92.8921" y="174.8555">displayPendingFreightsList(freightList)</text></g><g class="message" data-participant-1="FM" data-participant-2="System"><polygon fill="#181818" points="464.9111,204.9082,474.9111,208.9082,464.9111,212.9082,468.9111,208.9082" style="stroke:#181818;stroke-width:1;"/><line style="stroke:#181818;stroke-width:1;" x1="63.3164" x2="470.9111" y1="208.9082" y2="208.9082"/><text fill="#000000" font-family="sans-serif" font-size="13" font-weight="bold" lengthAdjust="spacing" textLength="8.5757" x="70.3164" y="204.166">3</text><text fill="#000000" font-family="sans-serif" font-size="13" lengthAdjust="spacing" textLength="223.2661" x="82.8921" y="204.166">defineRouteType(simple | complex)</text></g><g class="message" data-participant-1="System" data-participant-2="FM"><polygon fill="#181818" points="74.3164,234.2188,64.3164,238.2188,74.3164,242.2188,70.3164,238.2188" style="stroke:#181818;stroke-width:1;"/><line style="stroke:#181818;stroke-width:1;stroke-dasharray:2,2;" x1="68.3164" x2="480.9111" y1="238.2188" y2="238.2188"/><text fill="#000000" font-family="sans-serif" font-size="13" font-weight="bold" lengthAdjust="spacing" textLength="8.5757" x="80.3164" y="233.4766">4</text><text fill="#000000" font-family="sans-serif" font-size="13" lengthAdjust="spacing" textLength="314.4692" x="92.8921" y="233.4766">requestRouteDetails(selectedFreights, pathNodes)</text></g><g class="message" data-participant-1="FM" data-participant-2="System"><polygon fill="#181818" points="464.9111,263.5293,474.9111,267.5293,464.9111,271.5293,468.9111,267.5293" style="stroke:#181818;stroke-width:1;"/><line style="stroke:#181818;stroke-width:1;" x1="63.3164" x2="470.9111" y1="267.5293" y2="267.5293"/><text fill="#000000" font-family="sans-serif" font-size="13" font-weight="bold" lengthAdjust="spacing" textLength="8.5757" x="70.3164" y="262.7871">5</text><text fill="#000000" font-family="sans-serif" font-size="13" lengthAdjust="spacing" textLength="248.2124" x="82.8921" y="262.7871">submitRouteAssignment(freights, path)</text></g><path d="M491,280.5293 L491,335.5293 L742,335.5293 L742,290.5293 L732,280.5293 L491,280.5293" fill="#FEFFDD" style="stroke:#181818;stroke-width:0.5;"/><path d="M732,280.5293 L732,290.5293 L742,290.5293 L732,280.5293" fill="#FEFFDD" style="stroke:#181818;stroke-width:0.5;"/><text fill="#000000" font-family="sans-serif" font-size="13" lengthAdjust="spacing" textLength="204.5469" x="497" y="298.0977">The system processes the route.</text><text fill="#000000" font-family="sans-serif" font-size="13" lengthAdjust="spacing" textLength="205.2896" x="497" y="313.4082">Simple: Single shipment (X to Y).</text><text fill="#000000" font-family="sans-serif" font-size="13" lengthAdjust="spacing" textLength="230.2231" x="497" y="328.7188">Complex: Multiple shipments/stops.</text><g class="message" data-participant-1="System" data-participant-2="FM"><polygon fill="#181818" points="74.3164,358.7715,64.3164,362.7715,74.3164,366.7715,70.3164,362.7715" style="stroke:#181818;stroke-width:1;"/><line style="stroke:#181818;stroke-width:1;stroke-dasharray:2,2;" x1="68.3164" x2="480.9111" y1="362.7715" y2="362.7715"/><text fill="#000000" font-family="sans-serif" font-size="13" font-weight="bold" lengthAdjust="spacing" textLength="8.5757" x="80.3164" y="358.0293">6</text><text fill="#000000" font-family="sans-serif" font-size="13" lengthAdjust="spacing" textLength="377.019" x="92.8921" y="358.0293">displayPlannedRoute(stationSequence, cargoOperationsList)</text></g><!--SRC=[ZLBDJiCm3BxdAQoTMcaR754FI8XffnKcEYGuPgtNMcgJ4Bk8IJmyIRiYD3J1AOvZVpzsXAH5A8uis461RpsQ4c55klQwWwGeLYaiuBdORAzlbDAbM0-pjKUg6u5S6rsZdu5cMEVAQIzKajD6O9QDcCFR68RsNgpfkprwfTOvB6uduWnyf6RPegd8r2S2Jj98IUzQ9etgrB48pG4YWuhOjVfurhWXbkGmNcASgWhFaSubL7WWWq-s5zmT7IPCdGkp-OJInk3ZRoqd4mF42aLJombZYwLWDIcRWzFIFDWA-J-YkDztD2BUCLDjEZJVpavWluKfOyF53qkoXoaBi6iGU8HstfR8Z0mIaZuIB4D5CPZEmcdgO9uRSf4HaXSG2wzfhBaVvv51thT2xaSPNx5OnqiLjW5HWxguhrORWzLWB67HGjPCtsyEfVQrVNJeXpnVsk0N]--></g></svg>