<?xml version="1.0" encoding="us-ascii" standalone="no"?><svg xmlns="http://www.w3.org/2000/svg" xmlns:xlink="http://www.w3.org/1999/xlink" contentStyleType="text/css" height="603px" preserveAspectRatio="none" style="width:846px;height:603px;background:#FFFFFF;" version="1.1" viewBox="0 0 846 603" width="846px" zoomAndPan="magnify"><defs/><g><!--class SchedulerService--><g id="elem_SchedulerService"><rect codeLine="6" fill="#F1F1F1" height="36.6211" id="SchedulerService" rx="2.5" ry="2.5" style="stroke:#181818;stroke-width:0.5;" width="117" x="254.5" y="7"/><text fill="#000000" font-family="sans-serif" font-size="14" lengthAdjust="spacing" textLength="111" x="257.5" y="27.1074">SchedulerService</text><line style="stroke:#181818;stroke-width:0.5;" x1="255.5" x2="370.5" y1="35.6211" y2="35.6211"/></g><!--class AutoPathCalculator--><g id="elem_AutoPathCalculator"><rect codeLine="14" fill="#F1F1F1" height="36.6211" id="AutoPathCalculator" rx="2.5" ry="2.5" style="stroke:#181818;stroke-width:0.5;" width="128" x="7" y="141.5"/><text fill="#000000" font-family="sans-serif" font-size="14" lengthAdjust="spacing" textLength="122" x="10" y="161.6074">AutoPathCalculator</text><line style="stroke:#181818;stroke-width:0.5;" x1="8" x2="134" y1="170.1211" y2="170.1211"/></g><!--class PL_SQL_Gateway--><g id="elem_PL_SQL_Gateway"><rect codeLine="18" fill="#F1F1F1" height="36.6211" id="PL_SQL_Gateway" rx="2.5" ry="2.5" style="stroke:#181818;stroke-width:0.5;" width="122" x="170" y="141.5"/><text fill="#000000" font-family="sans-serif" font-size="14" lengthAdjust="spacing" textLength="116" x="173" y="161.6074">PL_SQL_Gateway</text><line style="stroke:#181818;stroke-width:0.5;" x1="171" x2="291" y1="170.1211" y2="170.1211"/></g><!--class SchedulerResult--><g id="elem_SchedulerResult"><rect codeLine="26" fill="#F1F1F1" height="73.8633" id="SchedulerResult" rx="2.5" ry="2.5" style="stroke:#181818;stroke-width:0.5;" width="135" x="327.5" y="123"/><text fill="#000000" font-family="sans-serif" font-size="14" lengthAdjust="spacing" textLength="104" x="343" y="143.1074">SchedulerResult</text><line style="stroke:#181818;stroke-width:0.5;" x1="328.5" x2="461.5" y1="151.6211" y2="151.6211"/><text fill="#000000" font-family="sans-serif" font-size="14" lengthAdjust="spacing" textLength="97" x="333.5" y="170.7285">scheduledTrips</text><text fill="#000000" font-family="sans-serif" font-size="14" lengthAdjust="spacing" textLength="123" x="333.5" y="189.3496">crossingOperations</text></g><!--class TrainTrip--><g id="elem_TrainTrip"><rect codeLine="31" fill="#F1F1F1" height="92.4844" id="TrainTrip" rx="2.5" ry="2.5" style="stroke:#181818;stroke-width:0.5;" width="158" x="442" y="295"/><text fill="#000000" font-family="sans-serif" font-size="14" lengthAdjust="spacing" textLength="58" x="492" y="315.1074">TrainTrip</text><line style="stroke:#181818;stroke-width:0.5;" x1="443" x2="599" y1="323.6211" y2="323.6211"/><text fill="#000000" font-family="sans-serif" font-size="14" lengthAdjust="spacing" textLength="31" x="448" y="342.7285">tripId</text><text fill="#000000" font-family="sans-serif" font-size="14" lengthAdjust="spacing" textLength="146" x="448" y="361.3496">plannedDepartureTime</text><text fill="#000000" font-family="sans-serif" font-size="14" lengthAdjust="spacing" textLength="133" x="448" y="379.9707">actualDepartureTime</text></g><!--class LineSegment--><g id="elem_LineSegment"><rect codeLine="44" fill="#F1F1F1" height="111.1055" id="LineSegment" rx="2.5" ry="2.5" style="stroke:#181818;stroke-width:0.5;" width="154" x="66" y="485"/><text fill="#000000" font-family="sans-serif" font-size="14" lengthAdjust="spacing" textLength="83" x="101.5" y="505.1074">LineSegment</text><line style="stroke:#181818;stroke-width:0.5;" x1="67" x2="219" y1="513.6211" y2="513.6211"/><text fill="#000000" font-family="sans-serif" font-size="14" lengthAdjust="spacing" textLength="65" x="72" y="532.7285">segmentId</text><text fill="#000000" font-family="sans-serif" font-size="14" lengthAdjust="spacing" textLength="65" x="72" y="551.3496">length_km</text><text fill="#000000" font-family="sans-serif" font-size="14" lengthAdjust="spacing" textLength="142" x="72" y="569.9707">maxSpeedAllowedKmh</text><text fill="#000000" font-family="sans-serif" font-size="14" lengthAdjust="spacing" textLength="91" x="72" y="588.5918">numberTracks</text></g><!--class Locomotive--><g id="elem_Locomotive"><rect codeLine="52" fill="#F1F1F1" height="92.4844" id="Locomotive" rx="2.5" ry="2.5" style="stroke:#181818;stroke-width:0.5;" width="104" x="399" y="494.5"/><text fill="#000000" font-family="sans-serif" font-size="14" lengthAdjust="spacing" textLength="72" x="415" y="514.6074">Locomotive</text><line style="stroke:#181818;stroke-width:0.5;" x1="400" x2="502" y1="523.1211" y2="523.1211"/><text fill="#000000" font-family="sans-serif" font-size="14" lengthAdjust="spacing" textLength="78" x="405" y="542.2285">locomotiveId</text><text fill="#000000" font-family="sans-serif" font-size="14" lengthAdjust="spacing" textLength="62" x="405" y="560.8496">power_kw</text><text fill="#000000" font-family="sans-serif" font-size="14" lengthAdjust="spacing" textLength="92" x="405" y="579.4707">tareWeight_kg</text></g><!--class Wagon--><g id="elem_Wagon"><rect codeLine="58" fill="#F1F1F1" height="92.4844" id="Wagon" rx="2.5" ry="2.5" style="stroke:#181818;stroke-width:0.5;" width="106" x="538" y="494.5"/><text fill="#000000" font-family="sans-serif" font-size="14" lengthAdjust="spacing" textLength="45" x="568.5" y="514.6074">Wagon</text><line style="stroke:#181818;stroke-width:0.5;" x1="539" x2="643" y1="523.1211" y2="523.1211"/><text fill="#000000" font-family="sans-serif" font-size="14" lengthAdjust="spacing" textLength="52" x="544" y="542.2285">wagonId</text><text fill="#000000" font-family="sans-serif" font-size="14" lengthAdjust="spacing" textLength="92" x="544" y="560.8496">tareWeight_kg</text><text fill="#000000" font-family="sans-serif" font-size="14" lengthAdjust="spacing" textLength="94" x="544" y="579.4707">loadWeight_kg</text></g><!--class SimulationSegmentEntry--><g id="elem_SimulationSegmentEntry"><rect codeLine="64" fill="#F1F1F1" height="111.1055" id="SimulationSegmentEntry" rx="2.5" ry="2.5" style="stroke:#181818;stroke-width:0.5;" width="160" x="679" y="485"/><text fill="#000000" font-family="sans-serif" font-size="14" lengthAdjust="spacing" textLength="154" x="682" y="505.1074">SimulationSegmentEntry</text><line style="stroke:#181818;stroke-width:0.5;" x1="680" x2="838" y1="513.6211" y2="513.6211"/><text fill="#000000" font-family="sans-serif" font-size="14" lengthAdjust="spacing" textLength="63" x="685" y="532.7285">entryTime</text><text fill="#000000" font-family="sans-serif" font-size="14" lengthAdjust="spacing" textLength="52" x="685" y="551.3496">exitTime</text><text fill="#000000" font-family="sans-serif" font-size="14" lengthAdjust="spacing" textLength="133" x="685" y="569.9707">calculatedSpeedKmh</text><text fill="#000000" font-family="sans-serif" font-size="14" lengthAdjust="spacing" textLength="65" x="685" y="588.5918">segmentId</text></g><!--class CrossingOperation--><g id="elem_CrossingOperation"><rect codeLine="71" fill="#F1F1F1" height="129.7266" id="CrossingOperation" rx="2.5" ry="2.5" style="stroke:#181818;stroke-width:0.5;" width="139" x="256.5" y="276"/><text fill="#000000" font-family="sans-serif" font-size="14" lengthAdjust="spacing" textLength="119" x="266.5" y="296.1074">CrossingOperation</text><line style="stroke:#181818;stroke-width:0.5;" x1="257.5" x2="394.5" y1="304.6211" y2="304.6211"/><text fill="#000000" font-family="sans-serif" font-size="14" lengthAdjust="spacing" textLength="31" x="262.5" y="323.7285">tripId</text><text fill="#000000" font-family="sans-serif" font-size="14" lengthAdjust="spacing" textLength="111" x="262.5" y="342.3496">conflictSegmentId</text><text fill="#000000" font-family="sans-serif" font-size="14" lengthAdjust="spacing" textLength="110" x="262.5" y="360.9707">safeWaitFacilityId</text><text fill="#000000" font-family="sans-serif" font-size="14" lengthAdjust="spacing" textLength="83" x="262.5" y="379.5918">delayMinutes</text><text fill="#000000" font-family="sans-serif" font-size="14" lengthAdjust="spacing" textLength="127" x="262.5" y="398.2129">scheduledMeetTime</text></g><!--link SchedulerService to TrainTrip--><g id="link_SchedulerService_TrainTrip"><path codeLine="80" d="M369.18,44.11 C406.83,58.97 454.1,84.13 480,123 C514.44,174.69 521.6202,241.8507 522.3202,288.6207 " fill="none" id="SchedulerService-to-TrainTrip" style="stroke:#181818;stroke-width:1.0;"/><polygon fill="#181818" points="522.41,294.62,526.2749,285.5611,522.3352,289.6206,518.2758,285.6809,522.41,294.62" style="stroke:#181818;stroke-width:1.0;"/><text fill="#000000" font-family="sans-serif" font-size="13" lengthAdjust="spacing" textLength="59" x="511" y="165.5283">schedules</text><text fill="#000000" font-family="sans-serif" font-size="13" lengthAdjust="spacing" textLength="7" x="376.3378" y="65.5142">1</text><text fill="#000000" font-family="sans-serif" font-size="13" lengthAdjust="spacing" textLength="5" x="517.2499" y="283.5736">*</text></g><!--link SchedulerService to AutoPathCalculator--><g id="link_SchedulerService_AutoPathCalculator"><path codeLine="81" d="M261.78,44.05 C240.34,52.13 215.47,62.49 194,74 C156.71,94 121.7923,119.3273 97.8923,137.7473 " fill="none" id="SchedulerService-to-AutoPathCalculator" style="stroke:#181818;stroke-width:1.0;"/><polygon fill="#181818" points="93.14,141.41,102.7103,139.0842,97.1003,138.3578,97.8267,132.7477,93.14,141.41" style="stroke:#181818;stroke-width:1.0;"/><text fill="#000000" font-family="sans-serif" font-size="13" lengthAdjust="spacing" textLength="28" x="195" y="89.0283">uses</text><text fill="#000000" font-family="sans-serif" font-size="13" lengthAdjust="spacing" textLength="7" x="239.39" y="65.7803">1</text><text fill="#000000" font-family="sans-serif" font-size="13" lengthAdjust="spacing" textLength="7" x="91.8485" y="130.2446">1</text></g><!--link SchedulerService to PL_SQL_Gateway--><g id="link_SchedulerService_PL_SQL_Gateway"><path codeLine="82" d="M271.73,44.07 C259.19,51.47 246.7,61.35 239,74 C226.51,94.51 226.0402,117.1281 227.8102,135.3581 " fill="none" id="SchedulerService-to-PL_SQL_Gateway" style="stroke:#181818;stroke-width:1.0;"/><polygon fill="#181818" points="228.39,141.33,231.5015,131.9856,227.9068,136.3534,223.539,132.7587,228.39,141.33" style="stroke:#181818;stroke-width:1.0;"/><text fill="#000000" font-family="sans-serif" font-size="13" lengthAdjust="spacing" textLength="100" x="240" y="89.0283">queries / persists</text><text fill="#000000" font-family="sans-serif" font-size="13" lengthAdjust="spacing" textLength="7" x="252.1384" y="65.806">1</text><text fill="#000000" font-family="sans-serif" font-size="13" lengthAdjust="spacing" textLength="7" x="219.5188" y="130.1401">1</text></g><!--link SchedulerService to SchedulerResult--><g id="link_SchedulerService_SchedulerResult"><path codeLine="83" d="M325.42,44.37 C331.46,53.21 338.74,64.07 345,74 C354.95,89.79 362.4731,102.3536 371.3031,117.5336 " fill="none" id="SchedulerService-to-SchedulerResult" style="stroke:#181818;stroke-width:1.0;"/><polygon fill="#181818" points="374.32,122.72,373.2523,112.9292,371.806,118.398,366.3371,116.9517,374.32,122.72" style="stroke:#181818;stroke-width:1.0;"/><text fill="#000000" font-family="sans-serif" font-size="13" lengthAdjust="spacing" textLength="53" x="358" y="89.0283">produces</text><text fill="#000000" font-family="sans-serif" font-size="13" lengthAdjust="spacing" textLength="7" x="320.7058" y="65.4977">1</text><text fill="#000000" font-family="sans-serif" font-size="13" lengthAdjust="spacing" textLength="7" x="363.0129" y="111.6319">1</text></g><!--reverse link SchedulerResult to TrainTrip--><g id="link_SchedulerResult_TrainTrip"><path codeLine="85" d="M404.5846,208.7156 C408.5746,224.5356 411.79,231.19 421,246 C432.14,263.9 447.53,280.66 462.9,294.93 " fill="none" id="SchedulerResult-backto-TrainTrip" style="stroke:#181818;stroke-width:1.0;"/><polygon fill="#181818" points="401.65,197.08,399.2388,203.876,404.5846,208.7156,406.9959,201.9196,401.65,197.08" style="stroke:#181818;stroke-width:1.0;"/><text fill="#000000" font-family="sans-serif" font-size="13" lengthAdjust="spacing" textLength="84" x="422" y="242.0283">finalSchedules</text><text fill="#000000" font-family="sans-serif" font-size="13" lengthAdjust="spacing" textLength="7" x="395.1914" y="218.9791">1</text><text fill="#000000" font-family="sans-serif" font-size="13" lengthAdjust="spacing" textLength="5" x="448.6206" y="283.5875">*</text></g><!--reverse link SchedulerResult to CrossingOperation--><g id="link_SchedulerResult_CrossingOperation"><path codeLine="86" d="M335.6941,205.8445 C327.0941,214.5245 327.85,215.98 323,227 C316.36,242.09 314.4,259.44 314.77,275.95 " fill="none" id="SchedulerResult-backto-CrossingOperation" style="stroke:#181818;stroke-width:1.0;"/><polygon fill="#181818" points="344.14,197.32,337.0756,198.7669,335.6941,205.8445,342.7585,204.3975,344.14,197.32" style="stroke:#181818;stroke-width:1.0;"/><text fill="#000000" font-family="sans-serif" font-size="13" lengthAdjust="spacing" textLength="56" x="324" y="242.0283">crossings</text><text fill="#000000" font-family="sans-serif" font-size="13" lengthAdjust="spacing" textLength="7" x="328.1366" y="218.9727">1</text><text fill="#000000" font-family="sans-serif" font-size="13" lengthAdjust="spacing" textLength="5" x="308.2683" y="264.9647">*</text></g><!--reverse link TrainTrip to LineSegment--><g id="link_TrainTrip_LineSegment"><path codeLine="88" d="M436.0891,393.1798 C424.9491,399.6398 423.92,400.08 413,406 C348.88,440.79 274.47,477.3 220.02,503.33 " fill="none" id="TrainTrip-backto-LineSegment" style="stroke:#181818;stroke-width:1.0;"/><polygon fill="#181818" points="446.47,387.16,439.273,386.7096,436.0891,393.1798,443.2862,393.6302,446.47,387.16" style="stroke:#181818;stroke-width:1.0;"/><text fill="#000000" font-family="sans-serif" font-size="13" lengthAdjust="spacing" textLength="29" x="356" y="451.0283">route</text><text fill="#000000" font-family="sans-serif" font-size="13" lengthAdjust="spacing" textLength="7" x="427.5217" y="409.5433">1</text><text fill="#000000" font-family="sans-serif" font-size="13" lengthAdjust="spacing" textLength="20" x="228.0422" y="496.1567">1..*</text></g><!--reverse link TrainTrip to Locomotive--><g id="link_TrainTrip_Locomotive"><path codeLine="89" d="M500.9325,398.6211 C489.5525,430.7411 478.35,462.33 466.98,494.4 " fill="none" id="TrainTrip-backto-Locomotive" style="stroke:#181818;stroke-width:1.0;"/><polygon fill="#181818" points="504.94,387.31,499.1659,391.6297,500.9325,398.6211,506.7066,394.3014,504.94,387.31" style="stroke:#181818;stroke-width:1.0;"/><text fill="#000000" font-family="sans-serif" font-size="13" lengthAdjust="spacing" textLength="27" x="487" y="451.0283">pulls</text><text fill="#000000" font-family="sans-serif" font-size="13" lengthAdjust="spacing" textLength="7" x="495.0671" y="409.3743">1</text><text fill="#000000" font-family="sans-serif" font-size="13" lengthAdjust="spacing" textLength="20" x="447.8583" y="483.3947">1..*</text></g><!--reverse link TrainTrip to Wagon--><g id="link_TrainTrip_Wagon"><path codeLine="90" d="M541.0675,398.6211 C552.4475,430.7411 563.65,462.33 575.02,494.4 " fill="none" id="TrainTrip-backto-Wagon" style="stroke:#181818;stroke-width:1.0;"/><polygon fill="#181818" points="537.06,387.31,535.2934,394.3014,541.0675,398.6211,542.8341,391.6297,537.06,387.31" style="stroke:#181818;stroke-width:1.0;"/><text fill="#000000" font-family="sans-serif" font-size="13" lengthAdjust="spacing" textLength="39" x="561" y="451.0283">carries</text><text fill="#000000" font-family="sans-serif" font-size="13" lengthAdjust="spacing" textLength="7" x="531.9047" y="409.3743">1</text><text fill="#000000" font-family="sans-serif" font-size="13" lengthAdjust="spacing" textLength="20" x="551.2042" y="483.3947">0..*</text></g><!--reverse link TrainTrip to SimulationSegmentEntry--><g id="link_TrainTrip_SimulationSegmentEntry"><path codeLine="91" d="M584.5353,394.7222 C619.5253,423.7522 655.99,454.02 693.06,484.78 " fill="none" id="TrainTrip-backto-SimulationSegmentEntry" style="stroke:#181818;stroke-width:1.0;"/><polygon fill="#181818" points="575.3,387.06,577.3636,393.9695,584.5353,394.7222,582.4717,387.8127,575.3,387.06" style="stroke:#181818;stroke-width:1.0;"/><text fill="#000000" font-family="sans-serif" font-size="13" lengthAdjust="spacing" textLength="98" x="655" y="451.0283">simulationOutput</text><text fill="#000000" font-family="sans-serif" font-size="13" lengthAdjust="spacing" textLength="7" x="576.0787" y="409.428">1</text><text fill="#000000" font-family="sans-serif" font-size="13" lengthAdjust="spacing" textLength="20" x="663.3302" y="473.592">1..*</text></g><!--link LineSegment to LineSegment--><g id="link_LineSegment_LineSegment"><path codeLine="93" d="M220.21,523.07 C240.06,524.18 255,529.99 255,540.5 C255,551.01 246.0506,556.485 226.2006,557.595 " fill="none" id="LineSegment-to-LineSegment" style="stroke:#181818;stroke-width:1.0;"/><polygon fill="#181818" points="220.21,557.93,229.4193,561.4213,225.2022,557.6508,228.9726,553.4337,220.21,557.93" style="stroke:#181818;stroke-width:1.0;"/><text fill="#000000" font-family="sans-serif" font-size="13" lengthAdjust="spacing" textLength="114" x="261" y="546.0283">inverse_segment_id</text><text fill="#000000" font-family="sans-serif" font-size="13" lengthAdjust="spacing" textLength="7" x="227.9027" y="517.6357">1</text><text fill="#000000" font-family="sans-serif" font-size="13" lengthAdjust="spacing" textLength="7" x="227.9027" y="555.8183">1</text></g><!--SRC=[XLHRJzim57xFhx1uMHWhWzTeGaBjc13jw4YdFbQUVPfOTUBCTbhGn7_ViNDjKY0liS_z-yuvJWK7meHc4eBKdJEmgU8c23wHcSgeoCb2SP1aGdx7y-NrLKHk-Pxc33Yvqo2Ir9APC0MrB1LvGWx2fkIsjEXg1IDBYjUbf7cEoY1WaXf3OfO2BoNe6FHUC23_0eBV1Q_ZD0d2kJ3ssqfZ4IijYfilFfmhvxnoO5IoKb8BtcO9Ugjqvbp3rcbe6HS0VAdLLiXth52n1xaI6PWr0ffgPGm2C2CF3KR9FTnAELNvLWfcpR3gy-2r0UvuSH2cTHwb6-XjviV2YenAPzLBHYBYeyv53Z4a6UJsfWkxd6_YN_FD3tG_q9ScP0Bs9zY3qhiPjJGyRwLrW2ajA1DMW0cHzRJJpnLJcR9Y3qjr01rQLyOzxmnyNMlV-u7I86rDTqtOzla9J2bjZuY1fYxPr5BkC1ilOZNpZmLe72YLcov8Iq_jRl5up_snS1C7V0O5rRRKu3hf5PJPaigntC5wKgM5y3JN5Rh6PgG_HPxfKRwc2PRU4opeio_VZsDFlbAMoehQXwIHOzwZYaDCWY3SdEAjHsklf8RIwbRJ8Y5FRBhPPVwMqMUV7eSN-ymVijIBypBx0nghOxkg1nV2nDW22LuMzlErOEjqiXKqZN0JjDaTgWPH3HMspIxfedXowW07TwvzZyshy9IV212BpEqEJaSD_djkTRC7uCvjd-5PsFRIBXttF3G4T9or6QR3CHoF7AltFpvYtD0jhAcmTxXgKjYNMemFAdrPY1o7oHoF_WAWAl3LlS1FKE4ogLk8qRjvTdr69fCRSlRvhBSDKHljFHVydtYE8bAQZzm6pqr4_fQWyHaXNmdIOt0tFWWmtFw855hnac7YOAXpzfydan74hSYfZCSuJxYDcnUrxmfcxAAsJjUNb-ZNtwQ8QBVvxnXtgu1mIYdDATihRriDF1P1jUFjxQ1l33Osk5KybhOeRH3qY-rpVGn2v7li46pg4Ty87lm7]--></g></svg>