<svg xmlns="http://www.w3.org/2000/svg" xmlns:xlink="http://www.w3.org/1999/xlink" contentStyleType="text/css" data-diagram-type="CLASS" height="919px" preserveAspectRatio="none" style="width:813px;height:919px;background:#FFFFFF;" version="1.1" viewBox="0 0 813 919" width="813px" zoomAndPan="magnify"><defs/><g><!--class PickingPlanService--><g class="entity" data-entity="PickingPlanService" data-source-line="12" data-uid="ent0002" id="entity_PickingPlanService"><rect fill="#F1F1F1" height="34.4883" rx="2.5" ry="2.5" style="stroke:#181818;stroke-width:0.5;" width="130.1406" x="130.5" y="118"/><text fill="#000000" font-family="sans-serif" font-size="14" lengthAdjust="spacing" textLength="124.1406" x="133.5" y="136.5352">PickingPlanService</text><line style="stroke:#181818;stroke-width:0.5;" x1="131.5" x2="259.6406" y1="144.4883" y2="144.4883"/></g><!--class PickingPlan--><g class="entity" data-entity="PickingPlan" data-source-line="15" data-uid="ent0003" id="entity_PickingPlan"><rect fill="#F1F1F1" height="83.9531" rx="2.5" ry="2.5" style="stroke:#181818;stroke-width:0.5;" width="82.8086" x="49" y="229"/><text fill="#000000" font-family="sans-serif" font-size="14" lengthAdjust="spacing" textLength="76.8086" x="52" y="247.5352">PickingPlan</text><line style="stroke:#181818;stroke-width:0.5;" x1="50" x2="130.8086" y1="255.4883" y2="255.4883"/><text fill="#000000" font-family="sans-serif" font-size="14" lengthAdjust="spacing" textLength="12.8584" x="55" y="273.0234">id</text><text fill="#000000" font-family="sans-serif" font-size="14" lengthAdjust="spacing" textLength="45.2881" x="55" y="289.5117">weight</text><text fill="#000000" font-family="sans-serif" font-size="14" lengthAdjust="spacing" textLength="58.543" x="55" y="306">heuristic</text></g><!--class Trolley--><g class="entity" data-entity="Trolley" data-source-line="21" data-uid="ent0004" id="entity_Trolley"><rect fill="#F1F1F1" height="67.4648" rx="2.5" ry="2.5" style="stroke:#181818;stroke-width:0.5;" width="57.2881" x="49" y="490"/><text fill="#000000" font-family="sans-serif" font-size="14" lengthAdjust="spacing" textLength="46.3887" x="54.4497" y="508.5352">Trolley</text><line style="stroke:#181818;stroke-width:0.5;" x1="50" x2="105.2881" y1="516.4883" y2="516.4883"/><text fill="#000000" font-family="sans-serif" font-size="14" lengthAdjust="spacing" textLength="12.8584" x="55" y="534.0234">id</text><text fill="#000000" font-family="sans-serif" font-size="14" lengthAdjust="spacing" textLength="45.2881" x="55" y="550.5117">weight</text></g><!--class PickingAssignment--><g class="entity" data-entity="PickingAssignment" data-source-line="26" data-uid="ent0005" id="entity_PickingAssignment"><rect fill="#F1F1F1" height="133.418" rx="2.5" ry="2.5" style="stroke:#181818;stroke-width:0.5;" width="134.7959" x="7" y="618"/><text fill="#000000" font-family="sans-serif" font-size="14" lengthAdjust="spacing" textLength="128.7959" x="10" y="636.5352">PickingAssignment</text><line style="stroke:#181818;stroke-width:0.5;" x1="8" x2="140.7959" y1="644.4883" y2="644.4883"/><text fill="#000000" font-family="sans-serif" font-size="14" lengthAdjust="spacing" textLength="24.0078" x="13" y="662.0234">sku</text><text fill="#000000" font-family="sans-serif" font-size="14" lengthAdjust="spacing" textLength="21.3623" x="13" y="678.5117">qty</text><text fill="#000000" font-family="sans-serif" font-size="14" lengthAdjust="spacing" textLength="38.8418" x="13" y="695">boxId</text><text fill="#000000" font-family="sans-serif" font-size="14" lengthAdjust="spacing" textLength="30.7617" x="13" y="711.4883">aisle</text><text fill="#000000" font-family="sans-serif" font-size="14" lengthAdjust="spacing" textLength="23.8574" x="13" y="727.9766">bay</text><text fill="#000000" font-family="sans-serif" font-size="14" lengthAdjust="spacing" textLength="41.166" x="13" y="744.4648">status</text></g><!--class Allocation--><g class="entity" data-entity="Allocation" data-source-line="35" data-uid="ent0006" id="entity_Allocation"><rect fill="#F1F1F1" height="116.9297" rx="2.5" ry="2.5" style="stroke:#181818;stroke-width:0.5;" width="73.8262" x="158.5" y="343"/><text fill="#000000" font-family="sans-serif" font-size="14" lengthAdjust="spacing" textLength="67.8262" x="161.5" y="361.5352">Allocation</text><line style="stroke:#181818;stroke-width:0.5;" x1="159.5" x2="231.3262" y1="369.4883" y2="369.4883"/><text fill="#000000" font-family="sans-serif" font-size="14" lengthAdjust="spacing" textLength="24.0078" x="164.5" y="387.0234">sku</text><text fill="#000000" font-family="sans-serif" font-size="14" lengthAdjust="spacing" textLength="21.3623" x="164.5" y="403.5117">qty</text><text fill="#000000" font-family="sans-serif" font-size="14" lengthAdjust="spacing" textLength="38.8418" x="164.5" y="420">boxId</text><text fill="#000000" font-family="sans-serif" font-size="14" lengthAdjust="spacing" textLength="30.7617" x="164.5" y="436.4883">aisle</text><text fill="#000000" font-family="sans-serif" font-size="14" lengthAdjust="spacing" textLength="23.8574" x="164.5" y="452.9766">bay</text></g><!--class Item--><g class="entity" data-entity="Item" data-source-line="43" data-uid="ent0007" id="entity_Item"><rect fill="#F1F1F1" height="100.4414" rx="2.5" ry="2.5" style="stroke:#181818;stroke-width:0.5;" width="70.3105" x="99.5" y="812"/><text fill="#000000" font-family="sans-serif" font-size="14" lengthAdjust="spacing" textLength="30.1396" x="119.5854" y="830.5352">Item</text><line style="stroke:#181818;stroke-width:0.5;" x1="100.5" x2="168.8105" y1="838.4883" y2="838.4883"/><text fill="#000000" font-family="sans-serif" font-size="14" lengthAdjust="spacing" textLength="37.29" x="105.5" y="856.0234">name</text><text fill="#000000" font-family="sans-serif" font-size="14" lengthAdjust="spacing" textLength="58.3105" x="105.5" y="872.5117">category</text><text fill="#000000" font-family="sans-serif" font-size="14" lengthAdjust="spacing" textLength="26.6602" x="105.5" y="889">unit</text><text fill="#000000" font-family="sans-serif" font-size="14" lengthAdjust="spacing" textLength="45.2881" x="105.5" y="905.4883">weight</text></g><!--class PackingHeuristic--><g class="entity" data-entity="PackingHeuristic" data-source-line="52" data-uid="ent0008" id="entity_PackingHeuristic"><rect fill="#F1F1F1" height="34.4883" rx="2.5" ry="2.5" style="stroke:#181818;stroke-width:0.5;" width="118.4307" x="340.5" y="254"/><text fill="#000000" font-family="sans-serif" font-size="14" font-style="italic" lengthAdjust="spacing" textLength="112.4307" x="343.5" y="272.5352">PackingHeuristic</text><line style="stroke:#181818;stroke-width:0.5;" x1="341.5" x2="457.9307" y1="280.4883" y2="280.4883"/></g><!--class FirstFitHeuristic--><g class="entity" data-entity="FirstFitHeuristic" data-source-line="55" data-uid="ent0009" id="entity_FirstFitHeuristic"><rect fill="#F1F1F1" height="34.4883" rx="2.5" ry="2.5" style="stroke:#181818;stroke-width:0.5;" width="112.5859" x="249" y="506.5"/><text fill="#000000" font-family="sans-serif" font-size="14" lengthAdjust="spacing" textLength="106.5859" x="252" y="525.0352">FirstFitHeuristic</text><line style="stroke:#181818;stroke-width:0.5;" x1="250" x2="360.5859" y1="532.9883" y2="532.9883"/></g><!--class FirstFitDecreasingHeuristic--><g class="entity" data-entity="FirstFitDecreasingHeuristic" data-source-line="58" data-uid="ent0010" id="entity_FirstFitDecreasingHeuristic"><rect fill="#F1F1F1" height="34.4883" rx="2.5" ry="2.5" style="stroke:#181818;stroke-width:0.5;" width="187.9043" x="397.5" y="506.5"/><text fill="#000000" font-family="sans-serif" font-size="14" lengthAdjust="spacing" textLength="181.9043" x="400.5" y="525.0352">FirstFitDecreasingHeuristic</text><line style="stroke:#181818;stroke-width:0.5;" x1="398.5" x2="584.4043" y1="532.9883" y2="532.9883"/></g><!--class BestFitDecreasingHeuristic--><g class="entity" data-entity="BestFitDecreasingHeuristic" data-source-line="61" data-uid="ent0011" id="entity_BestFitDecreasingHeuristic"><rect fill="#F1F1F1" height="34.4883" rx="2.5" ry="2.5" style="stroke:#181818;stroke-width:0.5;" width="186.4756" x="620.5" y="506.5"/><text fill="#000000" font-family="sans-serif" font-size="14" lengthAdjust="spacing" textLength="180.4756" x="623.5" y="525.0352">BestFitDecreasingHeuristic</text><line style="stroke:#181818;stroke-width:0.5;" x1="621.5" x2="805.9756" y1="532.9883" y2="532.9883"/></g><!--class WarehousePlanner--><g class="entity" data-entity="WarehousePlanner" data-source-line="64" data-uid="ent0012" id="entity_WarehousePlanner"><rect fill="#F1F1F1" height="34.4883" rx="2.5" ry="2.5" style="stroke:#181818;stroke-width:0.5;" width="130.5713" x="130" y="7"/><text fill="#000000" font-family="sans-serif" font-size="14" lengthAdjust="spacing" textLength="124.5713" x="133" y="25.5352">WarehousePlanner</text><line style="stroke:#181818;stroke-width:0.5;" x1="131" x2="259.5713" y1="33.4883" y2="33.4883"/></g><!--link WarehousePlanner to PickingPlanService--><g class="link" data-entity-1="WarehousePlanner" data-entity-2="PickingPlanService" data-source-line="64" data-uid="lnk13" id="link_WarehousePlanner_PickingPlanService"><path codeLine="64" d="M195.5,41.08 C195.5,61.69 195.5,91.21 195.5,111.85" fill="none" id="WarehousePlanner-to-PickingPlanService" style="stroke:#181818;stroke-width:1;"/><polygon fill="#181818" points="195.5,117.85,199.5,108.85,195.5,112.85,191.5,108.85,195.5,117.85" style="stroke:#181818;stroke-width:1;"/><text fill="#000000" font-family="sans-serif" font-size="13" lengthAdjust="spacing" textLength="28.5645" x="196.5" y="84.5684">uses</text></g><!--link PickingPlanService to PackingHeuristic--><g class="link" data-entity-1="PickingPlanService" data-entity-2="PackingHeuristic" data-source-line="66" data-uid="lnk14" id="link_PickingPlanService_PackingHeuristic"><path codeLine="66" d="M221.09,152.35 C241.78,165.57 267.5,182 267.5,182 C267.5,182 331.8173,224.8824 369.9873,250.3224" fill="none" id="PickingPlanService-to-PackingHeuristic" style="stroke:#181818;stroke-width:1;"/><polygon fill="#181818" points="374.98,253.65,369.7093,245.3301,370.8194,250.877,365.2725,251.9871,374.98,253.65" style="stroke:#181818;stroke-width:1;"/><text fill="#000000" font-family="sans-serif" font-size="13" lengthAdjust="spacing" textLength="43.0181" x="294.5" y="195.5684">selects</text></g><!--link PickingPlanService to PickingPlan--><g class="link" data-entity-1="PickingPlanService" data-entity-2="PickingPlan" data-source-line="67" data-uid="lnk15" id="link_PickingPlanService_PickingPlan"><path codeLine="67" d="M157.53,152.48 C127.12,165.68 89.5,182 89.5,182 C89.5,182 89.5,199 89.5,199 C89.5,199 89.6155,207.0806 89.8355,222.7006" fill="none" id="PickingPlanService-to-PickingPlan" style="stroke:#181818;stroke-width:1;"/><polygon fill="#181818" points="89.92,228.7,93.7929,219.6446,89.8496,223.7005,85.7936,219.7572,89.92,228.7" style="stroke:#181818;stroke-width:1;"/><text fill="#000000" font-family="sans-serif" font-size="13" lengthAdjust="spacing" textLength="61.8896" x="90.5" y="195.5684">generates</text></g><!--link PickingPlanService to Allocation--><g class="link" data-entity-1="PickingPlanService" data-entity-2="Allocation" data-source-line="68" data-uid="lnk16" id="link_PickingPlanService_Allocation"><path codeLine="68" d="M195.5,152.15 C195.5,189.16 195.5,275.63 195.5,336.7" fill="none" id="PickingPlanService-to-Allocation" style="stroke:#181818;stroke-width:1;"/><polygon fill="#181818" points="195.5,342.7,199.5,333.7,195.5,337.7,191.5,333.7,195.5,342.7" style="stroke:#181818;stroke-width:1;"/><text fill="#000000" font-family="sans-serif" font-size="13" lengthAdjust="spacing" textLength="62.5117" x="196.5" y="195.5684">processes</text></g><!--link PickingPlan to Trolley--><g class="link" data-entity-1="PickingPlan" data-entity-2="Trolley" data-source-line="70" data-uid="lnk17" id="link_PickingPlan_Trolley"><path codeLine="70" d="M88.35,313.36 C85.79,362.84 81.8513,438.6281 79.5013,483.8681" fill="none" id="PickingPlan-to-Trolley" style="stroke:#181818;stroke-width:1;"/><polygon fill="#181818" points="79.19,489.86,83.6515,481.0796,79.4494,484.8667,75.6623,480.6646,79.19,489.86" style="stroke:#181818;stroke-width:1;"/></g><!--link Trolley to PickingAssignment--><g class="link" data-entity-1="Trolley" data-entity-2="PickingAssignment" data-source-line="71" data-uid="lnk18" id="link_Trolley_PickingAssignment"><path codeLine="71" d="M76.88,557.44 C76.55,574.91 76.2425,591.0011 75.8525,611.8011" fill="none" id="Trolley-to-PickingAssignment" style="stroke:#181818;stroke-width:1;"/><polygon fill="#181818" points="75.74,617.8,79.908,608.8766,75.8337,612.8009,71.9094,608.7266,75.74,617.8" style="stroke:#181818;stroke-width:1;"/></g><!--link PickingAssignment to Item--><g class="link" data-entity-1="PickingAssignment" data-entity-2="Item" data-source-line="72" data-uid="lnk19" id="link_PickingAssignment_Item"><path codeLine="72" d="M97.01,751.35 C103.83,771.29 109.2598,787.1624 115.6398,805.8324" fill="none" id="PickingAssignment-to-Item" style="stroke:#181818;stroke-width:1;"/><polygon fill="#181818" points="117.58,811.51,118.4548,801.7001,115.9632,806.7786,110.8846,804.287,117.58,811.51" style="stroke:#181818;stroke-width:1;"/></g><!--reverse link PackingHeuristic to FirstFitHeuristic--><g class="link" data-entity-1="PackingHeuristic" data-entity-2="FirstFitHeuristic" data-source-line="74" data-uid="lnk20" id="link_PackingHeuristic_FirstFitHeuristic"><path codeLine="74" d="M375.3627,302.6029 C358.8227,323.5729 343.5,343 343.5,343 C343.5,343 318.29,462.07 308.94,506.25" fill="none" id="PackingHeuristic-backto-FirstFitHeuristic" style="stroke:#181818;stroke-width:1;"/><polygon fill="none" points="386.51,288.47,370.6518,298.8871,380.0737,306.3186,386.51,288.47" style="stroke:#181818;stroke-width:1;"/><text fill="#000000" font-family="sans-serif" font-size="13" lengthAdjust="spacing" textLength="74.0137" x="344.5" y="406.5684">implements</text></g><!--reverse link PackingHeuristic to FirstFitDecreasingHeuristic--><g class="link" data-entity-1="PackingHeuristic" data-entity-2="FirstFitDecreasingHeuristic" data-source-line="75" data-uid="lnk21" id="link_PackingHeuristic_FirstFitDecreasingHeuristic"><path codeLine="75" d="M411.7454,305.3365 C428.4154,350.7265 468.75,460.54 485.44,506" fill="none" id="PackingHeuristic-backto-FirstFitDecreasingHeuristic" style="stroke:#181818;stroke-width:1;"/><polygon fill="none" points="405.54,288.44,406.1133,307.405,417.3776,303.268,405.54,288.44" style="stroke:#181818;stroke-width:1;"/><text fill="#000000" font-family="sans-serif" font-size="13" lengthAdjust="spacing" textLength="74.0137" x="468.5" y="406.5684">implements</text></g><!--reverse link PackingHeuristic to BestFitDecreasingHeuristic--><g class="link" data-entity-1="PackingHeuristic" data-entity-2="BestFitDecreasingHeuristic" data-source-line="76" data-uid="lnk22" id="link_PackingHeuristic_BestFitDecreasingHeuristic"><path codeLine="76" d="M451.0596,296.0855 C495.9696,317.0555 551.5,343 551.5,343 C551.5,343 658.96,462.07 698.84,506.25" fill="none" id="PackingHeuristic-backto-BestFitDecreasingHeuristic" style="stroke:#181818;stroke-width:1;"/><polygon fill="none" points="434.75,288.47,448.5211,301.5221,453.5981,290.649,434.75,288.47" style="stroke:#181818;stroke-width:1;"/><text fill="#000000" font-family="sans-serif" font-size="13" lengthAdjust="spacing" textLength="74.0137" x="656.5" y="406.5684">implements</text></g><!--link Allocation to Item--><g class="link" data-entity-1="Allocation" data-entity-2="Item" data-source-line="78" data-uid="lnk23" id="link_Allocation_Item"><path codeLine="78" d="M189.51,460.44 C179.28,559.54 159.5,751 159.5,751 C159.5,751 153.6703,776.6493 147.0103,805.9393" fill="none" id="Allocation-to-Item" style="stroke:#181818;stroke-width:1;"/><polygon fill="#181818" points="145.68,811.79,151.5759,803.9009,146.7886,806.9145,143.7751,802.1271,145.68,811.79" style="stroke:#181818;stroke-width:1;"/></g><!--SRC=[bLBBJiD03BpdA_m3bJX72Aa88NghL2JExjOaLZUxOUrGmkFVsMoAcgOfXLns4y-Cu_6Kl24m78obhEpk5MdfDvB9bbsD0IkeqMone9MsbY2GKNH5H1y0KkB6xzWLy8nMXXNBZhIj2Mfls-vbK3CMHUQgWTUDqi9uj-9tWgkiUw0lmv9D91HBYsv5uPKDmKSiVaqYKWc0D-dO4HUbfcj9JM1HDiVKn-2jfVOCxRJ7N8GBLv7JFKMsJJfVj4tdshyjUXLaYHQbRzZNH54RETQTM-iDAdltRy61oaAfslCTLZqegbBXGw_IEDQJsJe-EwNmZD7K9QO97twC6hjypq7qdlKYu8vC89JVj6xf4l890vM-4UgswYZ0R7Op5OKS8aQoRAAK6EEXSX2oCS1obZ48Kmu5nTxHoBFmmVvog8Ct9EF_IRXzqBAVm0rQ7JALdQQimtNRZOhZKQu_PxE9hUJ0LMsfOyi5qfJ_Vw3_ihqZTZOmvp37Dm00]--></g></svg>