<?xml version="1.0" encoding="us-ascii" standalone="no"?><svg xmlns="http://www.w3.org/2000/svg" xmlns:xlink="http://www.w3.org/1999/xlink" contentStyleType="text/css" height="531px" preserveAspectRatio="none" style="width:278px;height:531px;background:#FFFFFF;" version="1.1" viewBox="0 0 278 531" width="278px" zoomAndPan="magnify"><defs/><g><text fill="#000000" font-family="sans-serif" font-size="14" font-weight="bold" lengthAdjust="spacing" textLength="250" x="10" y="25.1074">USEI06 - Station Index &amp; Query (DM)</text><!--class StationQueryService--><g id="elem_StationQueryService"><rect codeLine="11" fill="#F1F1F1" height="36.6211" id="StationQueryService" rx="2.5" ry="2.5" style="stroke:#181818;stroke-width:0.5;" width="136" x="118.75" y="46.6211"/><text fill="#000000" font-family="sans-serif" font-size="14" lengthAdjust="spacing" textLength="130" x="121.75" y="66.7285">StationQueryService</text><line style="stroke:#181818;stroke-width:0.5;" x1="119.75" x2="253.75" y1="75.2422" y2="75.2422"/></g><!--class StationIndexManager--><g id="elem_StationIndexManager"><rect codeLine="16" fill="#F1F1F1" height="36.6211" id="StationIndexManager" rx="2.5" ry="2.5" style="stroke:#181818;stroke-width:0.5;" width="139" x="56.25" y="162.6211"/><text fill="#000000" font-family="sans-serif" font-size="14" lengthAdjust="spacing" textLength="133" x="59.25" y="182.7285">StationIndexManager</text><line style="stroke:#181818;stroke-width:0.5;" x1="57.25" x2="194.25" y1="191.2422" y2="191.2422"/></g><!--class BST--><g id="elem_BST"><rect codeLine="20" fill="#F1F1F1" height="36.6211" id="BST" rx="2.5" ry="2.5" style="stroke:#181818;stroke-width:0.5;" width="33" x="27.25" y="278.6211"/><text fill="#000000" font-family="sans-serif" font-size="14" lengthAdjust="spacing" textLength="27" x="30.25" y="298.7285">BST</text><line style="stroke:#181818;stroke-width:0.5;" x1="28.25" x2="59.25" y1="307.2422" y2="307.2422"/></g><!--class AVLTree--><g id="elem_AVLTree"><rect codeLine="23" fill="#F1F1F1" height="36.6211" id="AVLTree" rx="2.5" ry="2.5" style="stroke:#181818;stroke-width:0.5;" width="62" x="112.75" y="278.6211"/><text fill="#000000" font-family="sans-serif" font-size="14" lengthAdjust="spacing" textLength="56" x="115.75" y="298.7285">AVLTree</text><line style="stroke:#181818;stroke-width:0.5;" x1="113.75" x2="173.75" y1="307.2422" y2="307.2422"/></g><!--class EuropeanStation--><g id="elem_EuropeanStation"><rect codeLine="28" fill="#F1F1F1" height="129.7266" id="EuropeanStation" rx="2.5" ry="2.5" style="stroke:#181818;stroke-width:0.5;" width="112" x="87.75" y="394.6211"/><text fill="#000000" font-family="sans-serif" font-size="14" lengthAdjust="spacing" textLength="106" x="90.75" y="414.7285">EuropeanStation</text><line style="stroke:#181818;stroke-width:0.5;" x1="88.75" x2="198.75" y1="423.2422" y2="423.2422"/><text fill="#000000" font-family="sans-serif" font-size="14" lengthAdjust="spacing" textLength="78" x="93.75" y="442.3496">stationName</text><text fill="#000000" font-family="sans-serif" font-size="14" lengthAdjust="spacing" textLength="46" x="93.75" y="460.9707">latitude</text><text fill="#000000" font-family="sans-serif" font-size="14" lengthAdjust="spacing" textLength="58" x="93.75" y="479.5918">longitude</text><text fill="#000000" font-family="sans-serif" font-size="14" lengthAdjust="spacing" textLength="47" x="93.75" y="498.2129">country</text><text fill="#000000" font-family="sans-serif" font-size="14" lengthAdjust="spacing" textLength="98" x="93.75" y="516.834">timeZoneGroup</text></g><!--link StationQueryService to StationIndexManager--><g id="link_StationQueryService_StationIndexManager"><path codeLine="40" d="M177.22,83.9311 C165.76,105.3511 149.4709,135.7809 138.0409,157.1409 " fill="none" id="StationQueryService-to-StationIndexManager" style="stroke:#181818;stroke-width:1.0;"/><polygon fill="#181818" points="135.21,162.4311,142.9831,156.383,137.569,158.0226,135.9295,152.6086,135.21,162.4311" style="stroke:#181818;stroke-width:1.0;"/><text fill="#000000" font-family="sans-serif" font-size="13" lengthAdjust="spacing" textLength="28" x="160.75" y="128.6494">uses</text></g><!--link StationQueryService to EuropeanStation--><g id="link_StationQueryService_EuropeanStation"><path codeLine="41" d="M191.52,83.8211 C199.02,111.6811 212.75,162.6211 212.75,162.6211 C212.75,162.6211 212.75,199.6211 212.75,199.6211 C212.75,199.6211 209.75,248.6211 209.75,248.6211 C209.75,248.6211 198.75,364.6211 198.75,364.6211 C198.75,364.6211 194.051,372.663 184.381,389.183 " fill="none" id="StationQueryService-to-EuropeanStation" style="stroke:#181818;stroke-width:1.0;"/><polygon fill="#181818" points="181.35,394.3611,189.3486,388.6146,183.8758,390.046,182.4444,384.5732,181.35,394.3611" style="stroke:#181818;stroke-width:1.0;"/><polygon fill="#000000" points="215.6331,244.2652,218.7827,235.2913,212.9064,235.1539,215.6331,244.2652" style="stroke:#000000;stroke-width:1.0;"/><text fill="#000000" font-family="sans-serif" font-size="13" lengthAdjust="spacing" textLength="31" x="224.75" y="244.6494">loads</text></g><!--reverse link StationIndexManager to BST--><g id="link_StationIndexManager_BST"><path codeLine="45" d="M91.8602,206.8897 C73.3802,220.3897 60.75,229.6211 60.75,229.6211 C60.75,229.6211 53.34,258.6011 48.31,278.3011 " fill="none" id="StationIndexManager-backto-BST" style="stroke:#181818;stroke-width:1.0;"/><polygon fill="#181818" points="101.55,199.8111,94.3455,200.1205,91.8602,206.8897,99.0646,206.5804,101.55,199.8111" style="stroke:#181818;stroke-width:1.0;"/><text fill="#000000" font-family="sans-serif" font-size="13" lengthAdjust="spacing" textLength="63" x="61.75" y="244.6494">uses index</text><text fill="#000000" font-family="sans-serif" font-size="13" lengthAdjust="spacing" textLength="7" x="87.1056" y="221.2367">1</text><text fill="#000000" font-family="sans-serif" font-size="13" lengthAdjust="spacing" textLength="20" x="26.712" y="267.4026">1..*</text></g><!--reverse link StationIndexManager to AVLTree--><g id="link_StationIndexManager_AVLTree"><path codeLine="46" d="M130.4304,211.7844 C133.8104,233.2044 137.58,257.0711 140.96,278.4311 " fill="none" id="StationIndexManager-backto-AVLTree" style="stroke:#181818;stroke-width:1.0;"/><polygon fill="#181818" points="128.56,199.9311,125.5441,206.4812,130.4304,211.7844,133.4463,205.2343,128.56,199.9311" style="stroke:#181818;stroke-width:1.0;"/><text fill="#000000" font-family="sans-serif" font-size="13" lengthAdjust="spacing" textLength="63" x="137.75" y="244.6494">uses index</text><text fill="#000000" font-family="sans-serif" font-size="13" lengthAdjust="spacing" textLength="7" x="121.3746" y="221.389">1</text><text fill="#000000" font-family="sans-serif" font-size="13" lengthAdjust="spacing" textLength="20" x="117.0431" y="267.2351">1..*</text></g><!--reverse link BST to EuropeanStation--><g id="link_BST_EuropeanStation"><path codeLine="49" d="M61.1755,326.0961 C73.0255,345.1161 86.16,366.1911 103.87,394.6211 " fill="none" id="BST-backto-EuropeanStation" style="stroke:#181818;stroke-width:1.0;"/><polygon fill="none" points="54.83,315.9111,54.6078,323.1188,61.1755,326.0961,61.3978,318.8884,54.83,315.9111" style="stroke:#181818;stroke-width:1.0;"/><text fill="#000000" font-family="sans-serif" font-size="13" lengthAdjust="spacing" textLength="45" x="86.75" y="360.6494">indexes</text><text fill="#000000" font-family="sans-serif" font-size="13" lengthAdjust="spacing" textLength="20" x="78.1026" y="383.1836">1..*</text></g><!--reverse link AVLTree to EuropeanStation--><g id="link_AVLTree_EuropeanStation"><path codeLine="50" d="M143.75,327.9111 C143.75,346.9311 143.75,366.1911 143.75,394.6211 " fill="none" id="AVLTree-backto-EuropeanStation" style="stroke:#181818;stroke-width:1.0;"/><polygon fill="none" points="143.75,315.9111,139.75,321.9111,143.75,327.9111,147.75,321.9111,143.75,315.9111" style="stroke:#181818;stroke-width:1.0;"/><text fill="#000000" font-family="sans-serif" font-size="13" lengthAdjust="spacing" textLength="45" x="144.75" y="360.6494">indexes</text><text fill="#000000" font-family="sans-serif" font-size="13" lengthAdjust="spacing" textLength="20" x="122.5938" y="383.1836">1..*</text></g><!--SRC=[ZLDDZzD03BtFhx1wODiLBSk5mnvMwcehL6aN0Ubou3PCdCRgP2RCE40MyT_nv8EcKAGznHxRxzdF3XDRXCTiixrw0ql8M3Dv1rkNumzu0HyQ32tCxnuMIfMK8nWAnc9lLyYbpwEA1tAr3hg2Mfk3tcF6hO06DApTNhAF2R7KkVzERW-5jd4QiUIGsngXzhPDpYHch8vnpHpeIyEuDTvbz8HmfLGN6RlkciqmV2E3y5C1NC2zrtc4NBC6xNBmmPGOEMZ625ybdJ2gNqfTmAwasFD0wQtKS8cGKr5WGCT0IG_9FU7hH7hGJYOEmZVW8CGQ3HM4UKyiV8tX9lmflyrsGtlpMt9Q1CvGIsUm2uWBmUdJrf_kqyEOcg4jbhVQQcUIVWAoE58Q7n3kVAN9mSOnSJk0R9hWQzHkN6m2YxtzJbSedXM7cxmplTkFjl6Duz2AnLJXP-_mRV1DtLD-HDj1n9BgAFvxwSg92FErOHyMq4Ji5OpzDYOfo-NDsNrTTqLAdOjDQauq7sh-L_BtxDSoO3g7cr6rQi3fDrurbgcMm-MaEZcHoHcPe_1XSWa7RDF4SrpjLoz1PEdYeuYJbr7BunC_lHfKNQXpuynUp-1okPJlQdKvwywadx0_l-VKZ3TpKZTCcyQAilnqAjrk1bdIaQf4veyu_qet_W4ZmxEIVmC0]--></g></svg>