<?xml version="1.0" encoding="us-ascii" standalone="no"?><svg xmlns="http://www.w3.org/2000/svg" xmlns:xlink="http://www.w3.org/1999/xlink" contentStyleType="text/css" height="596px" preserveAspectRatio="none" style="width:485px;height:596px;background:#FFFFFF;" version="1.1" viewBox="0 0 485 596" width="485px" zoomAndPan="magnify"><defs/><g><rect fill="none" height="124.5039" style="stroke:#000000;stroke-width:1.5;" width="246.5" x="198" y="296.0762"/><line style="stroke:#181818;stroke-width:0.5;stroke-dasharray:5.0,5.0;" x1="60" x2="60" y1="83.6211" y2="513.1621"/><line style="stroke:#181818;stroke-width:0.5;stroke-dasharray:5.0,5.0;" x1="232" x2="232" y1="83.6211" y2="513.1621"/><text fill="#000000" font-family="sans-serif" font-size="14" lengthAdjust="spacing" textLength="105" x="5" y="80.1074">Quality Operator</text><ellipse cx="60.5" cy="13.5" fill="#E2E2F0" rx="8" ry="8" style="stroke:#181818;stroke-width:0.5;"/><path d="M60.5,21.5 L60.5,48.5 M47.5,29.5 L73.5,29.5 M60.5,48.5 L47.5,63.5 M60.5,48.5 L73.5,63.5 " fill="none" style="stroke:#181818;stroke-width:0.5;"/><text fill="#000000" font-family="sans-serif" font-size="14" lengthAdjust="spacing" textLength="105" x="5" y="527.2695">Quality Operator</text><ellipse cx="60.5" cy="539.2832" fill="#E2E2F0" rx="8" ry="8" style="stroke:#181818;stroke-width:0.5;"/><path d="M60.5,547.2832 L60.5,574.2832 M47.5,555.2832 L73.5,555.2832 M60.5,574.2832 L47.5,589.2832 M60.5,574.2832 L73.5,589.2832 " fill="none" style="stroke:#181818;stroke-width:0.5;"/><text fill="#000000" font-family="sans-serif" font-size="14" lengthAdjust="spacing" textLength="33" x="213" y="80.1074">WMS</text><path d="M212,37 L212,61 M212,49 L229,49 " fill="none" style="stroke:#181818;stroke-width:0.5;"/><ellipse cx="241" cy="49" fill="#E2E2F0" rx="12" ry="12" style="stroke:#181818;stroke-width:0.5;"/><text fill="#000000" font-family="sans-serif" font-size="14" lengthAdjust="spacing" textLength="33" x="213" y="527.2695">WMS</text><path d="M212,534.7832 L212,558.7832 M212,546.7832 L229,546.7832 " fill="none" style="stroke:#181818;stroke-width:0.5;"/><ellipse cx="241" cy="546.7832" fill="#E2E2F0" rx="12" ry="12" style="stroke:#181818;stroke-width:0.5;"/><polygon fill="#181818" points="220.5,112.9121,230.5,116.9121,220.5,120.9121,224.5,116.9121" style="stroke:#181818;stroke-width:1.0;"/><line style="stroke:#181818;stroke-width:1.0;" x1="60.5" x2="226.5" y1="116.9121" y2="116.9121"/><text fill="#000000" font-family="sans-serif" font-size="13" lengthAdjust="spacing" textLength="107" x="67.5" y="111.6494">Upload returns.csv</text><line style="stroke:#181818;stroke-width:1.0;" x1="232.5" x2="274.5" y1="148.2031" y2="148.2031"/><line style="stroke:#181818;stroke-width:1.0;" x1="274.5" x2="274.5" y1="148.2031" y2="161.2031"/><line style="stroke:#181818;stroke-width:1.0;" x1="233.5" x2="274.5" y1="161.2031" y2="161.2031"/><polygon fill="#181818" points="243.5,157.2031,233.5,161.2031,243.5,165.2031,239.5,161.2031" style="stroke:#181818;stroke-width:1.0;"/><text fill="#000000" font-family="sans-serif" font-size="13" lengthAdjust="spacing" textLength="94" x="239.5" y="142.9404">Validate records</text><line style="stroke:#181818;stroke-width:1.0;" x1="232.5" x2="274.5" y1="192.4941" y2="192.4941"/><line style="stroke:#181818;stroke-width:1.0;" x1="274.5" x2="274.5" y1="192.4941" y2="205.4941"/><line style="stroke:#181818;stroke-width:1.0;" x1="233.5" x2="274.5" y1="205.4941" y2="205.4941"/><polygon fill="#181818" points="243.5,201.4941,233.5,205.4941,243.5,209.4941,239.5,205.4941" style="stroke:#181818;stroke-width:1.0;"/><text fill="#000000" font-family="sans-serif" font-size="13" lengthAdjust="spacing" textLength="239" x="239.5" y="187.2314">Push returns into quarantine stack (LIFO)</text><polygon fill="#181818" points="220.5,232.7852,230.5,236.7852,220.5,240.7852,224.5,236.7852" style="stroke:#181818;stroke-width:1.0;"/><line style="stroke:#181818;stroke-width:1.0;" x1="60.5" x2="226.5" y1="236.7852" y2="236.7852"/><text fill="#000000" font-family="sans-serif" font-size="13" lengthAdjust="spacing" textLength="148" x="67.5" y="231.5225">Process quarantine items</text><line style="stroke:#181818;stroke-width:1.0;" x1="232.5" x2="274.5" y1="268.0762" y2="268.0762"/><line style="stroke:#181818;stroke-width:1.0;" x1="274.5" x2="274.5" y1="268.0762" y2="281.0762"/><line style="stroke:#181818;stroke-width:1.0;" x1="233.5" x2="274.5" y1="281.0762" y2="281.0762"/><polygon fill="#181818" points="243.5,277.0762,233.5,281.0762,243.5,285.0762,239.5,281.0762" style="stroke:#181818;stroke-width:1.0;"/><text fill="#000000" font-family="sans-serif" font-size="13" lengthAdjust="spacing" textLength="115" x="239.5" y="262.8135">Inspect latest return</text><path d="M198,296.0762 L259,296.0762 L259,305.3672 L249,315.3672 L198,315.3672 L198,296.0762 " fill="#EEEEEE" style="stroke:#000000;stroke-width:1.5;"/><rect fill="none" height="124.5039" style="stroke:#000000;stroke-width:1.5;" width="246.5" x="198" y="296.0762"/><text fill="#000000" font-family="sans-serif" font-size="13" font-weight="bold" lengthAdjust="spacing" textLength="16" x="213" y="311.1045">alt</text><text fill="#000000" font-family="sans-serif" font-size="11" font-weight="bold" lengthAdjust="spacing" textLength="78" x="274" y="309.9463">[Valid &amp; Good]</text><line style="stroke:#181818;stroke-width:1.0;" x1="232.5" x2="274.5" y1="338.6582" y2="338.6582"/><line style="stroke:#181818;stroke-width:1.0;" x1="274.5" x2="274.5" y1="338.6582" y2="351.6582"/><line style="stroke:#181818;stroke-width:1.0;" x1="233.5" x2="274.5" y1="351.6582" y2="351.6582"/><polygon fill="#181818" points="243.5,347.6582,233.5,351.6582,243.5,355.6582,239.5,351.6582" style="stroke:#181818;stroke-width:1.0;"/><text fill="#000000" font-family="sans-serif" font-size="13" lengthAdjust="spacing" textLength="193" x="239.5" y="333.3955">Restock item (create box RET-id)</text><line style="stroke:#000000;stroke-width:1.0;stroke-dasharray:2.0,2.0;" x1="198" x2="444.5" y1="360.6582" y2="360.6582"/><text fill="#000000" font-family="sans-serif" font-size="11" font-weight="bold" lengthAdjust="spacing" textLength="103" x="203" y="372.5283">[Damaged/Expired]</text><line style="stroke:#181818;stroke-width:1.0;" x1="232.5" x2="274.5" y1="399.5801" y2="399.5801"/><line style="stroke:#181818;stroke-width:1.0;" x1="274.5" x2="274.5" y1="399.5801" y2="412.5801"/><line style="stroke:#181818;stroke-width:1.0;" x1="233.5" x2="274.5" y1="412.5801" y2="412.5801"/><polygon fill="#181818" points="243.5,408.5801,233.5,412.5801,243.5,416.5801,239.5,412.5801" style="stroke:#181818;stroke-width:1.0;"/><text fill="#000000" font-family="sans-serif" font-size="13" lengthAdjust="spacing" textLength="73" x="239.5" y="394.3174">Discard item</text><line style="stroke:#181818;stroke-width:1.0;" x1="232.5" x2="274.5" y1="450.8711" y2="450.8711"/><line style="stroke:#181818;stroke-width:1.0;" x1="274.5" x2="274.5" y1="450.8711" y2="463.8711"/><line style="stroke:#181818;stroke-width:1.0;" x1="233.5" x2="274.5" y1="463.8711" y2="463.8711"/><polygon fill="#181818" points="243.5,459.8711,233.5,463.8711,243.5,467.8711,239.5,463.8711" style="stroke:#181818;stroke-width:1.0;"/><text fill="#000000" font-family="sans-serif" font-size="13" lengthAdjust="spacing" textLength="98" x="239.5" y="445.6084">Append log entry</text><polygon fill="#181818" points="71.5,491.1621,61.5,495.1621,71.5,499.1621,67.5,495.1621" style="stroke:#181818;stroke-width:1.0;"/><line style="stroke:#181818;stroke-width:1.0;" x1="65.5" x2="231.5" y1="495.1621" y2="495.1621"/><text fill="#000000" font-family="sans-serif" font-size="13" lengthAdjust="spacing" textLength="123" x="77.5" y="489.8994">Processing summary</text><!--SRC=[TL79JWCn3BtdAwmveFOmS4S82Qa5LGArj2ndDx66Y4mos0xg_3tf1XKCkSNl-IqoMaqCrMF6uBM7UKUCPL81olV7h5EE3hc7wlLXjODMlIYrnXmfK5yVPfVmt8M43fWqSvHpAvzc3vsINegVGwL2iucT350MMTwEAk2Z9lZ8o1ZLHm9HjEymkf_TpiU3AHQSB8cSxlW231dDedHa5KB98tgmD1XqdnBEu2ubPw2ylylBif9AbAquZ2pJjjGwRM0vVQgz6niAGZ315Xjo5zDDvvd-qvfuiSXkfsKeke6iDrrN00Yf0OhA_K_tg_ftTnyRaDosvN9V]--></g></svg>