<svg xmlns="http://www.w3.org/2000/svg" xmlns:xlink="http://www.w3.org/1999/xlink" contentStyleType="text/css" height="808px" preserveAspectRatio="none" style="width:545px;height:808px;background:#FFFFFF;" version="1.1" viewBox="0 0 545 808" width="545px" zoomAndPan="magnify"><title>USEI14 - Class Diagram</title><defs/><g><text fill="#000000" font-family="sans-serif" font-size="14" font-weight="bold" lengthAdjust="spacing" textLength="172.4912" x="179.3992" y="23.5352">USEI14 - Class Diagram</text><!--class MaxFlowUI--><g id="elem_MaxFlowUI"><rect codeLine="10" fill="#F1F1F1" height="40" id="MaxFlowUI" rx="2.5" ry="2.5" style="stroke:#181818;stroke-width:0.5;" width="105.0488" x="215.75" y="44.4883"/><ellipse cx="230.75" cy="60.4883" fill="#ADD1B2" rx="11" ry="11" style="stroke:#181818;stroke-width:1.0;"/><path d="M233.7231,66.1313 Q233.1421,66.4302 232.5029,66.5796 Q231.8638,66.729 231.1582,66.729 Q228.6514,66.729 227.3315,65.0771 Q226.0117,63.4253 226.0117,60.3042 Q226.0117,57.1748 227.3315,55.5229 Q228.6514,53.8711 231.1582,53.8711 Q231.8638,53.8711 232.5112,54.0205 Q233.1587,54.1699 233.7231,54.4688 L233.7231,57.1914 Q233.0923,56.6104 232.4988,56.3406 Q231.9053,56.0708 231.2744,56.0708 Q229.9297,56.0708 229.2449,57.1375 Q228.5601,58.2041 228.5601,60.3042 Q228.5601,62.396 229.2449,63.4626 Q229.9297,64.5293 231.2744,64.5293 Q231.9053,64.5293 232.4988,64.2595 Q233.0923,63.9897 233.7231,63.4087 Z " fill="#000000"/><text fill="#000000" font-family="sans-serif" font-size="14" lengthAdjust="spacing" textLength="73.0488" x="244.75" y="65.7793">MaxFlowUI</text><line style="stroke:#181818;stroke-width:0.5;" x1="216.75" x2="319.7988" y1="76.4883" y2="76.4883"/></g><!--class MaxFlowController--><g id="elem_MaxFlowController"><rect codeLine="14" fill="#F1F1F1" height="40" id="MaxFlowController" rx="2.5" ry="2.5" style="stroke:#181818;stroke-width:0.5;" width="159.4766" x="188.54" y="161.4883"/><ellipse cx="203.54" cy="177.4883" fill="#ADD1B2" rx="11" ry="11" style="stroke:#181818;stroke-width:1.0;"/><path d="M206.5131,183.1313 Q205.9321,183.4302 205.2929,183.5796 Q204.6538,183.729 203.9482,183.729 Q201.4414,183.729 200.1215,182.0771 Q198.8017,180.4253 198.8017,177.3042 Q198.8017,174.1748 200.1215,172.5229 Q201.4414,170.8711 203.9482,170.8711 Q204.6538,170.8711 205.3012,171.0205 Q205.9487,171.1699 206.5131,171.4688 L206.5131,174.1914 Q205.8823,173.6104 205.2888,173.3406 Q204.6953,173.0708 204.0644,173.0708 Q202.7197,173.0708 202.0349,174.1375 Q201.3501,175.2041 201.3501,177.3042 Q201.3501,179.396 202.0349,180.4626 Q202.7197,181.5293 204.0644,181.5293 Q204.6953,181.5293 205.2888,181.2595 Q205.8823,180.9897 206.5131,180.4087 Z " fill="#000000"/><text fill="#000000" font-family="sans-serif" font-size="14" lengthAdjust="spacing" textLength="127.4766" x="217.54" y="182.7793">MaxFlowController</text><line style="stroke:#181818;stroke-width:0.5;" x1="189.54" x2="347.0166" y1="193.4883" y2="193.4883"/></g><!--class RailwayNetworkManager--><g id="elem_RailwayNetworkManager"><rect codeLine="18" fill="#F1F1F1" height="56.4883" id="RailwayNetworkManager" rx="2.5" ry="2.5" style="stroke:#181818;stroke-width:0.5;" width="198.7783" x="168.89" y="278.4883"/><ellipse cx="184.3954" cy="294.4883" fill="#ADD1B2" rx="11" ry="11" style="stroke:#181818;stroke-width:1.0;"/><path d="M187.3685,300.1313 Q186.7875,300.4302 186.1483,300.5796 Q185.5091,300.729 184.8036,300.729 Q182.2967,300.729 180.9769,299.0771 Q179.6571,297.4253 179.6571,294.3042 Q179.6571,291.1748 180.9769,289.5229 Q182.2967,287.8711 184.8036,287.8711 Q185.5091,287.8711 186.1566,288.0205 Q186.8041,288.1699 187.3685,288.4688 L187.3685,291.1914 Q186.7377,290.6104 186.1442,290.3406 Q185.5506,290.0708 184.9198,290.0708 Q183.5751,290.0708 182.8902,291.1375 Q182.2054,292.2041 182.2054,294.3042 Q182.2054,296.396 182.8902,297.4626 Q183.5751,298.5293 184.9198,298.5293 Q185.5506,298.5293 186.1442,298.2595 Q186.7377,297.9897 187.3685,297.4087 Z " fill="#000000"/><text fill="#000000" font-family="sans-serif" font-size="14" lengthAdjust="spacing" textLength="165.6553" x="198.5077" y="299.7793">RailwayNetworkManager</text><line style="stroke:#181818;stroke-width:0.5;" x1="169.89" x2="366.6683" y1="310.4883" y2="310.4883"/><text fill="#000000" font-family="sans-serif" font-size="14" lengthAdjust="spacing" textLength="186.7783" x="174.89" y="328.0234">-railNetwork: RailwayGraph</text></g><!--class Station--><g id="elem_Station"><rect codeLine="23" fill="#F1F1F1" height="72.9766" id="Station" rx="2.5" ry="2.5" style="stroke:#181818;stroke-width:0.5;" width="154.5498" x="7" y="728.4183"/><ellipse cx="56.4854" cy="744.4183" fill="#ADD1B2" rx="11" ry="11" style="stroke:#181818;stroke-width:1.0;"/><path d="M59.4585,750.0613 Q58.8774,750.3602 58.2383,750.5096 Q57.5991,750.659 56.8936,750.659 Q54.3867,750.659 53.0669,749.0071 Q51.7471,747.3553 51.7471,744.2342 Q51.7471,741.1048 53.0669,739.4529 Q54.3867,737.8011 56.8936,737.8011 Q57.5991,737.8011 58.2466,737.9505 Q58.894,738.0999 59.4585,738.3988 L59.4585,741.1214 Q58.8276,740.5404 58.2341,740.2706 Q57.6406,740.0008 57.0098,740.0008 Q55.665,740.0008 54.9802,741.0675 Q54.2954,742.1341 54.2954,744.2342 Q54.2954,746.326 54.9802,747.3926 Q55.665,748.4593 57.0098,748.4593 Q57.6406,748.4593 58.2341,748.1895 Q58.8276,747.9197 59.4585,747.3387 Z " fill="#000000"/><text fill="#000000" font-family="sans-serif" font-size="14" lengthAdjust="spacing" textLength="47.0791" x="76.9854" y="749.7093">Station</text><line style="stroke:#181818;stroke-width:0.5;" x1="8" x2="160.5498" y1="760.4183" y2="760.4183"/><text fill="#000000" font-family="sans-serif" font-size="14" lengthAdjust="spacing" textLength="116.4502" x="13" y="777.9534">-stationId: String</text><text fill="#000000" font-family="sans-serif" font-size="14" lengthAdjust="spacing" textLength="142.5498" x="13" y="794.4417">-stationName: String</text></g><!--class TrackSegment--><g id="elem_TrackSegment"><rect codeLine="29" fill="#F1F1F1" height="72.9766" id="TrackSegment" rx="2.5" ry="2.5" style="stroke:#181818;stroke-width:0.5;" width="132.3398" x="145.1" y="578.4483"/><ellipse cx="161.8143" cy="594.4483" fill="#ADD1B2" rx="11" ry="11" style="stroke:#181818;stroke-width:1.0;"/><path d="M164.7875,600.0913 Q164.2064,600.3902 163.5672,600.5396 Q162.9281,600.689 162.2225,600.689 Q159.7157,600.689 158.3958,599.0371 Q157.076,597.3853 157.076,594.2642 Q157.076,591.1348 158.3958,589.4829 Q159.7157,587.8311 162.2225,587.8311 Q162.9281,587.8311 163.5755,587.9805 Q164.223,588.1299 164.7875,588.4287 L164.7875,591.1514 Q164.1566,590.5704 163.5631,590.3006 Q162.9696,590.0308 162.3387,590.0308 Q160.994,590.0308 160.3092,591.0975 Q159.6244,592.1641 159.6244,594.2642 Q159.6244,596.356 160.3092,597.4226 Q160.994,598.4893 162.3387,598.4893 Q162.9696,598.4893 163.5631,598.2195 Q164.1566,597.9497 164.7875,597.3687 Z " fill="#000000"/><text fill="#000000" font-family="sans-serif" font-size="14" lengthAdjust="spacing" textLength="96.5303" x="176.1953" y="599.7393">TrackSegment</text><line style="stroke:#181818;stroke-width:0.5;" x1="146.1" x2="276.4398" y1="610.4483" y2="610.4483"/><text fill="#000000" font-family="sans-serif" font-size="14" lengthAdjust="spacing" textLength="118.9316" x="151.1" y="627.9834">-capacity: double</text><text fill="#000000" font-family="sans-serif" font-size="14" lengthAdjust="spacing" textLength="120.3398" x="151.1" y="644.4717">-distance: double</text></g><!--class RailwayGraph--><g id="elem_RailwayGraph"><rect codeLine="35" fill="#F1F1F1" height="40" id="RailwayGraph" rx="2.5" ry="2.5" style="stroke:#181818;stroke-width:0.5;" width="123.5879" x="22.48" y="436.7083"/><ellipse cx="37.48" cy="452.7083" fill="#ADD1B2" rx="11" ry="11" style="stroke:#181818;stroke-width:1.0;"/><path d="M40.4531,458.3513 Q39.8721,458.6502 39.2329,458.7996 Q38.5938,458.949 37.8882,458.949 Q35.3814,458.949 34.0615,457.2971 Q32.7417,455.6453 32.7417,452.5242 Q32.7417,449.3948 34.0615,447.7429 Q35.3814,446.0911 37.8882,446.0911 Q38.5938,446.0911 39.2412,446.2405 Q39.8887,446.3899 40.4531,446.6887 L40.4531,449.4114 Q39.8223,448.8304 39.2288,448.5606 Q38.6353,448.2908 38.0044,448.2908 Q36.6597,448.2908 35.9749,449.3575 Q35.2901,450.4241 35.2901,452.5242 Q35.2901,454.616 35.9749,455.6826 Q36.6597,456.7493 38.0044,456.7493 Q38.6353,456.7493 39.2288,456.4795 Q39.8223,456.2097 40.4531,455.6287 Z " fill="#000000"/><text fill="#000000" font-family="sans-serif" font-size="14" lengthAdjust="spacing" textLength="91.5879" x="51.48" y="457.9993">RailwayGraph</text><line style="stroke:#181818;stroke-width:0.5;" x1="23.48" x2="145.0679" y1="468.7083" y2="468.7083"/></g><!--class MaxFlowSummary--><g id="elem_MaxFlowSummary"><rect codeLine="40" fill="#F1F1F1" height="89.4648" id="MaxFlowSummary" rx="2.5" ry="2.5" style="stroke:#181818;stroke-width:0.5;" width="173.9775" x="181.29" y="411.9783"/><ellipse cx="205.0733" cy="427.9783" fill="#ADD1B2" rx="11" ry="11" style="stroke:#181818;stroke-width:1.0;"/><path d="M208.0465,433.6213 Q207.4654,433.9202 206.8263,434.0696 Q206.1871,434.219 205.4816,434.219 Q202.9747,434.219 201.6549,432.5671 Q200.3351,430.9153 200.3351,427.7942 Q200.3351,424.6648 201.6549,423.0129 Q202.9747,421.3611 205.4816,421.3611 Q206.1871,421.3611 206.8346,421.5105 Q207.482,421.6599 208.0465,421.9587 L208.0465,424.6814 Q207.4156,424.1004 206.8221,423.8306 Q206.2286,423.5608 205.5978,423.5608 Q204.253,423.5608 203.5682,424.6275 Q202.8834,425.6941 202.8834,427.7942 Q202.8834,429.886 203.5682,430.9526 Q204.253,432.0193 205.5978,432.0193 Q206.2286,432.0193 206.8221,431.7495 Q207.4156,431.4797 208.0465,430.8987 Z " fill="#000000"/><text fill="#000000" font-family="sans-serif" font-size="14" lengthAdjust="spacing" textLength="122.459" x="221.0252" y="433.2693">MaxFlowSummary</text><line style="stroke:#181818;stroke-width:0.5;" x1="182.29" x2="354.2675" y1="443.9783" y2="443.9783"/><text fill="#000000" font-family="sans-serif" font-size="14" lengthAdjust="spacing" textLength="161.9775" x="187.29" y="461.5134">-sourceStationId: String</text><text fill="#000000" font-family="sans-serif" font-size="14" lengthAdjust="spacing" textLength="157.3154" x="187.29" y="478.0017">-targetStationId: String</text><text fill="#000000" font-family="sans-serif" font-size="14" lengthAdjust="spacing" textLength="161.4648" x="187.29" y="494.49">-maxFlowValue: double</text></g><!--class GraphAlgorithms--><g id="elem_GraphAlgorithms"><rect codeLine="47" fill="#F1F1F1" height="40" id="GraphAlgorithms" rx="2.5" ry="2.5" style="stroke:#181818;stroke-width:0.5;" width="148.0195" x="390.27" y="436.7083"/><ellipse cx="405.27" cy="452.7083" fill="#ADD1B2" rx="11" ry="11" style="stroke:#181818;stroke-width:1.0;"/><path d="M408.2431,458.3513 Q407.6621,458.6502 407.0229,458.7996 Q406.3838,458.949 405.6782,458.949 Q403.1714,458.949 401.8515,457.2971 Q400.5317,455.6453 400.5317,452.5242 Q400.5317,449.3948 401.8515,447.7429 Q403.1714,446.0911 405.6782,446.0911 Q406.3838,446.0911 407.0312,446.2405 Q407.6787,446.3899 408.2431,446.6887 L408.2431,449.4114 Q407.6123,448.8304 407.0188,448.5606 Q406.4253,448.2908 405.7944,448.2908 Q404.4497,448.2908 403.7649,449.3575 Q403.0801,450.4241 403.0801,452.5242 Q403.0801,454.616 403.7649,455.6826 Q404.4497,456.7493 405.7944,456.7493 Q406.4253,456.7493 407.0188,456.4795 Q407.6123,456.2097 408.2431,455.6287 Z " fill="#000000"/><text fill="#000000" font-family="sans-serif" font-size="14" lengthAdjust="spacing" textLength="116.0195" x="419.27" y="457.9993">GraphAlgorithms</text><line style="stroke:#181818;stroke-width:0.5;" x1="391.27" x2="537.2895" y1="468.7083" y2="468.7083"/></g><!--link MaxFlowUI to MaxFlowController--><g id="link_MaxFlowUI_MaxFlowController"><path codeLine="52" d="M268.27,84.7383 C268.27,105.9683 268.27,133.9283 268.27,155.1783 " fill="none" id="MaxFlowUI-to-MaxFlowController" style="stroke:#181818;stroke-width:1.0;stroke-dasharray:7.0,7.0;"/><polygon fill="#181818" points="268.27,161.1783,272.27,152.1783,268.27,156.1783,264.27,152.1783,268.27,161.1783" style="stroke:#181818;stroke-width:1.0;"/><text fill="#000000" font-family="sans-serif" font-size="13" lengthAdjust="spacing" textLength="28.5645" x="269.27" y="128.0566">uses</text></g><!--link MaxFlowController to RailwayNetworkManager--><g id="link_MaxFlowController_RailwayNetworkManager"><path codeLine="54" d="M268.27,201.7483 C268.27,222.3283 268.27,249.1283 268.27,272.3883 " fill="none" id="MaxFlowController-to-RailwayNetworkManager" style="stroke:#181818;stroke-width:1.0;"/><polygon fill="#181818" points="268.27,278.3883,272.27,269.3883,268.27,273.3883,264.27,269.3883,268.27,278.3883" style="stroke:#181818;stroke-width:1.0;"/><text fill="#000000" font-family="sans-serif" font-size="13" lengthAdjust="spacing" textLength="40.8979" x="269.27" y="245.0566">uses 1</text></g><!--reverse link RailwayNetworkManager to RailwayGraph--><g id="link_RailwayNetworkManager_RailwayGraph"><path codeLine="57" d="M223.617,342.753 C204.947,357.393 195.27,364.9783 195.27,364.9783 C195.27,364.9783 140.7,409.5883 108.09,436.2483 " fill="none" id="RailwayNetworkManager-backto-RailwayGraph" style="stroke:#181818;stroke-width:1.0;"/><polygon fill="#181818" points="233.06,335.3483,225.8703,335.903,223.617,342.753,230.8067,342.1983,233.06,335.3483" style="stroke:#181818;stroke-width:1.0;"/><text fill="#000000" font-family="sans-serif" font-size="13" lengthAdjust="spacing" textLength="63.4448" x="196.27" y="378.5466">composes</text><text fill="#000000" font-family="sans-serif" font-size="13" lengthAdjust="spacing" textLength="8.2202" x="216.9938" y="355.3976">1</text><text fill="#000000" font-family="sans-serif" font-size="13" lengthAdjust="spacing" textLength="8.2202" x="105.6942" y="425.9966">1</text></g><!--reverse link RailwayGraph to Station--><g id="link_RailwayGraph_Station"><path codeLine="60" d="M81.1605,489.0492 C77.7605,523.1792 72.27,578.4483 72.27,578.4483 C72.27,578.4483 72.27,651.4183 72.27,651.4183 C72.27,651.4183 76.93,695.0883 80.45,728.0083 " fill="none" id="RailwayGraph-backto-Station" style="stroke:#181818;stroke-width:1.0;"/><polygon fill="none" points="82.35,477.1083,77.7749,482.6822,81.1605,489.0492,85.7355,483.4752,82.35,477.1083" style="stroke:#181818;stroke-width:1.0;"/><text fill="#000000" font-family="sans-serif" font-size="13" lengthAdjust="spacing" textLength="53.2061" x="73.27" y="620.0066">contains</text><text fill="#000000" font-family="sans-serif" font-size="13" lengthAdjust="spacing" textLength="22.7119" x="55.8727" y="717.6959">1..*</text></g><!--reverse link RailwayGraph to TrackSegment--><g id="link_RailwayGraph_TrackSegment"><path codeLine="61" d="M107.6682,486.4907 C128.1482,511.6907 156.65,546.7483 182.15,578.0983 " fill="none" id="RailwayGraph-backto-TrackSegment" style="stroke:#181818;stroke-width:1.0;"/><polygon fill="none" points="100.1,477.1783,100.78,484.3573,107.6682,486.4907,106.9883,479.3118,100.1,477.1783" style="stroke:#181818;stroke-width:1.0;"/><text fill="#000000" font-family="sans-serif" font-size="13" lengthAdjust="spacing" textLength="53.2061" x="156.38" y="545.0166">contains</text><text fill="#000000" font-family="sans-serif" font-size="13" lengthAdjust="spacing" textLength="22.7119" x="153.067" y="567.7965">0..*</text></g><!--link TrackSegment to Station--><g id="link_TrackSegment_Station"><path codeLine="64" d="M180.53,651.7583 C160.64,674.9383 138.7491,700.4465 118.8591,723.6065 " fill="none" id="TrackSegment-to-Station" style="stroke:#181818;stroke-width:1.0;"/><polygon fill="#181818" points="114.95,728.1583,123.8482,723.9367,118.2076,724.3651,117.7791,718.7245,114.95,728.1583" style="stroke:#181818;stroke-width:1.0;"/><text fill="#000000" font-family="sans-serif" font-size="13" lengthAdjust="spacing" textLength="155.0288" x="152.58" y="694.9866">connects (source/target)</text><text fill="#000000" font-family="sans-serif" font-size="13" lengthAdjust="spacing" textLength="8.2202" x="166.578" y="671.9711">1</text><text fill="#000000" font-family="sans-serif" font-size="13" lengthAdjust="spacing" textLength="8.2202" x="111.8885" y="717.597">2</text></g><!--link RailwayNetworkManager to GraphAlgorithms--><g id="link_RailwayNetworkManager_GraphAlgorithms"><path codeLine="67" d="M304.68,335.2183 C343.65,364.6483 399.6816,406.9428 433.8916,432.7728 " fill="none" id="RailwayNetworkManager-to-GraphAlgorithms" style="stroke:#181818;stroke-width:1.0;stroke-dasharray:7.0,7.0;"/><polygon fill="#181818" points="438.68,436.3883,433.9077,427.7729,434.6897,433.3754,429.0871,434.1574,438.68,436.3883" style="stroke:#181818;stroke-width:1.0;"/><text fill="#000000" font-family="sans-serif" font-size="13" lengthAdjust="spacing" textLength="28.5645" x="367.27" y="378.5466">uses</text></g><!--link RailwayNetworkManager to MaxFlowSummary--><g id="link_RailwayNetworkManager_MaxFlowSummary"><path codeLine="70" d="M268.27,335.2183 C268.27,356.6183 268.27,380.7383 268.27,405.5183 " fill="none" id="RailwayNetworkManager-to-MaxFlowSummary" style="stroke:#181818;stroke-width:1.0;stroke-dasharray:7.0,7.0;"/><polygon fill="#181818" points="268.27,411.5183,272.27,402.5183,268.27,406.5183,264.27,402.5183,268.27,411.5183" style="stroke:#181818;stroke-width:1.0;"/><text fill="#000000" font-family="sans-serif" font-size="13" lengthAdjust="spacing" textLength="45.1318" x="269.27" y="378.5466">creates</text></g><!--SRC=[VLJBRjim4BphAnQ-n2vWDsbxqY50uAIDqIO5egJt3RcM25EaIb9mtA3_NZuasNASdcplOsPtTcWdd2HuAcvM5rzW3ak9riArmD9WdMMLu0GrkKhpp6w4Qj27eK6smP8Aj_EjXfX3LKewAB0LShqLgeGrIdkOaKAHspK4ZPQxyECWnmBtbND6FBUELaohGlmXEC-oc84xVFagzVPf1QyPm1dSekAIBBIM30Zbo21pGYjOQmCrli3QL_lvVhTadSt-7k4ijN96I-cR4zvIQyE5GkSnXtQ6ahKI8-vRg0SKSekxUt9RRJPtgBmiFTojbjo2gmXKIWD7Xs2TQPbh3VcYEHWFq7NdFTetWqsrvoXSOd-D3JRzMl7S9uoN-31wZpKDSGzm1e-U_eQNbCG5hwb3eS9bmc2s8IRMWlaJe_KZmNI9_hZ2xMOT-QFNT5DGMPDotGIiAyc1w_PPfZsuy2CeHaDmO8_R7AtklxLS4FTNIuEDvKmjISNfjGWEyxKfAkf6KfWcBZnBFDUFF-FHuqvjNQFPmVHg-NasldZHfJebTMiO5IVrT6XASgTpTGBxXR8zMlUMPEFF7oQvagKsmbKr_D2b5tXwmskjk9r_HzFqOyMDXahRRHnP6RHEIA_osCmoW2Mo1qgkj9LeRBP_6ul5vGc7v-6Ls2nxcvdFBz-nSUg1Yy3Mnwh1rCcbfpid5nFuC9_7pz5DS-_0kj5nbBFkedjNcD5AeqOTqHQB3vFXFUIzcq-LdiVIaNiFwZrtU1JnFIZlhlxzs6pK4SOFyam-7R667WlJvA2FoIopGvcYS44b77pGtVCTnSBLZktGtsmFomp5VwU0RCYsqWNh_mVooFXvZv3z0m00]--></g></svg>