<svg xmlns="http://www.w3.org/2000/svg" xmlns:xlink="http://www.w3.org/1999/xlink" contentStyleType="text/css" height="733px" preserveAspectRatio="none" style="width:1744px;height:733px;background:#FFFFFF;" version="1.1" viewBox="0 0 1744 733" width="1744px" zoomAndPan="magnify"><title>USEI14 - Maximum Throughput (SD)</title><defs/><g><text fill="#000000" font-family="sans-serif" font-size="14" font-weight="bold" lengthAdjust="spacing" textLength="262.7393" x="739.8044" y="28.5352">USEI14 - Maximum Throughput (SD)</text><rect fill="#FFFFFF" height="505.9688" style="stroke:#181818;stroke-width:1.0;" width="10" x="65.2344" y="128.9766"/><rect fill="#FFFFFF" height="29.3105" style="stroke:#181818;stroke-width:1.0;" width="10" x="376.3813" y="150.2871"/><rect fill="#FFFFFF" height="435.0371" style="stroke:#181818;stroke-width:1.0;" width="10" x="376.3813" y="208.9082"/><rect fill="#FFFFFF" height="34.3105" style="stroke:#181818;stroke-width:1.0;" width="10" x="381.3813" y="600.6348"/><rect fill="#FFFFFF" height="325.1055" style="stroke:#181818;stroke-width:1.0;" width="10" x="672.0273" y="238.2188"/><rect fill="#FFFFFF" height="266.4844" style="stroke:#181818;stroke-width:1.0;" width="10" x="967.9019" y="267.5293"/><rect fill="#FFFFFF" height="148.5527" style="stroke:#181818;stroke-width:1.0;" width="10" x="1266.4424" y="296.8398"/><rect fill="#FFFFFF" height="30" style="stroke:#181818;stroke-width:1.0;" width="10" x="1665.1187" y="474.7031"/><rect fill="none" height="105.2422" style="stroke:#000000;stroke-width:1.5;" width="405.4565" x="1196.4326" y="311.8398"/><line style="stroke:#181818;stroke-width:0.5;stroke-dasharray:5.0,5.0;" x1="70" x2="70" y1="118.9766" y2="652.9453"/><line style="stroke:#181818;stroke-width:0.5;stroke-dasharray:5.0,5.0;" x1="380.8569" x2="380.8569" y1="118.9766" y2="652.9453"/><line style="stroke:#181818;stroke-width:0.5;stroke-dasharray:5.0,5.0;" x1="676.2891" x2="676.2891" y1="118.9766" y2="652.9453"/><line style="stroke:#181818;stroke-width:0.5;stroke-dasharray:5.0,5.0;" x1="972.0742" x2="972.0742" y1="118.9766" y2="652.9453"/><line style="stroke:#181818;stroke-width:0.5;stroke-dasharray:5.0,5.0;" x1="1271.4326" x2="1271.4326" y1="118.9766" y2="652.9453"/><line style="stroke:#181818;stroke-width:0.5;stroke-dasharray:5.0,5.0;" x1="1538.3013" x2="1538.3013" y1="118.9766" y2="652.9453"/><line style="stroke:#181818;stroke-width:0.5;stroke-dasharray:5.0,5.0;" x1="1669.8892" x2="1669.8892" y1="118.9766" y2="652.9453"/><text fill="#000000" font-family="sans-serif" font-size="14" lengthAdjust="spacing" textLength="124.4688" x="5" y="116.0234">OperationsAnalyst</text><ellipse cx="70.2344" cy="50.9883" fill="#E2E2F0" rx="8" ry="8" style="stroke:#181818;stroke-width:0.5;"/><path d="M70.2344,58.9883 L70.2344,85.9883 M57.2344,66.9883 L83.2344,66.9883 M70.2344,85.9883 L57.2344,100.9883 M70.2344,85.9883 L83.2344,100.9883 " fill="none" style="stroke:#181818;stroke-width:0.5;"/><text fill="#000000" font-family="sans-serif" font-size="14" lengthAdjust="spacing" textLength="124.4688" x="5" y="665.4805">OperationsAnalyst</text><ellipse cx="70.2344" cy="676.9336" fill="#E2E2F0" rx="8" ry="8" style="stroke:#181818;stroke-width:0.5;"/><path d="M70.2344,684.9336 L70.2344,711.9336 M57.2344,692.9336 L83.2344,692.9336 M70.2344,711.9336 L57.2344,726.9336 M70.2344,711.9336 L83.2344,726.9336 " fill="none" style="stroke:#181818;stroke-width:0.5;"/><rect fill="#E2E2F0" height="30.4883" rx="2.5" ry="2.5" style="stroke:#181818;stroke-width:0.5;" width="87.0488" x="337.8569" y="87.4883"/><text fill="#000000" font-family="sans-serif" font-size="14" lengthAdjust="spacing" textLength="73.0488" x="344.8569" y="108.0234">MaxFlowUI</text><rect fill="#E2E2F0" height="30.4883" rx="2.5" ry="2.5" style="stroke:#181818;stroke-width:0.5;" width="87.0488" x="337.8569" y="651.9453"/><text fill="#000000" font-family="sans-serif" font-size="14" lengthAdjust="spacing" textLength="73.0488" x="344.8569" y="672.4805">MaxFlowUI</text><rect fill="#E2E2F0" height="30.4883" rx="2.5" ry="2.5" style="stroke:#181818;stroke-width:0.5;" width="141.4766" x="606.2891" y="87.4883"/><text fill="#000000" font-family="sans-serif" font-size="14" lengthAdjust="spacing" textLength="127.4766" x="613.2891" y="108.0234">MaxFlowController</text><rect fill="#E2E2F0" height="30.4883" rx="2.5" ry="2.5" style="stroke:#181818;stroke-width:0.5;" width="141.4766" x="606.2891" y="651.9453"/><text fill="#000000" font-family="sans-serif" font-size="14" lengthAdjust="spacing" textLength="127.4766" x="613.2891" y="672.4805">MaxFlowController</text><rect fill="#E2E2F0" height="30.4883" rx="2.5" ry="2.5" style="stroke:#181818;stroke-width:0.5;" width="179.6553" x="883.0742" y="87.4883"/><text fill="#000000" font-family="sans-serif" font-size="14" lengthAdjust="spacing" textLength="165.6553" x="890.0742" y="108.0234">RailwayNetworkManager</text><rect fill="#E2E2F0" height="30.4883" rx="2.5" ry="2.5" style="stroke:#181818;stroke-width:0.5;" width="179.6553" x="883.0742" y="651.9453"/><text fill="#000000" font-family="sans-serif" font-size="14" lengthAdjust="spacing" textLength="165.6553" x="890.0742" y="672.4805">RailwayNetworkManager</text><rect fill="#E2E2F0" height="30.4883" rx="2.5" ry="2.5" style="stroke:#181818;stroke-width:0.5;" width="130.0195" x="1206.4326" y="87.4883"/><text fill="#000000" font-family="sans-serif" font-size="14" lengthAdjust="spacing" textLength="116.0195" x="1213.4326" y="108.0234">GraphAlgorithms</text><rect fill="#E2E2F0" height="30.4883" rx="2.5" ry="2.5" style="stroke:#181818;stroke-width:0.5;" width="130.0195" x="1206.4326" y="651.9453"/><text fill="#000000" font-family="sans-serif" font-size="14" lengthAdjust="spacing" textLength="116.0195" x="1213.4326" y="672.4805">GraphAlgorithms</text><rect fill="#E2E2F0" height="30.4883" rx="2.5" ry="2.5" style="stroke:#181818;stroke-width:0.5;" width="105.5879" x="1486.3013" y="87.4883"/><text fill="#000000" font-family="sans-serif" font-size="14" lengthAdjust="spacing" textLength="91.5879" x="1493.3013" y="108.0234">RailwayGraph</text><rect fill="#E2E2F0" height="30.4883" rx="2.5" ry="2.5" style="stroke:#181818;stroke-width:0.5;" width="105.5879" x="1486.3013" y="651.9453"/><text fill="#000000" font-family="sans-serif" font-size="14" lengthAdjust="spacing" textLength="91.5879" x="1493.3013" y="672.4805">RailwayGraph</text><rect fill="#E2E2F0" height="30.4883" rx="2.5" ry="2.5" style="stroke:#181818;stroke-width:0.5;" width="136.459" x="1601.8892" y="87.4883"/><text fill="#000000" font-family="sans-serif" font-size="14" lengthAdjust="spacing" textLength="122.459" x="1608.8892" y="108.0234">MaxFlowSummary</text><rect fill="#E2E2F0" height="30.4883" rx="2.5" ry="2.5" style="stroke:#181818;stroke-width:0.5;" width="136.459" x="1601.8892" y="651.9453"/><text fill="#000000" font-family="sans-serif" font-size="14" lengthAdjust="spacing" textLength="122.459" x="1608.8892" y="672.4805">MaxFlowSummary</text><rect fill="#FFFFFF" height="505.9688" style="stroke:#181818;stroke-width:1.0;" width="10" x="65.2344" y="128.9766"/><rect fill="#FFFFFF" height="29.3105" style="stroke:#181818;stroke-width:1.0;" width="10" x="376.3813" y="150.2871"/><rect fill="#FFFFFF" height="435.0371" style="stroke:#181818;stroke-width:1.0;" width="10" x="376.3813" y="208.9082"/><rect fill="#FFFFFF" height="34.3105" style="stroke:#181818;stroke-width:1.0;" width="10" x="381.3813" y="600.6348"/><rect fill="#FFFFFF" height="325.1055" style="stroke:#181818;stroke-width:1.0;" width="10" x="672.0273" y="238.2188"/><rect fill="#FFFFFF" height="266.4844" style="stroke:#181818;stroke-width:1.0;" width="10" x="967.9019" y="267.5293"/><rect fill="#FFFFFF" height="148.5527" style="stroke:#181818;stroke-width:1.0;" width="10" x="1266.4424" y="296.8398"/><rect fill="#FFFFFF" height="30" style="stroke:#181818;stroke-width:1.0;" width="10" x="1665.1187" y="474.7031"/><polygon fill="#181818" points="364.3813,146.2871,374.3813,150.2871,364.3813,154.2871,368.3813,150.2871" style="stroke:#181818;stroke-width:1.0;"/><line style="stroke:#181818;stroke-width:1.0;" x1="75.2344" x2="370.3813" y1="150.2871" y2="150.2871"/><text fill="#000000" font-family="sans-serif" font-size="13" lengthAdjust="spacing" textLength="209.606" x="82.2344" y="145.5449">1. requestMaxFlowComputation()</text><polygon fill="#181818" points="86.2344,175.5977,76.2344,179.5977,86.2344,183.5977,82.2344,179.5977" style="stroke:#181818;stroke-width:1.0;"/><line style="stroke:#181818;stroke-width:1.0;stroke-dasharray:2.0,2.0;" x1="80.2344" x2="380.3813" y1="179.5977" y2="179.5977"/><text fill="#000000" font-family="sans-serif" font-size="13" lengthAdjust="spacing" textLength="271.229" x="92.2344" y="174.8555">Shows prompt for Source and Sink stations</text><polygon fill="#181818" points="364.3813,204.9082,374.3813,208.9082,364.3813,212.9082,368.3813,208.9082" style="stroke:#181818;stroke-width:1.0;"/><line style="stroke:#181818;stroke-width:1.0;" x1="75.2344" x2="370.3813" y1="208.9082" y2="208.9082"/><text fill="#000000" font-family="sans-serif" font-size="13" lengthAdjust="spacing" textLength="282.147" x="82.2344" y="204.166">2. submitComputation("StationA", "StationB")</text><polygon fill="#181818" points="660.0273,234.2188,670.0273,238.2188,660.0273,242.2188,664.0273,238.2188" style="stroke:#181818;stroke-width:1.0;"/><line style="stroke:#181818;stroke-width:1.0;" x1="386.3813" x2="666.0273" y1="238.2188" y2="238.2188"/><text fill="#000000" font-family="sans-serif" font-size="13" lengthAdjust="spacing" textLength="266.646" x="393.3813" y="233.4766">3. computeMaxFlow("StationA", "StationB")</text><polygon fill="#181818" points="955.9019,263.5293,965.9019,267.5293,955.9019,271.5293,959.9019,267.5293" style="stroke:#181818;stroke-width:1.0;"/><line style="stroke:#181818;stroke-width:1.0;" x1="682.0273" x2="961.9019" y1="267.5293" y2="267.5293"/><text fill="#000000" font-family="sans-serif" font-size="13" lengthAdjust="spacing" textLength="266.8745" x="689.0273" y="262.7871">4. calculateMaxFlow("StationA", "StationB")</text><polygon fill="#181818" points="1254.4424,292.8398,1264.4424,296.8398,1254.4424,300.8398,1258.4424,296.8398" style="stroke:#181818;stroke-width:1.0;"/><line style="stroke:#181818;stroke-width:1.0;" x1="977.9019" x2="1260.4424" y1="296.8398" y2="296.8398"/><text fill="#000000" font-family="sans-serif" font-size="13" lengthAdjust="spacing" textLength="269.5405" x="984.9019" y="292.0977">5. edmondsKarp(railNetwork, source, sink)</text><path d="M1196.4326,311.8398 L1270.8794,311.8398 L1270.8794,319.1504 L1260.8794,329.1504 L1196.4326,329.1504 L1196.4326,311.8398 " fill="#EEEEEE" style="stroke:#000000;stroke-width:1.5;"/><rect fill="none" height="105.2422" style="stroke:#000000;stroke-width:1.5;" width="405.4565" x="1196.4326" y="311.8398"/><text fill="#000000" font-family="sans-serif" font-size="13" font-weight="bold" lengthAdjust="spacing" textLength="29.4468" x="1211.4326" y="325.4082">loop</text><text fill="#000000" font-family="sans-serif" font-size="11" font-weight="bold" lengthAdjust="spacing" textLength="207.3081" x="1285.8794" y="324.4746">[while augmenting path exists (BFS)]</text><polygon fill="#181818" points="1527.0952,346.4609,1537.0952,350.4609,1527.0952,354.4609,1531.0952,350.4609" style="stroke:#181818;stroke-width:1.0;"/><line style="stroke:#181818;stroke-width:1.0;" x1="1276.4424" x2="1533.0952" y1="350.4609" y2="350.4609"/><text fill="#000000" font-family="sans-serif" font-size="13" lengthAdjust="spacing" textLength="152.3184" x="1283.4424" y="345.7188">6. getEdgeCapacity(u, v)</text><polygon fill="#181818" points="1527.0952,375.7715,1537.0952,379.7715,1527.0952,383.7715,1531.0952,379.7715" style="stroke:#181818;stroke-width:1.0;"/><line style="stroke:#181818;stroke-width:1.0;" x1="1276.4424" x2="1533.0952" y1="379.7715" y2="379.7715"/><text fill="#000000" font-family="sans-serif" font-size="13" lengthAdjust="spacing" textLength="174.7764" x="1283.4424" y="375.0293">7. getResidualCapacity(u, v)</text><polygon fill="#181818" points="1527.0952,405.082,1537.0952,409.082,1527.0952,413.082,1531.0952,409.082" style="stroke:#181818;stroke-width:1.0;"/><line style="stroke:#181818;stroke-width:1.0;" x1="1276.4424" x2="1533.0952" y1="409.082" y2="409.082"/><text fill="#000000" font-family="sans-serif" font-size="13" lengthAdjust="spacing" textLength="238.6528" x="1283.4424" y="404.3398">8. updateResidualFlow(u, v, pathFlow)</text><polygon fill="#181818" points="988.9019,441.3926,978.9019,445.3926,988.9019,449.3926,984.9019,445.3926" style="stroke:#181818;stroke-width:1.0;"/><line style="stroke:#181818;stroke-width:1.0;stroke-dasharray:2.0,2.0;" x1="982.9019" x2="1270.4424" y1="445.3926" y2="445.3926"/><text fill="#000000" font-family="sans-serif" font-size="13" lengthAdjust="spacing" textLength="90.7651" x="994.9019" y="440.6504">maxFlowValue</text><polygon fill="#181818" points="1653.1187,470.7031,1663.1187,474.7031,1653.1187,478.7031,1657.1187,474.7031" style="stroke:#181818;stroke-width:1.0;"/><line style="stroke:#181818;stroke-width:1.0;" x1="977.9019" x2="1659.1187" y1="474.7031" y2="474.7031"/><text fill="#000000" font-family="sans-serif" font-size="13" lengthAdjust="spacing" textLength="280.7505" x="984.9019" y="469.9609">9. new("StationA", "StationB", maxFlowValue)</text><polygon fill="#181818" points="693.0273,530.0137,683.0273,534.0137,693.0273,538.0137,689.0273,534.0137" style="stroke:#181818;stroke-width:1.0;"/><line style="stroke:#181818;stroke-width:1.0;stroke-dasharray:2.0,2.0;" x1="687.0273" x2="971.9019" y1="534.0137" y2="534.0137"/><text fill="#000000" font-family="sans-serif" font-size="13" lengthAdjust="spacing" textLength="58.2588" x="699.0273" y="529.2715">summary</text><polygon fill="#181818" points="397.3813,559.3242,387.3813,563.3242,397.3813,567.3242,393.3813,563.3242" style="stroke:#181818;stroke-width:1.0;"/><line style="stroke:#181818;stroke-width:1.0;stroke-dasharray:2.0,2.0;" x1="391.3813" x2="676.0273" y1="563.3242" y2="563.3242"/><text fill="#000000" font-family="sans-serif" font-size="13" lengthAdjust="spacing" textLength="58.2588" x="403.3813" y="558.582">summary</text><line style="stroke:#181818;stroke-width:1.0;" x1="386.3813" x2="433.3813" y1="587.6348" y2="587.6348"/><line style="stroke:#181818;stroke-width:1.0;" x1="433.3813" x2="433.3813" y1="587.6348" y2="600.6348"/><line style="stroke:#181818;stroke-width:1.0;" x1="392.3813" x2="433.3813" y1="600.6348" y2="600.6348"/><polygon fill="#181818" points="402.3813,596.6348,392.3813,600.6348,402.3813,604.6348,398.3813,600.6348" style="stroke:#181818;stroke-width:1.0;"/><text fill="#000000" font-family="sans-serif" font-size="13" lengthAdjust="spacing" textLength="249.5708" x="398.3813" y="582.8926">10. displayMaxFlowSummary(summary)</text><polygon fill="#181818" points="81.2344,630.9453,71.2344,634.9453,81.2344,638.9453,77.2344,634.9453" style="stroke:#181818;stroke-width:1.0;"/><line style="stroke:#181818;stroke-width:1.0;stroke-dasharray:2.0,2.0;" x1="75.2344" x2="375.3813" y1="634.9453" y2="634.9453"/><text fill="#000000" font-family="sans-serif" font-size="13" lengthAdjust="spacing" textLength="269.0645" x="87.2344" y="630.2031">Shows Source, Target, and Max Flow Value</text><!--SRC=[bLHDRzf04BtxLuou12HmcgIVFaHoI49HGzDYgDJZOa_CDcklknyXxg_lxDfEZ49RbGFOpDkPjs_UZE568AoJg_d9QvZ0WZtomXQmsYffysrb3GoJor4GiDH81OFR2XKpN9OwBfcejHa0qn075LE6fxnYfO419RaMShUU- -1wVZ0wbQLHKWXK7ZLTBM_sSKl6nOxLdz7ifBfVi9BbBNOnM-v3PufLsrZaKd6pBNJ3wMPsUp2X1tl8R1b_-NYGN6ABWgdQevBrOX4llmV14Kmc4rXhLF3Legh18Tr_58crjWLgwDS0he49XIohOMEvCCT2iWmpsDJ-2avJ_i0CadunJCv9gGXEGb3uqw8sJpeLr0Ml-N3qV8HKNS-f-3d44IHRkTDGAO8QkAC-9TAg586L6IIyl0VT9D11XlqCpsLFGz1sKt3JBpT8ceTuC8Rk-MBmaiIvxru4Po6a_ZYstF-TmRSzSDyk3QaImMlAmaHg1VkFF5xF8x8jFJPEWGm5vXJJOEXVHqpW8pMaTGaOwGDR5EJfOskuuAOEA95ZujmJmPiGC2jacUbFJ5L3HSrjxJW6xIMcNzAtHyJRhcNov4ZWfQ6vIOs67Rtxker5j54sDLPX8AIiOBVbD8tCvWMMXfSvL8pW-CWr7HrUN2UZ0EX3VfkUHh1sd7zv6Ae9PZbTarKivOQZza37nbt7Eps2jo7aQAu8E6rmzT2EuM5q2FlEOvUeUMQPE81lcTp8dATEp3jERjj8G_kanFJUcyzMcHFbZdfugCRxi4LqPNopNOcnlxbx7GLOPaxH9P9EPTlDpY0PPD9kIBC79Ym6JVxEIKNZdcy-r7D-lqUTMrAQqyuhxVJ3vUeMXl7qRDIvebq54Nm8eSG_sNAyLxZdZMwJzAZqbakVZUhTLRTivEO7fgQXyZHoRR2Vqez2Cr7jS1y0DNFN3AzVEwz2oBYk1AltL-2mFVptrPEqmx1YYampzhsdFCs6VA4_9UXt8_WD]--></g></svg>