<?xml version="1.0" encoding="us-ascii" standalone="no"?><svg xmlns="http://www.w3.org/2000/svg" xmlns:xlink="http://www.w3.org/1999/xlink" contentStyleType="text/css" height="943px" preserveAspectRatio="none" style="width:521px;height:943px;background:#FFFFFF;" version="1.1" viewBox="0 0 521 943" width="521px" zoomAndPan="magnify"><defs/><g><text fill="#000000" font-family="sans-serif" font-size="14" font-weight="bold" lengthAdjust="spacing" textLength="288" x="109.5" y="25.1074">USEI12 - Minimal Backbone Network (DM)</text><!--class Station--><g id="elem_Station"><rect codeLine="12" fill="#F1F1F1" height="129.7266" id="Station" rx="2.5" ry="2.5" style="stroke:#181818;stroke-width:0.5;" width="90" x="90" y="597.6211"/><text fill="#000000" font-family="sans-serif" font-size="14" lengthAdjust="spacing" textLength="44" x="113" y="617.7285">Station</text><line style="stroke:#181818;stroke-width:0.5;" x1="91" x2="179" y1="626.2422" y2="626.2422"/><text fill="#000000" font-family="sans-serif" font-size="14" lengthAdjust="spacing" textLength="53" x="96" y="645.3496">stationId</text><text fill="#000000" font-family="sans-serif" font-size="14" lengthAdjust="spacing" textLength="78" x="96" y="663.9707">stationName</text><text fill="#000000" font-family="sans-serif" font-size="14" lengthAdjust="spacing" textLength="45" x="96" y="682.5918">xCoord</text><text fill="#000000" font-family="sans-serif" font-size="14" lengthAdjust="spacing" textLength="46" x="96" y="701.2129">yCoord</text><text fill="#000000" font-family="sans-serif" font-size="14" lengthAdjust="spacing" textLength="47" x="96" y="719.834">country</text></g><!--class RailConnection--><g id="elem_RailConnection"><rect codeLine="20" fill="#F1F1F1" height="129.7266" id="RailConnection" rx="2.5" ry="2.5" style="stroke:#181818;stroke-width:0.5;" width="102" x="84" y="806.6211"/><text fill="#000000" font-family="sans-serif" font-size="14" lengthAdjust="spacing" textLength="96" x="87" y="826.7285">RailConnection</text><line style="stroke:#181818;stroke-width:0.5;" x1="85" x2="185" y1="835.2422" y2="835.2422"/><text fill="#000000" font-family="sans-serif" font-size="14" lengthAdjust="spacing" textLength="72" x="90" y="854.3496">fromStation</text><text fill="#000000" font-family="sans-serif" font-size="14" lengthAdjust="spacing" textLength="56" x="90" y="872.9707">toStation</text><text fill="#000000" font-family="sans-serif" font-size="14" lengthAdjust="spacing" textLength="53" x="90" y="891.5918">distance</text><text fill="#000000" font-family="sans-serif" font-size="14" lengthAdjust="spacing" textLength="52" x="90" y="910.2129">capacity</text><text fill="#000000" font-family="sans-serif" font-size="14" lengthAdjust="spacing" textLength="26" x="90" y="928.834">cost</text></g><!--class RailNetwork--><g id="elem_RailNetwork"><rect codeLine="28" fill="#F1F1F1" height="92.4844" id="RailNetwork" rx="2.5" ry="2.5" style="stroke:#181818;stroke-width:0.5;" width="94" x="7" y="417.1211"/><text fill="#000000" font-family="sans-serif" font-size="14" lengthAdjust="spacing" textLength="74" x="17" y="437.2285">RailNetwork</text><line style="stroke:#181818;stroke-width:0.5;" x1="8" x2="100" y1="445.7422" y2="445.7422"/><text fill="#000000" font-family="sans-serif" font-size="14" lengthAdjust="spacing" textLength="49" x="13" y="464.8496">stations</text><text fill="#000000" font-family="sans-serif" font-size="14" lengthAdjust="spacing" textLength="76" x="13" y="483.4707">connections</text><text fill="#000000" font-family="sans-serif" font-size="14" lengthAdjust="spacing" textLength="82" x="13" y="502.0918">totalDistance</text></g><!--class MinimalBackboneNetwork--><g id="elem_MinimalBackboneNetwork"><rect codeLine="35" fill="#F1F1F1" height="111.1055" id="MinimalBackboneNetwork" rx="2.5" ry="2.5" style="stroke:#181818;stroke-width:0.5;" width="166" x="157" y="407.6211"/><text fill="#000000" font-family="sans-serif" font-size="14" lengthAdjust="spacing" textLength="160" x="160" y="427.7285">MinimalBackboneNetwork</text><line style="stroke:#181818;stroke-width:0.5;" x1="158" x2="322" y1="436.2422" y2="436.2422"/><text fill="#000000" font-family="sans-serif" font-size="14" lengthAdjust="spacing" textLength="62" x="163" y="455.3496">mstEdges</text><text fill="#000000" font-family="sans-serif" font-size="14" lengthAdjust="spacing" textLength="71" x="163" y="473.9707">totalLength</text><text fill="#000000" font-family="sans-serif" font-size="14" lengthAdjust="spacing" textLength="146" x="163" y="492.5918">connectedComponents</text><text fill="#000000" font-family="sans-serif" font-size="14" lengthAdjust="spacing" textLength="80" x="163" y="511.2129">stationCount</text></g><!--class DOTFile--><g id="elem_DOTFile"><rect codeLine="42" fill="#F1F1F1" height="111.1055" id="DOTFile" rx="2.5" ry="2.5" style="stroke:#181818;stroke-width:0.5;" width="110" x="185" y="217.6211"/><text fill="#000000" font-family="sans-serif" font-size="14" lengthAdjust="spacing" textLength="53" x="213.5" y="237.7285">DOTFile</text><line style="stroke:#181818;stroke-width:0.5;" x1="186" x2="294" y1="246.2422" y2="246.2422"/><text fill="#000000" font-family="sans-serif" font-size="14" lengthAdjust="spacing" textLength="70" x="191" y="265.3496">dotContent</text><text fill="#000000" font-family="sans-serif" font-size="14" lengthAdjust="spacing" textLength="98" x="191" y="283.9707">nodeDefinitions</text><text fill="#000000" font-family="sans-serif" font-size="14" lengthAdjust="spacing" textLength="98" x="191" y="302.5918">edgeDefinitions</text><text fill="#000000" font-family="sans-serif" font-size="14" lengthAdjust="spacing" textLength="82" x="191" y="321.2129">layoutEngine</text></g><!--class SVGVisualization--><g id="elem_SVGVisualization"><rect codeLine="49" fill="#F1F1F1" height="92.4844" id="SVGVisualization" rx="2.5" ry="2.5" style="stroke:#181818;stroke-width:0.5;" width="113" x="183.5" y="46.6211"/><text fill="#000000" font-family="sans-serif" font-size="14" lengthAdjust="spacing" textLength="107" x="186.5" y="66.7285">SVGVisualization</text><line style="stroke:#181818;stroke-width:0.5;" x1="184.5" x2="295.5" y1="75.2422" y2="75.2422"/><text fill="#000000" font-family="sans-serif" font-size="14" lengthAdjust="spacing" textLength="74" x="189.5" y="94.3496">svgFilePath</text><text fill="#000000" font-family="sans-serif" font-size="14" lengthAdjust="spacing" textLength="62" x="189.5" y="112.9707">mapScale</text><text fill="#000000" font-family="sans-serif" font-size="14" lengthAdjust="spacing" textLength="82" x="189.5" y="131.5918">boundingBox</text></g><!--class MSTAlgorithm--><g id="elem_MSTAlgorithm"><rect codeLine="56" fill="#F1F1F1" height="92.4844" id="MSTAlgorithm" rx="2.5" ry="2.5" style="stroke:#181818;stroke-width:0.5;" width="103" x="359.5" y="616.6211"/><text fill="#000000" font-family="sans-serif" font-size="14" lengthAdjust="spacing" textLength="88" x="367" y="636.7285">MSTAlgorithm</text><line style="stroke:#181818;stroke-width:0.5;" x1="360.5" x2="461.5" y1="645.2422" y2="645.2422"/><text fill="#000000" font-family="sans-serif" font-size="14" lengthAdjust="spacing" textLength="90" x="365.5" y="664.3496">algorithmType</text><text fill="#000000" font-family="sans-serif" font-size="14" lengthAdjust="spacing" textLength="71" x="365.5" y="682.9707">totalWeight</text><text fill="#000000" font-family="sans-serif" font-size="14" lengthAdjust="spacing" textLength="91" x="365.5" y="701.5918">executionTime</text></g><g id="elem_GMN17"><path d="M358,440.6211 L358,485.2031 A0,0 0 0 0 358,485.2031 L429.28,485.2031 L416.73,616.3211 L437.28,485.2031 L514,485.2031 A0,0 0 0 0 514,485.2031 L514,450.6211 L504,440.6211 L358,440.6211 A0,0 0 0 0 358,440.6211 " fill="#FEFFDD" style="stroke:#181818;stroke-width:0.5;"/><path d="M504,440.6211 L504,450.6211 L514,450.6211 L504,440.6211 " fill="#FEFFDD" style="stroke:#181818;stroke-width:0.5;"/><text fill="#000000" font-family="sans-serif" font-size="13" lengthAdjust="spacing" textLength="135" x="364" y="459.6494">Can be Prim or Kruskal</text><text fill="#000000" font-family="sans-serif" font-size="13" lengthAdjust="spacing" textLength="53" x="364" y="476.9404">algorithm</text></g><g id="elem_GMN20"><path d="M331.5,70.1211 L331.5,88.6211 L296.97,92.6211 L331.5,96.6211 L331.5,114.7031 A0,0 0 0 0 331.5,114.7031 L486.5,114.7031 A0,0 0 0 0 486.5,114.7031 L486.5,80.1211 L476.5,70.1211 L331.5,70.1211 A0,0 0 0 0 331.5,70.1211 " fill="#FEFFDD" style="stroke:#181818;stroke-width:0.5;"/><path d="M476.5,70.1211 L476.5,80.1211 L486.5,80.1211 L476.5,70.1211 " fill="#FEFFDD" style="stroke:#181818;stroke-width:0.5;"/><text fill="#000000" font-family="sans-serif" font-size="13" lengthAdjust="spacing" textLength="134" x="337.5" y="89.1494">Uses GraphViz "neato"</text><text fill="#000000" font-family="sans-serif" font-size="13" lengthAdjust="spacing" textLength="53" x="337.5" y="106.4404">for layout</text></g><!--reverse link RailNetwork to Station--><g id="link_RailNetwork_Station"><path codeLine="63" d="M64.4467,521.0239 C69.5667,548.9139 73,567.6211 73,567.6211 C73,567.6211 81.72,580.8411 92.62,597.3611 " fill="none" id="RailNetwork-backto-Station" style="stroke:#181818;stroke-width:1.0;"/><polygon fill="#181818" points="62.28,509.2211,59.4291,515.8447,64.4467,521.0239,67.2976,514.4002,62.28,509.2211" style="stroke:#181818;stroke-width:1.0;"/><text fill="#000000" font-family="sans-serif" font-size="13" lengthAdjust="spacing" textLength="49" x="74" y="563.6494">contains</text><text fill="#000000" font-family="sans-serif" font-size="13" lengthAdjust="spacing" textLength="7" x="56.0119" y="531.5952">1</text><text fill="#000000" font-family="sans-serif" font-size="13" lengthAdjust="spacing" textLength="20" x="66.8909" y="586.3528">1..*</text></g><!--reverse link RailNetwork to RailConnection--><g id="link_RailNetwork_RailConnection"><path codeLine="64" d="M39.9486,520.97 C30.3686,559.7 21,597.6211 21,597.6211 C21,597.6211 21,727.6211 21,727.6211 C21,727.6211 53.41,768.2811 83.67,806.2311 " fill="none" id="RailNetwork-backto-RailConnection" style="stroke:#181818;stroke-width:1.0;"/><polygon fill="#181818" points="42.83,509.3211,37.5063,514.1851,39.9486,520.97,45.2723,516.106,42.83,509.3211" style="stroke:#181818;stroke-width:1.0;"/><text fill="#000000" font-family="sans-serif" font-size="13" lengthAdjust="spacing" textLength="49" x="22" y="668.1494">contains</text><text fill="#000000" font-family="sans-serif" font-size="13" lengthAdjust="spacing" textLength="7" x="33.5837" y="531.7105">1</text><text fill="#000000" font-family="sans-serif" font-size="13" lengthAdjust="spacing" textLength="20" x="56.962" y="795.2086">1..*</text></g><!--link Station to RailConnection--><g id="link_Station_RailConnection"><path codeLine="65" d="M135,727.7011 C135,752.7511 135,781.4311 135,806.4911 " fill="none" id="Station-RailConnection" style="stroke:#181818;stroke-width:1.0;"/><text fill="#000000" font-family="sans-serif" font-size="13" lengthAdjust="spacing" textLength="68" x="136" y="772.6494">connects to</text><text fill="#000000" font-family="sans-serif" font-size="13" lengthAdjust="spacing" textLength="7" x="127.6391" y="749.3465">1</text><text fill="#000000" font-family="sans-serif" font-size="13" lengthAdjust="spacing" textLength="20" x="113.9063" y="795.497">0..*</text></g><!--reverse link MinimalBackboneNetwork to RailConnection--><g id="link_MinimalBackboneNetwork_RailConnection"><path codeLine="66" d="M234.2361,530.8665 C226.4861,620.4865 213,776.6211 213,776.6211 C213,776.6211 200.86,791.2511 186.16,808.9711 " fill="none" id="MinimalBackboneNetwork-backto-RailConnection" style="stroke:#181818;stroke-width:1.0;"/><polygon fill="#181818" points="235.27,518.9111,230.7679,524.5442,234.2361,530.8665,238.7382,525.2334,235.27,518.9111" style="stroke:#181818;stroke-width:1.0;"/><text fill="#000000" font-family="sans-serif" font-size="13" lengthAdjust="spacing" textLength="48" x="230" y="668.1494">includes</text><text fill="#000000" font-family="sans-serif" font-size="13" lengthAdjust="spacing" textLength="7" x="227.267" y="540.7861">1</text><text fill="#000000" font-family="sans-serif" font-size="13" lengthAdjust="spacing" textLength="20" x="193.9961" y="796.9195">1..*</text></g><!--reverse link MinimalBackboneNetwork to Station--><g id="link_MinimalBackboneNetwork_Station"><path codeLine="67" d="M186.1109,528.2589 C172.5509,544.3989 169,548.6211 169,548.6211 C169,548.6211 161.96,572.0211 154.28,597.5311 " fill="none" id="MinimalBackboneNetwork-backto-Station" style="stroke:#181818;stroke-width:1.0;"/><polygon fill="#181818" points="193.83,519.0711,186.9079,521.092,186.1109,528.2589,193.033,526.238,193.83,519.0711" style="stroke:#181818;stroke-width:1.0;"/><text fill="#000000" font-family="sans-serif" font-size="13" lengthAdjust="spacing" textLength="53" x="170" y="563.6494">connects</text><text fill="#000000" font-family="sans-serif" font-size="13" lengthAdjust="spacing" textLength="7" x="181.0869" y="540.5622">1</text><text fill="#000000" font-family="sans-serif" font-size="13" lengthAdjust="spacing" textLength="20" x="135.295" y="586.5414">1..*</text></g><!--reverse link MinimalBackboneNetwork to MSTAlgorithm--><g id="link_MinimalBackboneNetwork_MSTAlgorithm"><path codeLine="68" d="M295.2632,527.9445 C321.8432,558.6545 346.76,587.4311 371.87,616.4311 " fill="none" id="MinimalBackboneNetwork-backto-MSTAlgorithm" style="stroke:#181818;stroke-width:1.0;"/><polygon fill="#181818" points="287.41,518.8711,288.3121,526.0255,295.2632,527.9445,294.3611,520.7901,287.41,518.8711" style="stroke:#181818;stroke-width:1.0;"/><text fill="#000000" font-family="sans-serif" font-size="13" lengthAdjust="spacing" textLength="75" x="327" y="563.6494">computed by</text><text fill="#000000" font-family="sans-serif" font-size="13" lengthAdjust="spacing" textLength="7" x="285.7615" y="540.7412">1</text><text fill="#000000" font-family="sans-serif" font-size="13" lengthAdjust="spacing" textLength="7" x="358.6087" y="605.4126">1</text></g><!--reverse link DOTFile to MinimalBackboneNetwork--><g id="link_DOTFile_MinimalBackboneNetwork"><path codeLine="69" d="M240,340.7511 C240,365.4711 240,382.6211 240,407.3511 " fill="none" id="DOTFile-backto-MinimalBackboneNetwork" style="stroke:#181818;stroke-width:1.0;"/><polygon fill="#181818" points="240,328.7511,236,334.7511,240,340.7511,244,334.7511,240,328.7511" style="stroke:#181818;stroke-width:1.0;"/><text fill="#000000" font-family="sans-serif" font-size="13" lengthAdjust="spacing" textLength="61" x="241" y="373.6494">represents</text><text fill="#000000" font-family="sans-serif" font-size="13" lengthAdjust="spacing" textLength="7" x="232.5734" y="350.6066">1</text><text fill="#000000" font-family="sans-serif" font-size="13" lengthAdjust="spacing" textLength="7" x="232.5734" y="396.5578">1</text></g><!--reverse link SVGVisualization to DOTFile--><g id="link_SVGVisualization_DOTFile"><path codeLine="70" d="M240,150.6611 C240,174.6211 240,192.2711 240,217.5311 " fill="none" id="SVGVisualization-backto-DOTFile" style="stroke:#181818;stroke-width:1.0;"/><polygon fill="#181818" points="240,138.6611,236,144.6611,240,150.6611,244,144.6611,240,138.6611" style="stroke:#181818;stroke-width:1.0;"/><text fill="#000000" font-family="sans-serif" font-size="13" lengthAdjust="spacing" textLength="86" x="241" y="183.6494">generated from</text><text fill="#000000" font-family="sans-serif" font-size="13" lengthAdjust="spacing" textLength="7" x="232.4641" y="161.026">1</text><text fill="#000000" font-family="sans-serif" font-size="13" lengthAdjust="spacing" textLength="7" x="232.5516" y="206.3598">1</text></g><!--SRC=[ZLHDJzj04BtlhnZbqXO913tc1acAeXQASA0NBXjxOe-o7zRk630L_xsxiHtRePJwOazsvhsPDs_3n0hXBbaipxx2CLoH8IqLNCXqkxO6uHhvoRejV9vVVH6Ye0mX9PSgRBurSc4pB_oMJ2cTr526IfbZmdN0TPYoD7d8xXDy8JFxH2Q7ZLH-UAB88DSbGcbL7OF1MQgaz-VCZjOLupAr9g4NX5CXFi7CEeIvrP8CB0mJ4tgnAu249PCry5j0U7mJBRDXT2qrxkBdcRMkEQhxpzHMXbqjNaKBUIj9pQmnORGUUUEiRhbsCTjXb57WCcb3ayeW4N7TediUGtU2ZphsRNB7wbiIbchUORz6AMxHLuh3sAvAkN9x7TgzTciTasZFYop70UWFD3aNGrBCPbQNeTIm7tOsY_Bq4yn_hhvHM7m3d5aEId6esON6PZZ7JMYbdm43yU5lIjQsueN9emNsqCdzvJtvIYfw6UtqCO-CDxBjLyioIQLgj5w7xh9WjGlxtEXphdBhY0iDWt5QYP9LVzfWoovU1LVswln2oejc97p6j8hTh4ZlLw2QdHLKUZ5SwUHi0aV7n-5zSd8qsNjp6ZNcODv_PX_ORb3KuSI2c7_wRduCV9X1l6E7ZoZ9fAhAWb7-htuqu8xxuyB9U0-nL9VXncUmhaNdhb7wtn6duR-d3FxVBVYDTOO07UWKSZJePEIArpdkyjeomiQws9GmCM1RWjqSDZcJ1jO8DuuqXEplhl9RgHxCta0ZiCTXBmsiYuwAm6zQdSATHm-NJfR5FRt0nA1aEtam4QcvAU8F]--></g></svg>