<svg xmlns="http://www.w3.org/2000/svg" xmlns:xlink="http://www.w3.org/1999/xlink" contentStyleType="text/css" height="1267px" preserveAspectRatio="none" style="width:1409px;height:1267px;background:#FFFFFF;" version="1.1" viewBox="0 0 1409 1267" width="1409px" zoomAndPan="magnify"><defs/><g><rect fill="#FFFFFF" height="1041.6465" style="stroke:#181818;stroke-width:1.0;" width="10" x="48.0054" y="112.7988"/><rect fill="#FFFFFF" height="1062.957" style="stroke:#181818;stroke-width:1.0;" width="10" x="318.6597" y="91.4883"/><rect fill="#FFFFFF" height="87.9316" style="stroke:#181818;stroke-width:1.0;" width="10" x="578.5547" y="212.9082"/><rect fill="#FFFFFF" height="736.3633" style="stroke:#181818;stroke-width:1.0;" width="10" x="578.5547" y="388.7715"/><rect fill="#FFFFFF" height="29.3105" style="stroke:#181818;stroke-width:1.0;" width="10" x="807.2783" y="242.2188"/><rect fill="#FFFFFF" height="459.5684" style="stroke:#181818;stroke-width:1.0;" width="10" x="893.5742" y="418.082"/><rect fill="#FFFFFF" height="29.3105" style="stroke:#181818;stroke-width:1.0;" width="10" x="990.0146" y="906.9609"/><rect fill="#FFFFFF" height="29.3105" style="stroke:#181818;stroke-width:1.0;" width="10" x="1100.0244" y="965.582"/><rect fill="#FFFFFF" height="71.6211" style="stroke:#181818;stroke-width:1.0;" width="10" x="1218.5005" y="1024.2031"/><rect fill="none" height="736.3633" style="stroke:#000000;stroke-width:1.5;" width="1392.5161" x="10" y="433.082"/><rect fill="none" height="514.2344" style="stroke:#000000;stroke-width:1.5;" width="1372.5161" x="20" y="648.2109"/><line style="stroke:#181818;stroke-width:0.5;stroke-dasharray:5.0,5.0;" x1="53" x2="53" y1="81.4883" y2="1186.4453"/><line style="stroke:#181818;stroke-width:0.5;stroke-dasharray:5.0,5.0;" x1="323.2861" x2="323.2861" y1="81.4883" y2="1186.4453"/><line style="stroke:#181818;stroke-width:0.5;stroke-dasharray:5.0,5.0;" x1="582.9585" x2="582.9585" y1="180.8535" y2="1186.4453"/><line style="stroke:#181818;stroke-width:0.5;stroke-dasharray:5.0,5.0;" x1="811.5254" x2="811.5254" y1="81.4883" y2="1186.4453"/><line style="stroke:#181818;stroke-width:0.5;stroke-dasharray:5.0,5.0;" x1="898.0313" x2="898.0313" y1="81.4883" y2="1186.4453"/><line style="stroke:#181818;stroke-width:0.5;stroke-dasharray:5.0,5.0;" x1="994.1172" x2="994.1172" y1="81.4883" y2="1186.4453"/><line style="stroke:#181818;stroke-width:0.5;stroke-dasharray:5.0,5.0;" x1="1104.9121" x2="1104.9121" y1="81.4883" y2="1186.4453"/><line style="stroke:#181818;stroke-width:0.5;stroke-dasharray:5.0,5.0;" x1="1223.1367" x2="1223.1367" y1="81.4883" y2="1186.4453"/><text fill="#000000" font-family="sans-serif" font-size="14" lengthAdjust="spacing" textLength="40.0107" x="30" y="78.5352">Editor</text><ellipse cx="53.0054" cy="13.5" fill="#E2E2F0" rx="8" ry="8" style="stroke:#181818;stroke-width:0.5;"/><path d="M53.0054,21.5 L53.0054,48.5 M40.0054,29.5 L66.0054,29.5 M53.0054,48.5 L40.0054,63.5 M53.0054,48.5 L66.0054,63.5 " fill="none" style="stroke:#181818;stroke-width:0.5;"/><text fill="#000000" font-family="sans-serif" font-size="14" lengthAdjust="spacing" textLength="40.0107" x="30" y="1198.9805">Editor</text><ellipse cx="53.0054" cy="1210.4336" fill="#E2E2F0" rx="8" ry="8" style="stroke:#181818;stroke-width:0.5;"/><path d="M53.0054,1218.4336 L53.0054,1245.4336 M40.0054,1226.4336 L66.0054,1226.4336 M53.0054,1245.4336 L40.0054,1260.4336 M53.0054,1245.4336 L66.0054,1260.4336 " fill="none" style="stroke:#181818;stroke-width:0.5;"/><rect fill="#E2E2F0" height="30.4883" rx="2.5" ry="2.5" style="stroke:#181818;stroke-width:0.5;" width="104.7471" x="271.2861" y="50"/><text fill="#000000" font-family="sans-serif" font-size="14" lengthAdjust="spacing" textLength="90.7471" x="278.2861" y="70.5352">:CreateMapUI</text><rect fill="#E2E2F0" height="30.4883" rx="2.5" ry="2.5" style="stroke:#181818;stroke-width:0.5;" width="104.7471" x="271.2861" y="1185.4453"/><text fill="#000000" font-family="sans-serif" font-size="14" lengthAdjust="spacing" textLength="90.7471" x="278.2861" y="1205.9805">:CreateMapUI</text><rect fill="#E2E2F0" height="30.4883" rx="2.5" ry="2.5" style="stroke:#181818;stroke-width:0.5;" width="115.1924" x="525.9585" y="1185.4453"/><text fill="#000000" font-family="sans-serif" font-size="14" lengthAdjust="spacing" textLength="101.1924" x="532.9585" y="1205.9805">:MapController</text><rect fill="#E2E2F0" height="30.4883" rx="2.5" ry="2.5" style="stroke:#181818;stroke-width:0.5;" width="77.5059" x="773.5254" y="50"/><text fill="#000000" font-family="sans-serif" font-size="14" lengthAdjust="spacing" textLength="63.5059" x="780.5254" y="70.5352">MapForm</text><rect fill="#E2E2F0" height="30.4883" rx="2.5" ry="2.5" style="stroke:#181818;stroke-width:0.5;" width="77.5059" x="773.5254" y="1185.4453"/><text fill="#000000" font-family="sans-serif" font-size="14" lengthAdjust="spacing" textLength="63.5059" x="780.5254" y="1205.9805">MapForm</text><rect fill="#E2E2F0" height="30.4883" rx="2.5" ry="2.5" style="stroke:#181818;stroke-width:0.5;" width="75.0859" x="861.0313" y="50"/><text fill="#000000" font-family="sans-serif" font-size="14" lengthAdjust="spacing" textLength="61.0859" x="868.0313" y="70.5352">Validator</text><rect fill="#E2E2F0" height="30.4883" rx="2.5" ry="2.5" style="stroke:#181818;stroke-width:0.5;" width="75.0859" x="861.0313" y="1185.4453"/><text fill="#000000" font-family="sans-serif" font-size="14" lengthAdjust="spacing" textLength="61.0859" x="868.0313" y="1205.9805">Validator</text><rect fill="#E2E2F0" height="30.4883" rx="2.5" ry="2.5" style="stroke:#181818;stroke-width:0.5;" width="97.7949" x="946.1172" y="50"/><text fill="#000000" font-family="sans-serif" font-size="14" lengthAdjust="spacing" textLength="83.7949" x="953.1172" y="70.5352">Repositories</text><rect fill="#E2E2F0" height="30.4883" rx="2.5" ry="2.5" style="stroke:#181818;stroke-width:0.5;" width="97.7949" x="946.1172" y="1185.4453"/><text fill="#000000" font-family="sans-serif" font-size="14" lengthAdjust="spacing" textLength="83.7949" x="953.1172" y="1205.9805">Repositories</text><rect fill="#E2E2F0" height="46.9766" rx="2.5" ry="2.5" style="stroke:#181818;stroke-width:0.5;" width="102.2246" x="1053.9121" y="33.5117"/><text fill="#000000" font-family="sans-serif" font-size="14" lengthAdjust="spacing" textLength="80.6709" x="1064.689" y="54.0469">repositories</text><text fill="#000000" font-family="sans-serif" font-size="14" lengthAdjust="spacing" textLength="88.2246" x="1060.9121" y="70.5352">:Repositories</text><rect fill="#E2E2F0" height="46.9766" rx="2.5" ry="2.5" style="stroke:#181818;stroke-width:0.5;" width="102.2246" x="1053.9121" y="1185.4453"/><text fill="#000000" font-family="sans-serif" font-size="14" lengthAdjust="spacing" textLength="80.6709" x="1064.689" y="1205.9805">repositories</text><text fill="#000000" font-family="sans-serif" font-size="14" lengthAdjust="spacing" textLength="88.2246" x="1060.9121" y="1222.4688">:Repositories</text><rect fill="#E2E2F0" height="30.4883" rx="2.5" ry="2.5" style="stroke:#181818;stroke-width:0.5;" width="114.7275" x="1166.1367" y="50"/><text fill="#000000" font-family="sans-serif" font-size="14" lengthAdjust="spacing" textLength="100.7275" x="1173.1367" y="70.5352">MapRepository</text><rect fill="#E2E2F0" height="30.4883" rx="2.5" ry="2.5" style="stroke:#181818;stroke-width:0.5;" width="114.7275" x="1166.1367" y="1185.4453"/><text fill="#000000" font-family="sans-serif" font-size="14" lengthAdjust="spacing" textLength="100.7275" x="1173.1367" y="1205.9805">MapRepository</text><rect fill="#FFFFFF" height="1041.6465" style="stroke:#181818;stroke-width:1.0;" width="10" x="48.0054" y="112.7988"/><rect fill="#FFFFFF" height="1062.957" style="stroke:#181818;stroke-width:1.0;" width="10" x="318.6597" y="91.4883"/><rect fill="#FFFFFF" height="87.9316" style="stroke:#181818;stroke-width:1.0;" width="10" x="578.5547" y="212.9082"/><rect fill="#FFFFFF" height="736.3633" style="stroke:#181818;stroke-width:1.0;" width="10" x="578.5547" y="388.7715"/><rect fill="#FFFFFF" height="29.3105" style="stroke:#181818;stroke-width:1.0;" width="10" x="807.2783" y="242.2188"/><rect fill="#FFFFFF" height="459.5684" style="stroke:#181818;stroke-width:1.0;" width="10" x="893.5742" y="418.082"/><rect fill="#FFFFFF" height="29.3105" style="stroke:#181818;stroke-width:1.0;" width="10" x="990.0146" y="906.9609"/><rect fill="#FFFFFF" height="29.3105" style="stroke:#181818;stroke-width:1.0;" width="10" x="1100.0244" y="965.582"/><rect fill="#FFFFFF" height="71.6211" style="stroke:#181818;stroke-width:1.0;" width="10" x="1218.5005" y="1024.2031"/><polygon fill="#181818" points="69.0054,108.7988,59.0054,112.7988,69.0054,116.7988,65.0054,112.7988" style="stroke:#181818;stroke-width:1.0;"/><line style="stroke:#181818;stroke-width:1.0;stroke-dasharray:2.0,2.0;" x1="63.0054" x2="317.6597" y1="112.7988" y2="112.7988"/><text fill="#000000" font-family="sans-serif" font-size="13" font-weight="bold" lengthAdjust="spacing" textLength="8.5757" x="75.0054" y="108.0566">1</text><text fill="#000000" font-family="sans-serif" font-size="13" lengthAdjust="spacing" textLength="90.7334" x="87.5811" y="108.0566">displays menu</text><polygon fill="#181818" points="306.6597,138.1094,316.6597,142.1094,306.6597,146.1094,310.6597,142.1094" style="stroke:#181818;stroke-width:1.0;"/><line style="stroke:#181818;stroke-width:1.0;" x1="58.0054" x2="312.6597" y1="142.1094" y2="142.1094"/><text fill="#000000" font-family="sans-serif" font-size="13" font-weight="bold" lengthAdjust="spacing" textLength="8.5757" x="65.0054" y="137.3672">2</text><text fill="#000000" font-family="sans-serif" font-size="13" lengthAdjust="spacing" textLength="158.8691" x="77.5811" y="137.3672">Selects to create the map</text><polygon fill="#181818" points="513.9585,167.4199,523.9585,171.4199,513.9585,175.4199,517.9585,171.4199" style="stroke:#181818;stroke-width:1.0;"/><line style="stroke:#181818;stroke-width:1.0;stroke-dasharray:2.0,2.0;" x1="328.6597" x2="519.9585" y1="171.4199" y2="171.4199"/><text fill="#000000" font-family="sans-serif" font-size="13" font-weight="bold" lengthAdjust="spacing" textLength="8.5757" x="335.6597" y="166.6777">3</text><text fill="#000000" font-family="sans-serif" font-size="13" lengthAdjust="spacing" textLength="46.96" x="348.2354" y="166.6777">create()</text><rect fill="#E2E2F0" height="30.4883" rx="2.5" ry="2.5" style="stroke:#181818;stroke-width:0.5;" width="115.1924" x="525.9585" y="150.1094"/><text fill="#000000" font-family="sans-serif" font-size="14" lengthAdjust="spacing" textLength="101.1924" x="532.9585" y="170.6445">:MapController</text><polygon fill="#181818" points="566.5547,208.9082,576.5547,212.9082,566.5547,216.9082,570.5547,212.9082" style="stroke:#181818;stroke-width:1.0;"/><line style="stroke:#181818;stroke-width:1.0;" x1="328.6597" x2="572.5547" y1="212.9082" y2="212.9082"/><text fill="#000000" font-family="sans-serif" font-size="13" font-weight="bold" lengthAdjust="spacing" textLength="8.5757" x="335.6597" y="208.166">4</text><text fill="#000000" font-family="sans-serif" font-size="13" lengthAdjust="spacing" textLength="88.4102" x="348.2354" y="208.166">requestForm()</text><polygon fill="#181818" points="795.2783,238.2188,805.2783,242.2188,795.2783,246.2188,799.2783,242.2188" style="stroke:#181818;stroke-width:1.0;"/><line style="stroke:#181818;stroke-width:1.0;" x1="588.5547" x2="801.2783" y1="242.2188" y2="242.2188"/><text fill="#000000" font-family="sans-serif" font-size="13" font-weight="bold" lengthAdjust="spacing" textLength="8.5757" x="595.5547" y="237.4766">5</text><text fill="#000000" font-family="sans-serif" font-size="13" lengthAdjust="spacing" textLength="187.1479" x="608.1304" y="237.4766">getForm(name, width, height)</text><polygon fill="#181818" points="599.5547,267.5293,589.5547,271.5293,599.5547,275.5293,595.5547,271.5293" style="stroke:#181818;stroke-width:1.0;"/><line style="stroke:#181818;stroke-width:1.0;stroke-dasharray:2.0,2.0;" x1="593.5547" x2="811.2783" y1="271.5293" y2="271.5293"/><text fill="#000000" font-family="sans-serif" font-size="13" font-weight="bold" lengthAdjust="spacing" textLength="8.5757" x="605.5547" y="266.7871">6</text><text fill="#000000" font-family="sans-serif" font-size="13" lengthAdjust="spacing" textLength="52.6221" x="618.1304" y="266.7871">getForm</text><polygon fill="#181818" points="339.6597,296.8398,329.6597,300.8398,339.6597,304.8398,335.6597,300.8398" style="stroke:#181818;stroke-width:1.0;"/><line style="stroke:#181818;stroke-width:1.0;stroke-dasharray:2.0,2.0;" x1="333.6597" x2="582.5547" y1="300.8398" y2="300.8398"/><text fill="#000000" font-family="sans-serif" font-size="13" font-weight="bold" lengthAdjust="spacing" textLength="8.5757" x="345.6597" y="296.0977">7</text><text fill="#000000" font-family="sans-serif" font-size="13" lengthAdjust="spacing" textLength="52.6221" x="358.2354" y="296.0977">getForm</text><polygon fill="#181818" points="69.0054,326.1504,59.0054,330.1504,69.0054,334.1504,65.0054,330.1504" style="stroke:#181818;stroke-width:1.0;"/><line style="stroke:#181818;stroke-width:1.0;stroke-dasharray:2.0,2.0;" x1="63.0054" x2="317.6597" y1="330.1504" y2="330.1504"/><text fill="#000000" font-family="sans-serif" font-size="13" font-weight="bold" lengthAdjust="spacing" textLength="8.5757" x="75.0054" y="325.4082">8</text><text fill="#000000" font-family="sans-serif" font-size="13" lengthAdjust="spacing" textLength="224.0786" x="87.5811" y="325.4082">displays form (name, width, height)</text><polygon fill="#181818" points="306.6597,355.4609,316.6597,359.4609,306.6597,363.4609,310.6597,359.4609" style="stroke:#181818;stroke-width:1.0;"/><line style="stroke:#181818;stroke-width:1.0;" x1="58.0054" x2="312.6597" y1="359.4609" y2="359.4609"/><text fill="#000000" font-family="sans-serif" font-size="13" font-weight="bold" lengthAdjust="spacing" textLength="8.5757" x="65.0054" y="354.7188">9</text><text fill="#000000" font-family="sans-serif" font-size="13" lengthAdjust="spacing" textLength="99.7026" x="77.5811" y="354.7188">fill out the form</text><polygon fill="#181818" points="566.5547,384.7715,576.5547,388.7715,566.5547,392.7715,570.5547,388.7715" style="stroke:#181818;stroke-width:1.0;"/><line style="stroke:#181818;stroke-width:1.0;" x1="328.6597" x2="572.5547" y1="388.7715" y2="388.7715"/><text fill="#000000" font-family="sans-serif" font-size="13" font-weight="bold" lengthAdjust="spacing" textLength="17.1514" x="335.6597" y="384.0293">10</text><text fill="#000000" font-family="sans-serif" font-size="13" lengthAdjust="spacing" textLength="102.5527" x="356.811" y="384.0293">getInformation()</text><polygon fill="#181818" points="881.5742,414.082,891.5742,418.082,881.5742,422.082,885.5742,418.082" style="stroke:#181818;stroke-width:1.0;"/><line style="stroke:#181818;stroke-width:1.0;" x1="588.5547" x2="887.5742" y1="418.082" y2="418.082"/><text fill="#000000" font-family="sans-serif" font-size="13" font-weight="bold" lengthAdjust="spacing" textLength="17.1514" x="595.5547" y="413.3398">11</text><text fill="#000000" font-family="sans-serif" font-size="13" lengthAdjust="spacing" textLength="257.3022" x="616.7061" y="413.3398">validateInformation(name, width, height)</text><path d="M10,433.082 L72.1387,433.082 L72.1387,440.3926 L62.1387,450.3926 L10,450.3926 L10,433.082 " fill="#EEEEEE" style="stroke:#000000;stroke-width:1.5;"/><rect fill="none" height="736.3633" style="stroke:#000000;stroke-width:1.5;" width="1392.5161" x="10" y="433.082"/><text fill="#000000" font-family="sans-serif" font-size="13" font-weight="bold" lengthAdjust="spacing" textLength="17.1387" x="25" y="446.6504">alt</text><text fill="#000000" font-family="sans-serif" font-size="11" font-weight="bold" lengthAdjust="spacing" textLength="80.8188" x="87.1387" y="445.7168">[invalid name]</text><polygon fill="#181818" points="599.5547,467.7031,589.5547,471.7031,599.5547,475.7031,595.5547,471.7031" style="stroke:#181818;stroke-width:1.0;"/><line style="stroke:#181818;stroke-width:1.0;stroke-dasharray:2.0,2.0;" x1="593.5547" x2="892.5742" y1="471.7031" y2="471.7031"/><text fill="#000000" font-family="sans-serif" font-size="13" font-weight="bold" lengthAdjust="spacing" textLength="17.1514" x="605.5547" y="466.9609">12</text><text fill="#000000" font-family="sans-serif" font-size="13" lengthAdjust="spacing" textLength="80.1709" x="626.7061" y="466.9609">invalid name</text><polygon fill="#181818" points="339.6597,497.0137,329.6597,501.0137,339.6597,505.0137,335.6597,501.0137" style="stroke:#181818;stroke-width:1.0;"/><line style="stroke:#181818;stroke-width:1.0;stroke-dasharray:2.0,2.0;" x1="333.6597" x2="577.5547" y1="501.0137" y2="501.0137"/><text fill="#000000" font-family="sans-serif" font-size="13" font-weight="bold" lengthAdjust="spacing" textLength="17.1514" x="345.6597" y="496.2715">13</text><text fill="#000000" font-family="sans-serif" font-size="13" lengthAdjust="spacing" textLength="166.918" x="366.811" y="496.2715">return error (invalid name)</text><polygon fill="#181818" points="69.0054,526.3242,59.0054,530.3242,69.0054,534.3242,65.0054,530.3242" style="stroke:#181818;stroke-width:1.0;"/><line style="stroke:#181818;stroke-width:1.0;stroke-dasharray:2.0,2.0;" x1="63.0054" x2="317.6597" y1="530.3242" y2="530.3242"/><text fill="#000000" font-family="sans-serif" font-size="13" font-weight="bold" lengthAdjust="spacing" textLength="17.1514" x="75.0054" y="525.582">14</text><text fill="#000000" font-family="sans-serif" font-size="13" lengthAdjust="spacing" textLength="123.8428" x="96.1567" y="525.582">displays form again</text><polygon fill="#181818" points="306.6597,555.6348,316.6597,559.6348,306.6597,563.6348,310.6597,559.6348" style="stroke:#181818;stroke-width:1.0;"/><line style="stroke:#181818;stroke-width:1.0;" x1="58.0054" x2="312.6597" y1="559.6348" y2="559.6348"/><text fill="#000000" font-family="sans-serif" font-size="13" font-weight="bold" lengthAdjust="spacing" textLength="17.1514" x="65.0054" y="554.8926">15</text><text fill="#000000" font-family="sans-serif" font-size="13" lengthAdjust="spacing" textLength="99.7026" x="86.1567" y="554.8926">fill out the form</text><polygon fill="#181818" points="566.5547,584.9453,576.5547,588.9453,566.5547,592.9453,570.5547,588.9453" style="stroke:#181818;stroke-width:1.0;"/><line style="stroke:#181818;stroke-width:1.0;" x1="328.6597" x2="572.5547" y1="588.9453" y2="588.9453"/><text fill="#000000" font-family="sans-serif" font-size="13" font-weight="bold" lengthAdjust="spacing" textLength="17.1514" x="335.6597" y="584.2031">16</text><text fill="#000000" font-family="sans-serif" font-size="13" lengthAdjust="spacing" textLength="102.5527" x="356.811" y="584.2031">getInformation()</text><polygon fill="#181818" points="881.5742,614.2559,891.5742,618.2559,881.5742,622.2559,885.5742,618.2559" style="stroke:#181818;stroke-width:1.0;"/><line style="stroke:#181818;stroke-width:1.0;" x1="588.5547" x2="887.5742" y1="618.2559" y2="618.2559"/><text fill="#000000" font-family="sans-serif" font-size="13" font-weight="bold" lengthAdjust="spacing" textLength="17.1514" x="595.5547" y="613.5137">17</text><text fill="#000000" font-family="sans-serif" font-size="13" lengthAdjust="spacing" textLength="257.3022" x="616.7061" y="613.5137">validateInformation(name, width, height)</text><line style="stroke:#000000;stroke-width:1.0;stroke-dasharray:2.0,2.0;" x1="10" x2="1402.5161" y1="627.2559" y2="627.2559"/><text fill="#000000" font-family="sans-serif" font-size="11" font-weight="bold" lengthAdjust="spacing" textLength="70.0176" x="15" y="637.8906">[valid name]</text><path d="M20,648.2109 L82.1387,648.2109 L82.1387,655.5215 L72.1387,665.5215 L20,665.5215 L20,648.2109 " fill="#EEEEEE" style="stroke:#000000;stroke-width:1.5;"/><rect fill="none" height="514.2344" style="stroke:#000000;stroke-width:1.5;" width="1372.5161" x="20" y="648.2109"/><text fill="#000000" font-family="sans-serif" font-size="13" font-weight="bold" lengthAdjust="spacing" textLength="17.1387" x="35" y="661.7793">alt</text><text fill="#000000" font-family="sans-serif" font-size="11" font-weight="bold" lengthAdjust="spacing" textLength="115.4839" x="97.1387" y="660.8457">[invalid dimensions]</text><polygon fill="#181818" points="599.5547,682.832,589.5547,686.832,599.5547,690.832,595.5547,686.832" style="stroke:#181818;stroke-width:1.0;"/><line style="stroke:#181818;stroke-width:1.0;stroke-dasharray:2.0,2.0;" x1="593.5547" x2="892.5742" y1="686.832" y2="686.832"/><text fill="#000000" font-family="sans-serif" font-size="13" font-weight="bold" lengthAdjust="spacing" textLength="17.1514" x="605.5547" y="682.0898">18</text><text fill="#000000" font-family="sans-serif" font-size="13" lengthAdjust="spacing" textLength="117.9966" x="626.7061" y="682.0898">invalid dimensions</text><polygon fill="#181818" points="339.6597,712.1426,329.6597,716.1426,339.6597,720.1426,335.6597,716.1426" style="stroke:#181818;stroke-width:1.0;"/><line style="stroke:#181818;stroke-width:1.0;stroke-dasharray:2.0,2.0;" x1="333.6597" x2="577.5547" y1="716.1426" y2="716.1426"/><text fill="#000000" font-family="sans-serif" font-size="13" font-weight="bold" lengthAdjust="spacing" textLength="17.1514" x="345.6597" y="711.4004">19</text><text fill="#000000" font-family="sans-serif" font-size="13" lengthAdjust="spacing" textLength="204.7437" x="366.811" y="711.4004">return error (invalid dimensions)</text><polygon fill="#181818" points="69.0054,741.4531,59.0054,745.4531,69.0054,749.4531,65.0054,745.4531" style="stroke:#181818;stroke-width:1.0;"/><line style="stroke:#181818;stroke-width:1.0;stroke-dasharray:2.0,2.0;" x1="63.0054" x2="317.6597" y1="745.4531" y2="745.4531"/><text fill="#000000" font-family="sans-serif" font-size="13" font-weight="bold" lengthAdjust="spacing" textLength="17.1514" x="75.0054" y="740.7109">20</text><text fill="#000000" font-family="sans-serif" font-size="13" lengthAdjust="spacing" textLength="123.8428" x="96.1567" y="740.7109">displays form again</text><polygon fill="#181818" points="306.6597,770.7637,316.6597,774.7637,306.6597,778.7637,310.6597,774.7637" style="stroke:#181818;stroke-width:1.0;"/><line style="stroke:#181818;stroke-width:1.0;" x1="58.0054" x2="312.6597" y1="774.7637" y2="774.7637"/><text fill="#000000" font-family="sans-serif" font-size="13" font-weight="bold" lengthAdjust="spacing" textLength="17.1514" x="65.0054" y="770.0215">21</text><text fill="#000000" font-family="sans-serif" font-size="13" lengthAdjust="spacing" textLength="99.7026" x="86.1567" y="770.0215">fill out the form</text><polygon fill="#181818" points="566.5547,800.0742,576.5547,804.0742,566.5547,808.0742,570.5547,804.0742" style="stroke:#181818;stroke-width:1.0;"/><line style="stroke:#181818;stroke-width:1.0;" x1="328.6597" x2="572.5547" y1="804.0742" y2="804.0742"/><text fill="#000000" font-family="sans-serif" font-size="13" font-weight="bold" lengthAdjust="spacing" textLength="17.1514" x="335.6597" y="799.332">22</text><text fill="#000000" font-family="sans-serif" font-size="13" lengthAdjust="spacing" textLength="102.5527" x="356.811" y="799.332">getInformation()</text><polygon fill="#181818" points="881.5742,829.3848,891.5742,833.3848,881.5742,837.3848,885.5742,833.3848" style="stroke:#181818;stroke-width:1.0;"/><line style="stroke:#181818;stroke-width:1.0;" x1="588.5547" x2="887.5742" y1="833.3848" y2="833.3848"/><text fill="#000000" font-family="sans-serif" font-size="13" font-weight="bold" lengthAdjust="spacing" textLength="17.1514" x="595.5547" y="828.6426">23</text><text fill="#000000" font-family="sans-serif" font-size="13" lengthAdjust="spacing" textLength="257.3022" x="616.7061" y="828.6426">validateInformation(name, width, height)</text><line style="stroke:#000000;stroke-width:1.0;stroke-dasharray:2.0,2.0;" x1="20" x2="1392.5161" y1="842.3848" y2="842.3848"/><text fill="#000000" font-family="sans-serif" font-size="11" font-weight="bold" lengthAdjust="spacing" textLength="104.6826" x="25" y="853.0195">[valid dimensions]</text><polygon fill="#181818" points="599.5547,873.6504,589.5547,877.6504,599.5547,881.6504,595.5547,877.6504" style="stroke:#181818;stroke-width:1.0;"/><line style="stroke:#181818;stroke-width:1.0;" x1="593.5547" x2="897.5742" y1="877.6504" y2="877.6504"/><text fill="#000000" font-family="sans-serif" font-size="13" font-weight="bold" lengthAdjust="spacing" textLength="17.1514" x="605.5547" y="872.9082">24</text><text fill="#000000" font-family="sans-serif" font-size="13" lengthAdjust="spacing" textLength="172.4531" x="626.7061" y="872.9082">valid name and dimensions</text><polygon fill="#181818" points="978.0146,902.9609,988.0146,906.9609,978.0146,910.9609,982.0146,906.9609" style="stroke:#181818;stroke-width:1.0;"/><line style="stroke:#181818;stroke-width:1.0;" x1="588.5547" x2="984.0146" y1="906.9609" y2="906.9609"/><text fill="#000000" font-family="sans-serif" font-size="13" font-weight="bold" lengthAdjust="spacing" textLength="17.1514" x="595.5547" y="902.2188">25</text><text fill="#000000" font-family="sans-serif" font-size="13" lengthAdjust="spacing" textLength="81.1167" x="616.7061" y="902.2188">getInstance()</text><polygon fill="#181818" points="599.5547,932.2715,589.5547,936.2715,599.5547,940.2715,595.5547,936.2715" style="stroke:#181818;stroke-width:1.0;"/><line style="stroke:#181818;stroke-width:1.0;stroke-dasharray:2.0,2.0;" x1="593.5547" x2="994.0146" y1="936.2715" y2="936.2715"/><text fill="#000000" font-family="sans-serif" font-size="13" font-weight="bold" lengthAdjust="spacing" textLength="17.1514" x="605.5547" y="931.5293">26</text><text fill="#000000" font-family="sans-serif" font-size="13" lengthAdjust="spacing" textLength="74.9087" x="626.7061" y="931.5293">repositories</text><polygon fill="#181818" points="1088.0244,961.582,1098.0244,965.582,1088.0244,969.582,1092.0244,965.582" style="stroke:#181818;stroke-width:1.0;"/><line style="stroke:#181818;stroke-width:1.0;" x1="588.5547" x2="1094.0244" y1="965.582" y2="965.582"/><text fill="#000000" font-family="sans-serif" font-size="13" font-weight="bold" lengthAdjust="spacing" textLength="17.1514" x="595.5547" y="960.8398">27</text><text fill="#000000" font-family="sans-serif" font-size="13" lengthAdjust="spacing" textLength="122.1987" x="616.7061" y="960.8398">getMapRepository()</text><polygon fill="#181818" points="599.5547,990.8926,589.5547,994.8926,599.5547,998.8926,595.5547,994.8926" style="stroke:#181818;stroke-width:1.0;"/><line style="stroke:#181818;stroke-width:1.0;stroke-dasharray:2.0,2.0;" x1="593.5547" x2="1104.0244" y1="994.8926" y2="994.8926"/><text fill="#000000" font-family="sans-serif" font-size="13" font-weight="bold" lengthAdjust="spacing" textLength="17.1514" x="605.5547" y="990.1504">28</text><text fill="#000000" font-family="sans-serif" font-size="13" lengthAdjust="spacing" textLength="93.5327" x="626.7061" y="990.1504">MapRepository</text><polygon fill="#181818" points="1206.5005,1020.2031,1216.5005,1024.2031,1206.5005,1028.2031,1210.5005,1024.2031" style="stroke:#181818;stroke-width:1.0;"/><line style="stroke:#181818;stroke-width:1.0;" x1="588.5547" x2="1212.5005" y1="1024.2031" y2="1024.2031"/><text fill="#000000" font-family="sans-serif" font-size="13" font-weight="bold" lengthAdjust="spacing" textLength="17.1514" x="595.5547" y="1019.4609">29</text><text fill="#000000" font-family="sans-serif" font-size="13" lengthAdjust="spacing" textLength="199.5894" x="616.7061" y="1019.4609">createMap(name, width, height)</text><line style="stroke:#181818;stroke-width:1.0;" x1="1228.5005" x2="1270.5005" y1="1053.5137" y2="1053.5137"/><line style="stroke:#181818;stroke-width:1.0;" x1="1270.5005" x2="1270.5005" y1="1053.5137" y2="1066.5137"/><line style="stroke:#181818;stroke-width:1.0;" x1="1229.5005" x2="1270.5005" y1="1066.5137" y2="1066.5137"/><polygon fill="#181818" points="1239.5005,1062.5137,1229.5005,1066.5137,1239.5005,1070.5137,1235.5005,1066.5137" style="stroke:#181818;stroke-width:1.0;"/><text fill="#000000" font-family="sans-serif" font-size="13" font-weight="bold" lengthAdjust="spacing" textLength="17.1514" x="1235.5005" y="1048.7715">30</text><text fill="#000000" font-family="sans-serif" font-size="13" lengthAdjust="spacing" textLength="113.8643" x="1256.6519" y="1048.7715">createNewMap(ID)</text><polygon fill="#181818" points="599.5547,1091.8242,589.5547,1095.8242,599.5547,1099.8242,595.5547,1095.8242" style="stroke:#181818;stroke-width:1.0;"/><line style="stroke:#181818;stroke-width:1.0;stroke-dasharray:2.0,2.0;" x1="593.5547" x2="1222.5005" y1="1095.8242" y2="1095.8242"/><text fill="#000000" font-family="sans-serif" font-size="13" font-weight="bold" lengthAdjust="spacing" textLength="17.1514" x="605.5547" y="1091.082">31</text><text fill="#000000" font-family="sans-serif" font-size="13" lengthAdjust="spacing" textLength="27.498" x="626.7061" y="1091.082">map</text><polygon fill="#181818" points="339.6597,1121.1348,329.6597,1125.1348,339.6597,1129.1348,335.6597,1125.1348" style="stroke:#181818;stroke-width:1.0;"/><line style="stroke:#181818;stroke-width:1.0;stroke-dasharray:2.0,2.0;" x1="333.6597" x2="582.5547" y1="1125.1348" y2="1125.1348"/><text fill="#000000" font-family="sans-serif" font-size="13" font-weight="bold" lengthAdjust="spacing" textLength="17.1514" x="345.6597" y="1120.3926">32</text><text fill="#000000" font-family="sans-serif" font-size="13" lengthAdjust="spacing" textLength="27.498" x="366.811" y="1120.3926">map</text><polygon fill="#181818" points="64.0054,1150.4453,54.0054,1154.4453,64.0054,1158.4453,60.0054,1154.4453" style="stroke:#181818;stroke-width:1.0;"/><line style="stroke:#181818;stroke-width:1.0;stroke-dasharray:2.0,2.0;" x1="58.0054" x2="322.6597" y1="1154.4453" y2="1154.4453"/><text fill="#000000" font-family="sans-serif" font-size="13" font-weight="bold" lengthAdjust="spacing" textLength="17.1514" x="70.0054" y="1149.7031">33</text><text fill="#000000" font-family="sans-serif" font-size="13" lengthAdjust="spacing" textLength="121.291" x="91.1567" y="1149.7031">return map created</text><!--SRC=[xLR1Zjem5Bpp5KzS2glb1pZqGkaAgMKhsFPKgNAJHs9jOgUsiuY_xxDZWkE4i4WzrXB2u9d9-4sSbm_wbOkAALP2AOLCSYLB1ADgd5nMAfQyiWptvbGWA4mC4raH0dJEKdda8eC3ApHE9gmsKjJbRrGqJunKC5sddBwdm3Gqqmbn3KzunOI1wNAba1dyoghl6mVQdxJ1CWBHyaeAesHHOAErUjbrCGJvB5Nf5ksak_g35JnbPoFqgxkymqfgQuwZTeZT-jlplejH0UQdM0vJVkqtswSlwvVdRSzTIpWrSAnSZVWRRV-yQw3HJ66n-EWB1aj8kQuATj9GegWTgcNwee8Vda9ahxE4FHQKdGOZ8N751fCZbAngIS4bgQuF3qHgaBDv3-CW153ufqPjRAa3L6lBvWF1i2JYMZYHCso8WfNu24UUclmHSkHPRkOTMgld8eLeEBL5QychTc0fNfTmdi9AnG81sUvdg5xzY0xMrFZE1a8wyA80MHkNpI4q4HUUJ6w4HJ33fRYZzdJN4_sjEGaOQhm_1djouXHOOO0BfmjMgGUmmrxyajHDU2yQXQPM0b0fAjmivCy71Mv7n3B6nI3thdY6Bdepgd-RZXr8pryOAMeOKihfCQ99MjyHrGtIEmExgFoFBOfjfC0kaRExIyZ0n5LQyEYApwntxlhLURUQUdk2iokdlkc6iQj6mDyfDl1BGxncfIyKchaqpyPMfscEUWlQxg3BGBdrsr4VDNn5_MmTgxPVakOT3rFx2j2pIsgHw1QFLdVpQJwCRk-CiAN7-uWkrJkk8JTgUsDdqvzoOdkpwIHIyEydmJ_-NGT5wZv_0G00]--></g></svg>