<?xml version="1.0" encoding="us-ascii" standalone="no"?><svg xmlns="http://www.w3.org/2000/svg" xmlns:xlink="http://www.w3.org/1999/xlink" contentStyleType="text/css" height="784px" preserveAspectRatio="none" style="width:1120px;height:784px;background:#FFFFFF;" version="1.1" viewBox="0 0 1120 784" width="1120px" zoomAndPan="magnify"><defs/><g><text fill="#000000" font-family="sans-serif" font-size="14" font-weight="bold" lengthAdjust="spacing" textLength="260" x="431.75" y="30.1074">USEI07 - Build &amp; Analyze 2D-Tree (SD)</text><rect fill="#FFFFFF" height="526.6953" style="stroke:#181818;stroke-width:1.0;" width="10" x="336.5" y="156.5332"/><rect fill="#FFFFFF" height="464.1133" style="stroke:#181818;stroke-width:1.0;" width="10" x="550.5" y="187.8242"/><rect fill="#FFFFFF" height="172.4941" style="stroke:#181818;stroke-width:1.0;" width="10" x="555.5" y="253.4063"/><rect fill="#FFFFFF" height="30" style="stroke:#181818;stroke-width:1.0;" width="10" x="855.5" y="395.9004"/><rect fill="#FFFFFF" height="31.291" style="stroke:#181818;stroke-width:1.0;" width="10" x="855.5" y="464.1914"/><rect fill="#FFFFFF" height="31.291" style="stroke:#181818;stroke-width:1.0;" width="10" x="855.5" y="526.7734"/><rect fill="#FFFFFF" height="31.291" style="stroke:#181818;stroke-width:1.0;" width="10" x="855.5" y="589.3555"/><rect fill="none" height="231.0762" style="stroke:#000000;stroke-width:1.5;" width="644.5" x="470" y="202.8242"/><line style="stroke:#181818;stroke-width:0.5;stroke-dasharray:5.0,5.0;" x1="32" x2="32" y1="123.2422" y2="701.2285"/><line style="stroke:#181818;stroke-width:0.5;stroke-dasharray:5.0,5.0;" x1="341.5" x2="341.5" y1="123.2422" y2="701.2285"/><line style="stroke:#181818;stroke-width:0.5;stroke-dasharray:5.0,5.0;" x1="555" x2="555" y1="123.2422" y2="701.2285"/><line style="stroke:#181818;stroke-width:0.5;stroke-dasharray:5.0,5.0;" x1="860.5" x2="860.5" y1="360.7988" y2="701.2285"/><line style="stroke:#181818;stroke-width:0.5;stroke-dasharray:5.0,5.0;" x1="959.5" x2="959.5" y1="123.2422" y2="701.2285"/><line style="stroke:#181818;stroke-width:0.5;stroke-dasharray:5.0,5.0;" x1="1058.5" x2="1058.5" y1="123.2422" y2="701.2285"/><text fill="#000000" font-family="sans-serif" font-size="14" lengthAdjust="spacing" textLength="49" x="5" y="119.7285">Planner</text><ellipse cx="32.5" cy="53.1211" fill="#E3E3E3" rx="8" ry="8" style="stroke:#181818;stroke-width:0.5;"/><path d="M32.5,61.1211 L32.5,88.1211 M19.5,69.1211 L45.5,69.1211 M32.5,88.1211 L19.5,103.1211 M32.5,88.1211 L45.5,103.1211 " fill="none" style="stroke:#181818;stroke-width:0.5;"/><text fill="#000000" font-family="sans-serif" font-size="14" lengthAdjust="spacing" textLength="49" x="5" y="715.3359">Planner</text><ellipse cx="32.5" cy="727.3496" fill="#E3E3E3" rx="8" ry="8" style="stroke:#181818;stroke-width:0.5;"/><path d="M32.5,735.3496 L32.5,762.3496 M19.5,743.3496 L45.5,743.3496 M32.5,762.3496 L19.5,777.3496 M32.5,762.3496 L45.5,777.3496 " fill="none" style="stroke:#181818;stroke-width:0.5;"/><rect fill="#E3E3E3" height="32.6211" rx="2.5" ry="2.5" style="stroke:#181818;stroke-width:0.5;" width="124" x="279.5" y="89.6211"/><text fill="#000000" font-family="sans-serif" font-size="14" lengthAdjust="spacing" textLength="110" x="286.5" y="111.7285">:CargoHandlingUI</text><rect fill="#E3E3E3" height="32.6211" rx="2.5" ry="2.5" style="stroke:#181818;stroke-width:0.5;" width="124" x="279.5" y="700.2285"/><text fill="#000000" font-family="sans-serif" font-size="14" lengthAdjust="spacing" textLength="110" x="286.5" y="722.3359">:CargoHandlingUI</text><rect fill="#E3E3E3" height="32.6211" rx="2.5" ry="2.5" style="stroke:#181818;stroke-width:0.5;" width="151" x="480" y="89.6211"/><text fill="#000000" font-family="sans-serif" font-size="14" lengthAdjust="spacing" textLength="137" x="487" y="111.7285">:StationIndexManager</text><rect fill="#E3E3E3" height="32.6211" rx="2.5" ry="2.5" style="stroke:#181818;stroke-width:0.5;" width="151" x="480" y="700.2285"/><text fill="#000000" font-family="sans-serif" font-size="14" lengthAdjust="spacing" textLength="137" x="487" y="722.3359">:StationIndexManager</text><rect fill="#E3E3E3" height="32.6211" rx="2.5" ry="2.5" style="stroke:#181818;stroke-width:0.5;" width="92" x="814.5" y="700.2285"/><text fill="#000000" font-family="sans-serif" font-size="14" lengthAdjust="spacing" textLength="78" x="821.5" y="722.3359">tree:KDTree</text><rect fill="#E3E3E3" height="32.6211" rx="2.5" ry="2.5" style="stroke:#181818;stroke-width:0.5;" width="87" x="916.5" y="89.6211"/><text fill="#000000" font-family="sans-serif" font-size="14" lengthAdjust="spacing" textLength="73" x="923.5" y="111.7285">latBST:BST</text><rect fill="#E3E3E3" height="32.6211" rx="2.5" ry="2.5" style="stroke:#181818;stroke-width:0.5;" width="87" x="916.5" y="700.2285"/><text fill="#000000" font-family="sans-serif" font-size="14" lengthAdjust="spacing" textLength="73" x="923.5" y="722.3359">latBST:BST</text><rect fill="#E3E3E3" height="32.6211" rx="2.5" ry="2.5" style="stroke:#181818;stroke-width:0.5;" width="91" x="1013.5" y="89.6211"/><text fill="#000000" font-family="sans-serif" font-size="14" lengthAdjust="spacing" textLength="77" x="1020.5" y="111.7285">lonBST:BST</text><rect fill="#E3E3E3" height="32.6211" rx="2.5" ry="2.5" style="stroke:#181818;stroke-width:0.5;" width="91" x="1013.5" y="700.2285"/><text fill="#000000" font-family="sans-serif" font-size="14" lengthAdjust="spacing" textLength="77" x="1020.5" y="722.3359">lonBST:BST</text><rect fill="#FFFFFF" height="526.6953" style="stroke:#181818;stroke-width:1.0;" width="10" x="336.5" y="156.5332"/><rect fill="#FFFFFF" height="464.1133" style="stroke:#181818;stroke-width:1.0;" width="10" x="550.5" y="187.8242"/><rect fill="#FFFFFF" height="172.4941" style="stroke:#181818;stroke-width:1.0;" width="10" x="555.5" y="253.4063"/><rect fill="#FFFFFF" height="30" style="stroke:#181818;stroke-width:1.0;" width="10" x="855.5" y="395.9004"/><rect fill="#FFFFFF" height="31.291" style="stroke:#181818;stroke-width:1.0;" width="10" x="855.5" y="464.1914"/><rect fill="#FFFFFF" height="31.291" style="stroke:#181818;stroke-width:1.0;" width="10" x="855.5" y="526.7734"/><rect fill="#FFFFFF" height="31.291" style="stroke:#181818;stroke-width:1.0;" width="10" x="855.5" y="589.3555"/><polygon fill="#181818" points="324.5,152.5332,334.5,156.5332,324.5,160.5332,328.5,156.5332" style="stroke:#181818;stroke-width:1.0;"/><line style="stroke:#181818;stroke-width:1.0;" x1="32.5" x2="330.5" y1="156.5332" y2="156.5332"/><text fill="#000000" font-family="sans-serif" font-size="13" font-weight="bold" lengthAdjust="spacing" textLength="7" x="39.5" y="151.2705">1</text><text fill="#000000" font-family="sans-serif" font-size="13" lengthAdjust="spacing" textLength="191" x="50.5" y="151.2705">requestBuildAndAnalyze2DTree()</text><polygon fill="#181818" points="538.5,183.8242,548.5,187.8242,538.5,191.8242,542.5,187.8242" style="stroke:#181818;stroke-width:1.0;"/><line style="stroke:#181818;stroke-width:1.0;" x1="346.5" x2="544.5" y1="187.8242" y2="187.8242"/><text fill="#000000" font-family="sans-serif" font-size="13" font-weight="bold" lengthAdjust="spacing" textLength="7" x="353.5" y="182.5615">2</text><text fill="#000000" font-family="sans-serif" font-size="13" lengthAdjust="spacing" textLength="98" x="364.5" y="182.5615">get2DTreeStats()</text><path d="M470,202.8242 L535,202.8242 L535,212.1152 L525,222.1152 L470,222.1152 L470,202.8242 " fill="#EEEEEE" style="stroke:#000000;stroke-width:1.5;"/><rect fill="none" height="231.0762" style="stroke:#000000;stroke-width:1.5;" width="644.5" x="470" y="202.8242"/><text fill="#000000" font-family="sans-serif" font-size="13" font-weight="bold" lengthAdjust="spacing" textLength="20" x="485" y="217.8525">opt</text><text fill="#000000" font-family="sans-serif" font-size="11" font-weight="bold" lengthAdjust="spacing" textLength="79" x="550" y="216.6943">["tree == null"]</text><line style="stroke:#181818;stroke-width:1.0;" x1="560.5" x2="607.5" y1="240.4063" y2="240.4063"/><line style="stroke:#181818;stroke-width:1.0;" x1="607.5" x2="607.5" y1="240.4063" y2="253.4063"/><line style="stroke:#181818;stroke-width:1.0;" x1="566.5" x2="607.5" y1="253.4063" y2="253.4063"/><polygon fill="#181818" points="576.5,249.4063,566.5,253.4063,576.5,257.4063,572.5,253.4063" style="stroke:#181818;stroke-width:1.0;"/><text fill="#000000" font-family="sans-serif" font-size="13" font-weight="bold" lengthAdjust="spacing" textLength="7" x="572.5" y="235.1436">3</text><text fill="#000000" font-family="sans-serif" font-size="13" lengthAdjust="spacing" textLength="76" x="583.5" y="235.1436">build2DTree()</text><polygon fill="#181818" points="948,285.6973,958,289.6973,948,293.6973,952,289.6973" style="stroke:#181818;stroke-width:1.0;"/><line style="stroke:#181818;stroke-width:1.0;" x1="565.5" x2="954" y1="289.6973" y2="289.6973"/><text fill="#000000" font-family="sans-serif" font-size="13" font-weight="bold" lengthAdjust="spacing" textLength="7" x="572.5" y="284.4346">4</text><text fill="#000000" font-family="sans-serif" font-size="13" lengthAdjust="spacing" textLength="135" x="583.5" y="284.4346">(gets orderedByLat list)</text><polygon fill="#181818" points="1047,316.9883,1057,320.9883,1047,324.9883,1051,320.9883" style="stroke:#181818;stroke-width:1.0;"/><line style="stroke:#181818;stroke-width:1.0;" x1="565.5" x2="1053" y1="320.9883" y2="320.9883"/><text fill="#000000" font-family="sans-serif" font-size="13" font-weight="bold" lengthAdjust="spacing" textLength="7" x="572.5" y="315.7256">5</text><text fill="#000000" font-family="sans-serif" font-size="13" lengthAdjust="spacing" textLength="138" x="583.5" y="315.7256">(gets orderedByLon list)</text><polygon fill="#181818" points="802.5,348.2793,812.5,352.2793,802.5,356.2793,806.5,352.2793" style="stroke:#181818;stroke-width:1.0;"/><line style="stroke:#181818;stroke-width:1.0;" x1="565.5" x2="808.5" y1="352.2793" y2="352.2793"/><text fill="#000000" font-family="sans-serif" font-size="13" font-weight="bold" lengthAdjust="spacing" textLength="7" x="572.5" y="347.0166">6</text><text fill="#000000" font-family="sans-serif" font-size="13" lengthAdjust="spacing" textLength="44" x="583.5" y="347.0166">create()</text><rect fill="#E3E3E3" height="32.6211" rx="2.5" ry="2.5" style="stroke:#181818;stroke-width:0.5;" width="92" x="814.5" y="328.9883"/><text fill="#000000" font-family="sans-serif" font-size="14" lengthAdjust="spacing" textLength="78" x="821.5" y="351.0957">tree:KDTree</text><polygon fill="#181818" points="843.5,391.9004,853.5,395.9004,843.5,399.9004,847.5,395.9004" style="stroke:#181818;stroke-width:1.0;"/><line style="stroke:#181818;stroke-width:1.0;" x1="565.5" x2="849.5" y1="395.9004" y2="395.9004"/><text fill="#000000" font-family="sans-serif" font-size="13" font-weight="bold" lengthAdjust="spacing" textLength="7" x="572.5" y="390.6377">7</text><text fill="#000000" font-family="sans-serif" font-size="13" lengthAdjust="spacing" textLength="260" x="583.5" y="390.6377">buildBalanced(stationsByLat, stationsByLon)</text><polygon fill="#181818" points="843.5,460.1914,853.5,464.1914,843.5,468.1914,847.5,464.1914" style="stroke:#181818;stroke-width:1.0;"/><line style="stroke:#181818;stroke-width:1.0;" x1="560.5" x2="849.5" y1="464.1914" y2="464.1914"/><text fill="#000000" font-family="sans-serif" font-size="13" font-weight="bold" lengthAdjust="spacing" textLength="7" x="567.5" y="458.9287">8</text><text fill="#000000" font-family="sans-serif" font-size="13" lengthAdjust="spacing" textLength="32" x="578.5" y="458.9287">size()</text><polygon fill="#181818" points="571.5,491.4824,561.5,495.4824,571.5,499.4824,567.5,495.4824" style="stroke:#181818;stroke-width:1.0;"/><line style="stroke:#181818;stroke-width:1.0;stroke-dasharray:2.0,2.0;" x1="565.5" x2="859.5" y1="495.4824" y2="495.4824"/><text fill="#000000" font-family="sans-serif" font-size="13" font-weight="bold" lengthAdjust="spacing" textLength="7" x="577.5" y="490.2197">9</text><text fill="#000000" font-family="sans-serif" font-size="13" lengthAdjust="spacing" textLength="48" x="588.5" y="490.2197">treeSize</text><polygon fill="#181818" points="843.5,522.7734,853.5,526.7734,843.5,530.7734,847.5,526.7734" style="stroke:#181818;stroke-width:1.0;"/><line style="stroke:#181818;stroke-width:1.0;" x1="560.5" x2="849.5" y1="526.7734" y2="526.7734"/><text fill="#000000" font-family="sans-serif" font-size="13" font-weight="bold" lengthAdjust="spacing" textLength="14" x="567.5" y="521.5107">10</text><text fill="#000000" font-family="sans-serif" font-size="13" lengthAdjust="spacing" textLength="43" x="585.5" y="521.5107">height()</text><polygon fill="#181818" points="571.5,554.0645,561.5,558.0645,571.5,562.0645,567.5,558.0645" style="stroke:#181818;stroke-width:1.0;"/><line style="stroke:#181818;stroke-width:1.0;stroke-dasharray:2.0,2.0;" x1="565.5" x2="859.5" y1="558.0645" y2="558.0645"/><text fill="#000000" font-family="sans-serif" font-size="13" font-weight="bold" lengthAdjust="spacing" textLength="14" x="577.5" y="552.8018">11</text><text fill="#000000" font-family="sans-serif" font-size="13" lengthAdjust="spacing" textLength="59" x="595.5" y="552.8018">treeHeight</text><polygon fill="#181818" points="843.5,585.3555,853.5,589.3555,843.5,593.3555,847.5,589.3555" style="stroke:#181818;stroke-width:1.0;"/><line style="stroke:#181818;stroke-width:1.0;" x1="560.5" x2="849.5" y1="589.3555" y2="589.3555"/><text fill="#000000" font-family="sans-serif" font-size="13" font-weight="bold" lengthAdjust="spacing" textLength="14" x="567.5" y="584.0928">12</text><text fill="#000000" font-family="sans-serif" font-size="13" lengthAdjust="spacing" textLength="100" x="585.5" y="584.0928">getBucketSizes()</text><polygon fill="#181818" points="571.5,616.6465,561.5,620.6465,571.5,624.6465,567.5,620.6465" style="stroke:#181818;stroke-width:1.0;"/><line style="stroke:#181818;stroke-width:1.0;stroke-dasharray:2.0,2.0;" x1="565.5" x2="859.5" y1="620.6465" y2="620.6465"/><text fill="#000000" font-family="sans-serif" font-size="13" font-weight="bold" lengthAdjust="spacing" textLength="14" x="577.5" y="615.3838">13</text><text fill="#000000" font-family="sans-serif" font-size="13" lengthAdjust="spacing" textLength="64" x="595.5" y="615.3838">bucketMap</text><polygon fill="#181818" points="357.5,647.9375,347.5,651.9375,357.5,655.9375,353.5,651.9375" style="stroke:#181818;stroke-width:1.0;"/><line style="stroke:#181818;stroke-width:1.0;stroke-dasharray:2.0,2.0;" x1="351.5" x2="554.5" y1="651.9375" y2="651.9375"/><text fill="#000000" font-family="sans-serif" font-size="13" font-weight="bold" lengthAdjust="spacing" textLength="14" x="363.5" y="646.6748">14</text><text fill="#000000" font-family="sans-serif" font-size="13" lengthAdjust="spacing" textLength="162" x="381.5" y="646.6748">stats (size, height, buckets)</text><polygon fill="#181818" points="43.5,679.2285,33.5,683.2285,43.5,687.2285,39.5,683.2285" style="stroke:#181818;stroke-width:1.0;"/><line style="stroke:#181818;stroke-width:1.0;stroke-dasharray:2.0,2.0;" x1="37.5" x2="340.5" y1="683.2285" y2="683.2285"/><text fill="#000000" font-family="sans-serif" font-size="13" font-weight="bold" lengthAdjust="spacing" textLength="14" x="49.5" y="677.9658">15</text><text fill="#000000" font-family="sans-serif" font-size="13" lengthAdjust="spacing" textLength="262" x="67.5" y="677.9658">displayTreeAnalysisReport(stats, complexity)</text><!--SRC=[bLHHQzim47xthpZwiAObXT6NWQ65PjdMi1N6aZoFYtLBH1N9ayvhtL-_awm6ns7U9WYHhU-x-xwxirYp8LWlFopUleChc3NQA7W3TnPD-q9mFRzQUIAOBESNHH4UjQtHunxsphfgvzsUW7r3lPCQgqVSqf9RYUkfOhHRqmU47IhtfEqMVg09L1JOiBFDVaDUzXKx3ryDMYkFGc1TwHejmrdv7ltMtQDLHiZhnHbWWFLY05eoidPsOHKzFw0L9Ju1y_uOpMAj_3oF3XEesnvZ3F9ikIhbbo3o__qByW3Zx0d6sQB8Fk3gLeIMKesV3GLEDRwpAjVuEYMTN4Jl-XSoHLCWQxs8n2oyX2rn1uqMW-0Zvi1vzPVUndKE7xKF3AobHxwnLefMmYRcViq8Ea25nf0wi5oTom8tDs0ROyuEHt7bB4UwZa8UeK_4mM2Tmsf7WS3em06Uo1EWyOIgXThLZPIU56pQBaLgAOL1Ze6gt9uI9bAk0Cuh2QfchRnBMVvETlQKx6mcZx6xuRcyBA4I2qpZGZjqhjuCPL0gKfFGJMz8WgVGUtJsDDoXldbkX-UAnX2zqs5_oAh-87qYJb92CM8aw9U-vJzbziIDjn17R2cCOYpaZlHsn_yNz3vnHiDASsTDzKWS1OH_3xz9f0Uik-ZvRIeCJABzQLOypT2G1oP-o98_tmObA1rgWstCaUw0eCCtgftdrFymXShjQqFFcjkBejSckHT-0m00]--></g></svg>