<?xml version="1.0" encoding="us-ascii" standalone="no"?><svg xmlns="http://www.w3.org/2000/svg" xmlns:xlink="http://www.w3.org/1999/xlink" contentStyleType="text/css" height="545px" preserveAspectRatio="none" style="width:1019px;height:545px;background:#FFFFFF;" version="1.1" viewBox="0 0 1019 545" width="1019px" zoomAndPan="magnify"><defs/><g><rect fill="#FFFFFF" height="358.541" style="stroke:#181818;stroke-width:1.0;" width="10" x="76" y="93.6211"/><rect fill="#FFFFFF" height="289.959" style="stroke:#181818;stroke-width:1.0;" width="10" x="428" y="162.2031"/><rect fill="#FFFFFF" height="31.291" style="stroke:#181818;stroke-width:1.0;" width="10" x="666" y="193.4941"/><rect fill="#FFFFFF" height="75.582" style="stroke:#181818;stroke-width:1.0;" width="10" x="741.5" y="256.0762"/><rect fill="none" height="98.5039" style="stroke:#000000;stroke-width:1.5;" width="486.5" x="10" y="346.6582"/><line style="stroke:#181818;stroke-width:0.5;stroke-dasharray:5.0,5.0;" x1="81" x2="81" y1="83.6211" y2="462.1621"/><line style="stroke:#181818;stroke-width:0.5;stroke-dasharray:5.0,5.0;" x1="432.5" x2="432.5" y1="83.6211" y2="462.1621"/><line style="stroke:#181818;stroke-width:0.5;stroke-dasharray:5.0,5.0;" x1="670.5" x2="670.5" y1="83.6211" y2="462.1621"/><line style="stroke:#181818;stroke-width:0.5;stroke-dasharray:5.0,5.0;" x1="746.5" x2="746.5" y1="83.6211" y2="462.1621"/><text fill="#000000" font-family="sans-serif" font-size="14" lengthAdjust="spacing" textLength="116" x="20" y="80.1074">Terminal Operator</text><ellipse cx="81" cy="13.5" fill="#E2E2F0" rx="8" ry="8" style="stroke:#181818;stroke-width:0.5;"/><path d="M81,21.5 L81,48.5 M68,29.5 L94,29.5 M81,48.5 L68,63.5 M81,48.5 L94,63.5 " fill="none" style="stroke:#181818;stroke-width:0.5;"/><text fill="#000000" font-family="sans-serif" font-size="14" lengthAdjust="spacing" textLength="116" x="20" y="476.2695">Terminal Operator</text><ellipse cx="81" cy="488.2832" fill="#E2E2F0" rx="8" ry="8" style="stroke:#181818;stroke-width:0.5;"/><path d="M81,496.2832 L81,523.2832 M68,504.2832 L94,504.2832 M81,523.2832 L68,538.2832 M81,523.2832 L94,538.2832 " fill="none" style="stroke:#181818;stroke-width:0.5;"/><rect fill="#E2E2F0" height="32.6211" rx="2.5" ry="2.5" style="stroke:#181818;stroke-width:0.5;" width="107" x="379.5" y="50"/><text fill="#000000" font-family="sans-serif" font-size="14" lengthAdjust="spacing" textLength="93" x="386.5" y="72.1074">System (WMS)</text><rect fill="#E2E2F0" height="32.6211" rx="2.5" ry="2.5" style="stroke:#181818;stroke-width:0.5;" width="107" x="379.5" y="461.1621"/><text fill="#000000" font-family="sans-serif" font-size="14" lengthAdjust="spacing" textLength="93" x="386.5" y="483.2695">System (WMS)</text><rect fill="#E2E2F0" height="32.6211" rx="2.5" ry="2.5" style="stroke:#181818;stroke-width:0.5;" width="59" x="641.5" y="50"/><text fill="#000000" font-family="sans-serif" font-size="14" lengthAdjust="spacing" textLength="45" x="648.5" y="72.1074">Wagon</text><rect fill="#E2E2F0" height="32.6211" rx="2.5" ry="2.5" style="stroke:#181818;stroke-width:0.5;" width="59" x="641.5" y="461.1621"/><text fill="#000000" font-family="sans-serif" font-size="14" lengthAdjust="spacing" textLength="45" x="648.5" y="483.2695">Wagon</text><rect fill="#E2E2F0" height="32.6211" rx="2.5" ry="2.5" style="stroke:#181818;stroke-width:0.5;" width="72" x="710.5" y="50"/><text fill="#000000" font-family="sans-serif" font-size="14" lengthAdjust="spacing" textLength="58" x="717.5" y="72.1074">Inventory</text><rect fill="#E2E2F0" height="32.6211" rx="2.5" ry="2.5" style="stroke:#181818;stroke-width:0.5;" width="72" x="710.5" y="461.1621"/><text fill="#000000" font-family="sans-serif" font-size="14" lengthAdjust="spacing" textLength="58" x="717.5" y="483.2695">Inventory</text><rect fill="#FFFFFF" height="358.541" style="stroke:#181818;stroke-width:1.0;" width="10" x="76" y="93.6211"/><rect fill="#FFFFFF" height="289.959" style="stroke:#181818;stroke-width:1.0;" width="10" x="428" y="162.2031"/><rect fill="#FFFFFF" height="31.291" style="stroke:#181818;stroke-width:1.0;" width="10" x="666" y="193.4941"/><rect fill="#FFFFFF" height="75.582" style="stroke:#181818;stroke-width:1.0;" width="10" x="741.5" y="256.0762"/><rect fill="#EEEEEE" height="3" style="stroke:#EEEEEE;stroke-width:1.0;" width="1012.5" x="0" y="115.2666"/><line style="stroke:#000000;stroke-width:1.0;" x1="0" x2="1012.5" y1="115.2666" y2="115.2666"/><line style="stroke:#000000;stroke-width:1.0;" x1="0" x2="1012.5" y1="118.2666" y2="118.2666"/><rect fill="#EEEEEE" height="25.291" style="stroke:#000000;stroke-width:2.0;" width="131" x="440.75" y="103.6211"/><text fill="#000000" font-family="sans-serif" font-size="13" font-weight="bold" lengthAdjust="spacing" textLength="113" x="446.75" y="121.6494">Start of Operation</text><polygon fill="#181818" points="416,158.2031,426,162.2031,416,166.2031,420,162.2031" style="stroke:#181818;stroke-width:1.0;"/><line style="stroke:#181818;stroke-width:1.0;" x1="86" x2="422" y1="162.2031" y2="162.2031"/><text fill="#000000" font-family="sans-serif" font-size="13" font-weight="bold" lengthAdjust="spacing" textLength="7" x="93" y="156.9404">1</text><text fill="#000000" font-family="sans-serif" font-size="13" lengthAdjust="spacing" textLength="153" x="104" y="156.9404">Request to unload wagons</text><polygon fill="#181818" points="654,189.4941,664,193.4941,654,197.4941,658,193.4941" style="stroke:#181818;stroke-width:1.0;"/><line style="stroke:#181818;stroke-width:1.0;" x1="438" x2="660" y1="193.4941" y2="193.4941"/><text fill="#000000" font-family="sans-serif" font-size="13" font-weight="bold" lengthAdjust="spacing" textLength="7" x="445" y="188.2314">2</text><text fill="#000000" font-family="sans-serif" font-size="13" lengthAdjust="spacing" textLength="198" x="456" y="188.2314">Retrieve wagon data (list of boxes)</text><polygon fill="#181818" points="449,220.7852,439,224.7852,449,228.7852,445,224.7852" style="stroke:#181818;stroke-width:1.0;"/><line style="stroke:#181818;stroke-width:1.0;stroke-dasharray:2.0,2.0;" x1="443" x2="670" y1="224.7852" y2="224.7852"/><text fill="#000000" font-family="sans-serif" font-size="13" font-weight="bold" lengthAdjust="spacing" textLength="7" x="455" y="219.5225">3</text><text fill="#000000" font-family="sans-serif" font-size="13" lengthAdjust="spacing" textLength="112" x="466" y="219.5225">Return list of boxes</text><polygon fill="#181818" points="729.5,252.0762,739.5,256.0762,729.5,260.0762,733.5,256.0762" style="stroke:#181818;stroke-width:1.0;"/><line style="stroke:#181818;stroke-width:1.0;" x1="438" x2="735.5" y1="256.0762" y2="256.0762"/><text fill="#000000" font-family="sans-serif" font-size="13" font-weight="bold" lengthAdjust="spacing" textLength="7" x="445" y="250.8135">4</text><text fill="#000000" font-family="sans-serif" font-size="13" lengthAdjust="spacing" textLength="153" x="456" y="250.8135">unloadBoxes(list of boxes)</text><line style="stroke:#181818;stroke-width:1.0;" x1="751.5" x2="793.5" y1="287.3672" y2="287.3672"/><line style="stroke:#181818;stroke-width:1.0;" x1="793.5" x2="793.5" y1="287.3672" y2="300.3672"/><line style="stroke:#181818;stroke-width:1.0;" x1="752.5" x2="793.5" y1="300.3672" y2="300.3672"/><polygon fill="#181818" points="762.5,296.3672,752.5,300.3672,762.5,304.3672,758.5,300.3672" style="stroke:#181818;stroke-width:1.0;"/><text fill="#000000" font-family="sans-serif" font-size="13" font-weight="bold" lengthAdjust="spacing" textLength="7" x="758.5" y="282.1045">5</text><text fill="#000000" font-family="sans-serif" font-size="13" lengthAdjust="spacing" textLength="231" x="769.5" y="282.1045">insert each Box using FEFO/FIFO order</text><polygon fill="#181818" points="449,327.6582,439,331.6582,449,335.6582,445,331.6582" style="stroke:#181818;stroke-width:1.0;"/><line style="stroke:#181818;stroke-width:1.0;stroke-dasharray:2.0,2.0;" x1="443" x2="745.5" y1="331.6582" y2="331.6582"/><text fill="#000000" font-family="sans-serif" font-size="13" font-weight="bold" lengthAdjust="spacing" textLength="7" x="455" y="326.3955">6</text><text fill="#000000" font-family="sans-serif" font-size="13" lengthAdjust="spacing" textLength="159" x="466" y="326.3955">Confirmation (boxes stored)</text><path d="M10,346.6582 L71,346.6582 L71,355.9492 L61,365.9492 L10,365.9492 L10,346.6582 " fill="#EEEEEE" style="stroke:#000000;stroke-width:1.5;"/><rect fill="none" height="98.5039" style="stroke:#000000;stroke-width:1.5;" width="486.5" x="10" y="346.6582"/><text fill="#000000" font-family="sans-serif" font-size="13" font-weight="bold" lengthAdjust="spacing" textLength="16" x="25" y="361.6865">alt</text><text fill="#000000" font-family="sans-serif" font-size="11" font-weight="bold" lengthAdjust="spacing" textLength="55" x="86" y="360.5283">[success]</text><polygon fill="#181818" points="97,385.2402,87,389.2402,97,393.2402,93,389.2402" style="stroke:#181818;stroke-width:1.0;"/><line style="stroke:#181818;stroke-width:1.0;" x1="91" x2="427" y1="389.2402" y2="389.2402"/><text fill="#000000" font-family="sans-serif" font-size="13" font-weight="bold" lengthAdjust="spacing" textLength="7" x="103" y="383.9775">7</text><text fill="#000000" font-family="sans-serif" font-size="13" lengthAdjust="spacing" textLength="294" x="114" y="383.9775">Display message "Wagons successfully unloaded"</text><line style="stroke:#000000;stroke-width:1.0;stroke-dasharray:2.0,2.0;" x1="10" x2="496.5" y1="398.2402" y2="398.2402"/><text fill="#000000" font-family="sans-serif" font-size="11" font-weight="bold" lengthAdjust="spacing" textLength="92" x="15" y="410.1104">[validation error]</text><polygon fill="#181818" points="97,433.1621,87,437.1621,97,441.1621,93,437.1621" style="stroke:#181818;stroke-width:1.0;"/><line style="stroke:#181818;stroke-width:1.0;" x1="91" x2="427" y1="437.1621" y2="437.1621"/><text fill="#000000" font-family="sans-serif" font-size="13" font-weight="bold" lengthAdjust="spacing" textLength="7" x="103" y="431.8994">8</text><text fill="#000000" font-family="sans-serif" font-size="13" lengthAdjust="spacing" textLength="307" x="114" y="431.8994">Display error message (invalid SKU, quantity, date...)</text><!--SRC=[XLB9QiCm4BthAmQVR4ZJUy0zT364KW9rIyuJQv8APCdHujP_NqLsl0HATTBojj4CUgULhmza6CFAQGF91vbQA9ImQyXWk4e0xNXW3HedAj6WSf2KdNLKGxf_AxC8wo-Me3sUj8glSRTytAgMLD3j8c0yCPRdKBg017qSp8LMaESnfsZHqPJfke6xXo41RE2Tpfwi0wV1AwcHm_V5tiu4XhG39P1ZmCXrHb1BFGKuEeHK2XlJ7FGFsMnIwQlggNVB1CuR1GiUutH3dDcFvGTod_dnmldJUVgkYNaZ8vIby8d1z0k267Whr0cAbs9tNsoB7MZ3G-zdz7a1JreTXQdxhq-ZEzW08vxDwvXr3QK3wwkAh6KGrbJRsACDF0lRIEoW3YWyqJ0XzaeyUYcxeNxY2IDf2LgKWlT1o9ZGyt_L8spqI8MA4b2-VgxWxCFm2TUjBgsbzNgTCLASpOiQPcDsCuxRBm00]--></g></svg>